<svg width="91" height="81" viewBox="0 0 91 81" fill="none" xmlns="http://www.w3.org/2000/svg">
<g clip-path="url(#clip0_117_2573)">
<path d="M63.7743 54.2922C63.8 54.8566 63.8252 55.4229 63.849 55.9867C63.8258 55.421 63.8 54.8566 63.7755 54.2882L63.7743 54.2922Z" fill="white"/>
<path d="M56.0768 54.8817C56.1408 54.8168 56.1656 54.7177 56.1625 54.5901C56.165 54.7197 56.1408 54.8168 56.0768 54.8817Z" fill="white"/>
<path d="M61.4867 55.3837C61.8833 55.5528 62.2767 55.7252 62.7268 55.9177C62.2773 55.7232 61.8813 55.5522 61.4873 55.3817L61.4867 55.3837Z" fill="white"/>
<path d="M36.5942 40.3905C36.853 40.7343 37.1118 41.0781 37.3725 41.4225C37.1137 41.0787 36.8524 40.7363 36.5942 40.3905Z" fill="white"/>
<path d="M17.7647 39.4522C17.981 39.167 18.2697 38.9003 18.488 38.6156C18.2697 38.9003 17.983 39.1676 17.7647 39.4522Z" fill="white"/>
<path d="M63.7706 54.1593L63.8259 54.1339L63.7706 54.1593Z" fill="white"/>
<path d="M19.787 17.0151C19.3584 17.6147 19.1183 18.3742 18.9031 19.0958C18.6611 19.9093 18.633 20.7882 18.3548 21.5858C17.1354 25.0918 15.8877 28.5909 14.5978 32.0724C13.5674 34.8571 14.8364 37.4332 15.9662 39.577C18.1955 43.8026 22.544 45.9366 26.7259 47.656C32.4229 49.9984 38.3835 51.7064 44.264 53.5855C46.4658 54.2904 48.7561 54.7158 51.4251 55.3722C50.9435 55.9746 50.597 56.8161 49.9928 57.0984C48.4694 57.8142 47.3427 58.8627 46.517 60.1548C45.2311 61.2598 44.1754 62.6951 43.251 64.0519C42.2901 65.4626 40.774 68.4362 42.0668 70.0164C42.2102 70.1883 42.5397 70.1288 42.5921 69.9011C42.7864 69.0464 42.6705 68.183 42.8736 67.3136C43.1348 66.1921 43.7303 65.161 44.3054 64.1737C44.6156 63.6392 44.9728 63.1348 45.3526 62.6485C44.6793 64.5166 44.1505 66.45 43.5191 68.447C43.9816 68.5234 44.337 68.5813 44.7272 68.6458C44.5982 69.4317 44.4807 70.1537 44.3607 70.877C44.4434 70.8901 44.5262 70.9031 44.609 70.9162C45.0107 69.9068 45.4111 68.8947 45.8129 67.8853C45.9018 67.9134 45.9906 67.9415 46.0795 67.9696C45.8151 69.3693 45.5513 70.767 45.2869 72.1667C45.557 72.2194 45.8265 72.2741 46.0966 72.3268C46.535 70.9406 46.962 69.5487 47.4142 68.1669C48.0853 66.1178 48.8635 65.0057 49.7489 64.8304L47.3228 72.5029C49.6967 69.0152 50.6489 65.0212 51.6611 60.7758C52.5837 63.0525 51.6121 64.8677 51.1737 66.701C50.7322 68.5508 50.0545 70.3434 49.4795 72.1618C50.5102 71.1287 51.4977 70.1562 52.053 68.9772C52.595 67.8267 52.6988 66.4678 52.9952 65.2004C53.1902 65.2228 53.384 65.2491 53.577 65.2709C53.4273 67.4965 53.2775 69.7221 53.1278 71.9477C53.222 71.9797 53.3162 72.0117 53.4117 72.0462C53.9823 70.2416 54.97 68.4511 55.0305 66.6314C55.1319 63.5071 54.2296 60.4929 52.6575 57.7207C52.3946 57.2536 52.3554 56.4843 52.5588 55.9989C52.6653 55.7447 53.5419 55.6728 54.0352 55.7481C57.0671 56.2051 60.075 56.8072 63.1127 57.2115C65.7913 57.5698 66.4456 57.0743 67.3501 54.6467C69.3477 49.2841 71.3454 43.9215 73.409 38.584C73.6131 38.0553 74.2428 37.3557 74.7136 37.3235C77.5435 37.1276 80.4039 37.2686 83.2143 36.9488C84.5302 36.7999 86.4088 37.2631 87.0381 35.3483C86.2264 34.7339 85.5122 34.1547 84.7615 33.6294C80.3721 30.5597 75.9808 27.4959 71.576 24.4474C70.2819 23.5518 68.9267 22.7459 67.6371 21.843C65.2782 20.1918 63.0001 18.4157 60.5892 16.8463C58.3134 15.3654 55.6455 14.3822 53.6383 12.622C51.7838 10.9972 49.7949 10.5123 47.592 10.3742C43.738 10.1327 39.8751 10.0565 36.0184 9.85786C33.7673 9.74157 31.5288 9.44819 29.2767 9.35559C26.0508 9.22335 22.8189 9.17867 19.5904 9.13721C18.4498 9.12337 17.3088 9.22724 16.1698 9.27715C16.0793 9.50157 15.9907 9.72661 15.9002 9.95102C17.1414 11.3098 18.376 12.6753 19.6263 14.026C20.5156 14.9856 20.5775 15.917 19.7903 17.0183L19.787 17.0151ZM50.2113 54.5935C50.5352 52.1263 50.7903 50.1652 51.0863 47.903L49.2572 53.6876C48.5262 51.3406 50.301 49.5001 50.2441 47.2201L48.2538 53.5143C46.8775 53.1533 45.5598 52.8064 44.1795 52.4441L44.5463 51.284C44.8094 51.4828 45.022 51.6417 45.2851 51.8405L48.3043 42.292C47.0131 42.3353 46.3829 42.6792 46.0517 43.9945C45.3468 46.808 44.3518 49.5494 43.4758 52.3198C43.258 52.2596 43.0421 52.2001 42.8243 52.1399C43.5706 49.237 44.3182 46.3366 45.0659 43.4363C43.4102 45.9033 42.6829 48.76 42.1226 51.8373C41.5172 51.7113 40.9827 51.6013 40.7093 51.5453L43.7147 42.0405C43.6316 41.9597 43.5505 41.8795 43.4675 41.7987C42.5673 43.2919 41.5325 44.7228 40.8085 46.2979C40.129 47.7735 39.782 49.4002 39.2879 50.9628C39.0928 50.8858 38.897 50.8109 38.7033 50.7365L41.7281 41.1702C40.0737 41.4825 37.8325 46.8663 37.9424 50.5592L35.6334 49.8291C36.7855 46.7076 37.9295 43.6119 39.0735 40.5162C38.9728 40.443 38.8715 40.3717 38.7702 40.3004C38.3283 40.6536 37.8863 41.0068 37.3698 41.4172C37.1113 41.0737 36.8501 40.7315 36.5922 40.386C35.4972 42.0968 35.309 44.2448 34.3778 46.1317C34.0663 46.7596 33.6744 47.3599 33.1369 47.9054C33.645 45.1714 34.1113 42.6729 34.5763 40.1718C34.4374 40.1301 34.2992 40.0863 34.1603 40.0446L31.5198 48.3953C31.3847 48.3896 31.2489 48.386 31.1152 48.3829C31.2349 46.7194 31.1679 45.0142 31.527 43.4045C31.8855 41.8033 32.6721 40.2983 32.9049 38.6071C32.0143 40.3106 31.1217 42.0133 30.2311 43.7167C30.1836 43.6952 30.1367 43.6716 30.0892 43.6501L31.8807 37.9845C31.7003 37.9296 31.5219 37.8754 31.341 37.8225L28.3023 47.4324C27.6914 43.8124 28.1587 40.5616 30.2861 37.5304C30.1039 37.4815 29.919 37.434 29.7361 37.3871C28.8908 39.0917 28.0454 40.7963 27.2001 42.5009C27.0491 42.4423 26.8969 42.3811 26.7459 42.3224L28.6772 36.2146C28.5178 36.1554 28.3564 36.0957 28.1949 36.0359C28.0029 36.4987 27.7787 36.9535 27.6263 37.4288C26.9073 39.6751 26.2226 41.9366 25.4774 44.1768C25.3604 44.5259 24.9789 44.7914 24.7204 45.0935C24.6356 44.6676 24.3837 44.1931 24.4931 43.8263C25.2557 41.2361 26.0927 38.6715 26.7701 36.0413C25.8636 37.912 24.9564 39.7846 24.0498 41.6553C23.995 41.6293 23.9377 41.6046 23.8809 41.5779L26.1809 34.304C24.0022 37.0922 23.6614 40.6643 22.2603 43.7965C19.9513 42.5167 19.8476 42.1371 20.7279 39.944C21.4981 38.0236 22.1232 36.0465 22.8473 34.1072C23.1774 33.2212 23.5905 32.3681 23.9648 31.5005C23.8217 31.4378 23.6805 31.3757 23.5374 31.313C22.0698 34.5114 20.6068 37.7091 19.1392 40.9075C19.0259 40.9153 18.9114 40.9271 18.7981 40.9349C18.7354 40.5835 18.5331 40.1858 18.6297 39.8869C19.662 36.7254 20.7759 33.5875 21.7871 30.4171C22.0084 29.717 21.9131 28.9191 21.9939 27.6947C21.4742 28.2459 21.2063 28.3989 21.1536 28.6069C20.3551 31.7573 19.6166 34.9245 18.7819 38.0657C18.7323 38.2572 18.626 38.4352 18.4941 38.605C18.2759 38.8894 17.9874 39.156 17.7713 39.441C17.6182 39.0937 17.3104 38.6998 17.2126 38.37C17.1802 38.2594 17.1716 38.1563 17.1984 38.0645C18.2806 34.4017 19.4588 30.7715 20.303 27.0161C18.5146 30.1022 17.798 33.6122 16.5508 37.0548C15.1628 36.0095 16.2393 35.0716 16.5263 34.2877C17.5205 31.5765 18.6642 28.9214 19.7487 26.2475C19.489 26.1479 19.2287 26.0504 18.9671 25.9502L16.9142 32.4427C16.6355 32.3415 16.3594 32.2389 16.0813 32.1357C17.961 27.0914 19.8406 22.047 21.8061 16.7657C23.9823 18.8434 26.0056 20.7658 28.0205 22.7008C30.5717 25.1522 33.0965 27.6324 35.6658 30.0611C37.9016 32.1772 40.2602 34.1729 42.4165 36.3686C43.462 37.4321 44.2641 37.9257 45.9016 37.5295C47.7768 37.0754 49.8171 37.3017 51.7869 37.2768C53.0543 37.2609 54.3202 37.3252 55.5586 37.3525C55.9327 43.199 53.2133 48.2396 51.8637 53.5934C51.7725 53.9507 50.9952 54.1346 50.219 54.5829L50.2113 54.5935ZM56.9915 33.5084C58.2701 34.3708 59.3919 35.1312 60.8657 36.1251C57.8147 36.7179 56.6837 35.9589 56.9915 33.5084ZM70.3817 43.403C69.7055 45.1567 69.1249 46.9516 68.5772 48.7525C67.9268 50.8918 67.368 53.0578 66.7308 55.2035C66.677 55.3872 66.2495 55.6468 66.1392 55.5901C65.9114 55.4723 65.6258 55.1595 65.6358 54.9423C65.7012 53.6498 65.8433 52.362 65.8336 50.9978L64.2215 56.0962C64.0978 56.0615 63.9721 56.0261 63.847 55.9887C63.8232 55.4249 63.7981 54.8586 63.7723 54.2942L63.1935 56.1245C63.0287 56.055 62.8724 55.9859 62.7233 55.9213C62.2742 55.727 61.8785 55.556 61.4841 55.3877L63.6638 48.4946C63.4903 48.4179 63.3156 48.3452 63.1415 48.2705C62.8915 48.7107 62.6244 49.1432 62.3949 49.5941C61.4622 51.4238 61.2869 53.373 61.486 55.3818C61.2975 55.6275 61.1097 55.8779 60.9231 56.1243C60.7852 55.8255 60.4808 55.4893 60.5375 55.2345C60.8652 53.724 61.2784 52.2317 61.6627 50.7347C61.8396 50.0446 62.0211 49.3538 62.2014 48.6669C61.9935 48.6165 61.7883 48.5647 61.5811 48.5123C60.9539 50.853 60.3261 53.1958 59.6267 55.7994C59.1721 55.7255 58.2511 55.5804 57.5291 55.4656L59.2541 50.0102C59.3187 50.0327 59.3832 50.0553 59.4498 50.0786C59.2422 51.5115 59.0346 52.9444 58.827 54.3774C58.9452 54.3951 59.0655 54.4135 59.1857 54.4319L61.0775 48.449C60.6281 48.3309 60.1149 48.1948 59.4037 48.0048C58.9431 49.2552 58.4012 50.7286 57.8567 52.2033C57.7481 52.169 57.642 52.1333 57.5334 52.0989L58.9455 47.6331C58.7816 47.5812 58.6196 47.53 58.4563 47.4762L56.5601 53.473C56.3733 53.4248 56.1897 53.3733 56.0028 53.3251C55.5823 50.869 57.2245 48.7401 57.5712 46.4067C57.4159 46.362 57.2619 46.3198 57.1086 46.2757L54.6324 54.1068C55.2608 54.1877 55.6804 54.2418 56.1275 54.2982C56.1481 54.4116 56.162 54.5119 56.1639 54.5954C56.1664 54.7249 56.1422 54.822 56.0783 54.8868C55.8451 55.1294 55.087 54.9573 53.1975 54.3707C54.5885 48.7486 55.9821 43.1252 57.4221 37.3136C62.2822 37.3692 67.3777 37.4295 72.9019 37.4944C71.9682 39.6706 71.1137 41.5142 70.3844 43.4082L70.3817 43.403ZM20.776 9.77824C22.7894 9.81499 24.8 10.032 26.8131 10.1384C31.6833 10.3958 36.5552 10.5926 41.4215 10.8967C43.1284 11.0023 44.8272 11.3192 46.517 11.6026C48.2167 11.8892 50.0636 11.9301 51.5586 12.6646C54.0484 13.8881 56.3494 15.5231 58.6592 17.0889C61.286 18.8684 63.8256 20.7796 66.4313 22.5916C67.1311 23.079 67.9322 23.4174 68.6965 23.8314C68.3329 26.1355 70.3812 26.6938 71.6546 27.5109C73.7926 28.8849 76.386 29.561 77.9451 31.7969L72.2111 29.9838C72.1681 30.0989 72.1266 30.2166 72.0836 30.3318C72.9717 31.1099 73.8604 31.8861 74.7452 32.661C75.3823 32.845 76.0853 32.9168 76.647 33.2362C78.0585 34.0424 79.4061 34.9615 81.1337 36.0597C79.1423 35.995 77.4322 37.1775 75.8891 35.2826C75.4054 34.689 74.3772 34.5602 73.6276 34.1618C72.3687 33.4911 71.1335 32.7733 69.888 32.0741C69.7921 32.24 69.6987 32.4047 69.6034 32.5687C71.5905 33.7052 73.575 34.8432 76.0274 36.2469C75.2841 36.3368 74.7755 36.5643 74.4672 36.4057C73.5691 35.9407 72.7662 35.2986 71.9 34.7673C68.978 32.973 66.0458 31.1973 62.8721 29.6768C63.8913 30.5487 64.9125 31.4213 65.9324 32.2913C65.8601 32.4168 65.7884 32.5403 65.7142 32.6651C64.018 31.6118 62.3237 30.5591 60.5733 29.4712C60.3084 29.6492 59.8462 29.9633 59.4048 30.26C63.0308 33.2563 67.3703 35.0342 72.5472 36.2043C70.3386 36.3589 68.6536 36.5001 66.965 36.577C66.6559 36.5926 66.2921 36.41 66.0246 36.2185C62.9888 34.0283 59.9678 31.8188 56.6089 29.8602C57.0431 30.7479 57.4772 31.6355 57.912 32.5212C57.722 32.6683 57.5321 32.8155 57.3441 32.9633C56.9978 32.6706 56.5848 32.4309 56.3182 32.0783C54.6197 29.8158 53.014 27.4801 51.2346 25.288C50.8423 24.804 49.8859 24.7503 49.1697 24.5827C49.004 24.5434 48.5683 24.8768 48.5838 24.993C48.6342 25.3557 48.7797 25.9536 48.9961 26.0046C51.2308 26.5367 52.1906 28.5722 53.6799 29.9571C54.8988 31.0907 55.5014 32.6206 55.8805 34.191C55.747 34.2971 55.6154 34.4039 55.4839 34.5106C53.1846 33.2208 50.8872 31.9316 48.5905 30.6404C48.4931 30.7972 48.3971 30.9566 48.2997 31.1134C50.8033 32.7056 53.3048 34.2971 55.8084 35.8893C55.8208 36.0219 55.8345 36.1572 55.8469 36.2898C55.3611 36.2321 54.7869 36.3232 54.4035 36.0929C52.0499 34.6791 49.7598 33.1609 47.4018 31.7544C46.7632 31.3758 45.9635 31.2734 45.2366 31.0435C45.217 31.1879 45.1974 31.3322 45.1779 31.4765C47.0712 32.9717 48.9651 34.4649 51.1467 36.1887C50.5182 36.3761 50.1995 36.5458 49.8733 36.5604C46.7005 36.7002 43.9077 36.057 41.6204 33.5059C39.8435 31.5261 37.6071 29.9683 35.6579 28.1347C32.2272 24.9122 28.8028 21.6764 25.4839 18.3409C22.8951 15.7402 20.4711 12.9756 17.8943 10.1998C18.887 10.0425 19.8358 9.7558 20.7805 9.77093L20.776 9.77824Z" fill="white"/>
<path d="M74.745 32.6605C74.731 32.6561 74.7171 32.6517 74.7031 32.6473C74.7264 32.6568 74.7471 32.6678 74.7698 32.6794C74.7738 32.6806 74.7476 32.6591 74.7476 32.6591L74.745 32.6605Z" fill="white"/>
<path d="M63.7708 54.1587C63.7728 54.2014 63.7741 54.2462 63.776 54.2889L63.8251 54.1337L63.7708 54.1587Z" fill="white"/>
<path d="M67.2438 29.584C67.5043 29.7427 67.7603 29.9088 68.0291 30.0548C69.0093 30.5829 69.9523 31.2083 70.9843 31.6C72.183 32.0554 73.4582 32.3103 74.703 32.6472C72.2771 31.4897 69.8532 30.3328 67.4307 29.1785C67.3684 29.3137 67.3061 29.4488 67.2438 29.584Z" fill="white"/>
<path d="M45.775 33.3096C45.2576 32.9257 44.5964 32.4331 43.9373 31.941L43.4888 32.2944C43.8987 33.0457 44.3092 33.795 44.6403 34.397C45.217 33.8443 45.5293 33.5438 45.775 33.3096Z" fill="white"/>
<path d="M64.9244 48.6004C64.466 50.0501 63.9695 51.4898 63.5775 52.9561C63.4904 53.2797 63.7 53.6819 63.8036 54.055C64.363 52.2861 64.9217 50.5192 65.481 48.7503C65.2948 48.7001 65.1086 48.65 64.9244 48.6004Z" fill="white"/>
<path d="M63.8036 54.0549L63.7701 54.161L63.825 54.1357C63.8178 54.1088 63.8107 54.0819 63.8036 54.0549Z" fill="white"/>
</g>
<defs>
<clipPath id="clip0_117_2573">
<rect width="75.4848" height="60.0241" fill="white" transform="translate(18.7814 0.82959) rotate(17.5471)"/>
</clipPath>
</defs>
</svg>
