<svg width="66" height="67" viewBox="0 0 66 67" fill="none" xmlns="http://www.w3.org/2000/svg">
<path d="M9.08567 56.0014C11.3388 53.4998 13.4728 50.8989 15.458 48.1591C16.8376 46.2233 18.3066 44.3669 19.8253 42.5502C20.4208 41.8355 20.6094 41.1704 20.4903 40.1578C20.1925 37.5172 20.0536 34.827 19.9841 32.1368C19.865 26.389 20.1231 20.6214 19.8451 14.8736C19.7955 13.7022 19.6367 12.501 19.5474 11.3296C19.1305 11.3991 19.2694 11.7168 19.1801 11.9253C19.0213 12.3124 18.9717 12.9378 18.4258 12.7492C17.8699 12.5904 18.1478 12.0146 18.2372 11.6274C18.5151 10.1979 18.7632 8.79825 19.1305 7.39854C19.3191 6.71357 19.7757 6.66391 20.1429 7.27939C21.066 8.83794 21.9395 10.4263 22.8328 12.0146C23.0412 12.4018 23.0214 12.7691 22.5846 12.9378C22.2174 13.057 22.0089 12.7294 21.9196 12.4514C21.6417 11.5977 21.2546 10.8432 20.5896 9.96964C20.2422 10.6348 20.3811 11.1907 20.4307 11.6969C20.9171 16.7498 20.7484 21.8126 20.798 26.8655C20.8179 27.8582 20.3811 29.0296 21.7211 29.6451C21.9692 29.7642 21.8402 30.1712 21.5821 30.2208C20.8278 30.3598 20.7781 30.8661 20.798 31.4617C20.8476 34.2711 20.9171 37.0904 21.4829 39.8501C21.7608 41.2796 22.406 41.8057 23.8551 42.0539C27.2596 42.6098 30.7535 42.2127 34.1282 42.858C35.091 43.0466 35.6667 41.6667 36.4012 42.3716C37.1853 43.126 38.0092 42.8977 38.833 42.8977C42.1383 42.9175 45.4534 42.8481 48.7587 42.8481C51.3096 42.8282 53.8804 42.8481 56.3419 42.8481C56.0938 42.2723 55.0119 42.6594 54.595 41.9943C54.6844 41.4186 55.1012 41.5377 55.4486 41.5774C56.5702 41.766 57.6323 42.1532 58.6249 42.6595C59.6373 43.1657 59.6869 43.4437 58.8532 44.1088C57.9102 44.8632 56.9176 45.6276 55.5677 45.7368C55.7762 44.8434 56.7588 44.9129 57.1062 44.1088C54.4858 43.7415 51.8853 43.6522 49.2947 43.6025C44.9969 43.5529 40.6792 43.672 36.3516 43.5827C32.1729 43.4933 27.9842 43.2849 23.8253 42.8282C21.9395 42.6396 20.4903 42.7389 19.1801 44.5952C16.4009 48.5065 13.2743 52.1795 10.2867 55.9518C10.0782 56.2297 9.78047 56.5077 9.80032 56.9147C10.6043 57.3316 11.319 56.3389 12.3512 56.8651C10.9021 57.421 9.6415 57.9471 8.35116 58.3839C7.79532 58.5427 7.4777 58.1953 7.54718 57.6493C7.79533 56.1801 8.23206 54.7308 8.87723 53.3708C8.92686 53.2516 9.15515 53.1226 9.29411 53.1226C9.61173 53.1424 9.64151 53.4402 9.64151 53.6785C9.62166 54.5024 8.88715 55.1477 9.11544 56.0213L8.99634 56.0213L9.08567 55.9716L9.08567 56.0014Z" fill="white"/>
<path d="M3.26917 63.3973C2.60415 63.6752 2.11779 63.9731 2.39571 64.7275C2.46519 64.9558 2.76296 65.0948 2.99126 65.0055C3.84487 64.6382 3.35851 64.0425 3.26917 63.3973ZM0.122728 56.8454C0.85723 57.5105 0.628937 58.2749 0.857228 58.8705C1.04582 59.3768 1.08552 60.0916 1.82002 60.042C2.46519 59.9923 2.69349 59.4463 2.71334 58.8209C2.71334 58.265 2.57438 57.4411 3.30888 57.4609C4.09301 57.5105 3.76546 58.3543 3.79524 58.8606C3.86472 59.7342 3.44784 60.8857 3.86472 61.4119C4.75803 62.5634 3.77539 63.8738 4.49004 64.926C4.629 65.1345 4.50989 65.4125 4.33122 65.5912C3.75553 66.2364 2.53467 66.2166 1.76047 65.5415C1.02596 64.9459 1.07559 64.4198 1.8498 63.4965C2.21705 63.0399 3.07066 62.9208 2.95155 62.1167C2.86222 61.5409 2.90192 60.7368 1.8895 61.0545C1.33366 61.2431 0.92671 61.0545 0.599161 60.5979C0.0730991 59.8434 -0.155194 58.3444 0.1128 56.8256L0.122728 56.8454Z" fill="white"/>
<path d="M35.359 27.4713C34.6939 27.9974 34.5351 28.7121 34.5748 29.7743C35.3292 28.9702 35.6369 28.2754 35.3292 27.4316C35.488 27.4316 35.5178 27.3124 35.4185 27.3422C35.1704 27.3919 35.4384 27.2231 35.349 27.4812L35.359 27.4713ZM34.8528 32.2065C34.6046 31.1244 33.9991 30.6181 33.2448 30.1813C32.4408 29.7446 32.0041 28.5533 32.3912 27.9279C32.8478 27.1933 33.2448 26.2701 34.3862 26.2006C35.9049 26.1113 36.8478 26.548 37.2845 27.6698C37.6717 28.7022 37.3739 29.6254 35.9942 30.4097C35.3093 30.7968 35.5575 31.5116 34.8428 32.2065L34.8528 32.2065Z" fill="white"/>
<path d="M21.314 1.02547C20.4902 0.707807 19.8152 0.777296 19.18 1.02547C18.8127 1.1446 18.5547 1.02549 18.4951 0.638333C18.4256 0.271032 18.6539 0.0129233 19.0013 0.0129233C19.8748 -0.00693086 20.7284 -0.00694177 21.6019 0.0327665C21.7607 0.0327665 22.0585 0.151902 22.0882 0.2611C22.2272 1.18432 23.0808 1.48211 23.716 1.9189C23.2297 2.60387 22.6143 2.26637 22.1279 2.37557C21.8103 2.46491 21.6019 2.76269 21.6019 3.09029C21.6217 3.47744 21.9493 3.54695 22.2669 3.57673C22.8624 3.59659 23.4878 3.32856 24.0337 3.82491C23.2495 4.45032 21.5026 4.69847 20.8376 4.33117C20.5398 4.17234 20.3115 3.89439 20.4207 3.59658C20.6689 2.91161 20.8078 2.47481 19.7755 2.53437C19.4083 2.53437 19.5274 2.07774 19.7259 1.79978C20.0932 1.31336 20.8277 1.66079 21.314 1.01554L21.314 1.02547Z" fill="white"/>
<path d="M64.0245 45.1512C64.6201 45.1711 64.6697 44.2975 65.3347 44.5258C65.3843 44.6648 65.4737 44.8732 65.4538 45.0122C65.1759 45.9553 65.1759 47.0572 65.5233 47.9506C65.6126 48.1988 65.7119 48.4569 65.4538 48.6158C65.2057 48.8044 64.9972 48.6356 64.8087 48.4271C63.7764 47.2756 63.7764 47.3054 62.6052 48.1492C62.2875 48.3775 62.0989 48.9036 61.4141 48.6555C61.4141 48.0301 61.9699 47.8017 62.3372 47.4642C63.4885 46.3822 63.5084 46.3822 62.7937 45.0023C62.7441 44.9527 62.7243 44.8832 62.6746 44.8435C62.486 44.5655 62.3272 44.2677 62.6746 44.0394C63.0915 43.7614 63.3397 44.0195 63.5481 44.3868C63.6871 44.6648 63.8657 44.913 64.0344 45.1413L64.0245 45.1512Z" fill="white"/>
<path d="M30.3968 29.2585C30.3471 29.5565 30.1485 29.6459 29.8902 29.6459C29.6319 29.6459 29.4332 29.4572 29.4034 29.1889C29.4034 28.9604 29.5425 28.7021 29.8207 28.7021C30.1683 28.6823 30.3471 28.9108 30.3968 29.2585Z" fill="white"/>
<path d="M26.1685 29.5164C26.1685 29.7946 26.0493 29.9734 25.801 30.043C25.5228 30.1125 25.2943 30.0231 25.2248 29.7648C25.1354 29.3972 25.2944 29.1389 25.642 29.0992C25.8904 29.0793 26.099 29.2581 26.1685 29.5164Z" fill="white"/>
<path d="M35.7766 36.1778C35.7269 36.3865 35.7269 36.6845 35.3891 36.6348C35.0216 36.5852 34.9521 36.2673 34.9719 35.9692C34.9918 35.7208 35.2004 35.5321 35.4785 35.6016C35.7269 35.6711 35.7964 35.9195 35.7766 36.1778Z" fill="white"/>
<path d="M35.6571 41.3501C35.3094 41.3303 35.1306 41.1018 35.1306 40.7739C35.1306 40.5256 35.3392 40.2871 35.5677 40.3368C35.8855 40.4064 36.0048 40.7243 36.0048 41.0521C36.0048 41.2409 35.8657 41.3501 35.6571 41.3501Z" fill="white"/>
</svg>
