<svg width="46" height="60" viewBox="0 0 46 60" fill="none" xmlns="http://www.w3.org/2000/svg">
<path d="M27.1612 26.4815C27.0526 26.3305 26.6468 26.3249 26.7708 26.1514C26.9283 25.9037 27.087 26.2228 27.2605 26.2718C27.5669 26.337 27.7245 26.6147 27.9639 26.7532C28.1935 26.8856 28.5832 26.5946 28.868 26.6939C29.3104 26.8456 29.7315 26.7519 30.1459 26.5722C30.2726 26.5231 30.3962 26.479 30.5141 26.5403C30.7591 26.6484 30.9538 26.5676 31.2076 26.4152C31.5907 26.1882 32.1731 26.4631 32.2076 26.8807C32.2135 27.0754 32.1985 27.2705 32.1836 27.4656C32.1805 27.6205 32.1563 27.8302 32.2981 27.8862C32.7228 28.1086 32.602 28.4274 32.4789 28.7925C32.4022 29.0097 32.4553 29.248 32.4302 29.4913C32.3659 29.9892 32.2706 30.0855 31.7466 30.2229C31.5639 30.2635 31.3666 30.2949 31.1891 30.3594C30.7309 30.5114 30.5611 30.7785 30.7166 31.1775C30.8598 31.5209 31.0175 31.8736 31.1973 32.213C31.2879 32.4138 31.2932 32.5877 31.0469 32.7176C30.738 32.903 30.7509 33.1295 30.8441 33.3798C30.9126 33.5188 30.959 33.6711 31.0588 33.7823C31.39 34.1839 31.2829 34.6956 31.3458 35.1652C31.3608 35.2703 31.2995 35.3882 31.2444 35.4963C31.1147 35.7003 30.9381 35.7313 30.7954 35.5587C30.7676 35.5274 30.7429 35.4912 30.7309 35.4563C30.5139 34.7999 29.9368 34.3988 29.4855 33.9072C29.3093 33.7337 29.2624 33.5607 29.2345 33.3042C29.1618 32.5282 28.9664 31.7628 28.681 31.0424C28.5538 30.7706 28.3401 30.6346 28.0085 30.6625C27.677 30.6904 27.4328 30.5488 27.2937 30.317C27.1073 30.0416 26.8631 29.9 26.5466 29.8078C26.132 29.6874 26.0794 29.5448 26.2642 29.1576C26.348 28.9722 26.4769 28.8018 26.585 28.6318C26.7028 28.468 26.7919 28.3064 26.7353 28.1272C26.5957 27.7997 26.7749 27.5181 26.9443 27.2302C27.1693 26.8549 27.1785 26.8404 26.7604 26.7041C26.696 26.6767 26.662 26.6551 26.6461 26.5836C26.7855 26.3858 27.0023 26.5919 27.1625 26.4687C27.3732 26.7595 27.4484 27.0597 27.0962 27.3882C26.9382 27.5401 26.9175 27.7657 26.9979 27.9396C27.1287 28.2273 27.0171 28.4565 26.8291 28.6984C26.7268 28.8379 26.6403 28.9739 26.5538 29.1099C26.4122 29.354 26.4529 29.5368 26.7403 29.6104C27.071 29.6911 27.3284 29.8549 27.4958 30.1387C27.6018 30.3152 27.7842 30.4039 28.0526 30.4109C28.4883 30.4015 28.7705 30.6014 28.9317 30.97C29.2706 31.7243 29.4726 32.5008 29.5259 33.3395C29.541 33.5196 29.5759 33.6577 29.7097 33.7906C30.1743 34.2292 30.6891 34.6317 30.9706 35.2404C31.0443 35.1781 31.0818 35.1406 31.0813 35.1198C31.0163 34.6215 31.1264 34.105 30.7541 33.6499C30.5655 33.4209 30.3416 32.9579 30.7436 32.6475C31.0309 32.4209 30.9779 32.2576 30.8886 32.044C30.7857 31.7875 30.6589 31.5364 30.5414 31.2707C30.2777 30.7415 30.4934 30.3057 31.1246 30.1069C31.3387 30.0385 31.5669 29.9585 31.796 29.92C32.0343 29.867 32.1451 29.7465 32.1975 29.5138C32.2804 29.1368 32.1505 28.7405 32.345 28.3595C32.3944 28.2818 32.3114 28.2085 32.258 28.1745C31.9674 27.9556 31.9576 27.6493 31.9747 27.3328C31.9897 27.1377 31.968 26.9465 31.8527 26.7845C31.6734 26.5409 31.5608 26.5034 31.2373 26.6796C31.1141 26.7445 30.9813 26.8783 30.8479 26.8413C30.3932 26.7089 29.9779 26.9223 29.5422 27.0067C29.3912 27.0403 29.2482 27.0721 29.1065 27.016C28.7877 26.8952 28.4592 26.9182 28.1282 27.0419C27.8934 27.1108 27.6951 27.1007 27.6359 26.872C27.567 26.6372 27.3656 26.5569 27.1533 26.4832L27.1612 26.4815Z" fill="white"/>
<path d="M6.78456 30.3765C6.36756 28.3721 5.95672 26.3579 6.73385 24.3422C6.98973 26.3533 6.31811 28.3747 6.78456 30.3765Z" fill="white"/>
<path d="M5.23998 25.5542C5.40872 27.0802 5.28477 28.5838 5.33519 30.1027C4.80446 28.5989 4.55759 27.0778 5.23998 25.5542Z" fill="white"/>
<path d="M35.2526 11.0767C34.2005 10.7896 33.2 10.5285 32.2036 10.229C32.0459 10.1765 31.8627 10.0463 31.9889 9.82644C32.0564 9.69885 32.1804 9.60039 32.3234 9.64361C33.2246 9.96433 34.202 10.0471 35.0541 10.4663C35.2157 10.5554 35.3385 10.6948 35.2495 11.0816L35.2526 11.0767Z" fill="white"/>
<path d="M36.5819 9.93043C35.4789 9.35859 34.2652 9.05737 33.0638 8.5116C34.0437 8.04345 35.7785 8.73743 36.5819 9.93043Z" fill="white"/>
<path d="M18.6797 24.7367L18.6639 24.7402L18.6943 24.7459C18.9354 25.0425 19.0965 24.8107 19.2545 24.6588C19.446 24.4328 19.328 24.0713 19.5783 23.903C19.8126 23.7383 19.9639 23.5003 20.1347 23.2747C20.3227 23.0328 20.6073 22.8319 20.9204 22.9832C21.18 23.1006 21.4586 23.1345 21.7098 23.2329C22.0043 23.3383 22.3165 23.4482 22.3541 23.8609C22.4006 24.2383 22.7801 24.9502 23.0614 25.2587C23.1041 25.0199 23.0457 24.6827 23.383 24.6243C23.7013 24.5744 23.9552 24.7972 24.1296 25.0378C24.2065 25.1207 24.2202 25.2386 24.2542 25.3353C24.3135 25.5639 24.5237 25.759 24.7064 25.7183C25.4092 25.5787 25.8111 26.073 26.3016 26.385C26.3454 26.4128 26.4191 26.4256 26.4994 26.4494C26.5488 26.1465 26.5054 25.9144 26.1796 25.8367C26.1394 25.8248 26.0962 25.8178 26.056 25.8059C25.799 25.7379 25.7182 25.5433 25.7243 25.3084C25.7207 25.0674 25.925 24.9928 26.1175 24.9583C26.2905 24.9115 26.4919 24.9918 26.5509 24.6951C26.6435 24.2492 26.6832 24.2404 27.0885 24.3754C27.2254 24.4283 27.3759 24.5241 27.5406 24.4583C27.5056 24.2451 27.3237 24.1771 27.2155 24.0469C27.1387 23.964 27.0296 23.8673 27.1042 23.7715C27.286 23.5393 27.1808 23.3292 27.0978 23.1058C27.0204 22.9271 27.0698 22.7743 27.2057 22.6357C27.354 22.4776 27.478 22.3041 27.6166 22.1399C27.703 22.0039 27.8054 21.8644 27.7334 21.7094C27.4975 21.2116 27.2457 20.7172 26.7661 20.3986C26.7224 20.3708 26.6328 20.3616 26.5869 20.3801C26.4938 20.43 26.504 20.532 26.5503 20.6092C26.621 20.7019 26.6833 20.7756 26.7584 20.8506C26.867 21.0016 26.9726 21.1574 26.8115 21.3141C26.657 21.4819 26.4624 21.5627 26.2478 21.3853C26.152 21.3107 26.087 21.1876 25.9286 21.2437C25.7962 21.3982 25.8766 21.5721 25.8833 21.7333C25.8961 21.9597 25.8719 22.1694 25.7661 22.3681C25.7171 22.4665 25.6796 22.5791 25.5503 22.5787C25.4112 22.5721 25.4103 22.4555 25.3617 22.3496C25.2374 22.0159 24.978 21.8624 24.5837 21.8889C24.1356 21.9177 23.9024 21.6944 23.961 21.2269C23.9984 20.9643 24.0411 20.7254 23.7435 20.5498C23.5576 20.4452 23.5483 20.2347 23.6189 20.0272C23.6594 19.9098 23.745 19.8073 23.7918 19.6802C23.8262 19.5725 23.7983 19.4661 23.7166 19.38C23.6349 19.294 23.5241 19.3395 23.416 19.3594C23.2553 19.3868 23.1816 19.5241 23.0722 19.6318C22.6944 19.9577 22.3427 20.382 21.7299 20.0263C21.5682 19.9372 21.306 19.9955 21.201 20.1606C20.8618 20.7156 20.317 20.7034 19.7806 20.7101C19.3193 20.7168 19.044 21.1283 18.6145 21.203C18.5191 21.2242 18.5615 21.3399 18.5779 21.4321C18.646 21.7755 18.6753 22.0943 18.5425 22.4532C18.4468 22.6788 18.6574 22.7445 18.8344 22.7343C18.9554 22.7157 19.0785 22.6508 19.1875 22.5974C19.3509 22.5444 19.4904 22.5717 19.5875 22.7085C19.6957 22.8387 19.7245 22.9866 19.6526 23.1318C19.6036 23.2303 19.514 23.2961 19.4699 23.3976C19.2692 23.7883 19.0897 24.1993 19.2576 24.654C19.0651 24.6885 18.8952 24.8805 18.6669 24.7353L18.6797 24.7367ZM23.4047 24.9656C23.2967 25.2106 23.4234 25.3867 23.4641 25.5694C23.5013 25.7363 23.5821 25.9309 23.4056 26.0369C23.1893 26.1517 23.0903 25.9319 22.9967 25.811C22.578 25.2787 22.3173 24.6696 22.1185 24.0384C22.0495 23.8036 21.9567 23.6491 21.747 23.5498C21.4472 23.4206 21.1121 23.4325 20.8304 23.2534C20.7187 23.1823 20.5545 23.2689 20.4751 23.3616C20.2064 23.7091 19.7853 23.9529 19.6464 24.3965C19.6345 24.4367 19.6275 24.48 19.5997 24.5237C19.451 24.8111 19.2997 25.1241 18.9412 25.1621C18.5333 25.2028 18.3589 24.8873 18.1817 24.5973C18.2347 24.5355 18.2686 24.482 18.3022 24.4829C18.8814 24.5375 19.0636 24.176 19.0992 23.6802C19.1137 23.3893 19.3092 23.1999 19.5064 22.9434C19.2057 22.8477 18.9837 22.9929 18.7643 22.9625C18.2968 22.9039 18.17 22.7278 18.3522 22.2912C18.4598 22.0254 18.3975 21.8016 18.3294 21.5333C18.214 21.1462 18.3447 21.1338 18.6996 20.9297C19.2372 20.61 19.7792 20.4978 20.3858 20.4879C20.5712 20.4967 20.7292 20.3448 20.8713 20.1965C21.1921 19.8958 21.5262 19.6172 22.019 19.8828C22.1951 19.9812 22.3434 19.8231 22.4917 19.7401C22.8104 19.5608 23.0235 19.2257 23.3572 19.0764C23.599 18.9642 23.837 18.8154 23.9607 19.2215C24.0133 19.3641 24.1409 19.4316 24.3417 19.4161C24.2213 19.6055 24.1251 19.7353 24.0448 19.8616C23.8838 20.0934 23.773 20.2889 24.1143 20.4924C24.3779 20.6464 24.2823 20.947 24.2638 21.2013C24.2123 21.6255 24.3011 21.7433 24.7098 21.594C25.1027 21.4483 25.2917 21.7731 25.5734 21.8772C25.6834 20.7604 25.7668 20.7043 26.5995 21.1861C26.5681 20.9138 26.2613 20.8278 26.2735 20.5832C26.2766 20.4283 26.254 20.2707 26.3842 20.1625C26.5448 20.0601 26.7157 20.0596 26.8698 20.1712C27.397 20.5543 27.8241 21.0305 28.023 21.6617C28.1507 22.0294 27.9314 22.2991 27.7143 22.5225C27.461 22.7707 27.2694 22.9968 27.5168 23.3587C27.5596 23.42 27.5734 23.5379 27.554 23.6006C27.3907 23.8787 27.5572 24.046 27.744 24.192C27.8495 24.2728 27.8986 24.3995 27.9489 24.5134C28.0077 24.6462 28.0298 24.7831 27.9314 24.8842C27.8145 25.0144 27.7111 24.8873 27.5968 24.8419C27.4453 24.7797 27.312 24.7426 27.169 24.6994C27.0855 24.6804 26.9919 24.6345 26.9708 24.7643C26.8941 25.2066 26.5718 25.22 26.2319 25.2289C26.1458 25.2355 26.0686 25.2819 26.0126 25.4236C26.7093 25.5188 26.762 26.1867 27.1184 26.6452C26.6483 26.8374 26.2683 26.8344 25.9114 26.4301C25.6791 26.1732 25.351 25.9919 24.9242 26.041C24.4973 26.0901 24.1714 25.8624 24.0172 25.4505C23.9266 25.1747 23.7319 25.0304 23.4193 24.9748L23.4047 24.9656Z" fill="white"/>
<path d="M24.2254 17.5074C24.6219 17.6777 24.7676 17.7704 24.9187 17.9619C25.1912 18.3057 25.6675 18.329 25.9336 18.0071C26.1097 17.8054 26.0261 17.5613 25.7379 17.5212C25.5648 17.493 25.36 17.5469 25.2359 17.4202C24.883 17.0526 24.6107 17.3091 24.2303 17.5105L24.2254 17.5074ZM24.4041 17.0549C24.7532 16.8813 25.0697 16.7484 25.3731 17.1187C25.5254 17.2974 25.7536 17.2175 25.943 17.2629C26.3492 17.3643 26.4725 17.5996 26.2974 17.9929C26.1549 18.3457 25.8954 18.5285 25.4778 18.563C25.1061 18.579 24.7697 18.6788 24.6504 18.18C24.6008 17.9576 24.4154 17.9488 24.2225 18.0376C24.1056 18.0928 23.9784 18.121 23.8694 18.1745C23.7617 18.2151 23.6769 18.209 23.6063 18.1163C23.5502 18.0329 23.5351 17.9278 23.5903 17.8196C23.7632 17.4726 24.0598 17.2315 24.4089 17.058L24.4041 17.0549Z" fill="white"/>
<path d="M40.3026 22.7117C40.505 23.2837 40.6756 23.8629 40.8127 24.4411C40.6912 24.3639 40.5746 24.2897 40.4594 24.2028C40.0253 23.8449 39.6843 23.3621 39.4859 22.8266C39.3587 22.4797 39.3091 22.0321 39.0079 21.7656C38.8684 21.6632 38.7386 21.642 38.5712 21.5833C38.2525 21.4625 38.1133 21.2307 37.9583 20.9275C37.6477 20.3003 37.4405 19.9503 36.6852 20.0224C36.2711 20.0729 35.9118 20.0694 35.7898 19.5962C35.6934 19.2007 35.9621 18.8532 36.2004 18.5751C36.5345 18.2214 36.8866 17.8929 37.2481 17.5498C38.6555 18.9837 39.6079 20.7898 40.3026 22.7117ZM41.3337 28.4487C41.4352 30.8528 40.6709 33.0199 39.4921 35.0667C39.2362 35.4905 38.9922 35.9492 38.3264 35.6554C38.1749 35.5932 37.8717 35.7482 37.6987 35.8701C36.9131 36.4618 35.7582 36.2934 35.057 37.0956C34.453 36.8548 33.757 37.2306 33.163 36.7915C32.5435 36.3498 32.4627 36.3802 32.2758 37.1139C32.0607 38.0207 31.7736 38.8476 30.7553 39.1617C30.6476 39.2023 30.4993 39.3604 30.5046 39.4592C30.5614 40.2388 30.0502 40.1524 29.5403 40.1282C29.2737 40.1292 28.8684 40.2193 28.9436 40.5195C29.2203 41.5003 28.5024 41.3097 28.0199 41.3712C25.95 41.569 23.9007 41.4662 21.9259 40.8923L21.9223 40.8764C21.897 40.3692 21.2661 40.2886 21.2094 39.8092C21.1528 39.3299 21.3226 39.0627 21.0346 38.5931C20.8641 38.3142 20.6159 38.0609 20.5006 37.7488C20.3491 37.3864 20.4505 37.0553 20.5576 36.6938C20.6864 36.2232 20.7299 35.6506 20.3889 35.2428C20.1566 34.9859 19.7782 34.8408 19.4481 34.9309C19.3209 34.9592 19.1969 35.0577 19.0773 35.1385C19.0547 34.9059 19.0303 34.6653 19.0086 34.3991C18.7558 34.743 18.6411 35.0521 18.601 35.3403C18.5273 35.3276 18.4372 35.2976 18.356 35.2322C18.1145 35.065 18.0609 34.7308 17.8225 34.5587C17.701 34.4815 17.5836 34.4409 17.4671 34.4418C17.5132 33.9187 17.5435 33.3992 17.5883 32.8889C17.4586 32.8677 17.3402 32.8607 17.2104 32.8395C17.0438 33.477 16.9363 34.118 16.91 34.7492C16.8077 34.8887 16.7345 35.0468 16.648 35.1828C16.3171 35.6817 15.7538 35.8486 15.2712 35.4599C15.2372 35.4382 15.2067 35.4325 15.1815 35.4506C14.9607 35.0578 14.7447 34.668 14.5335 34.2814C13.4672 32.4506 13.0118 30.5172 12.8822 28.5114C13.1452 28.2694 13.5129 28.1418 13.6893 27.8106C13.9452 27.3868 13.6109 27.0651 13.4748 26.6784C13.1646 25.7718 14.5408 25.0987 15.2087 24.971C15.8002 24.8561 16.1303 24.4658 16.4701 24.0066C16.4855 23.9823 16.5071 23.9483 16.4855 23.9073C16.4758 23.9011 16.3579 23.7647 16.3525 23.7409C16.2134 23.4341 16.3586 23.5061 16.529 23.4098C16.7298 23.3192 16.8821 23.2729 17.0057 23.0786C17.2223 22.7594 17.1378 22.3237 16.8437 22.089C16.6362 21.9433 16.4349 21.9381 16.1965 21.9161C15.8464 21.898 15.6641 21.9594 15.5033 21.4615C15.4604 21.3252 15.4934 21.1552 15.4409 21.0126C15.2791 20.5483 14.8125 20.4561 14.363 20.4227C14.3326 20.4169 14.3136 20.4253 14.2915 20.4386C14.6277 19.8134 15.0235 19.2126 15.474 18.6329C16.4602 17.3503 16.4818 17.3163 17.9459 17.8995C19.1106 18.3742 20.069 18.2402 20.8977 17.2804C21.3699 16.7417 21.8815 16.6237 22.6056 16.8796C23.5866 17.2034 24.3723 16.8368 24.8818 15.9605C25.0296 15.7066 25.1386 15.428 25.4441 15.4518C26.0387 15.4821 26.1958 15.1386 26.3563 14.661C26.6156 13.8778 27.5523 13.7778 28.0156 13.1244C28.2477 12.7809 28.9445 13.1763 29.4244 13.2905C29.9939 13.414 30.5515 13.5776 31.084 13.7594C30.6294 14.1523 29.7869 13.6643 29.3762 14.2352C29.3484 14.2789 29.3417 14.3429 29.3855 14.3707C29.8774 14.6699 30.4499 14.6384 30.97 14.8396C31.329 14.9724 31.4381 15.2941 31.7296 15.4795C32.055 15.6864 32.6792 15.5309 32.8228 15.9701C32.8413 16.016 32.8943 16.0292 32.931 16.0252C33.4501 15.8848 33.8738 15.6154 34.2087 15.2282C34.9867 15.6888 35.733 16.2316 36.4483 16.823C36.6806 17.0048 36.8908 17.1999 37.1045 17.4108C36.721 17.7671 36.3314 18.1332 35.9823 18.5319C35.744 18.81 35.5371 19.1354 35.5531 19.5071C35.5629 19.8134 35.7277 20.1229 36.0337 20.2424C36.5357 20.4184 36.9964 19.9407 37.4478 20.4323C37.7326 20.7567 37.7734 21.2396 38.0931 21.5521C38.1894 21.6474 38.3068 21.688 38.415 21.7432C38.812 21.9342 39.0279 22.0988 39.1583 22.516C39.3046 23.0046 39.4786 23.4495 39.8037 23.8608C39.9402 24.0431 40.1164 24.2166 40.3001 24.3675C40.4644 24.5061 40.6838 24.6115 40.8768 24.7479C41.1376 25.9573 41.2763 27.1982 41.3147 28.4571L41.3337 28.4487ZM31.0508 40.7887C31.2673 40.2444 31.3709 39.7919 31.8666 39.6024C32.1787 39.4871 32.4051 39.2491 32.4632 38.911C32.6227 37.9415 33.3594 37.8986 34.053 38.0736C34.6716 38.2487 35.0618 38.0535 35.553 37.7316C36.2208 37.3037 37.09 37.2563 37.8354 36.6527C36.8542 38.4637 34.6584 39.7818 31.0508 40.7887ZM34.3997 41.036C34.3153 40.8255 34.2574 40.584 34.5134 40.4604C34.7646 40.3336 34.9474 40.5181 35.0556 40.7233C35.326 41.3386 36.1067 41.7737 35.7208 42.756C34.9503 42.3478 34.6913 41.6716 34.4028 41.0312L34.3997 41.036ZM37.4082 43.4062C38.4763 43.99 39.2757 44.8462 39.9219 45.8574C40.3402 46.519 40.248 46.7605 39.5427 47.1509C39.224 47.3302 38.8868 47.4636 38.5628 47.619C37.173 48.2312 36.2614 47.8197 35.828 46.3845C35.6658 45.8244 35.4983 45.2404 35.4632 44.652C35.3934 43.4208 36.3401 42.8225 37.4082 43.4062ZM40.7314 45.6356C40.5888 45.463 40.3755 45.3479 40.4425 44.8994C41.3245 44.7782 42.1725 44.7855 43.032 44.8069C43.9538 44.827 44.5336 45.4277 45.0972 46.0111C45.5741 46.5054 45.2445 47.0666 44.8637 47.4723C44.1717 48.1849 43.4445 48.8888 42.5701 49.3626C40.9335 50.252 39.2863 51.0938 37.4456 51.5533C36.4466 51.8047 35.4968 52.2578 34.4324 52.2903C33.3054 52.3034 33.0179 52.0046 33.248 50.9027C33.4872 49.7112 34.1866 48.751 35.0012 47.8776C35.3878 47.4414 35.6413 47.7936 35.7849 48.1578C36.1945 49.0798 36.2749 49.1787 37.0645 48.9238C38.2678 48.5227 39.4967 48.1993 40.51 47.3568C41.3882 46.6194 41.4244 46.5196 40.7363 45.6387L40.7314 45.6356ZM47.0137 47.8779C47.3893 48.7033 47.2698 49.1594 46.4035 49.8566C45.2344 50.8046 44.0079 51.682 42.6374 52.3246C40.5841 53.2901 38.5361 54.2793 36.3091 54.8206C34.4997 55.2523 34.0939 55.0215 33.5922 53.0109C36.5574 52.9392 39.1272 51.9339 41.6104 50.6893C43.1221 49.9319 44.5106 49.0143 45.5992 47.6673C46.2351 46.8712 46.5914 46.9546 47.0168 47.8731L47.0137 47.8779ZM17.2957 36.7815C17.4039 36.9117 17.5307 37.0878 17.7421 36.9699C17.9279 36.8493 17.9115 36.682 17.7755 36.5205C17.329 36.0319 17.4087 35.4346 17.4425 34.8559C17.446 34.7968 17.4575 34.7358 17.4517 34.6913C17.8442 34.6748 18.0589 35.3775 18.4219 35.547C18.4802 35.584 18.5301 35.6021 18.5795 35.5995C18.5796 35.8996 18.6269 36.1685 18.6584 36.4408C18.7177 36.9696 18.5427 37.6632 19.382 38.006C19.2815 37.1236 19.2 36.3078 19.1003 35.3919C19.3501 35.2029 19.6008 34.9803 19.9823 35.1957C20.8186 35.6184 20.2561 36.6316 20.2047 37.2809C20.1739 37.7047 20.3789 38.026 20.6112 38.3579C20.84 38.674 21.0582 38.9423 21.008 39.3537C20.993 39.5488 20.8849 39.7188 20.934 39.9205C21.0339 40.3319 21.5902 40.4333 21.6866 40.8288C21.4261 40.745 21.1541 40.6471 20.8791 40.554C18.7889 39.7431 17.0879 38.3954 15.8326 36.5399C15.6595 36.2866 15.5071 36.0328 15.3547 35.779C15.5998 35.8871 15.8686 35.9148 16.1321 35.8437C16.559 35.7196 16.6706 35.4154 16.8956 35.1152C16.8989 35.5606 16.9467 36.0002 17.0493 36.4611C17.0838 36.5785 17.1884 36.6928 17.2878 36.7832L17.2957 36.7815ZM15.488 21.9361C15.8077 22.2485 17.0163 21.9463 16.9274 22.6332C16.7672 22.8315 16.6216 23.039 16.4552 23.2469C16.3899 23.2531 16.3197 23.2562 16.2544 23.2624C16.1833 23.2991 16.1127 23.2814 16.0597 23.3432C15.9984 23.3861 15.9485 23.443 15.9393 23.5326C15.9265 23.6814 16.0175 23.6779 16.0819 23.7803C16.1504 23.9193 16.2303 23.9224 16.1562 24.114C16.0698 24.325 15.8103 24.5078 15.6245 24.6284C15.331 24.7895 15.0113 24.7773 14.6957 24.8767C14.4662 24.9694 14.2473 25.1098 14.0496 25.2706C13.7371 25.5152 13.2927 25.86 13.2187 26.2768C13.1019 26.9323 13.9258 27.3745 13.3014 27.9595C13.1685 28.0933 13.0048 28.2006 12.868 28.2977C12.8204 27.3535 12.8474 26.3885 12.9195 25.4386C13.0319 23.6958 13.4785 22.0496 14.2713 20.5348C14.2739 20.5843 14.2925 20.6302 14.3578 20.624C14.5468 20.6486 14.8774 20.6543 15.0271 20.7836C15.1949 20.9381 15.2666 21.2223 15.3095 21.4338C15.3245 21.6139 15.3559 21.8112 15.4897 21.944L15.488 21.9361ZM33.7274 42.3613C33.2632 42.7481 32.7534 43.0242 32.2312 43.3196C30.9195 44.02 29.4499 44.1426 28.0294 44.3919C26.4261 44.6819 24.7897 44.8416 23.1456 44.6486C20.2672 44.305 17.8268 43.1009 15.776 41.0805C14.3907 39.7084 13.0525 38.305 12.0569 36.5668C10.8342 34.4456 10.0555 32.1839 9.39867 29.87C8.90451 28.1371 9.47471 26.4467 9.95266 24.7727C10.6669 22.2873 11.8523 20.0264 13.3389 17.9571C14.9794 15.6992 17.0417 13.8187 19.5425 12.5035C19.7429 12.3922 19.9751 12.3489 20.171 12.2553C20.5979 12.0561 20.8548 12.1991 21.047 12.5941C21.2524 13.0112 21.0132 13.1728 20.71 13.3278C18.6836 14.3582 17.0799 15.8824 15.6308 17.614C13.0564 20.6967 11.9748 24.2103 12.2521 28.2471C12.4758 31.4995 13.5879 34.3417 15.3371 37.0296C16.3415 38.5823 17.7629 39.6295 19.3145 40.4935C21.0392 41.4607 22.9438 41.9626 24.9339 42.0619C27.543 42.207 30.1148 41.96 32.5955 41.0413C33.1212 40.8368 33.4343 40.9881 33.7725 41.3465C34.0949 41.7084 34.1666 41.9926 33.7274 42.3613ZM27.017 12.9463C26.2998 13.3769 25.8235 13.6538 25.675 14.2413C25.5916 14.5225 25.3352 14.6255 25.0695 14.7429C24.7879 14.864 24.3986 15.0256 24.3064 15.2671C23.9646 16.2979 23.2243 16.25 22.4499 16.0303C21.5554 15.7957 20.9865 16.2183 20.4115 16.8007C19.5086 17.727 18.7881 17.7121 17.8435 16.8591C17.5552 16.5938 17.4999 16.3268 17.8088 16.0663C18.3905 15.57 18.9585 15.0308 19.6143 14.6431C21.7859 13.3845 24.0277 12.348 27.009 12.9481L27.017 12.9463ZM22.1206 12.397C21.6494 12.0974 21.3182 11.6957 20.9361 10.9343C21.7904 11.3072 21.8847 11.8991 22.1206 12.397ZM34.0594 15.1196C33.7934 15.4415 33.352 15.8565 32.9869 15.7334C32.937 15.7154 32.8933 15.6125 32.8385 15.5913C32.7109 15.5238 32.6337 15.4952 32.4955 15.455C32.2081 15.3814 32.0598 15.4644 31.7705 15.2327C31.65 15.1219 31.5779 14.967 31.4481 14.8708C31.2839 14.7322 31.0825 14.6519 30.8816 14.5924C30.5845 14.5126 30.2905 14.5029 29.9995 14.4134C29.9161 14.3944 29.5969 14.3278 29.6582 14.21C29.735 14.0678 30.135 14.1039 30.2802 14.1008C30.6457 14.0945 31.0263 14.1183 31.3012 13.8361C32.2668 14.1842 33.1719 14.6166 34.0484 15.1262L34.0594 15.1196ZM35.1463 14.9446C32.1785 13.0572 28.9569 12.127 25.4658 12.028C24.71 12.0044 23.8785 12.3895 23.1972 12.195C22.4016 11.955 22.2172 10.9579 21.79 10.2565C21.434 9.66864 20.9326 9.96363 20.444 10.0348C20.0542 10.1007 19.7876 10.3268 19.9162 10.6609C20.2454 11.4841 19.6795 11.6767 19.1503 11.9403C17.1892 12.8894 15.5886 14.3337 14.1668 15.9259C11.0831 19.3803 9.24365 23.4419 8.45109 27.992C8.37443 28.4343 8.26643 28.9044 8.45951 29.341C9.0467 30.7238 9.27767 32.2485 9.85161 33.6093C11.1683 36.752 12.8707 39.7171 15.594 41.8923C18.2638 44.0335 21.2335 45.3492 24.7404 45.3696C25.9686 45.3799 27.1568 44.9488 28.3987 45.0769C29.7447 45.2236 31.0037 44.8852 32.1985 44.24C32.9558 43.8213 33.7486 43.4865 34.7095 43.0268C34.6674 43.9618 34.6721 44.7696 34.8795 45.5699C35.0779 46.3304 34.906 46.869 34.3623 47.4986C32.7962 49.2854 31.861 51.2279 32.9038 53.7395C33.6615 55.5514 34.429 56.1144 36.3566 55.5397C37.5815 55.1796 38.7909 54.7688 39.9757 54.3218C42.587 53.3156 44.9673 51.8897 47.1903 50.2069C47.982 49.6055 48.1178 49.0916 47.8098 48.2137C47.2627 46.6176 45.9799 45.6313 44.7232 44.6684C43.8153 43.9614 42.6856 43.925 41.5842 44.0908C40.3743 44.2558 39.2322 44.3139 38.3917 43.1791C38.2371 42.9717 37.9674 42.8274 37.713 42.7339C36.6574 42.2808 36.257 41.2691 35.6736 40.4274C35.4408 40.0748 35.4588 39.7247 35.8803 39.5017C36.8359 39.0181 37.5225 38.2066 38.2851 37.5116C40.6223 35.3489 41.6706 32.5849 41.8497 29.493C41.9616 27.7295 41.78 25.9771 41.3141 24.2212C40.2974 20.403 38.5997 17.1408 35.1317 14.9353L35.1463 14.9446Z" fill="white"/>
<path d="M24.681 37.0857C24.884 38.0537 25.0427 38.8981 25.5688 39.5941C25.6774 39.7451 25.5967 39.8506 25.4673 39.9252C25.3526 40.0091 25.2135 40.0025 25.1027 39.898C24.477 39.3909 24.2178 38.0393 24.681 37.0857Z" fill="white"/>
<path d="M21.0481 35.4506C21.3933 36.5704 21.1279 37.6635 21.7274 38.7268C20.6933 38.1646 20.4403 36.8033 21.0481 35.4506Z" fill="white"/>
<path d="M23.6433 39.0176C22.9158 39.1211 22.7267 38.7962 22.6299 38.455C22.4893 37.9359 22.347 37.4089 22.5044 36.861C22.5414 36.7277 22.6743 36.669 22.8235 36.7025C22.9812 36.755 23.0002 36.8967 22.9967 37.0309C22.9939 37.7111 23.0206 38.3556 23.6402 39.0225L23.6433 39.0176Z" fill="white"/>
<path d="M38.0773 23.1108C39.0897 23.4068 39.4276 23.9695 39.5859 24.7182C38.9598 24.4155 38.5385 23.9088 38.0773 23.1108Z" fill="white"/>
<path d="M39.7137 26.566C39.1493 26.0161 38.5735 25.5271 38.167 24.6002C39.273 25.0171 39.5982 25.7286 39.7137 26.566Z" fill="white"/>
<path d="M39.7003 28.6787C39.309 28.0819 39.0153 27.6428 38.7326 27.197C38.6579 27.0677 38.6949 26.9344 38.8097 26.8505C38.871 26.8076 39.0079 26.7855 39.0423 26.8279C39.5104 27.2825 39.9693 27.7516 39.6972 28.6835L39.7003 28.6787Z" fill="white"/>
<path d="M26.4733 38.2255C26.9255 38.6836 26.9981 39.1594 27.0694 39.9483C26.4035 39.3542 26.1738 38.9217 26.4733 38.2255Z" fill="white"/>
<path d="M39.4582 30.7005C39.1543 30.1594 38.8566 29.6836 38.9301 29.021C39.4609 29.4949 39.6369 30.0548 39.4582 30.7005Z" fill="white"/>
<path d="M38.7454 32.4434C38.3241 31.9368 38.5244 31.4503 38.4398 30.7144C38.837 31.2626 38.9389 31.8389 38.7454 32.4434Z" fill="white"/>
<path d="M27.9528 37.6795C28.3405 38.0352 28.5997 38.2819 28.595 38.6541C28.5019 38.704 28.4189 38.7808 28.369 38.7627C27.9359 38.5964 27.7808 38.2932 27.9528 37.6795Z" fill="white"/>
<path d="M21.2995 31.2044C21.0956 31.3748 20.8439 31.1807 20.7546 30.967L20.7449 30.9608C20.9082 30.9078 21.0079 30.7189 21.1691 30.7122C21.4233 30.7307 21.4733 31.049 21.2995 31.2044ZM21.3915 30.5877C21.2992 30.529 21.1902 30.5074 21.0887 30.5383C21.033 30.5507 20.9712 30.5728 20.9337 30.6103C20.8816 30.6386 20.6491 30.8863 20.6119 30.7194C20.5717 30.6325 20.4543 30.6669 20.4265 30.7106C20.2747 30.8528 20.2779 31.0731 20.4214 31.2121C20.4832 31.2651 20.5799 31.231 20.6139 31.1776C20.8528 31.5206 21.4254 31.5641 21.6005 31.0957C21.6711 30.8882 21.5756 30.6843 21.3897 30.5797L21.3915 30.5877Z" fill="white"/>
<path d="M22.345 30.5256C22.1503 30.5314 21.9835 30.6436 21.9054 30.7985C21.8379 30.9261 22.0383 30.9649 22.1032 30.863C22.18 30.7208 22.3879 30.662 22.4811 30.8373C22.5094 30.8893 22.5301 30.9639 22.4719 31.0019C22.4251 31.054 22.3549 31.0571 22.3107 31.0086C22.2339 30.9256 22.0481 31.0462 22.1443 31.1415C22.3793 31.3727 22.8065 31.1193 22.7036 30.7878C22.651 30.6452 22.5048 30.5318 22.3499 30.5287L22.345 30.5256Z" fill="white"/>
<path d="M28.39 14.5629C28.4122 14.9249 28.0595 14.8574 27.8273 14.9758C27.7562 15.0125 27.7126 15.0597 27.645 15.1122C27.6234 15.1462 27.5921 15.1741 27.5704 15.2081C27.45 15.3975 27.3727 15.3688 27.351 15.1026C27.3788 15.0589 27.5858 15.0337 27.6361 14.9975C27.7134 14.9511 27.7509 14.9136 27.8149 14.8451C27.8678 14.7833 27.8215 14.7061 27.7526 14.6964C27.4087 14.6687 27.9529 14.2849 28.0557 14.2412C28.1634 14.2756 28.2482 14.2818 28.3648 14.2809C28.3555 14.3705 28.386 14.4513 28.39 14.5629ZM28.4786 14.0804C28.3514 14.1087 28.2314 14.0937 28.0945 14.0408C28.064 14.035 28.0292 14.047 27.9991 14.062C27.7546 14.1247 27.4549 14.2206 27.4148 14.5089C27.4082 14.6479 27.452 14.7508 27.5447 14.8302C27.3223 14.9547 26.9289 15.0047 26.963 15.3265C26.9667 15.5675 27.2488 15.6173 27.4372 15.5462C27.6257 15.4751 27.7003 15.3043 27.8512 15.1956C28.0273 15.0689 28.2626 15.0958 28.4423 14.9849C28.7984 14.7681 28.4633 14.4799 28.596 14.1961C28.6296 14.1219 28.5677 14.0689 28.4817 14.0756L28.4786 14.0804Z" fill="white"/>
<path d="M35.6057 20.9047C35.6057 20.9047 35.5682 20.8672 35.5439 20.8517L35.5598 20.8482C35.6807 20.7546 35.8348 20.8662 35.909 20.9748C35.9554 21.052 35.9864 21.1536 35.9996 21.2507C35.8169 21.2163 35.672 21.09 35.6057 20.9047ZM35.9513 20.7152C35.8021 20.6067 35.5959 20.5983 35.4401 20.7039C35.3664 20.7661 35.4031 20.8372 35.4675 20.8645C35.4216 20.8831 35.3846 20.9414 35.4146 21.0014C35.5259 21.2768 35.8015 21.4657 36.1176 21.4621C36.1767 21.4656 36.2442 21.413 36.238 21.3477C36.2154 21.1151 36.173 20.8494 35.9593 20.7134L35.9513 20.7152Z" fill="white"/>
<path d="M37.1907 21.1691C36.9929 21.1047 36.7788 21.1732 36.6186 21.2964C36.5233 21.3927 36.6412 21.529 36.7462 21.439C36.8826 21.3211 37.1448 21.2627 37.2261 21.4781C37.2482 21.5399 37.2571 21.6547 37.186 21.6914C37.0991 21.7316 37.0032 21.657 36.9966 21.5709C36.997 21.4416 36.7952 21.4906 36.7834 21.6058C36.7984 21.7859 36.9782 21.9002 37.1455 21.8838C37.3256 21.8688 37.4584 21.735 37.4574 21.5434C37.4605 21.3885 37.3483 21.2216 37.1907 21.1691Z" fill="white"/>
</svg>
