<svg width="32" height="56" viewBox="0 0 32 56" fill="none" xmlns="http://www.w3.org/2000/svg">
<path d="M-19.1554 48.4601C-18.7615 49.7714 -17.8627 50.3256 -17.0797 50.977C-15.3366 52.3693 -14.946 52.3664 -13.3009 50.6951C-8.62408 45.9287 -3.86306 41.1938 0.62817 36.2224C7.11768 28.9908 13.952 22.089 20.9676 15.379C23.4858 12.9921 25.9332 10.5472 28.3675 8.06227C29.7095 6.68271 29.6196 5.89212 28.1468 4.62524C27.4524 4.01861 26.6108 3.59338 25.8406 3.07078C24.8226 2.37846 23.9651 2.55694 23.0825 3.42342C20.7871 5.61145 18.4562 7.78159 16.4076 10.4057C17.2573 11.013 17.9346 11.4553 18.5317 11.9683C18.8015 12.2047 18.7865 12.5864 18.5942 12.923C18.4109 13.2419 18.0818 13.387 17.7095 13.2434C17.4036 13.1445 17.1206 12.8903 16.8059 12.7869C15.9725 12.4993 15.2085 11.5683 14.2775 12.3325C13.1414 13.3045 14.6659 13.919 14.7157 14.7227C14.7104 14.9314 14.6074 15.1351 14.5577 15.3436C14.121 15.7458 13.7405 15.4423 13.3194 15.3074C11.2047 14.6505 11.1958 14.6682 11.7149 16.8102C11.9936 18.0855 11.4245 18.3095 10.4185 17.9014C9.73163 17.6322 8.61397 17.4011 8.71755 18.0986C9.11137 20.4886 7.30938 20.4234 5.9881 21.1017C4.6312 21.8064 4.69382 22.7389 5.98509 23.9029C6.1398 24.0589 6.39262 24.1088 6.56504 24.2738C6.92751 24.6349 7.02766 25.097 6.67532 25.4862C6.46129 25.7117 6.07892 25.8522 5.76819 25.8509C5.45746 25.8497 5.1433 25.6131 4.8019 25.5184C3.98153 25.3153 3.28961 24.1315 2.34023 25.0421C1.36846 25.997 2.53292 26.7077 2.73814 27.5121C2.8519 27.9032 2.76199 28.1692 2.50357 28.3946C1.431 29.0427 0.75003 27.3751 -0.228526 27.8372C-0.796212 28.7627 0.594665 29.4655 -0.158594 30.186C-0.983289 31.0039 -2.0789 29.7607 -3.07668 30.569C-3.99874 31.3155 -2.34546 32.9516 -3.9574 33.0826C-5.15201 33.2019 -5.99712 33.598 -6.48507 34.5638C-7.3043 36.1852 -5.43154 36.3084 -4.88024 37.1541C-4.66418 37.4969 -4.69207 37.7942 -4.83113 38.1355C-4.98381 38.5477 -5.38789 38.5771 -5.69815 38.4648C-6.2256 38.2762 -6.79724 38.043 -7.21306 37.6994C-8.44726 36.6866 -9.46602 37.2062 -10.123 38.2645C-10.8919 39.5222 -10.3201 41.8241 -12.9998 41.4712C-13.4346 41.4073 -13.3412 42.411 -13.1083 42.9624C-12.6906 43.9186 -12.8808 44.8013 -14.0773 44.3302C-16.3861 43.3973 -14.7391 46.4984 -16.3992 46.4826C-16.8653 46.4807 -15.9502 47.3768 -15.4991 47.7605C-15.3177 47.9077 -15.0739 47.9975 -14.9592 48.1667C-14.5797 48.6921 -14.56 49.2693 -14.9483 49.7738C-15.3859 50.3758 -15.9801 50.2312 -16.4714 49.8829C-17.206 49.356 -17.6905 48.4662 -19.142 48.4335L-19.1554 48.4601ZM7.47142 16.7571C13.244 11.0985 17.5336 6.57025 21.77 2.01513C23.9374 -0.337691 24.0478 -0.204046 26.8546 1.5922C28.3995 2.60634 29.8461 3.771 30.9897 5.22742C31.7801 6.21624 31.9682 6.8563 30.8355 8.08578C26.0417 13.2379 20.5274 17.6368 15.6762 22.7044C7.05286 31.7163 -1.5352 40.7683 -10.0878 49.8383C-11.3452 51.1605 -12.5762 52.5183 -13.4579 54.2194C-14.2948 55.8319 -15.4798 55.7782 -16.5743 54.2687C-17.938 52.3896 -19.48 50.6874 -21.5484 49.5867C-22.3191 49.1751 -22.8889 48.5202 -22.8588 47.6901C-22.7919 46.5894 -21.8248 46.7221 -21.0472 46.5478C-19.0967 46.143 -17.9314 44.5629 -16.8511 43.129C-14.1147 39.5399 -11.0334 36.2586 -7.80179 33.1199C-1.97614 27.5104 2.82812 20.951 7.47142 16.7571Z" fill="white"/>
</svg>
