<svg width="57" height="50" viewBox="0 0 57 50" fill="none" xmlns="http://www.w3.org/2000/svg">
<path d="M24.3076 33.3346C24.5852 33.1941 24.8216 33.0932 25.03 32.962C25.3596 32.7701 25.4193 32.5658 25.1062 32.2968C24.7002 31.9415 24.5012 31.9647 24.3343 32.485C24.257 32.6989 24.1297 32.9574 24.3076 33.3346ZM35.7003 33.8279C36.0454 33.8106 36.2544 33.576 36.4447 33.3803C36.6377 33.2002 37.0206 33.0535 36.896 32.7214C36.7694 32.3961 36.3767 32.3995 36.0732 32.3255C35.8553 32.2618 35.7102 32.4042 35.672 32.5852C35.6042 32.9941 35.4467 33.4063 35.7003 33.8279ZM15.3416 25.4275C15.5044 25.0981 15.3317 24.9811 15.1278 24.8697C14.8422 24.7344 14.5481 24.8554 14.2646 24.839C14.0328 24.823 13.7231 24.6437 13.6079 24.987C13.4888 25.3439 13.3216 25.7386 13.5472 26.1298C13.577 26.205 13.7236 26.2848 13.7948 26.2687C14.3999 26.1204 14.8845 25.7521 15.3436 25.4207L15.3416 25.4275ZM44.8694 21.3783C43.7192 20.5097 41.2093 19.8423 39.6234 19.9329C39.4352 19.9444 39.2182 19.9031 39.1449 20.1034C39.0272 20.3794 39.2652 20.5008 39.4478 20.5837C40.467 21.0666 41.5012 21.4725 42.6236 21.6529C43.0188 21.7168 44.098 21.6406 44.4536 21.4859C44.5328 21.4425 44.6381 21.4363 44.8606 21.3831L44.8694 21.3783ZM22.5103 15.1427C19.9789 14.1954 17.73 12.939 15.0866 12.9051C17.0123 14.104 19.1291 14.8265 21.2838 15.4197C21.631 15.5212 22.0058 15.5791 22.5103 15.1427ZM27.3665 16.9102C27.4176 17.3169 27.666 17.4783 27.9236 17.5832C29.6573 18.3267 31.5182 18.6861 33.2917 19.2935C33.7992 19.4788 34.0816 19.044 33.9154 18.5002C33.7456 17.9183 33.2972 17.6319 32.7318 17.5183C31.9581 17.3586 31.1825 17.2057 30.4367 16.9506C29.4566 16.6123 28.3993 16.6135 27.3665 16.9102ZM23.8627 37.4844C24.504 37.4649 24.9781 37.0566 25.5129 36.7695C25.9617 36.5238 26.3864 36.234 26.8292 36.0087C27.1108 35.8545 27.4901 35.6698 27.6884 36.053C27.9301 36.5155 27.4834 36.577 27.2058 36.7176C27.0446 36.7887 26.8601 36.8382 26.6853 36.9054C25.9351 37.196 25.2399 37.5767 24.6518 38.1217C24.2569 38.4867 24.2763 38.6476 24.6924 38.9688C25.0715 39.2645 25.4299 39.3028 25.8988 39.1147C26.8533 38.7064 27.3882 37.9388 27.7203 37.0307C27.9531 36.4113 28.2141 35.8224 28.5731 35.2769C28.9845 34.6285 29.0035 33.9318 29.1763 33.0879C28.6322 33.3058 28.3308 33.0476 27.996 32.9793C27.4607 32.8893 26.8256 32.5335 26.4002 32.9266C25.675 33.5867 24.7537 33.9825 24.0469 34.6555C23.8127 34.8752 23.739 35.1272 23.8775 35.4116C24.3179 35.4221 24.5962 35.1783 24.9178 35.0136C25.5414 34.7008 26.1446 34.3819 26.7683 34.069C27.0323 33.9245 27.3062 33.7459 27.481 34.1592C27.6317 34.5285 27.3537 34.7207 27.0696 34.8076C26.2977 34.9958 25.6855 35.4969 25.0817 35.919C24.653 36.2224 24.2751 36.5036 23.6725 36.4161C23.7576 36.8327 23.6436 37.1468 23.8558 37.4824L23.8627 37.4844ZM17.8404 21.154C16.864 20.8537 15.9139 20.5389 14.9443 20.2405C14.6351 20.1353 14.3548 20.0829 14.2673 20.5082C14.0862 21.431 13.8846 22.3477 13.8124 23.3023C13.7882 23.7388 14.0503 23.9041 14.395 23.9384C15.4448 24.0384 16.4246 24.4285 17.4323 24.7231C18.7083 25.1111 18.7778 25.0501 19.0649 23.7148C19.0828 23.6536 19.093 23.5678 19.111 23.5066C19.7079 21.6927 19.6188 21.7701 17.8432 21.1696L17.8404 21.154ZM38.1617 23.0609C37.941 23.7651 37.7239 24.5073 37.4768 25.2259C37.3437 25.6305 37.4922 25.8809 37.8491 26.0001C39.2476 26.4239 40.6502 26.834 42.0849 27.0836C42.3468 27.1232 42.5432 27.0328 42.5517 26.7766C42.5988 25.6298 42.9787 24.5583 43.1503 23.4406C43.2259 22.8787 43.0338 22.6007 42.564 22.4634C41.8831 22.2642 41.2267 22.0575 40.5583 21.8916C40.0105 21.7684 39.4956 21.2039 38.9276 21.5034C38.4132 21.7965 38.4856 22.5347 38.1617 23.0609ZM27.3004 19.2341C27.0892 20.1332 26.8839 21.012 26.6787 21.8907C26.5132 22.6333 26.5089 22.6985 27.2474 22.8775C28.589 23.2181 29.9377 23.5091 31.2335 24.0063C31.7887 24.2056 32.0258 24.0014 32.1927 23.4811C32.4856 22.6058 32.3813 21.6735 32.6538 20.7923C32.8112 20.2543 32.6054 19.9724 32.1055 19.8114C30.8695 19.413 29.6873 18.8307 28.368 18.6667C27.775 18.5967 27.4608 18.6601 27.316 19.2312L27.3004 19.2341ZM37.0682 31.6778C38.3497 32.2743 39.6914 32.1344 40.9832 32.3422C41.4056 32.414 41.5452 32.0631 41.6292 31.7254C41.8208 30.8427 42.028 29.9571 42.2333 29.0784C42.4349 28.1616 42.381 28.0424 41.4446 27.7316C40.3079 27.3474 39.1393 27.0722 37.9648 26.8175C37.1611 26.6342 36.963 26.6797 36.8168 27.4574C36.6672 28.3229 36.4107 29.1497 36.2134 30.0012C35.9585 31.1759 36.0195 31.2454 37.077 31.6729L37.0682 31.6778ZM18.1043 15.3991C17.581 15.0908 16.8426 14.9118 16.1448 14.619C15.7162 14.442 15.5038 14.5868 15.3131 15.0115C14.758 16.2019 14.8124 17.4818 14.5853 18.7385C14.5215 19.1338 14.7136 19.4117 15.1142 19.5584C16.414 20.042 17.7527 20.367 19.0804 20.7553C19.4276 20.8568 19.6681 20.7423 19.7656 20.4087C20.0886 19.2539 20.4251 18.1031 20.7276 16.9423C20.853 16.5133 20.6549 16.2558 20.226 16.1304C19.5695 15.9236 18.9162 15.6808 18.1092 15.4079L18.1043 15.3991ZM18.4108 25.9259C17.8094 26.1122 17.4842 25.7584 17.0857 25.6049C16.8037 25.5077 16.5722 25.4399 16.2659 25.6534C15.4077 26.2377 14.5106 26.8033 13.6388 27.3836C13.4264 27.5285 13.186 27.6429 13.0783 27.8849C12.9885 28.0656 13.0068 28.2558 13.0915 28.421C13.2119 28.641 13.4047 28.5126 13.5716 28.4727C13.8417 28.4334 14.0164 28.2406 14.2191 28.0781C14.555 27.8141 14.8784 27.517 15.2616 27.3186C15.6048 27.1307 16.0756 26.6326 16.3887 27.2047C16.6585 27.6975 16.039 27.8194 15.727 28.0017C15.151 28.3285 14.5754 28.6036 14.0805 29.0576C13.8678 29.2541 13.6094 29.4299 13.3024 29.4436C12.7528 29.4529 12.6889 29.8482 12.8496 30.1834C13.0275 30.5607 13.3676 30.2315 13.5837 30.1246C14.3166 29.7919 15.0214 29.4289 15.7378 29.0766C15.9578 28.9562 16.1551 28.8882 16.3036 29.1386C16.4521 29.389 16.2834 29.5614 16.0946 29.6762C15.501 30.0127 14.9015 30.3696 14.2577 30.6248C12.9711 31.1577 12.2001 31.9745 12.1811 33.4547C12.1624 34.5802 12.4068 35.5387 13.1823 36.3494C13.5684 36.7728 13.9084 36.7983 14.2736 36.3581C14.6073 35.9752 15.0127 35.6503 15.2514 35.1879C16.1005 33.5734 17.0224 31.9877 17.4497 30.1982C17.7847 28.8252 18.324 27.5119 18.4208 25.8918L18.4108 25.9259ZM36.0199 37.8908C36.7877 37.8936 37.5268 37.6662 38.2566 37.6726C38.4984 37.6546 38.741 37.659 38.7626 37.9389C38.7746 38.2011 38.5481 38.2679 38.316 38.3035C37.4859 38.4377 36.6525 38.4823 35.8728 38.8234C35.5231 38.9577 35.2355 39.1323 34.9437 39.3722C34.5998 39.6634 34.6688 40.0088 34.8675 40.3404C35.089 40.7453 35.3713 40.4878 35.6077 40.3869C36.0661 40.1588 36.4957 39.8778 36.9445 39.6321C37.1704 39.4912 37.4831 39.2057 37.6746 39.5869C37.8528 39.9125 37.4932 40.0809 37.2632 40.2354C36.7253 40.5585 36.1933 40.8612 35.673 41.1747C34.8846 41.6464 34.7691 42.0414 35.1138 42.8592C35.2943 43.3037 35.5932 43.4946 36.0521 43.3405C36.89 43.0534 37.5867 42.5918 38.1312 41.8419C39.7903 39.5551 40.2914 36.8558 41.022 34.2311C41.0781 33.9888 41.1177 33.7269 40.8841 33.5403C40.2571 32.9799 39.3964 32.7134 38.7632 33.0087C37.7947 33.4647 36.7873 33.9019 35.9293 34.6119C35.0849 35.3259 35.0164 36.1411 35.1686 37.2131C36.3979 36.6486 37.5032 36.1292 38.6134 35.6186C38.8538 35.5041 39.0622 35.3728 39.2986 35.272C39.4354 35.2085 39.5884 35.2162 39.6839 35.3698C39.8026 35.545 39.7909 35.7116 39.6321 35.85C39.3263 36.1375 38.9534 36.2502 38.5802 36.4145C37.6804 36.7871 36.7894 37.1549 36.0403 37.8967L36.0199 37.8908ZM30.4688 30.0583C30.9085 28.7824 31.2596 27.4807 31.6039 26.1769C31.9268 25.0221 31.9067 24.9645 30.7803 24.4946C29.6956 24.0592 28.5081 24.0002 27.3995 23.6464C26.4495 23.3316 26.2927 23.4632 25.9643 24.4094C25.4466 26.0025 25.1986 27.6596 24.8239 29.2945C24.4111 31.1104 24.7147 31.4875 26.5301 31.9519C27.4047 32.1707 28.3892 31.9633 29.2108 32.5658C29.3775 32.7032 29.5185 32.4488 29.5819 32.2825C29.8846 31.5506 30.1669 30.8127 30.4688 30.0583ZM3.38898 35.1634C4.19457 35.5172 4.90233 35.7759 5.54502 36.1561C7.39968 37.1937 9.43146 37.8027 11.4189 38.4873C14.2435 39.4686 17.2464 39.8146 20.0952 40.6625C23.5908 41.6995 27.1126 42.5964 30.5803 43.7287C33.2962 44.6265 35.9661 45.7325 38.7482 46.4796C40.4603 46.9433 42.2008 47.3858 43.9169 47.8359C44.1728 47.8959 44.4522 47.9259 44.5875 47.6402C44.7188 47.3682 44.5467 47.1479 44.3775 46.9431C44.2151 46.7404 43.9811 46.6054 43.7009 46.6788C43.4412 46.758 43.2023 46.7916 42.9823 46.609C42.4231 46.1202 41.719 45.8995 41.0444 45.6284C39.6224 45.0573 38.1796 44.5319 36.6083 44.4715C35.7451 44.4408 34.8959 44.3625 34.1126 43.8821C33.1449 43.2739 31.9403 43.2986 30.8828 42.8711C29.3014 42.2386 27.6569 41.7207 26.03 41.1932C24.1376 40.588 22.147 40.2424 20.2529 39.5924C18.8606 39.0966 17.3543 38.9148 15.9496 38.3857C15.378 38.1668 14.8287 37.8214 14.1902 37.8564C13.579 37.8994 13.069 37.6468 12.5178 37.4338C11.534 37.0574 10.6356 36.4399 9.55771 36.3095C8.55191 36.1854 7.56153 35.9327 6.61579 35.5526C6.07824 35.3437 5.52309 35.1444 4.97558 34.9695C4.48537 34.8261 4.00563 34.7228 3.39381 35.1722L3.38898 35.1634ZM40.43 39.0104C40.1451 39.6811 39.9585 40.3952 39.6027 41.0304C39.1671 41.8122 38.7236 42.6212 38.1618 43.3292C37.7523 43.8451 37.7978 44.0432 38.4185 44.1952C39.7973 44.5097 41.1705 44.793 42.5433 45.1279C42.9285 45.2258 43.1542 45.1366 43.3338 44.7752C43.4691 44.4895 43.656 44.2041 43.6406 43.8522C43.6215 43.3366 43.7921 42.8543 43.9354 42.364C44.2902 41.1003 44.6266 39.8237 44.9413 38.5705C45.6246 35.8801 46.0481 33.1433 46.8704 30.5084C46.9899 30.0998 46.9603 29.8472 46.6356 29.5675C45.813 28.8169 44.7212 28.7341 43.765 28.3141C43.4413 28.1825 43.2252 28.4667 43.1472 28.7839C42.9577 29.4824 42.7369 30.1866 42.6155 30.9051C42.1169 33.6716 41.1913 36.3059 40.43 39.0104ZM31.8304 42.3351C32.2748 42.635 32.7628 42.6595 33.219 42.7929C33.8834 42.9724 33.999 42.8806 33.9739 42.208C33.9469 41.2391 33.8049 40.2588 33.8538 39.2827C33.9249 37.5738 34.2823 35.8969 34.5452 34.2145C34.9029 32.0055 35.4766 29.867 36.0318 27.7157C36.0958 27.4462 36.1318 27.1463 36.195 26.8543C36.2668 26.4318 36.1144 26.195 35.6934 26.0423C34.928 25.8037 34.1439 25.604 33.3606 25.4266C32.9421 25.3412 32.7655 25.5409 32.5998 25.8546C32.3392 26.3919 32.3549 26.9953 32.1732 27.5409C31.0522 30.8941 29.9379 34.2494 28.5 37.4731C28.0623 38.439 27.615 39.3874 26.5905 39.9083C26.1037 40.1577 26.1494 40.4815 26.6773 40.6729C28.096 41.1543 29.4524 41.7727 30.9169 42.0975C31.2341 42.1755 31.56 42.2486 31.8256 42.3263L31.8304 42.3351ZM23.76 39.731C23.5919 39.4971 23.548 39.3438 23.4326 39.2583C22.8771 38.8076 22.7208 38.2297 22.7058 37.523C22.6554 36.5326 22.7453 35.5684 22.9432 34.6136C23.6873 31.0835 24.26 27.533 25.2396 24.057C25.447 23.2972 25.3792 23.2256 24.6338 22.9189C23.549 22.4834 22.3795 22.3631 21.231 22.1456C20.5187 22.0038 20.4434 22.0335 20.244 22.7661C19.8613 24.1252 19.5407 25.5246 19.2057 26.8976C18.7592 28.6519 18.4441 30.4372 17.7873 32.1522C17.1784 33.7038 16.3181 35.0785 15.5364 36.513C15.1273 37.2804 15.1349 37.3048 15.9304 37.567C18.3507 38.3635 20.8507 38.8876 23.2591 39.725C23.3544 39.7529 23.4773 39.7371 23.7531 39.729L23.76 39.731ZM11.4656 36.0026C11.625 35.7609 11.4821 35.5417 11.419 35.3533C11.1817 34.6482 11.1743 33.966 11.3017 33.2271C11.7728 30.5042 12.1902 27.7878 12.6613 25.065C12.7431 24.6084 12.597 24.1222 12.7977 23.6635C13.263 22.6538 13.0635 21.5163 13.3449 20.4529C13.4468 20.0539 13.2722 19.7663 12.8493 19.6205C11.3954 19.1583 9.97452 18.558 8.45493 18.3206C7.43269 18.1769 7.15874 18.3555 6.99338 19.4011C6.7456 21.0066 6.49384 22.6257 6.0971 24.2098C5.49114 26.6862 5.03214 29.1908 4.42618 31.6673C4.29642 32.1616 4.28836 32.6692 4.20626 33.1774C4.17626 33.4569 4.27742 33.6418 4.54263 33.7711C6.75994 34.7817 9.00796 35.7126 11.4588 36.0006L11.4656 36.0026ZM30.7961 44.5828C28.3956 43.8955 26.3359 43.3819 24.3385 42.7313C22.2554 42.0703 20.1306 41.5524 18.0236 40.9732C16.3515 40.499 14.6308 40.1658 12.9209 39.821C12.482 39.7296 12.0835 39.5761 11.6653 39.439C9.0447 38.5692 6.45592 37.5904 3.97205 36.354C3.4144 36.0874 2.8669 35.9125 2.18611 36.0165C1.55696 36.1207 0.91047 35.8799 0.527924 35.1915C0.291884 34.7603 0.36557 34.5083 0.767215 34.3227C1.26367 34.0909 1.75363 33.8055 2.29029 33.6889C2.9734 33.5265 3.28102 33.1064 3.35696 32.4929C3.46688 31.5863 3.66447 30.6832 3.85212 29.8141C4.0776 28.8156 4.26703 27.814 4.54781 26.8538C4.90825 25.6213 5.04485 24.3456 5.41293 23.1375C5.68941 22.2426 5.94263 21.3261 5.84066 20.3354C5.7959 19.8566 5.99207 19.3374 6.16949 18.8571C6.3884 18.2854 5.85743 17.6497 6.14115 17.3113C6.49674 16.8535 6.72749 16.4184 6.84877 15.8773C7.07393 14.9304 7.28347 13.9865 7.30437 12.9799C7.32668 12.3729 7.60321 11.7811 7.83375 11.2202C7.92105 10.9722 8.08041 10.7306 8.40606 10.8554C8.69568 10.977 8.77494 11.2367 8.66324 11.4924C8.07882 12.8589 8.25163 14.3657 7.80736 15.7585C7.39098 17.0559 7.46304 17.0622 8.73475 17.5154C10.0618 18.007 11.4331 18.4228 12.8019 18.7713C13.7106 19.0001 13.7285 18.9388 13.8381 18.0839C13.9943 16.7916 13.9198 15.4541 14.5229 14.226C14.6127 14.0453 14.5728 13.8784 14.3825 13.771C14.2058 13.6676 14.0176 13.6791 13.8938 13.8499C13.4348 14.4844 13.2447 14.0223 13.0804 13.649C12.6173 12.6043 13.1042 11.8745 14.2514 11.8182C15.3987 11.762 16.4562 12.1895 17.5351 12.468C18.7433 12.7844 19.9499 13.056 21.0405 13.6484C21.5125 13.9047 22.0249 13.9215 22.5282 13.9948C23.2466 14.1161 23.7244 14.5294 23.7456 15.0382C23.7749 15.6455 23.413 16.1754 22.6907 16.3707C22.0036 16.5468 21.6563 16.9257 21.5204 17.6177C21.3368 18.4732 21.0266 19.3065 20.7953 20.148C20.556 21.0168 20.6651 21.1744 21.4989 21.3812C22.5369 21.6478 23.5486 21.9289 24.5702 22.1759C25.5958 22.4093 25.6162 22.4153 25.9248 21.3598C26.1598 20.5563 26.4084 19.7568 26.5481 18.9254C26.6518 18.3939 26.5687 17.9705 26.2217 17.5142C25.6309 16.7797 25.8535 16.246 26.7988 16.0716C28.2916 15.7689 29.7678 15.9271 31.218 16.3512C32.1984 16.6379 33.1959 16.841 34.0723 17.4077C34.7167 17.8327 35.1368 18.7464 34.9733 19.4822C34.8954 19.7994 34.6594 19.9743 34.385 20.0789C33.9601 20.2429 33.8245 20.5802 33.6758 20.9876C33.3377 21.9162 33.2964 22.9168 33.0196 23.8633C32.9077 24.2963 33.0923 24.5498 33.5152 24.6957C34.2534 24.9264 34.9552 25.2055 35.6973 25.4225C36.3441 25.6117 36.5601 25.5049 36.7493 24.858C37.0994 23.7111 37.3883 22.5464 37.7249 21.3956C37.8025 21.13 37.7414 20.9348 37.5665 20.6988C37.0237 19.9266 37.2798 19.3288 38.2605 19.2608C39.7863 19.1231 41.3045 19.264 42.7805 19.7769C43.3793 20.0038 43.9886 20.2707 44.6138 20.4831C45.5083 20.8112 45.8712 21.5161 46.0187 22.4019C46.0975 22.8906 45.8808 23.1007 45.4401 23.1418C45.1984 23.1598 44.9385 23.1134 44.6823 23.105C44.3988 23.0886 44.1836 23.2179 44.1224 23.5031C43.8833 24.4976 43.6082 25.4889 43.4207 26.4837C43.2854 27.2498 43.38 27.381 44.1321 27.564C45.0068 27.7828 45.8364 28.1807 46.7705 28.2469C47.2926 28.2813 47.5702 28.1407 47.7003 27.5948C47.9656 26.4601 48.2124 25.3127 48.2119 24.152C48.2147 23.3841 48.4931 22.6598 48.5359 21.8814C48.5419 21.5579 48.7313 21.3398 49.1061 21.3976C49.4196 21.4376 49.5244 21.6604 49.508 21.9439C49.4996 22.2002 49.5 22.4516 49.4515 22.7183C49.1422 24.3575 48.7159 25.9921 48.5194 27.6495C48.2211 30.009 46.9568 32.1081 46.6693 34.456C46.4689 36.127 46.0466 37.748 45.5494 39.347C45.0454 40.9441 44.8518 42.6172 44.3818 44.2242C44.2384 44.7145 44.2719 45.1308 44.5868 45.5703C44.9374 46.0646 45.2369 46.6327 45.5435 47.1511C45.6013 47.2567 45.6759 47.3302 45.7221 47.4251C45.9201 47.8599 45.8414 48.7609 45.5739 48.9931C45.1889 49.324 44.7339 49.1614 44.3354 49.0079C41.9709 48.1464 39.5081 47.5962 37.0979 46.8914C35.6954 46.4812 34.3383 45.9661 32.9636 45.4606C32.1129 45.16 31.2733 44.7962 30.7834 44.6012L30.7961 44.5828Z" fill="white"/>
<path d="M31.413 15.0778C31.1413 14.8948 30.7127 14.7177 30.6716 14.277C30.6398 13.9055 30.4677 13.6852 30.252 13.4373C29.9308 13.0698 29.9609 12.613 30.0708 12.1868C30.1826 11.7538 30.381 11.3535 30.9507 11.4019C31.4484 11.4439 31.8928 11.7439 31.91 12.2664C31.9232 12.8025 32.1395 13.1244 32.5635 13.4184C33.0688 13.788 33.0969 14.1214 32.7682 14.6388C32.4268 15.1746 32.0195 15.329 31.4062 15.0758L31.413 15.0778Z" fill="white"/>
<path d="M34.3642 11.077C34.1251 11.591 33.6448 11.8941 33.2539 11.765C32.7164 11.556 32.3083 10.424 32.5735 9.76976C32.7686 9.2798 33.2747 9.06562 33.7273 9.28671C34.3287 9.58083 34.639 10.4403 34.3622 11.0838L34.3642 11.077Z" fill="white"/>
<path d="M19.599 9.17612C20.6261 9.63172 20.8278 10.4077 20.1088 11.1732C19.7655 11.5384 19.4236 11.5198 19.0373 11.2737C18.6093 10.9934 18.3046 9.862 18.5569 9.40357C18.8032 8.96558 19.1783 8.97179 19.599 9.17612Z" fill="white"/>
<path d="M21.1456 4.16592C21.0202 4.11447 20.9138 4.14988 20.9091 4.2668C20.8989 4.35249 20.9487 4.48534 21.002 4.5305C21.101 4.59641 21.2202 4.54256 21.2521 4.43361C21.2839 4.32466 21.2466 4.22502 21.1456 4.16592ZM21.1308 3.10457C22.1145 3.48096 22.5187 4.44923 21.9229 5.14722C21.7099 5.39538 21.4961 5.62112 21.0972 5.51925C20.7323 5.42734 20.4206 5.25488 20.314 4.86149C20.2016 4.43688 20.1537 3.99413 20.2656 3.56115C20.3789 3.0473 20.6349 2.92999 21.1396 3.09975L21.1308 3.10457Z" fill="white"/>
<path d="M20.9547 8.50819C21.1261 8.04829 21.3364 7.60714 21.9915 7.71741C22.5669 7.79698 23.0305 8.30952 22.9864 8.81405C22.9483 9.29816 22.3943 9.85317 21.8999 9.90079C21.6065 9.91847 21.297 9.86491 21.2212 9.51751C21.1519 9.22375 21.3804 9.15011 21.6105 9.12132C21.7714 9.10185 21.9182 9.00432 21.8928 8.86383C21.8808 8.6016 21.673 8.62956 21.4877 8.65668C21.3072 8.69259 21.1384 8.73932 20.9459 8.51302L20.9547 8.50819Z" fill="white"/>
<path d="M45.0234 12.7898C44.8784 13.0578 44.6475 13.3673 44.2109 13.2175C43.82 13.0884 43.6858 12.7386 43.7536 12.3297C43.7779 12.1964 43.8273 12.0778 44.0214 12.0459C44.4445 12.0144 44.528 11.9057 44.3892 11.6729C44.3217 11.5497 44.2211 11.439 44.0881 11.3631C43.7647 11.1799 43.5186 10.9601 43.892 10.6183C44.2634 10.2835 44.5748 10.5076 44.8282 10.8034C45.1358 11.1669 45.2374 12.2093 45.0205 12.7742L45.0234 12.7898Z" fill="white"/>
<path d="M41.4372 16.4348C42.1614 16.7131 42.3773 17.0867 42.1647 17.5863C41.9737 18.0626 41.3801 18.3991 41.0508 18.2362C40.7351 18.0774 40.2995 16.9891 40.4788 16.6793C40.7251 16.2413 41.0962 16.2611 41.4392 16.428L41.4372 16.4348Z" fill="white"/>
<path d="M42.9775 13.9728C43.4773 14.1338 43.9188 14.8986 43.7557 15.2796C43.5925 15.6606 43.2769 15.8049 42.876 15.7098C42.5901 15.6262 42.0117 14.6217 42.1251 14.411C42.2979 14.0476 42.5962 13.8613 42.9707 13.9708L42.9775 13.9728Z" fill="white"/>
<path d="M43.1143 17.9527C44.0833 17.5708 44.0972 17.5232 43.3519 16.736C43.2464 16.6165 43.1554 16.5233 43.2528 16.367C43.2804 16.3233 43.3724 16.2616 43.4376 16.2659C43.926 16.2387 44.2546 16.5048 44.487 16.898C44.6412 17.1796 44.4246 17.9959 44.1263 18.1821C43.7351 18.4078 43.3736 18.4055 43.1143 17.9527Z" fill="white"/>
<path d="M39.0778 33.8029C39.3058 33.9583 39.2901 34.1385 39.1626 34.2712C38.9048 34.5211 38.6438 34.8069 38.3446 34.9708C37.6593 35.3174 36.9648 35.5947 36.3133 36.0029C36.1665 36.1004 35.9676 36.1236 35.8392 35.9308C35.7417 35.784 35.7799 35.603 35.9031 35.5355C36.8626 34.9587 37.8229 34.4043 38.796 33.8314C38.8752 33.788 38.9901 33.7995 39.0798 33.7961L39.0778 33.8029Z" fill="white"/>
<path d="M16.3972 31.7753C16.1948 31.8861 16.0196 32.0049 15.8348 32.1061C15.1317 32.514 14.2685 32.4833 13.6135 32.9792C13.494 33.0847 13.3434 33.0185 13.2487 32.8873C13.154 32.7561 13.1422 32.6196 13.1636 32.4707C13.2194 32.28 13.3701 32.1689 13.541 32.1153C14.3076 31.8443 15.0498 31.5809 15.8124 31.3234C16.0009 31.2603 16.1779 31.312 16.3126 31.4327C16.3803 31.5043 16.3717 31.6348 16.3992 31.7685L16.3972 31.7753Z" fill="white"/>
<path d="M14.5925 33.9529C14.433 34.3719 13.2188 34.6821 12.8837 34.3623C12.755 34.2212 12.7058 33.9851 12.8662 33.8915C13.349 33.6557 13.8551 33.4416 14.4189 33.5103C14.6195 33.532 14.663 33.7369 14.5993 33.9548L14.5925 33.9529Z" fill="white"/>
</svg>
