<svg width="52" height="51" viewBox="0 0 52 51" fill="none" xmlns="http://www.w3.org/2000/svg">
<path d="M20.433 15.0936C20.8465 14.4751 20.9452 14.4442 20.7501 13.8949C20.3263 12.7436 20.0928 11.7238 21.7779 11.4754C21.8172 11.4755 21.8497 11.4336 21.8768 11.4053C22.0393 11.2745 22.1234 11.1043 21.9979 10.9283C21.9278 10.8295 21.786 10.7332 21.6778 10.7289C21.4845 10.7218 21.3046 10.7594 21.1193 10.8104C20.3806 11.0208 19.8745 10.7572 19.6009 10.0194C19.5645 9.93413 19.5498 9.83405 19.5135 9.74881C19.4624 9.5635 19.3369 9.42671 19.1124 9.47768C18.9189 9.54897 18.7982 9.71234 18.7831 9.88672C18.7472 10.2882 18.9413 10.6252 19.1233 10.9338C19.4576 11.5076 19.2056 11.8222 18.6968 12.0335C18.525 12.09 18.3316 12.1221 18.1584 12.2015C17.8932 12.2754 17.5618 12.3775 17.6423 12.7238C17.72 13.1552 18.0797 13.1194 18.4259 13.0781C19.7257 12.8709 19.704 12.8858 20.0954 14.079C20.1976 14.4104 20.0819 14.8347 20.4303 15.1003L20.433 15.0936ZM19.5876 8.33477C19.6497 8.41466 19.7658 8.51627 19.817 8.62317C20.0095 9.10078 19.9246 9.70225 20.354 10.0397C20.8468 10.434 21.3289 10.0158 21.8293 9.94237C22.2026 9.87275 22.4918 9.97334 22.5614 10.3858C22.6538 10.8781 22.8963 11.4072 22.4237 11.8214C22.2002 12.0062 21.9296 12.0936 21.6847 12.2148C21.2679 12.3925 21.1349 12.6843 21.2126 13.1157C21.3169 13.754 21.4199 14.4153 21.5432 15.0456C21.6411 15.4852 21.535 15.827 21.082 15.8803C20.6087 15.9254 20.0225 16.3096 19.7643 15.5466C19.6903 15.3207 19.6393 15.0962 19.5788 14.8757C19.3675 14.074 18.8494 13.6774 18.0246 13.6858C17.2688 13.7114 16.5806 12.8854 16.7415 12.134C16.8424 11.6488 17.3344 11.7525 17.6658 11.6503C18.2043 11.4823 18.5657 11.2275 18.2612 10.6577C17.7747 9.70099 18.0543 9.08365 18.9597 8.64728C19.164 8.54896 19.278 8.30446 19.5944 8.33749L19.5876 8.33477Z" fill="white"/>
<path d="M12.2417 6.63656C13.2303 7.34007 14.1275 7.64593 15.1235 7.19891C17.2588 6.22132 19.401 5.24644 21.4565 4.29167C20.3456 3.20938 20.3402 3.22289 18.8492 3.76905C17.9819 4.07164 17.0864 4.34714 16.2313 4.63894C14.8919 5.12048 13.5133 5.56273 12.2485 6.63928L12.2417 6.63656ZM15.501 18.5955C15.5031 18.1805 15.5509 17.8858 15.4906 17.6261C14.975 14.7508 14.2688 11.9009 13.9264 8.98538C13.8132 7.99822 13.1655 8.02812 12.3662 8.16184C12.5844 10.9568 12.7864 13.7139 13.0318 16.4413C13.1896 18.1762 13.3652 18.286 15.4943 18.5928L15.501 18.5955ZM17.0143 18.4428C17.1333 18.4201 17.3212 18.4407 17.4741 18.3923C19.6238 17.75 21.8473 17.3729 23.8975 16.3924C25.3631 15.6948 25.4011 15.6002 25.0199 14.0109C24.3903 11.3802 23.8095 8.74541 23.4342 6.06778C23.2793 5.00889 23.1362 4.85721 22.1566 5.22449C19.9444 6.06134 17.7875 7.01456 15.6036 7.8785C14.8689 8.16376 14.7126 8.65019 14.7843 9.36958C15.0663 12.0646 15.754 14.6874 16.2956 17.3221C16.3276 17.5547 16.426 17.759 16.5054 17.9714C16.5929 18.2028 16.7305 18.3679 17.0183 18.4523L17.0143 18.4428ZM20.9643 2.7833C21.5718 3.30223 22.4945 3.75956 23.3968 4.28715C23.7507 4.50006 24.0028 4.94668 24.0546 5.46188C24.4235 8.66272 25.159 11.7912 25.9539 14.928C26.1997 15.8978 25.9096 16.3069 24.9678 16.6972C23.3198 17.3607 21.6865 18.0851 19.9308 18.4698C19.5913 18.553 19.2315 18.6281 18.95 18.7817C17.108 19.7517 15.1751 19.4061 13.2377 19.2863C12.6888 19.246 12.5921 18.8619 12.5415 18.4413C12.3586 17.0809 12.1515 15.7028 12.0633 14.3412C11.9038 11.9858 11.8377 9.61289 11.4618 7.28813C11.3335 6.43614 11.586 5.84715 12.3642 5.45381C13.3345 4.93373 14.2833 4.42849 15.3533 4.12897C16.6128 3.74869 17.9087 3.41444 19.0983 2.81771C19.6396 2.56453 20.178 2.39653 20.9643 2.7833Z" fill="white"/>
<path d="M26.8396 33.4735C27.8281 34.177 28.7254 34.4828 29.7214 34.0358C31.8567 33.0582 33.9786 32.0752 36.0544 31.1286C34.93 30.0409 34.9381 30.0598 33.4336 30.6005C32.5663 30.9031 31.6964 31.1733 30.8292 31.4759C29.4762 31.952 28.1112 32.3996 26.8464 33.4762L26.8396 33.4735ZM30.0962 45.4392C30.0848 45.0187 30.1326 44.724 30.0857 44.4698C29.5567 41.5891 28.864 38.7446 28.5283 35.8318C28.4151 34.8446 27.7539 34.8691 26.9546 35.0028C27.193 37.8059 27.3748 40.5548 27.6404 43.2904C27.8037 45.0118 27.9739 45.1351 30.1029 45.4419L30.0962 45.4392ZM31.619 45.2825C31.738 45.2597 31.9124 45.2749 32.0788 45.2319C34.2149 44.5842 36.452 44.2125 38.4819 43.2239C39.961 42.5317 39.999 42.4371 39.6178 40.8478C38.9882 38.2171 38.3939 35.5769 38.0321 32.9047C37.8771 31.8458 37.726 31.6752 36.741 32.056C34.5491 32.901 32.3854 33.8515 30.188 34.71C29.4533 34.9952 29.3105 35.4871 29.389 36.2092C29.6506 38.8961 30.3451 41.5216 30.8867 44.1563C30.939 44.397 31.0374 44.6013 31.1168 44.8137C31.1908 45.0397 31.3419 45.2103 31.6298 45.2946L31.619 45.2825ZM35.5487 29.6148C36.1765 30.1419 37.0992 30.5992 37.9812 31.1186C38.3405 31.318 38.5871 31.7782 38.639 32.2934C39.0079 35.4942 39.7636 38.6309 40.5383 41.7594C40.784 42.7293 40.5075 43.1438 39.5725 43.5369C37.9109 44.1949 36.2709 44.9166 34.5354 45.3095C34.1959 45.3927 33.8361 45.4677 33.5411 45.6159C31.7127 46.5914 29.7662 46.2403 27.8288 46.1204C27.3056 46.0749 27.1968 45.7015 27.1461 45.281C26.9633 43.9205 26.7561 42.5425 26.6544 41.1754C26.4949 38.82 26.4288 36.4471 26.0732 34.1305C25.9246 33.2703 26.1974 32.6895 26.962 32.2907C27.9324 31.7706 28.9014 31.2735 29.9512 30.9659C31.231 30.5937 32.5066 30.2513 33.7097 29.66C34.2307 29.3987 34.7894 29.2389 35.5622 29.6202L35.5487 29.6148Z" fill="white"/>
<path d="M33.21 41.6377C33.2767 41.3742 33.3908 41.0905 33.4127 40.9581C33.6374 40.0283 33.8324 39.0945 34.0909 38.1783C34.3781 37.0932 34.7328 36.0352 35.1214 34.9908C35.1404 34.9436 35.173 34.8625 35.2366 34.841C35.2839 34.8208 35.3312 34.8398 35.3582 34.8507C36.2272 35.1294 35.2335 37.3665 35.0946 37.9462C34.799 39.1692 34.5021 40.4152 34.1984 41.6585C34.1561 41.8612 34.0881 42.0693 33.9391 42.2056C33.7441 42.3783 33.2953 42.3626 33.1741 42.0784C33.1174 41.985 33.1529 41.8188 33.2032 41.635L33.21 41.6377ZM33.6132 43.0162C34.3691 42.9905 34.5456 42.5515 34.6684 41.9338C34.9834 40.4283 35.2673 38.9024 35.7188 37.4282C35.9582 36.5986 36.9687 34.8077 35.7189 34.2659C34.4881 33.7161 34.2846 35.6666 34.0548 36.4139C33.8141 37.1881 33.5991 37.957 33.3922 38.7448C33.0425 40.0245 32.6655 41.411 32.6564 42.7413C32.6598 43.1036 33.359 43.0238 33.62 43.0189L33.6132 43.0162Z" fill="white"/>
<path d="M32.2285 37.6962C32.2475 37.6489 32.3219 37.6396 32.3612 37.6004C32.376 37.6613 32.384 37.7195 32.365 37.7667C32.3514 37.8005 32.2851 37.8288 32.2404 37.8422C32.2459 37.7895 32.2177 37.7232 32.2312 37.6894L32.2285 37.6962ZM33.3159 37.5684C32.6336 36.4545 32.523 36.3393 32.1779 36.4752C31.5758 36.704 31.2261 37.2225 31.2967 37.808C31.4179 38.8533 32.2146 38.6872 32.9231 38.6817C33.1482 38.3563 33.28 37.9699 33.3159 37.5684Z" fill="white"/>
<path d="M36.7836 40.1084C36.7689 40.0084 36.7705 39.907 36.7612 39.7934C36.7003 39.8082 36.6287 39.8107 36.6205 39.831C36.5635 39.9336 36.5119 40.062 36.5348 40.1418C36.5576 40.2608 36.6766 40.238 36.7809 40.1152L36.7836 40.1084ZM35.8027 39.6983C36.089 39.1229 36.4656 38.7329 37.1346 38.9234C37.6535 39.0771 38.0199 39.8444 37.838 40.297C37.6424 40.7833 36.7072 41.294 36.2883 41.1256C35.6182 40.8404 35.7166 40.2444 35.8095 39.701L35.8027 39.6983Z" fill="white"/>
</svg>
