<svg width="38" height="27" viewBox="0 0 38 27" fill="none" xmlns="http://www.w3.org/2000/svg">
<path d="M35.6899 2.89435L35.7503 2.91159L35.6468 2.86847C35.2068 1.45356 34.2666 0.66845 32.7484 0.892764C30.8678 1.15159 28.9959 1.5312 27.2534 2.42846C25.0192 3.58454 22.7591 4.70611 20.499 5.82769C18.1181 7.00965 15.7804 8.30376 13.3305 9.34769C10.0784 10.7281 7.2145 12.6261 4.66111 15.0418C4.16079 15.525 3.76398 16.0599 3.47931 16.6983C2.64256 18.6568 3.49655 20.0113 5.59274 19.9768C6.3346 19.9768 7.06785 19.7783 7.80971 19.6575C11.1481 19.114 14.1846 17.6818 17.3418 16.5775C22.6556 14.7399 27.5726 12.0999 32.4809 9.42536C33.6024 8.80418 34.4219 7.88965 35.2414 6.98377C35.8193 6.32808 35.9401 5.52572 35.6037 4.68885C35.2069 3.79159 34.5685 3.3516 33.542 3.2912C31.2647 3.17042 29.2288 3.77435 27.2879 4.88729C25.5282 5.92259 23.7943 7.04416 21.9914 7.98456C19.9555 9.01986 18.1354 10.3054 16.4015 11.7634C15.7632 12.3069 14.9868 12.8591 15.5389 13.765C16.0392 14.6018 16.9363 14.1015 17.6006 13.903C22.4313 12.3846 27.0119 10.245 31.3854 7.70847C31.9806 7.372 32.8001 7.0528 32.5068 6.02613C32.4292 5.72417 32.6103 5.50846 32.9899 5.60336C33.3867 5.70689 33.8525 5.64652 34.0509 6.10377C34.2321 6.54377 34.0078 6.90613 33.6886 7.18221C32.7656 7.89829 31.834 8.57985 30.8161 9.14064C28.556 10.4003 26.1406 11.3751 23.846 12.5571C21.7326 13.6355 19.4897 14.5156 17.1347 15.0332C15.5993 15.3524 14.6159 15.0763 14.2018 14.2308C13.7446 13.2905 14.1587 12.1948 15.3577 11.2371C15.4957 11.0991 15.6769 10.9955 15.8408 10.8575C19.3172 8.03631 23.3543 6.13827 27.2103 3.96415C29.824 2.48885 32.688 1.80728 35.6986 2.88571L35.6899 2.89435ZM37.4497 4.68885C37.467 6.02611 36.889 7.28574 35.8107 8.34692C32.9899 11.1077 29.755 13.2214 26.0457 14.5415C24.3118 15.1799 22.7936 16.2411 21.1287 17.0607C20.7664 17.2418 20.3524 17.6819 20.0677 17.3971C19.0929 16.474 18.3079 17.2332 17.4539 17.5007C14.8574 18.3203 12.442 19.6748 9.72475 20.1752C8.2669 20.434 6.80906 20.7964 5.30808 20.9517C2.72882 21.2105 1.27097 18.8897 2.31476 16.3791C2.61668 15.6803 3.07388 15.0763 3.61734 14.5587C5.89468 12.3587 8.44806 10.6246 11.3465 9.26143C16.1427 7.00103 20.8527 4.54218 25.6144 2.12649C27.8314 1.00492 30.1518 0.306095 32.6103 0.0300159C35.388 -0.289201 37.6826 1.98845 37.467 4.68885L37.4497 4.68885Z" fill="white"/>
<path d="M4.10892 24.5494C2.45267 24.9117 0.675652 24.0662 0.149448 22.8929C0.0718109 22.6945 0.0718235 22.496 0.270229 22.3752C0.451381 22.2544 0.667043 22.2113 0.81369 22.4184C1.63319 23.5141 2.75459 24.1784 4.10892 24.558L4.10892 24.5494Z" fill="white"/>
<path d="M2.83233 26.5078C1.7713 26.6717 0.977676 26.387 0.218561 25.9642C0.0374088 25.8607 -0.0574995 25.6623 0.0373899 25.4638C0.115027 25.2654 0.339335 25.1619 0.520487 25.2482C1.26235 25.6105 2.14221 25.7313 2.84094 26.5078L2.83233 26.5078Z" fill="white"/>
</svg>
