<svg width="28" height="45" viewBox="0 0 28 45" fill="none" xmlns="http://www.w3.org/2000/svg">
<path d="M14.6964 9.56479C14.6674 9.68532 14.6437 9.81919 14.6147 9.93971C15.9831 10.6535 17.3194 11.3647 18.6796 12.0196C20.0946 12.6756 21.5214 13.226 23.1533 13.9187C22.9696 13.0216 22.5558 12.9012 22.2088 12.7539C19.722 11.6761 17.2099 10.6318 14.6964 9.56479ZM16.6997 28.7036L16.681 28.6957C17.0513 27.8233 17.4188 26.9055 17.8079 26.0411C19.2672 22.786 20.5941 19.5299 21.4708 16.0828C21.6729 15.294 22.106 14.4041 20.9984 14.0667C19.4221 13.6079 18.072 12.7469 16.6473 12.0093C15.0416 11.1505 14.6516 11.3392 13.8382 12.9423C13.5962 13.382 13.413 13.8135 13.246 14.285C11.5048 18.439 9.90016 22.662 8.02758 26.7602C6.46586 30.2044 5.6002 33.7558 5.08953 37.4358C5.00979 37.9887 4.94482 38.5589 4.96143 39.1195C5.04349 40.4385 5.74219 41.3219 6.90568 41.9708C8.09589 42.6089 9.08575 42.1545 9.98899 41.4088C11.5259 40.135 12.5641 38.5498 13.3085 36.7182C14.3965 34.0249 15.5782 31.3715 16.7131 28.6982L16.6997 28.7036ZM7.87185 24.6239C10.1408 21.0261 10.9015 16.5223 13.0197 12.628C13.4624 11.8196 13.1992 11.1101 13.1002 10.3263C12.8752 8.69204 13.704 8.06965 15.2501 8.70384C18.0165 9.80076 20.7631 10.9446 23.4565 12.1876C25.0216 12.9074 25.0778 14.1047 23.5677 15.0024C22.9161 15.39 22.5925 15.8394 22.4152 16.4395C20.483 23.4681 16.9765 29.8507 14.3611 36.6115C13.6053 38.6265 12.5128 40.3657 10.9885 41.8442C9.34176 43.481 8.22007 43.7244 6.46597 42.9022C4.66499 42.0602 3.71318 40.7041 3.86695 38.6992C4.24281 34.3199 5.20927 30.1138 7.18669 26.1597C7.42871 25.72 7.58373 25.2765 7.85849 24.6293L7.87185 24.6239Z" fill="white"/>
<path d="M20.9501 7.71391C20.8475 7.82532 20.6886 7.91283 20.6902 8.01318C20.6732 8.10556 20.8394 8.20935 20.9147 8.31881C20.9813 8.21421 21.1456 8.14005 21.1385 8.02634C21.1556 7.93396 20.9973 7.81142 20.9408 7.70992L20.9501 7.71391ZM22.0507 8.7457C21.7171 9.40115 21.0946 9.66825 20.3159 9.26018C19.623 8.9107 19.2889 8.2375 19.4523 7.48764C19.5986 6.83016 20.8322 6.47932 21.5331 6.81005C22.3118 7.21811 22.4557 7.84379 22.0413 8.74171L22.0507 8.7457Z" fill="white"/>
<path d="M20.886 3.01504C20.8394 3.07273 20.7567 3.13725 20.7635 3.17335C20.8203 3.35245 20.9059 3.33342 20.9895 3.13644C20.9974 3.11768 20.925 3.0537 20.886 3.01504ZM20.3476 2.4322C20.5319 1.94585 20.7995 1.5502 21.365 1.83457C22.086 2.19601 22.4747 2.79274 21.993 3.56245C21.6776 4.07066 21.1593 4.69197 20.4838 4.3277C19.6406 3.83691 20.141 3.07516 20.3422 2.41883L20.3476 2.4322Z" fill="white"/>
<path d="M11.1107 26.4859C11.1008 26.3267 11.1 26.0939 11.0343 26.066C10.6404 25.8988 10.4823 26.2191 10.3441 26.4926C10.2883 26.6239 10.3468 26.9034 10.3468 26.9034C10.6947 26.9182 10.9457 26.7701 11.1107 26.4859ZM8.70653 33.6353C10.3586 33.1853 11.0721 32.1044 12.1483 31.8638C13.4732 31.5849 13.6187 30.6946 13.7625 29.704C13.2922 29.4822 13.0602 29.7158 12.8268 29.9267C11.4869 30.9188 10.241 32.0283 8.71591 33.6393L8.70653 33.6353ZM9.37307 35.6895C9.83393 34.291 11.7505 34.4958 12.546 32.7522C10.5029 33.5234 9.05847 34.4489 7.85863 35.7108C7.6906 35.872 7.40568 36.2824 7.93602 36.4411C8.15289 36.4779 8.38542 36.3995 8.62617 36.3799C8.45008 36.9251 8.13445 37.3557 7.70088 37.7251C7.29005 38.0932 7.22996 38.5216 7.99786 38.9029C8.29708 37.1812 10.4829 37.0906 10.9978 35.4604C10.3305 35.155 9.9642 36.018 9.38246 35.6935L9.37307 35.6895ZM11.1199 28.0286C10.198 28.4011 9.50544 28.9374 9.37577 30.1555C9.99649 29.3451 10.5561 28.6528 11.0943 27.9846C11.9804 27.6965 12.7456 27.3018 12.8694 25.9151C12.1151 26.7794 11.1821 27.0476 11.1332 28.0232L11.1199 28.0286ZM8.97477 31.8561C8.56096 31.7358 8.38782 31.9612 8.29534 32.3094C8.28623 32.383 8.38963 32.5044 8.38963 32.5044C8.71568 32.3882 8.88205 32.1267 8.93586 31.8175C9.4509 31.8036 9.6062 31.4378 9.75469 31.0359C11.4049 30.408 12.4053 28.7293 14.1535 28.2094C14.5077 28.1051 14.655 27.7581 14.3905 27.4686C14.1649 27.2179 13.7888 27.1911 13.5193 27.4088C12.2658 28.6147 10.6243 29.4567 9.7723 31.0987C9.21151 31.0378 9.08178 31.4477 8.96143 31.8615L8.97477 31.8561ZM8.31192 28.9068C8.68225 28.0344 9.04178 27.1353 9.43883 26.2522C9.94737 25.1064 10.8238 24.7368 12.0024 25.1153C13.0605 25.4649 14.1215 25.8599 15.1438 26.2939C15.7534 26.5527 15.8982 27.0459 15.6556 27.6957C15.096 29.1962 14.6169 30.742 13.9543 32.1987C13.1866 33.8766 12.3011 35.4933 11.3834 37.1075C10.7356 38.2163 9.89876 39.2228 8.70478 39.8451C7.21174 40.6504 6.5095 40.297 6.14414 38.6806C5.92271 37.6899 6.0466 36.7461 6.23873 35.7981C6.48493 34.6185 6.74989 33.4468 7.08846 32.2842C7.41907 31.1404 7.58882 29.9061 8.31192 28.9068Z" fill="white"/>
<path d="M13.8937 22.6415C14.2594 22.7967 14.977 22.5146 15.0586 22.1397C15.1392 21.8196 15.0162 21.4574 14.7348 21.338C14.2298 21.1457 13.8079 21.4094 13.6048 21.8878C13.4854 22.1692 13.5521 22.5075 13.8991 22.6548L13.8937 22.6415ZM15.9433 22.637C15.5193 23.4533 14.1529 23.7257 13.1784 23.1791C12.3153 22.7353 12.3277 22.0542 12.7642 21.3649C13.2567 20.6219 13.9342 19.9907 14.9673 20.4514C15.7847 20.8205 16.2675 21.9776 15.9339 22.633L15.9433 22.637Z" fill="white"/>
<path d="M16.6158 17.7415C16.4379 17.7435 16.3432 17.8361 16.412 17.9871C16.4389 18.0539 16.5142 18.1633 16.5543 18.1471C16.6947 18.1292 16.8082 18.0446 16.9165 18.0241C16.8238 17.9294 16.7366 17.8481 16.6252 17.7455L16.6158 17.7415ZM17.1788 16.8845C17.7594 17.2639 18.1959 17.748 17.8424 18.4504C17.5011 19.2022 16.7899 19.3653 16.0609 19.0226C15.3561 18.7012 15.2121 18.0755 15.5472 17.4428C15.8876 16.8235 16.4675 16.6047 17.1695 16.8806L17.1788 16.8845Z" fill="white"/>
<path d="M17.4789 15.0303C17.3296 15.1994 16.7696 15.3713 16.1302 15.0002C15.8099 14.8421 15.6588 14.468 15.8839 14.1982C16.3318 13.6909 16.9861 13.7141 17.5671 13.8057C17.8683 13.8783 17.9927 14.2632 17.4829 15.0209L17.4789 15.0303Z" fill="white"/>
<path d="M9.44814 35.644C9.31176 36.0957 9.15521 36.5167 8.563 36.3983C8.69141 35.9653 8.89374 35.6191 9.44814 35.644Z" fill="white"/>
</svg>
