<svg width="81" height="70" viewBox="0 0 81 70" fill="none" xmlns="http://www.w3.org/2000/svg">
<g clip-path="url(#clip0_15_1326)">
<path d="M51.092 32.4072C50.4407 33.208 50.0057 33.8704 49.4414 34.3879C49.0555 34.7425 48.4622 34.7425 48.112 34.2407C47.7864 33.7745 47.8867 33.2816 48.344 32.9113C48.8235 32.521 49.031 32.0793 48.6719 31.3633C48.4845 31.6756 48.3551 31.8987 48.2168 32.1172C47.5945 33.1031 46.7782 33.7879 45.5692 33.9507C45.3573 33.9797 45.0741 34.2563 45.0071 34.4749C44.3938 36.4846 42.6785 37.6355 40.5617 37.4705C40.3097 37.4504 39.9394 37.6333 39.79 37.8407C38.2599 39.9575 35.5453 40.2028 33.6115 38.4006C33.3929 38.1976 32.9869 38.066 32.6903 38.0995C31.6442 38.2154 30.607 38.4162 29.3534 38.6192C29.6568 40.1894 29.8263 41.7397 30.2657 43.2073C31.0063 45.6787 31.9185 48.1011 32.7572 50.5435C34.2918 55.0134 35.0256 59.6484 35.6234 64.3124C35.8041 65.7198 35.9959 67.1228 36.2123 68.5258C36.3104 69.1704 36.4041 69.8262 35.5699 69.9801C34.7535 70.1318 34.5305 69.5273 34.4412 68.8648C34.0888 66.2485 33.7386 63.6298 33.3862 61.0135C32.7728 56.4454 31.5817 52.0379 29.862 47.7598C28.7311 44.9471 27.9103 42.0341 27.7274 38.8958C26.0099 39.0675 24.3593 39.2326 22.711 39.4021C22.1891 39.4556 22.2225 39.8303 22.2627 40.2095C22.4523 41.9783 22.6708 43.7471 22.8181 45.5204C22.9943 47.6817 23.2129 49.8498 23.2062 52.0156C23.2039 53.1532 22.9006 54.3442 22.4813 55.4104C21.966 56.7264 20.7415 57.3309 19.4032 57.5718C17.9511 57.8328 16.5191 57.6922 15.163 57.0565C13.6373 56.3428 12.8544 55.1182 12.7027 53.4097C10.0306 54.0744 7.8692 53.1264 6.39261 50.9829C5.53609 49.7382 5.07438 48.1903 4.60151 46.7248C4.27363 45.7055 4.22679 44.5947 4.05281 43.5263C1.62155 43.475 0.227487 41.6549 0.035663 39.0787C-0.0312522 38.1753 -0.00671665 37.2273 0.187337 36.3463C0.562063 34.6288 1.81561 33.9306 3.56432 33.9485C3.4751 33.0697 3.34127 32.2756 3.32789 31.4771C3.31005 30.286 3.25651 29.0748 3.43272 27.906C3.83199 25.2584 5.49817 23.5856 8.20824 22.9476C8.20824 22.4658 8.22162 21.9707 8.20824 21.4755C8.13463 19.0286 9.73837 16.894 11.931 16.5238C14.7704 16.0464 17.2016 17.3914 17.9154 19.9387C18.9727 23.7082 19.9563 27.4979 20.9734 31.2763C21.0024 31.3812 21.056 31.4793 21.1385 31.6756C23.4225 31.2696 25.7088 30.8637 27.8702 30.4778C27.8702 29.2332 27.7229 28.0599 27.9014 26.9402C28.2337 24.8458 29.7728 23.7238 31.8873 23.8911C32.4159 23.9335 32.697 23.8465 33.0159 23.3692C34.0955 21.7498 35.6992 21.442 37.4881 21.8234C38.9558 18.9929 41.9603 18.5624 44.2912 20.4985C46.2295 18.5714 48.0406 18.3639 50.2934 19.9855C51.179 20.6234 51.9329 21.48 52.6199 22.3387C52.9567 22.7603 53.1819 23.4227 53.1463 23.9558C53.0927 24.7655 53.4407 25.0309 54.0942 25.3298C55.0467 25.767 55.9455 25.9521 56.9694 25.6064C57.6452 25.3789 58.3723 25.303 59.1374 25.1491C58.9634 23.4272 58.7537 21.7521 58.6333 20.0703C58.4638 17.7126 58.3032 15.3527 58.2474 12.9906C58.1917 10.6575 60.2549 8.29319 62.4274 8.04338C65.2646 7.71772 67.5687 9.22778 68.191 11.8241C68.2423 12.0382 68.2981 12.2501 68.3672 12.52C70.8877 12.2657 72.8439 13.323 74.0528 15.4063C74.8446 16.7669 75.1948 18.3907 75.7078 19.9074C75.8729 20.3959 75.9287 20.9223 76.0379 21.4576C76.4662 21.4242 76.8231 21.3885 77.18 21.3707C78.6053 21.3015 79.8566 22.0933 80.0529 23.4896C80.2558 24.935 80.2313 26.425 80.1689 27.8904C80.1064 29.3224 79.2744 30.2392 77.8469 30.5626C77.9941 31.9388 78.2439 33.2615 78.2484 34.5842C78.2528 35.8756 78.1592 37.2073 77.8424 38.4541C77.3562 40.3634 76.1785 41.8266 74.2959 42.6408C74.5212 44.4564 74.0015 46.0245 72.8327 47.3717C71.3048 49.1315 69.362 49.5509 67.1538 49.0646C64.8876 48.565 63.8861 46.9122 63.3642 44.8579C62.5523 41.6527 61.7783 38.4385 60.9865 35.231C60.9352 35.0214 60.8504 34.8184 60.7835 34.6221C60.0251 34.7292 59.3136 34.8987 58.5998 34.9143C57.663 34.9344 57.266 35.3069 57.1612 36.2638C56.8623 39.0117 55.4192 41.0816 53.1329 42.585C52.4838 43.0133 51.8057 43.3991 51.1388 43.8006C50.5678 44.1464 49.9812 44.4653 49.4258 44.8356C47.6347 46.0267 47.1172 47.1085 47.7841 49.1762C48.5916 51.6833 49.6176 54.1212 50.5923 56.5703C51.2392 58.1963 51.9708 59.7867 52.6533 61.3993C52.9634 62.1332 52.7871 62.6997 52.1581 62.9161C51.4511 63.1592 51.0853 62.7778 50.831 62.151C49.3633 58.5198 47.8354 54.9108 46.4124 51.2639C44.7863 47.0996 45.6629 44.8088 49.5797 42.6274C49.9678 42.411 50.3514 42.1835 50.7529 41.9917C53.7039 40.5686 55.1983 38.1798 55.5039 34.9567C55.6511 33.4087 55.9032 31.8697 56.1128 30.3261C56.3292 28.7291 56.0459 28.1492 54.5225 27.5514C52.921 26.9246 51.2949 26.3514 49.6511 25.8473C48.5693 25.5149 47.9046 26.1417 48.0228 27.2436C48.2235 29.1351 50.3113 30.7321 52.1604 30.373C52.7269 30.2637 53.1106 30.4287 53.289 30.944C53.4831 31.5039 53.2823 31.9633 52.6957 32.1195C52.0868 32.2801 51.4511 32.3514 51.0897 32.4139L51.092 32.4072ZM9.87666 24.7744C10.1622 31.3812 11.0744 37.8965 12.6648 44.3092C13.3942 47.2468 14.2551 50.1509 15.1027 53.055C15.6113 54.7948 17.0611 55.5041 19.1779 55.1539C20.5987 54.9175 21.5601 53.6729 21.4351 52.0267C21.1117 47.7576 20.8552 43.4794 20.34 39.2326C19.5771 32.9291 18.0515 26.7796 16.1176 20.7327C15.5778 19.0465 14.2908 18.2613 12.3503 18.5089C10.9183 18.6918 9.8945 19.9654 9.87889 21.6026C9.86997 22.6599 9.87889 23.7172 9.87889 24.7744H9.87666ZM63.2014 10.1735C61.3188 10.2204 60.1054 11.3267 60.1634 13.0754C60.246 15.549 60.3486 18.0271 60.5672 20.4918C61.127 26.7908 62.327 32.9827 63.8795 39.1076C64.3836 41.0995 64.8921 43.0958 65.5434 45.043C66.1122 46.7471 67.5196 47.3382 69.3866 46.8676C70.9368 46.4772 71.8044 45.1835 71.6171 43.5352C71.0327 38.3983 70.5264 33.2503 69.8394 28.1246C69.1234 22.7736 67.881 17.5253 66.2706 12.3706C65.8155 10.9163 64.6936 10.1356 63.2014 10.1713V10.1735ZM8.09895 25.0131C6.52198 25.4859 5.59632 26.4607 5.2662 27.8592C5.00969 28.9522 4.85579 30.1276 4.96508 31.2362C5.37327 35.3247 5.79706 39.4199 6.45283 43.475C6.76733 45.42 7.50117 47.3248 8.25285 49.165C8.8707 50.6773 11.1793 51.3197 12.4529 50.4922C9.96142 42.2326 8.40676 33.7901 8.09895 25.0131ZM73.1227 40.2296C74.6885 39.6898 75.7413 38.8422 75.8417 37.2519C75.9487 35.5656 76.1651 33.8347 75.9086 32.1886C75.226 27.8034 74.3651 23.4428 73.455 19.0955C73.2231 17.9892 72.6543 16.9007 72.0275 15.9438C71.316 14.8553 70.1873 14.3446 68.7152 14.4539C71.1509 22.9164 72.3242 31.4815 73.1204 40.2318L73.1227 40.2296ZM43.4123 22.2852C43.2406 22.138 43.1045 22.0398 42.9885 21.9216C42.2725 21.1944 41.4026 20.987 40.4614 21.2993C39.5112 21.616 39.0785 22.3744 39.0405 23.3513C39.0004 24.4041 38.8398 25.4793 38.9825 26.5097C39.3394 29.0927 39.8279 31.66 40.3008 34.2251C40.3476 34.4749 40.6197 34.7537 40.8584 34.8875C41.8532 35.4407 42.7722 34.8875 42.8012 33.5961C42.8302 32.2979 42.6896 30.9908 42.5424 29.6971C42.2569 27.1856 42.1142 24.703 43.4101 22.2852H43.4123ZM36.7275 25.6778C36.8078 25.6666 36.8881 25.6555 36.9684 25.6443C36.9684 25.1714 36.9974 24.6963 36.955 24.2279C36.9372 24.0272 36.8123 23.735 36.6561 23.6658C35.5855 23.1997 34.1624 24.045 34.1423 25.2227C34.1133 26.88 34.149 28.544 34.265 30.199C34.3587 31.5485 34.5148 32.9091 34.8226 34.2251C35.0234 35.0838 35.4561 35.9247 35.9446 36.6675C36.3126 37.2273 37.0041 37.1783 37.6264 36.9597C38.2398 36.7433 38.3848 36.2348 38.3424 35.6861C38.2777 34.8028 38.1773 33.9173 38.0301 33.0451C37.613 30.5871 37.1647 28.1336 36.7275 25.6778ZM30.3326 36.2638C29.659 34.9277 29.0055 33.634 28.323 32.2801C26.0523 32.7039 23.6634 33.1477 21.2456 33.5983C21.4931 34.9656 21.7296 36.2638 21.9638 37.5619C24.8634 37.1113 27.6873 36.6742 30.3326 36.2638ZM51.2637 24.2146C51.2949 24.0896 51.3262 24.0361 51.3195 23.9893C51.3016 23.88 51.2905 23.7618 51.2347 23.6703C50.4964 22.4502 49.5217 21.4733 48.1789 20.9647C47.2109 20.5989 46.2473 20.8443 45.8124 21.6472C45.2235 22.7335 44.4919 23.8755 44.3692 25.0532C44.1707 26.9335 44.4094 28.8607 44.4986 30.7656C44.512 31.0511 44.6926 31.5373 44.8555 31.5641C45.219 31.6221 45.7254 31.5685 45.9819 31.3433C46.3075 31.0578 46.5863 30.5715 46.6265 30.1455C46.6845 29.5343 46.5886 28.8808 46.4235 28.2808C45.625 25.3633 47.4674 23.3781 50.4027 24.0294C50.6726 24.0896 50.9403 24.1476 51.2615 24.2168L51.2637 24.2146ZM31.8806 25.7514C30.2702 25.4659 29.4248 26.1283 29.465 27.8637C29.5163 30.0362 30.2791 32.0392 31.1646 33.9819C31.323 34.3277 31.9274 34.4682 32.3267 34.7046C32.5096 34.2741 32.8866 33.8236 32.8442 33.4154C32.5788 30.8905 32.2196 28.3767 31.8784 25.7514H31.8806ZM57.9686 32.289C58.7761 32.1195 59.4898 31.9723 60.2705 31.8094C60.0095 30.1945 59.7597 28.6488 59.4987 27.0428C58.863 27.1767 58.301 27.2949 57.6786 27.4243C58.6467 28.9878 58.0712 30.6005 57.9686 32.289ZM4.06396 40.7025C3.8989 39.0965 3.74053 37.5441 3.57994 35.9961C1.91821 36.15 1.68178 36.46 1.95836 37.9567C2.05427 38.4742 2.14126 38.9917 2.21933 39.5114C2.42007 40.8296 2.68327 41.0125 4.06396 40.7025ZM76.3123 23.6257C76.6357 25.1402 76.9614 26.6703 77.2848 28.1938C78.4603 28.2072 78.7458 27.877 78.5807 26.7663C78.4714 26.0257 78.4001 25.283 78.2863 24.5424C78.0967 23.3023 77.6216 23.0703 76.3101 23.6257H76.3123Z" fill="#11114C"/>
<path d="M62.5545 5.13709C62.6192 5.77279 62.3203 6.19212 61.7203 6.27911C61.1449 6.36387 60.7746 6.00476 60.672 5.44267C60.4066 3.99953 60.1478 2.55417 59.9225 1.10434C59.8333 0.528866 60.1389 0.127375 60.7099 0.0203105C61.3077 -0.0912149 61.6936 0.256744 61.8006 0.800988C62.0817 2.23966 62.307 3.69173 62.5545 5.13709Z" fill="#11114C"/>
<path d="M66.7591 1.1086C66.5026 2.62534 66.2907 3.85435 66.0877 5.08559C65.9962 5.64545 65.6728 5.9198 65.1107 5.87742C64.4996 5.83281 64.1583 5.40009 64.2207 4.87146C64.3791 3.52647 64.6022 2.18147 64.9211 0.865473C64.9858 0.597812 65.6505 0.243162 65.936 0.318999C66.3018 0.414911 66.565 0.905622 66.7591 1.10637V1.1086Z" fill="#11114C"/>
<path d="M70.8811 5.52511C70.629 5.853 70.4439 6.35486 70.1138 6.47754C69.3286 6.76974 68.606 7.61064 67.6535 7.0307C67.1182 6.70505 67.1784 5.80169 67.7628 5.48273C68.3673 5.15039 69.0141 4.87157 69.6744 4.67529C70.3725 4.46785 70.8878 4.87827 70.8811 5.52511Z" fill="#11114C"/>
</g>
<defs>
<clipPath id="clip0_15_1326">
<rect width="80.2113" height="70" fill="white"/>
</clipPath>
</defs>
</svg>
