<svg width="155" height="119" viewBox="0 0 155 119" fill="none" xmlns="http://www.w3.org/2000/svg">
<path d="M38.529 55.8364C38.7012 55.7421 38.8149 55.6334 38.9871 55.5392C38.8258 55.4374 38.6789 55.277 38.4948 55.3187C38.3632 55.3484 38.2088 55.5216 38.1155 55.5981C38.2768 55.6999 38.4059 55.7813 38.5552 55.8305L38.529 55.8364ZM119.549 44.8092C119.073 43.5616 119.638 42.8807 120.247 42.2727C121.107 41.5526 121.748 40.7163 121 39.6131C120.062 38.2765 119.176 39.2513 118.257 39.7083C117.314 40.3088 116.221 40.6113 115.602 39.3409C115.157 38.4736 115.625 37.7316 116.319 37.132C117.299 36.3295 118.568 35.4616 117.369 34.0734C116.317 32.8455 115.149 33.5522 114.062 34.4897C113.487 35.0068 112.702 35.5715 111.799 35.0015C111.663 34.645 111.384 34.2657 111.353 33.8855C111.424 31.878 114.978 30.106 111.652 27.8715C108.719 25.9076 108.21 29.0374 106.667 30.1609C105.949 30.6552 105.04 30.9161 104.268 30.3163C103.497 29.7164 103.423 28.9033 104.023 28.1315C107.125 24.6086 104.359 23.3814 101.669 22.2476C99.7494 21.4648 97.7251 19.24 96.3392 23.2596C95.7229 25.0585 93.887 24.6441 93.4049 22.5129C93.268 21.9078 93.552 21.2074 93.5059 20.637C93.2377 18.5957 92.4243 17.8117 90.8754 19.7662C90.0806 20.7758 89.4709 21.9923 87.9268 21.4013C86.4886 20.1778 88.133 17.1784 85.1802 16.9613C82.8827 16.7067 82.5141 18.2559 81.8215 19.9614C81.1626 21.3274 79.5018 21.5648 79.0241 19.8199C78.2744 17.362 76.8782 17.18 74.6769 17.595C71.6922 18.2149 72.4866 20.1372 72.798 22.0028C73.0236 23.6112 72.2169 24.5681 70.7928 24.752C69.4214 24.9239 69.4336 23.5106 68.9502 22.5967C67.3644 19.4982 65.6183 18.8699 64.2063 21.4296C62.2735 24.7432 55.718 22.6584 56.6592 28.5302C56.6711 28.5828 56.2919 28.8622 56.0839 28.7986C53.0444 28.0757 49.8009 26.8181 52.3469 32.3268C52.7632 33.3113 50.9216 33.7279 49.8903 33.3251C48.1671 32.5533 47.1107 33.2624 46.1446 34.615C44.9343 36.3546 43.106 37.9298 43.0322 40.0485C42.9431 41.9771 45.4129 42.1374 46.6253 43.2184C47.0888 43.556 47.522 44.3707 47.3686 44.7926C47.1788 45.6653 46.3295 46.1893 45.446 46.1956C44.8638 46.189 44.1406 46.0484 43.6101 45.7812C42.1499 44.9499 40.8436 44.554 39.9117 46.4243C39.0696 48.0806 37.5395 50.3628 39.6474 51.4901C43.3885 53.6031 41.3308 56.3642 41.8427 58.6269C40.1941 59.7743 38.619 57.9457 37.5993 59.0614C37.4952 61.6571 40.4569 61.1807 40.7361 63.0259C40.5761 64.0301 39.8107 64.3139 39.0106 64.6885C37.6877 65.3197 37.1009 66.3928 37.6064 67.7719C38.2013 69.5457 39.5971 68.8704 40.7894 68.5177C42.8905 67.9041 44.945 67.3287 46.9936 66.727C47.8354 66.5365 48.7988 66.7611 49.019 67.7346C49.2392 68.7081 48.5334 69.255 47.695 69.583C45.2672 70.4641 42.8216 71.2663 40.4583 72.1881C39.5673 72.528 39.2426 73.2929 39.568 74.2426C39.9188 74.9376 40.5894 75.0901 41.1597 75.0441C43.2796 74.7581 45.3316 74.2939 47.5007 73.8585C50.8687 73.2625 52.3395 71.2888 51.9132 67.9373C51.304 62.4329 50.4342 56.8769 52.0928 51.4957C55.7964 39.2629 64.5427 32.0846 76.6353 28.5745C78.184 28.0859 80.018 28.0029 81.651 28.1313C90.5331 28.8877 98.8039 31.2206 105.499 37.5885C111.113 42.8456 115.758 48.7092 116.974 56.8973C119.605 56.3021 121.908 55.7258 124.126 55.141C124.903 54.9098 125.754 54.6345 126.501 54.2717C127.392 53.9319 127.878 53.2688 127.652 52.269C127.409 51.4389 126.949 50.6302 125.934 50.6662C124.206 50.7254 122.551 50.9891 120.822 51.0484C119.991 51.0427 119.118 50.8529 118.974 49.724C118.938 48.7089 119.673 48.2935 120.473 47.9189C122.059 47.2282 125.317 48.4273 125.003 45.8156C124.454 42.289 121.405 46.0486 119.511 44.7625L119.549 44.8092ZM113.566 57.115C112.538 54.5265 111.736 52.0805 110.516 49.8672C109.15 47.4936 107.266 45.4028 105.728 43.1235C98.4259 32.606 77.2162 27.4751 65.7163 37.5166C58.8027 43.5058 53.7733 49.5114 54.6439 59.1052C54.8774 61.2373 54.6458 63.3917 54.7358 65.501C54.9767 71.0886 55.9861 71.8836 61.3002 70.6814C77.1144 67.2421 92.6072 62.382 108.478 59.317C110.148 58.9947 111.861 58.7453 113.546 57.1472L113.566 57.115ZM29.423 95.0405C30.7858 92.6303 29.4375 91.1929 29.0277 89.6261C28.7965 88.8487 28.5882 87.9278 29.4782 87.3392C30.7247 86.6147 31.6026 87.4395 32.1266 88.2889C33.0362 89.7426 33.4757 91.4409 34.3327 92.9065C36.0203 95.8436 37.6295 95.8668 39.5394 92.6966C40.8506 90.5469 41.9675 90.3496 43.2567 92.3812C44.8907 95.0815 46.8484 94.445 48.3219 92.6458C49.5451 91.2075 50.4877 90.607 51.9786 91.8186C53.8923 93.4323 55.8262 92.6906 57.3407 91.6842C59.1615 90.4426 60.8298 89.8715 63.0857 89.942C65.5495 90.076 66.4094 88.4986 65.6191 86.1053C65.376 85.2752 65.1915 84.4596 65.0011 83.6176C64.6568 82.3403 64.4346 80.8694 65.9188 80.34C67.61 79.6255 68.0257 81.2186 68.431 82.3992C68.9485 83.8309 69.2233 85.2899 69.7933 86.7098C70.7678 89.0615 73.5527 89.759 74.5066 87.4966C75.9768 84.094 77.1516 84.5197 79.4643 86.4303C80.2479 87.0828 81.5767 86.4779 81.6534 85.1054C81.842 81.6608 82.867 81.18 85.0952 83.9395C87.0559 86.3724 89.9159 86.0572 90.9377 83.973C92.1646 81.2063 92.6403 80.1307 94.8804 82.9428C95.6302 83.9348 97.0527 84.1108 97.7611 83.4527C100.816 80.5767 104.796 81.6676 108.239 80.7505C110.91 80.0908 111.818 78.7239 110.895 76.1116C110.336 74.4956 109.914 72.8762 109.408 71.2484C109.123 70.2342 109.769 69.4242 110.559 69.2456C111.336 69.0145 112.299 69.239 112.625 70.1887C113.411 72.1959 114.059 74.2065 114.635 76.2613C115.289 78.2982 116.583 78.6415 118.561 78.5813C122.817 78.4482 123.22 75.0935 123.771 72.3966C125.428 72.0217 125.742 72.9188 126.277 73.5721C128.12 75.7275 129.497 76.4391 130.249 72.6735C130.64 70.7321 132.362 70.3979 133.538 71.9296C135.605 74.5873 138.622 73.9877 139.392 72.0157C140.738 68.3092 142.793 69.1997 145.137 70.2735C145.876 63.8833 145.745 62.4472 144.197 57.9295C143.229 55.1984 141.249 54.1067 138.258 54.6545C131.759 55.8758 125.602 58.4856 119.221 59.9844C108.003 62.7158 96.7161 65.0203 85.5211 67.6082C79.4475 69.1205 73.6017 71.2727 67.6001 72.4921C54.2732 75.3134 41.1963 79.2398 27.6908 81.2717C26.4509 81.4139 25.2214 81.9687 24.0529 82.4266C22.8844 82.8846 22.172 84.0137 22.7724 84.9566C24.8591 88.1906 25.1165 92.7512 29.4756 95.0286L29.423 95.0405ZM147.221 55.8904C148.172 59.8515 149.16 64.2191 148.967 68.7433C148.827 73.5044 148.086 74.1421 143.693 75.136C138.931 76.2132 134.171 77.5391 129.465 78.7419C112.78 83.0974 96.0645 87.3214 79.0195 90.2094C74.5199 90.9784 70.3008 92.3754 65.8404 93.4398C62.064 94.3494 58.2485 94.9637 54.551 95.8554C45.3444 98.1872 36.0535 99.9018 26.6817 101.137C26.366 101.208 26.0121 101.233 25.6895 101.029C25.4111 100.899 25.2607 100.601 25.1427 100.323C23.6993 96.9992 22.8347 93.544 21.5635 90.1254C20.9925 88.4569 19.7935 87.0687 19.5788 85.2642C19.1803 82.0354 21.3462 79.9966 24.2356 78.9557C26.6286 78.1655 29.1804 77.5882 31.7034 77.128C34.6354 76.52 35.4139 75.0717 34.8058 72.1393C31.5863 57.2964 34.8429 43.6989 44.312 32.0149C58.2074 14.9596 79.9948 7.48623 102.171 18.2342C115.472 24.7117 124.677 34.7158 130.506 48.1384C132.504 52.6924 133.193 52.9239 137.656 51.1397C137.84 51.0981 138.047 50.913 138.22 50.8187C147.188 47.4345 146.161 48.8838 147.247 55.8844L147.221 55.8904Z" fill="white"/>
<path d="M33.7547 114.555C28.834 116.885 24.227 116.323 19.6718 114.035C18.8892 113.631 18.383 112.86 18.6253 111.976C18.8677 111.091 19.9012 110.526 20.6431 110.994C24.5738 113.7 29.2291 113.864 33.7547 114.555Z" fill="white"/>
<path d="M29.9128 111.386C29.5445 111.469 28.9513 111.659 28.7781 111.504C26.7097 109.207 23.3395 109.222 21.3117 106.86C20.7649 106.154 20.1654 105.46 20.6038 104.586C21.0829 103.648 21.9937 103.885 22.7764 104.288C25.1745 105.599 27.6397 106.839 29.9624 108.305C31.3818 109.201 31.0794 110.431 29.8865 111.392L29.9128 111.386Z" fill="white"/>
<path d="M130.889 14.5032C126.992 12.3147 126.504 8.44264 123.267 7.46007C122.696 7.25741 122.377 6.58272 122.778 5.91116C123.299 5.15722 124.19 4.81737 124.987 5.16254C128.484 6.8054 130.314 9.51667 130.895 14.5296L130.889 14.5032Z" fill="white"/>
<path d="M114.425 11.0368C117.41 8.95101 119.643 10.6308 121.715 12.4576C122.898 13.407 123.861 15.0974 122.746 16.4008C120.895 18.3682 120.312 15.7897 119.527 14.8885C118.178 13.2024 115.411 13.4411 114.425 11.0368Z" fill="white"/>
</svg>
