<svg width="257" height="191" viewBox="0 0 257 191" fill="none" xmlns="http://www.w3.org/2000/svg">
<path d="M126.377 164.981C124.063 167.957 122.221 170.318 120.379 172.727C118.868 174.71 118.632 176.977 120.143 178.961C124.204 184.109 129.871 186.376 136.105 186.707C140.591 186.801 141.913 182.22 143.849 179.056C144.18 178.63 144.085 177.875 144.18 177.072C136.954 175.088 130.532 171.829 126.377 164.934L126.377 164.981ZM242.733 36.4238C242.308 36.0931 241.978 35.857 241.647 35.6681C235.178 41.6662 227.858 46.2947 220.444 50.9704C217.044 53.0485 213.786 55.4571 210.386 57.8658C209.394 58.527 208.072 59.2826 208.544 60.605C209.111 62.1163 210.386 61.5968 211.613 61.03C213.786 60.0382 214.588 61.1246 214.258 63.3444C213.691 66.5087 215.013 67.5005 217.988 66.3198C220.964 65.1391 221.908 65.9892 220.964 68.9646C220.066 71.9401 221.861 72.6957 224.127 72.7902C226.205 72.8846 227.102 71.3732 228.047 69.6258C231.872 62.7303 234.044 55.0792 237.68 47.9477C239.664 44.2166 241.08 40.2966 242.828 36.471L242.733 36.4238ZM206.419 64.6668C206.183 64.3362 205.994 64.0056 205.663 63.7694C205.097 63.3443 204.483 63.3443 204.011 63.8638C203.019 64.8556 202.169 65.942 201.272 67.0282C182.902 89.9815 165.194 113.407 147.485 136.927C143.566 142.075 139.835 147.412 135.443 152.371C134.263 153.788 133.129 155.205 132.043 156.763C130.721 158.605 131.618 160.495 132.941 161.675C134.593 163.092 135.443 161.108 136.199 160.164C139.93 155.772 143.093 151.096 146.257 146.279C153.246 135.558 161.557 125.734 169.444 115.532C181.91 99.3328 192.724 82.047 205.758 66.2253C206.088 65.8002 206.749 65.4697 206.419 64.714L206.419 64.6668ZM221.719 77.1352C216.808 72.6484 216.572 72.554 214.069 75.7184C205.002 87.0061 195.369 97.8215 187.294 109.959C179.549 121.672 171.238 133.054 163.258 144.626C157.78 152.513 152.538 160.494 147.202 168.476C146.777 169.137 146.305 169.893 147.202 170.649C147.863 171.074 148.713 171.404 149.516 170.979C150.271 170.413 150.932 169.657 151.594 168.807C155.985 162.998 160.471 157.094 164.957 151.285C179.077 132.818 193.291 114.446 207.411 95.9324C212.227 89.6037 218.13 84.1251 221.861 77.1352L221.719 77.1352ZM209.394 66.8393C206.986 68.6812 205.333 70.9954 203.727 73.3096C194.236 86.3448 185.122 99.7579 175.205 112.463C162.502 128.426 150.696 145.051 138.796 161.581C137.805 162.903 136.293 164.32 137.616 165.973C138.702 167.39 140.449 168.382 142.432 168.287C144.274 168.051 145.077 166.54 146.021 165.217C152.16 156.244 158.394 147.412 164.391 138.533C177.283 119.594 189.655 100.372 204.625 83.0861C208.025 79.0244 211.188 75.0099 214.447 70.8538C212.605 69.3424 211.047 68.1144 209.394 66.9337L209.394 66.8393ZM133.791 168.996L134.027 168.901L133.696 168.901L133.791 168.996ZM252.461 24.1914C251.705 24.2859 251.375 24.8526 251.375 25.5139C249.864 25.9389 248.967 27.1668 248.305 28.5837C247.975 29.1505 247.644 29.67 247.314 30.3312L246.983 30.5674L247.219 30.2368C247.55 29.5756 247.88 29.0561 248.211 28.4893C249.722 27.9226 250.855 27.0724 251.28 25.5139C251.611 24.9471 251.942 24.5221 252.272 24.097L252.367 23.8608L252.461 24.1914ZM139.505 171.074C139.284 171.231 139.205 171.152 139.268 170.838L139.505 171.168C140.071 171.499 140.591 171.83 141.016 172.16L141.346 172.396L141.016 172.302C140.449 171.877 139.93 171.546 139.505 171.121L139.505 171.074ZM115.893 178.205C115.138 175.561 115.232 173.719 116.554 172.302C122.457 165.737 127.038 158.322 132.516 151.427C143.235 137.872 153.624 123.986 164.249 110.196C176.952 93.807 189.749 77.3713 202.547 60.8884C204.53 58.4797 206.797 56.6378 209.441 54.8903C218.933 48.6561 228.802 42.8469 237.633 35.5264C240.891 32.7871 243.961 29.8589 246.275 26.2223C247.928 23.5774 250.1 21.405 252.083 19.0908C252.839 18.1934 253.831 17.1072 255.247 17.7684C256.758 18.524 257.23 19.8463 256.9 21.3577C256.569 23.5302 255.908 25.7501 254.255 27.3559C244.953 37.3212 240.703 49.8841 234.989 61.833C231.825 68.634 228.661 75.1988 223.419 80.9607C214.352 91.115 205.711 101.836 197.824 113.029C191.261 122.428 183.516 130.835 176.81 140.139C168.594 151.285 159.527 161.911 152.113 173.624C149.043 178.347 145.549 182.928 142.055 187.415C140.213 189.824 137.899 190.91 134.641 190.39C129.163 189.399 124.582 186.896 120.191 183.92C117.877 182.409 116.696 180 115.941 178.253L115.893 178.205Z" fill="white"/>
<path d="M44.1151 117.941C46.9485 115.957 49.6874 113.879 52.6624 111.943C54.7402 110.432 56.7236 108.779 58.5652 106.889C58.9902 106.323 59.8875 105.898 59.3208 105.142C58.8958 104.386 57.9987 104.481 57.3376 104.811C54.0792 106.464 50.5374 107.315 47.1846 108.543C43.7846 109.723 41.8485 112.274 41.3763 115.957C41.3763 116.855 40.8097 117.705 41.7069 118.366C42.6041 118.933 43.3596 118.272 44.1151 117.941ZM13.1844 151.049C10.0205 152.229 7.84822 155.63 4.44819 157.708C3.12596 158.7 3.03154 160.117 3.88154 161.534C5.29822 163.706 7.28157 164.273 9.78437 162.289C12.9483 159.975 15.9232 157.377 18.851 154.874C20.0316 153.977 19.7483 153.127 18.9456 151.899C17.1039 149.254 16.5372 149.065 13.1371 151.001L13.1844 151.049ZM177.755 15.6429C175.677 16.6347 175.252 17.3903 176.338 19.7045C177.236 21.452 177.85 23.1051 176.669 24.947C175.772 26.1278 176.433 27.1196 177.33 28.0169C178.227 29.0087 178.983 30.0005 179.833 30.9924C182.147 33.6372 183.091 33.7317 185.169 30.8979C187.672 27.6391 190.647 24.5692 193.716 21.6882C195.464 20.1769 196.691 18.1933 198.108 16.3513C198.675 15.6901 199.1 14.8401 198.533 13.9427C198.108 13.376 197.211 13.5176 196.55 13.5176C193.48 13.7537 190.411 13.9426 187.483 13.8482C184.083 13.7537 180.919 14.8401 177.755 15.6902L177.755 15.6429ZM72.2599 95.271C76.0849 93.1929 79.2489 89.9342 82.885 87.5255C83.6406 86.9588 84.3016 86.1087 83.6404 85.2114C83.0738 84.314 82.1294 84.6446 81.2322 84.8807C80.4766 84.9752 79.721 85.4474 78.9182 85.8725C76.6043 87.0532 74.3377 88.2812 71.9293 89.4619C63.0515 93.8542 53.5597 96.1213 44.1624 98.955C40.7624 100.041 37.8346 101.93 34.4346 102.686C33.3484 102.922 32.2623 104.197 31.6012 105.331C30.0901 108.165 28.4373 111.329 28.5317 114.73C28.6262 118.319 28.9567 121.861 27.6345 125.356C27.2095 126.537 27.9651 127.34 29.2873 127.009C30.0429 126.914 30.7985 126.678 31.3651 126.253C34.6235 122.995 38.0235 119.594 37.8346 114.541C37.7402 111.471 38.9207 109.723 40.904 107.74C44.6346 104.15 49.5457 103.253 54.1263 101.742C60.1236 99.7579 65.9321 97.1602 72.2599 95.271ZM30.3733 152.182C31.4595 151.521 32.3567 151.285 33.0178 150.765C40.6679 145.192 48.2235 139.714 56.2041 134.707C60.3597 132.062 64.1847 129.134 68.0098 125.97C76.3209 119.074 85.3878 112.935 93.9351 106.37C99.5073 102.119 104.985 97.8215 110.557 93.5708C115.799 89.6508 120.616 85.0224 125.763 80.7718C133.319 74.632 140.544 68.2089 148.052 62.1636C154.38 57.0156 160.424 51.1119 167.933 47.3808C170.908 45.8695 173.6 43.4608 176.15 41.1466C179.644 38.0767 179.644 36.896 177.141 33.0704C175.63 30.7562 173.222 29.2449 171.994 26.6001C171.002 24.4276 169.349 24.522 167.744 25.7027C165.43 27.2141 163.163 28.7726 160.944 30.52C156.694 34.1094 152.397 37.9351 147.58 40.9105C141.771 44.311 136.766 48.656 131.949 53.2845C124.299 60.5105 116.082 66.9337 107.771 72.979C101.632 77.4658 95.7294 82.047 89.8266 86.7699C85.246 90.5009 81.0905 94.8461 76.0377 97.916C66.5459 104.056 58.2348 111.801 48.9319 118.13C42.4624 122.522 36.2289 127.34 29.3344 130.929C25.84 132.771 22.865 135.321 19.5122 137.258C16.6789 139.005 16.3482 140.847 17.6705 144.059C18.7566 146.798 20.7401 148.97 22.8178 150.954C25.2262 153.032 27.7289 154.024 30.3733 152.135L30.3733 152.182ZM33.9623 98.9078C38.6846 97.1603 43.7846 95.0821 49.168 93.2402C57.9042 90.4065 66.4514 87.4311 74.6682 83.4166C78.9182 81.3386 83.3099 79.591 86.8988 76.285C88.8822 74.632 89.9684 75.1043 91.2906 77.4657C92.6128 79.8744 92.4712 79.78 95.1156 78.552C98.5157 76.8046 101.018 73.8291 104.088 71.751C112.635 65.6113 120.946 59.377 128.691 52.3871C136.435 45.2555 144.888 38.9268 153.388 32.6925C157.874 29.4337 161.794 25.561 166.422 22.5383C168.074 21.452 169.161 20.0352 168.83 17.8154C168.405 15.6429 169.727 14.84 171.474 13.9899C178.7 10.7311 186.019 9.50312 193.905 10.1643C198.061 10.4949 201.555 7.85014 205.05 5.77206C208.308 3.93013 211.614 2.04094 215.014 0.435157C216.194 -0.131591 217.516 -0.462143 218.083 1.52148C218.744 3.59956 218.083 5.34696 216.336 5.58311C211.755 6.00817 208.922 8.55858 207.364 12.7147C207.033 13.801 206.278 14.6984 205.191 15.2179C202.453 16.7292 200.375 18.9489 198.722 21.5465C196.88 24.522 194.236 26.789 191.733 29.1032C188.758 31.6064 187.341 34.9124 186.491 38.4073C186.161 39.9187 185.594 41.3828 183.988 41.4772C181.25 41.4772 179.502 42.9885 177.519 44.5471C172.702 48.1365 168.027 52.1037 162.738 55.1736C157.402 58.2435 152.916 62.7303 147.958 66.4614C142.055 70.712 137.238 76.0962 131.241 80.3468C125.669 84.1723 120.946 89.084 115.516 93.3819C111.03 96.8768 106.874 100.939 102.057 104.103C95.1629 108.59 88.835 113.502 82.3655 118.413C77.1238 122.239 72.071 126.395 66.9237 130.457C61.0209 135.038 54.882 139.336 48.4597 143.256C43.9735 146.089 39.7235 149.396 35.6624 152.749C33.8207 154.26 31.8373 155.488 29.9956 156.811C29.3345 157.236 28.6734 157.472 27.9178 157.377C22.015 156.386 18.5206 160.778 14.365 163.517C13.1844 164.273 12.2872 165.501 10.8705 166.162C9.21775 166.918 7.61214 168.996 5.81769 167.909C3.50378 166.398 1.00092 164.651 0.150917 161.581C0.0564716 160.825 -0.179549 159.928 0.245454 159.503C3.07881 156.527 3.6454 151.757 8.13155 150.104C9.45378 149.679 10.5399 148.593 11.7205 147.79C13.3733 146.609 14.1288 144.956 13.7038 142.878C12.8065 139.289 14.6011 136.549 17.1983 134.566C19.2761 133.054 20.6928 131.307 21.4484 128.898C21.7789 127.906 22.3455 127.056 22.865 126.159C24.6122 123.325 24.9428 120.35 24.7067 116.949C24.2817 110.715 26.0289 104.906 31.2706 100.75C31.6011 100.419 31.9318 100.088 32.2624 99.8522C32.5929 99.6161 33.0179 99.4273 34.0096 98.955L33.9623 98.9078Z" fill="white"/>
</svg>
