<svg width="181" height="143" viewBox="0 0 181 143" fill="none" xmlns="http://www.w3.org/2000/svg">
<path d="M85.7987 106.966C86.6618 106.156 87.417 105.536 88.0373 104.835C89.0353 103.783 89.0353 102.973 87.6058 102.326C85.7447 101.463 85.0434 101.759 84.9895 103.836C84.9355 104.7 84.7468 105.779 85.7987 106.966ZM127.902 96.607C129.143 96.1754 129.655 95.0963 130.141 94.1791C130.653 93.3159 131.894 92.3718 131.085 91.2927C130.276 90.2407 128.846 90.6722 127.66 90.7262C126.796 90.7262 126.419 91.4006 126.473 92.102C126.662 93.6666 126.527 95.3391 127.902 96.607ZM44.6391 87.6779C44.8818 86.3021 44.1266 86.0594 43.2635 85.8705C42.0767 85.6817 41.1327 86.437 40.0808 86.6798C39.2176 86.8686 37.896 86.545 37.8421 87.9207C37.7882 89.3505 37.5993 90.9689 38.8401 92.1559C39.0289 92.3987 39.6492 92.5335 39.8919 92.3987C41.9418 91.2117 43.3174 89.3504 44.6391 87.651L44.6391 87.6779ZM148.077 41.3873C142.953 39.4451 133.081 39.6878 127.39 41.711C126.715 41.9538 125.879 42.0347 125.825 42.844C125.691 43.9769 126.689 44.1658 127.444 44.2737C131.678 44.9481 135.886 45.3257 140.175 44.7862C141.685 44.5974 145.542 43.1677 146.675 42.2236C146.918 41.9808 147.295 41.8459 148.05 41.4142L148.077 41.3873ZM59.8244 42.4933C49.575 41.7379 40.0269 39.5529 30.3438 42.2505C38.6513 44.5704 47.1475 44.9481 55.6438 44.8132C57.0194 44.8132 58.4488 44.6244 59.8244 42.4933ZM79.4332 43.7611C80.0536 45.1909 81.1325 45.5146 82.1844 45.6225C89.3051 46.4857 96.4797 45.8113 103.6 46.135C105.65 46.2699 106.217 44.3817 105.03 42.5743C103.789 40.632 101.847 40.0655 99.6623 40.2543C96.6684 40.4971 93.6746 40.7669 90.6806 40.632C86.7427 40.4432 82.8856 41.5761 79.4332 43.7611ZM88.6038 122.585C90.9234 121.829 92.218 119.833 93.8633 118.215C95.2389 116.839 96.4797 115.328 97.8553 114.033C98.7184 113.17 99.9051 112.091 101.038 113.278C102.414 114.708 100.849 115.409 99.986 116.218C99.4735 116.65 98.8532 117.028 98.2868 117.459C95.8593 119.321 93.7285 121.452 92.1641 124.068C91.1122 125.822 91.3549 126.388 93.216 127.117C94.9153 127.791 96.2639 127.548 97.7743 126.361C100.822 123.853 101.955 120.481 102.198 116.812C102.387 114.303 102.71 111.875 103.439 109.501C104.248 106.696 103.573 104.133 103.304 100.869C101.55 102.245 100.175 101.624 98.8802 101.732C96.8303 101.975 94.133 101.355 93.0002 103.243C91.0582 106.426 88.1182 108.854 86.2572 112.064C85.6368 113.116 85.6368 114.114 86.446 115.004C88.0643 114.573 88.8195 113.386 89.8175 112.442C91.7595 110.634 93.6206 108.827 95.5626 107.02C96.3718 106.21 97.1809 105.266 98.2598 106.588C99.2038 107.775 98.3947 108.773 97.4507 109.394C94.8344 110.904 93.1351 113.386 91.3819 115.571C90.1412 117.136 89.0623 118.565 86.7696 118.889C87.5249 120.319 87.444 121.587 88.5768 122.585L88.6038 122.585ZM49.1974 69.4152C45.3134 69.3613 41.5103 69.2264 37.6533 69.1725C36.4126 69.1185 35.3337 69.2264 35.4685 70.872C35.7922 74.4328 36.0349 77.9936 36.7901 81.5544C37.1678 83.1729 38.3006 83.4967 39.5953 83.2539C43.5332 82.4986 47.5251 82.8762 51.517 82.8762C56.5878 82.9301 56.7766 82.6334 56.399 77.4541C56.399 77.2113 56.345 76.8875 56.345 76.6447C56.5877 69.3882 56.345 69.7659 49.2244 69.4692L49.1974 69.4152ZM125.394 54.6864C125.34 57.4919 125.34 60.4322 125.205 63.3187C125.151 64.9372 125.96 65.6926 127.39 65.7465C132.946 65.8005 138.502 65.8004 144.005 65.18C145.003 65.0451 145.623 64.5057 145.38 63.5615C144.328 59.3263 144.571 55.0102 144.005 50.748C143.681 48.6169 142.683 47.8075 140.822 47.8075C138.125 47.8075 135.508 47.7536 132.892 47.8615C130.761 47.9964 128.28 46.4857 126.527 48.1852C124.962 49.8038 126.014 52.4204 125.394 54.6864ZM81.6719 52.3125C81.8607 55.8194 82.0495 59.2453 82.2383 62.6713C82.4271 65.5577 82.4811 65.8005 85.3671 65.6656C90.6267 65.4768 95.8593 65.0991 101.119 65.5307C103.358 65.6656 104.005 64.6675 104.059 62.5903C104.194 59.0835 102.818 55.7924 102.872 52.2855C102.872 50.1544 101.82 49.3452 99.8242 49.2912C94.8883 49.1564 89.9524 48.2931 84.9625 49.1024C82.7239 49.4801 81.6449 50.0465 81.7258 52.2855L81.6719 52.3125ZM130.599 87.3003C135.913 88.1095 140.66 86.1673 145.596 85.5468C147.214 85.358 147.349 83.9283 147.295 82.6065C147.053 79.1805 146.864 75.7276 146.675 72.3017C146.432 68.7409 146.109 68.3632 142.359 68.2283C137.801 68.0395 133.243 68.2823 128.684 68.606C125.556 68.7948 124.881 69.1724 125.178 72.1667C125.556 75.4848 125.502 78.7759 125.691 82.0939C126.014 86.6529 126.311 86.8416 130.626 87.2733L130.599 87.3003ZM44.0187 48.1313C41.78 47.5648 38.894 47.6997 36.0349 47.376C34.2817 47.1871 33.6614 47.9424 33.4186 49.6959C32.6634 54.6325 34.2278 59.2453 34.7403 64.074C34.9291 65.5846 35.927 66.394 37.5454 66.5019C42.8049 66.8795 48.0375 66.6367 53.2971 66.6367C54.6727 66.6367 55.4279 65.9623 55.4279 64.6405C55.374 60.0816 55.374 55.5227 55.2391 50.9637C55.2391 49.2642 54.2411 48.5359 52.5419 48.5359C49.9256 48.482 47.2823 48.2931 44.0457 48.1582L44.0187 48.1313ZM56.372 86.2212C54.376 87.5431 52.8116 86.5989 51.1933 86.464C50.0605 86.4101 49.1434 86.41 48.2533 87.516C45.7449 90.5643 43.0747 93.5856 40.5123 96.6339C39.892 97.3892 39.1367 98.0636 39.0019 99.0617C38.867 99.817 39.1368 100.491 39.6223 101.004C40.2966 101.678 40.863 101.004 41.4294 100.68C42.3734 100.249 42.805 99.3585 43.3714 98.5492C44.3154 97.2274 45.1786 95.7977 46.3653 94.6647C47.4172 93.6126 48.604 91.2927 50.3572 93.0461C51.8676 94.5568 49.7368 95.6628 48.7928 96.6609C47.0396 98.4683 45.2325 100.087 43.9108 102.272C43.3444 103.216 42.5892 104.133 41.4834 104.511C39.4874 105.131 39.6762 106.642 40.6202 107.694C41.6721 108.881 42.5622 107.316 43.2365 106.696C45.5562 104.7 47.7409 102.623 49.9796 100.572C50.6539 99.898 51.3012 99.4394 52.1103 100.195C52.9195 100.95 52.488 101.759 51.9216 102.38C50.1145 104.241 48.3073 106.183 46.2304 107.802C42.1037 111.12 40.1617 114.924 41.6721 120.346C42.8049 124.473 44.72 127.71 48.4152 129.841C50.2762 130.974 51.544 130.704 52.4071 128.708C53.2162 126.955 54.349 125.336 54.7266 123.394C56.1022 116.596 57.7745 109.825 57.4239 102.838C57.1811 97.4702 57.7476 92.1019 56.372 86.0863L56.372 86.2212ZM133.405 111.093C136.21 110.284 138.664 108.665 141.334 107.91C142.198 107.586 143.088 107.343 143.465 108.341C143.789 109.286 143.034 109.771 142.224 110.149C139.338 111.525 136.345 112.577 133.863 114.654C132.73 115.517 131.867 116.461 131.058 117.648C130.114 119.078 130.734 120.265 131.813 121.263C133.054 122.504 133.809 121.263 134.564 120.642C135.994 119.321 137.262 117.837 138.637 116.461C139.312 115.706 140.148 114.33 141.254 115.517C142.251 116.515 141.119 117.513 140.444 118.323C138.826 120.076 137.208 121.748 135.643 123.448C133.27 126.011 133.27 127.575 135.401 130.192C136.533 131.622 137.828 131.999 139.339 130.947C142.09 129.005 144.14 126.577 145.326 123.259C148.941 113.143 147.889 102.757 147.754 92.3987C147.7 91.4545 147.565 90.4565 146.513 90.0249C143.627 88.6491 140.202 88.5951 138.206 90.3485C135.158 93.0461 131.948 95.7168 129.575 99.2236C127.255 102.731 127.875 105.779 129.575 109.528C133.459 106.156 136.938 103.081 140.444 100.033C141.2 99.3585 141.82 98.6571 142.575 98.0367C143.007 97.659 143.573 97.5241 144.086 97.9827C144.706 98.4952 144.841 99.1157 144.409 99.7901C143.6 101.166 142.359 101.975 141.173 102.973C138.287 105.293 135.428 107.586 133.486 111.093L133.405 111.093ZM104.787 88.4333C105.03 83.3079 104.922 78.1824 104.787 73.057C104.733 68.4981 104.598 68.3092 99.986 67.7967C95.5626 67.365 91.1662 68.4171 86.7427 68.3092C82.9396 68.1743 82.508 68.8218 82.3192 72.6254C82.1304 78.9917 82.9936 85.304 83.3712 91.6703C83.8027 98.738 85.3131 99.7901 92.4338 99.5473C95.8593 99.4125 99.2308 97.605 102.872 98.9269C103.627 99.2506 103.87 98.1715 103.924 97.4971C104.248 94.5028 104.49 91.5085 104.787 88.4333ZM11.4093 135.965C14.7269 136.396 17.5859 136.585 20.3371 137.287C28.213 139.094 36.2777 139.148 44.2615 139.526C55.6168 140.092 66.9451 138.15 78.2464 138.204C92.1101 138.258 105.92 137.772 119.784 138.204C130.653 138.581 141.577 139.768 152.528 139.526C159.271 139.391 166.095 139.148 172.838 138.959C173.836 138.905 174.888 138.716 175.077 137.529C175.265 136.396 174.402 135.776 173.566 135.209C172.757 134.643 171.759 134.4 170.815 134.967C169.952 135.533 169.116 135.911 168.118 135.479C165.555 134.292 162.75 134.238 159.999 133.969C154.2 133.402 148.374 133.024 142.575 134.481C139.392 135.29 136.21 135.911 132.838 134.994C128.658 133.807 124.288 135.182 119.972 134.751C113.526 134.13 106.972 133.996 100.472 133.807C92.9193 133.618 85.2862 134.481 77.68 134.13C72.0698 133.807 66.3787 134.751 60.6876 134.319C58.368 134.13 55.9944 133.456 53.7018 134.265C51.517 135.075 49.3862 134.697 47.1475 134.508C43.1556 134.184 39.2177 132.89 35.1449 133.564C31.3418 134.184 27.4578 134.319 23.6008 133.942C21.416 133.753 19.1773 133.618 16.9926 133.564C15.0506 133.564 13.1895 133.699 11.4363 135.992L11.4093 135.965ZM150.694 110.473C150.37 113.224 150.451 116.03 149.831 118.727C149.075 122.045 148.32 125.471 147.026 128.654C146.081 130.974 146.459 131.649 148.887 131.541C154.254 131.217 159.568 130.785 164.935 130.543C166.446 130.489 167.174 129.922 167.444 128.411C167.632 127.225 168.01 125.984 167.578 124.716C166.958 122.854 167.066 120.912 167.066 118.97C167.012 113.979 166.877 108.962 166.688 104.052C166.311 93.5047 164.935 83.0651 165.124 72.5714C165.124 70.9529 164.746 70.0626 163.263 69.3882C159.46 67.5269 155.387 68.3901 151.449 67.8776C150.127 67.7427 149.642 69.0106 149.696 70.2515C149.75 73.003 149.696 75.8086 150.019 78.5601C151.152 89.1886 150.586 99.7901 150.694 110.473ZM122.858 131.783C124.8 132.404 126.608 131.972 128.415 131.972C131.031 131.918 131.355 131.46 130.546 129.032C129.413 125.525 127.848 122.099 126.985 118.484C125.421 112.172 124.935 105.671 124.099 99.2506C123.047 90.8071 122.858 82.3906 122.589 73.9472C122.535 72.8951 122.346 71.7622 122.265 70.6292C122.076 69.0106 121.267 68.3093 119.568 68.2014C116.52 68.1474 113.445 68.2553 110.397 68.4441C108.779 68.579 108.347 69.4961 108.078 70.8179C107.7 73.0569 108.401 75.242 108.32 77.4271C107.808 90.8611 107.322 104.295 105.515 117.594C104.949 121.587 104.329 125.525 101.146 128.519C99.6354 129.949 100.148 131.082 102.279 131.217C107.97 131.46 113.58 132.269 119.271 131.891C120.512 131.837 121.78 131.757 122.831 131.757L122.858 131.783ZM90.6267 130.893C89.7636 130.219 89.4399 129.706 88.9275 129.518C86.419 128.465 85.2322 126.523 84.4231 123.96C83.1823 120.4 82.4811 116.785 82.1844 113.089C81.1325 99.4124 79.4332 85.8435 79.2984 72.1128C79.2444 69.1185 78.9208 68.9297 75.8729 68.606C71.4495 68.1744 67.053 68.9836 62.6296 69.4152C59.8784 69.658 59.6357 69.8469 59.6896 72.7333C59.7435 78.1015 60.0672 83.5506 60.3099 88.9188C60.5527 95.7977 61.3079 102.65 60.7415 109.609C60.1751 115.922 58.5028 121.856 57.1811 127.926C56.5068 131.163 56.5608 131.244 59.7435 131.352C69.4265 131.676 79.1095 130.92 88.7925 131.406C89.1702 131.406 89.6018 131.217 90.5997 130.893L90.6267 130.893ZM41.78 130.408C42.1037 129.356 41.3484 128.708 40.9169 128.088C39.2986 125.768 38.5433 123.286 38.2197 120.454C37.0329 110.014 35.6574 99.6552 34.4706 89.2155C34.2818 87.4621 33.2299 85.8436 33.4726 83.9553C34.093 79.774 32.151 75.8355 32.0431 71.6543C31.9891 70.0897 31.0451 69.2264 29.3459 69.1455C23.5468 69.0106 17.7208 68.3362 11.9218 69.0915C8.03777 69.658 7.22864 70.6022 7.74111 74.5946C8.55028 80.7182 9.35945 86.8956 9.6022 93.1001C10.0338 102.784 11.0317 112.415 11.4633 122.099C11.5172 124.041 12.0297 125.903 12.2724 127.845C12.4612 128.897 13.0277 129.464 14.1335 129.652C23.3041 130.974 32.5016 131.972 41.753 130.408L41.78 130.408ZM121.483 141.09C111.989 141.144 103.924 141.468 95.9402 141.225C87.6327 141.036 79.3253 141.414 71.0179 141.549C64.4097 141.603 57.7746 142.223 51.1664 142.79C49.4671 142.925 47.8488 142.79 46.1765 142.736C35.6843 142.358 25.1921 141.549 14.8078 139.687C12.4882 139.31 10.3035 139.256 7.92994 140.362C5.74519 141.414 3.12887 141.225 0.998062 139.121C-0.323576 137.799 -0.323547 136.801 0.944147 135.695C2.50853 134.319 3.992 132.755 5.82611 131.757C8.14572 130.435 8.82003 128.573 8.44242 126.253C7.876 122.828 7.63321 119.321 7.39046 115.949C7.14771 112.064 6.77007 108.207 6.77007 104.403C6.77007 99.5203 5.90699 94.7186 5.96094 89.9169C6.01488 86.3561 5.96094 82.7414 4.53141 79.2345C3.85711 77.535 4.0189 75.4309 4.15376 73.4886C4.34257 71.1687 1.72628 69.4152 2.40059 67.8776C3.20975 65.8274 3.5874 63.9931 3.45254 61.8889C3.26374 58.1932 3.02099 54.5246 2.02302 50.8289C1.4566 48.5899 1.83418 46.135 2.07693 43.8421C2.13088 42.8439 2.45456 41.792 3.7762 41.8999C4.96297 42.0348 5.52941 42.8979 5.39454 43.95C4.72024 49.561 6.95893 54.8753 6.82407 60.4323C6.68921 65.6117 6.95888 65.5577 12.0836 65.8544C17.4511 66.2321 22.8995 66.286 28.2669 66.0972C31.8272 65.9623 31.8273 65.7195 31.3148 62.4824C30.5056 57.5998 28.8064 52.7981 29.6964 47.6727C29.8313 46.9173 29.5077 46.3509 28.6985 46.162C27.9433 45.9732 27.2689 46.2159 26.9992 46.9713C26.0013 49.7768 24.8145 48.2931 23.8165 47.1062C21.0114 43.7882 22.0094 40.605 26.1362 39.1753C30.2629 37.7456 34.5784 38.1771 38.8131 38.0423C43.5602 37.9074 48.2534 37.6107 52.8656 38.6088C54.8616 39.0404 56.7496 38.5548 58.6646 38.285C61.4158 37.9613 63.6006 38.9595 64.2209 40.7938C64.9761 42.9789 64.2209 45.2988 61.7934 46.7825C59.4738 48.1583 58.6106 49.9117 58.8534 52.5823C59.0961 55.9003 58.8534 59.2723 58.9074 62.5903C58.9613 66.0163 59.5278 66.4749 62.7914 66.34C66.8642 66.2051 70.8561 66.1512 74.848 65.9623C78.8399 65.7195 78.9207 65.7196 78.9207 61.5383C78.9207 58.3552 78.9747 55.172 78.5971 51.9888C78.4083 49.9387 77.653 48.482 75.8998 47.1871C72.9599 45.137 73.2027 42.9519 76.4663 41.3064C81.591 38.6088 87.1473 37.6106 92.8924 37.6106C96.7764 37.6106 100.633 37.287 104.436 38.42C107.242 39.2832 109.75 42.1696 109.939 45.029C109.993 46.2699 109.318 47.1601 108.428 47.8345C107.053 48.8866 106.918 50.2624 106.81 51.9079C106.567 55.6576 107.484 59.3532 107.484 63.1029C107.538 64.8024 108.482 65.5307 110.182 65.6116C113.122 65.6656 115.981 65.9353 118.921 65.9353C121.483 65.9353 122.157 65.3149 122.157 62.7522C122.211 58.1933 122.022 53.6343 122.022 49.0754C122.022 48.0233 121.591 47.376 120.701 46.7016C117.896 44.4626 118.192 42.0078 121.699 40.7129C127.12 38.5818 132.811 37.4757 138.745 37.7725C141.173 37.9613 143.681 38.2851 146.189 38.393C149.804 38.6357 151.881 40.8208 153.364 43.8961C154.173 45.5955 153.607 46.5936 152.042 47.214C151.179 47.5378 150.181 47.6457 149.237 47.8884C148.185 48.1312 147.538 48.8326 147.619 49.9386C147.808 53.8232 147.862 57.7347 148.239 61.5652C148.563 64.5056 149.049 64.8833 151.988 64.7484C155.414 64.6135 158.866 65.18 162.346 64.4247C164.288 63.9931 165.151 63.1838 165.043 61.0527C164.8 56.6286 164.477 52.1777 163.236 47.9424C162.427 45.137 162.669 42.1965 161.995 39.3101C161.671 38.1232 162.13 37.1251 163.559 36.9362C164.746 36.7474 165.367 37.4488 165.609 38.5009C165.852 39.445 166.122 40.3622 166.23 41.3873C166.85 47.6997 167.039 54.1199 168.091 60.3783C169.52 69.3073 167.147 78.3173 168.603 87.1923C169.655 93.5047 169.844 99.871 169.736 106.237C169.601 112.604 170.68 118.916 170.68 125.282C170.68 127.225 171.247 128.708 172.865 129.976C174.672 131.406 176.371 133.159 178.044 134.724C178.367 135.048 178.718 135.236 178.988 135.533C180.174 136.909 180.849 140.281 180.12 141.414C179.069 143.032 177.234 142.925 175.616 142.79C166.068 142.169 156.493 142.79 146.945 142.79C141.388 142.79 135.886 142.358 130.33 141.98C126.904 141.792 123.452 141.36 121.456 141.171L121.483 141.09Z" fill="white"/>
<path d="M92.2448 32.755C91.058 32.3773 89.3049 32.1885 88.6845 30.6239C88.1721 29.302 87.3089 28.6816 86.257 28.0072C84.6926 27.0091 84.315 25.3096 84.261 23.6371C84.2071 21.9376 84.5038 20.2651 86.6346 19.8335C88.4957 19.4558 90.4377 20.0763 91.058 21.9646C91.6784 23.9069 92.8113 24.851 94.6724 25.4715C96.9111 26.2807 97.3695 27.4677 96.7222 29.7067C96.0479 32.0266 94.7263 33.0247 92.2179 32.755L92.2448 32.755Z" fill="white"/>
<path d="M98.7451 15.0049C98.4214 17.136 96.9919 18.7545 95.4275 18.7006C93.2428 18.5117 90.5455 14.816 90.8152 12.1454C91.004 10.1492 92.6224 8.82737 94.5104 9.15108C97.0188 9.5827 99.0687 12.3882 98.7451 15.0318L98.7451 15.0049Z" fill="white"/>
<path d="M42.8319 23.8259C47.0665 24.3924 48.6309 27.009 46.8237 30.5699C45.9606 32.2693 44.6929 32.5661 43.0206 32.0805C41.1596 31.514 38.84 27.7104 39.2716 25.7682C39.7031 23.9068 41.0787 23.5292 42.8319 23.8259Z" fill="white"/>
<path d="M43.1287 3.89074C42.6162 3.83679 42.2656 4.07961 42.3735 4.51122C42.4274 4.83493 42.7511 5.26656 42.9939 5.37447C43.4254 5.50935 43.803 5.18561 43.803 4.75399C43.803 4.32238 43.5602 3.99865 43.1287 3.89074ZM41.9419 0.0332119C45.9338 0.356923 48.4422 3.45918 47.0127 6.64234C46.5002 7.77532 45.9608 8.82735 44.3964 8.8813C42.9669 8.93525 41.6452 8.63855 40.836 7.31673C39.9729 5.88701 39.3256 4.32236 39.2717 2.62287C39.1368 0.626658 39.946 -0.074718 41.9689 0.00620967L41.9419 0.0332119Z" fill="white"/>
<path d="M47.0665 19.9415C47.2013 18.0801 47.498 16.2457 50.0064 15.949C52.1912 15.6253 54.4299 17.001 54.8075 18.8894C55.1851 20.6967 53.7556 23.3135 52.0024 24.0148C50.9505 24.3925 49.7637 24.5274 49.1164 23.3404C48.55 22.3423 49.3052 21.8298 50.1143 21.4791C50.6808 21.2363 51.1123 20.7237 50.8696 20.2382C50.5459 19.294 49.8176 19.6177 49.1703 19.9145C48.5499 20.2382 47.9836 20.5889 47.0396 19.9685L47.0665 19.9415Z" fill="white"/>
<path d="M139.473 9.87943C139.23 11.0124 138.718 12.3883 136.965 12.3073C135.4 12.2534 134.537 11.1203 134.349 9.55573C134.295 9.04319 134.349 8.55765 135.023 8.23394C136.533 7.66745 136.722 7.1819 135.967 6.48053C135.589 6.10286 135.104 5.80608 134.537 5.6712C133.162 5.34749 132.029 4.80799 133.027 3.16246C134.025 1.54391 135.4 2.02949 136.641 2.83876C138.152 3.83687 139.635 7.53256 139.446 9.82551L139.473 9.87943Z" fill="white"/>
<path d="M130.276 27.0091C133.216 27.2519 134.402 28.3849 134.16 30.4351C133.971 32.3774 132.164 34.2386 130.788 33.9959C129.467 33.7531 126.715 30.2462 127.039 28.9244C127.471 27.063 128.846 26.7393 130.276 26.9821L130.276 27.0091Z" fill="white"/>
<path d="M133.27 16.3806C135.266 16.4345 137.693 18.7545 137.504 20.3191C137.316 21.8837 136.318 22.7469 134.753 22.8278C133.62 22.8278 130.438 19.7795 130.626 18.8893C130.869 17.3786 131.759 16.3806 133.243 16.3806L133.27 16.3806Z" fill="white"/>
<path d="M138.017 30.7588C141.146 28.331 141.146 28.1421 137.585 26.065C137.073 25.7413 136.641 25.4985 136.83 24.8241C136.884 24.6353 137.154 24.3116 137.396 24.2576C139.15 23.6372 140.633 24.2576 141.901 25.4446C142.764 26.3078 142.845 29.518 141.955 30.5161C140.768 31.757 139.446 32.1346 138.017 30.7588Z" fill="white"/>
<path d="M140.202 92.9111C141.2 93.2348 141.335 93.9093 141.011 94.5297C140.337 95.7166 139.689 97.0385 138.772 97.9557C136.641 99.9519 134.403 101.705 132.461 103.89C132.029 104.403 131.328 104.7 130.654 104.133C130.141 103.702 130.087 103 130.465 102.622C133.351 99.4933 136.264 96.445 139.204 93.3158C139.446 93.0731 139.878 92.9921 140.202 92.8842L140.202 92.9111Z" fill="white"/>
<path d="M55.266 109.717C54.6457 110.338 54.1332 110.958 53.5668 111.525C51.436 113.764 48.2532 114.573 46.3921 117.082C46.0685 117.594 45.4481 117.513 44.9626 117.136C44.4771 116.758 44.2883 116.272 44.2074 115.706C44.2074 114.951 44.6389 114.384 45.2054 114.006C47.7138 112.199 50.1413 110.446 52.6497 108.692C53.2701 108.261 53.9714 108.261 54.5917 108.557C54.9154 108.746 55.0233 109.232 55.266 109.69L55.266 109.717Z" fill="white"/>
<path d="M51.0044 119.59C50.8696 121.29 46.7697 123.718 45.2053 122.908C44.585 122.531 44.1534 121.721 44.6389 121.209C46.1494 119.833 47.7678 118.511 49.8986 118.161C50.6538 118.026 51.0313 118.727 51.0313 119.59L51.0044 119.59Z" fill="white"/>
</svg>
