<svg width="73" height="106" viewBox="0 0 73 106" fill="none" xmlns="http://www.w3.org/2000/svg">
<path d="M7.55287 18.2627C19.2858 18.0738 28.8609 14.513 38.0854 10.1429C39.3261 9.52248 40.8366 8.57834 40.3241 6.717C39.8925 5.01752 38.6248 4.53195 37.0065 4.28917C25.5164 2.3469 15.7794 6.60908 6.77067 13.1103C5.58389 13.9196 4.39712 15.2953 4.96354 16.9139C5.5839 18.7213 7.39103 18.2897 7.52589 18.2897L7.55287 18.2627ZM15.7524 50.8226C11.329 52.1444 8.44295 55.6243 5.63784 58.9963C3.07548 62.1255 3.50703 64.5533 6.77067 67.116C11.6526 71.0005 17.2089 70.9196 22.5764 69.1122C26.811 67.6825 31.2075 66.7384 35.4421 65.3626C41.8885 63.3124 48.4967 61.4781 54.3766 57.8633C59.1237 54.9229 61.3624 50.1752 59.9868 46.8032C58.7461 43.674 53.1089 41.381 48.2539 42.0015C48.0651 42.0554 47.8224 42.0554 47.6335 42.1363C46.0152 42.46 45.5027 43.4582 46.204 44.8879C46.6356 45.8321 47.0671 46.9381 47.8224 47.5855C50.061 49.3389 49.3328 51.0114 47.6875 52.3332C41.2411 57.4047 34.3902 61.6399 25.6242 60.6418C17.9372 59.7786 17.5056 59.266 16.3188 51.6588C16.2649 51.47 16.0761 51.3351 15.7524 50.8496L15.7524 50.8226ZM9.5488 21.9044C9.22514 23.523 9.73762 24.2244 10.304 24.8448C14.4847 29.4037 16.2919 34.9608 17.4247 40.9764C18.2339 45.1037 19.7982 49.0961 20.6614 53.2234C21.2817 56.1099 22.981 56.7843 25.4624 57.2968C31.9627 58.6726 37.0065 55.4355 42.2122 52.549C44.4508 51.3621 43.9114 49.3119 43.2101 47.4776C40.1623 39.5467 40.459 31.2381 40.6478 22.9295C40.7017 19.8003 41.3221 16.6171 40.1353 12.9214C30.1286 17.5343 19.7713 20.178 9.52184 21.9044L9.5488 21.9044ZM43.5338 86.2419C43.5338 86.4307 43.5338 86.6735 43.5877 86.8084C43.6417 86.9433 43.8305 87.0512 43.9653 87.1321C43.7765 86.8893 43.5877 86.6196 43.3989 86.3229C43.345 81.2514 43.3989 76.2069 43.0753 71.1354C42.8865 67.3318 42.0233 66.9002 38.1933 67.8174C37.1953 68.0602 36.1434 68.3299 35.0645 70.0024C38.7597 74.6153 39.1913 81.3593 43.5068 86.2419L43.5338 86.2419ZM30.722 0.0809244C33.2304 0.323707 34.4711 0.458594 35.7928 0.593473C42.2391 1.10601 45.0442 4.72078 44.343 11.141C43.4798 19.2068 43.1022 27.2726 44.3969 35.3924C44.8284 38.1439 45.9613 38.9532 48.5776 38.8183C52.6504 38.6295 56.5613 38.5755 60.0677 41.435C64.4912 45.1307 65.4892 49.5547 62.4413 54.4373C60.7421 57.1889 58.4494 59.4279 55.5634 60.9925C54.6194 61.505 53.6214 61.9367 52.6234 62.2334C47.0671 63.9329 45.5567 67.5476 45.9343 73.3474C46.5547 82.5192 47.7414 91.5292 49.6834 100.512C50.6275 104.747 49.3598 106.015 45.7455 105.314C44.1811 104.99 43.2371 104.181 43.7496 102.751C44.6936 99.9996 43.6147 97.6257 42.6977 95.3058C39.7037 87.7526 36.4401 80.3882 32.9607 73.0777C31.3963 69.8945 29.4543 69.8945 26.784 70.7578C22.5494 72.1875 18.4227 73.9409 13.7295 73.3744C9.36001 72.8079 5.36811 71.675 2.42814 68.1141C-0.269078 64.877 -0.511824 62.3143 1.91567 58.8074C4.72078 54.7341 8.03836 51.1193 12.3539 48.5566C14.5387 47.3157 14.8623 45.859 14.5387 43.3772C13.5946 34.7449 9.92642 27.947 2.91364 22.8216C-0.403938 20.3938 -0.835488 17.5073 1.34926 14.0814C2.02357 13.0293 2.85971 12.0312 3.85768 11.195C11.9763 4.39706 21.6054 1.32182 30.722 5.66033e-08L30.722 0.0809244Z" fill="white"/>
<path d="M64.0326 64.4994C64.2214 60.7497 66.9186 57.8903 65.9746 54.1406C65.8397 53.4662 66.4871 52.9537 67.1614 52.8997C68.1593 52.7648 68.7797 53.4123 68.9146 54.3295C69.2922 58.6456 66.9726 61.6939 64.0326 64.4994Z" fill="white"/>
<path d="M68.7797 68.4378C68.1593 65.6323 68.9146 63.1236 69.8316 60.6418C70.1553 59.8865 70.8296 59.2121 71.7736 59.4548C72.9065 59.6976 72.9064 60.5069 72.5828 61.3162C71.5309 63.744 71.0723 66.4956 68.7797 68.4378Z" fill="white"/>
<path d="M36.7907 18.2088C37.5459 23.3881 36.3592 28.7563 38.1663 33.8278C38.409 34.5831 37.6538 34.9608 37.0334 35.0687C36.7098 35.1227 36.1703 34.9338 35.9815 34.691C33.7428 31.9395 33.6619 21.6347 35.7927 18.3976C35.8467 18.2627 36.2243 18.3437 36.7907 18.2088Z" fill="white"/>
<path d="M32.3672 33.8818C29.5621 30.5098 28.4293 27.8122 28.1865 24.71C28.1326 24.0356 28.699 23.523 29.3194 23.4691C29.697 23.4151 30.3713 23.6579 30.4522 23.8467C31.0726 26.7332 32.9606 29.4038 32.3942 33.9087L32.3672 33.8818Z" fill="white"/>
</svg>
