<svg width="192" height="186" viewBox="0 0 192 186" fill="none" xmlns="http://www.w3.org/2000/svg">
<path d="M75.6979 55.9175C77.2297 53.6263 77.5956 53.5118 76.8729 51.477C75.3024 47.2116 74.4374 43.4335 80.6805 42.5134C80.8258 42.5136 80.9463 42.3586 81.0466 42.2536C81.6486 41.7689 81.9603 41.1383 81.4956 40.4864C81.2357 40.1202 80.7104 39.7637 80.3097 39.7479C79.5934 39.7215 78.927 39.8605 78.2404 40.0496C75.504 40.8292 73.6289 39.8524 72.6151 37.1191C72.4804 36.8033 72.426 36.4326 72.2913 36.1168C72.1021 35.4302 71.6372 34.9235 70.8053 35.1123C70.0885 35.3764 69.6416 35.9817 69.5854 36.6277C69.4526 38.115 70.1717 39.3635 70.8459 40.5067C72.0845 42.6327 71.1507 43.798 69.2659 44.5809C68.6294 44.7901 67.9128 44.909 67.2712 45.2033C66.2889 45.477 65.0609 45.8554 65.3592 47.1382C65.647 48.7365 66.9797 48.6037 68.2623 48.4508C73.0775 47.6834 72.9973 47.7383 74.4472 52.1587C74.8257 53.3865 74.3972 54.9584 75.6878 55.9425L75.6979 55.9175ZM72.566 30.8782C72.7959 31.1741 73.226 31.5506 73.4157 31.9466C74.1289 33.716 73.8144 35.9443 75.4051 37.1944C77.2309 38.6553 79.0169 37.1059 80.8708 36.8338C82.2538 36.5759 83.3251 36.9486 83.5829 38.4767C83.9254 40.3005 84.8236 42.2606 83.0727 43.795C82.245 44.4797 81.2425 44.8034 80.3351 45.2525C78.7911 45.9108 78.2983 46.9918 78.586 48.5901C78.9726 50.9549 79.354 53.4049 79.8108 55.7398C80.1736 57.3683 79.7806 58.6348 78.1022 58.832C76.3487 58.9991 74.1772 60.4225 73.2204 57.5959C72.9464 56.7589 72.7575 55.9271 72.5335 55.1103C71.7506 52.1403 69.8313 50.6709 66.7756 50.702C63.9753 50.797 61.426 47.7369 62.0219 44.9532C62.3958 43.1558 64.2185 43.5398 65.4464 43.1614C67.4412 42.539 68.7803 41.5949 67.6519 39.4841C65.8498 35.9396 66.8857 33.6525 70.2397 32.0359C70.9967 31.6717 71.419 30.7659 72.591 30.8882L72.566 30.8782Z" fill="white"/>
<path d="M45.352 24.5869C49.0142 27.1932 52.3383 28.3263 56.028 26.6703C63.9389 23.0486 71.8748 19.4369 79.49 15.8998C75.3744 11.8902 75.3543 11.9403 69.8306 13.9636C66.6177 15.0847 63.2999 16.1053 60.1321 17.1863C55.1699 18.9703 50.0626 20.6087 45.377 24.597L45.352 24.5869ZM57.4266 68.8913C57.4343 67.3537 57.6116 66.2621 57.3879 65.3C55.478 54.6479 52.8617 44.0897 51.5932 33.2886C51.1739 29.6315 48.7743 29.7422 45.8129 30.2376C46.6213 40.5921 47.3698 50.8063 48.2788 60.9105C48.8636 67.3378 49.5141 67.7447 57.4016 68.8813L57.4266 68.8913ZM63.0329 68.3257C63.4739 68.2413 64.17 68.3178 64.7364 68.1385C72.7002 65.759 80.9378 64.3618 88.5331 60.7295C93.9626 58.145 94.1035 57.7947 92.6912 51.9068C90.359 42.1606 88.2071 32.3996 86.8169 22.4798C86.2427 18.5569 85.7127 17.9949 82.0837 19.3556C73.8882 22.4559 65.8973 25.9873 57.8069 29.1879C55.085 30.2447 54.5057 32.0468 54.7716 34.7119C55.816 44.6962 58.3637 54.4129 60.3703 64.1735C60.489 65.0353 60.8534 65.7923 61.1475 66.5792C61.4716 67.4363 61.9815 68.0482 63.0479 68.3607L63.0329 68.3257ZM77.6664 10.3117C79.9171 12.2342 83.3355 13.9285 86.6782 15.883C87.9892 16.6718 88.9231 18.3264 89.1151 20.2351C90.4819 32.0932 93.2066 43.6835 96.1516 55.3041C97.062 58.897 95.9874 60.4127 92.4984 61.8588C86.3929 64.3168 80.3421 67.0003 73.8376 68.4258C72.5798 68.734 71.2468 69.012 70.2039 69.5811C63.3801 73.1748 56.2192 71.8943 49.0417 71.4503C47.0083 71.3013 46.6501 69.8781 46.4625 68.3201C45.7851 63.2801 45.0176 58.1748 44.6908 53.1304C44.1 44.4041 43.855 35.6134 42.4625 27.0008C41.9871 23.8444 42.9226 21.6624 45.8055 20.2052C49.4005 18.2784 52.9152 16.4067 56.8794 15.2971C61.5455 13.8882 66.3465 12.6499 70.7534 10.4392C72.7588 9.50126 74.7535 8.87886 77.6664 10.3117Z" fill="white"/>
<path d="M99.4325 124.01C103.095 126.616 106.419 127.749 110.108 126.093C118.019 122.471 125.88 118.829 133.57 115.323C129.405 111.293 129.435 111.363 123.861 113.366C120.648 114.487 117.425 115.488 114.213 116.609C109.2 118.373 104.143 120.031 99.4575 124.02L99.4325 124.01ZM111.497 168.339C111.455 166.781 111.632 165.69 111.458 164.748C109.498 154.076 106.932 143.537 105.689 132.746C105.269 129.089 102.82 129.18 99.8583 129.675C100.742 140.06 101.415 150.244 102.399 160.378C103.004 166.756 103.635 167.213 111.522 168.349L111.497 168.339ZM117.138 167.758C117.579 167.674 118.225 167.73 118.842 167.571C126.756 165.172 135.043 163.795 142.564 160.132C148.043 157.568 148.184 157.217 146.772 151.33C144.439 141.583 142.238 131.802 140.897 121.903C140.323 117.98 139.763 117.347 136.114 118.758C127.994 121.889 119.978 125.41 111.837 128.591C109.115 129.647 108.586 131.47 108.877 134.145C109.846 144.099 112.419 153.826 114.426 163.586C114.62 164.478 114.984 165.235 115.278 166.022C115.552 166.859 116.112 167.491 117.178 167.804L117.138 167.758ZM131.697 109.714C134.023 111.667 137.441 113.361 140.709 115.286C142.04 116.024 142.953 117.729 143.145 119.638C144.512 131.496 147.312 143.116 150.182 154.707C151.092 158.3 150.068 159.835 146.604 161.292C140.448 163.729 134.373 166.403 127.943 167.859C126.685 168.167 125.352 168.445 124.259 168.994C117.486 172.608 110.275 171.307 103.097 170.863C101.159 170.694 100.756 169.311 100.568 167.753C99.8906 162.713 99.1231 157.608 98.7463 152.543C98.1554 143.817 97.9104 135.026 96.593 126.444C96.0426 123.257 97.0532 121.105 99.886 119.628C103.481 117.701 107.071 115.86 110.96 114.72C115.701 113.341 120.427 112.073 124.884 109.882C126.814 108.914 128.884 108.322 131.747 109.734L131.697 109.714Z" fill="white"/>
<path d="M123.033 154.256C123.28 153.28 123.703 152.228 123.784 151.738C124.616 148.293 125.339 144.834 126.296 141.439C127.36 137.419 128.675 133.5 130.114 129.631C130.184 129.456 130.305 129.156 130.541 129.076C130.716 129.001 130.891 129.071 130.992 129.112C134.211 130.144 130.529 138.432 130.015 140.58C128.92 145.111 127.82 149.727 126.695 154.333C126.538 155.084 126.286 155.855 125.734 156.359C125.012 156.999 123.349 156.941 122.9 155.888C122.69 155.542 122.821 154.927 123.008 154.246L123.033 154.256ZM124.527 159.362C127.327 159.267 127.981 157.641 128.436 155.353C129.603 149.775 130.655 144.122 132.327 138.661C133.214 135.587 136.958 128.952 132.328 126.945C127.768 124.908 127.014 132.135 126.163 134.903C125.271 137.771 124.474 140.62 123.708 143.538C122.412 148.279 121.016 153.416 120.982 158.344C120.995 159.686 123.585 159.391 124.552 159.372L124.527 159.362Z" fill="white"/>
<path d="M119.397 139.654C119.467 139.478 119.743 139.444 119.888 139.299C119.943 139.524 119.973 139.74 119.902 139.915C119.852 140.04 119.606 140.145 119.441 140.195C119.461 139.999 119.357 139.754 119.407 139.629L119.397 139.654ZM123.425 139.18C120.898 135.053 120.488 134.627 119.209 135.13C116.979 135.978 115.683 137.899 115.945 140.068C116.394 143.941 119.345 143.325 121.97 143.305C122.804 142.099 123.292 140.668 123.425 139.18Z" fill="white"/>
<path d="M136.272 148.59C136.218 148.22 136.223 147.844 136.189 147.423C135.964 147.478 135.698 147.487 135.668 147.563C135.457 147.943 135.266 148.418 135.35 148.714C135.435 149.155 135.876 149.071 136.262 148.615L136.272 148.59ZM132.638 147.071C133.699 144.939 135.094 143.494 137.572 144.2C139.495 144.77 140.852 147.612 140.178 149.289C139.454 151.091 135.989 152.983 134.437 152.359C131.954 151.302 132.319 149.094 132.663 147.081L132.638 147.071Z" fill="white"/>
</svg>
