<svg width="93" height="172" viewBox="0 0 93 172" fill="none" xmlns="http://www.w3.org/2000/svg">
<path d="M50.3368 120.962C49.6895 119.664 49.3189 117.606 47.1577 118.008C45.9156 118.187 46.0568 119.582 46.5429 120.534C47.2293 121.96 47.4865 124.109 49.7251 123.684C51.1322 123.398 50.5287 122.059 50.3368 120.962ZM43.352 109.549C42.433 109.772 41.5328 110.242 41.8225 111.197C42.3158 112.823 43.0211 114.498 45.1979 114.148C46.44 113.969 46.8605 112.939 46.516 111.803C46.0462 110.254 45.1362 109.205 43.3598 109.575L43.352 109.549ZM82.8359 100.336C79.7452 100.089 76.6366 99.8763 74.2559 103.643C77.9721 103.164 80.6564 102.35 82.8359 100.336ZM21.3855 22.5383C21.4137 17.4275 19.3613 12.8913 18.2898 8.05762L17.1025 8.41774L21.3855 22.5383ZM21.8168 34.2752C22.8078 33.9183 23.9467 33.7702 23.7406 32.2541C23.4483 30.4541 21.3547 29.3131 19.3156 29.9316C18.2472 30.312 17.3188 30.8755 17.8785 32.2562C18.6511 33.9669 19.745 35.1574 21.809 34.2495L21.8168 34.2752ZM14.0469 10.3312C14.2432 17.8546 14.6158 18.8974 17.5626 21.9219L14.0469 10.3312ZM8.23397 9.47275C7.63038 15.6602 10.0177 20.7431 14.322 24.9909C11.7181 20.03 11.096 14.3553 8.23397 9.47275ZM23.0194 150.587C26.8609 150.521 28.5323 149.619 28.4068 145.767C28.1065 135.485 26.0243 125.461 25.2953 115.252C24.3689 103.834 23.3314 92.4218 22.4668 80.9291C22.3073 78.6377 21.2876 77.2274 19.0012 77.2162C16.1852 77.2247 17.0549 79.4415 17.2017 80.9475C18.6333 94.4952 20.1321 108.079 21.3853 121.596C21.6159 123.471 22.8319 124.878 22.766 126.984C22.5493 134.633 22.8958 142.28 23.0789 150.597L23.0194 150.587ZM49.4341 68.5492C44.4453 71.8947 44.4969 71.879 46.3231 75.9482C47.1191 77.7364 48.0567 79.3407 49.2524 80.8668C61.1084 96.073 71.0146 112.378 80.4055 129.121C81.1302 130.396 82.0177 131.649 83.0802 132.736C83.9152 133.723 85.0117 133.249 85.9322 132.66C86.9739 132.006 86.362 131.289 85.9465 130.57C83.9069 126.819 81.9705 123.037 79.8691 119.361C73.9133 109.018 68.0349 98.6515 61.9477 88.4328C57.9509 81.6674 53.614 75.1745 49.4521 68.5156L49.4341 68.5492ZM34.3497 73.8293C40.7352 71.8361 44.2942 68.9806 46.8849 63.7691C49.7274 58.0865 48.8271 47.5912 44.0414 44.7298C36.4916 40.2825 28.8893 33.0603 19.1623 40.5774C12.1719 41.5983 9.98716 46.9404 8.99467 52.682C6.34668 67.8336 19.3152 78.5304 34.3575 73.8551L34.3497 73.8293ZM52.9482 106.526C61.9053 103.161 61.3989 102.328 56.7388 95.7916C52.5224 89.8822 47.7031 84.4939 44.1906 78.1173C42.8107 75.5196 40.9756 75.2304 38.3202 76.2332C35.3966 77.3737 32.3314 78.698 29.1094 78.5759C26.0423 78.4068 25.5765 79.8449 25.7783 82.4617C26.3261 88.3563 26.6259 94.2697 27.104 100.214C27.5427 105.098 28.1184 109.97 28.5931 114.787C28.7178 115.848 28.6977 116.898 30.202 117.118C32.9985 117.51 37.001 114.351 37.3021 111.441C37.7824 106.334 42.7362 103.337 47.0822 106.05C49.2721 107.415 50.8911 107.178 52.9044 106.567L52.9482 106.526ZM53.4908 110.731C56.4973 109.678 59.8913 109.438 62.4861 107.213C59.1695 107.429 55.8271 107.654 53.6355 110.743C53.2898 110.904 53.0294 111.068 52.7353 111.213C53.0294 111.068 53.2225 110.868 53.4908 110.731ZM41.7304 119.907C41.2244 120.004 40.7566 119.949 40.4109 120.11C37.2037 122.267 32.2224 122.199 30.4469 125.359C28.6097 128.595 30.7722 132.844 31.1895 136.636C31.8057 141.269 30.9005 145.998 32.2786 150.541C32.7171 151.987 32.1222 153.464 30.7354 153.631C27.0349 154.161 28.3434 156.245 28.9463 158.233C29.9923 161.495 31.4098 164.589 33.4929 167.368C34.3983 168.588 34.405 169.91 33.2139 170.723C31.685 171.722 30.6888 170.389 30.2411 169.285C28.7014 165.974 27.384 162.653 25.9656 159.278C25.4763 158.129 25.5712 156.212 24.0678 156.273C18.7252 156.315 19.7823 152.273 19.8589 149.459C19.9909 143.669 19.6427 137.967 19.253 132.222C19.0904 129.734 17.9872 128.885 15.5001 129.978C12.7055 131.079 9.82478 131.896 7.08503 133.178C4.56193 134.338 2.28796 134.182 1.07633 131.675C-0.028866 129.332 1.83945 127.778 3.61549 126.479C6.40658 124.251 9.84581 123.602 13.0957 122.701C17.9873 121.358 18.1616 120.911 17.5735 116.184C16.0741 103.249 14.8069 90.2434 13.6148 77.2995C13.3936 75.0833 12.998 73.3145 11.2313 71.7644C3.86078 65.1203 2.718 49.7372 11.7937 40.4445C16.0407 36.14 16.2232 34.1396 12.1033 29.3848C7.76049 24.3594 5.89693 18.2156 4.41043 12.0137C3.03672 6.36967 5.35165 2.20023 10.0359 0.638479C14.8492 -0.96242 19.7779 1.34817 21.6937 6.82783C23.9061 13.0068 25.8996 19.3932 26.4186 26.0294C26.8254 31.4594 28.4108 33.7128 33.4683 35.0541C36.01 35.7209 38.2865 36.7218 40.5248 37.8752C50.0028 42.6397 52.7375 50.6335 51.3825 60.2907C50.932 63.359 51.463 65.4813 53.0235 68.0243C58.5957 77.1026 63.8198 86.4273 69.2629 95.5448C71.6546 99.527 71.7343 99.4182 76.2066 97.808C77.9719 97.2162 79.7912 96.5234 81.6495 95.9597C83.8693 95.2864 85.7436 95.7046 87.2844 97.7179C90.179 101.407 89.7265 102.982 85.1649 104.111C84.339 104.362 83.4872 104.62 82.6972 104.804C76.386 106.577 76.1186 106.996 79.429 112.335C83.2379 118.481 86.0669 125.205 90.8737 130.738C91.5921 131.62 92.3182 132.527 91.6755 133.568C88.4958 138.789 91.0278 143.884 91.7928 149.008C91.8664 149.437 92.095 149.819 92.1764 150.273C92.3763 151.397 92.2014 152.493 91.0141 152.853C89.8111 153.161 88.8503 152.41 88.5989 151.302C88.1062 149.027 87.8536 146.708 87.3969 144.366C86.8729 141.987 86.8642 139.171 83.0384 139.289C81.6124 139.326 81.5782 137.448 80.924 136.406C77.2502 129.684 73.5608 122.91 69.722 116.294C66.7895 111.179 66.3217 111.124 60.4234 112.772L58.565 113.335C52.1122 115.293 51.9316 115.347 54.6666 121.762C55.7202 124.121 54.9259 125.405 53.3148 126.598C52.4695 127.249 51.3697 127.527 50.4179 128.013C45.8159 130.31 45.7644 130.326 44.6772 125.441C44.2236 123.295 43.4635 121.44 41.8033 120.054L41.7304 119.907Z" fill="white"/>
</svg>
