<svg width="116" height="133" viewBox="0 0 116 133" fill="none" xmlns="http://www.w3.org/2000/svg">
<path d="M1.25113 119.685H0V112.055H1.2743L3.84608 115.494L6.39468 112.055H7.63423V119.685H6.39468V113.884L4.18203 116.767H3.4522L1.23955 113.884V119.685H1.25113Z" fill="white"/>
<path d="M10.7737 119.685H9.70789V112.055H10.959V117.659L15.3148 112.055H16.4038V119.685H15.1642V114.058L10.7853 119.685H10.7737Z" fill="white"/>
<path d="M19.7285 119.685H18.4774V112.055H19.7285V115.065H23.8642V112.055H25.1153V119.685H23.8642V116.165H19.7285V119.685Z" fill="white"/>
<path d="M33.7574 118.701C32.9928 119.453 32.0197 119.835 30.8613 119.835C29.7028 119.835 28.7297 119.453 27.9651 118.701C27.2006 117.925 26.8183 116.987 26.8183 115.876C26.8183 114.764 27.2006 113.815 27.9651 113.062C28.7297 112.298 29.7028 111.916 30.8613 111.916C32.0197 111.916 32.9928 112.298 33.7574 113.062C34.5336 113.815 34.9159 114.753 34.9159 115.876C34.9159 116.999 34.5336 117.937 33.7574 118.701ZM28.8803 117.902C29.4132 118.434 30.0735 118.712 30.8497 118.712C31.6259 118.712 32.2862 118.446 32.8191 117.902C33.352 117.346 33.6184 116.675 33.6184 115.876C33.6184 115.077 33.352 114.394 32.8191 113.861C32.2862 113.317 31.6259 113.039 30.8497 113.039C30.0735 113.039 29.4132 113.317 28.8803 113.861C28.3474 114.394 28.0926 115.065 28.0926 115.876C28.0926 116.686 28.359 117.369 28.8803 117.902Z" fill="white"/>
<path d="M39.9668 119.685H36.6188V112.055H42.2142V113.155H37.87V114.764H39.9784C40.882 114.764 41.5886 114.996 42.1099 115.447C42.6312 115.899 42.8861 116.489 42.8861 117.23C42.8861 117.971 42.6312 118.562 42.1099 119.013C41.6002 119.465 40.882 119.685 39.9784 119.685H39.9668ZM37.8584 115.876V118.597H39.8509C40.407 118.597 40.8472 118.481 41.1484 118.238C41.4496 118.006 41.6118 117.67 41.6118 117.242C41.6118 116.813 41.4612 116.478 41.1484 116.235C40.8356 115.991 40.407 115.876 39.8509 115.876H37.8584Z" fill="white"/>
<path d="M45.6895 119.685H44.4384V112.055H47.8443C48.6784 112.055 49.3155 112.263 49.7789 112.68C50.2539 113.074 50.4971 113.606 50.4971 114.278C50.4971 114.949 50.2539 115.482 49.7789 115.91C49.3155 116.327 48.6784 116.547 47.8443 116.547H45.678V119.696L45.6895 119.685ZM45.6895 113.155V115.436H47.7516C48.215 115.436 48.5857 115.331 48.8521 115.135C49.1186 114.938 49.246 114.648 49.246 114.289C49.246 113.93 49.1186 113.641 48.8521 113.444C48.5973 113.247 48.2266 113.155 47.7516 113.155H45.6895Z" fill="white"/>
<path d="M53.2311 119.685H51.98V112.055H53.2311V115.065H57.3668V112.055H58.6179V119.685H57.3668V116.165H53.2311V119.685Z" fill="white"/>
<path d="M61.3287 119.685H60.0081L63.4719 112.009H64.6767L68.1405 119.685H66.8082L65.951 117.786H62.186L61.3403 119.685H61.3287ZM64.0627 113.525L62.6146 116.732H65.5108L64.0627 113.525Z" fill="white"/>
<path d="M70.608 119.835C70.1098 119.835 69.7391 119.778 69.4843 119.662V118.527C69.7739 118.654 70.0867 118.712 70.3879 118.712C70.6891 118.712 70.9671 118.631 71.1756 118.469C71.3841 118.307 71.6042 117.971 71.8707 117.462L68.766 112.055H70.1678L72.5078 116.188L74.454 112.055H75.7863L72.867 118.052C72.2877 119.233 71.5347 119.835 70.5848 119.835H70.608Z" fill="white"/>
<path d="M78.4044 119.685H77.1533V112.055H78.4044V115.169L81.6597 112.055H83.2583L79.586 115.54L83.8491 119.685H82.1462L78.4044 116.015V119.685Z" fill="white"/>
<path d="M86.1892 119.685H85.1234V112.055H86.3745V117.659L90.7303 112.055H91.8193V119.685H90.5797V114.058L86.2008 119.685H86.1892Z" fill="white"/>
<path d="M23.088 132.861H21.8369V125.231H25.2428C26.0769 125.231 26.714 125.439 27.1774 125.856C27.6524 126.25 27.8956 126.782 27.8956 127.454C27.8956 128.126 27.6524 128.658 27.1774 129.087C26.714 129.503 26.0769 129.723 25.2428 129.723H23.0765V132.873L23.088 132.861ZM23.088 126.331V128.612H25.1501C25.6135 128.612 25.9842 128.508 26.2506 128.311C26.5171 128.114 26.6445 127.824 26.6445 127.466C26.6445 127.107 26.5171 126.817 26.2506 126.62C25.9958 126.424 25.6251 126.331 25.1501 126.331H23.088Z" fill="white"/>
<path d="M36.1207 131.865C35.3561 132.618 34.383 133 33.2246 133C32.0661 133 31.093 132.618 30.3284 131.865C29.5638 131.09 29.1815 130.152 29.1815 129.04C29.1815 127.929 29.5638 126.979 30.3284 126.227C31.093 125.463 32.0661 125.08 33.2246 125.08C34.383 125.08 35.3561 125.463 36.1207 126.227C36.8969 126.979 37.2792 127.917 37.2792 129.04C37.2792 130.163 36.8969 131.101 36.1207 131.865ZM31.2436 131.066C31.7765 131.599 32.4368 131.877 33.213 131.877C33.9891 131.877 34.6495 131.611 35.1824 131.066C35.7152 130.511 35.9817 129.839 35.9817 129.04C35.9817 128.241 35.7152 127.558 35.1824 127.026C34.6495 126.481 33.9891 126.204 33.213 126.204C32.4368 126.204 31.7765 126.481 31.2436 127.026C30.7107 127.558 30.4559 128.23 30.4559 129.04C30.4559 129.851 30.7223 130.534 31.2436 131.066Z" fill="white"/>
<path d="M42.9208 133C41.7392 133 40.7429 132.63 39.932 131.888C39.1327 131.136 38.7388 130.186 38.7388 129.04C38.7388 127.894 39.1327 126.945 39.932 126.204C40.7198 125.451 41.716 125.08 42.9208 125.08C43.7318 125.08 44.45 125.254 45.0756 125.59V126.806C44.4384 126.4 43.7202 126.204 42.9324 126.204C42.0983 126.204 41.4033 126.47 40.8472 127.014C40.2911 127.547 40.0247 128.218 40.0247 129.04C40.0247 129.862 40.3027 130.545 40.8588 131.078C41.4148 131.611 42.1215 131.877 42.9788 131.877C43.8823 131.877 44.6353 131.645 45.2377 131.182V132.398C44.5774 132.803 43.8013 133.012 42.9208 133.012V133Z" fill="white"/>
<path d="M50.5666 133C49.385 133 48.3887 132.63 47.5778 131.888C46.7901 131.136 46.3846 130.186 46.3846 129.04C46.3846 127.894 46.7785 126.945 47.5778 126.204C48.3656 125.451 49.3618 125.08 50.5666 125.08C51.3776 125.08 52.0958 125.254 52.7214 125.59V126.806C52.0842 126.4 51.366 126.204 50.5782 126.204C49.7441 126.204 49.0491 126.47 48.493 127.014C47.9369 127.547 47.6705 128.218 47.6705 129.04C47.6705 129.862 47.9485 130.545 48.5046 131.078C49.0606 131.611 49.7673 131.877 50.6246 131.877C51.5282 131.877 52.2812 131.645 52.8836 131.182V132.398C52.2232 132.803 51.4471 133.012 50.5666 133.012V133Z" fill="white"/>
<path d="M55.5828 132.861H54.517V125.231H55.7681V130.835L60.1239 125.231H61.2129V132.861H59.9733V127.234L55.5944 132.861H55.5828Z" fill="white"/>
<path d="M64.3523 132.861H63.2865V125.231H64.5376V130.835L68.8934 125.231H69.9824V132.861H68.7428V127.234L64.3639 132.861H64.3523Z" fill="white"/>
<path d="M66.6576 78.7325C66.4143 78.7325 66.2174 78.9409 66.2174 79.184C66.2174 79.4272 66.4143 79.6356 66.6576 79.6356C66.9009 79.6356 67.0978 79.4272 67.0978 79.184C67.0978 78.9409 66.9009 78.7325 66.6576 78.7325Z" fill="white"/>
<path d="M68.0825 82.8891C68.0825 83.1438 68.2795 83.3406 68.5227 83.3406C68.766 83.3406 68.9629 83.1322 68.9629 82.8891C68.9629 82.6459 68.766 82.4375 68.5227 82.4375C68.2795 82.4375 68.0825 82.6459 68.0825 82.8891Z" fill="white"/>
<path d="M66.6576 82.4375C66.4143 82.4375 66.2174 82.6459 66.2174 82.8891C66.2174 83.1322 66.4143 83.3406 66.6576 83.3406C66.9009 83.3406 67.0978 83.1322 67.0978 82.8891C67.0978 82.6459 66.9009 82.4375 66.6576 82.4375Z" fill="white"/>
<path d="M69.9476 82.8891C69.9476 83.1438 70.1446 83.3406 70.3878 83.3406C70.6311 83.3406 70.8281 83.1322 70.8281 82.8891C70.8281 82.6459 70.6311 82.4375 70.3878 82.4375C70.1446 82.4375 69.9476 82.6459 69.9476 82.8891Z" fill="white"/>
<path d="M66.0321 74.5875L66.1363 75.6411L65.2211 75.5369V76.7294L66.1363 76.6368L66.0321 77.7252H67.2716L67.1789 76.6368L68.0825 76.7294V75.5369L67.1789 75.6411L67.2716 74.5875H66.0321Z" fill="white"/>
<path d="M67.4222 78.3619V82.148H71.1177C70.7933 80.2145 69.3105 78.6977 67.4222 78.3619Z" fill="white"/>
<path d="M66.6576 80.5734C66.4143 80.5734 66.2174 80.7818 66.2174 81.025C66.2174 81.2681 66.4143 81.4765 66.6576 81.4765C66.9009 81.4765 67.0978 81.2681 67.0978 81.025C67.0978 80.7818 66.9009 80.5734 66.6576 80.5734Z" fill="white"/>
<path d="M68.21 85.4363C68.0825 85.4363 67.8045 86.3973 68.0941 87.0689C68.2447 87.4278 68.6154 87.5783 68.9166 87.4857C69.2178 87.3815 69.2989 87.1036 69.3105 86.8836C69.3337 86.1426 68.6849 85.4363 68.2215 85.4363H68.21Z" fill="white"/>
<path d="M65.1053 85.4363C64.6303 85.4363 63.9816 86.131 64.0164 86.8836C64.0164 87.1036 64.109 87.3931 64.4102 87.4857C64.7114 87.5899 65.0706 87.4394 65.2327 87.0689C65.5224 86.3858 65.2327 85.4363 65.1169 85.4363H65.1053Z" fill="white"/>
<path d="M66.6576 84.9269C66.2753 84.9269 65.337 86.8605 66.0436 87.833C66.1826 88.0183 66.4143 88.1225 66.6576 88.1225C66.9009 88.1225 67.1442 88.0183 67.2716 87.833C67.9667 86.8605 67.0283 84.9269 66.6576 84.9269Z" fill="white"/>
<path d="M62.1281 82.8891C62.1281 82.4954 62.1976 82.1481 62.1976 82.1481H65.8815V79.1261V78.362C64.0974 78.6746 62.6725 80.0524 62.2555 81.8239C62.1512 81.9744 61.8153 82.0439 61.5836 82.0207C60.2166 81.8586 57.4711 81.3608 57.4711 80.7703C57.4711 79.9482 58.0271 79.6124 58.56 79.6124C59.3246 79.6124 60.1703 80.0292 60.8769 79.0104C58.3747 79.1261 60.2977 75.5021 58.2357 74.8074C58.3399 75.7337 58.2357 77.3662 57.9113 78.223C57.9113 78.223 57.1699 77.4357 56.3474 77.1347C56.4053 77.8062 56.2894 79.1956 55.9882 79.8324C55.9882 79.8324 55.1078 79.0219 54.2042 78.7209C55.0383 79.9366 55.0151 81.6734 54.7835 82.727C54.7139 83.028 54.9456 83.4101 55.5828 83.387C56.5791 83.3406 59.9965 83.4912 61.4793 84.1048C61.9427 84.2901 62.3366 84.51 62.5219 84.8342C62.6841 85.2742 63.0664 85.9573 63.5414 86.3163C63.7615 85.5521 64.6651 84.73 65.2675 84.7648C65.4413 84.7648 65.6382 85.0658 65.6845 85.3669C65.7425 85.1006 66.1711 84.348 66.6576 84.348C67.0979 84.348 67.5265 84.9732 67.6771 85.4942C67.7234 85.1584 67.9204 84.8111 68.0941 84.8111C68.6965 84.8111 69.4495 85.3437 69.7275 86.2236C69.9592 85.9342 71.0134 84.5795 71.1293 83.688H62.1976C62.1976 83.688 62.1281 83.3059 62.1281 82.9007V82.8891Z" fill="white"/>
<path d="M64.3755 82.8891C64.3755 83.1438 64.5724 83.3406 64.8157 83.3406C65.0589 83.3406 65.2559 83.1322 65.2559 82.8891C65.2559 82.6459 65.0589 82.4375 64.8157 82.4375C64.5724 82.4375 64.3755 82.6459 64.3755 82.8891Z" fill="white"/>
<path d="M62.5683 82.8891C62.5683 83.1438 62.7652 83.3406 63.0085 83.3406C63.2518 83.3406 63.4487 83.1322 63.4487 82.8891C63.4487 82.6459 63.2518 82.4375 63.0085 82.4375C62.7652 82.4375 62.5683 82.6459 62.5683 82.8891Z" fill="white"/>
<path d="M27.3975 84.7416C27.2469 84.8806 26.8994 85.8532 27.05 86.4437C27.1195 86.6984 27.2585 86.8026 27.4902 86.791C27.7335 86.7794 27.8725 86.6521 27.9072 86.3858C27.9999 85.7953 27.5597 84.8574 27.3975 84.7416Z" fill="white"/>
<path d="M30.5717 87.4046C30.3632 87.6246 30.1546 87.7751 30.0388 87.8562C30.1199 87.9372 30.3516 88.0878 30.6412 88.0878C30.8034 88.0878 30.9656 88.0414 31.1046 87.9372C31.3942 87.4625 31.1046 86.9647 30.9887 86.8489C30.9192 86.9647 30.7686 87.1846 30.5717 87.4046Z" fill="white"/>
<path d="M29.3785 86.2237C29.6797 85.8995 29.7955 85.6563 29.7144 85.4711C29.6102 85.2048 28.9035 84.429 27.9883 83.5491C27.9651 83.7343 27.9188 83.908 27.8725 84.0817C28.4864 84.8922 28.7181 85.7721 28.5096 86.5131C28.5791 86.5594 28.6255 86.5826 28.6602 86.5942C28.8919 86.6868 29.1931 86.4205 29.3785 86.2237Z" fill="white"/>
<path d="M30.5601 86.2815C30.5949 86.1426 30.5601 86.0268 30.5022 85.9573C30.479 85.9342 30.4558 85.9226 30.4443 85.9226C30.3863 85.9226 30.2705 86.0731 30.1662 86.2121C30.0736 86.3278 29.9577 86.4784 29.8071 86.6289C29.6565 86.791 29.5175 86.9183 29.4132 87.011C29.2858 87.1268 29.1468 87.2541 29.1468 87.312C29.1468 87.3236 29.1584 87.3467 29.1815 87.3699C29.2279 87.4162 29.2974 87.4394 29.3785 87.4394C29.4943 87.4394 29.7608 87.3815 30.1546 86.9647C30.4558 86.652 30.5485 86.4205 30.5833 86.2815H30.5601Z" fill="white"/>
<path d="M24.9416 81.7891C24.9416 81.7891 24.8257 81.9049 24.7446 82.0554C24.93 82.0554 25.1617 82.0902 25.3586 82.148C25.347 81.9744 25.3354 81.7312 25.3586 81.5228C25.1848 81.5576 25.0111 81.7197 24.9416 81.7891Z" fill="white"/>
<path d="M27.2122 82.0323C27.2122 82.0323 28.9846 83.5954 29.5638 84.1627C29.7028 84.2901 29.8998 84.3248 30.0851 84.2206C30.201 84.1627 30.34 84.0932 30.479 84.0353C32.2399 83.4101 35.1244 83.3406 36.1902 83.387C36.8274 83.4101 37.059 83.0396 36.9895 82.727C36.781 81.7313 36.7347 79.9366 37.5688 78.7209C36.6652 79.0219 35.7847 79.8324 35.7847 79.8324C35.4835 79.1956 35.3561 77.8062 35.4256 77.1347C34.6031 77.4357 33.8617 78.223 33.8617 78.223C33.5373 77.3662 33.4331 75.7337 33.5373 74.8074C31.4869 75.4906 33.3983 79.1261 30.8961 79.0104C31.6027 80.0292 32.4484 79.6124 33.213 79.6124C33.7459 79.6124 34.4178 79.9598 34.3135 80.7703C34.2324 81.3492 30.8729 82.0786 29.5175 82.0786C28.5676 82.0786 27.942 81.7892 27.467 81.1292C27.2353 80.8166 27.0036 80.6661 26.7488 80.7124C26.4244 80.7587 26.0421 81.0945 26.0421 81.8586C26.0421 82.4028 26.2622 83.5954 26.911 83.5954C27.3628 83.5954 27.3859 82.6575 27.2006 82.0323H27.2122Z" fill="white"/>
<path d="M23.8526 81.4881C23.9337 81.5112 24.0032 81.4881 24.0843 81.4534C23.841 81.8007 23.841 82.0323 23.9569 82.1365C24.1306 82.2986 24.2465 81.9975 24.6751 81.546C25.1038 81.0944 25.3934 80.9555 25.2312 80.7934C25.1269 80.6892 24.8952 80.6776 24.5593 80.9555C24.594 80.8744 24.6056 80.7934 24.5824 80.7239C24.4434 80.3187 23.7831 79.7745 23.424 79.7745C23.3661 79.7745 23.3197 79.7745 23.2734 79.8092C23.4356 79.5545 23.3892 79.3577 23.2734 79.2535C23.1575 79.1377 23.088 79.2187 22.9606 79.3924C22.9838 79.2766 22.949 79.1377 22.8332 78.964C22.2887 78.142 19.4273 75.4326 18.767 75.1663C18.3731 75.0042 18.2457 75.2242 18.2457 75.2242C18.2457 75.2242 18.0256 75.3632 18.1993 75.7568C18.489 76.4168 21.2345 79.2419 22.057 79.7745C22.2192 79.8787 22.3582 79.9134 22.4741 79.8903C22.3119 80.0292 22.2424 80.0987 22.3582 80.2145C22.4625 80.3187 22.6594 80.3534 22.9027 80.1797C22.8795 80.2261 22.8795 80.2839 22.8795 80.3418C22.8911 80.7123 23.4356 81.3723 23.841 81.4997L23.8526 81.4881Z" fill="white"/>
<path d="M25.8799 83.5259C25.8799 83.2364 25.3355 82.7617 24.6983 82.7617C23.7484 82.7617 23.3313 83.3638 23.3313 83.6764C23.3313 84.2553 23.8874 84.3364 24.0612 84.3364C24.7331 84.3827 25.8104 83.688 25.8799 83.5259Z" fill="white"/>
<path d="M25.0574 84.9732C24.8026 85.2974 24.7099 85.61 24.7794 85.911C24.8605 86.2699 25.2196 86.4436 25.544 86.4436C25.8799 86.4436 26.1811 86.2815 26.3549 86.0152C26.714 85.4363 26.7372 84.1627 26.6098 84.0237C26.3086 84.0237 25.4976 84.4174 25.069 84.9732H25.0574Z" fill="white"/>
<path d="M16.7165 71.716C16.4501 71.4497 15.894 71.8434 15.5697 71.6581C15.7203 70.8361 16.2879 71.7045 16.8556 71.1024C17.0757 70.8708 16.9598 70.5003 16.8324 70.3845C16.5891 70.6277 16.2184 70.5466 16.1952 70.4077C16.8324 68.9025 15.5928 67.2352 14.3996 67.4436C14.6313 67.7563 14.7008 68.8446 14.5966 69.1341C15.0484 69.4583 14.724 70.2224 14.2259 70.0024C13.8899 69.8635 13.2991 69.0299 13.9826 68.4394C13.9594 68.231 13.5887 68.1731 13.1948 68.6825C13.4845 67.7331 11.7004 68.0341 11.3413 68.2657C11.1328 68.6478 10.9011 70.4887 11.8047 70.1645C11.3181 70.5929 11.3761 70.975 11.5846 70.9866C12.1406 70.2687 12.9747 70.8477 13.1137 71.195C13.3454 71.7045 12.6156 72.0518 12.2797 71.6002C12.0016 71.716 10.9358 71.6813 10.6231 71.4497C10.4609 72.677 12.1175 73.8928 13.5655 73.1981C13.693 73.2212 13.7972 73.6033 13.5655 73.858C13.6814 73.9854 14.0405 74.1012 14.2606 73.858C14.8167 73.2675 13.9594 72.7002 14.7588 72.5265C14.9441 72.8623 14.585 73.4412 14.8514 73.7075C15.2801 74.1359 15.8245 73.3023 16.3574 73.2675C16.369 72.7233 17.1683 72.1444 16.7281 71.716H16.7165ZM12.2565 69.8172C12.2565 69.8172 11.9785 69.6204 12.3144 69.2499C12.6504 68.8909 12.8589 69.1804 12.8589 69.1804C12.8589 69.1804 13.1717 69.8751 13.2643 70.1993C12.9516 70.1182 12.2565 69.8172 12.2565 69.8172ZM15.0136 71.9476C14.8398 71.9708 14.4344 72.3297 14.2259 72.1329L13.2875 71.195L13.7509 70.6971L14.2259 70.1993L15.1642 71.1371C15.3727 71.3455 15.0252 71.7739 15.0136 71.9476Z" fill="white"/>
<path d="M16.9598 73.476C16.8787 73.476 16.7513 73.4991 16.6702 73.5917C16.5775 73.6844 16.5543 73.8349 16.5775 74.0086C16.6123 74.1938 16.7165 74.3791 16.8787 74.5412C17.0641 74.7264 17.3073 74.8422 17.5043 74.8422C17.5854 74.8422 17.7128 74.819 17.7939 74.7264C17.9908 74.518 17.8866 74.0896 17.5854 73.777C17.4 73.5917 17.1567 73.476 16.9598 73.476Z" fill="white"/>
<path d="M14.2606 70.6624L14.0057 70.9287L13.7509 71.195C13.7509 71.195 14.2722 71.8781 14.7008 71.6234C14.9441 71.1834 14.2606 70.6624 14.2606 70.6624Z" fill="white"/>
<path d="M63.831 68.0689C63.8078 68.2078 63.1127 68.5783 62.6146 67.6173C62.1049 67.5131 61.6068 67.351 61.2592 67.2121C61.8616 68.4162 62.3829 69.4004 63.217 69.9446C64.4566 70.755 66.4375 70.5698 67.0747 69.6783C65.9857 69.0878 64.6882 67.5826 63.9816 66.089C63.8426 66.4479 63.5877 67.0384 63.3792 67.4321C63.5066 67.6521 63.6804 67.8952 63.831 68.0573V68.0689Z" fill="white"/>
<path d="M75.7052 49.532C77.0953 48.9415 79.0531 47.61 79.9567 46.6837C80.0725 46.8342 80.3969 47.61 79.3775 48.4783C78.6361 49.1036 77.1185 49.7983 75.9484 50.2614C75.4271 51.0372 74.454 51.8939 73.0523 52.8318C75.7631 52.4034 79.0415 51.3266 80.6286 49.7635C83.6406 46.7995 82.0303 43.1871 81.6365 42.4113C79.6787 44.8428 75.9484 47.4247 72.4615 48.8025C73.6315 48.9415 74.8363 49.1962 75.7052 49.532Z" fill="white"/>
<path d="M73.4693 44.0555C75.2186 42.6082 77.1648 39.702 77.4544 38.6716C77.8483 38.961 78.0453 39.7946 77.5008 40.7441C76.5508 42.3882 74.9058 43.8355 73.4578 44.9701C73.3998 46.0238 72.9365 47.2511 72.4615 48.1658C74.5815 46.7532 77.0258 44.5996 78.1263 43.1524C79.5628 41.2651 80.1652 39.3894 79.8988 37.5485C79.9799 35.4644 78.4739 33.334 77.8483 32.8129C77.4544 35.1286 75.1028 39.0305 73.0639 41.2535C73.3072 42.0524 73.4578 43.1292 73.4809 44.0555H73.4693Z" fill="white"/>
<path d="M72.114 57.5326C72.531 58.0189 72.9828 58.621 73.2608 59.1304C74.8595 59.4893 76.8636 59.3967 76.8636 59.3967C76.8636 59.3967 76.7478 60.2535 75.6357 60.3114C75.1491 60.3345 73.6431 60.0914 73.006 59.9061C72.7395 60.0219 71.5695 60.2998 70.3647 60.4619C72.0676 61.064 74.5351 61.6892 76.0875 61.6892C76.2381 61.6892 76.3887 61.6892 76.5161 61.666C79.0068 61.4461 80.2695 59.1536 80.3274 57.8336C79.5976 57.9841 78.3117 58.0768 76.9911 58.0768C75.8674 58.0768 73.759 57.9841 72.1255 57.5326H72.114Z" fill="white"/>
<path d="M82.4011 51.0603C80.1884 52.2298 76.2496 53.4571 73.1682 53.4223C73.9443 53.897 74.6857 54.4528 75.1723 54.9159C76.4698 54.8349 78.2306 54.4412 79.2616 54.0244C79.2848 54.2096 79.2964 55.0201 78.1032 55.3906C77.2923 55.6338 76.0295 55.6685 75.0912 55.6801C74.3498 56.1548 73.2029 56.6295 72.2646 56.9537C73.1218 57.0811 74.1876 57.1621 75.1839 57.1621C76.8289 57.1621 78.3001 56.9884 79.2269 56.6874C80.1073 56.4095 82.8992 55.1706 82.3895 51.0488L82.4011 51.0603Z" fill="white"/>
<path d="M70.4574 62.7429C71.3957 63.1828 72.3804 63.4723 73.2377 63.5765C73.2377 63.5765 73.0986 64.3986 71.7664 64.2249C71.0366 64.1323 70.1562 63.5765 69.9592 63.4491C69.38 63.5302 68.1752 63.507 67.7118 63.4028C69.1599 64.4333 71.4073 65.6259 73.2724 65.8111C73.3651 65.8111 73.4578 65.8227 73.5504 65.8227C75.5082 65.8227 77.049 63.8428 77.4429 62.905C75.4503 62.8818 72.1024 62.0713 70.0519 60.9366C70.1909 61.3998 70.3531 62.0366 70.4458 62.7429H70.4574Z" fill="white"/>
<path d="M67.0978 65.3479C67.6191 65.9153 68.4532 66.3089 68.4532 66.3089C68.4532 66.3089 68.2331 66.7258 67.7234 66.7258C67.5496 66.7258 67.3759 66.6794 67.1905 66.5752C66.8314 66.3784 66.3796 65.8342 66.3796 65.8342C65.7193 65.7648 65.1285 65.649 64.5492 65.4637C65.5803 66.7605 67.3064 68.312 69.1135 68.7635C69.38 68.833 69.658 68.8677 69.936 68.8677C71.5811 68.8677 72.9017 67.652 73.2724 66.8879C71.3957 66.6216 68.7197 65.2206 67.2948 63.7964C67.2832 64.3638 67.2137 64.9427 67.1094 65.3595L67.0978 65.3479Z" fill="white"/>
<path d="M54.9225 86.2236C55.8145 86.2236 56.4864 85.8531 56.8571 84.9384C55.6175 85.5405 54.2042 85.1931 51.7135 84.4406C51.7135 84.4406 50.7404 84.8574 50.2075 84.9153C51.7135 85.3784 53.9146 86.0847 54.2737 86.9299C54.4243 87.6362 53.9957 87.7519 53.9957 87.7519C53.1153 86.7331 52.1306 86.131 49.9527 85.471C49.9527 85.8647 49.8832 86.1426 49.8832 86.1426C49.8832 86.1426 49.4198 86.2583 48.4467 86.0847C49.3039 86.8025 51.366 88.5393 51.6093 90.4497C51.7715 91.7233 50.8794 91.7812 50.8794 91.7812C50.752 89.8592 49.9295 88.6551 48.1107 86.6636C48.1107 86.6636 47.8095 87.1267 47.4157 87.3699C47.4157 87.3699 46.7438 87.2541 46.1877 86.8836C46.4078 89.4076 46.5237 95.5094 46.3962 96.5051C46.3035 97.1998 45.8981 97.4893 45.8981 97.4893C45.8981 97.4893 45.4926 97.1998 45.3999 96.5051C45.2725 95.5094 45.3999 89.4076 45.6085 86.8836C45.0524 87.2541 44.3805 87.3699 44.3805 87.3699C43.9866 87.1383 43.6854 86.6636 43.6854 86.6636C41.8667 88.6551 41.0441 89.8592 40.9167 91.7812C40.9167 91.7812 40.0247 91.7233 40.1869 90.4497C40.4302 88.5393 42.4922 86.8025 43.3495 86.0847C42.3764 86.2583 41.913 86.1426 41.913 86.1426C41.913 86.1426 41.8435 85.8647 41.8435 85.471C39.6656 86.131 38.6809 86.7446 37.8005 87.7519C37.8005 87.7519 37.3834 87.6362 37.5224 86.9299C37.8931 86.0847 40.0826 85.3784 41.5886 84.9153C41.0557 84.8574 40.0826 84.4406 40.0826 84.4406C37.5804 85.1931 36.167 85.5405 34.9391 84.9384C35.3098 85.8531 35.9817 86.2352 36.8737 86.2236C35.7152 86.6636 34.5452 87.8098 34.2324 89.014C35.1013 92.1285 37.7773 93.078 37.7773 93.078C37.0938 91.5959 37.3834 88.5972 41.4496 86.5362C38.9473 89.0371 37.9858 91.2833 38.6461 93.4137C39.2601 95.3705 41.2411 96.1694 42.7239 96.2041C41.6697 92.9622 42.1447 90.0329 44.3342 87.6941C43.3958 90.2529 42.0752 98.1261 45.8865 99.4345C49.6978 98.1261 48.3772 90.2529 47.4388 87.6941C49.6283 90.0329 50.1033 92.9622 49.0491 96.2041C50.5435 96.1694 52.5245 95.3705 53.1384 93.4137C53.7988 91.2833 52.8372 89.0256 50.335 86.5362C54.4012 88.5972 54.6908 91.5959 54.0073 93.078C54.0073 93.078 56.6949 92.1285 57.5522 89.014C57.251 87.8098 56.0693 86.6636 54.9109 86.2236H54.9225Z" fill="white"/>
<path d="M28.5676 69.9561C29.4017 69.4119 29.923 68.4278 30.5254 67.2236C30.1778 67.3626 29.6681 67.5247 29.17 67.6289C28.6718 68.5899 27.9767 68.2078 27.9536 68.0804C28.1042 67.9183 28.2779 67.6636 28.4054 67.4552C28.1969 67.0615 27.942 66.471 27.803 66.1121C27.0963 67.5941 25.7988 69.1109 24.7099 69.7014C25.3471 70.5929 27.328 70.7666 28.5676 69.9677V69.9561Z" fill="white"/>
<path d="M18.7323 52.8318C17.3305 51.9055 16.3574 51.0372 15.8361 50.2614C14.6661 49.8099 13.1485 49.1152 12.3955 48.4783C11.3645 47.6216 11.6888 46.8458 11.8163 46.6837C12.7199 47.61 14.6777 48.9299 16.0678 49.532C16.9366 49.1962 18.1414 48.9415 19.3115 48.8025C15.8361 47.4247 12.0943 44.8428 10.1365 42.4113C9.74263 43.1755 8.13237 46.7995 11.1444 49.7635C12.7314 51.3266 15.9983 52.4034 18.7207 52.8318H18.7323Z" fill="white"/>
<path d="M19.3231 48.1658C18.8481 47.2511 18.3847 46.0238 18.3268 44.9701C16.8903 43.8355 15.2337 42.3998 14.2838 40.7441C13.7277 39.7946 13.9362 38.961 14.3301 38.6716C14.6313 39.702 16.5659 42.6082 18.3152 44.0555C18.3268 43.1292 18.489 42.064 18.7322 41.2535C16.6934 39.0305 14.3417 35.1286 13.9478 32.8129C13.3222 33.3224 11.8163 35.4528 11.8973 37.5485C11.6309 39.3778 12.2333 41.2651 13.6698 43.1524C14.7703 44.5996 17.2147 46.7648 19.3346 48.1658H19.3231Z" fill="white"/>
<path d="M18.5122 59.1188C18.8018 58.6094 19.2536 58.0189 19.659 57.521C18.014 57.9726 15.9056 58.0652 14.7935 58.0652C13.4729 58.0652 12.187 57.9725 11.4572 57.822C11.5267 59.142 12.7778 61.4345 15.2685 61.6545C15.3959 61.666 15.5465 61.6776 15.6971 61.6776C17.2494 61.6776 19.717 61.0524 21.4199 60.4503C20.2151 60.2998 19.045 60.0103 18.7786 59.8945C18.153 60.0798 16.6355 60.3229 16.1489 60.2998C15.0368 60.2419 14.9209 59.3851 14.9209 59.3851C14.9209 59.3851 16.9251 59.4662 18.5237 59.1188H18.5122Z" fill="white"/>
<path d="M12.5461 56.6874C13.4728 56.9884 14.9441 57.1621 16.5891 57.1621C17.597 57.1621 18.6511 57.0694 19.5084 56.9537C18.5816 56.641 17.4348 56.1548 16.6818 55.68C15.755 55.6569 14.4807 55.6337 13.6698 55.3906C12.4766 55.0201 12.4882 54.2096 12.5113 54.0244C13.5424 54.4412 15.3032 54.8348 16.6007 54.9159C17.0756 54.4527 17.8171 53.9086 18.6048 53.4223C15.5233 53.4454 11.5846 52.2297 9.37191 51.0603C8.86219 55.1706 11.6657 56.4095 12.5345 56.6989L12.5461 56.6874Z" fill="white"/>
<path d="M18.2225 65.8227C18.3152 65.8227 18.4079 65.8227 18.5006 65.8111C20.3657 65.6259 22.6131 64.4333 24.0612 63.4028C23.5978 63.4954 22.393 63.5186 21.8138 63.4491C21.6168 63.5765 20.7364 64.1323 20.0066 64.2249C18.6743 64.3986 18.5353 63.5765 18.5353 63.5765C19.3926 63.4723 20.3773 63.1828 21.3156 62.7429C21.4083 62.0366 21.5705 61.3998 21.7095 60.9366C19.659 62.0829 16.3111 62.8818 14.3185 62.905C14.7124 63.8544 16.2532 65.8227 18.211 65.8227H18.2225Z" fill="white"/>
<path d="M21.8485 68.8678C22.1265 68.8678 22.4046 68.8331 22.671 68.7636C24.4782 68.312 26.2043 66.7721 27.2353 65.4638C26.6445 65.649 26.0537 65.7648 25.405 65.8343C25.405 65.8343 24.9416 66.3669 24.5941 66.5753C24.4203 66.6795 24.2349 66.7258 24.0612 66.7258C23.5514 66.7258 23.3313 66.309 23.3313 66.309C23.3313 66.309 24.1538 65.9153 24.6867 65.348C24.5825 64.9312 24.513 64.3638 24.5014 63.7849C23.0765 65.2206 20.3889 66.61 18.5237 66.8763C18.8944 67.6521 20.2151 68.8562 21.8601 68.8562L21.8485 68.8678Z" fill="white"/>
<path d="M45.1914 22.3924C45.1914 22.7861 45.5042 23.1103 45.8865 23.1103C46.2688 23.1103 46.5816 22.7861 46.5816 22.3924C46.5816 21.9988 46.2688 21.6746 45.8865 21.6746C45.5042 21.6746 45.1914 21.9988 45.1914 22.3924Z" fill="white"/>
<path d="M45.4231 20.8757H46.3615L46.2572 19.741L47.2766 19.8452V18.9421L46.2572 19.0579L46.3615 17.9116H45.4231L45.5158 19.0579L44.4963 18.9421V19.8452L45.5158 19.741L45.4231 20.8757Z" fill="white"/>
<path d="M42.1447 32.1298C42.2489 32.1645 42.3648 32.1877 42.4922 32.1877H49.2808C49.4198 32.1877 49.5356 32.1645 49.6283 32.1298C49.8484 32.0488 49.9758 31.8867 50.0337 31.6204H41.7392C41.7855 31.8867 41.9246 32.0488 42.1447 32.1298Z" fill="white"/>
<path d="M49.6167 30.3351H42.1794C42.1154 30.3351 42.0636 30.387 42.0636 30.4509V30.9835C42.0636 31.0475 42.1154 31.0993 42.1794 31.0993H49.6167C49.6807 31.0993 49.7326 31.0475 49.7326 30.9835V30.4509C49.7326 30.387 49.6807 30.3351 49.6167 30.3351Z" fill="white"/>
<path d="M50.3813 29.8141C50.5782 29.571 51.5282 27.7301 51.5282 25.8775C51.5282 24.1987 49.4314 23.284 48.1802 23.2377C48.0412 25.6228 47.1029 29.3858 45.8981 29.3858C44.7512 29.3858 43.7549 25.6575 43.6159 23.2377C42.3648 23.284 40.268 24.1987 40.268 25.8775C40.268 27.7416 41.2179 29.5826 41.4148 29.8141H50.4045H50.3813Z" fill="white"/>
<path d="M45.8865 28.1932C46.4541 28.1932 47.1956 26.3754 47.3809 24.6502C47.3809 24.3029 46.8133 23.7703 45.8865 23.7471C44.9597 23.7587 44.3921 24.2913 44.3921 24.6502C44.5543 26.2596 45.3304 28.1932 45.8865 28.1932Z" fill="white"/>
<path d="M56.6601 56.0853C56.6601 55.8538 56.4748 55.6685 56.2431 55.6685H35.5878C35.3561 55.6685 35.1708 55.8538 35.1708 56.0853V70.3614C35.1708 70.3614 35.136 71.0792 35.5299 71.9592C35.9933 72.9897 37.7078 74.7032 39.9784 75.8611C43.1409 77.482 44.9945 78.7904 45.9212 79.5082C46.8364 78.7788 48.69 77.482 51.8641 75.8611C54.1347 74.7032 55.8492 72.9897 56.3126 71.9592C56.7181 71.0561 56.6717 70.3151 56.6717 70.3035V56.0738L56.6601 56.0853ZM49.6978 61.2493L49.7326 61.365C50.0222 62.3955 50.2191 63.4607 50.335 64.5143C51.1922 65.1859 51.9568 65.8806 52.6055 66.5869C53.8683 65.1164 54.5402 63.7618 54.5749 62.7081C54.5633 62.7081 54.5518 62.7081 54.5402 62.7081C53.9378 62.7081 53.4512 62.2218 53.4512 61.6198C53.4512 61.3998 53.5323 61.2145 53.6366 61.0409C53.0805 60.7514 52.3739 60.6588 51.783 60.6588C51.2849 60.6588 50.7404 60.7167 50.1612 60.8209C50.1264 60.8209 50.1033 60.8324 50.0685 60.844L49.8948 60.8903L49.9411 60.7746C49.999 60.624 50.0454 60.4851 50.0685 60.3809V60.3346H50.1149C51.8062 60.022 53.1384 60.1609 53.9957 60.6819C54.1579 60.5893 54.3316 60.5198 54.5286 60.5198C55.131 60.5198 55.6175 61.0061 55.6175 61.6082C55.6175 62.0134 55.3858 62.3608 55.0499 62.546C55.0731 63.7502 54.3432 65.3017 52.9299 66.9342C53.011 67.0268 53.0805 67.1195 53.15 67.2005C53.1964 67.2584 53.2427 67.3163 53.289 67.3742L53.3238 67.4205L53.289 67.4552C53.2195 67.5247 53.15 67.6058 53.0573 67.6984L53.0226 67.7331L52.9762 67.71C52.9762 67.71 52.9415 67.71 52.9299 67.6868H52.9183C52.872 67.6173 52.8372 67.571 52.7909 67.5131C52.733 67.4437 52.6751 67.3742 52.6171 67.2931C52.4549 67.4668 52.2696 67.6405 52.0958 67.8142L51.9568 67.9415C51.6788 68.1268 51.4471 68.1615 51.2386 68.0689L51.1575 68.0341L51.227 67.9763C51.644 67.5942 51.9916 67.2468 52.2928 66.9226C51.7367 66.3206 51.1111 65.7301 50.4045 65.1511C50.4508 65.7416 50.474 66.3437 50.474 66.9226C50.474 67.4437 50.4508 67.9878 50.4045 68.6594V68.6941L50.3697 68.7057C50.277 68.752 50.138 68.8331 49.9874 68.9141L49.8832 68.972V68.8562C49.9527 68.1615 49.9874 67.5247 49.9874 66.9226C49.9874 66.7142 49.9874 66.5174 49.9758 66.3206V66.1816V66.1585C49.9758 65.7648 49.8948 64.5375 49.7673 63.7502H49.7326V63.7039C49.6283 63.0207 49.5009 62.3492 49.3271 61.7008V61.6545L49.3503 61.6313C49.3503 61.6313 49.3619 61.6313 49.3734 61.6198L49.4082 61.585C49.5009 61.4924 49.5704 61.3998 49.6399 61.3072L49.721 61.2029L49.6978 61.2493ZM42.666 59.6515C43.5232 57.6484 44.6817 56.5369 45.9097 56.5369C47.1376 56.5369 48.2961 57.6368 49.1533 59.6515L49.1765 59.6978L49.1302 59.7209C49.1302 59.7209 48.968 59.8136 48.7942 59.883L48.7363 59.9062L48.7131 59.8483C47.9485 58.0536 46.9175 57.0232 45.9097 57.0232C44.9018 57.0232 43.8708 58.0536 43.1062 59.8483L43.083 59.9062L43.0251 59.883C42.8513 59.8136 42.7355 59.7441 42.6891 59.7209L42.6428 59.6978L42.666 59.6515ZM42.3764 60.1956C42.6776 60.3693 43.4421 60.7514 44.2415 60.5082C44.9713 60.2883 45.8981 60.2883 45.8981 60.2883C45.8981 60.2883 46.8133 60.2883 47.5547 60.5082C48.3656 60.7514 49.1302 60.3693 49.4198 60.1956C49.4777 60.1609 49.5356 60.2072 49.524 60.2651C49.4545 60.624 49.1418 61.4924 47.879 61.7819C46.6858 62.0597 46.1298 63.426 45.956 63.9817C45.9328 64.0512 45.8402 64.0512 45.817 63.9817C45.6432 63.426 45.0872 62.0597 43.8939 61.7819C42.6312 61.4924 42.33 60.624 42.2489 60.2651C42.2374 60.2072 42.3069 60.1609 42.3532 60.1956H42.3764ZM44.4384 63.6112C44.6469 63.6112 44.8439 63.5418 45.0177 63.426C45.1335 63.6344 45.2146 63.8312 45.2725 63.9817C45.0292 64.1323 44.7396 64.2249 44.4384 64.2249C43.5232 64.2249 42.7818 63.4839 42.7818 62.5692C42.7818 62.3492 42.8397 62.1524 42.9208 61.9555C43.083 62.0482 43.2684 62.1292 43.4769 62.1987C43.4306 62.3145 43.3958 62.4302 43.3958 62.5692C43.3958 63.1365 43.8592 63.5997 44.4268 63.5997L44.4384 63.6112ZM43.975 62.5808C43.975 62.5113 43.9866 62.4534 44.0098 62.3955C44.2878 62.5113 44.5195 62.7081 44.6933 62.9513C44.6238 63.0092 44.5311 63.0439 44.4268 63.0439C44.172 63.0439 43.9635 62.8355 43.9635 62.5808H43.975ZM44.4384 64.7691C44.8091 64.7691 45.1914 64.6649 45.539 64.4564C45.6432 64.5375 45.7706 64.8733 45.9097 64.8733C46.0487 64.8733 46.1761 64.5375 46.2804 64.4564C46.6279 64.6649 47.0102 64.7691 47.3809 64.7691C47.9717 64.7691 48.5046 64.5259 48.8985 64.1438C48.8985 64.167 48.9101 64.1786 48.9216 64.2017C49.1302 64.8501 49.1533 65.7301 49.107 66.1006C49.0722 66.4479 48.9796 66.8184 48.8753 67.131C48.7479 67.5594 48.6089 67.872 48.6089 67.872C48.6089 67.872 48.5741 67.9647 48.5162 68.1152C48.4003 68.4278 48.1571 69.0067 47.8675 69.6435C47.2303 69.2614 46.4773 69.0299 45.678 69.0299C44.9481 69.0299 44.2762 69.2151 43.6738 69.5393C43.419 68.9604 43.2105 68.451 43.083 68.1499C43.0135 67.9763 42.9788 67.8721 42.9788 67.8605C42.9788 67.8605 42.8166 67.4784 42.6776 66.9921C42.5965 66.7142 42.527 66.39 42.4922 66.089C42.4575 65.8227 42.4343 64.9427 42.6428 64.248C42.6776 64.1438 42.7123 64.0512 42.7587 63.9702C43.1641 64.4565 43.7549 64.7575 44.4268 64.7575L44.4384 64.7691ZM47.3809 63.6112C47.9485 63.6112 48.4119 63.1481 48.4119 62.5808C48.4119 62.4534 48.3772 62.326 48.3308 62.2103C48.5394 62.1408 48.7247 62.0597 48.8869 61.9671C48.968 62.1639 49.0259 62.3608 49.0259 62.5808C49.0259 63.4955 48.2845 64.2365 47.3693 64.2365C47.0681 64.2365 46.7785 64.1438 46.5352 63.9933C46.5932 63.8428 46.6742 63.646 46.7901 63.426C46.9639 63.5418 47.1608 63.6112 47.3809 63.6112ZM47.1145 62.9397C47.2998 62.7081 47.5315 62.5113 47.8095 62.3955C47.8327 62.4534 47.8443 62.5113 47.8443 62.5808C47.8443 62.8355 47.6358 63.0439 47.3809 63.0439C47.2766 63.0439 47.184 63.0092 47.1145 62.9513V62.9397ZM37.2444 60.5546C37.4645 60.5546 37.6499 60.6356 37.8236 60.7398C38.3797 60.404 39.1095 60.2072 40.0479 60.2072C40.546 60.2072 41.0905 60.2535 41.6581 60.3577L41.7392 60.3809V60.4156C41.774 60.5198 41.8203 60.6703 41.8782 60.8093L41.9246 60.9251L41.7276 60.8788C41.7276 60.8788 41.6118 60.844 41.5654 60.844C41.021 60.7514 40.5113 60.7051 40.0479 60.7051C39.4455 60.7051 38.7272 60.7861 38.1712 61.0987C38.2754 61.2608 38.3449 61.4461 38.3449 61.6545C38.3449 62.2566 37.8584 62.7313 37.2676 62.7429C37.3023 63.7849 37.9742 65.1511 39.2369 66.61C39.8973 65.9037 40.6619 65.209 41.5075 64.5375C41.6234 63.4839 41.8203 62.4302 42.1099 61.3998L42.1447 61.284L42.2258 61.3882C42.3069 61.4924 42.3648 61.5735 42.4575 61.6545C42.4806 61.6777 42.4922 61.6892 42.5154 61.7124L42.5386 61.7355V61.7819C42.3648 62.4302 42.2374 63.0902 42.1331 63.7733V63.8196H42.0868C42.0057 64.3175 41.9477 65.0006 41.913 65.7069C41.8782 66.1932 41.8666 66.61 41.8666 66.9921C41.8666 67.49 41.8898 68.0226 41.9362 68.6478V68.752L41.8435 68.7057C41.7045 68.6478 41.6002 68.6131 41.4959 68.6131H41.438V68.5552C41.4033 68.092 41.3685 67.5479 41.3685 66.9805C41.3685 66.4132 41.3917 65.7995 41.438 65.209C40.7429 65.7764 40.1058 66.3784 39.5613 66.9689C40.0247 67.4784 40.5808 67.9994 41.2295 68.5436L41.3222 68.6246L41.2063 68.6594C40.9978 68.7173 40.7777 68.7057 40.5692 68.6246H40.546C40.0015 68.1384 39.5845 67.7331 39.2254 67.351C39.1559 67.4321 39.0863 67.5247 39.0168 67.6057L38.9589 67.6868H38.9358C38.8431 67.7215 38.7272 67.7563 38.6345 67.8257L38.5882 67.8489L38.5535 67.8142C38.5535 67.8142 38.4955 67.7678 38.4608 67.7447C38.4376 67.7331 38.4144 67.71 38.3913 67.6868L38.3449 67.6521L38.3797 67.6057C38.5535 67.3742 38.7272 67.1774 38.8894 66.9921C37.4877 65.3711 36.7579 63.8428 36.7694 62.6387C36.4103 62.465 36.1555 62.0945 36.1555 61.6661C36.1555 61.064 36.642 60.5777 37.2444 60.5777V60.5546ZM49.3734 73.7307C48.7363 75.4327 47.8906 76.5905 46.9754 77.1C46.8828 77.6094 46.4657 78.0146 45.9212 78.0146C45.3768 78.0146 44.9597 77.621 44.8671 77.1C43.9519 76.5905 43.1062 75.4443 42.4806 73.7654L42.4575 73.6959L42.9324 73.5686L42.9556 73.6265C43.5001 75.0622 44.1836 76.0695 44.9134 76.5558C45.064 76.139 45.4579 75.8379 45.9328 75.8379C46.4078 75.8379 46.8017 76.139 46.9523 76.5558C47.6821 76.0695 48.3656 75.0622 48.9101 73.6265L48.9332 73.5802H48.9796C49.0954 73.6149 49.2228 73.6265 49.3387 73.6496H49.4198L49.3966 73.7307H49.3734ZM44.9713 73.6496C44.9713 73.3023 45.0872 72.3992 45.2146 72.0634C45.3999 71.936 45.6316 71.8666 45.8865 71.8666C46.1761 71.8666 46.431 71.9708 46.6395 72.1329C46.7553 72.4571 46.8596 73.3254 46.8596 73.6496C46.8596 74.0086 46.0487 74.2633 45.8981 74.298C45.7822 74.2633 44.9713 74.0086 44.9713 73.6496ZM55.8956 70.2109C55.8376 70.2803 55.7565 70.3382 55.6639 70.3845C55.6639 70.3845 55.6523 70.3845 55.6407 70.3845C55.548 70.4193 55.4322 70.4424 55.3048 70.454H55.2237C55.0499 70.454 54.8877 70.4309 54.7719 70.373C54.7255 70.3498 54.6792 70.3151 54.6444 70.2803C54.6444 70.2803 54.6444 70.2803 54.6328 70.2803C54.3432 70.3151 53.764 70.4887 53.5902 70.5698C53.6829 70.5698 54.4127 70.6393 54.9572 71.0445C55.2005 71.1719 55.6755 71.3108 55.8724 71.3108C55.8724 71.3919 55.0151 72.0055 53.4396 71.6582L53.0342 71.554C52.3043 71.3571 51.5745 71.2761 50.8447 71.3224C50.9374 71.3455 51.0069 71.3687 51.0532 71.3919C51.2617 71.4613 51.4471 71.5424 51.6209 71.6234C51.644 71.635 51.6672 71.6582 51.6788 71.6813C51.7135 71.6813 51.7599 71.6813 51.7946 71.6813C51.8641 71.6813 51.9336 71.7045 52.0031 71.7276C52.0842 71.7624 52.1769 71.7971 52.2696 71.855C52.397 71.9245 52.4897 72.0055 52.5592 72.1097C52.594 72.1676 52.6287 72.2255 52.6403 72.2834C52.6751 72.4107 52.6403 72.5613 52.5592 72.6886C52.258 73.036 51.9452 73.036 51.6093 72.6886C51.5861 72.677 51.5629 72.6307 51.5513 72.6192C51.4934 72.5728 51.3892 72.4339 51.3312 72.2834C51.3197 72.2486 51.3081 72.2139 51.2965 72.1676C51.2733 72.1676 51.2617 72.1676 51.2386 72.1444C51.0996 72.0287 50.9605 71.9245 50.8215 71.8666C50.5203 71.7392 50.2423 71.6582 49.9643 71.6118C49.8832 71.6003 49.8137 71.5887 49.7442 71.5887C50.0106 71.7508 50.2191 71.936 50.3466 72.1444C50.3466 72.1444 50.3697 72.1792 50.3697 72.1908C50.5435 72.4686 50.5203 72.7002 50.613 72.9202C50.8563 73.4644 50.9605 73.4991 51.1806 73.6959C50.9605 73.7654 49.6862 73.7538 49.0491 72.8855C49.0259 72.8391 49.0027 72.7928 48.9796 72.7349C48.8406 72.4223 48.7247 72.0518 48.6552 71.8203C48.5741 71.5424 48.7015 71.334 48.5509 71.2529C48.4003 71.1719 48.3077 71.2761 48.3077 71.2761C48.3077 71.2761 48.2961 71.2877 48.2845 71.2992C48.2845 71.2992 48.2729 71.3108 48.2613 71.3224C48.2613 71.3224 48.2613 71.3224 48.2497 71.3224C48.2497 71.3224 48.2497 71.3224 48.2382 71.334L48.2034 71.3571C48.1455 71.415 48.1339 71.4382 48.1107 71.4729L48.0876 71.5192C48.0876 71.5192 48.0412 71.5887 48.0296 71.6118C48.0296 71.6118 47.9949 71.6582 47.9833 71.6697C47.9717 71.6929 47.9485 71.716 47.9254 71.7276C47.9254 71.7276 47.8906 71.7508 47.8675 71.7624C47.8211 71.7855 47.7748 71.7855 47.74 71.7624C47.7284 71.7739 47.7053 71.7855 47.6937 71.7971C47.6821 71.7971 47.6473 71.8318 47.6242 71.8434C47.5431 71.8781 47.462 71.9013 47.3809 71.9013C47.2998 71.9013 47.2187 71.8434 47.2071 71.7624C47.2071 71.716 47.2071 71.6697 47.2419 71.635H47.2187C47.2187 71.635 47.1145 71.6813 47.0681 71.6813C46.9986 71.6813 46.9523 71.6582 46.8944 71.5887C46.8596 71.5308 46.8712 71.4613 46.9175 71.4034C46.9523 71.3571 46.9175 71.3571 46.9175 71.3571C46.8596 71.4034 46.8017 71.4497 46.7437 71.4729C46.6858 71.4961 46.6279 71.4845 46.57 71.4497C46.5236 71.415 46.5005 71.3455 46.5005 71.2877V71.2066C46.5005 71.2066 46.5121 71.1834 46.5236 71.1719C46.5236 71.1719 46.5236 71.1371 46.5236 71.1256C46.5236 71.1256 46.5236 71.114 46.5236 71.1024C46.5005 71.1024 46.4889 71.1024 46.4657 71.0908H46.4194L46.3962 71.0677C46.2688 71.0329 46.1529 71.0098 46.0371 70.975C46.0255 70.975 46.0023 70.975 45.9908 70.975C45.9908 70.975 45.9792 70.975 45.9676 70.975C45.8633 71.0098 45.7475 71.0561 45.6316 71.0908C45.6316 71.0908 45.62 71.0908 45.6085 71.0908L45.5621 71.114C45.5621 71.114 45.5042 71.1256 45.481 71.1371C45.481 71.1256 45.4579 71.1024 45.4579 71.0908C45.4579 71.0908 45.4347 71.0329 45.4231 71.0213C45.4463 70.9866 45.4694 70.9519 45.481 70.9287C45.481 70.9171 45.481 70.894 45.481 70.8824C45.481 70.8824 45.4579 70.8824 45.4463 70.8824C45.3884 70.8824 45.3304 70.8824 45.2725 70.894C45.2725 70.9287 45.2725 70.975 45.2493 71.0098C45.2378 71.0329 45.2146 71.0445 45.1914 71.0561C45.1914 71.0908 45.1914 71.1256 45.203 71.1603V71.2066V71.2413C45.2262 71.2992 45.203 71.3919 45.1567 71.4266C45.0987 71.4729 45.0408 71.4845 44.9829 71.4729C44.9597 71.4729 44.925 71.4497 44.9018 71.4266C44.8786 71.415 44.8439 71.3919 44.8207 71.3687C44.8207 71.3687 44.8091 71.3571 44.7975 71.3455C44.7975 71.3455 44.7975 71.3455 44.7744 71.3224C44.7744 71.3224 44.7744 71.3224 44.7628 71.2992C44.7628 71.2992 44.7396 71.2761 44.728 71.2645L44.7396 71.2992C44.7396 71.2992 44.7396 71.2992 44.7396 71.3224L44.7628 71.3571V71.3687C44.7628 71.3687 44.7975 71.4266 44.8091 71.4382C44.8323 71.4961 44.8207 71.554 44.7975 71.6003C44.7396 71.6697 44.6817 71.6929 44.6006 71.6697C44.5774 71.6697 44.5427 71.6697 44.5195 71.6466C44.4848 71.6466 44.4732 71.6234 44.45 71.6118C44.4848 71.6582 44.5079 71.716 44.4848 71.7739C44.4616 71.8434 44.4037 71.8897 44.3342 71.8897C44.2762 71.8897 44.2067 71.8897 44.1488 71.8666C44.1488 71.8666 44.1141 71.8666 44.0909 71.8434C44.0909 71.8434 44.033 71.8087 44.0214 71.8087C43.975 71.7739 43.9635 71.7624 43.9403 71.7508C43.8939 71.7855 43.8592 71.7855 43.8129 71.7508C43.8129 71.7508 43.7665 71.716 43.7549 71.7045C43.7202 71.6582 43.6854 71.635 43.6623 71.5887V71.5655C43.6623 71.5655 43.6391 71.554 43.6275 71.5424C43.6275 71.5424 43.6043 71.5192 43.6043 71.5076L43.5812 71.4613L43.5464 71.4266C43.3495 71.2529 43.1062 71.855 43.0946 71.8666C42.2953 73.5107 40.4533 73.8001 40.4417 73.7191C40.4533 73.6844 40.8588 73.5223 40.9978 72.9318C41.0789 72.596 41.0789 72.4918 41.2642 72.1908C41.2874 72.1444 41.3222 72.0981 41.3569 72.0634C41.4844 71.9013 41.6581 71.7624 41.8666 71.635C41.7971 71.635 41.7276 71.6466 41.6581 71.6582C41.3917 71.7045 41.1136 71.7855 40.8125 71.9013C40.6734 71.9592 40.5344 72.0518 40.3954 72.1792C40.3838 72.1908 40.3607 72.1908 40.3375 72.2023C40.3375 72.2371 40.3375 72.2718 40.3143 72.3181C40.2796 72.4223 40.2101 72.5265 40.129 72.6192C40.1058 72.6423 40.0826 72.6655 40.0595 72.6886L40.0247 72.7234C39.7119 73.0591 39.3991 73.0707 39.0979 72.7581C39.0748 72.7234 39.0516 72.6886 39.04 72.6423C38.9937 72.5265 38.9821 72.4223 39.0053 72.3181C39.0284 72.2255 39.0748 72.1329 39.1559 72.0518C39.2138 71.9823 39.2949 71.9245 39.3875 71.8781C39.4802 71.8203 39.5729 71.7855 39.6656 71.7508C39.7235 71.7276 39.793 71.716 39.8625 71.7045C39.8973 71.7045 39.9436 71.7045 39.9899 71.7045C40.0131 71.6813 40.0247 71.6582 40.0595 71.6466C40.1405 71.6003 40.2332 71.5655 40.3259 71.5192C40.407 71.4845 40.4997 71.4382 40.5923 71.3919C40.6271 71.3687 40.6734 71.3571 40.7198 71.334C40.0131 71.2992 39.318 71.3803 38.623 71.5771C38.4955 71.6118 38.3681 71.6466 38.2059 71.6813C37.3602 71.8897 35.75 71.4266 35.7616 71.334C35.7616 71.2529 36.1555 71.2645 36.6536 70.9982C36.9548 70.8361 37.1865 70.6508 37.4529 70.6161C37.6614 70.5582 38.1132 70.5466 38.2059 70.5466C38.0322 70.4656 37.2792 70.3382 37.0011 70.3035C37.0011 70.3035 37.0011 70.3035 36.978 70.3035C36.9432 70.3382 36.8969 70.3614 36.8505 70.3845C36.6768 70.454 36.503 70.4887 36.3176 70.4772C36.1902 70.4772 36.0859 70.4424 35.9817 70.4077C35.8774 70.3614 35.7963 70.3035 35.7384 70.234C35.6805 70.153 35.6226 70.0256 35.6689 69.8288C35.75 69.4583 36.0744 69.3078 36.4914 69.4351C36.7115 69.5046 36.8853 69.6088 37.0011 69.713C37.0243 69.7362 37.0475 69.7709 37.0706 69.8056C37.0706 69.8056 37.0706 69.8056 37.0822 69.8056C37.3487 69.8519 37.6614 69.9446 37.9858 70.0835C38.3102 70.2224 38.565 70.3035 38.7851 70.3498C38.7272 70.3151 38.6461 70.2688 38.5535 70.2224C38.4955 70.1877 38.426 70.153 38.3449 70.1067C38.2523 70.0603 38.1596 70.0025 38.0785 69.9677C37.5804 69.7246 37.0706 69.4814 36.7231 69.0878C36.4451 68.7752 36.3871 68.5436 36.3176 68.2657C36.2134 67.5247 35.8658 67.1774 35.9353 67.0963C35.9933 67.0268 37.1865 67.5942 37.6035 68.0689C37.8931 68.3931 37.9626 68.6594 38.0206 68.8909V68.9488C38.1017 69.2036 38.3681 69.4467 38.762 69.713C38.8199 69.7477 38.8662 69.7825 38.9126 69.8172C38.8199 69.6898 38.7272 69.5509 38.6461 69.4235C38.6346 69.4004 38.623 69.3657 38.623 69.3309C38.5882 69.3078 38.5419 69.2846 38.5071 69.2499C38.4724 69.2151 38.426 69.1688 38.3797 69.1109C38.3218 69.0299 38.2754 68.9373 38.2407 68.8446C38.1364 68.5899 38.1248 68.3815 38.2059 68.2078C38.2523 68.1268 38.3449 68.011 38.5419 67.9647C38.8778 67.8836 39.1211 68.0689 39.2601 68.532C39.2717 68.6362 39.2833 68.7288 39.2833 68.8099C39.2833 68.9025 39.2717 68.972 39.2485 69.0415C39.2485 69.0762 39.2254 69.0878 39.2138 69.1109C39.2138 69.1225 39.2369 69.1457 39.2485 69.1572C39.4223 69.6898 39.8509 70.1182 40.3259 70.4309C39.7351 69.9098 39.4107 68.7636 39.4802 68.7173C39.5497 68.671 40.1174 68.9951 40.6155 69.2036C40.8935 69.3193 41.1484 69.4467 41.3801 69.5972C41.5423 69.7014 41.6929 69.8172 41.8319 69.9446C41.9593 70.0604 42.0752 70.1761 42.1678 70.2803L42.2026 70.3267C42.2953 70.4193 42.3648 70.4887 42.4227 70.5466C42.4806 70.593 42.5386 70.6393 42.6081 70.674C42.7587 70.7666 43.0019 70.6624 43.0019 70.6624C43.0483 70.6393 43.141 70.6277 43.2452 70.6161C43.2452 70.6045 43.2684 70.593 43.28 70.5698C43.3031 70.5351 43.3147 70.5235 43.3263 70.5119C43.419 70.4309 43.5117 70.3961 43.5927 70.3845C43.5927 70.3614 43.5927 70.3382 43.5927 70.3151C43.6159 70.1761 43.7086 70.0604 43.8476 69.9909C43.8824 69.9677 43.9287 69.9561 43.9635 69.9446C43.9866 69.9446 44.0214 69.9446 44.0445 69.933C44.0677 69.933 44.0909 69.933 44.1141 69.933C44.1488 69.933 44.1836 69.933 44.2067 69.933C44.2415 69.8635 44.2878 69.8056 44.3573 69.7593C44.3573 69.7593 44.3689 69.7593 44.3805 69.7477C44.5659 69.6551 44.7975 69.7014 44.9366 69.8519C45.0061 69.933 45.0524 70.0256 45.064 70.1182C45.064 70.1182 45.064 70.1761 45.064 70.1877C45.064 70.234 45.064 70.2803 45.064 70.3151C45.064 70.373 45.0756 70.4193 45.0872 70.4656C45.0872 70.4656 45.0872 70.4772 45.0872 70.4887C45.203 70.4887 45.3189 70.4887 45.4347 70.5119C45.4463 70.5119 45.4579 70.5119 45.4694 70.5119H45.4926C45.5505 70.5119 45.6085 70.5235 45.6664 70.5351C45.7475 70.5351 45.8402 70.5582 45.9212 70.5814C46.0023 70.5582 46.0718 70.5351 46.1529 70.5235C46.2109 70.5119 46.2572 70.4887 46.3151 70.4887H46.3383C46.3499 70.4887 46.3615 70.4887 46.373 70.4887C46.4078 70.4887 46.4541 70.4887 46.4889 70.4656C46.5121 70.3845 46.5236 70.3035 46.5121 70.1877C46.5121 70.0951 46.5352 70.0256 46.5584 69.9677C46.57 69.933 46.5932 69.8983 46.6279 69.8635C46.6511 69.8404 46.6858 69.8056 46.709 69.794C46.8364 69.7014 47.0334 69.6783 47.1956 69.7593L47.2303 69.7825C47.2998 69.8288 47.3461 69.8867 47.3693 69.9561C47.4272 69.9561 47.4852 69.9446 47.5431 69.9561C47.5894 69.9561 47.6126 69.9677 47.6358 69.9793C47.6589 69.9793 47.6821 69.9909 47.7053 70.0025C47.7053 70.0025 47.7053 70.0025 47.7169 70.0025C47.8559 70.0835 47.9485 70.1993 47.9717 70.3267C47.9717 70.3267 47.9717 70.3498 47.9717 70.3614C47.9833 70.3614 48.0065 70.3614 48.0181 70.3614C48.0181 70.3614 48.0181 70.3614 48.0296 70.3614C48.0644 70.3614 48.1107 70.3614 48.1455 70.3614C48.1455 70.3614 48.1687 70.3614 48.1802 70.3614C48.1802 70.3614 48.5973 70.3614 48.7131 70.4077L49.1418 70.4309C49.1418 70.4309 49.246 70.3267 49.2924 70.2803C49.3966 70.1761 49.5125 70.0488 49.6399 69.933C49.7789 69.8056 49.9295 69.6898 50.0917 69.5741C50.335 69.412 50.6593 69.3541 50.949 69.2383C51.8178 68.8678 51.8989 68.3699 51.98 68.4162C52.0495 68.4625 51.7715 69.8635 51.1922 70.3845C51.6556 70.0835 52.0842 69.6551 52.258 69.1225C52.258 69.0994 52.2812 69.0878 52.2928 69.0762C52.2928 69.053 52.2696 69.0299 52.258 68.9951C52.2348 68.9257 52.2233 68.8446 52.2233 68.7636C52.2233 68.6825 52.2233 68.5899 52.2464 68.4857C52.3854 68.0226 52.6171 67.8373 52.9531 67.9068C53.1616 67.9531 53.2543 68.0689 53.289 68.1499C53.3701 68.312 53.3585 68.532 53.2543 68.7752C53.2079 68.8794 53.1616 68.9604 53.1153 69.0299C53.0689 69.0993 53.0226 69.1457 52.9762 69.1804C52.9415 69.2151 52.9067 69.2383 52.8604 69.2614C52.8604 69.2846 52.8604 69.3193 52.8488 69.3425C52.7793 69.4699 52.6751 69.6204 52.5476 69.7825C52.6055 69.7362 52.6635 69.6898 52.733 69.6435C53.15 69.3193 53.3933 69.0762 53.4628 68.8215C53.5323 68.5783 53.6018 68.312 53.8798 67.9994C54.2737 67.5479 54.3548 67.4321 54.8529 67.1774C54.9572 67.131 55.5249 66.9805 55.5828 67.05C55.6291 67.1195 55.1426 67.3279 55.0035 68.1847C54.934 68.451 54.8645 68.8562 54.5865 69.1688C54.239 69.5625 53.9378 69.6551 53.4396 69.8867L53.3354 69.933C53.2311 69.9793 53.1384 70.0256 53.0342 70.0835C52.9067 70.153 52.7909 70.2224 52.6866 70.2803C52.9299 70.234 53.2195 70.1414 53.5323 69.9909C53.8219 69.8519 54.1347 69.7593 54.4475 69.713C54.4475 69.713 54.4475 69.713 54.4591 69.713C54.4822 69.6783 54.5054 69.6435 54.5286 69.6204C54.6328 69.5046 54.8066 69.412 55.0267 69.3425C55.4669 69.2036 55.7681 69.3657 55.8608 69.7362C55.9071 69.933 55.8492 70.0719 55.7913 70.1414L55.8956 70.2109Z" fill="white"/>
<path d="M70.7238 53.156C72.0097 52.5539 74.1644 51.1298 74.9869 50.1341C73.7705 49.752 71.3957 49.4741 70.0403 49.4509C72.8438 47.5289 72.948 43.4186 72.1255 40.4199C71.4884 42.8281 69.7854 44.7386 68.627 45.9427C68.7313 47.1005 68.3605 49.1499 67.7118 50.4004C68.627 50.7477 69.7275 51.2803 70.4921 51.8592C69.9824 52.5076 68.8818 53.5033 68.1868 54.0475C68.7776 54.6612 69.7623 55.7843 70.1909 56.4327C69.5422 56.9189 68.1288 57.4747 67.4106 57.7294C67.7697 58.4589 68.2795 59.7904 68.4185 60.7051C67.596 60.844 66.4607 60.9366 65.279 60.9135C65.337 61.7934 65.2095 63.1597 65.0589 63.9701C63.9584 63.8775 62.6609 63.426 62.0817 63.1365C61.7805 64.3522 61.0159 65.5332 60.9812 65.5911C59.927 64.4448 58.9075 63.9933 58.0039 63.9933V63.2291C58.9539 63.206 59.9386 63.5881 60.7031 64.3175C61.0391 63.7154 61.3982 62.5807 61.5372 61.9671C62.2439 62.3376 63.2981 62.7313 64.2712 62.8702C64.3639 62.0597 64.445 60.9482 64.3291 60.0567C65.2559 60.1493 66.3217 60.1493 67.3643 59.9525C67.2021 59.1883 66.5418 57.9147 66.1131 57.2084C67.0747 56.9537 68.2563 56.479 68.8587 56.12C68.3837 55.4717 67.4801 54.4759 66.8893 53.9549C67.6075 53.4686 68.6733 52.5655 69.1251 52.0445C68.4069 51.5582 67.3295 51.0372 66.4838 50.7246C67.6307 49.0689 67.9435 45.769 67.6886 44.287C66.6229 47.7605 63.5993 50.3193 61.7458 51.4887C61.6415 51.5466 61.5604 51.6161 61.4909 51.6971C61.4909 51.6971 61.4909 51.7087 61.4793 51.7087C61.3982 51.7898 61.0391 52.2066 61.2129 52.7508C61.236 52.8897 61.2708 53.0286 61.3171 53.156C61.4561 53.8391 61.4446 54.8696 60.4715 55.8074C59.6605 56.6063 58.5832 56.6295 57.9924 56.5716V54.7422C57.9924 54.4991 57.7954 54.3023 57.5521 54.3023H56.3126L55.7565 53.677C55.7565 53.677 56.3589 53.7002 57.0192 53.6539C57.6912 53.6076 58.4441 53.2718 58.4441 53.2718C58.4441 53.2718 57.6912 53.2718 57.3204 53.1907C56.9497 53.1213 55.9882 52.7508 55.2352 51.8592C54.9572 51.535 54.7371 51.1645 54.5633 50.8172C53.8567 50.2383 53.1384 49.4278 52.6519 48.3163C52.3275 47.5984 52.1653 46.4753 52.0726 45.769C51.8409 45.9774 51.5513 46.2785 51.227 46.7069C50.6709 47.471 50.3581 48.5941 50.3465 48.6057L50.1148 49.4278L49.6746 48.6984C49.6746 48.6984 49.0722 47.7026 48.9796 46.429C48.9332 45.8732 48.9796 45.3175 49.0375 44.9007C48.8405 45.0164 48.6204 45.1554 48.3772 45.3291C47.3345 46.0585 46.8017 46.8806 46.7901 46.8806C46.2456 47.5753 45.9676 48.131 45.8517 48.4436C45.7243 48.131 45.4578 47.5753 44.9134 46.8806C44.9134 46.8806 44.3689 46.0585 43.3263 45.3291C43.083 45.1554 42.8629 45.0164 42.666 44.9007C42.7239 45.3291 42.7702 45.8848 42.7239 46.429C42.6312 47.691 42.052 48.652 42.0288 48.6984L41.5886 49.4278L41.3569 48.6057C41.3569 48.6057 41.0441 47.4826 40.4765 46.7069C40.1637 46.2785 39.8625 45.9659 39.6308 45.769C39.5497 46.4753 39.3759 47.5984 39.0516 48.3163C38.565 49.4278 37.8468 50.2383 37.1401 50.8172C36.9664 51.153 36.7462 51.5235 36.4682 51.8592C35.7152 52.7508 34.7653 53.1097 34.383 53.1907C34.0123 53.2602 33.2593 53.2718 33.2593 53.2718C33.2593 53.2718 34.0239 53.6076 34.6842 53.6539C35.3561 53.7002 35.9469 53.677 35.9469 53.677L35.3909 54.3023H34.1513C33.908 54.3023 33.7111 54.4991 33.7111 54.7422V56.5716C33.1203 56.6295 32.0429 56.5948 31.232 55.8074C30.2589 54.858 30.2473 53.8275 30.3863 53.156C30.4327 53.0286 30.4674 52.9013 30.4906 52.7508C30.6643 52.2066 30.3052 51.7898 30.2241 51.7087C30.2241 51.7087 30.2241 51.7087 30.2125 51.6971C30.143 51.6277 30.0619 51.5582 29.9577 51.4887C28.1042 50.3193 25.0806 47.7605 24.0148 44.287C23.7715 45.7806 24.0727 49.0804 25.2196 50.7246C24.3855 51.0487 23.3081 51.5698 22.5783 52.0445C23.0301 52.5655 24.0959 53.4686 24.8141 53.9549C24.2349 54.4759 23.3197 55.4717 22.8448 56.12C23.4472 56.479 24.6288 56.9537 25.5903 57.2084C25.1617 57.9147 24.5014 59.1999 24.3392 59.9525C25.3818 60.1609 26.4476 60.1609 27.3743 60.0567C27.2585 60.9482 27.328 62.0597 27.4323 62.8702C28.3938 62.7313 29.4596 62.3376 30.1662 61.9671C30.3052 62.5807 30.6643 63.7038 31.0003 64.3175C31.7649 63.5881 32.7496 63.1944 33.6995 63.2291V63.9933C32.7959 63.9933 31.7765 64.4448 30.7223 65.5911C30.6875 65.5332 29.9345 64.3522 29.6217 63.1365C29.0425 63.426 27.745 63.8775 26.6445 63.9701C26.4939 63.1597 26.3665 61.7934 26.4244 60.9135C25.2428 60.925 24.1075 60.8324 23.285 60.7051C23.424 59.7904 23.9337 58.4589 24.2928 57.7294C23.5746 57.4747 22.1613 56.9189 21.5125 56.4327C21.9527 55.7843 22.9374 54.6612 23.5167 54.0475C22.8216 53.5033 21.7211 52.5076 21.2113 51.8592C21.9875 51.2687 23.0765 50.7477 23.9916 50.4004C23.3545 49.1499 22.9722 47.1005 23.0765 45.9427C21.918 44.727 20.2151 42.8281 19.5779 40.4199C18.7438 43.4186 18.8597 47.5289 21.6631 49.4509C20.3077 49.4857 17.9213 49.752 16.7165 50.1341C17.539 51.1298 19.6938 52.5423 20.9796 53.156C19.9834 53.5381 18.1762 54.4991 17.4348 55.1938C18.3963 55.7958 20.5163 56.479 21.5241 56.699C20.9449 57.1737 19.7401 58.5399 19.2999 59.2809C20.134 59.5356 21.8369 59.7672 22.9259 59.8251C22.5783 60.5545 22.1844 61.8281 22.0802 62.6618C22.6131 62.7197 24.4087 62.6271 25.3007 62.4186C25.2196 63.1481 25.2544 64.468 25.3702 65.0353C26.2506 64.908 27.5018 64.5606 28.081 64.3291C28.2548 64.9774 28.8572 66.3784 29.0657 66.7026C29.4596 66.6216 29.8882 66.5058 30.3052 66.3553C31.4521 65.9384 32.8075 66.4247 33.294 67.5478C34.1397 69.5046 33.8153 71.8202 32.1588 71.3571C30.2589 71.6697 31.5564 74.0433 30.5022 74.7958C31.9734 75.7916 32.4136 73.4296 34.2092 73.8233C34.0123 74.7148 34.0355 76.2895 34.1745 76.9494C34.7653 76.4979 35.5994 76.1389 36.1323 76.1042C35.9932 76.6252 35.889 77.8294 36.0859 78.582C36.4682 78.2925 38.8546 77.6904 38.8546 77.6904C38.8546 77.6904 37.9163 79.6008 38.5187 81.4418C38.8315 81.6849 41.0325 80.6313 41.0557 79.9714C41.1252 80.7471 40.1869 82.4491 38.7851 82.7617C40.3259 84.2553 41.6697 84.1974 41.8782 84.1974C42.0867 84.1974 42.3068 84.1627 42.4922 84.0701C42.3763 84.5101 42.33 85.0542 42.4227 85.4247C42.5154 85.4247 42.608 85.4247 42.7007 85.4247C43.083 85.4247 43.4305 85.3668 43.7317 85.2163C43.7781 85.6216 43.9634 86.1079 44.2646 86.432C44.3226 86.5015 44.3805 86.5594 44.45 86.6057C44.7975 86.6057 45.6316 86.2005 45.817 85.9458C45.817 85.9458 45.817 85.9458 45.8286 85.9342C45.8286 85.9342 45.8286 85.9342 45.8401 85.9458C46.0255 86.2005 46.8596 86.6057 47.2071 86.6057C47.2766 86.5594 47.3345 86.4899 47.3925 86.432C47.6937 86.1079 47.879 85.61 47.9254 85.2163C48.2266 85.3668 48.5741 85.4247 48.9564 85.4247C49.0491 85.4247 49.1417 85.4247 49.2344 85.4247C49.3271 85.0542 49.2808 84.5101 49.1649 84.0701C49.3618 84.1627 49.5704 84.1974 49.7789 84.1974C49.9758 84.1974 51.3312 84.2553 52.872 82.7617C51.4702 82.4491 50.5319 80.7355 50.6014 79.9714C50.6246 80.6313 52.814 81.6849 53.1384 81.4418C53.7408 79.6008 52.8025 77.6904 52.8025 77.6904C52.8025 77.6904 55.1889 78.2925 55.5712 78.582C55.7681 77.8294 55.6639 76.6136 55.5248 76.1042C56.0693 76.1389 56.8918 76.4863 57.4826 76.9494C57.6216 76.2895 57.6448 74.7148 57.4479 73.8233C59.2435 73.4296 59.6837 75.7916 61.1549 74.7958C60.1007 74.0433 61.3982 71.6581 59.4983 71.3571C57.8533 71.8318 57.5174 69.5046 58.3631 67.5478C58.8496 66.4247 60.205 65.9384 61.3519 66.3553C61.7689 66.5058 62.1975 66.6331 62.5914 66.7026C62.7999 66.3668 63.4023 64.9774 63.5761 64.3291C64.1553 64.5491 65.4065 64.908 66.2869 65.0353C66.4028 64.468 66.4375 63.1365 66.3564 62.4186C67.2484 62.6155 69.044 62.7081 69.5769 62.6618C69.4727 61.8281 69.0788 60.543 68.7313 59.8251C69.8202 59.7672 71.5231 59.5356 72.3456 59.2809C71.9054 58.5399 70.7006 57.1737 70.1214 56.699C71.1177 56.479 73.2492 55.7958 74.2107 55.1938C73.4578 54.4991 71.6621 53.5265 70.6659 53.156H70.7238ZM56.9729 72.2602C56.915 72.3876 56.8339 72.5265 56.7412 72.677C56.7065 72.7233 56.6833 72.7696 56.6485 72.816C56.579 72.9202 56.5095 73.0244 56.4284 73.1286C56.3821 73.1865 56.3473 73.2444 56.301 73.3022C56.1967 73.4412 56.0693 73.5801 55.9419 73.7191C55.8608 73.8117 55.7681 73.9043 55.6754 73.9969C55.6059 74.0664 55.5364 74.1359 55.4553 74.2169C55.3511 74.3211 55.2468 74.4138 55.131 74.518C55.073 74.5759 55.0035 74.6222 54.9456 74.6801C54.6676 74.9232 54.3664 75.1548 54.042 75.3979C53.625 75.699 53.1732 75.9768 52.6982 76.2431C52.536 76.3358 52.3738 76.4284 52.2001 76.521C48.3772 78.4777 46.4889 79.9714 45.9328 80.4692H45.8865C45.3188 79.9829 43.4421 78.4777 39.6192 76.521C39.4455 76.4284 39.2833 76.3358 39.1211 76.2431C38.6461 75.9768 38.1943 75.6874 37.7773 75.3979C37.4529 75.1664 37.1517 74.9232 36.8737 74.6801C36.8042 74.6222 36.7462 74.5759 36.6767 74.518C36.5609 74.4138 36.4566 74.3211 36.3524 74.2169C36.2713 74.1475 36.2018 74.0664 36.1323 73.9969C36.0396 73.9043 35.9469 73.8117 35.8658 73.7191C35.7384 73.5801 35.6225 73.4412 35.5067 73.3022C35.4604 73.2444 35.414 73.1865 35.3793 73.1286C35.2982 73.0244 35.2171 72.9202 35.1592 72.816C35.1244 72.7696 35.0897 72.7233 35.0665 72.677C34.9738 72.5381 34.8927 72.3991 34.8348 72.2602C34.3367 71.1487 34.4177 70.2456 34.4177 70.234V70.1993V55.3675C34.4177 55.1243 34.6147 54.9275 34.858 54.9275H56.9729C57.2162 54.9275 57.4131 55.1243 57.4131 55.3675V70.1993V70.234C57.4131 70.234 57.4942 71.1487 56.9961 72.2602H56.9729Z" fill="white"/>
<path d="M56.4864 31.493C56.7876 31.493 57.0308 31.2383 57.0308 30.9372C57.0308 30.6362 56.7876 30.3815 56.4864 30.3815C56.1852 30.3815 55.9419 30.6362 55.9419 30.9372C55.9419 31.2383 56.1852 31.493 56.4864 31.493Z" fill="white"/>
<path d="M56.4864 34.6654C56.8571 34.6654 57.1699 33.2297 57.1699 32.5234C57.1699 32.1298 56.8687 31.8751 56.4864 31.8751C56.1041 31.8751 55.8029 32.1298 55.8029 32.5234C55.8029 33.2413 56.1041 34.6654 56.4864 34.6654Z" fill="white"/>
<path d="M56.1272 29.4668H56.8571L56.7644 28.5405L57.668 28.6332V27.8806L56.7644 27.9732L56.8571 27.0469H56.1272L56.2199 27.9732L55.3163 27.8806V28.6332L56.2199 28.5405L56.1272 29.4668Z" fill="white"/>
<path d="M53.1732 36.3443C53.4165 36.4022 53.6713 36.4485 53.9493 36.4833C53.9725 36.4833 53.9957 36.4833 54.0189 36.4833H54.0304H54.0652H54.0768H54.0884H54.1115H54.1347H54.239C54.239 36.4833 54.3201 36.4833 54.3548 36.4948H54.4938C54.5749 36.5064 54.656 36.518 54.7255 36.518C54.7834 36.518 54.8298 36.518 54.8877 36.518C54.9572 36.518 55.0383 36.518 55.1078 36.518C55.7797 36.4948 56.498 36.3327 57.1351 36.1822C57.7838 36.0317 58.5253 35.8696 59.2898 35.8233H59.3478C59.3478 35.8233 59.4173 35.8233 59.4636 35.8233H59.4868H59.5099H59.5563C59.5563 35.8233 59.5794 35.8233 59.591 35.8233H59.6605H59.6837H59.8111H59.8343H59.8459C59.8459 35.8233 59.9038 35.8233 59.9386 35.8233C60.1471 35.0939 60.344 34.1908 60.344 33.716C60.344 32.6971 59.7764 31.5741 57.807 31.2383C57.807 32.4887 57.2162 35.4644 56.498 35.4644H56.4169C55.6986 35.4644 55.0962 32.4656 55.0962 31.2383C53.1268 31.5856 52.5824 32.7087 52.5824 33.716C52.5824 34.2718 52.8488 35.4181 53.0921 36.1822C53.1037 36.217 53.1268 36.2633 53.1384 36.3096L53.1732 36.3443Z" fill="white"/>
<path d="M63.3908 30.9951H63.4255C63.4255 30.9951 62.8463 29.6057 63.7731 29.2352C64.6998 28.8647 63.4487 29.1079 64.109 27.1974C64.8968 24.9513 66.5997 25.4723 66.5997 25.4723C65.4181 24.5113 64.4913 24.6039 63.8426 25.1134C63.4371 25.426 62.8463 26.0975 62.4177 27.4522C61.8732 29.2236 62.464 30.833 63.3908 30.9951Z" fill="white"/>
<path d="M67.7813 27.6837C67.8624 30.4857 72.5773 31.6551 72.5773 31.6551C72.5773 31.6551 69.855 29.7099 70.3994 28.2627C70.3994 28.2627 72.1834 29.0384 74.2455 28.7026C69.8781 27.7995 71.3146 26.4449 70.2604 25.3102C69.183 24.1524 67.4338 24.0134 67.0283 23.9903C65.9394 23.9208 65.8583 23.9324 64.5724 24.2102C67.4222 24.2797 67.7234 25.8081 67.7697 27.6837H67.7813Z" fill="white"/>
<path d="M67.1326 32.9518C67.7582 30.7172 66.6229 29.7562 66.6229 29.7562C66.2753 29.3741 64.4913 29.3973 63.8657 29.8373C63.8657 29.8373 65.5571 29.8025 65.3138 32.2803C65.0705 34.7465 61.6647 35.2443 60.7263 35.3601L60.6221 35.6612C62.2207 35.6612 66.5186 35.1865 67.1326 32.9403V32.9518Z" fill="white"/>
<path d="M49.4314 32.8824H47.6937C48.5393 35.2212 50.9605 36.0317 52.6171 36.2401L52.536 35.9854C50.8794 35.337 49.9874 34.6654 49.4314 32.8824Z" fill="white"/>
<path d="M35.2866 31.493C35.5878 31.493 35.8311 31.2383 35.8311 30.9372C35.8311 30.6362 35.5878 30.3815 35.2866 30.3815C34.9854 30.3815 34.7421 30.6362 34.7421 30.9372C34.7421 31.2383 34.9854 31.493 35.2866 31.493Z" fill="white"/>
<path d="M35.2866 34.6654C35.6573 34.6654 35.9701 33.2297 35.9701 32.5234C35.9701 32.1298 35.6689 31.8751 35.2866 31.8751C34.9043 31.8751 34.6031 32.1298 34.6031 32.5234C34.6031 33.2413 34.9043 34.6654 35.2866 34.6654Z" fill="white"/>
<path d="M34.9275 29.4668H35.6573L35.5646 28.5405L36.4682 28.6332V27.8806L35.5646 27.9732L35.6573 27.0469H34.9275L35.0202 27.9732L34.1166 27.8806V28.6332L35.0202 28.5405L34.9275 29.4668Z" fill="white"/>
<path d="M31.8923 35.858H31.9039H31.9271H31.9734H32.0777H32.1356C32.1356 35.858 32.1588 35.858 32.1703 35.858H32.263C32.263 35.858 32.3441 35.858 32.3789 35.858H32.4368C33.1898 35.9043 33.9312 36.0664 34.5915 36.2169C35.2287 36.3559 35.9469 36.5296 36.6188 36.5527C36.6883 36.5527 36.7694 36.5527 36.8389 36.5527C36.8968 36.5527 36.9432 36.5527 37.0011 36.5527C37.0706 36.5527 37.1517 36.5527 37.2328 36.5411H37.3718C37.3718 36.5411 37.4529 36.518 37.4877 36.518H37.5919H37.6151H37.6383H37.6498H37.6614H37.6962H37.7078C37.7078 36.518 37.7541 36.518 37.7773 36.518C38.0553 36.4832 38.3102 36.4369 38.5534 36.379C38.565 36.3327 38.5882 36.2864 38.5998 36.2517C38.8431 35.4991 39.1095 34.3413 39.1095 33.7855C39.1095 32.7666 38.565 31.6435 36.5957 31.3077C36.5957 32.535 36.0048 35.5338 35.275 35.5338H35.1939C34.4757 35.5338 33.8849 32.5582 33.8849 31.3077C31.9039 31.6551 31.3478 32.7782 31.3478 33.7855C31.3478 34.2602 31.5448 35.1633 31.7533 35.8927C31.7881 35.8927 31.8112 35.8927 31.846 35.8927L31.8923 35.858Z" fill="white"/>
<path d="M25.1733 25.4839C25.1733 25.4839 26.8878 24.9629 27.664 27.209C28.3243 29.1079 27.0731 28.8763 27.9999 29.2468C28.9267 29.6173 28.3475 30.9951 28.3475 30.9951H28.3822C29.309 30.8446 29.8998 29.2352 29.3553 27.4638C28.9267 26.1091 28.3359 25.4376 27.9304 25.1249C27.2701 24.6155 26.3433 24.5229 25.1733 25.4839Z" fill="white"/>
<path d="M21.3735 28.2627C21.918 29.7099 19.1956 31.6551 19.1956 31.6551C19.1956 31.6551 23.9106 30.4857 23.9916 27.6837C24.0496 25.8196 24.3508 24.2797 27.189 24.2102C25.9031 23.9324 25.822 23.9208 24.7331 23.9903C24.3276 24.0134 22.5899 24.1524 21.501 25.3102C20.4468 26.4449 21.8833 27.7995 17.5159 28.7026C19.5779 29.0268 21.3619 28.2627 21.3619 28.2627H21.3735Z" fill="white"/>
<path d="M26.4823 32.2803C26.2391 29.8025 27.9304 29.8373 27.9304 29.8373C27.3048 29.3973 25.5092 29.3741 25.1733 29.7562C25.1733 29.7562 24.038 30.7172 24.6636 32.9518C25.2891 35.1865 29.5754 35.6727 31.1741 35.6727L31.0698 35.3717C30.1315 35.2559 26.7372 34.7581 26.4823 32.2919V32.2803Z" fill="white"/>
<path d="M44.0793 32.8824H42.3416C41.7856 34.6654 40.8935 35.337 39.2369 35.9854L39.1559 36.2401C40.8009 36.0317 43.2336 35.2212 44.0793 32.8824Z" fill="white"/>
<path d="M48.0991 43.2913C47.5778 44.0786 47.1724 44.9354 46.8596 45.7459C47.1492 45.4448 47.5199 45.0975 47.9949 44.7617C48.771 44.2175 49.4082 43.9397 49.4314 43.9281L50.1033 43.6386L49.9295 44.3565C49.9295 44.3565 49.6746 45.4217 49.7557 46.4174C49.7905 46.8458 49.8832 47.2395 49.9874 47.5521C50.1496 47.1584 50.3813 46.7069 50.6593 46.3132C51.4702 45.2017 52.2001 44.8196 52.2232 44.7964L52.7214 44.5417L52.7561 45.0975C52.7561 45.0975 52.8952 47.0774 53.3354 48.0615C54.0999 49.7983 55.5133 50.713 56.3937 51.1529C56.2778 51.0372 56.1272 50.8982 55.9651 50.713C55.5712 50.273 55.1078 49.5088 54.8877 47.8879C54.7023 46.5216 55.2468 45.1438 55.4206 44.7386C55.5133 45.1091 55.6639 45.4101 55.8492 45.5259C55.8492 45.5259 55.826 45.2133 55.9071 44.8428C56.0462 43.8933 57.1119 42.5039 58.4442 41.5893C58.7338 41.3924 58.9539 41.2651 59.1624 41.1377C59.3709 41.0103 59.5679 40.9061 59.7996 40.7325C59.5331 40.7788 59.174 40.8251 58.9886 40.8367H58.9075C58.7222 40.8598 58.4557 40.883 58.143 40.883C57.5058 40.883 56.6949 40.7788 56.1041 40.2925C55.5248 39.8178 55.2584 39.2504 55.1426 38.9031C54.8993 38.9031 54.5286 38.9147 54.0884 38.8799C53.5902 38.8336 53.1384 38.741 52.8604 38.6831C52.2001 39.0999 51.4934 39.2852 50.6477 39.3199C50.5551 39.3199 50.3813 39.3199 50.2655 39.3083C50.5435 39.5283 50.8331 39.7136 51.1575 39.8641C51.169 39.8641 51.1922 39.8757 51.2038 39.8873L51.0069 39.9683C51.0069 39.9683 49.8832 40.6167 48.0991 43.3144V43.2913Z" fill="white"/>
<path d="M59.1856 38.5558C58.8844 38.5326 58.5716 38.521 58.2356 38.5326C58.224 38.7294 58.2356 38.9147 58.2588 39.0768C58.3167 39.3315 58.4326 39.5284 58.5832 39.6673C58.8728 39.4473 59.1045 39.0884 59.1856 38.5558Z" fill="white"/>
<path d="M59.8459 36.5874H59.8227C59.8227 36.5874 59.8227 36.5874 59.8111 36.5874H59.7416C59.7416 36.5874 59.7069 36.5874 59.6953 36.5874H59.6142C59.6142 36.5874 59.6026 36.5874 59.591 36.5874H59.5447C59.5447 36.5874 59.5331 36.5874 59.5215 36.5874C59.4636 36.5874 59.4057 36.5874 59.3362 36.5874C58.6643 36.6222 57.9808 36.7727 57.3205 36.9232C56.6138 37.0853 55.884 37.2474 55.1657 37.2706C55.0151 37.2706 54.8761 37.2706 54.7255 37.2706C54.6328 37.2706 54.5517 37.2706 54.4707 37.259C54.4243 37.259 54.3664 37.259 54.3201 37.259C54.2621 37.259 54.2042 37.259 54.1579 37.2474C54.1579 37.2474 54.1347 37.2474 54.1231 37.2474C54.1231 37.2474 54.0999 37.2474 54.0884 37.2474C54.0652 37.2474 54.0536 37.2474 54.0304 37.2474C54.0304 37.2474 54.0073 37.2474 53.9957 37.2474H53.9725C53.9609 37.2474 53.9493 37.2474 53.9262 37.2474C53.9262 37.2474 53.9146 37.2474 53.903 37.2474C53.903 37.2474 53.8914 37.2474 53.8798 37.2474C52.3854 37.0506 51.3197 36.5643 50.8331 36.3096C50.9374 36.4601 51.0995 36.6569 51.3081 36.8653C51.3892 36.9464 51.4818 37.039 51.5745 37.1201C51.7714 37.2937 52.0031 37.4558 52.258 37.6179C52.6403 37.8032 54.0304 38.3821 55.8956 38.1158C58.0271 37.8147 58.4094 37.8379 58.9307 37.8726H59.1161C59.8575 37.9305 60.958 38.4168 61.3982 38.6947C61.6067 38.2895 61.7805 37.8495 61.9079 37.3864C61.7921 37.2706 61.6299 37.1432 61.3519 36.9811C61.2592 36.9348 61.1665 36.8885 61.0391 36.8422C60.8306 36.7611 60.5873 36.7032 60.2861 36.6685C60.1471 36.6453 60.0081 36.6338 59.8459 36.6338H59.8227L59.8459 36.5874Z" fill="white"/>
<path d="M65.8004 43.5923C65.8004 43.5923 65.8004 43.5344 65.7656 43.5576C65.7309 43.5807 64.9895 44.0207 63.3792 42.9671C61.7805 41.925 60.5526 41.4851 59.8922 41.3809C59.7416 41.4735 59.6026 41.5661 59.452 41.6472C59.2551 41.7629 59.0466 41.8787 58.7801 42.064C58.699 42.1219 58.6179 42.1798 58.5484 42.2492C58.5832 42.2724 58.6295 42.284 58.7106 42.2955C60.2166 42.4229 61.3982 43.3492 61.5372 43.6618C61.5488 43.6965 61.5836 43.6965 61.5952 43.6618C61.7574 43.1639 61.5488 42.7587 61.5488 42.7587C61.5488 42.7587 62.2555 43.1871 63.6109 43.986C64.9779 44.7849 65.5919 43.8933 65.812 43.6039L65.8004 43.5923Z" fill="white"/>
<path d="M57.7028 39.3778C57.5985 39.2736 57.5058 39.1462 57.4479 39.0073C57.39 38.8683 57.3436 38.7526 57.3205 38.6368C56.9845 38.6715 56.5559 38.7294 56.0114 38.8105C55.9071 38.822 55.7913 38.8336 55.687 38.8452C55.9187 39.3315 56.3705 39.8641 57.251 40.0725C57.3089 40.0841 57.3668 40.0956 57.4247 40.1072C57.4827 40.1072 57.5406 40.1304 57.5985 40.1304C57.9692 40.1767 58.3283 40.1999 58.6527 40.1999C59.2203 40.1999 59.927 40.1188 60.5757 39.9451C60.7263 39.7599 60.8653 39.563 61.0159 39.3431C60.9696 39.3199 60.9233 39.2967 60.8653 39.262C60.7147 39.1694 60.2514 38.9031 60.0544 38.822C59.9617 39.0652 59.8343 39.3199 59.6258 39.4704C59.3825 39.6441 59.0582 39.7483 58.7106 39.7483C58.3631 39.7483 58.0619 39.6441 57.8302 39.4704C57.7838 39.4357 57.7491 39.4009 57.7028 39.3662V39.3778Z" fill="white"/>
<path d="M62.2786 38.1505C61.7805 39.4704 60.9464 40.5241 60.344 41.0335C64.1553 40.0146 64.8157 41.9482 64.8157 42.0177C64.8157 42.0871 64.8504 42.1219 64.9083 42.0524C64.9894 41.9598 66.2522 40.582 65.337 39.3315C64.5724 38.2779 62.8115 38.1621 62.2671 38.1621L62.2786 38.1505ZM62.2323 39.1462C62.3597 38.961 62.4872 38.6252 62.4872 38.6252C62.7768 38.6252 63.2865 38.7178 63.2865 39.0768C62.939 39.0073 62.5219 39.0189 62.2323 39.1578V39.1462Z" fill="white"/>
<path d="M33.5142 39.0768C33.5489 38.9147 33.5489 38.7294 33.5373 38.5326C33.2014 38.5326 32.8886 38.5326 32.5874 38.5557C32.6685 39.0999 32.9002 39.4589 33.1898 39.6673C33.3288 39.5167 33.4562 39.3315 33.5142 39.0768Z" fill="white"/>
<path d="M37.8584 37.2127C37.8584 37.2127 37.8468 37.2127 37.8352 37.2127C37.8236 37.2127 37.8004 37.2127 37.7889 37.2127H37.7657C37.7657 37.2127 37.7425 37.2127 37.7309 37.2127C37.7194 37.2127 37.6962 37.2127 37.673 37.2127C37.673 37.2127 37.6498 37.2127 37.6383 37.2127C37.6383 37.2127 37.6151 37.2127 37.6035 37.2127C37.5456 37.2127 37.4877 37.2243 37.4413 37.2243C37.395 37.2243 37.3486 37.2243 37.2907 37.2243C37.2096 37.2243 37.117 37.2242 37.0359 37.2358C36.8853 37.2358 36.7463 37.2358 36.5957 37.2358C35.8658 37.2127 35.136 37.0506 34.4409 36.8885C33.7806 36.738 33.0971 36.5874 32.4252 36.5527C32.3673 36.5527 32.3094 36.5527 32.2399 36.5527C32.2399 36.5527 32.2283 36.5527 32.2167 36.5527H32.1703C32.1703 36.5527 32.1703 36.5527 32.1472 36.5527H32.0661C32.0661 36.5527 32.0313 36.5527 32.0197 36.5527H31.9502C31.9502 36.5527 31.9502 36.5527 31.9387 36.5527H31.8923C31.7301 36.5527 31.5911 36.5759 31.4521 36.5874C31.1509 36.6222 30.896 36.6916 30.6991 36.7611C30.5833 36.8074 30.479 36.8422 30.3863 36.9001C30.1083 37.0506 29.9461 37.1895 29.8303 37.3053C29.9461 37.7684 30.1315 38.2084 30.34 38.6136C30.7918 38.3473 31.8923 37.8495 32.6221 37.8032H32.8075C33.3288 37.7569 33.7111 37.7221 35.8427 38.0347C37.7078 38.301 39.0979 37.7221 39.4802 37.5369C39.7351 37.3748 39.9668 37.2127 40.1637 37.039C40.2564 36.9579 40.3491 36.8653 40.4301 36.7843C40.6387 36.5759 40.8009 36.379 40.9051 36.2285C40.4186 36.4832 39.3528 36.9695 37.8584 37.1664C37.8584 37.1664 37.8468 37.1664 37.8352 37.1664L37.8584 37.2127Z" fill="white"/>
<path d="M25.9726 43.5923C26.1927 43.8818 26.8183 44.7733 28.1737 43.9744C29.5406 43.1755 30.2357 42.7471 30.2357 42.7471C30.2357 42.7471 30.0272 43.1523 30.1894 43.6502C30.1894 43.6733 30.2357 43.6733 30.2473 43.6502C30.3863 43.326 31.5679 42.4113 33.0739 42.2839C33.155 42.2839 33.2014 42.2608 33.2361 42.2376C33.155 42.1797 33.0855 42.1103 33.0044 42.0524C32.738 41.8671 32.5295 41.7398 32.3325 41.6356C32.1935 41.5545 32.0429 41.4619 31.8923 41.3693C31.2436 41.485 30.004 41.925 28.4054 42.9555C26.7951 44.0091 26.0421 43.5691 26.0189 43.546C25.9958 43.5228 25.9494 43.5344 25.9842 43.5807L25.9726 43.5923Z" fill="white"/>
<path d="M31.7186 38.822C31.5216 38.9031 31.0467 39.1694 30.9077 39.262C30.8497 39.2967 30.8034 39.3199 30.757 39.3431C30.8961 39.563 31.0467 39.7599 31.1973 39.9451C31.846 40.1188 32.5642 40.1999 33.1203 40.1999C33.4447 40.1999 33.7922 40.1767 34.1745 40.1304C34.2324 40.1304 34.2903 40.1188 34.3483 40.1072C34.4062 40.1072 34.4641 40.0841 34.522 40.0725C35.4025 39.8641 35.8543 39.3315 36.086 38.8452C35.9817 38.8452 35.8774 38.822 35.7616 38.8105C35.2171 38.7294 34.8001 38.6831 34.4525 38.6368C34.4294 38.7526 34.383 38.8683 34.3251 39.0073C34.2556 39.1462 34.1745 39.2736 34.0702 39.3778C34.0355 39.4125 33.9891 39.4473 33.9428 39.482C33.7111 39.6557 33.3983 39.7599 33.0624 39.7599C32.7264 39.7599 32.3905 39.6557 32.1472 39.482C31.9387 39.3315 31.8112 39.0768 31.7186 38.8336V38.822Z" fill="white"/>
<path d="M26.436 39.3315C25.5208 40.582 26.7835 41.9598 26.8646 42.0524C26.9226 42.1219 26.9689 42.0871 26.9573 42.0177C26.9573 41.9482 27.6176 40.0146 31.429 41.0335C30.8266 40.5241 29.9925 39.482 29.4943 38.1505C28.9499 38.1505 27.189 38.2663 26.4244 39.3199L26.436 39.3315ZM29.5407 39.1462C29.2395 39.0189 28.834 38.9957 28.4865 39.0652C28.4865 38.7179 28.9962 38.6136 29.2858 38.6136C29.2858 38.6136 29.4132 38.9494 29.5407 39.1347V39.1462Z" fill="white"/>
<path d="M41.5075 39.2968C41.4033 39.2968 41.2295 39.32 41.1252 39.3084C40.2796 39.2621 39.5729 39.0884 38.9126 38.6716C38.6345 38.741 38.1827 38.8337 37.6846 38.8684C37.2444 38.9031 36.8737 38.9031 36.6304 38.8916C36.5146 39.2389 36.2481 39.8062 35.6689 40.281C35.0781 40.7672 34.2672 40.8714 33.63 40.8714C33.3172 40.8714 33.0508 40.8483 32.8654 40.8367H32.7843C32.599 40.8136 32.2399 40.7672 31.9734 40.7209C32.2051 40.8946 32.3905 40.9988 32.6106 41.1262C32.8191 41.242 33.0392 41.3809 33.3288 41.5777C34.6495 42.504 35.7268 43.8818 35.8658 44.8312C35.9469 45.1902 35.9238 45.5143 35.9238 45.5143C36.0975 45.3986 36.2597 45.0975 36.3524 44.727C36.5262 45.1323 37.0822 46.5217 36.8853 47.8763C36.6536 49.4973 36.2018 50.2615 35.8079 50.7014C35.6457 50.8867 35.5067 51.0256 35.3793 51.1414C36.2597 50.713 37.673 49.7867 38.4376 48.05C38.8778 47.0658 39.0168 45.1091 39.0168 45.0859L39.0516 44.5302L39.5497 44.7849C39.5497 44.7849 40.3027 45.1786 41.1136 46.3017C41.4033 46.6953 41.6234 47.1469 41.7856 47.5406C41.8898 47.2279 41.9941 46.8343 42.0172 46.4059C42.0983 45.4101 41.8435 44.3565 41.8435 44.3449L41.6697 43.6271L42.3416 43.9165C42.3416 43.9165 43.0019 44.206 43.7781 44.7502C44.2531 45.086 44.6354 45.4333 44.9134 45.7343C44.6006 44.9239 44.1951 44.0671 43.6738 43.2797C41.8898 40.5936 40.7661 39.9336 40.7661 39.9336L40.5692 39.8526C40.5692 39.8526 40.5923 39.841 40.6155 39.8294C40.9399 39.6789 41.2295 39.4936 41.5075 39.2736V39.2968Z" fill="white"/>
</svg>
