<svg width="140" height="89" viewBox="0 0 140 89" fill="none" xmlns="http://www.w3.org/2000/svg">
<path d="M118.188 83.2621C119.022 80.5759 119.521 78.8855 119.694 78.2023C119.741 78.3992 119.81 78.6539 119.903 78.9897C119.996 79.3254 120.447 80.7496 121.224 83.2621H118.177H118.188ZM125.348 88.1134L121.2 76.3845H118.165L114.041 88.1134H116.717L117.563 85.3346H121.826L122.672 88.1134H125.348ZM111.921 76.4309H109.454V81.0159H104.82V76.4309H102.341V88.1134H104.82V83.0652H109.454V88.1134H111.921V76.4309ZM93.0498 83.2621C93.8839 80.5759 94.382 78.8855 94.5558 78.2023C94.6022 78.3992 94.6717 78.6539 94.7643 78.9897C94.857 79.3254 95.3088 80.7496 96.085 83.2621H93.0382H93.0498ZM100.209 88.1134L96.0618 76.3845H93.0266L88.9025 88.1134H91.5786L92.4243 85.3346H96.6874L97.5331 88.1134H100.209ZM87.2576 77.3455C86.5161 76.7319 85.4388 76.4309 84.0255 76.4309H80.2952V88.1134H82.7743V83.9568H83.8401C85.2882 83.9568 86.4119 83.621 87.1996 82.961C87.9874 82.2895 88.3812 81.3285 88.3812 80.078C88.3812 78.8276 88.0106 77.9592 87.2691 77.3455M82.7627 78.4571H83.8864C84.5583 78.4571 85.0565 78.596 85.3809 78.8739C85.6936 79.1518 85.8558 79.5802 85.8558 80.1591C85.8558 80.738 85.6705 81.178 85.2882 81.479C84.9059 81.78 84.3382 81.9305 83.5737 81.9305H82.7627V78.4571ZM74.8041 78.4918H77.9783V76.4309H69.1509V78.4918H72.325V88.1134H74.8041V78.4918ZM65.6755 78.5613C66.1157 78.7118 66.5559 78.897 66.9961 79.1054L67.7955 77.0908C66.6486 76.5466 65.5133 76.2688 64.378 76.2688C63.2427 76.2688 62.2928 76.5119 61.4587 76.9982C60.6246 77.4845 59.9991 78.1908 59.5473 79.1054C59.1071 80.0201 58.8869 81.0853 58.8869 82.3011C58.8869 84.2346 59.3387 85.7051 60.2423 86.7355C61.1459 87.766 62.4434 88.287 64.1463 88.287C65.3279 88.287 66.4053 88.0902 67.3669 87.685V85.6124C66.1968 86.0177 65.2005 86.2261 64.378 86.2261C62.4202 86.2261 61.4471 84.9178 61.4471 82.3126C61.4471 81.0622 61.702 80.0896 62.2117 79.3833C62.7214 78.6886 63.4397 78.3297 64.378 78.3297C64.8067 78.3297 65.2353 78.4107 65.6871 78.5613M48.7389 81.6179H47.5804C46.8737 81.6179 46.3525 81.4674 46.0165 81.1664C45.6806 80.8653 45.5068 80.4601 45.5068 79.9391C45.5068 79.4181 45.6805 79.0244 46.0396 78.7928C46.3872 78.5613 46.8853 78.4455 47.5225 78.4455H48.7505V81.6064L48.7389 81.6179ZM48.7389 83.6326V88.1134H51.218V76.4309H47.4066C45.9817 76.4309 44.8928 76.7203 44.1282 77.2992C43.3636 77.8781 42.9929 78.7002 42.9929 79.777C42.9929 80.5296 43.1667 81.1895 43.5258 81.7453C43.8733 82.3011 44.3831 82.7179 45.0434 82.9842L41.7186 88.1249H44.4641L47.1981 83.6441H48.7389V83.6326ZM32.7985 79.3023C33.2966 78.6423 34.038 78.3065 35.0343 78.3065C37.0037 78.3065 37.9883 79.6265 37.9883 82.2547C37.9883 84.883 37.0037 86.1914 35.0227 86.1914C34.038 86.1914 33.2966 85.8556 32.7985 85.1956C32.3003 84.5357 32.057 83.5515 32.057 82.2432C32.057 80.9348 32.3119 79.9507 32.8101 79.2907M39.1584 77.7971C38.2085 76.7666 36.8299 76.2456 35.0343 76.2456C33.2387 76.2456 31.8601 76.7551 30.8986 77.7855C29.9371 78.816 29.4505 80.298 29.4505 82.2432C29.4505 84.1883 29.9255 85.6819 30.887 86.724C31.8485 87.766 33.2271 88.287 35.0112 88.287C36.7952 88.287 38.1737 87.766 39.1353 86.724C40.0968 85.6819 40.5717 84.1999 40.5717 82.2663C40.5717 80.3327 40.0967 78.8391 39.1468 77.8087M21.3645 88.1134L24.3765 78.9665H24.446C24.3765 80.437 24.3417 81.3401 24.3417 81.6874C24.3417 82.0232 24.3302 82.3242 24.3302 82.5905V88.1249H26.6355V76.4424H23.2644L20.3335 85.3809H20.2871L17.5184 76.4424H14.1473V88.1249H16.36V82.6947C16.36 82.0695 16.3136 80.8306 16.2094 78.9665H16.2789L19.0939 88.1365H21.3645V88.1134Z" fill="white"/>
<path d="M94.9844 56.1572C93.0034 56.1572 91.3932 54.5826 91.3932 52.6258C91.3932 50.6691 93.0034 49.0945 94.9844 49.0945C96.9654 49.0945 98.5757 50.6691 98.5757 52.6258C98.5757 54.5826 96.9654 56.1572 94.9844 56.1572ZM94.9497 45.2736C90.536 45.2736 86.9679 48.9092 86.9679 53.0195C86.9679 59.0518 94.9497 68.2566 94.9497 68.2566C94.9497 68.2566 102.931 59.0518 102.931 53.0195C102.931 48.9208 99.3634 45.2736 94.9497 45.2736Z" fill="white"/>
<path d="M111.284 46.964C109.674 46.964 108.376 45.6788 108.376 44.1042C108.376 42.5295 109.674 41.2443 111.284 41.2443C112.894 41.2443 114.192 42.5295 114.192 44.1042C114.192 45.6788 112.894 46.964 111.284 46.964ZM111.249 38.1414C107.681 38.1414 104.785 41.0938 104.785 44.4168C104.785 49.3028 111.249 56.7593 111.249 56.7593C111.249 56.7593 117.713 49.3028 117.713 44.4168C117.713 41.0938 114.817 38.1414 111.249 38.1414Z" fill="white"/>
<path d="M122 54.7794C120.945 54.7794 120.077 53.9342 120.077 52.8921C120.077 51.8501 120.934 51.0049 122 51.0049C123.065 51.0049 123.923 51.8501 123.923 52.8921C123.923 53.9342 123.065 54.7794 122 54.7794ZM121.976 48.9555C119.613 48.9555 117.702 50.9007 117.702 53.1005C117.702 56.3309 121.976 61.2517 121.976 61.2517C121.976 61.2517 126.251 56.3309 126.251 53.1005C126.251 50.9007 124.34 48.9555 121.976 48.9555Z" fill="white"/>
<path d="M83.62 61.7611C82.6816 61.7611 81.9287 61.0201 81.9287 60.0939C81.9287 59.1676 82.6816 58.4266 83.62 58.4266C84.5583 58.4266 85.3113 59.1676 85.3113 60.0939C85.3113 61.0201 84.5583 61.7611 83.62 61.7611ZM83.6084 56.632C81.5347 56.632 79.8434 58.3455 79.8434 60.2791C79.8434 63.1158 83.6084 67.4577 83.6084 67.4577C83.6084 67.4577 87.3734 63.1158 87.3734 60.2791C87.3734 58.3455 85.6936 56.632 83.6084 56.632Z" fill="white"/>
<path d="M71.1434 61.3096C70.0312 61.3096 69.1277 60.4181 69.1277 59.3181C69.1277 58.2182 70.0312 57.3267 71.1434 57.3267C72.2555 57.3267 73.1591 58.2182 73.1591 59.3181C73.1591 60.4181 72.2555 61.3096 71.1434 61.3096ZM71.1202 55.1731C68.6411 55.1731 66.6254 57.2225 66.6254 59.5381C66.6254 62.9306 71.1202 68.1176 71.1202 68.1176C71.1202 68.1176 75.6151 62.9306 75.6151 59.5381C75.6151 57.2225 73.5993 55.1731 71.1202 55.1731Z" fill="white"/>
<path d="M55.8402 57.6161C54.728 57.6161 53.8245 56.7246 53.8245 55.6247C53.8245 54.5247 54.728 53.6332 55.8402 53.6332C56.9523 53.6332 57.8559 54.5247 57.8559 55.6247C57.8559 56.7246 56.9523 57.6161 55.8402 57.6161ZM55.8286 51.4796C53.3495 51.4796 51.3337 53.529 51.3337 55.8446C51.3337 59.2371 55.8286 64.4242 55.8286 64.4242C55.8286 64.4242 60.3234 59.2371 60.3234 55.8446C60.3234 53.529 58.3077 51.4796 55.8286 51.4796Z" fill="white"/>
<path d="M62.6751 63.3011C62.0147 63.3011 61.4819 62.7685 61.4819 62.1201C61.4819 61.4717 62.0147 60.9391 62.6751 60.9391C63.3354 60.9391 63.8683 61.4601 63.8683 62.1201C63.8683 62.78 63.3354 63.3011 62.6751 63.3011ZM62.6635 59.6655C61.1923 59.6655 59.999 60.8812 59.999 62.2474C59.999 64.2621 62.6635 67.3303 62.6635 67.3303C62.6635 67.3303 65.328 64.2621 65.328 62.2474C65.328 60.8812 64.1348 59.6655 62.6635 59.6655Z" fill="white"/>
<path d="M2.9566 43.2822C2.28469 43.2822 1.74023 42.7496 1.74023 42.0896C1.74023 41.4297 2.28469 40.897 2.9566 40.897C3.6285 40.897 4.17296 41.4297 4.17296 42.0896C4.17296 42.7496 3.6285 43.2822 2.9566 43.2822ZM2.945 39.6003C1.45059 39.6003 0.234253 40.8392 0.234253 42.2286C0.234253 44.2779 2.945 47.3925 2.945 47.3925C2.945 47.3925 5.65582 44.2663 5.65582 42.2286C5.65582 40.8392 4.43941 39.6003 2.945 39.6003Z" fill="white"/>
<path d="M9.14276 52.7648C7.94955 52.7648 6.97645 51.8154 6.97645 50.6344C6.97645 49.4534 7.94955 48.504 9.14276 48.504C10.336 48.504 11.3091 49.4534 11.3091 50.6344C11.3091 51.8154 10.336 52.7648 9.14276 52.7648ZM9.11957 46.1999C6.45511 46.1999 4.30042 48.3998 4.30042 50.8775C4.30042 54.5131 9.11957 60.0707 9.11957 60.0707C9.11957 60.0707 13.9388 54.5131 13.9388 50.8775C13.9388 48.3998 11.784 46.1999 9.11957 46.1999Z" fill="white"/>
<path d="M22.3608 45.5631C21.5846 45.5631 20.9591 44.9494 20.9591 44.1853C20.9591 43.4211 21.5846 42.8074 22.3608 42.8074C23.1369 42.8074 23.7625 43.4211 23.7625 44.1853C23.7625 44.9494 23.1369 45.5631 22.3608 45.5631ZM22.3492 41.3138C20.6231 41.3138 19.2329 42.738 19.2329 44.3358C19.2329 46.6978 22.3492 50.287 22.3492 50.287C22.3492 50.287 25.4654 46.6862 25.4654 44.3358C25.4654 42.7264 24.0637 41.3138 22.3492 41.3138Z" fill="white"/>
<path d="M99.9657 31.7733C98.0775 31.7733 96.5483 30.2682 96.5483 28.4156C96.5483 26.5631 98.0775 25.0579 99.9657 25.0579C101.854 25.0579 103.383 26.5631 103.383 28.4156C103.383 30.2682 101.854 31.7733 99.9657 31.7733ZM99.931 21.3992C95.7258 21.3992 92.3315 24.8727 92.3315 28.7746C92.3315 34.5174 99.931 43.2822 99.931 43.2822C99.931 43.2822 107.53 34.5174 107.53 28.7746C107.53 24.8611 104.125 21.3992 99.931 21.3992Z" fill="white"/>
<path d="M121.745 8.65144C120.32 8.65144 119.161 7.51677 119.161 6.10421C119.161 4.69166 120.32 3.55699 121.745 3.55699C123.17 3.55699 124.328 4.69166 124.328 6.10421C124.328 7.51677 123.17 8.65144 121.745 8.65144ZM121.722 0.812927C118.547 0.812927 115.976 3.42962 115.976 6.39367C115.976 10.7355 121.722 17.3583 121.722 17.3583C121.722 17.3583 127.468 10.7355 127.468 6.39367C127.468 3.4412 124.896 0.812927 121.722 0.812927Z" fill="white"/>
<path d="M126.9 21.0402C126.054 21.0402 125.371 20.3687 125.371 19.5351C125.371 18.7014 126.054 18.0299 126.9 18.0299C127.746 18.0299 128.429 18.7014 128.429 19.5351C128.429 20.3687 127.746 21.0402 126.9 21.0402ZM126.888 16.3973C125.012 16.3973 123.483 17.9488 123.483 19.6972C123.483 22.2675 126.888 26.1926 126.888 26.1926C126.888 26.1926 130.294 22.2675 130.294 19.6972C130.294 17.9488 128.765 16.3973 126.888 16.3973Z" fill="white"/>
<path d="M113.288 20.7045C111.967 20.7045 110.89 19.6508 110.89 18.3541C110.89 17.0573 111.967 16.0037 113.288 16.0037C114.609 16.0037 115.686 17.0573 115.686 18.3541C115.686 19.6508 114.62 20.7045 113.288 20.7045ZM113.265 13.4333C110.322 13.4333 107.936 15.8647 107.936 18.5972C107.936 22.6149 113.265 28.763 113.265 28.763C113.265 28.763 118.594 22.6265 118.594 18.5972C118.594 15.8647 116.207 13.4333 113.265 13.4333Z" fill="white"/>
<path d="M57.8675 40.5497C56.4194 40.5497 55.2493 39.3919 55.2493 37.9677C55.2493 36.5436 56.4194 35.3858 57.8675 35.3858C59.3155 35.3858 60.4856 36.5436 60.4856 37.9677C60.4856 39.3919 59.3155 40.5497 57.8675 40.5497ZM57.8327 32.5954C54.6122 32.5954 52.0057 35.2584 52.0057 38.2456C52.0057 42.6454 57.8327 49.3608 57.8327 49.3608C57.8327 49.3608 63.6598 42.6454 63.6598 38.2456C63.6598 35.2468 61.0532 32.5954 57.8327 32.5954Z" fill="white"/>
<path d="M47.3834 32.3522C46.3524 32.3522 45.5067 31.5302 45.5067 30.5113C45.5067 29.4924 46.3524 28.6703 47.3834 28.6703C48.4145 28.6703 49.2601 29.4924 49.2601 30.5113C49.2601 31.5302 48.426 32.3522 47.3834 32.3522ZM47.3718 26.6557C45.0665 26.6557 43.2014 28.5545 43.2014 30.7081C43.2014 33.8574 47.3718 38.674 47.3718 38.674C47.3718 38.674 51.5423 33.8574 51.5423 30.7081C51.5423 28.5661 49.6772 26.6557 47.3718 26.6557Z" fill="white"/>
<path d="M34.3739 20.7276C33.1691 20.7276 32.1845 19.7666 32.1845 18.574C32.1845 17.3815 33.1691 16.4205 34.3739 16.4205C35.5787 16.4205 36.5634 17.3815 36.5634 18.574C36.5634 19.7666 35.5787 20.7276 34.3739 20.7276ZM34.3508 14.0817C31.6632 14.0817 29.4737 16.3047 29.4737 18.8056C29.4737 22.4875 34.3508 28.103 34.3508 28.103C34.3508 28.103 39.2279 22.4875 39.2279 18.8056C39.2279 16.3047 37.05 14.0817 34.3508 14.0817Z" fill="white"/>
<path d="M10.0927 22.7886C9.67569 22.7886 9.32812 22.4528 9.32812 22.036C9.32812 21.6192 9.66411 21.2834 10.0927 21.2834C10.5214 21.2834 10.8573 21.6192 10.8573 22.036C10.8573 22.4528 10.5098 22.7886 10.0927 22.7886ZM10.0811 20.4729C9.14279 20.4729 8.37817 21.2486 8.37817 22.117C8.37817 23.4022 10.0811 25.3589 10.0811 25.3589C10.0811 25.3589 11.784 23.4022 11.784 22.117C11.784 21.2486 11.0195 20.4729 10.0811 20.4729Z" fill="white"/>
<path d="M25.2685 27.4662C24.2606 27.4662 23.4381 26.6557 23.4381 25.66C23.4381 24.6642 24.2606 23.8538 25.2685 23.8538C26.2763 23.8538 27.0988 24.6642 27.0988 25.66C27.0988 26.6557 26.2763 27.4662 25.2685 27.4662ZM25.2453 21.897C22.9863 21.897 21.1675 23.7611 21.1675 25.8568C21.1675 28.9366 25.2453 33.649 25.2453 33.649C25.2453 33.649 29.3231 28.9366 29.3231 25.8568C29.3231 23.7611 27.4927 21.897 25.2453 21.897Z" fill="white"/>
<path d="M40.1662 27.1536C39.6449 27.1536 39.2162 26.7367 39.2162 26.2157C39.2162 25.6947 39.6449 25.2779 40.1662 25.2779C40.6875 25.2779 41.1161 25.6947 41.1161 26.2157C41.1161 26.7367 40.6875 27.1536 40.1662 27.1536ZM40.1546 24.2706C38.9846 24.2706 38.0463 25.2316 38.0463 26.3199C38.0463 27.9177 40.1546 30.3492 40.1546 30.3492C40.1546 30.3492 42.263 27.9177 42.263 26.3199C42.263 25.2316 41.3131 24.2706 40.1546 24.2706Z" fill="white"/>
<path d="M78.0941 38.3614C74.8852 38.3614 72.2787 35.8026 72.2787 32.6417C72.2787 29.4808 74.8852 26.922 78.0941 26.922C81.303 26.922 83.9096 29.4808 83.9096 32.6417C83.9096 35.8026 81.303 38.3614 78.0941 38.3614ZM78.0362 20.7161C70.8885 20.7161 65.0963 26.621 65.0963 33.2669C65.0963 43.039 78.0362 57.9519 78.0362 57.9519C78.0362 57.9519 90.9762 43.039 90.9762 33.2669C90.9762 26.621 85.1839 20.7161 78.0362 20.7161Z" fill="white"/>
<path d="M121.594 28.0335C120.934 28.0335 120.401 27.5009 120.401 26.8525C120.401 26.2042 120.934 25.6716 121.594 25.6716C122.255 25.6716 122.787 26.2042 122.787 26.8525C122.787 27.5009 122.255 28.0335 121.594 28.0335ZM121.583 24.3979C120.111 24.3979 118.918 25.6137 118.918 26.9799C118.918 28.9945 121.583 32.0628 121.583 32.0628C121.583 32.0628 124.247 28.9945 124.247 26.9799C124.247 25.6137 123.054 24.3979 121.583 24.3979Z" fill="white"/>
<path d="M116.231 33.7763C115.535 33.7763 114.968 33.2206 114.968 32.5375C114.968 31.8544 115.535 31.2986 116.231 31.2986C116.926 31.2986 117.493 31.8544 117.493 32.5375C117.493 33.2206 116.926 33.7763 116.231 33.7763ZM116.219 29.9555C114.678 29.9555 113.416 31.2291 113.416 32.6648C113.416 34.7837 116.219 38.0024 116.219 38.0024C116.219 38.0024 119.022 34.7721 119.022 32.6648C119.022 31.2291 117.771 29.9555 116.219 29.9555Z" fill="white"/>
<path d="M64.9688 51.2712C63.8567 51.2712 62.9531 50.3796 62.9531 49.2797C62.9531 48.1798 63.8567 47.2882 64.9688 47.2882C66.0809 47.2882 66.9845 48.1798 66.9845 49.2797C66.9845 50.3796 66.0809 51.2712 64.9688 51.2712ZM64.9456 45.1462C62.4665 45.1462 60.4508 47.1956 60.4508 49.5113C60.4508 52.9037 64.9456 58.0908 64.9456 58.0908C64.9456 58.0908 69.4404 52.9037 69.4404 49.5113C69.4404 47.1956 67.4247 45.1462 64.9456 45.1462Z" fill="white"/>
<path d="M47.6614 47.2535C46.5609 47.2535 45.6573 46.3736 45.6573 45.2852C45.6573 44.1969 46.5493 43.3169 47.6614 43.3169C48.7736 43.3169 49.6656 44.1969 49.6656 45.2852C49.6656 46.3736 48.7736 47.2535 47.6614 47.2535ZM47.6383 41.1749C45.1823 41.1749 43.1898 43.2011 43.1898 45.4936C43.1898 48.8513 47.6383 53.9805 47.6383 53.9805C47.6383 53.9805 52.0868 48.8513 52.0868 45.4936C52.0868 43.2011 50.0942 41.1749 47.6383 41.1749Z" fill="white"/>
<path d="M14.8424 41.2328C13.7766 41.2328 12.9078 40.376 12.9078 39.3339C12.9078 38.2919 13.7766 37.4351 14.8424 37.4351C15.9082 37.4351 16.777 38.2919 16.777 39.3339C16.777 40.376 15.9082 41.2328 14.8424 41.2328ZM14.8308 35.3741C12.456 35.3741 10.533 37.3309 10.533 39.5423C10.533 42.7958 14.8308 47.7514 14.8308 47.7514C14.8308 47.7514 19.1287 42.7958 19.1287 39.5423C19.1287 37.3309 17.2056 35.3741 14.8308 35.3741Z" fill="white"/>
<path d="M16.2672 29.1913C15.4679 29.1913 14.8192 28.5545 14.8192 27.7672C14.8192 26.9799 15.4679 26.3431 16.2672 26.3431C17.0666 26.3431 17.7153 26.9799 17.7153 27.7672C17.7153 28.5545 17.0666 29.1913 16.2672 29.1913ZM16.2557 24.8032C14.4833 24.8032 13.0468 26.262 13.0468 27.9177C13.0468 30.3492 16.2557 34.0426 16.2557 34.0426C16.2557 34.0426 19.4646 30.3376 19.4646 27.9177C19.4646 26.262 18.0281 24.8032 16.2557 24.8032Z" fill="white"/>
<path d="M34.6752 41.9043C32.4973 41.9043 30.7364 40.1676 30.7364 38.0372C30.7364 35.9068 32.4973 34.17 34.6752 34.17C36.8531 34.17 38.6139 35.9068 38.6139 38.0372C38.6139 40.1676 36.8531 41.9043 34.6752 41.9043ZM34.6404 29.9555C29.8097 29.9555 25.8825 33.95 25.8825 38.454C25.8825 45.0652 34.6404 55.1615 34.6404 55.1615C34.6404 55.1615 43.3984 45.0652 43.3984 38.454C43.3984 33.95 39.4828 29.9555 34.6404 29.9555Z" fill="white"/>
<path d="M21.9553 36.4973C21.434 36.4973 21.0054 36.0805 21.0054 35.5594C21.0054 35.0384 21.434 34.6216 21.9553 34.6216C22.4766 34.6216 22.9053 35.0384 22.9053 35.5594C22.9053 36.0805 22.4766 36.4973 21.9553 36.4973ZM21.9437 33.6259C20.7737 33.6259 19.8353 34.5869 19.8353 35.6752C19.8353 37.273 21.9437 39.7045 21.9437 39.7045C21.9437 39.7045 24.0521 37.273 24.0521 35.6752C24.0521 34.5869 23.1022 33.6259 21.9437 33.6259Z" fill="white"/>
<path d="M131.511 28.1609C130.85 28.1609 130.317 27.6283 130.317 26.9799C130.317 26.3315 130.85 25.7989 131.511 25.7989C132.171 25.7989 132.704 26.3315 132.704 26.9799C132.704 27.6283 132.171 28.1609 131.511 28.1609ZM131.499 24.5253C130.028 24.5253 128.835 25.741 128.835 27.1072C128.835 29.1219 131.499 32.1901 131.499 32.1901C131.499 32.1901 134.163 29.1219 134.163 27.1072C134.163 25.741 132.97 24.5253 131.499 24.5253Z" fill="white"/>
<path d="M136.052 33.8458C135.565 33.8458 135.183 33.4638 135.183 32.9891C135.183 32.5143 135.577 32.1323 136.052 32.1323C136.527 32.1323 136.921 32.5143 136.921 32.9891C136.921 33.4638 136.527 33.8458 136.052 33.8458ZM136.052 31.206C134.974 31.206 134.105 32.0859 134.105 33.0933C134.105 34.5637 136.052 36.7983 136.052 36.7983C136.052 36.7983 137.998 34.5637 137.998 33.0933C137.998 32.0975 137.129 31.206 136.052 31.206Z" fill="white"/>
<path d="M137.94 40.0287C137.616 40.0287 137.338 39.7624 137.338 39.4382C137.338 39.114 137.604 38.8477 137.94 38.8477C138.276 38.8477 138.531 39.114 138.531 39.4382C138.531 39.7624 138.264 40.0287 137.94 40.0287ZM137.928 38.2109C137.199 38.2109 136.596 38.8129 136.596 39.4961C136.596 40.5034 137.928 42.0317 137.928 42.0317C137.928 42.0317 139.261 40.5034 139.261 39.4961C139.261 38.8129 138.67 38.2109 137.928 38.2109Z" fill="white"/>
</svg>
