<svg width="153" height="87" viewBox="0 0 153 87" fill="none" xmlns="http://www.w3.org/2000/svg">
<path d="M19.331 40.1865H15.902V54.8214H10.0981C6.727 54.8214 3.99302 52.089 3.99302 48.7197V40.1865H0.563965V50.4912C0.563965 54.7751 4.03935 58.2486 8.32564 58.2486H21.4857V54.8214H19.331V40.1865Z" fill="white"/>
<path d="M103.528 69.7922H94.2948V62.4631H90.8657V69.7922V73.2194V80.5369H94.2948V73.2194H103.528V80.5369H106.957V62.4631H103.528V69.7922Z" fill="white"/>
<path d="M146.773 58.6423H139.556V62.0694H146.773V58.6423Z" fill="white"/>
<path d="M75.7479 58.2486V43.6136H82.1889V40.1865H65.8778V43.6136H72.3188V58.2486H75.7479Z" fill="white"/>
<path d="M58.4521 47.504H49.1382V34.5826H45.7091V86.1176H49.1382V73.2194H58.4521V86.1176H61.8812V34.5826H58.4521V47.504ZM49.1497 69.7922V50.9312H58.4637V69.7922H49.1497Z" fill="white"/>
<path d="M25.3782 40.1865V43.6136V54.8214V58.2486H28.8072H41.6892V54.8214H28.8072V50.9311H38.5034V47.504H28.8072V43.6136H41.6892V40.1865H28.8072H25.3782Z" fill="white"/>
<path d="M96.2179 53.351C99.6585 53.351 102.45 50.5606 102.45 47.1219V46.4156C102.45 42.9768 99.6585 40.1865 96.2179 40.1865H86.1393V43.6136V49.9238V53.351V58.2486H89.5683V53.351H96.2063H96.2179ZM89.5799 43.6136H95.8704C97.6196 43.6136 99.0329 45.0262 99.0329 46.7745C99.0329 48.5228 97.6196 49.9354 95.8704 49.9354H89.5799V43.6252V43.6136Z" fill="white"/>
<path d="M35.4452 62.4631H25.3666V65.8903H35.0861C36.8353 65.8903 37.542 66.0871 37.542 67.8354C37.542 69.5722 36.8353 69.7806 35.0976 69.7806H25.3666V73.2078H35.0861C36.8353 73.2078 37.542 73.4046 37.542 75.1529C37.542 76.9012 36.8353 77.0981 35.0861 77.0981H25.3666V80.5253H35.4452C38.8858 80.5253 40.971 78.9506 40.971 75.5003V74.794C40.971 73.3814 40.6118 72.2931 39.9631 71.4826C40.6118 70.6837 40.971 69.5838 40.971 68.1712V67.4649C40.971 64.0262 38.8858 62.4399 35.4452 62.4399V62.4631Z" fill="white"/>
<path d="M126.5 71.309C126.5 74.5162 123.905 77.1097 120.696 77.1097C117.325 77.1097 114.591 74.3772 114.591 71.0079V62.4747H111.162V72.7794C111.162 77.0634 114.637 80.5369 118.924 80.5369H120.349C121.959 80.5369 123.546 80.1779 124.994 79.4717L125.944 79.0085L126.025 80.5369H129.929V62.4631H126.5V71.2974V71.309Z" fill="white"/>
<path d="M149.125 62.4631V71.2974C149.125 74.5046 146.53 77.0981 143.321 77.0981C139.95 77.0981 137.216 74.3656 137.216 70.9963V62.4631H133.787V72.7678C133.787 77.0518 137.262 80.5253 141.548 80.5253H142.973C144.584 80.5253 146.171 80.1663 147.619 79.4601L148.569 78.9969L148.65 80.5253H152.554V62.4515H149.125V62.4631Z" fill="white"/>
<path d="M78.1806 62.4631H74.4272L65.8894 80.5369H69.6428L71.6006 76.4034H81.1L83.0577 80.5369H86.8111L78.2733 62.4631H78.1922H78.1806ZM73.2109 72.9762L76.3387 66.365L79.4666 72.9762H73.2109Z" fill="white"/>
<path d="M30.3712 29.7544C30.8925 29.7544 31.3095 29.3376 31.3095 28.8166V1.90861C31.3095 1.38758 30.8925 0.970764 30.3712 0.970764H23.1424C22.737 0.970764 22.3778 1.23706 22.2504 1.61915L16.9794 17.9793C16.7014 18.8477 15.4734 18.8477 15.1953 17.9793L9.91278 1.61915C9.78535 1.23706 9.42628 0.970764 9.02082 0.970764H1.79199C1.27068 0.970764 0.853638 1.38758 0.853638 1.90861V28.8282C0.853638 29.3492 1.27068 29.766 1.79199 29.766H6.2173C6.73861 29.766 7.15565 29.3492 7.15565 28.8282V9.20294H7.27154L13.7473 29.1176C13.8747 29.4997 14.2338 29.766 14.6393 29.766H17.5586C17.9641 29.766 18.3232 29.4997 18.4506 29.1176L24.9264 9.20294H25.0422V28.8282C25.0422 29.3492 25.4593 29.766 25.9806 29.766H30.4059L30.3712 29.7544Z" fill="white"/>
<path d="M52.208 25.0189L53.5171 29.106C53.6445 29.4997 54.0036 29.7544 54.4091 29.7544H59.0892C59.738 29.7544 60.1898 29.1176 59.9697 28.504L50.5862 1.5844C50.4588 1.20231 50.0996 0.959167 49.7058 0.959167H44.6664C44.2726 0.959167 43.9134 1.21389 43.786 1.5844L34.4373 28.4924C34.2288 29.106 34.6805 29.7428 35.3177 29.7428H39.9515C40.357 29.7428 40.7277 29.4765 40.8435 29.0829L42.1063 25.0073C42.2337 24.6136 42.5928 24.3473 42.9983 24.3473H51.316C51.7214 24.3473 52.0806 24.6136 52.208 24.9957V25.0189ZM49.3582 19.4729H44.9792C44.3421 19.4729 43.8903 18.8592 44.0872 18.2456L46.2999 11.3102C46.5779 10.4418 47.8174 10.4418 48.0839 11.3102L50.2502 18.2456C50.4356 18.8476 49.9837 19.4613 49.3582 19.4613V19.4729Z" fill="white"/>
<path d="M98.5347 28.8166V1.90861C98.5347 1.38758 98.1177 0.970764 97.5964 0.970764H93.1363C92.615 0.970764 92.198 1.38758 92.198 1.90861V23.2243C92.198 23.7453 91.7809 24.1621 91.2596 24.1621H84.8186C84.2973 24.1621 83.8803 23.7453 83.8803 23.2243V1.90861C83.8803 1.38758 83.4632 0.970764 82.9419 0.970764H78.4818C77.9605 0.970764 77.5435 1.38758 77.5435 1.90861V23.2243C77.5435 23.7453 77.1264 24.1621 76.6051 24.1621H70.1641C69.6428 24.1621 69.2258 23.7453 69.2258 23.2243V1.90861C69.2258 1.38758 68.8087 0.970764 68.2874 0.970764H63.8274C63.3061 0.970764 62.889 1.38758 62.889 1.90861V28.8282C62.889 29.3492 63.3061 29.766 63.8274 29.766H97.608C98.1293 29.766 98.5463 29.3492 98.5463 28.8282L98.5347 28.8166Z" fill="white"/>
<path d="M113.919 29.3608C114.626 28.944 115.309 28.2956 115.981 27.4156C116.641 26.5357 117.255 25.3547 117.811 23.8842L126.025 2.24438C126.257 1.63073 125.805 0.970764 125.145 0.970764H120.36C119.955 0.970764 119.595 1.22549 119.468 1.61915L115.842 12.6417C115.576 13.4638 114.417 13.5101 114.081 12.7112L109.447 1.54968C109.297 1.20233 108.961 0.970764 108.579 0.970764H103.169C102.485 0.970764 102.022 1.68862 102.323 2.31385L111.428 21.5107C111.533 21.7307 111.544 21.9738 111.475 22.1938C111.301 22.7611 110.988 23.2706 110.56 23.7337C110.027 24.3011 109.251 24.5789 108.219 24.5789C107.663 24.5789 107.131 24.5326 106.621 24.44C106.042 24.3358 105.509 24.7642 105.509 25.3547V29.0134C105.509 29.4534 105.821 29.8471 106.262 29.9397C107.385 30.1828 108.463 30.2986 109.517 30.2986C110.421 30.2986 111.208 30.2523 111.857 30.1481C112.517 30.0439 113.189 29.7892 113.907 29.3723L113.919 29.3608Z" fill="white"/>
<path d="M135.293 28.8166V15.6868H135.362L144.549 29.3376C144.722 29.5923 145.012 29.7544 145.325 29.7544H150.688C151.453 29.7544 151.893 28.886 151.453 28.2724L141.618 14.7142C141.363 14.3668 141.386 13.9037 141.653 13.5679L150.677 2.4875C151.175 1.87385 150.735 0.959167 149.947 0.959167H144.977C144.688 0.959167 144.41 1.09811 144.224 1.32967L135.339 13.0469H135.269V1.89701C135.269 1.37599 134.852 0.959167 134.331 0.959167H129.906C129.384 0.959167 128.967 1.37599 128.967 1.89701V28.8166C128.967 29.3376 129.384 29.7544 129.906 29.7544H134.331C134.852 29.7544 135.269 29.3376 135.269 28.8166H135.293Z" fill="white"/>
</svg>
