<svg width="56" height="43" viewBox="0 0 56 43" fill="none" xmlns="http://www.w3.org/2000/svg">
<path d="M51.2322 40.3535C51.2147 41.4469 51.1535 41.6306 50.3576 41.7705L50.3576 41.753C50.3751 41.4294 50.3401 41.0882 50.2789 40.7646C50.3401 40.5197 50.2614 40.196 50.2614 39.9511C50.2789 39.4612 50.1827 38.9801 50.1389 38.5165C50.0952 38.1141 49.894 37.6855 50.5238 37.4843C51.3109 38.2978 51.2322 39.33 51.2322 40.3622L51.2322 40.3535ZM48.722 35.8573C47.5675 35.7173 47.1215 34.5364 47.4888 33.5304C47.7949 32.7607 48.3197 32.3145 49.1331 32.1921C50.655 32.0084 51.4859 33.9153 50.8386 35.0875C50.62 35.4899 50.2701 35.7173 49.8678 35.8135C49.5267 35.9185 49.1156 35.9185 48.7308 35.8573L48.722 35.8573ZM48.6433 41.6481C48.7046 41.5868 48.7483 41.5081 48.7045 41.4031C48.7045 41.097 48.5384 40.7383 48.5034 40.4322C48.4597 39.9861 48.3984 39.5399 48.3634 39.0938C48.3197 38.8314 48.3635 38.4465 48.4247 38.2016C48.4684 38.0616 48.9319 37.3881 48.9319 37.4143C49.378 38.7527 49.483 40.3884 49.4567 41.788C49.1943 41.8055 48.9057 41.7093 48.6433 41.6481ZM48.0311 41.5256C47.0603 41.4206 47.0952 40.6334 47.0165 39.8461C46.9116 38.9713 46.8503 38.1054 47.0602 37.2568C47.104 37.1169 47.1827 37.0557 47.2789 37.0119C47.3576 36.9507 47.4626 36.9332 47.585 36.9682C47.6287 36.9857 47.6462 37.0469 47.6637 37.1344C47.7075 37.2131 47.725 37.3006 47.7075 37.3968C47.4888 38.3328 47.6637 39.2163 47.8474 40.1348L47.8474 40.1523C47.8649 40.6159 47.9261 41.0882 48.0486 41.5256L48.0661 41.5431L48.0223 41.5256L48.0311 41.5256ZM47.0428 21.4327C44.9174 20.6017 42.7921 19.7707 40.7017 18.8435C37.6843 17.4701 34.8242 15.7643 31.6056 14.8721C31.4044 14.8109 31.0546 14.7496 31.0371 14.6534C30.8709 13.2538 29.9263 13.3938 29.0517 13.7437C28.1421 14.1111 27.696 14.8546 27.8535 15.8868C30.1012 15.1783 32.0429 15.9305 33.9671 16.779C37.3082 18.2749 40.6143 19.8407 43.9291 21.3802C44.4801 21.6426 45.1011 21.7214 45.6346 22.4562C44.2002 23.0597 42.8795 23.7508 41.4626 24.1794C37.5531 25.3953 33.8272 27.0573 29.9963 28.4744C29.5502 28.6406 29.0604 28.7368 28.6406 28.938C27.2412 29.5416 26.3316 29.1829 25.2383 28.0283C23.5328 26.2438 21.4949 24.7042 19.3259 23.5321C16.1247 21.7913 13.5533 19.2808 10.7545 17.0327C9.07524 15.7119 7.45717 14.2948 6.01404 12.6153C6.47759 11.8017 7.30849 11.4781 8.01694 11.2419C13.5446 9.31747 18.5474 6.31709 23.734 3.72784C25.3345 2.91433 27.0138 2.26702 28.6319 1.49724C29.2966 1.17359 29.7864 1.27856 30.3112 1.74217C32.7251 3.92903 35.4802 5.69602 37.9029 7.85664C41.7513 11.3206 45.8445 14.5222 49.0631 18.6335C49.5092 19.2021 50.4188 19.587 49.999 20.4967C49.6929 21.144 47.7687 21.7564 47.0253 21.4502L47.0428 21.4327ZM14.5329 21.4065C14.6554 21.4677 14.7778 21.5464 14.874 21.6514C14.9965 21.7738 15.1189 21.8701 15.2588 21.9925L15.5825 22.2725C17.1393 23.4883 18.9673 24.2581 20.5416 25.4303C22.3258 26.7686 23.8827 28.3082 25.4657 29.8478C26.1742 30.5388 26.664 30.5563 27.4074 30.2764C29.9963 29.2879 32.5939 28.3344 35.1653 27.3372C35.489 27.2148 35.7951 27.1185 36.0575 27.0573L41.4277 25.0891C42.6609 24.643 43.8766 24.1794 45.0923 23.6895C45.8795 23.4096 46.999 22.8585 47.4014 23.8732C47.9086 25.1679 48.0311 26.7512 48.0311 28.1507C48.0486 29.2617 47.9086 30.6613 48.3372 31.7197C48.2323 31.7984 48.1361 31.8422 48.0136 31.9034C46.2119 32.7344 45.9845 33.1368 46.413 35.0262C46.518 35.5161 46.6142 36.0147 46.413 36.4608C45.9232 37.5368 46.2468 38.604 46.3518 39.6799C46.3518 39.7236 46.3343 39.7586 46.3518 39.8199L46.518 40.8346C46.5617 41.097 46.5792 41.3594 46.7366 41.5868C46.9378 41.8668 47.3664 41.9717 47.7512 42.0505C49.0282 42.8027 50.8299 42.9427 51.7657 42.3741C52.2905 42.0505 52.4742 41.5606 52.4742 40.9745C52.4567 39.8636 52.3692 38.7089 51.8707 37.7292C51.3197 36.7407 51.206 35.971 51.7308 34.895C52.3343 33.6791 51.6695 32.4457 50.4538 31.7984C50.1477 31.6585 49.8241 31.5972 49.5005 31.5535C49.0369 31.4923 48.9932 31.571 48.9494 31.1249C48.8882 30.4951 48.9057 29.804 48.8882 29.1829C48.8445 27.7484 48.8882 26.3225 48.7483 24.8879C48.6871 24.2231 48.3197 23.5146 48.4247 22.8585C48.5471 21.9488 49.5967 22.0888 50.2089 21.7476C51.6258 20.9166 51.9494 19.9456 50.9173 18.9747C48.8532 17.0065 47.2527 14.6009 45.0836 12.7727C41.4014 9.63238 37.833 6.35208 33.9671 3.43043C32.8126 2.55568 31.5181 1.84714 30.7222 0.552518C30.3199 -0.112289 29.7864 -0.11229 29.1217 0.211366C27.5823 0.981142 26.0255 1.73342 24.4249 2.44197C21.1451 3.87655 18.0664 5.7835 14.8828 7.44551C12.5912 8.64391 10.0986 9.24749 7.78954 10.3847C7.00238 10.7695 6.11025 11.032 5.52425 11.7843C5.03446 12.4141 4.8333 12.9564 5.54175 13.5687C6.43387 14.3385 7.24727 15.2133 8.11315 15.983C9.37261 17.0765 10.6408 18.1699 11.9615 19.2808L14.5329 21.4065Z" fill="white"/>
<path d="M1.71068 15.5807C0.879784 13.875 1.2034 12.6241 1.64946 11.4257C2.11301 10.0698 3.08385 9.07263 4.17713 8.20663C4.57946 7.90047 5.11298 7.69928 5.47157 8.18914C5.79519 8.63526 5.2879 8.89768 4.98179 9.1601C4.01095 10.0349 2.95265 10.8046 2.42788 12.0993C2.04304 13.0877 2.2617 14.1637 1.70194 15.5807L1.71068 15.5807Z" fill="white"/>
<path d="M53.4798 19.8932C53.4973 19.2896 53.1737 18.3711 52.4652 17.5663C52.2816 17.3477 52.2641 17.0153 52.6052 16.8753C52.7714 16.7966 53.0075 16.7703 53.1737 16.8316C54.2057 17.2777 54.7917 20.4005 54.0046 21.249C53.9258 21.354 53.7597 21.389 53.6635 21.3715C53.541 21.3715 53.3573 21.249 53.3573 21.1703C53.3398 20.9079 53.4011 20.6192 53.4798 19.8932Z" fill="white"/>
<path d="M54.9842 22.5086C54.5993 21.3365 55.3865 20.243 54.9842 19.0884C54.9229 18.9047 55.1241 18.721 55.3515 18.6598C55.7188 18.581 55.8413 18.8784 55.9025 19.1234C56.2086 20.4005 55.7625 21.4939 54.9929 22.5086L54.9842 22.5086Z" fill="white"/>
<path d="M0.232628 11.9942C-0.318386 10.2097 0.0664411 9.40495 1.85068 8.67017C1.40462 9.9298 0.591225 10.857 0.232628 11.9942Z" fill="white"/>
<path d="M9.28503 12.9652C11.5503 11.1632 19.1858 7.57673 21.075 7.43677C20.4103 8.32901 19.4744 8.5477 18.6435 8.93258C16.1334 10.1922 13.4745 11.1632 11.2092 12.8864C10.6582 13.2888 10.0984 13.3326 9.28503 12.9652Z" fill="white"/>
<path d="M36.7745 23.156C35.8387 23.5847 34.9728 24.127 34.0194 24.5294C33.2498 25.098 32.3751 25.4829 31.6055 26.0515C31.6055 26.1302 31.623 26.2352 31.6492 26.3314C34.0982 25.4216 36.3722 24.2057 38.8386 22.9898C37.9465 22.465 37.378 22.8674 36.7745 23.156Z" fill="white"/>
<path d="M12.1625 13.8311C12.7922 12.3703 14.1304 12.0292 15.3811 11.583C15.626 11.5043 15.9321 11.5655 16.0108 11.9067C16.0546 12.1691 15.8709 12.2916 15.6872 12.3528C14.5152 12.8164 13.2995 13.1838 12.1625 13.8311Z" fill="white"/>
<path d="M33.0224 24.433C32.9175 24.2318 32.8038 24.0481 32.5939 24.1094C31.3956 24.4155 30.2062 24.8004 29.2528 26.3137C30.2849 26.0338 30.9583 25.404 31.6843 25.2203C32.1303 24.9579 32.5764 24.6955 33.0224 24.433Z" fill="white"/>
<path d="M15.6873 28.2557C15.4687 27.381 15.6086 26.7161 16.7631 26.3488C16.7019 27.3197 16.2384 27.8096 15.6873 28.2557Z" fill="white"/>
<path d="M36.5907 33.1631C36.4858 32.4983 36.3896 31.8073 36.2234 30.8101C37.3342 31.5973 37.238 32.3321 36.5907 33.1631Z" fill="white"/>
<path d="M35.1303 33.443C34.8737 32.784 34.8999 32.0813 35.209 31.3348C35.4539 32.1658 35.4101 32.7694 35.1303 33.443Z" fill="white"/>
<path d="M17.795 27.8534C18.1186 28.2995 17.9349 28.6232 17.8737 28.9468C17.83 29.1655 17.69 29.3142 17.4451 29.2705C17.2265 29.2267 17.0778 29.0693 17.1215 28.8419C17.2003 28.457 17.2002 28.0108 17.7862 27.8534L17.795 27.8534Z" fill="white"/>
<path d="M32.9435 32.2097C32.8998 32.0698 32.7773 31.9298 32.7773 31.7636C32.7773 31.5012 32.9173 31.2562 33.2409 31.3962C33.4421 31.5012 33.4858 31.7024 33.4246 31.8861C33.3633 32.0872 33.2409 32.2272 32.9348 32.2097L32.9435 32.2097Z" fill="white"/>
<path d="M9.68737 16.6479L9.68737 16.8928C9.66988 18.4499 9.19758 22.6487 9.32003 23.3922C14.9876 28.4745 19.1858 32.8744 25.6668 37.0907C28.6668 36.4434 41.7074 32.5158 44.48 30.119C44.5237 27.2061 44.0952 25.9464 44.1389 23.5147L44.1389 23.3922C44.2001 23.1298 44.4188 22.9286 44.7074 22.9286C45.031 22.9286 45.2759 23.191 45.2759 23.5147C45.2584 25.8415 45.9844 28.0546 45.617 30.4251C45.4333 31.6848 36.7046 34.9038 36.2148 35.0875C24.0837 39.6625 25.868 39.7849 16.1596 31.1774C5.92648 22.0976 8.38417 26.8037 8.58534 16.9978C8.48038 16.6916 8.66405 16.3942 8.95268 16.2893C9.2588 16.1843 9.58241 16.3505 9.67862 16.6566L9.68737 16.6479ZM9.28504 23.3572C9.28504 23.3572 9.24131 23.3135 9.20633 23.296L9.28504 23.3572Z" fill="white"/>
<path d="M27.1711 30.1801C27.1711 31.6147 27.1711 33.058 27.1274 34.5188C27.1274 34.8425 26.8475 35.1224 26.4977 35.1224C26.174 35.1224 25.8942 34.8425 25.8942 34.5188C25.9379 33.058 25.9554 31.6234 25.9554 30.1801C25.9554 29.8565 26.2353 29.5765 26.5589 29.5765C26.9 29.5765 27.1624 29.8565 27.1624 30.1801L27.1711 30.1801Z" fill="white"/>
</svg>
