<svg width="27" height="39" viewBox="0 0 27 39" fill="none" xmlns="http://www.w3.org/2000/svg">
<path d="M2.77944 6.72062C7.09712 6.65113 10.6207 5.34076 14.0153 3.73257C14.4719 3.50425 15.0278 3.15681 14.8392 2.47184C14.6804 1.84644 14.2139 1.66775 13.6183 1.5784C9.38996 0.863655 5.80678 2.43213 2.49159 4.82455C2.05486 5.12236 1.61813 5.62864 1.82657 6.22427C2.05486 6.88938 2.71988 6.73055 2.76951 6.73055L2.77944 6.72062ZM5.79685 18.7026C4.16904 19.189 3.10699 20.4696 2.07471 21.7105C1.13177 22.862 1.29058 23.7555 2.49159 24.6985C4.28814 26.128 6.33284 26.0982 8.30805 25.4331C9.86639 24.907 11.4843 24.5596 13.0426 24.0533C15.4149 23.2988 17.8467 22.6238 20.0105 21.2935C21.7574 20.2115 22.5812 18.4643 22.075 17.2235C21.6184 16.0719 19.544 15.2281 17.7573 15.4564C17.6878 15.4763 17.5985 15.4763 17.529 15.5061C16.9335 15.6252 16.7449 15.9925 17.003 16.5186C17.1618 16.8661 17.3206 17.2731 17.5985 17.5113C18.4223 18.1566 18.1544 18.7721 17.5489 19.2585C15.1766 21.1248 12.6555 22.6833 9.42966 22.316C6.60083 21.9984 6.44202 21.8098 6.00529 19.0103C5.98544 18.9408 5.91596 18.8912 5.79685 18.7125L5.79685 18.7026ZM3.51394 8.06077C3.39483 8.6564 3.58342 8.9145 3.79186 9.14283C5.33034 10.8205 5.99536 12.8655 6.41224 15.0792C6.71001 16.598 7.28571 18.0673 7.60333 19.5861C7.83162 20.6483 8.45694 20.8965 9.3701 21.0851C11.7622 21.5914 13.6183 20.4001 15.534 19.3379C16.3578 18.9011 16.1593 18.1467 15.9012 17.4716C14.7796 14.5531 14.8888 11.4955 14.9583 8.43801C14.9781 7.28647 15.2064 6.11507 14.7697 4.75506C11.0872 6.45259 7.27578 7.42544 3.50401 8.06077L3.51394 8.06077ZM16.0203 31.7368C16.0203 31.8063 16.0203 31.8956 16.0402 31.9453C16.06 31.9949 16.1295 32.0346 16.1791 32.0644C16.1097 31.9751 16.0402 31.8758 15.9707 31.7666C15.9508 29.9003 15.9707 28.0439 15.8516 26.1777C15.7821 24.7779 15.4645 24.6191 14.055 24.9566C13.6878 25.046 13.3007 25.1452 12.9037 25.7607C14.2635 27.4583 14.4223 29.94 16.0104 31.7368L16.0203 31.7368ZM11.3056 0.02978C12.2287 0.119124 12.6853 0.168761 13.1716 0.218397C15.5439 0.407011 16.5762 1.73724 16.3181 4.09988C16.0005 7.06807 15.8615 10.0363 16.3379 13.0243C16.4968 14.0369 16.9136 14.3347 17.8764 14.285C19.3752 14.2156 20.8144 14.1957 22.1048 15.248C23.7326 16.608 24.0999 18.236 22.9782 20.0328C22.3529 21.0454 21.5092 21.8693 20.4472 22.4451C20.0998 22.6337 19.7325 22.7925 19.3653 22.9017C17.3206 23.5271 16.7648 24.8574 16.9037 26.9917C17.132 30.3669 17.5687 33.6825 18.2834 36.9882C18.6308 38.5468 18.1643 39.0134 16.8342 38.7552C16.2585 38.6361 15.9111 38.3383 16.0997 37.8122C16.4471 36.7996 16.0501 35.926 15.7126 35.0723C14.6109 32.2927 13.4099 29.5826 12.1295 26.8924C11.5538 25.721 10.8391 25.721 9.85646 26.0387C8.29813 26.5648 6.7795 27.2101 5.05242 27.0016C3.44446 26.7931 1.97545 26.3762 0.893551 25.0658C-0.0990199 23.8746 -0.18835 22.9315 0.704964 21.641C1.73724 20.142 2.9581 18.8118 4.54621 17.8687C5.35019 17.4121 5.4693 16.876 5.35019 15.9627C5.00279 12.7861 3.6529 10.2844 1.07221 8.3983C-0.148648 7.50486 -0.307457 6.44266 0.496525 5.18192C0.744667 4.79477 1.05236 4.42747 1.41962 4.11973C4.40725 1.61811 7.95073 0.486426 11.3056 2.08299e-08L11.3056 0.02978Z" fill="white"/>
<path d="M23.5638 23.7354C23.6333 22.3555 24.6259 21.3033 24.2785 19.9234C24.2289 19.6752 24.4671 19.4866 24.7152 19.4667C25.0825 19.4171 25.3108 19.6554 25.3604 19.9929C25.4994 21.5812 24.6457 22.703 23.5638 23.7354Z" fill="white"/>
<path d="M25.3107 25.1848C25.0824 24.1524 25.3603 23.2292 25.6978 22.3159C25.8169 22.038 26.0651 21.7898 26.4125 21.8791C26.8294 21.9685 26.8293 22.2663 26.7102 22.5641C26.3231 23.4575 26.1544 24.4701 25.3107 25.1848Z" fill="white"/>
<path d="M13.5389 6.70068C13.8168 8.60668 13.38 10.5822 14.0451 12.4484C14.1344 12.7264 13.8565 12.8654 13.6282 12.9051C13.5091 12.925 13.3106 12.8555 13.2411 12.7661C12.4173 11.7536 12.3875 7.96142 13.1716 6.77017C13.1915 6.72054 13.3304 6.75032 13.5389 6.70068Z" fill="white"/>
<path d="M11.911 12.4681C10.8787 11.2272 10.4619 10.2345 10.3725 9.09288C10.3527 8.8447 10.5611 8.65609 10.7894 8.63624C10.9284 8.61638 11.1765 8.70572 11.2063 8.77521C11.4346 9.83741 12.1294 10.8202 11.9209 12.478L11.911 12.4681Z" fill="white"/>
</svg>
