<svg width="72" height="35" viewBox="0 0 72 35" fill="none" xmlns="http://www.w3.org/2000/svg">
<path d="M10.5252 4.77688C12.3615 6.84171 13.9298 8.68815 15.5774 10.4353C18.2177 13.2447 21.0663 15.8158 23.9448 18.367C27.9945 21.9507 31.6471 25.9811 35.4884 29.7931C36.4313 30.7362 37.3941 31.6594 38.4066 32.533C38.9624 33.0392 39.5579 32.9499 40.084 32.4436C40.5009 32.0564 40.5207 31.6892 40.1038 31.2524C39.7564 30.8851 39.0219 30.5376 39.5282 29.942C40.0542 29.3464 40.4711 30.1703 40.9277 30.3093C41.156 30.3788 41.3843 30.4979 41.6126 30.4979C42.2379 30.5178 42.8036 30.2696 42.5555 29.5548C42.1188 28.314 42.6051 28.2246 43.6573 28.4331C44.2329 28.5522 44.5307 28.2047 44.3719 27.6091C44.3024 27.2915 44.3024 26.7852 44.6002 26.8547C45.8905 27.222 45.9997 26.0009 46.6647 25.4947C48.0643 24.4325 48.1139 24.4126 46.8037 23.4001C46.4861 23.1717 46.0196 23.0129 46.2478 22.5761C46.5456 22.0003 47.0518 22.2584 47.4687 22.4868C47.7466 22.6456 47.9749 22.8739 48.2529 22.993C48.8087 23.2214 49.3348 23.817 49.9501 23.2015C50.4365 22.7449 51.1214 22.3776 50.506 21.4544C50.1586 20.9282 50.5953 20.6304 51.171 20.6999C51.5383 20.7495 51.9055 21.0474 52.2926 20.7694C52.6102 20.1043 51.3497 20.1043 51.7368 19.4392C52.1735 18.7542 52.6102 19.2108 53.1363 19.3697C54.0991 19.6476 53.8708 18.9825 53.7318 18.4266C53.6127 17.9203 53.6425 17.3445 54.3572 17.692C55.6872 18.3571 56.1041 17.1857 56.4912 16.5206C56.8783 15.8555 55.8957 15.5775 55.4788 15.1904C55.32 15.0316 55.0619 14.9819 54.8535 14.8727C54.5358 14.6841 54.4167 14.4359 54.6053 14.0885C54.8137 13.7708 55.1314 13.7013 55.4291 13.8601C56.0247 14.1778 56.6202 14.5948 57.2257 14.9621C57.5929 15.1705 57.9602 15.24 58.3076 14.9124C58.5557 14.6345 58.5359 14.3565 58.3572 14.0587C57.6922 12.8178 58.2183 12.7682 59.2307 13.1851C59.7568 13.3936 59.9652 13.1652 59.8759 12.6292C59.717 11.706 60.0148 11.4777 60.8883 11.8251C61.3448 12.0137 61.6228 11.6166 61.6724 11.1997C61.7419 10.7828 61.3746 10.7133 61.0769 10.6239C60.7791 10.5544 60.4515 10.5048 60.1538 10.4154C56.1537 9.2639 51.9948 8.85691 47.9948 7.70537C43.3992 6.37515 38.5455 6.16667 33.8606 5.27323C27.9052 4.10184 21.8406 4.0125 15.7958 4.10185C14.1382 4.1217 12.5104 4.31032 10.5054 4.8166L10.5252 4.77688ZM60.5607 14.5948C56.9081 17.9997 53.6227 21.4047 50.0792 24.5019C46.7739 27.4007 44.1734 31.0538 40.491 33.5356C40.1733 33.744 39.8954 34.022 39.5679 34.2206C38.883 34.6772 38.2775 34.707 37.7316 33.9724C35.7961 31.4906 33.6422 29.2372 31.0913 27.351C29.5925 26.2293 28.6297 24.5417 27.2501 23.2313C21.2748 17.6721 15.3888 12.0137 9.80066 6.05748C9.52274 5.77952 9.29446 5.46185 9.06617 5.13425C8.21256 3.80403 8.31181 3.59557 9.80066 3.40695C16.4013 2.67235 22.9721 2.72198 29.5429 3.49629C35.538 4.18126 41.5431 5.05484 47.429 6.36521C52.2529 7.46712 57.1264 8.32085 61.9305 9.47239C63.3995 9.81984 63.8164 11.0806 62.7543 12.2321C61.9702 13.1057 61.3051 14.0984 60.5508 14.5749L60.5607 14.5948Z" fill="white"/>
<path d="M5.02638 3.14856C5.09586 3.88317 5.67154 4.3696 5.91969 5.01486C6.03879 5.31267 5.87008 5.61049 5.60209 5.7991C5.25469 6.04728 5.04624 5.84873 4.84772 5.57077C4.77824 5.43179 4.65914 5.32259 4.5698 5.18361C3.94448 4.35967 2.66406 3.71441 3.2596 2.47353C3.81544 1.2525 5.3043 1.6198 6.36635 1.21279C6.66413 1.09367 6.99169 1.26242 7.03139 1.62972C7.05124 1.94739 6.9619 2.25513 6.68398 2.45367C6.19762 2.82097 5.39363 2.50331 5.02638 3.16842L5.02638 3.14856Z" fill="white"/>
<path d="M2.91215 0.210391C3.10074 0.528057 2.96178 0.875504 2.72356 1.06412C1.73099 1.86821 1.60198 2.81128 2.00894 3.96282C2.19753 4.44925 1.9593 4.92574 1.41339 5.04487C0.788071 5.16399 0.629255 4.67756 0.539924 4.19114C0.470444 3.73449 0.381094 3.24807 0.242134 2.81128C0.103174 2.35463 -0.214437 1.81858 0.222294 1.50091C0.956796 0.944996 1.60196 0.240165 2.54491 0.00191556C2.63424 -0.0179386 2.79304 0.121047 2.91215 0.210391Z" fill="white"/>
<path d="M66.6153 11.1697C65.9304 10.5245 66.0198 10.2068 66.1091 9.92886C66.6153 8.09236 66.6351 7.65557 64.4316 7.21878C64.1339 7.16914 63.8063 7.0798 63.5383 6.94082C63.449 6.89119 63.3795 6.69265 63.3795 6.55367C63.3994 6.30549 63.5383 6.02754 63.7666 6.04739C64.9378 6.23601 66.0694 6.41468 67.2108 6.67279C67.5582 6.76213 67.5582 7.17906 67.5781 7.47688C67.6674 8.76739 67.0719 9.81967 66.6153 11.1797L66.6153 11.1697Z" fill="white"/>
<path d="M70.7741 6.71246C70.0198 5.97786 69.3448 5.40209 68.4515 5.19362C68.0346 5.10428 67.5582 4.75683 67.8262 4.20092C68.1041 3.645 68.6103 3.92296 69.0173 4.06194C69.3845 4.18106 69.7518 4.33989 70.119 4.42924C71.5682 4.72705 71.1811 5.55099 70.7642 6.70253L70.7741 6.71246Z" fill="white"/>
<path d="M29.6024 12.8971C30.1979 14.0884 30.9821 14.4855 31.6669 14.9917C33.801 16.5801 35.9648 18.1386 38.0293 19.7964C39.7564 21.1564 39.7266 21.1962 41.5232 19.9354C41.7713 19.7468 42.079 19.6376 42.3073 19.4291C44.1038 17.8706 46.3967 16.7885 47.2701 14.1182C41.4537 13.3637 35.796 11.8647 29.5925 12.8971L29.6024 12.8971ZM47.2106 16.7389C45.3446 19.0618 42.5257 20.4417 40.3619 22.6257C39.9251 23.0624 39.3991 23.5191 38.6844 22.308C37.811 20.8388 36.1534 19.8064 34.734 18.6945C32.9374 17.2948 31.0515 16.0241 29.2153 14.6741C28.7786 14.3763 28.322 14.0288 27.925 13.6615C27.121 12.8574 27.2103 12.3313 28.2922 11.9838C30.724 11.1996 33.2551 11.2294 35.7663 11.4279C38.8929 11.6761 41.9996 12.1427 45.0964 12.5497C46.3371 12.7085 47.5779 13.0361 48.8384 12.8673C49.2553 12.7978 49.6424 12.8674 49.8508 13.2545C50.1288 13.7608 49.8012 14.1281 49.4638 14.4755C48.7491 15.1903 48.0344 15.9249 47.2106 16.729L47.2106 16.7389Z" fill="white"/>
<path d="M19.4185 10.5246C20.0141 11.15 20.6394 11.7159 21.2151 12.3611C21.3342 12.4802 21.3342 12.8674 21.235 13.0064C21.0265 13.3042 20.6593 13.2545 20.431 13.0064C19.1704 11.6265 17.7213 10.4353 16.2721 9.23408C16.0438 9.02561 15.885 8.72781 16.1133 8.42999C16.3614 8.11233 16.689 8.22152 16.9371 8.41013C17.7907 9.07525 18.6146 9.79001 19.4682 10.475L19.4185 10.5246Z" fill="white"/>
<path d="M21.6519 10.3459C20.7288 10.7132 20.4112 9.9984 19.9248 9.68074C19.627 9.47227 19.2796 9.12482 19.6767 8.73767C20.0439 8.37037 20.4112 8.71782 20.6692 8.94614C21.0563 9.31345 21.6122 9.59141 21.6618 10.3459L21.6519 10.3459Z" fill="white"/>
</svg>
