<svg width="93" height="45" viewBox="0 0 93 45" fill="none" xmlns="http://www.w3.org/2000/svg">
<path d="M1.58588 13.8523C0.780594 13.4523 0.190811 12.1821 0.00650787 11.214C-0.0870667 10.7356 0.848648 9.77319 1.51783 9.49341C5.12177 7.9938 8.73705 6.4886 12.4459 5.27716C16.8721 3.83351 21.3976 2.68642 25.8834 1.41623C26.0308 1.37426 26.1896 1.38545 26.3428 1.37146C31.183 0.976978 36.0175 0.456592 40.8663 0.23277C45.0742 0.0369251 49.3416 -0.189695 53.5098 0.266343C58.7612 0.839887 63.9587 1.98977 69.1363 3.09769C69.6978 3.218 70.2563 3.36908 70.8093 3.53694C72.8197 3.72999 74.8017 4.37348 76.727 4.94143C78.933 5.59611 81.1702 6.25359 83.2118 7.31394C84.105 7.67486 85.0322 7.991 86.036 8.1253C84.8167 12.2632 83.7732 16.3703 82.3498 20.3404C81.8451 21.7449 82.1343 22.3352 83.2146 22.9199C84.1816 23.4431 85.2307 23.8348 86.1522 24.4251C88.398 25.8548 90.587 27.3684 93 28.9855C88.7808 32.0043 84.7203 32.8716 80.192 31.9819C77.9122 31.5315 75.037 33.4983 74.0701 35.7897C72.814 38.761 71.5295 41.7154 70.2138 44.6615C70.1231 44.8685 69.7034 44.9273 69.5446 45C68.8046 44.2362 68.2743 43.4472 67.5371 42.9772C65.4757 41.6623 63.315 40.5012 61.2139 39.2422C56.6601 36.5087 52.197 33.6158 47.5467 31.0559C44.9466 29.6234 42.043 28.7225 39.284 27.5671C34.8748 25.7177 30.5507 23.639 26.045 22.0554C20.4024 20.069 14.5981 18.5386 8.89867 16.7117C6.40626 15.9115 3.92235 15.0106 1.58872 13.8523H1.58588ZM14.0083 13.0018C18.4175 14.1713 22.9203 15.0638 27.2048 16.5746C32.6319 18.4883 37.906 20.8524 43.1914 23.1382C44.6403 23.7649 45.8709 24.1034 47.3709 23.3172C50.4843 21.6917 53.6743 20.2145 56.8075 18.6337C57.4483 18.312 57.9842 17.7916 59.1128 16.9663C43.8095 14.0594 29.218 11.2728 14.2181 12.3667C14.15 12.5794 14.0792 12.792 14.0083 13.0018ZM55.4238 1.52814C49.1998 0.358669 42.9929 1.08609 36.8058 1.77155C30.959 2.42063 25.0384 2.91024 19.3419 4.25877C14.788 5.33591 10.5234 7.59652 6.20493 9.65848C24.4458 8.8779 42.1933 11.3595 60.2583 16.1717C59.4219 12.2156 58.7186 8.8779 58.0013 5.54015C57.9049 5.08971 57.5022 4.52736 57.661 4.23079C59.0844 1.52814 56.9521 1.81351 55.4238 1.52534V1.52814ZM77.83 6.39347C77.5663 6.31234 77.3026 6.2312 77.0389 6.15287C75.6098 5.736 74.1212 5.40026 72.6835 4.94982C71.0049 4.73999 69.3263 4.52736 67.6477 4.29234C65.7706 4.02935 63.9048 3.67683 61.3528 3.24877C65.0447 6.70962 68.3424 9.80397 71.796 13.0438C75.0569 11.6897 78.4368 10.2824 82.4831 8.60372C80.7874 7.79796 79.2875 7.08732 77.83 6.39627V6.39347ZM70.2932 39.6842C71.487 36.7046 73.4094 33.89 72.7771 30.3173C77.986 29.8305 83.3394 29.3297 88.69 28.8288C88.7524 28.6414 88.8119 28.4567 88.8743 28.2693C87.0681 27.1754 85.2619 26.0758 83.45 24.9959C83.1352 24.8084 82.7354 24.7553 82.4377 24.5483C80.7421 23.3872 79.5285 22.4723 80.8924 19.8704C82.2591 17.2656 82.4661 14.0706 83.3536 10.4335C79.8205 12.1149 76.7894 13.4774 73.8376 14.991C72.4595 15.6989 71.538 15.2065 70.6335 14.3084C67.2706 10.965 63.9218 7.60771 60.5561 4.27276C60.4285 4.14686 60.1619 4.16644 60.0627 4.14406C60.8311 8.63449 61.5939 13.0997 62.3906 17.772C58.4493 20.4243 54.7631 22.9032 50.7679 25.589C55.3387 26.9907 59.8132 27.4467 64.7044 26.6969C66.0144 30.7481 67.3528 34.914 68.7223 39.0687C68.8414 39.4296 69.1051 39.8213 69.4227 40.0032C69.5985 40.1039 70.211 39.8857 70.2932 39.6814V39.6842ZM67.1316 41.3881C67.3216 41.2118 67.5087 41.0327 67.7015 40.8537C66.2781 37.404 64.8434 33.9572 63.4313 30.5047C62.9833 29.4108 62.368 29.0387 61.075 29.3352C56.989 30.2837 53.1781 28.7757 49.3274 27.7797C48.2499 27.4971 47.215 27.0579 46.1573 26.6997C45.8851 26.6074 45.4456 26.655 45.335 26.4787C43.0865 22.9899 39.1848 22.1086 35.6914 20.7629C31.2567 19.0534 26.6773 17.6685 22.0895 16.3955C19.132 15.5758 16.047 15.2037 13.0187 14.6329C12.9591 14.8623 12.8968 15.0862 12.8372 15.3156C31.6565 22.5338 51.1138 28.4428 67.1373 41.3881H67.1316Z" fill="white"/>
</svg>
