<svg width="205" height="243" viewBox="0 0 205 243" fill="none" xmlns="http://www.w3.org/2000/svg">
<g clip-path="url(#clip0_12_1162)">
<path d="M3.99813 42.2742C4.31898 43.1378 4.69014 44.5779 4.28832 44.2915L5.01351 45.4502L3.80857 41.4098C3.75602 42.2509 3.97322 43.6139 3.52681 43.697L4.01036 45.4516C3.74473 43.7086 3.95062 43.1325 4.00199 42.2636L3.99813 42.2742Z" fill="white"/>
<path d="M3.48465 43.7188C3.48465 43.7188 3.51017 43.7114 3.52293 43.7076L3.2862 42.8476C3.2862 42.8476 3.24808 42.8118 3.22138 42.7914C3.2995 43.0596 3.40047 43.3586 3.48079 43.7293L3.48465 43.7188Z" fill="white"/>
<path d="M3.2189 42.7826C3.11306 42.4194 3.03241 42.1426 3.08778 41.9763C2.5353 41.3866 2.75698 42.5513 3.12681 44.0106C3.85877 45.4301 2.26475 41.8596 3.22142 42.7913L3.2189 42.7826Z" fill="white"/>
<path d="M6.54558 51.5162C6.44233 51.5182 6.4691 51.8951 6.51099 52.3239C6.57762 52.2201 6.60645 51.9865 6.54558 51.5162Z" fill="white"/>
<path d="M6.18466 52.7005L6.41502 53.5623C6.66303 53.7247 6.57003 52.9542 6.50845 52.3152C6.24192 52.7307 5.31921 51.1791 5.98719 54.1843C5.88308 53.3044 5.77512 52.4351 6.18466 52.7005Z" fill="white"/>
<path d="M3.57043 49.2865L3.87309 49.8739L3.25318 45.4659C2.67121 46.0578 3.67584 47.5104 3.57043 49.2865Z" fill="white"/>
<path d="M22.7287 89.2899L22.7023 89.5322C22.7798 89.6316 22.8852 89.7322 22.9715 89.8384C22.902 89.671 22.8261 89.5055 22.7223 89.2918L22.7287 89.2899Z" fill="white"/>
<path d="M24.3269 93.1126C23.9782 92.2008 23.6921 91.2426 23.3919 90.3072C23.228 90.1485 23.1138 89.9941 22.9779 89.8367C23.7534 91.5719 23.0685 91.3116 24.3333 93.1108L24.3269 93.1126Z" fill="white"/>
<path d="M22.7023 89.5322C21.2238 87.6171 21.4352 86.1574 19.6812 83.1777C20.4246 85.7293 21.6581 88.1099 22.6512 89.9506L22.6998 89.5236L22.7023 89.5322Z" fill="white"/>
<path d="M9.68033 74.0806C9.68033 74.0806 9.65883 74.0306 9.64237 73.9979C9.29627 75.328 10.6182 77.5608 10.8391 79.7204L11.6849 79.5115C10.5656 77.2853 10.9237 76.5428 9.6867 74.0788L9.68033 74.0806Z" fill="white"/>
<path d="M22.7283 106.415C22.5749 106.15 22.4127 105.878 22.2708 105.629C22.4481 105.953 22.5964 106.2 22.7283 106.415Z" fill="white"/>
<path d="M22.7282 106.415C23.4037 107.57 24.031 108.654 23.1322 107.968C24.4519 110.098 23.6952 107.691 24.7963 108.881C23.8089 107.986 23.7115 106.654 23.1735 105.544C22.9667 105.642 23.9996 108.522 22.7282 106.415Z" fill="white"/>
<path d="M25.9949 111.047C26.5354 112.165 27.1921 113.588 27.7696 113.955C27.0656 112.94 26.8763 111.625 25.9949 111.047Z" fill="white"/>
<path d="M25.1038 112.573L25.5483 113.053L24.9988 111.215L25.1038 112.573Z" fill="white"/>
<path d="M29.5702 118.994L27.0253 115.438L29.0197 118.958C30.6417 120.653 30.1267 119.527 29.3086 117.954C29.511 118.411 29.6347 118.788 29.5741 118.984L29.5702 118.994Z" fill="white"/>
<path d="M27.6688 114.369L26.7541 113.462C26.6213 113.529 27.7362 115.147 28.6069 116.638C28.061 115.596 27.5964 114.643 27.6599 114.362L27.6688 114.369Z" fill="white"/>
<path d="M29.3048 117.965C29.1264 117.566 28.8857 117.12 28.6094 116.647C28.8437 117.095 29.078 117.543 29.3048 117.965Z" fill="white"/>
<path d="M30.9016 122.21L31.2696 122.713L31.7997 122.371C30.9705 121.449 31.0064 122.142 30.9016 122.21Z" fill="white"/>
<path d="M33.2602 127.359C33.6908 128.576 35.3299 130.115 35.9662 130.803C35.3759 129.323 34.4228 128.071 33.4173 126.497C34.4165 128.073 33.4761 127.221 33.2602 127.359Z" fill="white"/>
<path d="M36.0146 132.3C35.2289 131.337 34.4841 130.325 33.7456 129.31C33.7366 130.467 34.9797 131.147 36.0146 132.3Z" fill="white"/>
<path d="M39.9422 136.729C40.1875 136.93 40.1441 136.567 40.6309 136.979C40.4419 136.33 39.5756 135.447 39.0454 134.673L39.9422 136.729Z" fill="white"/>
<path d="M159.182 156.834C159.097 156.755 159.029 156.691 159.049 156.544C158.714 156.773 158.916 157.155 159.229 157.543C159.73 157.575 158.602 157.266 159.188 156.832L159.182 156.834Z" fill="white"/>
<path d="M159.555 155.834C159.795 155.97 160.102 156.359 159.867 156.597L160.345 156.504L159.391 155.581C159.427 156.059 159.654 156.555 159.425 157.026L159.816 157.465C159.541 156.832 159.604 156.335 159.564 155.84L159.555 155.834Z" fill="white"/>
<path d="M159.409 157.021L159.215 156.805C159.215 156.805 159.192 156.821 159.175 156.836C159.24 156.892 159.314 156.955 159.388 157.065C159.398 157.052 159.399 157.033 159.409 157.021Z" fill="white"/>
<path d="M161.637 158.633C161.664 158.513 161.667 158.381 161.616 158.18C161.566 158.269 161.597 158.448 161.637 158.633Z" fill="white"/>
<path d="M161.487 159.165L161.66 159.424C161.804 159.279 161.704 158.933 161.631 158.635C161.522 159.117 160.931 159.13 161.465 160.157C161.354 159.776 161.246 159.404 161.481 159.167L161.487 159.165Z" fill="white"/>
<path d="M159.864 159.816L160.069 159.831L159.4 158.178C159.137 159.033 159.781 158.817 159.864 159.816Z" fill="white"/>
<path d="M171.29 166.631L171.274 166.814C171.315 166.811 171.372 166.794 171.419 166.79C171.383 166.735 171.348 166.689 171.29 166.631Z" fill="white"/>
<path d="M172.094 167.87L171.635 166.746C171.552 166.77 171.49 166.769 171.417 166.781C171.805 167.306 171.466 167.64 172.094 167.87Z" fill="white"/>
<path d="M171.28 166.812C170.504 166.785 170.657 165.576 169.717 165.128C170.125 166.126 170.731 166.756 171.255 167.129L171.287 166.81L171.28 166.812Z" fill="white"/>
<path d="M165.438 169.659C164.812 169.269 164.973 168.537 164.267 168.133L164.242 168.121C164.083 169.237 164.841 169.392 164.99 170.521L165.432 169.661L165.438 169.659Z" fill="white"/>
<path d="M170.86 178.363C170.79 178.29 170.723 178.225 170.66 178.15C170.734 178.24 170.802 178.305 170.86 178.363Z" fill="white"/>
<path d="M171.134 177.402C171.021 177.632 171.429 178.892 170.867 178.362C171.164 178.669 171.441 178.954 171.01 179.164C171.594 179.67 171.311 178.532 171.83 178.531C171.355 178.66 171.367 177.775 171.14 177.4L171.134 177.402Z" fill="white"/>
<path d="M172.351 179.158C172.585 179.531 172.865 180.041 173.13 179.907C172.835 179.655 172.782 178.902 172.351 179.158Z" fill="white"/>
<path d="M172.022 180.925L171.821 180.045L171.815 180.929L172.022 180.925Z" fill="white"/>
<path d="M173.047 180.288L172.634 180.296C172.568 180.446 173.042 180.815 173.397 181.274C173.179 180.906 172.998 180.546 173.047 180.288Z" fill="white"/>
<path d="M201.559 190.917C201.502 190.839 201.442 190.754 201.372 190.68L200.992 190.397C200.73 190.21 200.453 190.019 200.154 189.825C199.565 189.443 198.905 189.053 198.178 188.674C198.178 188.674 198.177 188.693 198.173 188.703L197.817 188.385C196.911 187.579 195.921 186.723 194.783 185.881C193.217 184.949 191.985 183.975 190.763 183.036C189.557 182.102 188.358 181.194 187.121 180.56C185.552 179.854 184.494 179.167 183.489 178.475C183.34 178.368 183.2 178.268 183.054 178.17C182.954 177.992 182.826 177.814 182.683 177.631C182.683 177.631 182.678 177.613 182.675 177.605C182.507 177.409 182.318 177.211 182.083 177.045C182.315 177.25 182.496 177.441 182.646 177.623L182.469 177.73C182.169 177.508 181.865 177.296 181.564 177.093C180.509 175.824 178.935 174.387 178.757 173.444C177.793 173.725 178.947 174.571 179.927 175.346C179.397 174.975 178.813 174.564 178.216 174.156L177.339 173.52L177.028 173.282L176.78 173.073C176.78 173.073 176.703 173.001 176.665 172.965C176.748 172.988 176.828 173.002 176.909 173.016C177.03 173.028 177.138 173.043 177.24 173.108C177.275 173.135 177.36 173.213 177.438 173.313C177.515 173.412 177.588 173.541 177.652 173.691C178.033 173.646 178.033 173.383 177.752 172.893C177.677 172.849 177.59 172.79 177.506 172.739C177.453 172.698 177.399 172.658 177.34 172.619C177.242 172.544 177.139 172.452 177.036 172.36C176.834 172.166 176.623 171.964 176.432 171.785C176.076 171.467 175.775 171.264 175.631 171.531C175.549 171.32 175.484 171.095 175.448 170.852L174.923 171.118L174.85 170.867C174.842 170.982 174.853 171.091 174.864 171.201C174.018 170.602 173.222 169.652 172.404 169.647C172.438 169.74 172.479 169.831 172.501 169.909C172.461 169.818 172.429 169.733 172.404 169.647C172.268 169.752 172.165 169.848 172.078 169.929C171.98 169.451 172.336 169.723 172.533 169.496C171.965 168.996 171.544 168.621 171.156 168.997L172.014 169.995C171.889 170.135 171.808 170.261 171.765 170.377C171.308 170.445 170.926 170.49 170.862 170.293C170.241 169.301 169.889 168.259 169.598 167.236C169.637 167.206 169.67 167.177 169.706 167.158C170.032 167.635 170.561 168.166 170.755 168.382L170.358 167.137L169.993 167.262C169.901 167.138 169.894 167.018 169.905 166.912C169.912 166.891 169.921 166.851 169.927 166.821C169.947 166.75 169.977 166.685 169.999 166.641L169.95 166.617C169.952 166.551 169.958 166.502 169.952 166.41L169.851 166.562L169.516 166.387C169.483 166.416 169.477 166.465 169.464 166.515C169.374 165.781 169.332 164.996 168.785 164.282C168.773 164.286 168.759 164.309 168.746 164.313C168.551 163.788 168.318 163.274 168.005 162.793C167.962 162.646 167.607 162.637 167.237 162.697C167.217 162.675 167.199 162.662 167.179 162.639C166.895 162.666 166.721 162.754 166.599 162.883C166.464 162.941 166.359 163.009 166.323 163.076C166.247 163.765 166.517 164.549 166.834 165.33L166.72 165.222L166.758 165.352C166.792 165.351 166.82 165.352 166.848 165.354C167.098 165.975 167.381 166.587 167.539 167.132C167.513 167.778 167.523 168.122 167.551 168.715C167.595 169.65 166.724 169.322 166.465 169.313C166.68 172.45 169.722 174.716 172.003 176.895C172.366 177.212 172.929 176.578 173.288 176.886L173.61 177.825C173.979 178.14 174.595 178.448 174.705 178.754C174.95 179.405 175.211 179.873 175.523 180.28C175.769 180.602 176.065 180.882 176.369 181.14C176.343 181.148 176.322 181.145 176.294 181.144C175.383 181.202 174.483 181.343 173.58 181.521C173.529 181.442 173.478 181.363 173.421 181.286C173.472 181.365 173.516 181.446 173.567 181.525C173.554 181.529 173.548 181.531 173.535 181.534C172.154 181.402 170.654 181.314 169.058 181.206C167.502 182.063 165.145 182.787 162.724 183.267C162.26 183.337 161.793 183.398 161.329 183.468C161.106 183.392 160.892 183.323 160.669 183.247C160.15 183.436 159.379 183.641 158.59 183.806C157.645 183.912 156.764 184 156.016 184.068C147.014 183.247 138.937 182.438 130.785 180.825C129.188 180.549 127.589 180.142 125.984 179.813L123.57 179.343L122.366 179.131L121.166 178.861C119.564 178.493 117.965 178.161 116.381 177.853C115.587 177.718 114.799 177.507 114.018 177.322C113.237 177.136 112.457 176.951 111.689 176.762C111.267 176.218 110.699 175.549 109.963 174.9C109.589 174.568 109.176 174.266 108.714 173.941C108.253 173.615 107.746 173.303 107.181 173.027C105.649 172.234 103.976 171.361 102.266 170.48C100.571 169.51 98.836 168.542 97.1334 167.687C96.7071 167.483 96.2846 167.268 95.8647 167.062C95.4486 166.846 95.0325 166.629 94.6317 166.417C93.8135 166.008 93.0206 165.639 92.2454 165.33C90.7027 164.691 89.2534 164.325 88.0113 164.124C86.2579 162.073 84.0921 160.602 82.8291 160.163C81.2189 159.506 79.5776 158.624 77.9304 157.602C77.8299 157.519 77.7231 157.437 77.6227 157.354C77.1766 156.987 76.7176 156.623 76.2728 156.237L74.9435 155.048C74.0552 154.255 73.1605 153.465 72.2632 152.713C70.448 151.234 68.7083 149.658 66.923 148.376C66.9433 148.398 66.9687 148.438 66.9915 148.469C64.8444 146.373 62.7408 144.237 60.7032 142.184C58.5805 140.41 56.5908 138.118 54.682 136.056C54.2057 135.538 53.732 135.029 53.2761 134.533C52.8201 134.037 52.3911 133.515 51.9619 133.039C51.1073 132.078 50.2906 131.199 49.5168 130.467C48.5726 129.626 47.6729 128.818 46.8856 127.921C46.0881 127.037 45.3467 126.155 44.623 125.287C44.4073 125.021 44.2029 124.771 43.9896 124.514C43.7844 124.143 43.5524 123.75 43.3013 123.364C43.2963 123.346 43.2849 123.331 43.2735 123.316C42.997 122.889 42.6926 122.462 42.3523 122.054C42.7013 122.516 42.988 122.93 43.2441 123.334L43.1086 123.439C42.6478 122.879 42.1845 122.31 41.7237 121.75C41.067 120.684 40.3749 119.543 39.7271 118.484C38.6813 116.771 37.812 115.261 37.6757 114.484C36.3697 113.945 37.947 116.056 39.3288 117.925C38.5863 116.968 37.7779 115.927 36.9427 114.866C36.1485 113.756 35.3404 112.621 34.5909 111.498C34.5059 111.372 34.4273 111.245 34.3423 111.12C35.0648 111.96 35.7312 112.395 36.1665 113.722C36.7045 114.072 36.7006 113.726 36.3707 112.903C34.8083 110.89 32.4341 106.59 31.8946 106.71C31.6987 106.204 31.5423 105.714 31.4329 105.268L30.3712 104.498L30.1729 103.936C30.1914 104.119 30.2252 104.306 30.2679 104.5C29.6072 103.491 28.9556 102.442 28.309 101.411C27.7193 100.504 27.1999 99.5759 26.6648 98.7371C26.1297 97.8984 25.6046 97.1412 25.0815 96.5335C25.1648 96.772 25.2431 96.9932 25.3099 97.1989C25.2202 96.9623 25.1394 96.7325 25.0815 96.5335C24.8143 96.3768 24.612 96.2762 24.4414 96.2133C24.1974 95.2334 24.9465 96.4978 25.3348 96.6192C24.1654 94.5296 23.2566 93.0021 22.5415 92.6381C23.1135 93.8414 23.7291 95.0039 24.328 96.1806C24.0836 96.1017 23.9357 96.1167 23.8475 96.1705C22.9191 95.193 22.1545 94.3742 22.0107 93.9282C20.7833 90.8795 20.0548 88.4268 19.4825 86.1538C19.5512 86.1995 19.6198 86.2452 19.6821 86.2927C20.3233 87.8043 21.3704 89.9015 21.7424 90.7033L20.944 87.8206L20.2427 87.124C20.0783 86.7497 20.0433 86.5347 20.0591 86.3987C20.0923 86.3703 20.1205 86.3245 20.1297 86.2374C20.163 86.2089 20.2076 86.1959 20.237 86.178L20.1534 86.0334C20.1562 85.9482 20.154 85.8456 20.1442 85.7171L19.9544 85.7067L19.299 84.6215C19.2507 84.598 19.2226 84.5968 19.1996 84.6129C19.0422 83.2887 18.983 81.9454 18.0121 79.5633C17.9879 79.5516 17.9612 79.5312 17.9345 79.5108C17.5845 78.2147 17.1736 76.8518 16.6293 75.3401C16.5629 74.9935 15.9516 74.0831 15.3019 73.2308C15.2639 73.148 15.2323 73.0634 15.1944 72.9806C14.6919 72.3013 14.3566 71.9579 14.1478 71.8592C13.918 71.6166 13.7374 71.4721 13.6711 71.482C13.513 72.2694 13.8388 73.9104 14.2751 75.7164C14.3216 75.8999 14.3681 76.0834 14.4147 76.2669C14.3502 76.1167 14.2882 75.9753 14.2237 75.8252L14.2839 76.1267C14.3435 76.2125 14.3853 76.2848 14.431 76.3466C14.4888 76.5925 14.553 76.8365 14.6108 77.0824C14.7418 77.5322 14.8729 77.9819 15.0014 78.423C15.2585 79.3053 15.4876 80.1393 15.6484 80.8338C15.5867 81.762 15.6026 82.3391 15.64 83.3229C15.7048 84.8992 14.1002 82.1951 13.6156 81.5293C13.8558 87.0332 19.8691 98.1461 24.9655 106.73C25.7768 108.042 26.8746 108.341 27.6834 109.644C27.9512 110.373 28.219 111.102 28.4842 111.823C29.339 113.094 30.7465 114.908 31.0398 115.629C31.6316 117.043 32.4673 118.676 33.5299 120.327C34.6066 121.956 35.8398 123.67 37.1099 125.393C38.3532 127.142 39.7562 128.751 41.0127 130.355C41.6473 131.156 42.2553 131.936 42.8276 132.688C43.1131 133.074 43.3872 133.445 43.6587 133.807C43.9278 134.16 44.1943 134.505 44.4455 134.844C45.7791 136.642 47.2507 138.344 48.7577 140.119C50.2852 141.87 51.9198 143.608 53.5087 145.688C54.7756 147.59 56.7462 149.483 58.8566 151.524C60.9514 153.607 63.3606 155.485 65.5018 157.442C66.143 157.79 66.7779 158.14 67.4255 158.486C69.1715 159.704 71.6213 162.387 72.2741 162.704C78.8476 166.831 84.8284 171.704 90.3323 174.37C91.6797 175.075 93.0066 175.852 94.349 176.54C95.6928 177.209 97.0302 177.88 98.3612 178.552C101.009 179.967 103.681 181.037 106.29 182.201C107.592 182.797 108.905 183.241 110.201 183.698C111.494 184.147 112.783 184.578 114.048 184.979C114.208 185.027 114.362 185.057 114.521 185.104C114.662 185.326 114.796 185.55 114.941 185.761C115.828 185.812 116.695 185.916 116.916 185.701C117.36 185.797 117.805 185.902 118.246 185.989C119.542 186.635 120.645 186.905 121.509 186.568C122.481 187.101 121.832 187.084 122.39 187.456C123.896 187.684 125.524 188.045 127.188 188.507C127.326 188.599 127.476 188.686 127.663 188.782C128.146 189.016 128.83 189.296 129.923 189.484L129.964 189.294C130.228 189.367 130.489 189.432 130.753 189.505C131.712 189.779 132.656 190.076 133.585 190.388C134.51 190.69 135.423 191.044 136.289 191.355C137.16 191.636 137.995 191.937 138.776 192.244C140.337 192.849 141.692 193.487 142.702 194.103C144.036 193.526 145.558 193.524 147.156 193.734C148.75 193.908 150.416 194.304 151.952 194.016C153.782 193.886 155.773 193.616 157.668 193.468C159.546 193.192 161.338 193.046 162.828 193.315C163.497 193.402 164.149 193.456 164.79 193.494C165.426 193.515 166.038 193.478 166.637 193.444C167.833 193.368 168.963 193.207 170.046 193.004C171.75 192.724 173.273 192.13 174.696 191.481C174.83 191.442 174.969 191.42 175.106 191.389C175.256 191.289 175.401 191.191 175.545 191.093C175.648 191.044 175.752 190.995 175.855 190.946C176.732 190.512 177.57 190.061 178.384 189.599C179.2 189.146 179.955 188.578 180.715 188.075C181.217 187.732 181.715 187.399 182.216 187.075C182.617 187.193 183.018 187.31 183.419 187.428C183.531 187.48 183.606 187.524 183.656 187.575L183.688 187.613C183.688 187.613 183.643 187.626 183.618 187.633L183.435 187.649C182.882 187.697 182.132 187.691 182.277 187.761C182.386 188.133 181.707 188.415 181.042 188.628C180.369 188.861 179.703 189.046 179.409 189.413C178.571 190.051 177.358 190.545 176.307 191.19C176.043 191.351 175.774 191.523 175.517 191.711L175.121 192.014L174.605 192.427C174.561 192.468 174.522 192.498 174.478 192.539L174.162 192.143C173.999 192.509 173.822 192.805 173.87 193.11C173.756 193.218 173.645 193.335 173.536 193.461C173.062 193.449 172.778 193.71 172.774 194.433C172.394 194.366 172.51 194.097 172.262 193.982C171.894 194.38 171.446 194.698 170.953 194.955C170.732 194.86 170.473 194.85 170.039 195.118L170.107 195.304C168.515 195.825 166.664 195.698 165.395 194.998C165.261 196.914 163.743 196.314 163.087 197.387C162.17 198.349 161.336 200 160.232 199.965C158.532 200.141 157.623 201.297 157.038 202.781C157.005 202.81 156.972 202.838 156.939 202.867C156.923 202.956 156.923 203.049 156.914 203.137C156.297 204.893 156.071 207.014 155.551 208.507C156.922 210.482 158.465 212.809 160.473 212.168C160.776 212.07 161.044 211.898 161.303 211.692C161.845 211.749 162.413 211.772 162.995 211.752C163.162 210.803 163.668 209.952 164.244 209.221C164.357 209.085 164.472 208.957 164.587 208.83L164.873 208.934C164.951 208.677 165.1 208.38 165.278 208.113C165.519 207.873 165.751 207.646 165.945 207.458C168.871 206.643 171.081 205.061 173.365 203.542C174.272 202.996 175.134 202.294 175.941 201.477C176.341 201.07 176.739 200.654 177.123 200.213L177.689 199.542L177.969 199.198L178.474 198.769C179.227 199.263 180.585 199.815 181.954 199.266C182.878 198.921 184.019 198.655 185.132 198.293C186.256 197.947 187.378 197.545 188.495 197.153C189.58 196.743 190.534 196.287 191.163 195.785C191.804 195.279 192.127 194.725 191.91 194.122C194.299 194.243 195.9 193.776 195.993 193.336C196.143 192.757 196.565 192.306 197.201 191.924C198.65 191.623 200.22 191.335 201.602 190.97L201.559 190.917ZM182.907 177.997C182.907 177.997 182.907 177.997 182.904 177.988C182.904 177.988 182.904 177.988 182.907 177.997ZM169.562 166.946L169.519 167.015C169.499 166.946 169.498 166.871 169.484 166.8C169.5 166.852 169.534 166.898 169.562 166.946ZM19.3912 85.6268L19.3199 85.6194C19.3199 85.6194 19.3098 85.5848 19.3047 85.5675C19.2847 85.4514 19.2647 85.3352 19.2473 85.2277C19.2825 85.3488 19.3356 85.4835 19.3912 85.6268Z" fill="white"/>
</g>
<defs>
<clipPath id="clip0_12_1162">
<rect width="152" height="208" fill="white" transform="translate(0 42.5195) rotate(-16.2444)"/>
</clipPath>
</defs>
</svg>
