<svg width="229" height="166" viewBox="0 0 229 166" fill="none" xmlns="http://www.w3.org/2000/svg">
<g clip-path="url(#clip0_12_1200)">
<path d="M1.92778 42.2731C2.84105 42.157 4.29421 41.8415 3.8656 41.6605L5.21632 41.7237L1.06975 42.4871C1.80379 42.1028 3.12205 41.7046 3.00683 41.3388L4.79062 40.9777C3.10999 41.4959 2.67952 41.8854 1.91997 42.2803L1.92778 42.2731Z" fill="white"/>
<path d="M3.00843 41.2986C3.00843 41.2986 3.01261 41.3206 3.01469 41.3316L2.1405 41.5088C2.1405 41.5088 2.09207 41.4951 2.06239 41.4837C2.33678 41.4316 2.64866 41.3839 3.01624 41.2914L3.00843 41.2986Z" fill="white"/>
<path d="M2.05355 41.4853C1.68179 41.5558 1.39855 41.6095 1.27259 41.7189C0.507089 41.5505 1.64887 41.2371 3.11868 40.9127C4.70681 40.8738 0.817273 41.1553 2.0624 41.4836L2.05355 41.4853Z" fill="white"/>
<path d="M11.3237 40.3718C11.2815 40.2943 11.6319 40.1595 12.0353 40.0145C11.9703 40.1067 11.7725 40.224 11.3237 40.3718Z" fill="white"/>
<path d="M12.2351 39.6173L13.1083 39.4347C13.3598 39.5523 12.6273 39.7995 12.0265 40.0161C12.2867 39.6475 10.4986 39.5989 13.4855 38.8614C12.6499 39.1453 11.8221 39.422 12.2351 39.6173Z" fill="white"/>
<path d="M8.05207 39.0765L8.70919 39.0602L4.48109 40.4092C4.76565 39.7339 6.49965 39.884 8.05207 39.0765Z" fill="white"/>
<path d="M52.1828 36.8883L52.3895 36.7693C52.5119 36.786 52.6473 36.8231 52.7795 36.8436C52.5994 36.8606 52.4182 36.8722 52.1818 36.8828L52.1828 36.8883Z" fill="white"/>
<path d="M56.301 36.5066C55.3325 36.6218 54.349 36.8026 53.38 36.9635C53.1675 36.9069 52.9801 36.8854 52.7806 36.8491C54.6713 36.713 54.1457 36.3109 56.302 36.5121L56.301 36.5066Z" fill="white"/>
<path d="M52.3895 36.7693C50.0379 36.457 48.815 37.2134 45.3888 37.1333C47.9999 36.6382 50.6659 36.5773 52.744 36.5596L52.3806 36.771L52.3895 36.7693Z" fill="white"/>
<path d="M32.9509 33.4373C32.9509 33.4373 32.8967 33.4419 32.8603 33.4431C33.9092 32.6399 36.4799 32.7054 38.5161 31.9829L38.6882 32.6971C36.2097 32.7794 35.6944 33.3503 32.9519 33.4428L32.9509 33.4373Z" fill="white"/>
<path d="M67.584 29.8575C67.2804 29.8523 66.967 29.8433 66.6821 29.8403C67.0487 29.8392 67.3346 29.8477 67.584 29.8575Z" fill="white"/>
<path d="M67.584 29.8573C68.9097 29.8853 70.1516 29.9064 69.1522 29.5201C71.6298 29.6261 69.1431 30.052 70.6819 30.3817C69.457 30.0153 68.2174 30.4898 66.9901 30.5458C66.9901 30.3519 70.0199 29.9371 67.584 29.8573Z" fill="white"/>
<path d="M73.1396 30.3833C74.3758 30.3256 75.9347 30.2296 76.5102 30.5081C75.298 30.4016 74.0349 30.8008 73.1396 30.3833Z" fill="white"/>
<path d="M74.1331 29.0944L74.7544 29.2274L72.8669 29.5739L74.1331 29.0944Z" fill="white"/>
<path d="M81.8091 29.777L77.5277 29.3459L81.5418 29.3829C83.7566 29.8923 82.5246 29.972 80.762 30.0097C81.2593 29.9724 81.6508 29.9096 81.8013 29.7841L81.8091 29.777Z" fill="white"/>
<path d="M76.8397 30.2632L75.6352 29.9556C75.6387 29.8295 77.568 29.9939 79.2801 30.0284C78.1106 30.0507 77.0557 30.0968 76.8298 30.2593L76.8397 30.2632Z" fill="white"/>
<path d="M80.7698 30.0024C80.3356 30.0334 79.832 30.0377 79.2889 30.0266C79.7914 30.0168 80.2939 30.0071 80.7698 30.0024Z" fill="white"/>
<path d="M85.2674 29.4462L85.8761 29.5132L85.7941 30.0475C84.612 29.8099 85.2508 29.5519 85.2674 29.4462Z" fill="white"/>
<path d="M90.9024 29.0844C92.1796 28.905 94.2621 29.4907 95.151 29.6813C93.5692 29.8501 92.0377 29.6559 90.1939 29.5552C92.0367 29.6504 90.8702 29.3015 90.9024 29.0844Z" fill="white"/>
<path d="M96.5176 29.103C95.3174 28.9144 94.09 28.7765 92.8637 28.6442C93.9002 28.1626 95.0403 28.8073 96.5176 29.103Z" fill="white"/>
<path d="M102.173 30.2027C102.458 30.3026 102.113 30.4193 102.691 30.6119C102.027 30.7378 100.864 30.4566 99.9418 30.3806L102.173 30.2027Z" fill="white"/>
<path d="M171.004 110.548C170.897 110.517 170.81 110.493 170.687 110.568C170.75 110.225 171.18 110.218 171.662 110.292C171.904 110.651 171.145 109.939 171.005 110.553L171.004 110.548Z" fill="white"/>
<path d="M170.263 111.235C170.488 111.358 170.969 111.427 171.082 111.154L171.203 111.548L169.967 111.218C170.411 111.048 170.955 111.013 171.28 110.649L171.842 110.759C171.156 110.815 170.736 111.066 170.273 111.239L170.263 111.235Z" fill="white"/>
<path d="M171.269 110.64L170.993 110.584C170.993 110.584 170.997 110.56 171.003 110.542C171.081 110.567 171.169 110.596 171.299 110.606C171.292 110.618 171.276 110.627 171.269 110.64Z" fill="white"/>
<path d="M173.667 111.633C173.571 111.703 173.453 111.76 173.25 111.804C173.31 111.73 173.484 111.68 173.667 111.633Z" fill="white"/>
<path d="M174.082 111.304L174.388 111.326C174.319 111.493 173.965 111.56 173.666 111.628C174.054 111.349 173.813 110.904 174.964 110.88C174.575 110.954 174.194 111.026 174.081 111.298L174.082 111.304Z" fill="white"/>
<path d="M173.977 109.83L174.078 109.976L172.306 110.158C172.963 109.612 173.043 110.178 173.977 109.83Z" fill="white"/>
<path d="M184.968 115.522L185.126 115.435C185.141 115.467 185.15 115.516 185.166 115.553C185.101 115.548 185.045 115.542 184.968 115.522Z" fill="white"/>
<path d="M186.424 115.611L185.219 115.731C185.205 115.66 185.178 115.614 185.158 115.555C185.795 115.628 185.951 115.239 186.424 115.611Z" fill="white"/>
<path d="M185.127 115.441C184.772 114.875 183.751 115.485 182.947 114.97C184.018 114.864 184.843 115.056 185.401 115.292L185.128 115.446L185.127 115.441Z" fill="white"/>
<path d="M185.201 109.931C184.584 109.626 183.994 110.046 183.33 109.687L183.309 109.674C184.245 109.097 184.707 109.597 185.786 109.244L185.2 109.925L185.201 109.931Z" fill="white"/>
<path d="M195.337 110.386C195.241 110.365 195.154 110.341 195.059 110.325C195.173 110.343 195.26 110.367 195.337 110.386Z" fill="white"/>
<path d="M194.588 110.984C194.747 110.806 196.055 110.592 195.338 110.392C195.741 110.486 196.115 110.575 196.121 110.169C196.824 110.395 195.681 110.652 195.901 111.038C195.815 110.632 195.023 111.005 194.589 110.99L194.588 110.984Z" fill="white"/>
<path d="M196.686 111.168C197.121 111.188 197.699 111.187 197.691 111.439C197.339 111.324 196.639 111.593 196.686 111.168Z" fill="white"/>
<path d="M198.135 110.198L197.258 110.41L198.05 110.043L198.135 110.198Z" fill="white"/>
<path d="M197.999 111.221L197.83 110.911C197.937 110.8 198.47 111.001 199.035 111.076C198.611 111.065 198.21 111.079 197.999 111.221Z" fill="white"/>
<path d="M219.692 128.042C219.599 128.032 219.496 128.023 219.4 128.001L218.984 127.835C218.704 127.717 218.414 127.589 218.112 127.447C217.518 127.166 216.887 126.836 216.236 126.452C216.236 126.452 216.253 126.443 216.261 126.435L215.823 126.302C214.713 125.959 213.521 125.575 212.28 125.075C210.775 124.294 209.375 123.779 208.011 123.257C206.657 122.744 205.33 122.225 204.233 121.567C202.93 120.691 201.862 120.186 200.812 119.724C200.653 119.658 200.503 119.595 200.353 119.526C200.151 119.525 199.936 119.503 199.71 119.471C199.71 119.471 199.692 119.475 199.683 119.476C199.436 119.432 199.177 119.373 198.928 119.266C199.211 119.355 199.46 119.411 199.687 119.447L199.709 119.272C199.381 119.14 199.061 119.001 198.75 118.861C197.16 118.598 195.198 118.018 194.274 118.273C194.117 117.442 195.368 117.951 196.482 118.362C195.923 118.12 195.304 117.855 194.684 117.58L193.738 117.189L193.392 117.055L193.098 116.957C193.098 116.957 193.001 116.929 192.953 116.916C193.009 116.968 193.056 117.022 193.103 117.076C193.165 117.161 193.224 117.235 193.325 117.284C193.365 117.299 193.472 117.33 193.594 117.347C193.717 117.364 193.863 117.365 194.026 117.351C194.147 117.653 193.911 117.76 193.35 117.753C193.279 117.715 193.189 117.675 193.107 117.633C193.048 117.61 192.989 117.587 192.928 117.559C192.819 117.517 192.693 117.478 192.566 117.439C192.305 117.369 192.035 117.295 191.793 117.227C191.355 117.093 191.044 116.953 191.223 116.736C190.998 116.762 190.768 116.806 190.534 116.878L190.55 116.379L190.293 116.428C190.393 116.375 190.496 116.338 190.599 116.302C189.701 115.919 188.508 115.718 188.155 115.112C188.253 115.099 188.352 115.091 188.432 115.076C188.333 115.084 188.243 115.095 188.155 115.112C188.192 114.968 188.234 114.852 188.27 114.754C187.798 114.877 188.194 115.03 188.074 115.27C187.382 115.053 186.866 114.894 187.039 114.451L188.302 114.679C188.374 114.529 188.454 114.417 188.54 114.338C188.406 113.97 188.284 113.668 188.08 113.701C186.923 113.646 185.836 113.813 184.793 114.016C184.782 114.058 184.771 114.095 184.768 114.129C185.336 114.175 186.039 114.35 186.315 114.406L185.027 114.622L184.984 114.299C184.834 114.282 184.723 114.326 184.632 114.377C184.616 114.392 184.584 114.415 184.559 114.431C184.504 114.476 184.458 114.524 184.428 114.559L184.386 114.532C184.327 114.561 184.286 114.585 184.201 114.619L184.294 114.481L183.994 114.304C184.006 114.268 184.047 114.243 184.087 114.213C183.389 114.448 182.665 114.739 181.79 114.625C181.788 114.614 181.803 114.595 181.801 114.584C181.246 114.655 180.684 114.693 180.118 114.657C179.968 114.686 179.809 114.425 179.706 114.126C179.677 114.12 179.657 114.112 179.629 114.106C179.532 113.885 179.537 113.719 179.601 113.575C179.596 113.451 179.613 113.345 179.658 113.291C180.244 112.952 181.065 112.83 181.902 112.746L181.756 112.705L181.889 112.68C181.903 112.706 181.916 112.726 181.929 112.746C182.595 112.677 183.265 112.635 183.823 112.53C184.392 112.245 184.706 112.111 185.251 111.888C186.11 111.537 185.445 111.025 185.327 110.836C188.239 109.708 191.572 111.037 194.503 111.839C194.942 111.978 194.612 112.656 195.042 112.797L196.023 112.651C196.463 112.795 197.003 113.126 197.324 113.082C198.014 112.997 198.546 112.999 199.045 113.064C199.44 113.115 199.817 113.22 200.179 113.339C200.175 113.317 200.163 113.302 200.15 113.282C199.815 112.582 199.558 111.855 199.335 111.111C199.242 111.105 199.149 111.1 199.055 111.089C199.148 111.095 199.24 111.094 199.333 111.1C199.33 111.088 199.329 111.083 199.327 111.072C198.62 110.1 197.902 109.022 197.127 107.88C197.235 106.372 196.883 104.323 196.285 102.328C196.15 101.954 196.006 101.582 195.871 101.209C195.708 101.074 195.554 100.944 195.391 100.809C195.34 100.346 195.197 99.6888 195.009 99.0346C194.703 98.2889 194.407 97.5982 194.149 97.0142C189.58 90.6629 185.414 84.9933 180.494 79.598C179.566 78.5253 178.52 77.5037 177.54 76.4467L176.09 74.8459L175.387 74.0385L174.634 73.2578C173.621 72.2184 172.642 71.1669 171.691 70.1158C171.232 69.5814 170.706 69.0824 170.207 68.5784C169.708 68.0744 169.209 67.5704 168.712 67.0774C168.044 66.9875 167.2 66.8397 166.303 66.5593C165.845 66.4181 165.398 66.235 164.909 66.0255C164.42 65.8161 163.924 65.5681 163.435 65.2618C162.07 64.4487 160.573 63.5639 159.052 62.6549C157.459 61.7941 155.85 60.9019 154.356 59.9879C153.991 59.755 153.618 59.5292 153.254 59.3018C152.882 59.0816 152.51 58.8613 152.149 58.6504C151.433 58.2104 150.764 57.773 150.156 57.3238C148.924 56.4398 147.978 55.5132 147.269 54.6728C144.678 54.212 142.434 53.2066 141.501 52.4484C140.225 51.5216 138.733 50.6643 137.113 49.8597C136.996 49.8193 136.877 49.7734 136.759 49.7331C136.239 49.5523 135.717 49.3606 135.18 49.1888L133.545 48.6893C132.454 48.3545 131.363 48.0141 130.304 47.6561C128.201 46.9146 126.043 46.2691 124.131 45.4686C124.16 45.4746 124.206 45.4772 124.244 45.4815C121.445 44.7465 118.628 44.0606 115.915 43.3892C113.416 42.5404 110.508 42.0029 107.841 41.431C107.173 41.2899 106.513 41.147 105.873 41.0118C105.233 40.8766 104.581 40.7723 103.97 40.6486C102.742 40.4083 101.604 40.1623 100.617 39.8877C99.4579 39.5316 98.3486 39.1946 97.2072 38.9778C96.0725 38.7483 94.9638 38.5594 93.875 38.3782C93.5443 38.3269 93.2324 38.2777 92.9106 38.2247C92.4888 38.2249 92.0374 38.2136 91.5828 38.1857C91.5651 38.1891 91.5463 38.1869 91.5276 38.1848C91.0266 38.1544 90.5127 38.1036 90.0013 38.0181C90.5648 38.088 91.0589 38.1311 91.5312 38.1556L91.5681 38.0118C90.8683 37.8993 90.1595 37.7886 89.4597 37.6761C88.2214 37.6259 86.9014 37.5797 85.6731 37.5333C83.6876 37.4594 81.9589 37.4337 81.2024 37.6513C80.1617 36.9022 82.732 37.2073 85.0003 37.467C83.824 37.3081 82.544 37.1346 81.2344 36.9497C79.8977 36.8154 78.5334 36.6808 77.204 36.5851C77.0551 36.5734 76.9072 36.5672 76.7583 36.5556C77.8216 36.7473 78.496 37.0641 79.8753 36.8425C80.419 37.0986 80.1061 37.2377 79.2251 37.3307C76.7501 36.9961 71.8722 36.9975 71.7501 36.5474C71.2118 36.6096 70.7052 36.6943 70.2569 36.7964L69.1127 36.3235L68.5233 36.4067C68.6951 36.3457 68.8779 36.2939 69.0705 36.246C67.8822 36.1691 66.6617 36.1155 65.4588 36.0585C64.3919 35.9929 63.3364 35.9878 62.3544 35.9346C61.3723 35.8813 60.4678 35.802 59.6987 35.6628C59.9486 35.6268 60.1808 35.5942 60.3943 35.5594C60.1433 35.5899 59.9022 35.6242 59.6987 35.6628C59.444 35.5286 59.2674 35.4196 59.1383 35.3187C58.1532 35.5397 59.6091 35.5772 59.8836 35.8159C57.5066 35.8048 55.7461 35.7567 55.1143 35.3747C56.44 35.3058 57.7475 35.2859 59.0606 35.2479C58.8856 35.0986 58.8361 34.9826 58.847 34.895C57.5728 34.6064 56.5109 34.3745 56.0486 34.4507C52.7844 34.7903 50.2686 35.256 47.9808 35.7639C48.0511 35.7962 48.1214 35.8285 48.1907 35.8552C49.823 35.711 52.1547 35.6281 53.0342 35.5753L50.1018 36.1656L49.1769 35.9305C48.7703 35.962 48.562 36.0243 48.4465 36.0918C48.435 36.1282 48.4059 36.1679 48.3314 36.2105C48.32 36.2469 48.3273 36.2854 48.3237 36.3146L48.1581 36.3118C48.0826 36.3489 47.9894 36.3894 47.8697 36.4349L47.7795 36.2981L46.5246 36.2567C46.483 36.2304 46.4699 36.21 46.4746 36.1864C45.2168 36.613 43.9834 37.1205 41.4279 37.3771C41.4071 37.3639 41.3774 37.3524 41.3477 37.341C40.033 37.6131 38.6324 37.8672 37.0413 38.0835C36.7013 38.1764 35.6224 38.096 34.5793 37.9631C34.4887 37.9688 34.3992 37.9801 34.3086 37.9859C33.4837 37.8915 33.0323 37.7832 32.8547 37.6687C32.5386 37.5975 32.3318 37.5227 32.3125 37.4693C32.9533 37.0285 34.5679 36.597 36.3777 36.1797C36.5625 36.1389 36.7473 36.0982 36.9322 36.0574C36.7697 36.0711 36.6161 36.0831 36.4537 36.0968L36.7504 36.0178C36.853 36.0268 36.9358 36.0282 37.0108 36.0368C37.2565 35.9788 37.5033 35.9263 37.7491 35.8683C38.2093 35.781 38.6696 35.6937 39.121 35.6081C40.0238 35.437 40.8715 35.2648 41.5645 35.0992C42.373 34.6722 42.8988 34.4471 43.7994 34.0711C45.2447 33.4721 42.1298 33.39 41.3248 33.3032C46.3769 31.2221 58.9304 31.1278 68.8192 31.3906C70.3443 31.4549 71.0809 32.1476 72.5972 32.2135C73.3668 32.1132 74.1363 32.0129 74.897 31.9143C76.404 32.0276 78.6343 32.3287 79.408 32.2504C80.931 32.1099 82.7555 32.0604 84.6931 32.1718C86.6161 32.3032 88.6828 32.5156 90.7725 32.7522C92.8747 32.9579 94.9186 33.34 96.8963 33.6149C97.8862 33.7579 98.8465 33.8894 99.7671 34.0056C100.236 34.0592 100.686 34.1107 101.127 34.1639C101.559 34.2188 101.982 34.2753 102.395 34.3226C104.579 34.5754 106.736 34.9704 108.974 35.3612C111.198 35.7775 113.457 36.2784 116.004 36.605C118.254 36.7657 120.795 37.4525 123.529 38.1827C126.294 38.8842 129.008 39.903 131.679 40.6907C132.265 41.0243 132.85 41.3524 133.437 41.6915C135.276 42.4888 138.731 43.2075 139.294 43.5627C145.804 46.7524 152.732 49.1958 157.472 52.1908C158.679 52.9025 159.943 53.5694 161.133 54.2845C162.306 55.0083 163.479 55.7267 164.65 56.4396C167.05 57.8261 169.149 59.3721 171.306 60.8331C172.397 61.5556 173.354 62.349 174.317 63.1241C175.271 63.901 176.208 64.6812 177.107 65.4571C177.217 65.5559 177.31 65.6581 177.42 65.7568C177.68 65.7704 177.938 65.7784 178.189 65.7991C178.613 66.4372 179.076 67.0393 178.977 67.2918C179.252 67.5817 179.536 67.8699 179.802 68.1615C180.934 68.8591 181.646 69.5679 181.711 70.3479C182.604 70.8513 182.313 70.3764 182.885 70.6385C183.73 71.664 184.748 72.7253 185.872 73.772C186.013 73.8366 186.156 73.9122 186.321 74.0119C186.738 74.2749 187.28 74.6681 187.915 75.403L187.761 75.5119C187.939 75.6777 188.109 75.8451 188.287 76.0109C188.941 76.6108 189.611 77.1908 190.286 77.7527C190.952 78.3162 191.658 78.8493 192.306 79.365C192.93 79.8967 193.556 80.3937 194.165 80.8483C195.374 81.7593 196.524 82.5048 197.507 83.0024C197.557 84.2301 198.202 85.362 199.071 86.4629C199.906 87.576 200.972 88.651 201.366 89.9102C202.029 91.3239 202.633 92.914 203.306 94.3828C203.858 95.8915 204.488 97.2828 205.365 98.2796C205.728 98.741 206.054 99.2037 206.361 99.6642C206.651 100.128 206.878 100.598 207.102 101.057C207.543 101.977 207.879 102.883 208.158 103.77C208.63 105.152 208.745 106.527 208.766 107.851C208.788 107.967 208.828 108.079 208.859 108.193C208.833 108.346 208.806 108.494 208.779 108.641C208.779 108.738 208.779 108.835 208.779 108.932C208.762 109.762 208.713 110.569 208.644 111.364C208.583 112.156 208.394 112.95 208.266 113.721C208.171 114.235 208.083 114.742 208.005 115.247C208.281 115.497 208.558 115.747 208.835 115.997C208.929 116.059 209 116.096 209.067 116.112L209.115 116.12C209.115 116.12 209.108 116.082 209.103 116.06L209.04 115.918C208.848 115.487 208.523 114.933 208.648 115.012C209.028 114.939 208.993 114.319 208.901 113.738C208.825 113.142 208.708 112.571 208.913 112.202C209.13 111.317 209.058 110.213 209.19 109.168C209.223 108.905 209.263 108.635 209.323 108.367L209.427 107.948L209.578 107.395C209.597 107.346 209.607 107.304 209.625 107.255L209.135 107.183C209.395 106.911 209.585 106.658 209.88 106.568C209.929 106.439 209.987 106.308 210.053 106.176C209.841 105.829 209.955 105.511 210.604 105.211C210.381 104.957 210.189 105.153 209.98 105.016C210.181 104.578 210.277 104.115 210.298 103.644C210.118 103.518 210 103.33 210.055 102.898L210.252 102.872C210.042 101.475 209.14 100.152 207.971 99.4959C209.637 98.6098 208.452 97.7285 209.137 96.8003C209.612 95.724 210.741 94.4266 210.24 93.6209C209.675 92.2856 210.328 91.1356 211.414 90.0916C211.425 90.0552 211.437 90.0188 211.448 89.9825C211.522 89.9343 211.606 89.8955 211.68 89.8529C212.997 88.6739 214.809 87.6349 215.93 86.6355C218.29 86.8437 221.04 87.0348 221.318 88.7894C221.359 89.0553 221.318 89.3252 221.243 89.6019C221.525 89.9815 221.787 90.3937 222.017 90.8346C221.234 91.348 220.684 92.0737 220.272 92.8018C220.198 92.9413 220.132 93.0792 220.067 93.217L220.282 93.3871C220.084 93.5501 219.88 93.7826 219.716 94.0248C219.603 94.3026 219.498 94.5678 219.411 94.7894C219.924 97.2977 219.441 99.5898 219.047 101.911C218.942 102.809 218.678 103.737 218.287 104.672C218.091 105.137 217.886 105.603 217.653 106.069L217.29 106.765L217.099 107.115L216.929 107.666C217.693 108.023 218.768 108.805 218.857 110.048C218.94 110.876 219.186 111.833 219.334 112.808C219.501 113.786 219.617 114.784 219.741 115.776C219.834 116.75 219.83 117.646 219.646 118.319C219.464 119.004 219.103 119.471 218.468 119.557C219.593 121.283 219.855 122.664 219.499 122.914C219.043 123.263 218.816 123.762 218.743 124.391C219.09 125.591 219.499 126.876 219.758 128.053L219.692 128.042ZM200.135 119.488C200.135 119.488 200.135 119.488 200.126 119.489C200.126 119.489 200.126 119.489 200.135 119.488ZM184.517 114.108L184.56 114.049C184.489 114.062 184.422 114.092 184.352 114.111C184.405 114.101 184.461 114.108 184.517 114.108ZM47.468 35.9125L47.431 35.8625C47.431 35.8625 47.3956 35.8692 47.3779 35.8725C47.2649 35.9054 47.1519 35.9382 47.0478 35.9693C47.1717 35.9458 47.3154 35.93 47.468 35.9125Z" fill="white"/>
</g>
<defs>
<clipPath id="clip0_12_1200">
<rect width="128.131" height="208" fill="white" transform="matrix(0.186303 0.982492 0.982492 -0.186303 0.446777 39.2017)"/>
</clipPath>
</defs>
</svg>
