<svg width="28" height="70" viewBox="0 0 28 70" fill="none" xmlns="http://www.w3.org/2000/svg">
<path d="M31.259 49.2513C31.0208 48.7737 30.8844 48.0163 30.0891 48.1642C29.632 48.2302 29.684 48.7435 29.8629 49.0938C30.1155 49.6189 30.2101 50.4097 31.0339 50.2532C31.5517 50.148 31.3296 49.6552 31.259 49.2513ZM28.6886 45.0516C28.3504 45.1334 28.0192 45.3065 28.1258 45.658C28.3073 46.2564 28.5668 46.8727 29.3679 46.7439C29.825 46.6779 29.9798 46.299 29.853 45.881C29.6801 45.311 29.3452 44.925 28.6915 45.061L28.6886 45.0516ZM43.2186 41.661C42.0813 41.5703 40.9373 41.4919 40.0612 42.878C41.4287 42.7018 42.4166 42.4022 43.2186 41.661ZM20.605 13.0318C20.6154 11.151 19.8601 9.48167 19.4658 7.7029L19.0289 7.83542L20.605 13.0318ZM20.7637 17.3509C21.1284 17.2196 21.5475 17.1651 21.4717 16.6071C21.3641 15.9447 20.5937 15.5249 19.8433 15.7525C19.4501 15.8925 19.1085 16.0998 19.3145 16.6079C19.5988 17.2375 20.0013 17.6755 20.7609 17.3414L20.7637 17.3509ZM17.9044 8.53957C17.9766 11.3082 18.1138 11.6919 19.1982 12.8049L17.9044 8.53957ZM15.7653 8.22366C15.5432 10.5006 16.4217 12.3711 18.0057 13.9343C17.0474 12.1087 16.8185 10.0204 15.7653 8.22366ZM21.2063 60.1533C22.6199 60.1291 23.235 59.7973 23.1888 58.3797C23.0783 54.5957 22.3121 50.9069 22.0438 47.15C21.7029 42.9483 21.3211 38.7487 21.0029 34.5194C20.9442 33.6762 20.569 33.1572 19.7276 33.1531C18.6913 33.1562 19.0114 33.972 19.0654 34.5262C19.5922 39.5117 20.1438 44.5105 20.605 49.4848C20.6898 50.1749 21.1373 50.6927 21.113 51.4677C21.0333 54.2824 21.1608 57.0965 21.2282 60.157L21.2063 60.1533ZM30.9268 29.9636C29.091 31.1948 29.11 31.189 29.782 32.6865C30.0749 33.3445 30.4199 33.9349 30.8599 34.4965C35.2229 40.0924 38.8684 46.0926 42.3242 52.2541C42.5909 52.723 42.9175 53.1841 43.3085 53.5842C43.6158 53.9474 44.0193 53.7732 44.358 53.5563C44.7414 53.3156 44.5162 53.0519 44.3633 52.7871C43.6127 51.4068 42.9001 50.015 42.1268 48.6624C39.9351 44.8562 37.7719 41.0412 35.5318 37.2808C34.061 34.7911 32.465 32.4017 30.9335 29.9513L30.9268 29.9636ZM25.3758 31.9067C27.7256 31.1732 29.0354 30.1224 29.9887 28.2046C31.0348 26.1134 30.7034 22.2512 28.9423 21.1982C26.164 19.5616 23.3664 16.9038 19.7869 19.6701C17.2144 20.0458 16.4105 22.0117 16.0452 24.1246C15.0708 29.7003 19.8431 33.6367 25.3787 31.9162L25.3758 31.9067ZM32.22 43.9389C35.5162 42.7006 35.3298 42.394 33.6149 39.9888C32.0633 37.8141 30.2898 35.8313 28.9972 33.4847C28.4894 32.5287 27.8141 32.4223 26.837 32.7913C25.7611 33.211 24.6331 33.6984 23.4474 33.6535C22.3187 33.5912 22.1473 34.1204 22.2216 35.0834C22.4231 37.2526 22.5335 39.4287 22.7094 41.6161C22.8709 43.4136 23.0827 45.2062 23.2574 46.979C23.3033 47.3697 23.2959 47.7557 23.8494 47.8368C24.8786 47.9811 26.3515 46.8185 26.4623 45.7476C26.639 43.8682 28.462 42.7655 30.0613 43.7638C30.8672 44.2663 31.463 44.1789 32.2039 43.9542L32.22 43.9389ZM32.4197 45.4863C33.5261 45.0988 34.7751 45.0104 35.7299 44.1918C34.5094 44.2715 33.2794 44.3541 32.4729 45.4909C32.3457 45.5502 32.2499 45.6104 32.1417 45.664C32.2499 45.6104 32.3209 45.537 32.4197 45.4863ZM28.0919 48.8633C27.9057 48.8991 27.7335 48.8787 27.6063 48.938C26.4261 49.7317 24.593 49.7068 23.9396 50.8697C23.2635 52.0603 24.0593 53.6239 24.2128 55.0193C24.4396 56.7244 24.1065 58.4645 24.6137 60.1364C24.775 60.6684 24.5561 61.212 24.0458 61.2734C22.684 61.4686 23.1655 62.2354 23.3874 62.9669C23.7723 64.1676 24.2939 65.3061 25.0605 66.3288C25.3937 66.7775 25.3962 67.2643 24.9578 67.5633C24.3952 67.931 24.0286 67.4405 23.8638 67.0341C23.2973 65.8159 22.8124 64.5936 22.2905 63.3515C22.1104 62.9289 22.1453 62.2233 21.5921 62.2458C19.626 62.2613 20.015 60.7739 20.0432 59.7384C20.0918 57.6074 19.9637 55.5093 19.8203 53.3951C19.7604 52.4796 19.3544 52.1671 18.4392 52.5692C17.4108 52.9745 16.3507 53.2752 15.3425 53.747C14.414 54.1739 13.5772 54.1165 13.1313 53.1936C12.7246 52.3315 13.4121 51.7599 14.0657 51.2815C15.0928 50.4617 16.3584 50.2231 17.5544 49.8914C19.3545 49.3973 19.4186 49.2326 19.2022 47.4932C18.6504 42.7331 18.1841 37.947 17.7454 33.1837C17.664 32.3682 17.5184 31.7173 16.8683 31.1468C14.156 28.7018 13.7354 23.0409 17.0753 19.6212C18.6381 18.0371 18.7053 17.301 17.1892 15.5512C15.591 13.7019 14.9053 11.441 14.3582 9.15874C13.8527 7.08174 14.7046 5.54739 16.4284 4.97267C18.1997 4.38355 20.0134 5.23383 20.7184 7.25034C21.5326 9.52419 22.2662 11.8744 22.4572 14.3165C22.6069 16.3147 23.1903 17.1439 25.0515 17.6375C25.9868 17.8829 26.8245 18.2512 27.6482 18.6757C31.1361 20.429 32.1425 23.3707 31.6438 26.9245C31.4781 28.0537 31.6735 28.8347 32.2477 29.7705C34.2983 33.1113 36.2207 36.5428 38.2238 39.8979C39.1039 41.3634 39.1333 41.3234 40.779 40.7308C41.4287 40.513 42.0981 40.2581 42.782 40.0506C43.5989 39.8029 44.2886 39.9568 44.8557 40.6977C45.9208 42.0551 45.7543 42.6347 44.0757 43.0505C43.7717 43.1427 43.4583 43.2377 43.1676 43.3051C40.845 43.9577 40.7466 44.1121 41.9649 46.0766C43.3665 48.3383 44.4076 50.813 46.1765 52.8492C46.4409 53.1735 46.7081 53.5074 46.4716 53.8904C45.3014 55.8117 46.2332 57.6868 46.5147 59.5724C46.5418 59.7302 46.6259 59.8706 46.6559 60.0379C46.7294 60.4513 46.6651 60.8546 46.2281 60.9872C45.7855 61.1007 45.4319 60.8241 45.3394 60.4165C45.1581 59.5794 45.0651 58.7258 44.897 57.8639C44.7042 56.9887 44.701 55.9524 43.2931 55.9956C42.7684 56.0095 42.7558 55.3183 42.515 54.9349C41.1631 52.4611 39.8054 49.9682 38.3927 47.5336C37.3136 45.6513 37.1414 45.6309 34.9709 46.2374L34.287 46.4448C31.9124 47.1651 31.8459 47.1852 32.8524 49.546C33.2401 50.4139 32.9478 50.8864 32.3549 51.3256C32.0438 51.5651 31.6391 51.6672 31.2888 51.846C29.5954 52.6916 29.5764 52.6974 29.1763 50.8996C29.0094 50.11 28.7297 49.4272 28.1187 48.9174L28.0919 48.8633Z" fill="white"/>
<path d="M22.0547 22.8724C20.1171 23.4601 19.1831 24.8949 19.7118 26.4669C20.3269 28.324 22.3932 29.357 24.2215 28.7506C25.8978 28.1903 27.2052 26.0717 26.8049 24.5126C26.4178 22.9287 24.2526 22.185 22.0576 22.8819L22.0547 22.8724ZM21.7858 21.678C22.4222 21.485 22.9947 21.218 23.6441 21.2389C26.3053 21.2927 28.2109 22.9243 28.1185 25.0478C27.9841 28.0243 25.7522 30.3092 23.1096 30.146C19.3383 29.9205 17.5238 27.2551 18.7836 23.8853C19.32 22.4052 20.5061 21.9728 21.7858 21.678Z" fill="white"/>
</svg>
