<svg width="290" height="222" viewBox="0 0 290 222" fill="none" xmlns="http://www.w3.org/2000/svg">
<path d="M265.309 208.973C265.219 214.636 264.902 215.587 260.78 216.312L260.78 216.221C260.87 214.545 260.689 212.778 260.372 211.102C260.689 209.834 260.282 208.158 260.282 206.889C260.372 204.353 259.874 201.861 259.648 199.46C259.421 197.377 258.379 195.157 261.64 194.115C265.717 198.328 265.309 203.673 265.309 209.018L265.309 208.973ZM252.31 185.689C246.331 184.965 244.021 178.849 245.924 173.64C247.509 169.653 250.227 167.343 254.439 166.709C262.32 165.758 266.623 175.633 263.271 181.703C262.139 183.787 260.327 184.965 258.243 185.463C256.477 186.006 254.348 186.006 252.355 185.689L252.31 185.689ZM251.902 215.677C252.22 215.36 252.446 214.953 252.219 214.409C252.219 212.824 251.359 210.966 251.178 209.381C250.951 207.071 250.634 204.76 250.453 202.45C250.227 201.091 250.453 199.098 250.77 197.83C250.997 197.105 253.397 193.617 253.397 193.753C255.707 200.683 256.251 209.154 256.115 216.402C254.756 216.493 253.261 215.995 251.902 215.677ZM248.732 215.043C243.704 214.5 243.886 210.423 243.478 206.346C242.934 201.816 242.617 197.331 243.704 192.937C243.931 192.212 244.338 191.895 244.837 191.669C245.244 191.352 245.788 191.261 246.422 191.442C246.648 191.533 246.739 191.85 246.83 192.303C247.056 192.711 247.147 193.164 247.056 193.662C245.924 198.509 246.83 203.084 247.781 207.841L247.781 207.931C247.871 210.332 248.188 212.778 248.822 215.043L248.913 215.134L248.687 215.043L248.732 215.043ZM243.614 110.991C232.608 106.687 221.601 102.384 210.776 97.5821C195.15 90.4701 180.339 81.6368 163.671 77.0162C162.63 76.6991 160.818 76.382 160.727 75.8838C159.867 68.6359 154.975 69.3606 150.446 71.1726C145.735 73.0752 143.425 76.9256 144.241 82.271C155.881 78.6017 165.936 82.4975 175.901 86.8915C193.203 94.6377 210.323 102.746 227.489 110.719C230.343 112.078 233.559 112.486 236.322 116.291C228.894 119.416 222.054 122.995 214.717 125.215C194.471 131.511 175.176 140.118 155.337 147.457C153.028 148.317 150.491 148.816 148.317 149.858C141.07 152.983 136.36 151.126 130.698 145.146C121.866 135.905 111.313 127.933 100.08 121.863C83.5025 112.848 70.1864 99.8471 55.6926 88.2052C46.9963 81.365 38.617 74.0265 31.1437 65.329C33.5442 61.1162 37.8471 59.4401 41.5158 58.217C70.1411 48.2512 96.0488 32.7135 122.908 19.3049C131.196 15.0921 139.892 11.7399 148.272 7.75358C151.714 6.0775 154.25 6.62109 156.968 9.02195C169.469 20.3468 183.736 29.4972 196.283 40.6862C216.211 58.6247 237.409 75.2043 254.076 96.4949C256.386 99.4394 261.097 101.433 258.923 106.144C257.338 109.496 247.373 112.667 243.523 111.081L243.614 110.991ZM75.2592 110.855C75.8933 111.172 76.5274 111.58 77.0256 112.123C77.6597 112.757 78.2938 113.256 79.0185 113.89L80.6944 115.339C88.7565 121.636 98.2228 125.622 106.376 131.693C115.615 138.623 123.678 146.596 131.876 154.569C135.544 158.147 138.081 158.238 141.931 156.788C155.337 151.67 168.79 146.732 182.106 141.568C183.782 140.934 185.367 140.435 186.726 140.118L214.536 129.926C220.922 127.616 227.218 125.215 233.513 122.678C237.59 121.228 243.387 118.375 245.471 123.629C248.098 130.334 248.732 138.533 248.732 145.781C248.822 151.534 248.098 158.782 250.317 164.263C249.774 164.67 249.275 164.897 248.641 165.214C239.311 169.517 238.133 171.601 240.353 181.386C240.896 183.923 241.394 186.505 240.353 188.815C237.816 194.387 239.492 199.913 240.036 205.485C240.036 205.712 239.945 205.893 240.036 206.21L240.896 211.465C241.123 212.824 241.213 214.183 242.028 215.36C243.07 216.81 245.29 217.354 247.282 217.761C253.895 221.657 263.226 222.382 268.072 219.437C270.79 217.761 271.741 215.224 271.741 212.189C271.65 206.436 271.197 200.457 268.616 195.383C265.762 190.265 265.173 186.278 267.891 180.706C271.016 174.41 267.574 168.023 261.278 164.67C259.693 163.946 258.017 163.629 256.341 163.402C253.941 163.085 253.714 163.493 253.488 161.182C253.171 157.921 253.261 154.342 253.171 151.126C252.944 143.697 253.171 136.313 252.446 128.884C252.129 125.441 250.227 121.772 250.77 118.375C251.404 113.663 256.839 114.388 260.01 112.621C267.347 108.318 269.023 103.29 263.679 98.2616C252.989 88.0693 244.701 75.612 233.468 66.1444C214.4 49.882 195.92 32.8947 175.901 17.7647C169.922 13.2348 163.218 9.56555 159.097 2.86125C157.013 -0.581497 154.25 -0.581503 150.808 1.09457C142.837 5.08091 134.774 8.97666 126.486 12.6459C109.501 20.075 93.5577 29.9502 77.071 38.5571C65.2042 44.7631 52.2956 47.8888 40.3382 53.7777C36.2618 55.7708 31.6419 57.1298 28.6073 61.0256C26.0708 64.2871 25.0291 67.0957 28.6979 70.2666C33.3178 74.253 37.53 78.7829 42.0141 82.7692C48.5363 88.4317 55.1037 94.0941 61.943 99.8471L75.2592 110.855Z" fill="white"/>
<path d="M8.85911 80.6856C4.55627 71.8523 6.23215 65.3745 8.5421 59.1685C10.9426 52.1471 15.9702 46.9829 21.6318 42.4983C23.7153 40.9128 26.4782 39.8709 28.3352 42.4077C30.011 44.718 27.384 46.0769 25.7988 47.4359C20.7712 51.9659 15.2908 55.9522 12.5732 62.6565C10.5803 67.7753 11.7126 73.3471 8.81385 80.6856L8.85911 80.6856Z" fill="white"/>
<path d="M276.949 103.018C277.04 99.8926 275.364 95.1362 271.695 90.9686C270.744 89.8361 270.654 88.1148 272.42 87.39C273.281 86.9823 274.503 86.8464 275.364 87.1635C280.709 89.4737 283.743 105.646 279.667 110.04C279.259 110.583 278.399 110.764 277.9 110.674C277.266 110.674 276.315 110.04 276.315 109.632C276.224 108.273 276.542 106.778 276.949 103.018Z" fill="white"/>
<path d="M284.74 116.562C282.747 110.492 286.823 104.83 284.74 98.8504C284.423 97.8991 285.465 96.9479 286.642 96.6308C288.544 96.2231 289.179 97.7632 289.496 99.0316C291.081 105.645 288.771 111.308 284.785 116.562L284.74 116.562Z" fill="white"/>
<path d="M1.20468 62.1129C-1.64879 52.8718 0.34407 48.7043 9.58387 44.8992C7.27392 51.4223 3.0617 56.224 1.20468 62.1129Z" fill="white"/>
<path d="M48.0829 67.1409C59.8138 57.8092 99.3547 39.2365 109.138 38.5117C105.696 43.1322 100.849 44.2647 96.5465 46.2579C83.5474 52.781 69.7783 57.8092 58.0474 66.7332C55.1939 68.817 52.2951 69.0435 48.0829 67.1409Z" fill="white"/>
<path d="M190.439 119.915C185.593 122.135 181.109 124.943 176.172 127.027C172.186 129.971 167.657 131.965 163.671 134.909C163.671 135.317 163.762 135.86 163.898 136.359C176.58 131.648 188.356 125.351 201.129 119.054C196.509 116.336 193.565 118.42 190.439 119.915Z" fill="white"/>
<path d="M62.9846 71.6254C66.2457 64.0604 73.1755 62.2938 79.6525 59.9835C80.9207 59.5758 82.5059 59.8929 82.9136 61.6596C83.14 63.0185 82.1889 63.6527 81.2377 63.9698C75.1685 66.3707 68.8727 68.2733 62.9846 71.6254Z" fill="white"/>
<path d="M171.009 126.528C170.465 125.486 169.877 124.535 168.79 124.852C162.584 126.438 156.425 128.431 151.488 136.268C156.832 134.818 160.32 131.557 164.079 130.605C166.389 129.246 168.699 127.887 171.009 126.528Z" fill="white"/>
<path d="M81.2378 146.324C80.1055 141.794 80.8301 138.352 86.8088 136.449C86.4918 141.477 84.0913 144.014 81.2378 146.324Z" fill="white"/>
<path d="M189.488 171.737C188.945 168.294 188.447 164.716 187.586 159.552C193.338 163.628 192.84 167.434 189.488 171.737Z" fill="white"/>
<path d="M181.924 173.187C180.596 169.774 180.732 166.135 182.332 162.27C183.6 166.573 183.374 169.699 181.924 173.187Z" fill="white"/>
<path d="M92.1532 144.241C93.8291 146.551 92.878 148.227 92.5609 149.903C92.3344 151.036 91.6097 151.806 90.3415 151.579C89.2092 151.353 88.4392 150.537 88.6657 149.36C89.0733 147.366 89.0733 145.056 92.1079 144.241L92.1532 144.241Z" fill="white"/>
<path d="M170.601 166.799C170.374 166.075 169.74 165.35 169.74 164.489C169.74 163.13 170.465 161.862 172.141 162.587C173.183 163.13 173.409 164.172 173.092 165.123C172.775 166.165 172.141 166.89 170.556 166.799L170.601 166.799Z" fill="white"/>
<path d="M50.1668 86.2123L50.1668 87.4807C50.0762 95.544 47.6304 117.288 48.2645 121.138C77.6145 147.457 99.3551 170.243 132.917 192.077C148.453 188.725 215.985 168.385 230.343 155.973C230.569 140.889 228.35 134.365 228.576 121.772L228.576 121.138C228.893 119.779 230.026 118.737 231.521 118.737C233.196 118.737 234.465 120.096 234.465 121.772C234.374 133.822 238.133 145.283 236.231 157.559C235.28 164.082 190.077 180.752 187.541 181.703C124.719 205.395 133.959 206.029 83.6837 161.454C30.6907 114.434 43.4181 138.805 44.4598 88.0243C43.9163 86.4388 44.8675 84.8986 46.3621 84.355C47.9474 83.8114 49.6232 84.6721 50.1215 86.2576L50.1668 86.2123ZM48.0833 120.957C48.0833 120.957 47.8568 120.73 47.6757 120.64L48.0833 120.957Z" fill="white"/>
<path d="M140.707 156.29C140.707 163.719 140.707 171.194 140.481 178.759C140.481 180.435 139.032 181.884 137.22 181.884C135.544 181.884 134.095 180.435 134.095 178.759C134.321 171.194 134.412 163.765 134.412 156.29C134.412 154.614 135.861 153.165 137.537 153.165C139.303 153.165 140.662 154.614 140.662 156.29L140.707 156.29Z" fill="white"/>
</svg>
