<svg width="48" height="70" viewBox="0 0 48 70" fill="none" xmlns="http://www.w3.org/2000/svg">
<g clip-path="url(#clip0_14_1244)">
<path d="M26.4404 0C27.2754 0.0655611 28.7582 0.21211 30.2449 0.287312C30.9487 0.322021 31.6776 0.310451 32.3621 0.165831C34.1882 -0.217894 35.8041 0.194755 37.2387 1.32472C38.7235 2.49325 39.0262 4.12264 38.7871 5.87929C38.0987 10.9217 38.6714 15.8562 40.0521 20.7115C40.4242 22.0228 40.9641 23.2916 41.5002 24.5488C42.1809 26.1415 43.2433 27.474 44.5314 28.6271C45.0694 29.1091 45.6055 29.5931 46.1068 30.1099C47.8249 31.8801 48.3957 33.9317 47.5627 36.3074C47.0864 37.6649 46.3749 38.8913 45.3394 39.892C40.3105 44.7474 37.2117 50.7925 34.651 57.1712C33.6406 59.6876 32.742 62.2561 31.612 64.7165C30.7308 66.639 29.356 68.2221 27.4296 69.2538C26.1897 69.9171 24.8708 70.1485 23.521 69.9017C22.474 69.7108 21.7065 69.0166 21.3826 67.9657C20.6479 65.5804 19.9807 63.1739 19.2268 60.7944C17.3679 54.9383 15.1003 49.2615 11.7123 44.0899C9.71847 41.0471 7.40455 38.3263 4.35789 36.2553C3.09487 35.3972 1.95334 34.3367 0.842654 33.2781C-0.331662 32.1577 -0.269957 30.752 0.95835 29.7011C1.57154 29.1766 2.27921 28.7447 2.99267 28.359C8.93752 25.1369 12.5337 20.3027 12.9946 13.4535C13.1604 10.9969 12.9252 8.51138 12.8288 6.04127C12.7189 3.20671 13.9067 1.68145 16.7027 1.03162C19.6953 0.337447 22.7246 0.0597763 26.4404 0ZM25.162 66.8319C25.3452 66.3286 25.5688 65.8349 25.7019 65.3182C26.209 63.3436 26.5735 61.3228 27.2002 59.3868C28.7351 54.6413 30.7424 50.0906 33.3976 45.8562C36.3633 41.1242 39.7204 36.72 44.3135 33.4053C44.7378 33.0987 45.1157 32.7092 45.4474 32.3024C45.9333 31.7007 45.8581 31.4655 45.2372 31.0201C43.6946 29.9152 42.1423 28.8199 40.6286 27.6745C39.4755 26.801 38.3359 25.8716 37.715 24.5256C37.042 23.0679 36.4076 21.585 35.9005 20.0636C35.5245 18.9375 35.3799 17.7324 35.133 16.5638C35.2102 16.5445 35.2892 16.5272 35.3664 16.5079C35.592 17.1404 35.8195 17.7729 36.0471 18.4111C36.4655 18.1894 36.7991 18.0139 37.123 17.8423C36.8878 16.2437 36.6545 14.6626 36.4211 13.0814C35.9429 13.1354 35.4782 13.1894 34.9557 13.2491C35.0077 14.0204 35.0598 14.7995 35.1118 15.5785L34.8747 15.6016C34.703 14.3984 34.4196 13.1971 34.3868 11.99C34.3193 9.49479 34.3675 6.99383 34.4003 4.49672C34.4254 2.61859 33.9703 1.94948 32.1095 1.78751C29.8612 1.59275 27.6012 1.50791 25.3432 1.48862C22.4258 1.46548 19.5314 1.7528 16.7027 2.51253C14.8882 2.99846 14.248 3.87582 14.3116 5.73853C14.3232 6.05091 14.3752 6.36136 14.3907 6.67181C14.5025 8.87968 14.7551 11.0895 14.6895 13.2916C14.543 18.3398 12.5337 22.6437 9.08407 26.2977C7.31199 28.1759 5.17354 29.5469 2.93097 30.781C1.87621 31.3614 1.801 31.7104 2.69379 32.474C3.84304 33.4574 5.03857 34.3887 6.25723 35.2835C7.79213 36.4115 9.28654 37.5665 10.5091 39.0513C12.474 41.4366 14.1708 44.0031 15.6228 46.72C18.521 52.1481 20.5438 57.9252 22.2599 63.818C22.5627 64.8554 22.8018 65.9121 23.145 66.9341C23.28 67.3332 23.6213 67.6649 23.8681 68.0274C23.9375 67.985 24.0069 67.9406 24.0764 67.8982C23.494 62.9715 23.415 58.0216 23.413 53.0717C23.413 48.1007 23.496 43.1296 24.0725 38.2221C23.2472 38.0332 22.4508 37.929 21.7142 37.661C20.9776 37.393 20.2372 37.0498 19.6105 36.587C15.1157 33.2723 14.9229 26.4385 19.1901 22.8268C22.4373 20.0791 27.1732 20.3895 29.6818 23.5982C30.4801 24.6182 31.1647 25.7713 31.6814 26.9572C33.6637 31.5021 30.8716 36.7952 26.0181 37.8211C25.6479 37.9001 25.27 37.9425 24.9209 37.9965C25.7385 47.6302 25.7597 57.2079 25.16 66.8357L25.162 66.8319ZM31.3054 29.1824C31.1608 28.1855 31.0181 27.1886 30.8658 26.1917C30.8446 26.0509 30.8214 25.8754 30.7308 25.7867C30.0482 25.1253 29.3849 24.4331 28.6444 23.843C27.3795 22.8346 25.9159 22.3004 24.2827 22.5029C20.4049 22.9811 17.8037 26.3401 18.226 30.2603C18.521 32.9946 20.7038 35.5303 23.1759 36.0085C27.3043 36.8068 31.2862 33.44 31.3054 29.1843V29.1824ZM46.8955 33.0274C45.3008 34.3887 43.8006 35.671 42.285 36.9649C43.091 37.4643 43.7505 37.8712 44.4504 38.3051C45.8716 36.8801 46.963 35.2815 46.8936 33.0293L46.8955 33.0274ZM38.2511 41.9938C38.8604 42.2175 39.3463 42.4161 39.8477 42.5646C39.9923 42.607 40.2391 42.5627 40.3355 42.4585C41.2071 41.5407 42.0555 40.5997 42.5993 40.0058C42.1539 39.4832 41.6969 38.9491 41.1917 38.3552C40.3182 39.435 39.3 40.6942 38.2491 41.9919L38.2511 41.9938ZM28.3629 62.0748C29.1978 62.3409 29.8669 62.553 30.5843 62.7825C30.9622 61.6352 31.3652 60.4204 31.7509 59.248C31.1165 58.9896 30.4609 58.7254 29.7435 58.4342C29.2923 59.6259 28.8199 60.8697 28.3629 62.0767V62.0748ZM31.7335 53.0949C31.2399 54.2923 30.7173 55.5592 30.1909 56.8299C30.9526 56.9572 31.6525 57.0729 32.3795 57.1944C32.823 56.0297 33.2703 54.8612 33.6811 53.7871C33.0139 53.5499 32.4026 53.3321 31.7335 53.0949ZM37.339 43.2067C36.6332 44.3 35.8966 45.4454 35.2198 46.4944C35.9449 46.7914 36.533 47.0324 37.1327 47.2792C37.7092 46.3826 38.3359 45.4049 38.9317 44.4774C38.4169 44.0667 37.9213 43.6734 37.3371 43.2067H37.339ZM35.7482 49.086C35.1928 48.7601 34.6626 48.4497 34.1034 48.1219C33.5499 49.2345 32.9811 50.376 32.4508 51.4385C33.1778 51.7528 33.7987 52.0208 34.4196 52.2889C34.8573 51.2322 35.3124 50.1331 35.7462 49.086H35.7482ZM36.4346 11.3421C36.5098 9.85152 36.587 8.34169 36.6641 6.828C36.2939 6.77208 35.8137 6.6988 35.2044 6.60625V11.076C35.6016 11.1627 36.0104 11.2514 36.4327 11.3421H36.4346ZM40.0559 25.8369C39.2615 23.8758 38.4285 21.8222 37.5781 19.7204H36.5175C37.4296 22.0247 38.1624 24.354 40.0559 25.8369ZM29.8149 64.4389C29.1728 64.2557 28.5654 64.0821 28.0023 63.9221C27.6051 65.2642 27.1982 66.6487 26.7933 68.0177C27.8211 67.5395 29.2383 65.8542 29.8149 64.4389ZM36.9283 5.22175C37.2021 3.49017 36.3247 2.0054 34.9576 1.71809C35.1813 2.70536 35.4146 3.73891 35.6575 4.81296C36.0278 4.93251 36.4771 5.07906 36.9283 5.22368V5.22175Z" fill="#11114C"/>
</g>
<defs>
<clipPath id="clip0_14_1244">
<rect width="47.9425" height="70" fill="white"/>
</clipPath>
</defs>
</svg>
