<svg width="47" height="70" viewBox="0 0 47 70" fill="none" xmlns="http://www.w3.org/2000/svg">
<g clip-path="url(#clip0_15_1296)">
<path d="M26.5113 0C27.6012 0.205329 28.7305 0.289171 29.7726 0.636519C34.6406 2.25691 37.8762 5.57981 39.4573 10.429C41.1803 15.7111 40.6345 20.793 37.7291 25.5686C37.4519 26.0254 37.3988 26.3077 37.8112 26.727C39.2622 28.2036 40.6978 29.6974 42.082 31.2356C44.3869 33.7971 46.1852 36.6289 46.5308 40.176C46.8166 43.1225 46.4145 45.9817 45.4477 48.769C45.3964 48.9179 45.3433 49.0873 45.239 49.1951C44.3988 50.0626 44.3424 51.156 44.3218 52.2682C44.2619 55.3669 43.1532 58.1132 41.5482 60.714C39.7362 63.6485 37.5135 66.1484 34.4541 67.8372C32.3888 68.9768 30.1798 69.603 27.8356 69.7895C23.9857 70.0958 20.1153 70.1608 16.3407 69.3652C11.8662 68.4207 7.76818 66.5317 4.67456 63.0154C2.68801 60.7585 1.77943 58.0054 1.66307 54.999C1.64938 54.6585 1.58779 54.3129 1.6203 53.9758C1.75034 52.6377 1.48341 51.517 0.591941 50.3808C-0.311506 49.2293 -0.0223343 47.6996 0.413989 46.3701C1.70243 42.4551 3.26635 38.6566 5.41032 35.1146C6.52765 33.2667 7.5389 31.3554 8.66821 29.5143C9.34066 28.4175 9.11822 27.5346 8.46459 26.5114C7.60221 25.1596 6.70903 23.7651 6.19913 22.2645C4.21257 16.4143 5.1126 10.9714 8.89236 6.05035C9.56994 5.16744 10.2698 4.28282 11.0791 3.52481C11.7481 2.89856 12.5352 2.33219 13.3685 1.95918C15.8513 0.848692 18.423 0.0205329 21.2001 0.107798C21.467 0.116353 21.7357 0.0376436 22.0026 0C23.5049 0 25.009 0 26.5113 0ZM23.0053 1.95918C21.7802 2.03447 20.5499 2.06527 19.3316 2.19702C16.5528 2.49646 13.9777 3.42386 11.873 5.27353C6.43697 10.0543 5.19644 17.0508 8.64596 23.1115C9.33039 24.3126 10.2065 25.4026 10.9576 26.5678C11.5291 27.4525 11.5805 28.4141 11.1253 29.3654C10.7437 30.1628 10.3605 30.967 9.89505 31.7182C8.23359 34.4063 6.37879 36.99 4.90213 39.7739C3.63252 42.1694 2.64694 44.7394 1.78114 47.3163C1.10526 49.3234 2.11993 50.7744 4.18691 51.2877C6.17346 51.7822 8.06077 51.351 9.79238 50.4151C13.6491 48.331 16.6777 45.3588 18.7362 41.473C20.2145 38.6822 21.5868 35.8333 23.0138 33.0134C23.2346 32.5754 23.5152 32.1699 24.0867 32.2092C24.6599 32.2503 24.843 32.6935 25.0329 33.1538C25.7327 34.8563 26.4052 36.5725 27.1889 38.2356C27.6902 39.2965 28.2549 40.3711 28.994 41.2694C31.0131 43.7196 33.347 45.8636 35.9188 47.7287C37.3047 48.7348 38.8224 49.5133 40.5404 49.823C42.1522 50.1139 43.4304 49.4637 43.8872 47.9614C44.7872 45.0098 45.1654 42.0086 44.4707 38.944C43.918 36.5126 42.5457 34.5397 40.9305 32.7294C39.2947 30.8968 37.5682 29.1447 35.9016 27.3395C35.2155 26.5969 35.2395 26.1982 35.7494 25.3307C36.4269 24.1775 37.214 23.0533 37.6743 21.811C39.0671 18.0535 39.1493 14.243 37.6452 10.4786C36.148 6.72794 33.5164 4.0946 29.6956 2.73429C27.5362 1.96431 25.2588 2.05842 23.0036 1.95576L23.0053 1.95918ZM30.2602 50.4732C30.9994 51.0345 31.9012 51.6162 32.6763 52.3349C33.7953 53.3735 33.975 55.1821 33.2067 56.4825C32.5223 57.6409 31.0525 58.1782 29.5501 57.7213C28.7921 57.4903 28.082 57.0985 27.3257 56.7683C27.3976 57.2234 27.4934 57.6905 27.5396 58.1628C27.6988 59.7917 27.4575 61.3471 26.5318 62.7296C25.9877 63.5441 25.228 64.1242 24.1996 64.0164C23.1627 63.9069 22.5108 63.2413 22.107 62.2813C21.5902 61.0511 21.7015 59.7866 21.8041 58.5153C21.8537 57.8993 21.9256 57.285 21.9992 56.5407C20.9178 57.54 19.8501 58.2928 18.5479 58.6522C17.1757 59.032 15.8479 58.7189 15.237 57.8616C14.645 57.0301 14.7802 55.6954 15.6939 54.5832C16.3013 53.8423 17.0405 53.2109 17.7335 52.518C15.8119 52.3999 14.1744 51.6641 13.0913 49.9394C9.94125 52.1946 6.64743 53.625 2.53914 52.352C2.82489 54.2479 2.94638 56.0086 3.3827 57.6854C3.77454 59.1912 4.49832 60.6113 5.58656 61.7971C8.45432 64.925 12.0955 66.6651 16.1713 67.4625C19.8244 68.176 23.5511 68.2102 27.2607 67.998C28.5868 67.9228 29.9642 67.7363 31.1979 67.276C36.7623 65.2021 40.0236 60.9433 41.9571 55.5175C42.4123 54.241 42.426 52.8978 42.3883 51.7514C41.0947 51.5221 39.8388 51.4793 38.7266 51.0567C37.3407 50.5314 36.0762 49.6913 34.7535 48.9949C34.567 48.8973 34.3121 48.7245 34.1683 48.7844C32.8183 49.3388 31.4854 49.936 30.2534 50.4732H30.2602ZM23.3201 54.6637C23.1867 55.3019 22.9848 56.0684 22.8752 56.8487C22.6545 58.4177 22.3072 59.9936 22.8359 61.5713C23.0635 62.2505 23.4177 62.8546 24.1774 62.9675C24.9491 63.0821 25.4538 62.5688 25.8337 61.9768C26.6174 60.7534 26.8586 59.3896 26.578 57.9883C26.3077 56.6348 25.8936 55.3121 25.5531 54.0186C24.8122 54.2325 24.1277 54.4309 23.3201 54.6654V54.6637ZM27.9931 50.9438C26.6379 50.9369 26.6396 50.9369 26.5284 51.8558C26.5044 52.0577 26.5027 52.2904 26.3983 52.4478C26.0869 52.9166 26.2461 53.3273 26.4668 53.7585C27.2351 55.2557 28.1556 56.5664 29.9659 56.9223C30.8865 57.1036 31.9131 56.7888 32.3512 56.13C32.8884 55.3207 32.9552 54.123 32.3512 53.4368C31.0952 52.0081 29.5108 51.1423 27.9931 50.9455V50.9438ZM23.9002 35.0017C22.8171 37.0995 21.7921 39.086 20.7381 41.1274C22.8325 41.9093 23.2363 43.8445 23.8437 45.6446C24.2253 44.7548 24.5127 43.889 24.9542 43.1105C25.3939 42.3354 25.9894 41.6492 26.5404 40.8912C25.7139 39.0484 24.8344 37.0875 23.8985 35.0017H23.9002ZM20.9349 52.2065C19.6071 52.3759 18.3649 53.0381 17.3091 53.9741C16.6829 54.5285 16.1028 55.2403 15.776 56C15.2387 57.2439 15.9026 58.0636 17.2749 58.0772C19.1229 58.0961 21.6022 56.2276 22.3294 54.3693C21.8486 53.6233 21.4157 52.9526 20.9366 52.2083L20.9349 52.2065ZM21.0427 51.3938C21.1317 51.0208 21.2395 50.6272 21.3113 50.2268C21.3404 50.0643 21.3438 49.8504 21.2617 49.7238C20.2761 48.1958 18.9826 47.0836 17.1278 46.7756C16.9874 46.7516 16.7804 46.7602 16.6914 46.844C15.8034 47.6739 14.9342 48.5243 14.0273 49.3987C15.877 51.7155 18.346 51.89 21.0427 51.3938ZM23.2072 48.1222C23.2893 48.0931 23.3732 48.064 23.4553 48.035C22.9865 46.5497 22.557 45.0491 22.0351 43.5827C21.7494 42.782 21.1197 42.2464 20.2573 41.9692C19.785 42.7169 19.3419 43.4801 18.832 44.1987C18.5514 44.5957 18.4932 44.9448 18.8029 45.3041C19.8415 46.5172 20.8955 47.7167 21.9034 48.8751C22.4287 48.5722 22.8171 48.3464 23.2072 48.1222ZM24.446 48.0675C24.9662 48.3344 25.4436 48.5774 25.9518 48.8374C27.3548 47.6311 28.2087 46.0176 28.8058 44.2484C28.8674 44.067 28.8349 43.7744 28.722 43.6289C28.2138 42.9736 27.6611 42.3508 27.1221 41.716C25.3974 43.5263 24.7745 45.7472 24.446 48.0658V48.0675ZM25.5497 51.1885C25.5411 49.823 24.9388 49.2139 23.6213 49.2395C22.5707 49.2601 21.8195 50.1995 21.8366 51.4708C21.852 52.6617 22.5587 53.4368 23.6247 53.4334C24.7728 53.43 25.5599 52.5145 25.5497 51.1885ZM26.3915 49.9599C29.0522 50.2029 31.3057 49.5065 33.3213 47.9083C32.9244 47.5678 32.577 47.241 32.1989 46.9587C32.0329 46.8355 31.7865 46.714 31.6 46.7431C29.5501 47.0545 27.8425 48.0196 26.448 49.539C26.3539 49.6417 26.4018 49.8761 26.3915 49.9582V49.9599ZM31.0644 45.9286C30.6504 45.5419 30.2534 45.1689 29.8222 44.7651C29.4269 45.5265 29.0693 46.2144 28.6689 46.9861C29.5022 46.6182 30.2397 46.2931 31.0644 45.9303V45.9286Z" fill="#11114C"/>
<path d="M35.3422 15.7589C35.2875 18.4368 35.077 20.7262 33.9511 22.8479C31.5659 27.3429 27.4713 29.3945 22.4493 28.6553C19.4566 28.2138 16.7035 27.2009 14.3867 25.2605C12.111 23.3544 10.6823 20.9383 10.5094 17.8704C10.3982 15.8924 10.1809 13.911 10.6805 11.9655C11.1939 9.96694 12.0836 8.20112 13.9128 7.01192C15.321 6.0965 16.606 4.95179 18.3496 4.72764C20.5534 4.4436 22.7539 3.84473 24.9885 4.24512C30.1731 5.17765 34.1856 7.97868 35.1694 13.4507C35.3251 14.3182 35.3029 15.2165 35.3405 15.7606L35.3422 15.7589ZM34.0162 16.3013C34.0162 15.9369 34.0299 15.504 34.0145 15.0728C33.9049 12.1263 32.7465 9.65895 30.3904 7.89312C28.1455 6.20943 25.5823 5.33507 22.7248 5.57975C20.2814 5.7885 17.8756 5.99041 15.6358 7.27029C12.8262 8.87528 11.3462 11.1082 11.4574 14.3558C11.4984 15.5382 11.5652 16.7206 11.6045 17.9029C11.7055 20.9041 13.2181 23.1183 15.5725 24.79C17.9885 26.5045 20.7485 27.2625 23.6847 27.5106C26.7441 27.7689 29.2628 26.7577 31.3041 24.5025C33.3968 22.1926 34.1291 19.4189 34.0127 16.303L34.0162 16.3013Z" fill="#11114C"/>
<path d="M38.9269 46.9809C38.5471 46.8577 38.2408 46.8167 37.9961 46.6695C36.9284 46.0261 35.8059 45.4427 34.8375 44.6693C32.9057 43.131 30.8096 41.6954 29.682 39.4026C28.7734 37.5546 28.0565 35.6108 27.2882 33.6961C27.2163 33.5182 27.3874 33.2427 27.4473 33.0117C27.6321 33.1726 27.8871 33.2975 27.9897 33.4994C28.8333 35.1574 29.5828 36.8668 30.4999 38.4803C30.9944 39.3512 31.6805 40.1589 32.4248 40.8365C34.3926 42.628 36.4664 44.2928 38.9132 45.4187C39.0929 45.5008 39.3034 45.6326 39.3786 45.7951C39.4813 46.0159 39.5617 46.329 39.4779 46.5326C39.3975 46.7345 39.1015 46.8475 38.9252 46.9809H38.9269Z" fill="#11114C"/>
<path d="M20.5175 33.2256C20.5175 33.419 20.5654 33.626 20.5107 33.8006C18.5395 40.034 14.6844 44.8216 9.2689 48.4046C9.0054 48.5791 8.71965 48.7297 8.42876 48.8529C8.06944 49.0052 7.68274 48.9504 7.60745 48.5432C7.56467 48.319 7.75973 47.9409 7.96506 47.7989C8.67003 47.3061 9.4537 46.9262 10.1569 46.4334C14.7289 43.2269 17.7045 38.7712 20.0042 33.7903C20.1017 33.5798 20.2249 33.3814 20.3344 33.1777C20.396 33.1931 20.4559 33.2085 20.5175 33.2239V33.2256Z" fill="#11114C"/>
<path d="M37.5376 52.3264C38.5882 52.3144 39.673 53.6183 39.608 54.8657C39.5566 55.8461 39.1905 56.6845 38.2528 57.1414C37.3014 57.6051 36.4408 57.3501 35.6639 56.717C35.4757 56.5647 35.3029 56.3628 35.1951 56.1472C34.4628 54.6706 35.8966 52.3435 37.5376 52.3247V52.3264ZM35.6006 54.9427C35.5698 55.7434 36.1465 56.2739 37.0602 56.2858C37.9174 56.2978 38.5402 55.6459 38.5813 54.698C38.6138 53.9314 37.9243 53.0896 37.2398 53.0588C36.4801 53.0245 35.6383 53.993 35.6023 54.9409L35.6006 54.9427Z" fill="#11114C"/>
<path d="M10.7866 57.0541C9.63675 57.0558 8.71277 56.1643 8.71106 55.0504C8.71106 53.7551 9.85235 52.4906 10.9988 52.518C12.0904 52.5454 13.0948 53.6833 13.1017 54.9033C13.1085 56.1096 12.0956 57.0506 10.7866 57.0541ZM12.4395 55.1924C12.4549 54.2667 11.8355 53.4814 11.0689 53.4523C10.1141 53.4163 9.34416 54.1367 9.33731 55.0778C9.33047 55.959 9.8917 56.5596 10.7438 56.5818C11.6438 56.6041 12.4275 55.9624 12.4395 55.1941V55.1924Z" fill="#11114C"/>
<path d="M25.6028 21.3542C25.6541 22.2662 25.2948 23.0037 24.6172 23.582C23.8866 24.2066 23.0584 24.4119 22.1447 24.0218C21.2036 23.6197 20.6732 22.9027 20.6064 21.8778C20.5842 21.5185 20.5945 21.1403 20.6869 20.7964C20.7296 20.639 21.012 20.4439 21.1762 20.4525C21.3251 20.461 21.5321 20.7023 21.5835 20.8768C21.669 21.1746 21.6262 21.5082 21.6844 21.8179C21.8008 22.4544 22.2833 22.7624 22.8514 22.7778C23.4451 22.7949 23.7634 22.321 23.9122 21.7871C23.9961 21.4843 24.0098 21.1574 24.0286 20.8409C24.0594 20.3224 24.251 19.9323 24.8277 19.9426C25.4094 19.9511 25.5703 20.3772 25.6028 20.8751C25.613 21.0342 25.6028 21.1934 25.6028 21.3525V21.3542Z" fill="#11114C"/>
<path d="M29.54 17.3521C28.503 17.3419 27.6783 16.6677 27.6886 15.8361C27.6988 14.9344 28.7529 13.877 29.6392 13.8804C30.6231 13.8838 31.4256 14.7582 31.4238 15.8242C31.4238 16.7396 30.6556 17.3607 29.54 17.3504V17.3521Z" fill="#11114C"/>
<path d="M29.9215 23.3767C28.5578 23.3425 27.591 22.439 27.6064 21.2105C27.6201 20.1205 28.9856 18.8406 30.0772 18.8937C31.1826 18.9484 31.9834 19.9066 31.9594 21.1506C31.9355 22.3672 30.9875 23.4024 29.9215 23.3767ZM29.569 22.5092C30.4537 22.5314 31.2322 21.7649 31.2664 20.8375C31.2955 20.0709 30.7634 19.549 29.9438 19.537C29.2354 19.5285 28.2926 20.4217 28.2669 21.1318C28.2361 21.9668 28.7289 22.4869 29.5708 22.5092H29.569Z" fill="#11114C"/>
<path d="M17.9167 16.0449C17.8842 16.9637 17.2134 17.7183 16.4434 17.7046C15.6769 17.6892 14.8932 16.8268 14.9411 16.0517C14.9959 15.162 15.7111 14.469 16.5341 14.51C17.3828 14.5528 17.9475 15.1808 17.9167 16.0449Z" fill="#11114C"/>
<path d="M17.2818 23.2519C16.0584 23.2638 15.0403 22.3621 15.0352 21.2619C15.03 20.0693 15.9557 18.9519 16.9533 18.9468C18.1288 18.9417 19.2376 19.994 19.2427 21.1216C19.2478 22.2423 18.329 23.2416 17.2818 23.2519ZM18.6438 21.255C18.6404 20.379 18.0176 19.8947 16.9037 19.9033C16.2843 19.9067 15.6323 20.6596 15.6084 21.4005C15.5879 22.049 16.4742 22.7248 17.3314 22.7163C18.0313 22.7077 18.6473 22.0233 18.6438 21.2567V21.255Z" fill="#11114C"/>
<path d="M22.7436 17.6446C23.8027 17.6394 24.1005 17.3263 24.1946 16.2945C24.2151 16.0601 24.5162 15.8496 24.6891 15.6289C24.8875 15.8377 25.2161 16.0225 25.2623 16.2603C25.4077 17.0115 25.1339 17.6514 24.4803 18.0826C23.6128 18.6541 22.6717 18.6798 21.7477 18.2948C20.8545 17.9252 20.5585 16.9345 21.0565 16.1388C21.1437 16.0002 21.3627 15.9437 21.5219 15.8496C21.5715 16.0207 21.6913 16.209 21.657 16.363C21.4346 17.3913 21.6416 17.648 22.7453 17.6428L22.7436 17.6446Z" fill="#11114C"/>
</g>
<defs>
<clipPath id="clip0_15_1296">
<rect width="46.6199" height="70" fill="white"/>
</clipPath>
</defs>
</svg>
