<svg width="41" height="31" viewBox="0 0 41 31" fill="none" xmlns="http://www.w3.org/2000/svg">
<path d="M10.0828 14.612C10.1279 14.5874 10.1577 14.5589 10.2028 14.5342C10.1605 14.5076 10.1221 14.4656 10.0739 14.4765C10.0395 14.4843 9.99908 14.5297 9.97466 14.5497C10.0169 14.5763 10.0506 14.5976 10.0897 14.6105L10.0828 14.612ZM31.2853 11.7263C31.1607 11.3998 31.3086 11.2216 31.468 11.0625C31.6931 10.874 31.8607 10.6552 31.6651 10.3665C31.4196 10.0167 31.1878 10.2718 30.9471 10.3914C30.7004 10.5485 30.4144 10.6277 30.2523 10.2953C30.1358 10.0683 30.2584 9.8741 30.44 9.7172C30.6964 9.5072 31.0286 9.28006 30.7148 8.91677C30.4395 8.59545 30.134 8.78037 29.8493 9.02571C29.699 9.16104 29.4936 9.30884 29.2573 9.15965C29.2217 9.06637 29.1486 8.96711 29.1405 8.8676C29.1592 8.34225 30.0891 7.87854 29.2187 7.29378C28.4511 6.77983 28.318 7.59887 27.9141 7.8929C27.7263 8.02225 27.4884 8.09053 27.2865 7.93356C27.0845 7.77659 27.0653 7.5638 27.2223 7.36182C28.0341 6.43991 27.3101 6.11875 26.6061 5.82202C26.1039 5.61718 25.5741 5.03496 25.2115 6.08688C25.0502 6.55763 24.5697 6.44919 24.4436 5.89146C24.4077 5.7331 24.4821 5.54981 24.47 5.40055C24.3998 4.86635 24.187 4.66118 23.7816 5.17268C23.5736 5.43687 23.4141 5.75524 23.01 5.60056C22.6336 5.28039 23.0639 4.49544 22.2912 4.43864C21.69 4.37201 21.5935 4.77743 21.4123 5.22375C21.2398 5.58122 20.8052 5.64336 20.6802 5.18671C20.484 4.54349 20.1186 4.49587 19.5426 4.60448C18.7615 4.7667 18.9694 5.26975 19.0509 5.75796C19.1099 6.17888 18.8988 6.42929 18.5261 6.47741C18.1672 6.52242 18.1704 6.15257 18.0439 5.91338C17.6289 5.10254 17.172 4.93811 16.8025 5.60797C16.2967 6.47513 14.5811 5.92955 14.8274 7.46615C14.8306 7.47992 14.7313 7.55304 14.6769 7.5364C13.8815 7.34721 13.0327 7.01811 13.6989 8.45971C13.8079 8.71734 13.3259 8.82636 13.056 8.72095C12.6051 8.51898 12.3286 8.70456 12.0758 9.0585C11.7591 9.51376 11.2806 9.92599 11.2613 10.4804C11.238 10.9851 11.8843 11.0271 12.2016 11.31C12.3229 11.3983 12.4363 11.6115 12.3961 11.7219C12.3465 11.9503 12.1242 12.0874 11.893 12.0891C11.7406 12.0874 11.5514 12.0506 11.4125 11.9806C11.0304 11.7631 10.6886 11.6595 10.4447 12.1489C10.2243 12.5824 9.82393 13.1796 10.3755 13.4746C11.3546 14.0276 10.8161 14.7502 10.95 15.3423C10.5186 15.6426 10.1064 15.164 9.83956 15.456C9.81231 16.1353 10.5874 16.0106 10.6604 16.4935C10.6186 16.7563 10.4183 16.8305 10.2089 16.9286C9.8627 17.0937 9.70913 17.3746 9.84143 17.7355C9.9971 18.1997 10.3624 18.023 10.6744 17.9307C11.2243 17.7701 11.7619 17.6195 12.298 17.462C12.5183 17.4122 12.7704 17.471 12.828 17.7257C12.8857 17.9805 12.7009 18.1236 12.4815 18.2094C11.8462 18.44 11.2062 18.6499 10.5877 18.8912C10.3546 18.9801 10.2696 19.1803 10.3548 19.4288C10.4466 19.6107 10.622 19.6506 10.7713 19.6386C11.3261 19.5637 11.8631 19.4423 12.4307 19.3283C13.3121 19.1723 13.697 18.6558 13.5854 17.7788C13.426 16.3383 13.1984 14.8843 13.6324 13.4761C14.6017 10.2748 16.8905 8.39633 20.0551 7.47776C20.4603 7.34989 20.9403 7.32816 21.3676 7.36177C23.692 7.55971 25.8564 8.17021 27.6084 9.83665C29.0776 11.2124 30.2931 12.7469 30.6114 14.8897C31.2999 14.7339 31.9026 14.5831 32.4831 14.43C32.6865 14.3695 32.909 14.2975 33.1047 14.2026C33.3378 14.1136 33.465 13.9401 33.4058 13.6785C33.3422 13.4612 33.222 13.2496 32.9564 13.259C32.5039 13.2745 32.0709 13.3435 31.6184 13.359C31.401 13.3576 31.1727 13.3079 31.1348 13.0125C31.1253 12.7468 31.3179 12.6381 31.5273 12.5401C31.9423 12.3593 32.7949 12.6731 32.7126 11.9896C32.569 11.0667 31.7711 12.0506 31.2753 11.7141L31.2853 11.7263ZM29.7197 14.9466C29.4507 14.2692 29.2407 13.6291 28.9215 13.0499C28.5639 12.4288 28.0711 11.8816 27.6684 11.2851C25.7575 8.53277 20.2071 7.19005 17.1976 9.81784C15.3884 11.3852 14.0722 12.9568 14.3 15.4675C14.3611 16.0254 14.3005 16.5892 14.3241 17.1412C14.3871 18.6034 14.6513 18.8115 16.042 18.4969C20.1804 17.5968 24.2348 16.325 28.3882 15.5229C28.8251 15.4385 29.2735 15.3733 29.7144 14.9551L29.7197 14.9466ZM7.69987 24.8715C8.05652 24.2408 7.70366 23.8646 7.59643 23.4546C7.53593 23.2512 7.48141 23.0102 7.71433 22.8561C8.04052 22.6665 8.27027 22.8824 8.4074 23.1047C8.64543 23.4851 8.76045 23.9295 8.98471 24.3131C9.42636 25.0817 9.84747 25.0878 10.3473 24.2581C10.6904 23.6956 10.9827 23.6439 11.3201 24.1756C11.7477 24.8822 12.26 24.7157 12.6456 24.2448C12.9657 23.8684 13.2124 23.7113 13.6025 24.0284C14.1033 24.4507 14.6094 24.2566 15.0058 23.9932C15.4823 23.6683 15.9188 23.5188 16.5092 23.5373C17.154 23.5723 17.379 23.1595 17.1722 22.5332C17.1086 22.316 17.0603 22.1026 17.0104 21.8822C16.9204 21.5479 16.8622 21.163 17.2506 21.0245C17.6932 20.8375 17.802 21.2544 17.908 21.5634C18.0435 21.938 18.1154 22.3198 18.2646 22.6914C18.5196 23.3068 19.2484 23.4894 19.498 22.8973C19.8827 22.0069 20.1902 22.1183 20.7954 22.6183C21.0005 22.789 21.3482 22.6307 21.3683 22.2716C21.4176 21.3701 21.6859 21.2443 22.269 21.9665C22.7821 22.6031 23.5305 22.5206 23.7979 21.9752C24.119 21.2512 24.2435 20.9697 24.8297 21.7056C25.0259 21.9652 25.3982 22.0113 25.5836 21.8391C26.383 21.0864 27.4246 21.3719 28.3256 21.1319C29.0247 20.9593 29.2622 20.6015 29.0207 19.9179C28.8743 19.495 28.764 19.0713 28.6314 18.6453C28.5569 18.3798 28.7261 18.1679 28.9326 18.1211C29.136 18.0607 29.3881 18.1194 29.4733 18.368C29.679 18.8932 29.8487 19.4194 29.9993 19.9571C30.1705 20.4901 30.5093 20.58 31.0268 20.5642C32.1406 20.5294 32.2459 19.6515 32.3902 18.9457C32.8239 18.8476 32.906 19.0824 33.046 19.2534C33.5282 19.8174 33.8887 20.0036 34.0855 19.0182C34.1877 18.5102 34.6383 18.4227 34.9461 18.8235C35.487 19.519 36.2765 19.3621 36.4782 18.8461C36.8305 17.8761 37.368 18.1091 37.9816 18.3901C38.175 16.7179 38.1406 16.342 37.7357 15.1598C37.4823 14.4451 36.9642 14.1594 36.1813 14.3027C34.4806 14.6223 32.8693 15.3053 31.1995 15.6975C28.2638 16.4123 25.3101 17.0154 22.3804 17.6926C20.791 18.0884 19.2612 18.6516 17.6906 18.9707C14.203 19.7091 10.7809 20.7366 7.24657 21.2683C6.9221 21.3055 6.60033 21.4507 6.29455 21.5705C5.98876 21.6904 5.80233 21.9859 5.95946 22.2326C6.50553 23.0789 6.57288 24.2724 7.71363 24.8684L7.69987 24.8715ZM38.5268 14.6262C38.7758 15.6627 39.0344 16.8057 38.9838 17.9897C38.9472 19.2356 38.7534 19.4025 37.6037 19.6626C36.3576 19.9445 35.1118 20.2915 33.8803 20.6063C29.5139 21.7461 25.1396 22.8515 20.679 23.6072C19.5015 23.8085 18.3974 24.1741 17.2301 24.4526C16.2418 24.6907 15.2433 24.8514 14.2757 25.0848C11.8664 25.695 9.43503 26.1437 6.9825 26.4669C6.89988 26.4856 6.80727 26.4921 6.72284 26.4388C6.64998 26.4046 6.61063 26.3267 6.57973 26.254C6.20201 25.3841 5.97575 24.4799 5.6431 23.5853C5.49366 23.1486 5.17989 22.7853 5.12372 22.3131C5.01941 21.4682 5.58622 20.9346 6.34236 20.6622C6.9686 20.4554 7.63639 20.3043 8.29665 20.1839C9.06394 20.0248 9.26767 19.6458 9.10853 18.8784C8.26599 14.9941 9.11822 11.4357 11.5962 8.37807C15.2326 3.91481 20.9342 1.95907 26.7376 4.77175C30.2185 6.46686 32.6272 9.08488 34.1528 12.5975C34.6757 13.7893 34.8558 13.8498 36.0239 13.3829C36.0721 13.372 36.1262 13.3236 36.1713 13.2989C38.5183 12.4133 38.2495 12.7926 38.5337 14.6246L38.5268 14.6262Z" fill="white"/>
<path d="M8.83342 29.9783C7.54571 30.5881 6.34007 30.441 5.14802 29.8422C4.94319 29.7365 4.81073 29.5349 4.87415 29.3034C4.93757 29.0719 5.20803 28.9239 5.4022 29.0464C6.43083 29.7546 7.64909 29.7975 8.83342 29.9783Z" fill="white"/>
<path d="M7.82806 29.1491C7.73168 29.1709 7.57645 29.2205 7.53113 29.1801C6.98983 28.5787 6.10786 28.5828 5.57721 27.9646C5.4341 27.7799 5.27722 27.5982 5.39195 27.3696C5.51733 27.1241 5.75567 27.186 5.9605 27.2917C6.58808 27.6346 7.23321 27.9591 7.84105 28.3427C8.2125 28.5772 8.13335 28.8991 7.82118 29.1506L7.82806 29.1491Z" fill="white"/>
<path d="M34.253 3.79542C33.2333 3.2227 33.1053 2.20939 32.2584 1.95226C32.1089 1.89922 32.0255 1.72266 32.1305 1.54692C32.2668 1.34961 32.4999 1.26068 32.7085 1.35101C33.6235 1.78093 34.1025 2.49046 34.2545 3.8023L34.253 3.79542Z" fill="white"/>
<path d="M29.9444 2.88825C30.7256 2.34241 31.3099 2.78202 31.8522 3.26006C32.1617 3.50851 32.4138 3.9509 32.1219 4.29197C31.6377 4.80683 31.485 4.13205 31.2797 3.89623C30.9266 3.45499 30.2026 3.51745 29.9444 2.88825Z" fill="white"/>
</svg>
