<svg width="76" height="70" viewBox="0 0 76 70" fill="none" xmlns="http://www.w3.org/2000/svg">
<g clip-path="url(#clip0_15_2562)">
<path d="M44.2263 43.2213C43.9927 44.2042 43.8186 45.1783 43.5255 46.115C42.9392 47.9794 41.9057 49.5375 40.1646 50.5314C37.4517 52.0785 34.0512 51.2278 31.8981 48.4863C30.7477 47.0229 30.1659 45.3216 29.8331 43.4241C29.5025 43.4241 29.183 43.4307 28.8634 43.4241C20.7313 43.2632 12.5992 43.1045 4.46712 42.9348C3.67155 42.9172 2.87817 42.8291 2.08259 42.7718C1.9724 42.7629 1.82033 42.7938 1.76304 42.7343C1.18343 42.1282 0.568563 41.5442 0.0771111 40.8721C-0.0749526 40.6627 0.0264232 40.1624 0.16306 39.8649C3.10737 33.4187 7.81914 29.0375 14.9287 27.7329C20.7291 26.6684 25.6547 28.4888 29.637 32.8413C29.8397 33.0639 30.0315 33.2953 30.1262 33.4055C31.248 32.6893 32.33 31.9995 33.4253 31.3009C33.1895 31.0342 32.8788 30.5339 33.4143 30.0072C34.0799 29.3549 34.5427 30.0226 35.054 30.329C35.3361 29.7141 35.5961 29.1103 35.8848 28.5196C36.1184 28.0436 36.4843 27.7858 37.022 28.0392C37.5641 28.2971 37.6964 28.7202 37.4363 29.2667C37.2732 29.6105 37.1234 29.9609 36.914 30.4237C40.4886 29.3703 43.0627 30.5758 44.9227 33.7956C45.2489 33.4386 45.5155 33.1058 45.8218 32.8105C49.3612 29.4188 53.5484 27.3538 58.463 27.1202C64.1731 26.8491 70.8947 29.2381 73.8567 37.0881C74.3591 38.4192 74.7294 39.801 75.1415 41.163C75.331 41.7866 75.2363 42.3112 74.5112 42.5426C74.3966 42.58 74.2401 42.6924 74.2247 42.7894C74.0726 43.7106 73.3983 43.618 72.7327 43.6092C63.307 43.4616 53.8834 43.3183 44.4577 43.1773C44.4048 43.1773 44.3519 43.1949 44.2241 43.2191L44.2263 43.2213ZM73.3762 40.8412C72.8936 39.5343 72.519 38.3619 72.0319 37.238C70.7052 34.1813 68.8143 31.6248 65.6078 30.2893C65.2089 30.124 64.9687 30.102 64.616 30.4392C61.372 33.5686 56.8101 33.6171 53.5132 30.5494C53.1253 30.1879 52.8454 30.2166 52.4333 30.3995C49.8526 31.5411 47.6554 33.1962 45.8417 35.3471C45.6411 35.5851 45.5221 35.984 45.5353 36.3013C45.5926 37.6942 45.4384 39.0385 44.883 40.3277C44.8367 40.4357 44.8544 40.5745 44.8279 40.839H73.3762V40.8412ZM29.4408 40.6032C29.4408 38.893 29.4496 37.2622 29.4298 35.6314C29.4276 35.4352 29.3042 35.2193 29.1852 35.0518C27.81 33.1036 26.047 31.616 23.8894 30.5846C23.4795 30.3885 23.2349 30.437 22.8977 30.7587C19.7859 33.7163 15.4378 33.7449 12.2841 30.8314C11.9425 30.5163 11.6913 30.481 11.2813 30.6618C9.27146 31.5499 7.49077 32.7664 5.93707 34.3157C4.31065 35.9377 3.00379 37.7823 2.00766 39.9905C11.2262 40.8721 20.3655 40.8831 29.4452 40.601L29.4408 40.6032ZM31.4243 41.5354C31.594 44.0257 32.1449 46.3133 33.9256 48.1116C36.0259 50.2339 39.0671 49.9871 40.8632 47.6003C41.7646 46.4015 42.1194 45.002 42.3685 43.5585C42.5734 42.3773 42.6814 41.315 41.5376 40.4049C40.969 39.9509 40.742 39.0605 40.3762 38.3575C40.2418 38.0997 40.158 37.8176 40.0346 37.5046C37.6501 39.8848 34.8578 41.2577 31.4221 41.5376L31.4243 41.5354ZM43.0164 39.6996C43.1376 39.6688 43.2566 39.6357 43.3778 39.6049C43.5255 38.9151 43.7304 38.2297 43.8098 37.5311C44.0632 35.3647 42.9745 33.1411 41.1784 32.2485C39.25 31.2898 37.5245 31.7659 35.9333 33.1102C35.6865 33.3174 35.2215 33.4033 34.8887 33.3482C33.2512 33.0794 31.8717 33.7008 31.389 35.3118C31.0606 36.4049 31.0518 37.628 31.0893 38.7872C31.1246 39.8671 31.281 39.9839 32.2926 39.682C33.7493 39.2456 35.2104 38.7454 36.5614 38.0578C37.941 37.3548 39.0561 36.2881 39.6644 34.7719C39.7724 34.5052 40.2792 34.1879 40.5305 34.2408C40.8412 34.3069 41.2092 34.6881 41.315 35.0121C41.5795 35.8143 41.6346 36.687 41.9167 37.4804C42.1899 38.2539 42.6417 38.9636 43.0142 39.6996H43.0164ZM55.0581 29.4783C56.8255 31.6006 60.9445 31.5785 63.1196 29.4056C60.3935 28.5174 57.7379 28.6364 55.0581 29.4783ZM21.4321 29.7031C18.825 28.9031 16.3501 28.9758 13.8444 29.789C15.6625 31.7262 19.2724 31.7064 21.4321 29.7031Z" fill="#11114C"/>
<path d="M51.413 59.6464C52.4928 58.2844 53.7865 57.5726 55.4834 57.9428C56.9115 58.2535 57.8944 59.08 58.2536 60.5499C58.6128 62.0155 58.5115 63.4193 57.8085 64.7879C56.8211 66.7074 55.468 68.2853 53.716 69.5503C53.0835 70.0065 52.4642 70.1432 51.7986 69.8258C50.0929 69.0192 48.418 68.1465 46.7122 67.3377C46.2428 67.1151 45.7117 66.8947 45.2092 66.8969C39.8517 66.9102 34.4964 66.9697 29.1389 67.0115C28.7268 67.0137 28.3081 66.9278 27.9048 66.9785C26.4172 67.1636 25.3462 66.5245 24.6013 65.3058C24.4029 64.9818 24.2795 64.5256 24.3192 64.1532C24.934 58.3571 28.9119 54.0398 34.6661 53.0239C39.6578 52.1423 43.8362 53.5616 46.9811 57.6651C47.1243 57.8502 47.4108 58.0662 47.6114 58.0464C49.1364 57.9053 50.3353 58.5158 51.413 59.6464ZM26.1461 64.0253H43.9817C43.3315 61.9053 43.8494 60.151 45.683 58.7031C44.9029 57.8767 44.1668 57.0987 43.4131 56.3032C42.7453 57.3213 42.19 58.2029 41.6015 59.0623C40.9272 60.0497 40.4335 60.0871 39.6842 59.1615C38.7917 58.0596 37.9476 56.918 37.0286 55.7236C36.7972 56.0585 36.5702 56.3561 36.3763 56.6756C35.8628 57.5197 35.378 58.3814 34.8556 59.2188C34.4061 59.9439 33.8265 60.0144 33.2491 59.3907C32.8788 58.9918 32.5637 58.5334 32.2639 58.075C31.8783 57.4822 31.5345 56.8629 31.1488 56.2128C28.1803 58.0001 26.3731 60.4353 26.1483 64.0209L26.1461 64.0253ZM45.3282 62.3593C45.5816 63.0138 45.6808 63.8116 46.1216 64.292C46.9414 65.1846 47.8582 66.1013 48.9204 66.6347C52.462 68.411 51.2499 68.5696 54.1523 65.9008C55.252 64.8892 56.0983 63.6617 56.4267 62.1587C56.6867 60.9664 56.3187 60.0849 55.4438 59.7279C54.4873 59.3356 53.3435 59.7499 52.7683 60.7505C52.5678 61.0987 52.5325 61.5483 52.3187 61.8854C52.1116 62.2116 51.7832 62.6634 51.4901 62.6766C51.2058 62.6898 50.8774 62.2358 50.613 61.9449C50.4962 61.8171 50.5072 61.5813 50.4323 61.405C49.9628 60.27 48.7001 59.5648 47.5739 59.8006C46.3882 60.0497 45.4582 61.1494 45.3238 62.3593H45.3282ZM40.5525 57.5946C41.0241 56.8012 41.401 56.1665 41.8572 55.3974C40.6958 55.0911 39.693 54.8266 38.6925 54.5621C38.6506 54.6349 38.6088 54.7076 38.5669 54.7803C39.1906 55.6641 39.8142 56.5478 40.5547 57.5946H40.5525ZM33.8727 57.4051C34.4898 56.4332 35.0275 55.5847 35.6975 54.5291C34.5934 54.8464 33.6854 55.1065 32.6915 55.3908C33.1256 56.1313 33.4694 56.7175 33.8727 57.4051Z" fill="#11114C"/>
<path d="M10.8825 6.09567C9.78722 3.71555 11.0103 1.25388 13.7122 0.288602C16.2025 -0.599538 18.3072 0.59273 19.0697 3.37395C19.57 3.37395 20.0923 3.33208 20.6036 3.38056C25.4013 3.83014 28.6277 9.06202 26.8426 13.5468C26.587 14.1881 26.0646 14.7192 25.6834 15.3143C25.5468 15.5258 25.4189 15.7616 25.3616 16.0019C24.976 17.6525 24.7952 19.3781 24.198 20.9472C23.1754 23.6381 21.2912 25.5422 18.294 25.9764C15.5083 26.3819 13.3045 25.2293 11.5326 23.1709C10.001 21.3924 9.2605 19.2547 8.86822 16.9671C8.81313 16.6498 8.57512 16.2928 8.31506 16.09C6.84071 14.9396 6.8958 13.3573 7.17569 11.8036C7.60323 9.43446 8.9145 7.56562 10.8781 6.09127L10.8825 6.09567ZM10.5299 16.1804C10.8098 18.4327 11.4599 20.4999 12.9784 22.2012C15.8433 25.4122 20.1276 24.9185 22.2234 21.1544C23.0542 19.6624 23.3341 18.0184 23.5854 16.3567C23.7462 15.301 23.6052 14.5121 22.7369 13.7011C21.9942 13.0069 21.6151 11.9138 21.1127 10.9771C20.9275 10.6311 20.846 10.23 20.7116 9.83336C15.8433 14.2035 14.4836 15.0542 10.5277 16.1826L10.5299 16.1804ZM24.9627 13.3727C26.1594 11.2041 25.5225 8.14743 23.5545 6.43727C21.5666 4.70947 18.5694 4.57063 16.4868 6.22129C15.7486 6.80751 15.0962 7.21522 14.1287 6.91109C13.84 6.82073 13.472 6.9155 13.1547 6.98822C10.6798 7.55681 8.35253 11.257 8.8528 13.754C8.98503 14.4107 9.25169 14.6002 9.92165 14.4702C12.877 13.8928 15.3453 12.3766 17.5337 10.4218C18.5386 9.52482 19.3232 8.37002 20.1253 7.27031C20.4339 6.84718 20.5529 6.27859 21.2206 6.36895C21.8862 6.4593 21.9259 7.03009 22.0537 7.54138C22.3292 8.65652 22.5672 9.78928 22.9418 10.8714C23.3055 11.9182 23.9556 12.8019 24.9649 13.3727H24.9627ZM14.034 5.13921C14.067 5.21194 14.0979 5.28467 14.131 5.35519C14.6466 5.12158 15.169 4.9012 15.678 4.65217C16.0461 4.47146 16.3833 4.21361 16.7623 4.06595C17.2251 3.88524 17.375 3.55467 17.181 3.16239C16.9849 2.76129 16.7293 2.31391 16.3722 2.08251C14.9199 1.13928 12.2467 2.55193 12.1255 4.28413C12.0748 4.99817 12.4362 5.32874 13.1326 5.22296C13.4301 5.17668 13.7321 5.16566 14.034 5.13701V5.13921Z" fill="#11114C"/>
<path d="M68.4354 8.4913C68.4067 8.85713 68.4023 9.10616 68.3671 9.34858C68.2436 10.1971 68.1621 10.9353 68.6954 11.8014C69.5461 13.1832 68.7042 15.0411 67.2365 15.7264C66.9676 15.8521 66.7803 16.2532 66.6547 16.5661C66.0729 18.0338 65.7401 19.647 64.9291 20.9693C62.5247 24.8877 57.7535 25.3924 54.4147 22.2189C52.6781 20.5682 51.7282 18.5033 51.2918 16.1826C51.1993 15.689 51.0098 15.3716 50.5624 15.0984C49.4605 14.424 48.9338 13.4036 49.1387 12.1012C49.196 11.7397 49.3415 11.2329 49.6059 11.094C50.6549 10.5409 50.4808 9.6439 50.4919 8.72931C50.5073 7.33649 50.8489 6.00539 51.6467 4.83736C52.7508 3.22416 54.2494 2.37349 56.2549 2.50131C56.5766 2.52114 56.9733 2.45062 57.2289 2.26991C61.7093 -0.896985 67.4503 1.57791 68.2767 7.0522C68.3538 7.56789 68.3913 8.088 68.4332 8.48909L68.4354 8.4913ZM55.208 10.1949C54.386 11.1645 53.6345 12.0461 52.894 12.9386C52.7993 13.0532 52.7155 13.2273 52.7221 13.3706C52.8279 15.7595 53.2136 18.0823 54.7298 20.0327C57.6565 23.7946 62.3352 23.2591 64.1511 18.8603C64.7969 17.2978 64.9159 15.5171 65.2442 13.8312C65.2773 13.6615 65.1385 13.4279 65.0239 13.2604C64.268 12.1695 63.4966 11.0896 62.6702 9.91937C60.2989 11.0587 57.6653 11.1557 55.208 10.1971V10.1949ZM52.3827 10.7943L52.6692 10.8604C52.9161 10.2654 53.2356 9.68797 53.3921 9.0709C53.705 7.83676 54.0246 7.66486 55.1441 8.22243C57.7072 9.49404 60.2239 9.38384 62.6658 7.89186C63.8007 7.19765 64.2437 7.39159 64.4773 8.73592C64.6691 9.83122 65.1142 10.7987 65.9407 11.667C66.6591 10.2962 66.8134 8.91443 66.593 7.51721C66.258 5.3795 65.2068 3.66272 63.1021 2.89359C61.1209 2.17074 59.3446 2.71949 57.7755 4.10569C57.5265 4.32607 57.0064 4.42525 56.6758 4.3393C55.2323 3.96465 54.126 4.46491 53.2687 5.57123C52.0434 7.15358 52.0896 8.96071 52.3871 10.7943H52.3827Z" fill="#11114C"/>
<path d="M63.0602 16.2136C63.8844 16.2136 64.1048 16.6918 64.0607 17.3464C63.9858 18.4461 62.8817 19.2527 61.6453 18.9486C60.6867 18.7128 59.7919 18.2147 58.7627 17.7916C58.4277 18.0208 57.9627 18.4064 57.4404 18.6841C56.4046 19.2329 55.2983 19.1271 54.6416 18.3667C54.3441 18.0207 54.1259 17.5073 54.106 17.0577C54.0928 16.7734 54.4741 16.2753 54.743 16.2246C55.0294 16.1695 55.598 16.4626 55.6862 16.7249C55.944 17.4896 56.3892 17.3376 56.819 17.0511C57.2685 16.7513 57.641 16.3326 58.0465 15.9668C58.8663 15.2241 59.1506 15.3167 59.933 16.0902C60.431 16.5839 61.1142 16.9916 61.7864 17.1899C62.6745 17.4544 62.9346 17.1811 63.058 16.2158L63.0602 16.2136Z" fill="#11114C"/>
</g>
<defs>
<clipPath id="clip0_15_2562">
<rect width="75.2275" height="70" fill="white"/>
</clipPath>
</defs>
</svg>
