<svg width="76" height="120" viewBox="0 0 76 120" fill="none" xmlns="http://www.w3.org/2000/svg">
<path d="M38.9044 25.3203C38.8276 25.6393 38.765 25.9937 38.6882 26.3128C42.3106 28.2022 45.8481 30.0849 49.4488 31.8186C53.1947 33.5554 56.9716 35.0122 61.2917 36.8461C60.8055 34.4711 59.71 34.1526 58.7914 33.7626C52.2083 30.9093 45.5583 28.1449 38.9044 25.3203ZM44.2077 75.9851L44.158 75.964C45.1383 73.6547 46.1112 71.225 47.1411 68.9368C51.0044 60.3197 54.517 51.7003 56.8378 42.5749C57.3727 40.4868 58.5193 38.1309 55.5872 37.2379C51.4145 36.0233 47.8403 33.744 44.0689 31.7913C39.8182 29.5179 38.7857 30.0174 36.6325 34.2612C35.9919 35.4252 35.507 36.5675 35.065 37.8158C30.4554 48.8122 26.2077 59.9915 21.2505 70.8404C17.1163 79.9579 14.8247 89.3594 13.4729 99.1012C13.2618 100.565 13.0898 102.074 13.1338 103.558C13.351 107.05 15.2006 109.388 18.2806 111.106C21.4314 112.795 24.0518 111.593 26.4428 109.618C30.5115 106.246 33.2598 102.05 35.2303 97.2013C38.1104 90.0717 41.2388 83.0476 44.243 75.9707L44.2077 75.9851ZM20.8383 65.1852C26.8447 55.661 28.8586 43.7385 34.4657 33.4293C35.6378 31.2893 34.9409 29.4109 34.6788 27.3362C34.0834 23.0099 36.2772 21.3623 40.37 23.0411C47.6935 25.9449 54.9643 28.9729 62.0943 32.2634C66.2374 34.1688 66.3863 37.3384 62.3886 39.7149C60.6637 40.741 59.8071 41.9306 59.3379 43.519C54.2228 62.1256 44.9404 79.0216 38.0167 96.9189C36.0159 102.253 33.1238 106.857 29.0889 110.771C24.7295 115.104 21.7601 115.748 17.1166 113.572C12.349 111.343 9.82937 107.753 10.2364 102.446C11.2314 90.8525 13.7899 79.718 19.0245 69.2507C19.6652 68.0867 20.0756 66.9128 20.8029 65.1995L20.8383 65.1852Z" fill="white"/>
<path d="M55.4595 20.4205C55.1878 20.7155 54.767 20.9471 54.7715 21.2128C54.7263 21.4573 55.1664 21.7321 55.3657 22.0219C55.5418 21.745 55.9768 21.5486 55.9581 21.2476C56.0033 21.0031 55.5843 20.6787 55.4346 20.41L55.4595 20.4205ZM58.3729 23.1519C57.4898 24.8871 55.8418 25.5941 53.7804 24.5139C51.9462 23.5887 51.0618 21.8066 51.4943 19.8216C51.8815 18.0811 55.1474 17.1523 57.0026 18.0278C59.064 19.1081 59.445 20.7644 58.348 23.1414L58.3729 23.1519Z" fill="white"/>
<path d="M55.29 7.98145C55.1665 8.13419 54.9475 8.30497 54.9656 8.40054C55.1159 8.87465 55.3424 8.82429 55.5638 8.30284C55.5849 8.25318 55.393 8.08381 55.29 7.98145ZM53.8645 6.43854C54.3525 5.15108 55.0608 4.10371 56.558 4.8565C58.4667 5.8133 59.4955 7.39299 58.2203 9.43057C57.3855 10.7759 56.0134 12.4207 54.2251 11.4564C51.9929 10.1571 53.3178 8.14062 53.8502 6.40316L53.8645 6.43854Z" fill="white"/>
<path d="M29.412 70.1142C29.3858 69.6928 29.3837 69.0765 29.2099 69.0027C28.1671 68.56 27.7486 69.408 27.3827 70.1319C27.2351 70.4795 27.3899 71.2193 27.3899 71.2193C28.3109 71.2586 28.9754 70.8667 29.412 70.1142ZM23.0477 89.0403C27.4213 87.8491 29.31 84.9877 32.159 84.3508C35.6663 83.6125 36.0514 81.2557 36.4321 78.6332C35.187 78.046 34.5729 78.6645 33.955 79.2227C30.4079 81.8491 27.1099 84.7863 23.0726 89.0508L23.0477 89.0403ZM24.8122 94.4783C26.0322 90.7762 31.1058 91.3181 33.2117 86.7026C27.8033 88.7439 23.9794 91.1941 20.8032 94.5347C20.3583 94.9613 19.6041 96.0478 21.008 96.468C21.5821 96.5652 22.1977 96.3576 22.835 96.3058C22.3689 97.7491 21.5333 98.8889 20.3856 99.867C19.298 100.841 19.1389 101.975 21.1718 102.985C21.9639 98.427 27.7502 98.1872 29.1134 93.8718C27.3469 93.0633 26.3771 95.3478 24.8371 94.4889L24.8122 94.4783ZM29.4364 74.1981C26.9959 75.1842 25.1626 76.6039 24.8194 79.8284C26.4626 77.6832 27.9439 75.8504 29.3688 74.0815C31.7143 73.3189 33.7402 72.274 34.0678 68.6033C32.0709 70.8913 29.6012 71.6012 29.4718 74.1838L29.4364 74.1981ZM23.7579 84.3304C22.6624 84.0119 22.2041 84.6086 21.9592 85.5304C21.9351 85.7253 22.2088 86.0466 22.2088 86.0466C23.072 85.739 23.5124 85.0468 23.6548 84.2281C25.0183 84.1915 25.4294 83.223 25.8225 82.1591C30.1909 80.4968 32.8392 76.0529 37.4671 74.6767C38.4047 74.4007 38.7948 73.4819 38.0945 72.7157C37.4972 72.0519 36.5018 71.981 35.7883 72.5573C32.4699 75.7496 28.1246 77.9785 25.8691 82.3254C24.3846 82.1641 24.0411 83.2491 23.7225 84.3447L23.7579 84.3304ZM22.0031 76.5228C22.9835 74.2135 23.9352 71.8335 24.9863 69.4956C26.3325 66.4624 28.6526 65.4839 31.7727 66.486C34.5738 67.4114 37.3823 68.4571 40.0885 69.606C41.7023 70.291 42.0857 71.5967 41.4434 73.3168C39.9622 77.2891 38.694 81.381 36.9397 85.2374C34.9076 89.6791 32.5633 93.959 30.1339 98.232C28.419 101.167 26.2039 103.832 23.0431 105.479C19.0907 107.611 17.2317 106.675 16.2645 102.396C15.6784 99.7736 16.0063 97.2753 16.5149 94.7658C17.1667 91.6429 17.8681 88.5412 18.7644 85.4636C19.6396 82.4356 20.0889 79.1683 22.0031 76.5228Z" fill="white"/>
<path d="M36.7796 59.937C37.7478 60.3481 39.6472 59.6012 39.8635 58.6087C40.0767 57.7614 39.7511 56.8026 39.0063 56.4864C37.6693 55.9775 36.5525 56.6756 36.0149 57.942C35.6987 58.6869 35.8753 59.5824 36.7939 59.9724L36.7796 59.937ZM42.2054 59.9252C41.0829 62.0863 37.4657 62.8072 34.886 61.3604C32.6012 60.1853 32.6341 58.3823 33.7896 56.5577C35.0934 54.5909 36.8869 52.9198 39.6217 54.1394C41.7854 55.1166 43.0637 58.1796 42.1806 59.9147L42.2054 59.9252Z" fill="white"/>
<path d="M43.9855 46.9656C43.5145 46.9708 43.2639 47.2161 43.4458 47.6157C43.5173 47.7926 43.7166 48.0823 43.8227 48.0394C44.1944 47.9921 44.4947 47.7679 44.7814 47.7138C44.5362 47.4631 44.3052 47.2479 44.0103 46.9761L43.9855 46.9656ZM45.476 44.6971C47.0129 45.7012 48.1684 46.9829 47.2326 48.8422C46.3291 50.8325 44.4463 51.2641 42.5165 50.357C40.6507 49.5063 40.2697 47.8499 41.1565 46.1749C42.0576 44.5354 43.5928 43.9562 45.4511 44.6865L45.476 44.6971Z" fill="white"/>
<path d="M46.2704 39.7886C45.8753 40.2363 44.3928 40.6913 42.7001 39.7089C41.8522 39.2904 41.4522 38.3 42.0483 37.5859C43.2338 36.2429 44.9659 36.3042 46.5039 36.5468C47.3014 36.7388 47.6307 37.7578 46.281 39.7638L46.2704 39.7886Z" fill="white"/>
<path d="M25.0101 94.3571C24.6493 95.5521 24.2352 96.6657 22.6687 96.3524C23.0084 95.2071 23.5436 94.2914 25.0101 94.3571Z" fill="white"/>
</svg>
