<svg width="201" height="228" viewBox="0 0 201 228" fill="none" xmlns="http://www.w3.org/2000/svg">
<path d="M107.317 134.831C107.691 134.173 108.055 133.6 108.429 132.941L108.511 132.771C108.185 133.453 107.846 134.038 107.447 134.684C107.375 134.71 107.34 134.783 107.317 134.831Z" fill="white"/>
<path d="M80.3949 199.222C75.3005 196.997 70.3456 194.479 65.7219 192.269C58.5653 189.416 52.069 186.371 45.93 182.39C44.4529 181.415 43.5937 180.585 44.2039 178.933C44.9039 176.906 46.4433 177.313 47.9129 177.866C49.4693 178.55 51.0616 179.221 52.5947 179.954C62.4907 184.894 72.3867 189.833 82.1864 194.786C84.1575 195.729 87.5812 196.259 86.2011 199.396C84.7289 202.789 82.2073 200.059 80.4065 199.198L80.3949 199.222ZM85.6795 193.107C73.9108 187.333 61.9527 181.766 50.3437 175.47C44.5699 172.351 42.9058 173.081 41.0088 179.051C39.7399 183.019 40.0964 182.711 43.878 185.057C54.3074 191.507 66.1434 194.952 76.7125 201.11C80.2177 202.157 83.633 203.581 87.0135 205.077C87.8915 204.241 88.8816 203.608 89.3427 202.393C91.3518 196.626 91.2787 195.903 85.6562 193.156L85.6795 193.107Z" fill="white"/>
<path d="M144.503 136.401C138.113 141.389 131.663 140.937 124.997 135.807C126.03 133.521 127.716 131.994 130.112 131.047C129.536 132.565 129.485 133.797 131.708 133.962C137.892 134.347 143.019 132.313 147.025 127.56C151.539 122.183 155.599 116.44 160.407 111.323C164.492 106.967 163.949 104.913 158.912 101.878C158.021 101.302 157.048 100.837 156.18 100.213C155.168 99.5797 153.365 99.2861 154.324 97.5919C154.99 96.3252 156.063 94.9547 157.887 95.7668C163.381 98.0338 167.434 102.124 171.156 106.534C172.104 107.615 171.3 108.547 170.651 109.342C162.409 118.768 154.587 128.753 144.564 136.4L144.503 136.401ZM156.963 104.205C159.801 106.399 159.939 107.422 157.519 110.421C153.777 115.061 149.741 119.44 146.192 124.112C142.066 129.555 136.969 131.962 130.301 130.838C134.883 124.567 139.575 118.378 144.109 112.084C145.969 109.505 147.463 106.631 149.445 104.11C151.508 101.358 153.415 101.433 156.95 104.169L156.963 104.205ZM112.329 139.23C104.454 143.509 96.1883 142.728 87.9867 141.498C84.7567 141.001 82.2848 138.354 80.159 136.172C73.4133 129.27 69.0849 121.251 68.823 111.229C68.4027 97.0356 72.1499 83.8174 76.4758 70.5767C80.5807 57.7986 85.8145 45.4105 90.8048 32.2184C101.443 42.9843 112.246 52.0944 125.761 57.7174C138.852 63.2273 150.792 71.8345 165.763 71.0971C166.777 73.1664 165.225 74.099 164.51 75.2821C157.745 86.3703 152.066 98.1268 144.009 108.478C138.747 115.172 134.328 122.478 128.051 128.417C123.34 132.893 117.97 136.186 112.342 139.266L112.329 139.23ZM78.7759 140.504C83.5625 142.373 87.8838 145.904 94.8142 144.164C92.0948 147.977 90.0618 150.354 88.5769 153.022C86.4499 156.909 84.6278 160.972 83.5716 165.37C82.6518 169.296 81.4681 169.896 77.6551 169.18C75.1243 168.658 72.8125 167.553 70.8412 165.923C68.8456 164.281 68.1979 162.447 69.4172 159.771C72.3668 153.287 76.4834 147.302 78.7759 140.504ZM86.5321 166.995C87.3281 163.578 88.7828 163.286 91.4004 164.627C94.6032 166.308 97.8419 167.975 100.986 169.777C103.41 171.086 104.441 173.432 104.91 176.078C105.888 181.538 106.901 186.986 106.06 192.624C100.519 193.084 95.368 191.101 90.8818 188.478C75.852 179.769 60.0321 172.776 44.5401 165.221C41.6432 163.777 38.8636 162.149 36.9821 159.456C35.9197 158.051 35.8718 156.712 37.2861 155.505C42.3372 151.192 48.8996 150.472 54.7191 147.991C57.7373 146.743 60.593 148.586 63.4263 149.163C64.0442 149.309 64.5955 149.782 65.1203 150.122C69.1187 152.452 69.25 153.053 66.9814 157.111C63.8549 162.464 64.2255 164.315 69.1076 168.174C71.6883 170.155 74.5831 171.479 77.7455 172.243C82.8578 173.431 85.274 172.253 86.5448 167.03L86.5321 166.995ZM101.385 211.348C101.036 212.078 100.239 212.744 99.3157 212.362C95.7935 211.038 91.6801 211.075 88.6074 208.56L86.8468 207.927C85.8015 207.488 84.827 206.962 83.8536 206.497C74.7588 203.196 66.2742 198.931 57.7083 194.837C53.4972 192.764 49.4268 190.46 45.1925 188.436C38.6961 185.39 32.5784 181.928 27.9658 176.255C27.3499 175.542 26.9669 175.03 27.301 174.143C28.552 170.525 29.7416 166.848 31.1629 163.312C31.8439 161.574 33.2267 161.308 34.7673 162.463C42.2131 168.026 50.8836 171.213 59.1343 175.217C71.1813 181.035 82.5524 188.204 94.8574 193.608C98.5902 195.242 102.328 196.491 106.719 196.437C106.869 202.189 103.386 206.474 101.385 211.348ZM73.3525 69.2931C69.8491 79.2493 67.8122 89.5775 65.2906 99.7937C62.8974 98.8591 62.6315 96.7885 62.7136 94.6153C63.2644 85.5201 64.5282 76.4966 65.9856 67.506C66.6208 63.8629 68.8035 64.4876 71.1004 64.7484C74.1579 65.0438 74.2386 66.8763 73.3525 69.2931ZM62.5781 106.719C58.9122 106.133 55.053 101.448 54.8014 96.7833C54.6169 93.8547 54.8534 90.8582 54.9693 87.8639C55.4394 77.6239 56.7443 67.5138 58.3147 57.4111C58.7638 54.1574 60.2733 52.8757 63.4611 53.7118C67.3397 54.7285 71.5197 54.3645 75.2408 56.0236C76.7337 56.5278 77.4385 57.4926 77.2113 58.9686C76.9005 60.4944 76.359 61.9399 74.4653 61.9616C72.306 61.9759 70.2049 61.8686 68.0783 61.6893C65.1911 61.4753 63.6213 62.7581 63.2483 65.5398C61.9762 75.4562 60.6078 85.3864 59.4806 95.3124C59.0157 99.0368 60.5153 101.966 63.9382 103.812C64.7899 104.219 65.2524 105.127 64.7965 105.956C64.3988 106.663 63.4499 106.897 62.5305 106.756L62.5781 106.719ZM113.548 37.7373C119.568 40.4654 125.473 43.4972 131.482 46.2497C137.695 49.0106 143.608 52.4645 149.554 55.7852C155.282 59.0012 161.055 62.1198 166.659 67.2202C157.067 69.2131 149.677 65.4114 142.253 62.491C135.691 59.8329 129.584 56.2859 123.141 53.5049C112.929 49.102 105.191 41.3973 96.935 34.3412C95.8568 33.4073 94.7034 32.3178 95.1537 29.8122C101.895 31.0313 107.468 35.0705 113.512 37.75L113.548 37.7373ZM161.75 94.5035C157.937 91.7843 157.834 91.3759 160.148 87.16C163.185 81.5557 166.369 76.0212 170.479 71.0493C172.793 68.2089 172.746 66.8704 169.971 64.8567C166.856 62.68 163.646 60.5775 160.401 58.548C141.479 46.7231 120.728 38.5384 100.911 28.5875C98.5737 27.4105 96.0683 26.9605 93.5619 26.4501C90.3181 25.8564 88.6615 27.008 87.4169 30.3C85.3283 35.6702 84.7558 41.496 82.2546 46.7287C78.9972 53.5435 79.1189 53.6016 71.9055 52.3064C70.0054 51.9663 68.1158 51.5415 66.2759 51.2002C57.1486 49.4686 56.1256 50.2952 54.8545 59.5842C53.3551 70.9767 52.2917 82.4579 51.5784 93.957C51.0879 102.363 54.7514 107.583 63.0896 109.715C64.8597 110.202 65.7654 110.934 65.699 112.636C65.6135 120.07 69.017 126.272 72.7304 132.262C75.6004 136.953 75.4255 141.384 73.3136 146.115C72.2338 148.499 70.7316 149.516 68.3044 148.026C60.316 143.162 52.5591 143.879 44.9257 148.841C44.3407 149.19 43.7397 149.321 43.1399 149.513C34.9443 152.023 29.575 157.44 26.9674 165.522C25.6752 169.539 21.7996 174.145 23.4231 177.253C25.3111 180.996 30.0629 183.626 34.276 185.819C39.3198 188.589 44.8227 190.711 49.5819 193.763C63.7834 202.704 80.0514 207.071 94.6833 215.112C95.7795 215.695 97.1326 215.804 98.3102 216.217C101.385 217.478 103.512 216.342 104.244 213.373C105.187 209.398 107.114 205.805 108.592 202.086C109.818 199.084 110.521 195.862 110.114 192.648C109.331 185.905 108.078 179.207 107.319 172.416C106.995 169.779 105.932 168.374 103.499 167.211C99.2644 165.187 95.2754 162.712 91.1458 160.469C89.6222 159.592 88.7122 158.618 89.7434 156.899C93.423 150.764 97.3609 144.903 105.444 144.191C109.817 143.86 113.802 142.028 117.244 139.517C120.306 137.303 122.603 137.563 125.303 139.482C127.063 140.742 129.019 141.527 131.186 141.935C138.341 143.352 144.316 140.796 149.187 135.859C158.371 126.465 167.319 116.75 176.557 106.993C171.779 102.228 166.93 98.1756 161.701 94.4802L161.75 94.5035Z" fill="white"/>
<path d="M91.6339 4.77862C86.6662 7.66635 83.1662 12.3619 77.9065 15.7978C81.4177 8.32693 86.6126 3.96318 91.6339 4.77862Z" fill="white"/>
<path d="M133.791 154.871C131.288 159.983 126.194 161.196 121.533 163.005C124.756 159.014 128.857 156.25 133.791 154.871Z" fill="white"/>
<path d="M97.189 9.85568C90.795 11.9122 88.2589 17.2179 82.9177 19.4487C86.7695 12.1407 91.6387 8.45845 97.189 9.85568Z" fill="white"/>
<path d="M127.583 167.421C130.261 164.007 134.361 162.498 136.992 159.182C137.665 158.337 138.845 158.183 139.613 159.328C140.368 160.376 139.734 161.389 138.816 161.997C135.456 164.397 131.777 166.466 127.583 167.421Z" fill="white"/>
<path d="M128.749 109.256C123.743 118.853 118.391 126.61 111.23 133.024C109.865 134.315 108.08 137.738 106.555 136.112C104.267 133.643 108.23 132.607 109.593 131.195C114.584 126.256 119.109 120.854 122.425 114.606C123.556 112.365 124.773 110.256 128.724 109.245L128.749 109.256Z" fill="white"/>
<path d="M96.849 51.2829C97.0014 51.7146 97.3834 52.1663 97.23 52.362C93.8412 57.8881 91.2417 63.7018 90.0388 70.0335C89.819 71.244 89.2669 72.0863 87.9348 71.8084C86.4822 71.5327 86.7253 70.2736 86.9854 69.2916C88.5068 63.2318 90.8789 57.5186 94.1873 52.2232C94.7394 51.3809 95.5825 50.6177 96.849 51.2829Z" fill="white"/>
<path d="M103.481 59.2366C103.527 63.8931 100.269 67.2691 99.5365 71.5534C99.4392 72.1946 98.6934 72.3165 98.0173 72.2924C97.3043 72.2206 96.7858 71.5541 96.8735 71.0579C97.7921 66.3842 99.8565 62.3779 103.469 59.2609L103.481 59.2366Z" fill="white"/>
<path d="M112.381 123.798C110.449 126.402 108.385 129.093 105.624 131.242C105.268 131.55 104.424 131.565 103.889 131.369C103.223 131.2 103.086 130.298 103.501 129.868C106.1 126.745 108.689 123.767 111.386 120.751C111.54 120.555 112.289 120.614 112.522 120.815C113.672 121.724 112.747 122.657 112.357 123.786L112.381 123.798Z" fill="white"/>
</svg>
