<svg width="83" height="183" viewBox="0 0 83 183" fill="none" xmlns="http://www.w3.org/2000/svg">
<path d="M10.2339 170.486C12.7962 173.184 15.6553 173.427 18.3525 174.047C24.2864 175.288 25.2304 174.802 27.1724 168.733C32.6747 151.441 38.4198 134.123 43.2209 116.561C50.0988 91.0692 58.2174 65.9547 67.0104 41.0829C70.1931 32.2078 73.1331 23.2788 75.9921 14.2688C77.5565 9.27831 76.3697 7.47093 71.245 6.20306C68.8175 5.58262 66.2552 5.5826 63.7467 5.25889C60.4292 4.82727 58.5681 6.31095 57.4892 9.4941C54.6032 17.6138 51.6092 25.7336 49.856 34.6087C52.6612 35.0403 54.8459 35.2831 56.9227 35.7956C57.8668 36.0384 58.2983 36.9825 58.2444 38.0346C58.1905 39.0327 57.5701 39.788 56.4912 39.8959C55.6281 40.0308 54.6301 39.7611 53.74 39.8959C51.3665 40.2197 48.3726 38.8978 47.0509 41.8922C45.4866 45.6418 49.937 45.2641 51.0428 47.1525C51.2856 47.665 51.2856 48.2854 51.4204 48.8519C50.854 50.3626 49.5593 50.0928 48.3726 50.2817C42.4387 51.2798 42.4387 51.3337 46.3227 55.8926C48.5614 58.6442 47.4555 59.8851 44.5156 60.1279C42.5196 60.3167 39.5257 61.126 40.6316 62.6906C44.5155 68.0048 40.0651 70.055 37.6916 73.3191C35.2641 76.6911 36.5587 78.8761 41.117 80.117C41.6834 80.3058 42.3578 80.117 42.9781 80.3058C44.2998 80.7374 45.1089 81.7355 44.7313 83.1113C44.4886 83.9206 43.7333 84.7299 42.9781 85.1075C42.2229 85.4852 41.171 85.2964 40.227 85.4852C37.9883 85.9977 34.8595 83.9745 33.6727 87.3465C32.4859 90.8534 36.1811 91.1501 37.6646 92.8496C38.4198 93.6589 38.5277 94.4142 38.1771 95.2775C36.3699 98.1639 32.6748 94.9537 30.8676 97.2737C30.6249 100.214 34.8595 100.214 33.9155 102.885C32.9175 105.879 28.7368 104.206 27.3073 107.39C25.9856 110.33 32.0005 112.272 28.2513 114.565C25.5002 116.319 23.9358 118.315 23.9358 121.255C23.9358 126.192 28.6289 124.196 31.0025 125.571C31.9465 126.138 32.2432 126.893 32.3241 127.891C32.459 129.078 31.5149 129.645 30.6248 129.753C29.1144 129.941 27.4421 130.076 26.0126 129.753C21.778 128.808 19.9439 131.317 19.6472 134.689C19.3235 138.682 23.5312 143.564 16.5993 145.992C15.4665 146.37 16.923 148.69 18.1637 149.742C20.3484 151.549 20.9688 153.923 17.4894 154.247C10.7463 154.813 18.5413 160.316 14.4955 162.313C13.3626 162.879 16.6802 163.931 18.2446 164.309C18.865 164.444 19.5662 164.363 20.0517 164.632C21.6161 165.442 22.3714 166.818 22.0477 168.517C21.724 170.513 20.1057 170.891 18.4874 170.648C16.0599 170.27 13.7942 168.706 10.2339 170.405L10.2339 170.486ZM35.9654 60.9641C43.0321 40.1657 47.8871 23.9262 52.5802 7.68672C54.9538 -0.675804 55.3853 -0.486959 64.3941 0.430222C69.3839 0.996715 74.3198 2.04877 78.8781 4.17987C82.0069 5.60959 83.2476 6.93141 82.0069 11.3015C76.6934 29.6721 68.7096 47.0985 63.1534 65.3342C53.2815 97.7592 43.5445 130.238 33.9155 162.717C32.4859 167.465 31.1643 172.267 31.1104 177.473C31.0564 182.41 28.1165 183.731 23.6121 181.411C18.0019 178.525 12.1759 176.286 5.81043 176.151C3.43687 176.097 1.25214 175.207 0.308116 173.157C-0.878661 170.405 1.62976 169.542 3.30203 168.166C7.53667 164.794 8.42675 159.534 9.28986 154.732C11.5286 142.674 14.981 130.94 18.9729 119.367C26.2284 98.6225 29.8427 76.8259 35.9654 60.9641Z" fill="white"/>
<path d="M63.8816 20.5543C63.9355 21.1208 64.0704 21.6872 64.1244 22.3077C64.5559 21.8761 65.1763 21.6333 65.3651 21.1208C65.5539 20.6082 65.2302 19.9878 65.1763 19.4213C64.7447 19.7989 64.3132 20.1766 63.8546 20.5543L63.8816 20.5543ZM58.3253 19.9878C60.2673 15.1051 63.9355 12.5424 67.2531 13.6754C70.0582 14.6735 71.3799 20.1766 69.6806 24.3579C68.359 27.6759 63.6119 30.0498 60.564 28.8628C57.678 27.7298 56.7609 23.9802 58.3253 19.9878Z" fill="white"/>
</svg>
