<svg width="170" height="171" viewBox="0 0 170 171" fill="none" xmlns="http://www.w3.org/2000/svg">
<g clip-path="url(#clip0_26_1205)">
<path d="M33.1999 101.9C33.6799 118.95 25.5299 134.65 30.6799 151.05C33.5999 137.1 36.2299 123.11 37.4199 109.01C38.1799 100.05 42.1899 97.48 50.2599 98.6C73.4799 101.81 96.7099 104.96 121.39 108.33C119.6 117.49 117.84 125.6 116.47 133.77C115.57 139.21 116.51 145.32 114.35 150.09C110.76 157.98 111.21 164.6 115.95 170.95C118.39 153.63 120.79 136 123.4 118.4C124.18 113.14 127.38 110.83 132.82 112.03C142.52 114.16 152.24 116.23 161.94 118.33C162.23 117.38 162.52 116.44 162.81 115.49C151.25 112.17 139.7 108.86 127.13 105.26C130.57 92.42 134.03 79.56 137.71 65.86C144.24 67.4 150.26 68.81 156.29 70.23C156.45 69.42 156.61 68.61 156.78 67.8C151.9 65.78 146.84 64.09 142.23 61.57C140.52 60.64 138.65 57.62 138.91 55.86C139.9 49.22 141.67 42.68 143.28 36.14C144.26 32.15 145.47 28.21 146.58 24.25C145.43 23.91 144.28 23.58 143.14 23.24C139.52 35.47 135.91 47.69 132.53 59.12C104.5 55.46 76.7 51.83 47.8099 48.06C49.4899 39.15 51.3199 29.35 53.1599 19.55C52.4299 19.46 51.6899 19.38 50.9599 19.29C49.6599 24.29 48.1099 29.24 47.1299 34.3C44.2599 49.01 42.9799 50.15 27.8599 50.3C25.9999 50.32 24.1399 50.59 22.2799 50.74C22.2799 51.27 22.2899 51.79 22.2999 52.32H39.9399C38.9499 61.93 37.7999 70.77 37.1699 79.64C36.1799 93.43 32.9999 96.68 19.5499 96.88C15.9499 96.93 12.3199 96.86 8.76995 97.34C6.46995 97.65 4.28995 98.85 2.06995 99.65C2.25995 100.41 2.45995 101.16 2.64995 101.93H33.2099L33.1999 101.9ZM46.4199 50.85C60.6499 52.72 73.31 54.28 85.9399 56.08C98.5699 57.88 111.14 60.08 123.78 61.81C131.52 62.87 132.61 65.41 130.08 72.63C127.15 81 125.9 89.95 123.17 98.41C122.49 100.53 119.08 102.89 116.72 103.12C112.71 103.5 108.55 102.29 104.46 101.73C92.0899 100.05 79.7199 98.39 67.3699 96.66C66.3999 96.53 65.4799 96.02 64.4699 95.66C68.4199 88.3 74.45 84.49 82.3699 84.68C84.91 89.01 88.1999 93.32 92.7499 93.33C93.7399 93.33 94.3199 92.41 94.1399 91.51C93.4699 88.17 90.6999 85.27 88.8799 82.46C87.8699 80.89 86.9199 79.28 85.9899 77.67C87.0999 73.36 94.5099 70.74 95.0699 65.81C92.9199 65.66 90.7599 64.96 88.9899 65.51C86.2499 66.36 83.6099 68.74 80.8999 69.3C77.1899 64.02 70.6799 57.4 63.9799 60.1C62.4299 60.72 61.9999 62.67 63.5199 63.66C65.8799 65.2 68.38 66 70.66 67.57C70.42 68.62 70.52 70.1 71.0499 70.54C76.9299 75.54 73.5099 78.3 69.6399 82.74C61.9099 91.61 53.4499 96.39 40.3299 92.74C42.3299 79.05 44.2799 65.67 46.4399 50.85H46.4199Z" fill="white"/>
<path d="M154.72 80.83C147.8 81.49 146.54 86.99 146.87 92.93C147.32 100.98 154.83 107.93 162.49 107.36C168.22 106.93 170.38 103.61 169.72 97.15C169.54 86.42 161.85 80.14 154.73 80.82L154.72 80.83ZM164.85 98.53C164.49 100.19 161.3 102.9 160.62 102.57C154.27 99.58 152.31 94.22 153.48 87.06C161.77 87.38 166.66 90.18 164.85 98.53Z" fill="white"/>
<path d="M7.59003 127.31C3.40003 130.81 -0.329974 135.75 0.770026 141.31C1.04003 142.66 2.77003 142.59 3.42003 141.66C4.35003 140.35 5.24003 139.1 6.16003 137.9C8.42003 135.79 10.61 133.76 12.86 131.85C13.3 132.25 13.75 132.63 14.18 133.04C18.26 136.97 21.64 141.41 26.52 144.42C27.35 144.93 28.56 144.08 28.22 143.11C26.21 137.46 22.23 133.35 17.99 129.22C17.73 128.96 17.45 128.7 17.18 128.45C17.29 128.36 17.41 128.28 17.53 128.2C18.82 127.55 20.15 126.98 21.5 126.47C23.78 125.6 26.2 125.31 27.89 123.42C28.79 122.41 28.83 120.49 27.43 119.83C22.86 117.7 16.56 121.12 12.11 124.05C8.96003 121.64 5.48003 119.64 1.70003 118.87C0.460026 118.62 -0.589974 120.11 0.410026 121.08C2.70003 123.28 5.15003 125.29 7.60003 127.31H7.59003Z" fill="white"/>
<path d="M19.0901 14.7C18.2201 16.04 17.4201 17.42 16.7401 18.84C14.2801 23.05 12.0901 27.51 9.63005 31.72C10.2401 32.15 10.8401 32.58 11.4401 33C16.0401 29.08 20.6301 25.16 25.1801 21.28C27.3101 23.56 29.6301 25.62 32.6 26.63C32.92 26.74 33.25 26.68 33.5301 26.52C35.0301 27.51 36.6501 28.58 38.5201 29.81C35.3501 22.13 24.8801 16.95 37.7901 10.6C37.3901 10.53 36.9701 10.45 36.5501 10.37C38.59 8.83001 40.7001 7.71001 41.2201 5.20001C41.6601 4.91001 42.0801 4.60001 42.4501 4.19001C43.0601 3.52001 43.1501 2.45001 42.4501 1.79001C37.2101 -3.19999 28.7001 3.56001 24.9101 7.41001C24.1101 8.22001 23.2901 9.14001 22.4601 10.13C19.3901 7.04001 15.9401 4.15001 11.8101 2.86001C9.97005 2.29001 8.79005 4.65001 10.0101 5.96001C12.8701 9.03001 16.0901 11.76 19.1001 14.71L19.0901 14.7Z" fill="white"/>
<path d="M82.32 131.8C81.39 129.02 80.3 126.38 78.49 124.39C77.14 122.91 72.94 122.94 69.6 123.79C69.28 123.75 68.97 123.7 68.65 123.68C68 123.65 67.54 124.05 67.35 124.55C67.2 124.62 67.04 124.69 66.9 124.76C59.28 128.73 58.59 136.31 60.5 143.8C62.01 149.73 64.43 155.15 72.07 156.05C79.69 156.95 85.91 154.52 89.39 148.23C92.65 142.33 93.03 135.54 87.09 127.72C86.39 131.48 85.71 134.39 85.22 136.99C84.53 135.14 83.46 133.37 82.33 131.79L82.32 131.8ZM75.06 150.1C71.37 149.22 67.41 145.59 65.49 142.12C63.2 137.99 65.78 134.66 70.6 133.07C72.25 132.53 73.75 132.15 75.09 132.16C75.67 132.66 76.23 133.19 76.73 133.77C79.6 137.08 80.18 141.76 83.88 144.36C83.95 144.41 84.03 144.41 84.1 144.44C82.92 148.89 79.64 151.18 75.06 150.09V150.1Z" fill="white"/>
</g>
<defs>
<clipPath id="clip0_26_1205">
<rect width="169.83" height="170.93" fill="white"/>
</clipPath>
</defs>
</svg>
