<svg width="502" height="436" viewBox="0 0 502 436" fill="none" xmlns="http://www.w3.org/2000/svg">
<path d="M229.622 260.63C223.153 262.786 216.992 265.636 210.677 268.193C207.674 269.41 204.686 270.642 201.713 271.89C201.328 272.167 200.927 272.429 200.527 272.675C200.342 272.968 200.142 273.276 199.957 273.569C207.227 270.334 214.559 267.238 221.967 264.311C226.249 262.617 230.531 260.907 234.705 258.997C232.888 259.536 231.163 260.121 229.622 260.63Z" fill="white"/>
<path d="M327.291 149.708C327.029 149.323 326.829 148.892 326.674 148.46C326.597 148.507 326.521 148.537 326.443 148.584L312.766 146.72C312.181 146.658 311.611 146.612 311.056 146.566C310.887 146.581 310.702 146.596 310.517 146.596C304.094 146.596 297.024 145.857 290.848 147.906C287.767 148.922 281.283 150.555 280.651 154.19C280.42 155.5 279.82 156.409 279.019 156.979C279.019 157.194 279.034 157.41 279.019 157.641C278.726 162.277 277.679 166.883 277.016 171.473C276.447 175.37 276.092 179.483 275.199 183.319C274.367 186.923 272.919 190.374 271.949 193.947C270.979 197.521 269.823 200.632 267.297 203.405C266.512 204.268 265.634 204.73 264.756 204.884C264.602 205.115 264.463 205.346 264.309 205.577L263.339 207.179C263.216 207.117 263.077 207.04 262.954 206.979C261.552 208.149 259.581 208.658 257.501 207.641C256.053 206.933 255.53 205.562 254.313 204.807C254.621 204.992 250.755 204.314 251.279 204.437C247.782 203.621 244.301 202.835 240.774 202.188C233.103 200.756 225.479 199.416 218.178 196.566C215.375 195.472 214.528 192.715 215.052 190.404C214.251 190.99 213.342 191.406 212.402 191.514C201.128 192.9 190.3 189.095 179.287 187.262C178.917 187.339 178.532 187.401 178.116 187.401C160.896 187.493 146.017 179.591 132.632 169.455C124.299 163.14 115.997 156.778 107.972 150.078C121.019 168.778 135.174 184.628 150.838 196.92C155.166 198.553 159.51 200.186 163.992 201.449C169.152 202.897 168.289 211.677 162.698 211.061C162.251 211.015 161.835 210.938 161.404 210.876C161.404 210.876 161.373 210.876 161.358 210.876C159.279 210.568 157.276 210.09 155.336 209.474C155.49 209.674 155.659 209.89 155.813 210.106C162.667 213.171 169.321 216.93 174.358 222.429C180.704 224.061 187.496 224.662 193.026 225.186C202.991 226.141 212.233 225.679 217.655 235.583C218.379 236.893 218.456 238.341 218.024 239.619C220.273 240.79 221.351 243.609 220.057 246.366C217.639 251.557 214.22 256.656 208.398 258.273C208.336 258.288 208.29 258.304 208.228 258.319C208.182 258.473 208.151 258.627 208.09 258.766C209.122 258.335 210.169 257.903 211.201 257.472C223.415 252.281 241.714 242.838 254.652 250.664C257.994 252.681 257.609 257.025 254.652 259.12C252.418 260.691 250.108 262.124 247.736 263.449C247.751 263.864 247.736 264.296 247.644 264.758C243.654 285.291 234.921 304.361 228.837 324.278C228.513 325.34 228.205 326.403 227.897 327.466C233.596 321.905 239.665 316.714 245.657 311.492C252.511 305.516 261.891 298.507 263.231 288.911C263.816 284.752 268.237 284.567 270.825 286.754C271.518 285.768 272.195 284.767 272.842 283.751C275.045 282.703 277.217 281.132 279.219 279.222C301.799 255.115 309.886 240.097 309.963 224.816C309.963 224.554 309.978 224.277 309.963 224.015C307.529 183.889 290.648 172.613 327.275 149.77L327.291 149.708Z" fill="#CDE9FB"/>
<path d="M299.458 132.071C344.372 141.56 370.11 177.373 370.11 177.373C370.11 177.373 369.786 174.2 366.151 169.147C344.018 138.417 293.066 127.527 293.066 127.527C293.066 127.527 284.286 128.882 299.458 132.071Z" fill="url(#paint0_linear_4_49)"/>
<path d="M335.023 164.896C333.082 168.67 333.236 171.766 335.408 167.407C337.58 163.048 345.959 151.972 345.959 151.972C345.959 151.972 336.963 161.122 335.023 164.896Z" fill="url(#paint1_linear_4_49)"/>
<path d="M366.198 159.659C370.033 162.647 368.831 159.797 365.458 157.225C362.085 154.653 350.025 150.278 350.025 150.278C350.025 150.278 362.347 156.671 366.198 159.674" fill="url(#paint2_linear_4_49)"/>
<path d="M327.66 175.879C327.66 178.883 330.094 181.316 333.097 181.316C336.101 181.316 338.535 178.883 338.535 175.879C338.535 172.875 336.101 170.441 333.097 170.441C330.094 170.441 327.66 172.875 327.66 175.879Z" fill="url(#paint3_linear_4_49)"/>
<path d="M339.659 171.566C339.659 174.57 342.093 177.003 345.096 177.003C348.1 177.003 350.533 174.57 350.533 171.566C350.533 168.562 348.1 166.128 345.096 166.128C342.093 166.128 339.659 168.562 339.659 171.566Z" fill="url(#paint4_linear_4_49)"/>
<path d="M352.181 176.002C352.181 179.006 354.615 181.44 357.618 181.44C360.622 181.44 363.055 179.006 363.055 176.002C363.055 172.998 360.622 170.565 357.618 170.565C354.615 170.565 352.181 172.998 352.181 176.002Z" fill="url(#paint5_linear_4_49)"/>
<path d="M351.473 187.74C351.473 189.881 353.213 191.606 355.339 191.606C357.464 191.606 359.205 189.865 359.205 187.74C359.205 185.614 357.464 183.873 355.339 183.873C353.213 183.873 351.473 185.599 351.473 187.74Z" fill="url(#paint6_linear_4_49)"/>
<path d="M329.401 187.154C329.401 189.295 331.141 191.021 333.267 191.021C335.392 191.021 337.133 189.28 337.133 187.154C337.133 185.029 335.392 183.288 333.267 183.288C331.141 183.288 329.401 185.029 329.401 187.154Z" fill="url(#paint7_linear_4_49)"/>
<path d="M335.993 195.087C335.993 197.228 337.718 198.954 339.859 198.954C342 198.954 343.725 197.213 343.725 195.087C343.725 192.961 341.985 191.221 339.859 191.221C337.734 191.221 335.993 192.946 335.993 195.087Z" fill="url(#paint8_linear_4_49)"/>
<path d="M345.081 195.087C345.081 197.228 346.821 198.954 348.947 198.954C351.072 198.954 352.813 197.213 352.813 195.087C352.813 192.961 351.072 191.221 348.947 191.221C346.821 191.221 345.081 192.946 345.081 195.087Z" fill="url(#paint9_linear_4_49)"/>
<path d="M362.516 186.338C362.516 189.141 364.796 191.421 367.599 191.421C370.403 191.421 372.682 189.141 372.682 186.338C372.682 183.534 370.403 181.255 367.599 181.255C364.796 181.255 362.516 183.534 362.516 186.338Z" fill="url(#paint10_linear_4_49)"/>
<path d="M371.219 176.895C371.219 179.037 372.959 180.762 375.085 180.762C377.21 180.762 378.951 179.021 378.951 176.895C378.951 174.77 377.21 173.029 375.085 173.029C372.959 173.029 371.219 174.77 371.219 176.895Z" fill="url(#paint11_linear_4_49)"/>
<path d="M378.381 183.211C378.381 185.106 379.906 186.631 381.801 186.631C383.695 186.631 385.22 185.106 385.22 183.211C385.22 181.316 383.695 179.791 381.801 179.791C379.906 179.791 378.381 181.316 378.381 183.211Z" fill="url(#paint12_linear_4_49)"/>
<path d="M379.937 163.725C379.937 165.866 381.677 167.592 383.803 167.592C385.928 167.592 387.669 165.866 387.669 163.725C387.669 161.584 385.928 159.859 383.803 159.859C381.677 159.859 379.937 161.6 379.937 163.725Z" fill="url(#paint13_linear_4_49)"/>
<path d="M380.322 173.507C380.322 175.648 382.062 177.373 384.188 177.373C386.313 177.373 388.054 175.632 388.054 173.507C388.054 171.381 386.313 169.64 384.188 169.64C382.062 169.64 380.322 171.381 380.322 173.507Z" fill="url(#paint14_linear_4_49)"/>
<path d="M338.889 184.151C338.889 187.231 341.322 189.727 344.326 189.727C347.329 189.727 349.763 187.231 349.763 184.151C349.763 181.07 347.329 178.574 344.326 178.574C341.322 178.574 338.889 181.07 338.889 184.151Z" fill="url(#paint15_linear_4_49)"/>
<path d="M368 166.837C368 169.841 370.433 172.274 373.437 172.274C376.44 172.274 378.874 169.841 378.874 166.837C378.874 163.833 376.44 161.399 373.437 161.399C370.433 161.399 368 163.833 368 166.837Z" fill="url(#paint16_linear_4_49)"/>
<path d="M330.941 131.886C334.484 128.944 335.315 124.061 338.119 120.549C340.86 114.418 345.158 109.073 347.761 102.866C348.5 101.633 349.039 99.6462 346.96 99.0146C344.911 98.4293 343.925 100.771 343.433 102.388C339.228 111.076 334.514 122.028 330.879 130.869C330.879 131.131 330.91 131.64 330.926 131.901" fill="url(#paint17_radial_4_49)"/>
<path d="M321.807 131.886C325.196 127.126 333.667 96.4885 337.472 87.3849C337.811 85.0435 339.875 82.5944 338.535 80.2222C337.472 79.2518 335.223 78.6049 334.653 80.7768C331.018 95.6259 326.659 115.99 321.961 130.207C321.853 130.762 321.515 131.362 321.823 131.901" fill="url(#paint18_radial_4_49)"/>
<path d="M340.321 131.809C343.648 129.283 355.939 110.213 360.468 104.822C361.207 103.297 363.117 102.065 362.717 100.17C362.208 99.2919 360.807 98.3523 359.96 99.7232C354.322 109.073 347.021 122.012 340.783 130.7C340.599 131.054 340.229 131.393 340.321 131.824" fill="url(#paint19_radial_4_49)"/>
<path d="M262.831 183.18C262.954 183.103 263.2 182.965 263.308 182.887C262.184 182.364 260.921 182.441 259.719 182.641C253.173 182.164 246.504 183.026 239.958 182.626C238.433 182.826 237.955 184.875 239.188 185.737C241.975 185.922 244.671 184.952 247.443 184.998C252.542 184.135 257.763 184.32 262.815 183.18" fill="url(#paint20_radial_4_49)"/>
<path d="M312.581 128.836C314.584 117.884 322.824 59.0576 322.316 57.702C321.314 57.1475 320.159 57.0859 319.05 57.1013C316.278 59.0883 310.794 125.848 312.581 128.836Z" fill="url(#paint21_radial_4_49)"/>
<path d="M303.293 126.002C303.74 119.009 303.678 107.44 303.494 100.416C303.17 97.3665 303.74 94.2395 303.386 91.2666C302.893 90.5118 302.677 89.3565 301.614 89.2179C299.766 88.8944 297.579 90.7583 298.596 92.7608C299.55 102.249 302.508 115.343 302.477 124.277C302.354 124.985 302.831 125.524 303.309 125.986" fill="url(#paint22_radial_4_49)"/>
<path d="M261.475 175.571C262.445 175.478 260.859 174.785 260.52 174.801C237.955 170.703 215.76 168.47 192.98 164.988C191.917 165.358 189.93 166.036 190.484 167.407C190.669 168.177 190.885 169.24 191.871 169.301C199.233 170.364 206.703 170.518 214.097 171.427C223.985 171.658 250.739 174.215 261.475 175.571Z" fill="url(#paint23_radial_4_49)"/>
<path d="M264.617 168.146L265.002 168.023C257.948 163.263 225.202 153.744 215.622 150.879C213.28 150.047 211.417 154.129 213.881 155.038C229.176 159.32 249.168 165.528 264.633 168.131" fill="url(#paint24_radial_4_49)"/>
<path d="M293.297 124.23C293.374 122.752 292.696 121.319 292.373 119.887C288.183 106.917 286.566 88.4477 283.532 73.8605C283.039 72.8592 282.623 71.0878 281.191 71.3035C279.45 71.0878 278.218 72.7668 278.326 74.3688C281.622 85.0898 284.394 96.0417 287.844 106.732C289.215 112.385 290.802 117.992 292.681 123.491C292.835 123.676 293.143 124.046 293.282 124.23" fill="url(#paint25_radial_4_49)"/>
<path d="M267.436 160.922L267.806 160.983L266.158 159.227C256.901 154.021 247.613 148.815 238.402 143.47C237.478 142.977 236.369 143.3 235.46 143.685C234.844 145.025 234.166 147.12 236.353 147.721C243.793 150.755 251.202 153.852 258.395 157.394C261.429 158.488 264.248 160.29 267.436 160.922Z" fill="url(#paint26_radial_4_49)"/>
<path d="M289.046 138.895C284.872 128.466 280.559 117.915 276.416 107.394C273.042 98.6758 269.793 89.9265 266.158 81.3159C264.54 78.5432 264.663 74.8771 261.845 72.8131C259.765 72.2431 257.748 74.7077 258.949 76.5561C268.037 96.3498 277.694 115.805 286.843 135.537C287.398 136.738 287.952 138.047 289.03 138.895" fill="url(#paint27_radial_4_49)"/>
<path d="M282.592 144.224C282.746 144.07 283.054 143.762 283.224 143.608C280.143 140.173 278.495 135.768 275.954 131.963C273.489 127.989 271.903 123.568 269.177 119.748C267.867 117.823 266.897 115.681 265.711 113.679C263.955 112.246 261.059 113.617 261.367 115.851C265.064 121.75 269.469 127.25 273.982 132.564C276.708 136.553 279.558 140.45 282.608 144.194" fill="url(#paint28_radial_4_49)"/>
<path d="M276.616 148.645C271.148 141.76 246.119 112.554 242.253 108.919C240.558 107.856 238.233 109.397 238.71 111.368C246.997 121.396 266.758 139.819 276.6 148.63" fill="url(#paint29_radial_4_49)"/>
<path d="M270.239 153.189H270.609C259.827 143.454 247.782 135.229 236.538 126.033C230.67 122.428 226.018 117.129 220.211 113.402C218.24 112.123 216.653 109.612 214.004 109.859C211.909 110.444 211.925 113.617 213.943 114.31C221.197 119.409 228.606 124.307 235.768 129.545C245.503 136.23 260.212 148.353 270.239 153.189Z" fill="url(#paint30_radial_4_49)"/>
<path d="M355.955 136.476C355.924 136.368 355.847 136.137 355.816 136.014C358.204 135.182 360.16 133.519 362.393 132.379C364.627 131.131 366.567 129.437 368.893 128.343C370.033 127.773 371.065 127.003 372.174 126.372C373.391 126.156 374.423 127.588 373.683 128.574C370.341 130.407 366.768 131.871 363.194 133.226C360.822 134.412 358.419 135.521 355.97 136.507" fill="url(#paint31_radial_4_49)"/>
<path d="M351.719 130.623C351.673 130.546 351.581 130.376 351.534 130.299C353.213 129.237 354.43 127.604 355.924 126.325C357.418 124.97 358.604 123.322 360.191 122.058C360.961 121.412 361.623 120.641 362.347 119.948C363.24 119.563 364.288 120.472 363.887 121.365C361.654 123.368 359.174 125.139 356.679 126.803C355.077 128.143 353.429 129.421 351.719 130.607" fill="url(#paint32_radial_4_49)"/>
<mask id="mask0_4_49" style="mask-type:luminance" maskUnits="userSpaceOnUse" x="107" y="185" width="158" height="53">
<path d="M264.078 222.583C247.351 200.648 151.654 221.304 107.541 185.183C153.333 232.98 202.76 254.114 264.078 222.583Z" fill="white"/>
</mask>
<g mask="url(#mask0_4_49)">
<path d="M110.003 165.713L98.9747 253.02L261.628 273.569L272.656 186.262L110.003 165.713Z" fill="url(#paint33_linear_4_49)"/>
</g>
<mask id="mask1_4_49" style="mask-type:luminance" maskUnits="userSpaceOnUse" x="95" y="131" width="183" height="96">
<path d="M277.14 220.18C262.584 188.725 139.532 188.109 95.2191 131.809C138.423 202.897 193.334 242.222 277.14 220.18Z" fill="white"/>
</mask>
<g mask="url(#mask1_4_49)">
<path d="M135.85 56.0334L49.2426 217.566L236.515 317.987L323.122 156.455L135.85 56.0334Z" fill="url(#paint34_linear_4_49)"/>
</g>
<path d="M262.215 223.522C262.831 223.214 263.447 222.906 264.078 222.583C252.773 207.764 205.394 212.385 162.251 205.793C190.253 223.645 222.907 230.716 262.215 223.507" fill="#CDE9FB"/>
<path d="M257.347 231.255C221.166 231.856 220.52 232.687 186.942 246.181C207.011 252.004 247.551 255.192 257.347 231.255Z" fill="#85D3FF"/>
<mask id="mask2_4_49" style="mask-type:luminance" maskUnits="userSpaceOnUse" x="226" y="241" width="44" height="90">
<path d="M226.296 330.809C250.755 291.329 263.632 289.28 269.685 241.637C239.727 248.538 224.339 298.985 226.296 330.809Z" fill="white"/>
</mask>
<g mask="url(#mask2_4_49)">
<path d="M233.13 223.711L189.125 313.542L260.927 348.72L304.932 258.889L233.13 223.711Z" fill="url(#paint35_linear_4_49)"/>
</g>
<mask id="mask3_4_49" style="mask-type:luminance" maskUnits="userSpaceOnUse" x="208" y="249" width="78" height="136">
<path d="M208.013 384.152C220.042 318.763 279.234 305.439 285.596 249.647C230.454 289.45 218.255 319.056 208.013 384.152Z" fill="white"/>
</mask>
<g mask="url(#mask3_4_49)">
<path d="M225.313 217.342L151.981 354.113L268.246 416.457L341.577 279.686L225.313 217.342Z" fill="url(#paint36_linear_4_49)"/>
</g>
<mask id="mask4_4_49" style="mask-type:luminance" maskUnits="userSpaceOnUse" x="279" y="137" width="72" height="143">
<path d="M300.244 189.85C300.459 198.584 303.247 209.644 303.478 223.43C303.879 247.121 293.59 257.179 279.265 279.853C301.969 255.623 310.086 240.528 310.163 225.155C310.163 224.878 310.163 224.616 310.163 224.354C307.313 177.373 284.748 169.733 350.456 137.231C304.202 157.733 299.627 165.558 300.244 189.85Z" fill="white"/>
</mask>
<g mask="url(#mask4_4_49)">
<path d="M295.164 107.576L219.875 247.999L334.565 309.499L409.854 169.076L295.164 107.576Z" fill="url(#paint37_linear_4_49)"/>
</g>
<mask id="mask5_4_49" style="mask-type:luminance" maskUnits="userSpaceOnUse" x="290" y="150" width="14" height="13">
<path d="M290.771 156.593C290.771 160.028 293.559 162.801 296.994 162.801C300.428 162.801 303.216 160.013 303.216 156.593C303.216 153.174 300.428 150.386 296.994 150.386C293.559 150.386 290.771 153.174 290.771 156.593Z" fill="white"/>
</mask>
<g mask="url(#mask5_4_49)">
<path d="M293.534 145.195L285.585 160.019L300.422 167.975L308.37 153.151L293.534 145.195Z" fill="url(#paint38_linear_4_49)"/>
</g>
<path d="M295.715 152.989C297.117 152.989 298.241 154.113 298.241 155.515C298.241 156.917 297.117 158.041 295.715 158.041C294.314 158.041 293.189 156.917 293.189 155.515C293.189 154.113 294.314 152.989 295.715 152.989Z" fill="#CDE9FB"/>
<mask id="mask6_4_49" style="mask-type:luminance" maskUnits="userSpaceOnUse" x="264" y="146" width="49" height="60">
<path d="M273.443 174.862C272.396 184.613 271.194 195.688 264.278 205.885L267.621 205.331C274.552 195.118 275.738 184.043 276.801 174.277C278.634 157.333 280.02 144.455 309.855 147.382L312.997 146.72C309.131 146.335 305.65 146.165 302.539 146.165C276.57 146.165 275.199 158.812 273.458 174.878" fill="white"/>
</mask>
<g mask="url(#mask6_4_49)">
<path d="M275.148 124.163L238.69 192.161L302.096 226.161L338.554 158.163L275.148 124.163Z" fill="url(#paint39_linear_4_49)"/>
</g>
<path d="M260.551 231.332C210.847 247.983 210.308 249.416 169.845 282.734C200.126 281.995 257.501 268.686 260.551 231.332Z" fill="#CDE9FB"/>
<path d="M212.664 250.248C230.593 250.987 249.738 247.244 256.747 232.61C235.044 239.927 223.23 244.271 212.664 250.248Z" fill="#85D3FF"/>
<path d="M265.141 265.62C257.948 291.622 245.811 299.293 226.296 330.793C225.972 325.51 226.126 319.687 226.758 313.664C235.121 296.181 246.966 281.24 265.141 265.62Z" fill="#85D3FF"/>
<path d="M63.7207 104.96C65.4766 104.93 67.1555 105.53 68.742 106.747C71.0831 108.565 72.223 110.875 72.146 113.694C72.069 116.513 70.7289 119.594 68.1413 122.952L57.9293 136.184L31.4368 115.728L41.0942 103.22C43.4971 100.093 45.9769 98.1212 48.5029 97.3049C51.0289 96.4885 53.401 96.9198 55.5881 98.6142C56.8974 99.6308 57.7907 100.848 58.2836 102.28C58.7611 103.713 58.8381 105.253 58.4838 106.901C60.2243 105.638 61.9802 104.991 63.7361 104.945L63.7207 104.96ZM47.1629 118.038L51.6296 112.246C52.677 110.891 53.2007 109.659 53.1853 108.55C53.1853 107.44 52.6462 106.47 51.5834 105.654C50.5515 104.853 49.4887 104.591 48.3797 104.868C47.2861 105.145 46.2233 105.946 45.1914 107.271L40.7246 113.063L47.1629 118.023V118.038ZM63.3819 112.678C61.1793 110.983 58.9613 111.599 56.7125 114.511L51.4448 121.335L58.1449 126.51L63.4127 119.686C65.6614 116.775 65.6615 114.434 63.3819 112.678Z" fill="white"/>
<path d="M83.5901 103.466C80.525 104.236 77.5061 104.175 74.5642 103.281C71.6223 102.388 69.0346 100.724 66.8166 98.2445C64.5987 95.7799 63.2124 93.038 62.6425 90.0035C62.0726 86.9844 62.3345 83.9807 63.4281 81.0078C64.5217 78.0349 66.3546 75.3855 68.9576 73.0595C71.1448 71.0878 73.4706 69.7015 75.9042 68.8697C78.3532 68.0379 80.8176 67.7915 83.2975 68.1457L82.6198 74.9233C79.1696 74.5074 76.1814 75.4471 73.6554 77.7114C72.0997 79.1131 71.0062 80.6997 70.3901 82.4865C69.7739 84.258 69.6661 86.0602 70.0666 87.8932C70.4671 89.7109 71.3604 91.4053 72.7467 92.9456C74.1329 94.486 75.704 95.5488 77.4753 96.1496C79.2466 96.7503 81.0487 96.8273 82.8816 96.396C84.7145 95.9647 86.4088 95.0559 87.9799 93.6542C90.5059 91.3898 91.7381 88.5094 91.6765 84.9973L98.4999 85.0435C98.5923 87.5697 98.0994 90.0189 97.0058 92.3757C95.9122 94.7325 94.2641 96.889 92.0769 98.8606C89.5047 101.171 86.686 102.712 83.6209 103.482L83.5901 103.466Z" fill="white"/>
<path d="M124.099 67.468L127.488 72.6898L105.446 86.9998L87.2251 58.919L108.727 44.9633L112.116 50.1851L97.1598 59.8894L101.118 65.9893L114.334 57.4094L117.615 62.4618L104.399 71.0416L108.619 77.542L124.114 67.4834L124.099 67.468Z" fill="white"/>
<path d="M139.194 31.7469C141.612 31.7161 143.753 32.2861 145.601 33.4259C147.449 34.5812 148.897 36.2756 149.929 38.54C150.961 40.7735 151.315 42.9608 150.992 45.1327C150.669 47.3046 149.714 49.2917 148.112 51.0939C146.51 52.9115 144.338 54.4365 141.612 55.6996L135.405 58.5647L139.271 66.9443L132.139 70.2253L118.138 39.8184L131.477 33.6724C134.203 32.4093 136.775 31.7778 139.209 31.7469H139.194ZM142.829 46.519C143.522 45.0865 143.491 43.5461 142.705 41.8671C141.92 40.1573 140.749 39.1099 139.224 38.7094C137.684 38.3089 135.851 38.6016 133.71 39.5874L127.903 42.2677L132.771 52.8191L138.577 50.1389C140.718 49.1531 142.136 47.9516 142.829 46.519Z" fill="white"/>
<path d="M169.029 52.9115C165.902 52.2492 163.191 50.8783 160.927 48.7988C158.663 46.7193 157.076 44.1006 156.167 40.9429C155.259 37.7851 155.212 34.7198 156.013 31.7623C156.83 28.7894 158.37 26.2016 160.68 23.9681C162.975 21.75 165.825 20.148 169.213 19.1622C172.602 18.1917 175.852 18.0223 178.963 18.6847C182.075 19.347 184.785 20.7179 187.065 22.7974C189.345 24.8769 190.946 27.4955 191.855 30.6533C192.764 33.811 192.81 36.8763 191.978 39.8492C191.162 42.8222 189.606 45.4254 187.311 47.6435C185.032 49.8616 182.182 51.4636 178.809 52.434C175.421 53.4044 172.171 53.5739 169.029 52.9115ZM181.813 43.2689C183.107 41.9441 183.984 40.373 184.416 38.5553C184.847 36.7377 184.785 34.8276 184.2 32.8406C183.63 30.8535 182.675 29.2053 181.335 27.896C179.995 26.5867 178.424 25.7241 176.622 25.2928C174.82 24.8615 172.956 24.9385 171.031 25.493C169.106 26.0476 167.488 26.9872 166.194 28.3119C164.885 29.6366 164.023 31.2078 163.591 33.0254C163.16 34.8431 163.222 36.7531 163.807 38.7402C164.377 40.7273 165.332 42.3754 166.672 43.6847C168.012 44.994 169.583 45.8567 171.385 46.288C173.187 46.7193 175.051 46.6422 176.976 46.0877C178.902 45.5332 180.519 44.5936 181.813 43.2689Z" fill="white"/>
<path d="M207.812 43.5307C204.84 42.437 202.375 40.7119 200.434 38.3243C198.494 35.9367 197.292 33.1024 196.846 29.8215C196.384 26.5405 196.784 23.4906 198.001 20.6563C199.233 17.8375 201.128 15.4961 203.684 13.6476C206.241 11.7992 209.26 10.6285 212.726 10.151C215.637 9.75054 218.348 9.88917 220.828 10.5823C223.323 11.2755 225.495 12.4462 227.358 14.1252L222.984 19.3624C220.35 17.0826 217.362 16.1739 214.004 16.6514C211.925 16.944 210.123 17.6372 208.613 18.7771C207.104 19.917 206.01 21.3341 205.317 23.0747C204.624 24.8153 204.424 26.7099 204.701 28.7586C204.978 30.8073 205.687 32.5787 206.827 34.0575C207.966 35.5362 209.414 36.6145 211.17 37.2922C212.926 37.97 214.851 38.1549 216.931 37.8776C220.288 37.4155 222.922 35.7211 224.832 32.779L230.454 36.6299C229.114 38.771 227.343 40.527 225.11 41.8517C222.876 43.1918 220.304 44.0544 217.393 44.4549C213.973 44.9324 210.77 44.6244 207.797 43.5307H207.812Z" fill="white"/>
<path d="M241.282 40.2035C238.464 38.7556 236.246 36.7377 234.613 34.1191C232.98 31.5159 232.133 28.543 232.102 25.2312C232.056 21.9194 232.811 18.9311 234.382 16.2817C235.953 13.6322 238.109 11.5527 240.897 10.0278C243.67 8.50282 246.812 7.73265 250.293 7.68644C253.235 7.64023 255.899 8.11776 258.287 9.1036C260.674 10.0894 262.692 11.5374 264.325 13.4166L259.35 18.0685C257.024 15.4807 254.159 14.2176 250.77 14.2638C248.676 14.2946 246.796 14.7721 245.164 15.6964C243.531 16.6206 242.268 17.9145 241.359 19.5473C240.466 21.1801 240.019 23.0439 240.05 25.108C240.081 27.1875 240.558 29.0205 241.498 30.6379C242.437 32.2552 243.747 33.5029 245.395 34.3809C247.058 35.2743 248.937 35.6903 251.032 35.6749C254.421 35.6287 257.255 34.2731 259.504 31.5929L264.602 36.1216C263.015 38.0932 261.028 39.6028 258.656 40.6502C256.284 41.6977 253.62 42.2522 250.678 42.283C247.228 42.3292 244.086 41.6361 241.267 40.1881L241.282 40.2035Z" fill="white"/>
<path d="M272.919 8.62603L280.667 9.5811L277.987 31.2232L296.732 11.5836L304.048 12.4924L299.936 45.7026L292.234 44.7476L294.914 23.1517L276.169 42.7451L268.807 41.8363L272.919 8.62603ZM280.282 3.05176e-05L285.627 0.662376C285.411 2.97292 286.597 4.29765 289.185 4.62112C290.463 4.77516 291.479 4.6211 292.234 4.11278C292.974 3.60446 293.436 2.78807 293.62 1.6636L298.965 2.32595C298.642 4.69811 297.625 6.40793 295.931 7.43997C294.237 8.48742 291.834 8.81092 288.722 8.42583C282.561 7.65564 279.758 4.85215 280.297 0.0154022L280.282 3.05176e-05Z" fill="white"/>
<path d="M316.108 14.8953L323.625 17.0056L317.741 38.0008L339.212 21.3803L346.313 23.3673L337.287 55.5918L329.817 53.4969L335.685 32.5479L314.229 49.1222L307.082 47.1198L316.108 14.8953Z" fill="white"/>
<path d="M350.857 59.4427C348.916 56.9473 347.745 54.1746 347.376 51.1093C346.991 48.0594 347.483 45.0095 348.839 41.9903C350.194 38.9712 352.15 36.5837 354.676 34.8431C357.218 33.1025 360.052 32.1166 363.21 31.9164C366.367 31.7161 369.54 32.3169 372.713 33.7494C375.393 34.9509 377.611 36.5067 379.367 38.4167C381.107 40.3268 382.34 42.4679 383.033 44.8862L376.548 47.0119C375.532 43.6848 373.468 41.328 370.372 39.9417C368.462 39.0791 366.567 38.7248 364.688 38.8788C362.809 39.0329 361.115 39.6644 359.621 40.7735C358.111 41.8826 356.941 43.3767 356.094 45.2713C355.246 47.166 354.907 49.0298 355.077 50.8936C355.246 52.7575 355.909 54.4365 357.033 55.946C358.157 57.4556 359.682 58.6263 361.608 59.4889C364.704 60.8752 367.83 60.8444 371.019 59.3657L373.745 65.6195C371.481 66.7286 369.032 67.2677 366.444 67.2215C363.841 67.1753 361.207 66.5438 358.527 65.3423C355.37 63.9251 352.828 61.9689 350.887 59.4735L350.857 59.4427Z" fill="white"/>
<path d="M393.245 68.346L388.685 65.4039L381.385 76.741L374.823 72.5204L392.937 44.3779L399.498 48.5985L392.182 59.9818L396.911 63.0317L411.728 56.4852L418.705 60.9676L400.623 68.5463L400.869 89.295L393.368 84.4736L393.245 68.3614V68.346Z" fill="white"/>
<path d="M425.328 66.1433L431.089 71.4113L416.379 87.4927L443.041 82.3325L448.479 87.3079L425.883 112L420.153 106.763L434.832 90.7121L408.201 95.8415L402.733 90.8354L425.328 66.1433Z" fill="white"/>
<path d="M451.143 134.659L446.168 138.386L430.38 117.376L457.135 97.274L472.537 117.776L467.562 121.504L456.842 107.24L451.035 111.599L460.493 124.2L455.672 127.819L446.214 115.219L440.023 119.871L451.112 134.643L451.143 134.659Z" fill="white"/>
<path d="M33.4391 227.373L-3.05176e-05 226.064L0.308041 218.27L27.4475 219.333L28.0482 204.021L0.908766 202.958L1.21679 195.164L34.6559 196.474L33.4391 227.373Z" fill="white"/>
<path d="M11.783 263.633L5.65277 264.696L1.17059 238.803L34.1476 233.103L38.522 258.365L32.3917 259.428L29.3574 241.853L22.1952 243.085L24.8753 258.612L18.9452 259.644L16.2652 244.117L8.62546 245.442L11.7676 263.633H11.783Z" fill="white"/>
<path d="M27.3089 305.146L15.0176 310.075L12.3067 303.329L18.745 300.741L9.82687 278.513L3.38858 281.101L0.677704 274.354L12.9844 269.471L13.4927 270.735C14.309 272.598 16.2036 273.384 19.1763 273.107C22.149 272.814 26.1383 271.767 31.1595 269.964L41.0172 266.421L50.7363 290.621L25.5376 300.741L27.3089 305.146ZM23.412 279.438C20.7165 279.961 18.5756 279.961 17.0045 279.438L22.6573 293.516L42.003 285.753L37.6749 274.955L33.1003 276.634C29.342 277.974 26.1229 278.898 23.4274 279.422L23.412 279.438Z" fill="white"/>
<path d="M45.4994 331.132L36.6274 318.116L29.0032 319.672L24.4748 313.017L60.6556 306.687L65.0299 313.095L45.8999 344.472L41.2637 337.663L45.4994 331.148V331.132ZM48.965 325.787L56.5277 314.127L42.9117 316.884L48.965 325.787Z" fill="white"/>
<path d="M87.6718 348.569L76.4895 336.939L56.9435 355.793L51.5372 350.171L75.6578 326.973L92.2618 344.241L87.6718 348.585V348.569Z" fill="white"/>
<path d="M77.5215 373.2C76.2122 370.288 75.7194 367.3 76.0736 364.235C76.4279 361.169 77.5985 358.35 79.6162 355.763C81.6339 353.175 84.0676 351.326 86.9479 350.233C89.8282 349.139 92.8317 348.862 95.9892 349.416C99.1467 349.971 102.104 351.326 104.892 353.483C107.68 355.639 109.713 358.181 111.022 361.092C112.316 364.004 112.809 366.992 112.47 370.057C112.131 373.123 110.961 375.957 108.943 378.545C106.925 381.132 104.476 382.981 101.596 384.059C98.7001 385.153 95.6966 385.415 92.5545 384.876C89.4123 384.336 86.455 382.981 83.6671 380.824C80.8792 378.668 78.8307 376.126 77.5215 373.215V373.2ZM92.8471 377.851C94.68 378.129 96.4513 377.898 98.1764 377.189C99.9015 376.465 101.396 375.294 102.674 373.662C103.937 372.029 104.707 370.288 104.984 368.44C105.262 366.591 105.031 364.805 104.307 363.11C103.583 361.416 102.443 359.937 100.856 358.705C99.27 357.472 97.5603 356.718 95.7274 356.456C93.8945 356.178 92.1077 356.41 90.398 357.118C88.6729 357.842 87.1789 359.013 85.9005 360.646C84.6375 362.278 83.8674 364.019 83.5901 365.867C83.3283 367.716 83.5439 369.487 84.2678 371.197C84.9917 372.907 86.1315 374.37 87.718 375.602C89.3045 376.835 91.0141 377.59 92.8471 377.851Z" fill="white"/>
<path d="M140.811 384.198L126.717 376.326L113.517 400.063L106.709 396.259L123.036 367.038L143.938 378.714L140.826 384.198H140.811Z" fill="white"/>
<path d="M146.571 380.085L153.857 382.904L146.002 403.237L168.967 388.742L175.836 391.391L163.776 422.614L156.537 419.811L164.377 399.524L141.427 413.988L134.511 411.308L146.571 380.085Z" fill="white"/>
<path d="M208.382 399.031L200.989 431.672L193.426 429.962L196.091 418.209C192.995 418.579 190.207 418.502 187.758 417.932C183.307 416.931 180.149 415.097 178.255 412.463C176.36 409.829 175.867 406.533 176.761 402.59L179.071 392.377L186.634 394.087L184.508 403.468C184 405.701 184.231 407.534 185.186 408.936C186.141 410.353 187.774 411.308 190.069 411.832C192.595 412.402 195.059 412.463 197.493 411.986L200.82 397.291L208.382 399.001V399.031Z" fill="white"/>
<path d="M238.664 429.515L238.094 435.708L211.94 433.289L215.021 399.956L240.558 402.312L239.988 408.505L222.229 406.857L221.567 414.096L237.247 415.544L236.692 421.536L221.012 420.088L220.304 427.805L238.695 429.5L238.664 429.515Z" fill="white"/>
<path d="M253.512 434.044C250.663 432.658 248.414 430.671 246.719 428.098C245.041 425.526 244.132 422.584 244.024 419.256C243.916 415.945 244.625 412.941 246.134 410.261C247.644 407.58 249.785 405.455 252.526 403.884C255.268 402.312 258.395 401.465 261.876 401.357C264.818 401.265 267.482 401.681 269.9 402.621C272.303 403.56 274.352 404.962 276.031 406.826L271.148 411.57C268.776 409.028 265.88 407.812 262.492 407.935C260.397 407.996 258.533 408.52 256.916 409.475C255.299 410.43 254.051 411.739 253.189 413.403C252.326 415.051 251.926 416.915 251.987 418.995C252.049 421.059 252.572 422.892 253.543 424.494C254.513 426.096 255.838 427.313 257.517 428.175C259.196 429.022 261.075 429.423 263.185 429.361C266.573 429.253 269.377 427.836 271.579 425.11L276.77 429.531C275.214 431.533 273.258 433.074 270.902 434.167C268.545 435.261 265.896 435.862 262.954 435.954C259.504 436.062 256.346 435.43 253.512 434.044Z" fill="white"/>
<path d="M295.469 418.502L290.109 419.395L292.327 432.688L284.625 433.967L279.127 400.957L286.828 399.678L289.046 413.033L294.591 412.109L301.168 397.291L309.346 395.935L301.045 413.696L315.169 428.884L306.374 430.347L295.453 418.502H295.469Z" fill="white"/>
<path d="M311.487 395.35L318.927 392.993L325.519 413.773L334.36 388.095L341.384 385.861L351.504 417.762L344.11 420.104L337.533 399.37L328.677 425.002L321.607 427.236L311.487 395.335V395.35Z" fill="white"/>
<path d="M382.894 396.228L385.62 401.819L361.993 413.311L347.345 383.212L370.403 371.998L373.129 377.59L357.095 385.399L360.268 391.93L374.438 385.045L377.072 390.467L362.901 397.352L366.29 404.315L382.894 396.228Z" fill="white"/>
<path d="M407.816 345.504L428.316 371.952L422.186 376.696L414.808 367.177C413.13 369.811 411.297 371.906 409.294 373.446C405.69 376.234 402.271 377.528 399.036 377.312C395.802 377.097 392.952 375.387 390.472 372.183L384.065 363.911L390.195 359.167L396.079 366.761C397.48 368.578 399.036 369.564 400.73 369.718C402.425 369.872 404.211 369.225 406.075 367.793C408.124 366.206 409.725 364.327 410.911 362.171L401.685 350.264L407.816 345.519V345.504Z" fill="white"/>
<path d="M434.816 326.511L427.361 334.413L447.123 353.036L441.809 358.674L422.048 340.051L414.639 347.922L410.049 343.594L430.226 322.183L434.816 326.511Z" fill="white"/>
<path d="M469.226 313.418L474.37 316.915L459.599 338.634L431.921 319.811L446.337 298.6L451.482 302.096L441.455 316.853L447.462 320.935L456.318 307.904L461.293 311.292L452.437 324.324L458.844 328.683L469.226 313.418Z" fill="white"/>
<path d="M460.878 266.144L491.667 279.253L488.587 286.477L475.957 281.101L469.919 295.288L482.549 300.664L479.469 307.888L448.679 294.78L451.759 287.555L463.897 292.715L469.934 278.529L457.797 273.368L460.878 266.144Z" fill="white"/>
<path d="M462.526 260.784L463.866 253.097L485.337 256.856L466.654 237.154L467.917 229.899L500.878 235.66L499.538 243.301L478.113 239.558L496.75 259.259L495.472 266.56L462.51 260.799L462.526 260.784Z" fill="white"/>
<path d="M466.761 197.197L500.201 195.626L500.57 203.374L491.683 203.79L492.022 210.953L501.186 216.544L501.571 224.832L491.159 218.239C490.343 220.58 489.034 222.398 487.232 223.707C485.429 225.016 483.227 225.74 480.608 225.864C478.036 225.987 475.787 225.494 473.862 224.385C471.937 223.276 470.427 221.658 469.318 219.502C468.209 217.361 467.593 214.788 467.455 211.831L466.761 197.213V197.197ZM475.526 216.36C476.604 217.484 478.144 218.008 480.146 217.915C482.087 217.823 483.55 217.191 484.552 216.005C485.553 214.819 485.999 213.14 485.892 210.938L485.568 204.067L473.431 204.637L473.739 211.323C473.847 213.556 474.432 215.235 475.51 216.36H475.526Z" fill="white"/>
<defs>
<linearGradient id="paint0_linear_4_49" x1="254.513" y1="233.088" x2="336.291" y2="146.694" gradientUnits="userSpaceOnUse">
<stop stop-color="#C1272D"/>
<stop offset="1" stop-color="#ED1C24"/>
</linearGradient>
<linearGradient id="paint1_linear_4_49" x1="263.478" y1="241.575" x2="345.256" y2="155.182" gradientUnits="userSpaceOnUse">
<stop stop-color="#C1272D"/>
<stop offset="1" stop-color="#ED1C24"/>
</linearGradient>
<linearGradient id="paint2_linear_4_49" x1="271.086" y1="248.784" x2="352.865" y2="162.375" gradientUnits="userSpaceOnUse">
<stop stop-color="#C1272D"/>
<stop offset="1" stop-color="#ED1C24"/>
</linearGradient>
<linearGradient id="paint3_linear_4_49" x1="267.405" y1="245.288" x2="349.183" y2="158.894" gradientUnits="userSpaceOnUse">
<stop stop-color="#C1272D"/>
<stop offset="1" stop-color="#ED1C24"/>
</linearGradient>
<linearGradient id="paint4_linear_4_49" x1="271.579" y1="249.247" x2="353.358" y2="162.838" gradientUnits="userSpaceOnUse">
<stop stop-color="#C1272D"/>
<stop offset="1" stop-color="#ED1C24"/>
</linearGradient>
<linearGradient id="paint5_linear_4_49" x1="280.405" y1="257.595" x2="362.183" y2="171.201" gradientUnits="userSpaceOnUse">
<stop stop-color="#C1272D"/>
<stop offset="1" stop-color="#ED1C24"/>
</linearGradient>
<linearGradient id="paint6_linear_4_49" x1="285.057" y1="262" x2="366.835" y2="175.607" gradientUnits="userSpaceOnUse">
<stop stop-color="#C1272D"/>
<stop offset="1" stop-color="#ED1C24"/>
</linearGradient>
<linearGradient id="paint7_linear_4_49" x1="273.135" y1="250.71" x2="354.913" y2="164.316" gradientUnits="userSpaceOnUse">
<stop stop-color="#C1272D"/>
<stop offset="1" stop-color="#ED1C24"/>
</linearGradient>
<linearGradient id="paint8_linear_4_49" x1="280.559" y1="257.749" x2="362.337" y2="171.34" gradientUnits="userSpaceOnUse">
<stop stop-color="#C1272D"/>
<stop offset="1" stop-color="#ED1C24"/>
</linearGradient>
<linearGradient id="paint9_linear_4_49" x1="285.364" y1="262.294" x2="367.143" y2="175.884" gradientUnits="userSpaceOnUse">
<stop stop-color="#C1272D"/>
<stop offset="1" stop-color="#ED1C24"/>
</linearGradient>
<linearGradient id="paint10_linear_4_49" x1="290.817" y1="267.454" x2="372.596" y2="181.06" gradientUnits="userSpaceOnUse">
<stop stop-color="#C1272D"/>
<stop offset="1" stop-color="#ED1C24"/>
</linearGradient>
<linearGradient id="paint11_linear_4_49" x1="290.063" y1="266.745" x2="371.841" y2="180.336" gradientUnits="userSpaceOnUse">
<stop stop-color="#C1272D"/>
<stop offset="1" stop-color="#ED1C24"/>
</linearGradient>
<linearGradient id="paint12_linear_4_49" x1="296.762" y1="273.076" x2="378.541" y2="186.667" gradientUnits="userSpaceOnUse">
<stop stop-color="#C1272D"/>
<stop offset="1" stop-color="#ED1C24"/>
</linearGradient>
<linearGradient id="paint13_linear_4_49" x1="288.09" y1="264.865" x2="369.869" y2="178.471" gradientUnits="userSpaceOnUse">
<stop stop-color="#C1272D"/>
<stop offset="1" stop-color="#ED1C24"/>
</linearGradient>
<linearGradient id="paint14_linear_4_49" x1="293.173" y1="269.687" x2="374.951" y2="183.277" gradientUnits="userSpaceOnUse">
<stop stop-color="#C1272D"/>
<stop offset="1" stop-color="#ED1C24"/>
</linearGradient>
<linearGradient id="paint15_linear_4_49" x1="277.463" y1="254.807" x2="359.241" y2="168.413" gradientUnits="userSpaceOnUse">
<stop stop-color="#C1272D"/>
<stop offset="1" stop-color="#ED1C24"/>
</linearGradient>
<linearGradient id="paint16_linear_4_49" x1="284.163" y1="261.169" x2="365.957" y2="174.76" gradientUnits="userSpaceOnUse">
<stop stop-color="#C1272D"/>
<stop offset="1" stop-color="#ED1C24"/>
</linearGradient>
<radialGradient id="paint17_radial_4_49" cx="0" cy="0" r="1" gradientUnits="userSpaceOnUse" gradientTransform="translate(301.091 166.945) scale(129.212 129.221)">
<stop stop-color="#C08940"/>
<stop offset="0.44" stop-color="#FFE09D"/>
<stop offset="0.67" stop-color="#C38D41"/>
<stop offset="1" stop-color="#986628"/>
</radialGradient>
<radialGradient id="paint18_radial_4_49" cx="0" cy="0" r="1" gradientUnits="userSpaceOnUse" gradientTransform="translate(300.952 168.377) scale(129.213 129.221)">
<stop stop-color="#C08940"/>
<stop offset="0.44" stop-color="#FFE09D"/>
<stop offset="0.67" stop-color="#C38D41"/>
<stop offset="1" stop-color="#986628"/>
</radialGradient>
<radialGradient id="paint19_radial_4_49" cx="0" cy="0" r="1" gradientUnits="userSpaceOnUse" gradientTransform="translate(299.658 171.273) scale(129.213 129.221)">
<stop stop-color="#C08940"/>
<stop offset="0.44" stop-color="#FFE09D"/>
<stop offset="0.67" stop-color="#C38D41"/>
<stop offset="1" stop-color="#986628"/>
</radialGradient>
<radialGradient id="paint20_radial_4_49" cx="0" cy="0" r="1" gradientUnits="userSpaceOnUse" gradientTransform="translate(299.658 171.273) scale(129.213 129.222)">
<stop stop-color="#C08940"/>
<stop offset="0.44" stop-color="#FFE09D"/>
<stop offset="0.67" stop-color="#C38D41"/>
<stop offset="1" stop-color="#986628"/>
</radialGradient>
<radialGradient id="paint21_radial_4_49" cx="0" cy="0" r="1" gradientUnits="userSpaceOnUse" gradientTransform="translate(299.997 164.234) scale(129.213 129.221)">
<stop stop-color="#C08940"/>
<stop offset="0.44" stop-color="#FFE09D"/>
<stop offset="0.67" stop-color="#C38D41"/>
<stop offset="1" stop-color="#986628"/>
</radialGradient>
<radialGradient id="paint22_radial_4_49" cx="0" cy="0" r="1" gradientUnits="userSpaceOnUse" gradientTransform="translate(298.503 160.29) scale(129.212 129.221)">
<stop stop-color="#C08940"/>
<stop offset="0.44" stop-color="#FFE09D"/>
<stop offset="0.67" stop-color="#C38D41"/>
<stop offset="1" stop-color="#986628"/>
</radialGradient>
<radialGradient id="paint23_radial_4_49" cx="0" cy="0" r="1" gradientUnits="userSpaceOnUse" gradientTransform="translate(299.658 171.273) scale(129.213 129.221)">
<stop stop-color="#C08940"/>
<stop offset="0.44" stop-color="#FFE09D"/>
<stop offset="0.67" stop-color="#C38D41"/>
<stop offset="1" stop-color="#986628"/>
</radialGradient>
<radialGradient id="paint24_radial_4_49" cx="0" cy="0" r="1" gradientUnits="userSpaceOnUse" gradientTransform="translate(299.658 171.273) scale(129.213 129.221)">
<stop stop-color="#C08940"/>
<stop offset="0.44" stop-color="#FFE09D"/>
<stop offset="0.67" stop-color="#C38D41"/>
<stop offset="1" stop-color="#986628"/>
</radialGradient>
<radialGradient id="paint25_radial_4_49" cx="0" cy="0" r="1" gradientUnits="userSpaceOnUse" gradientTransform="translate(296.069 157.718) scale(129.212 129.221)">
<stop stop-color="#C08940"/>
<stop offset="0.44" stop-color="#FFE09D"/>
<stop offset="0.67" stop-color="#C38D41"/>
<stop offset="1" stop-color="#986628"/>
</radialGradient>
<radialGradient id="paint26_radial_4_49" cx="0" cy="0" r="1" gradientUnits="userSpaceOnUse" gradientTransform="translate(299.658 171.273) scale(129.213 129.221)">
<stop stop-color="#C08940"/>
<stop offset="0.44" stop-color="#FFE09D"/>
<stop offset="0.67" stop-color="#C38D41"/>
<stop offset="1" stop-color="#986628"/>
</radialGradient>
<radialGradient id="paint27_radial_4_49" cx="0" cy="0" r="1" gradientUnits="userSpaceOnUse" gradientTransform="translate(299.658 171.273) scale(129.213 129.221)">
<stop stop-color="#C08940"/>
<stop offset="0.44" stop-color="#FFE09D"/>
<stop offset="0.67" stop-color="#C38D41"/>
<stop offset="1" stop-color="#986628"/>
</radialGradient>
<radialGradient id="paint28_radial_4_49" cx="0" cy="0" r="1" gradientUnits="userSpaceOnUse" gradientTransform="translate(299.658 171.273) scale(129.213 129.221)">
<stop stop-color="#C08940"/>
<stop offset="0.44" stop-color="#FFE09D"/>
<stop offset="0.67" stop-color="#C38D41"/>
<stop offset="1" stop-color="#986628"/>
</radialGradient>
<radialGradient id="paint29_radial_4_49" cx="0" cy="0" r="1" gradientUnits="userSpaceOnUse" gradientTransform="translate(299.658 171.273) scale(129.213 129.221)">
<stop stop-color="#C08940"/>
<stop offset="0.44" stop-color="#FFE09D"/>
<stop offset="0.67" stop-color="#C38D41"/>
<stop offset="1" stop-color="#986628"/>
</radialGradient>
<radialGradient id="paint30_radial_4_49" cx="0" cy="0" r="1" gradientUnits="userSpaceOnUse" gradientTransform="translate(299.705 171.273) scale(129.336 129.344)">
<stop stop-color="#C08940"/>
<stop offset="0.44" stop-color="#FFE09D"/>
<stop offset="0.67" stop-color="#C38D41"/>
<stop offset="1" stop-color="#986628"/>
</radialGradient>
<radialGradient id="paint31_radial_4_49" cx="0" cy="0" r="1" gradientUnits="userSpaceOnUse" gradientTransform="translate(299.658 171.273) scale(129.212 129.222)">
<stop stop-color="#C08940"/>
<stop offset="0.44" stop-color="#FFE09D"/>
<stop offset="0.67" stop-color="#C38D41"/>
<stop offset="1" stop-color="#986628"/>
</radialGradient>
<radialGradient id="paint32_radial_4_49" cx="0" cy="0" r="1" gradientUnits="userSpaceOnUse" gradientTransform="translate(299.658 171.273) scale(129.213 129.221)">
<stop stop-color="#C08940"/>
<stop offset="0.44" stop-color="#FFE09D"/>
<stop offset="0.67" stop-color="#C38D41"/>
<stop offset="1" stop-color="#986628"/>
</radialGradient>
<linearGradient id="paint33_linear_4_49" x1="290.059" y1="228.549" x2="166.831" y2="212.982" gradientUnits="userSpaceOnUse">
<stop stop-color="#C1272D"/>
<stop offset="1" stop-color="#ED1C24"/>
</linearGradient>
<linearGradient id="paint34_linear_4_49" x1="105.925" y1="334.855" x2="269.539" y2="29.7351" gradientUnits="userSpaceOnUse">
<stop stop-color="#5EDCE5"/>
<stop offset="1" stop-color="#2369DC"/>
</linearGradient>
<linearGradient id="paint35_linear_4_49" x1="292.022" y1="205.021" x2="247.6" y2="295.692" gradientUnits="userSpaceOnUse">
<stop stop-color="#C1272D"/>
<stop offset="1" stop-color="#ED1C24"/>
</linearGradient>
<linearGradient id="paint36_linear_4_49" x1="205.95" y1="388.621" x2="369.565" y2="83.5009" gradientUnits="userSpaceOnUse">
<stop stop-color="#5EDCE5"/>
<stop offset="1" stop-color="#2369DC"/>
</linearGradient>
<linearGradient id="paint37_linear_4_49" x1="215.582" y1="393.661" x2="379.197" y2="88.5408" gradientUnits="userSpaceOnUse">
<stop stop-color="#5EDCE5"/>
<stop offset="1" stop-color="#2369DC"/>
</linearGradient>
<linearGradient id="paint38_linear_4_49" x1="177.199" y1="373.399" x2="340.813" y2="68.2794" gradientUnits="userSpaceOnUse">
<stop stop-color="#5EDCE5"/>
<stop offset="1" stop-color="#2369DC"/>
</linearGradient>
<linearGradient id="paint39_linear_4_49" x1="182.227" y1="375.723" x2="345.841" y2="70.6033" gradientUnits="userSpaceOnUse">
<stop stop-color="#5EDCE5"/>
<stop offset="1" stop-color="#2369DC"/>
</linearGradient>
</defs>
</svg>
