<svg width="70" height="70" viewBox="0 0 70 70" fill="none" xmlns="http://www.w3.org/2000/svg">
<g clip-path="url(#clip0_15_1403)">
<path d="M40.4268 22.5735H40.4341C40.4341 22.5735 40.4194 22.5735 40.4121 22.5698C40.4176 22.5698 40.4213 22.5717 40.4268 22.5735Z" fill="#11114C"/>
<path d="M38.1996 21.8203C38.4084 21.9174 38.6191 22.0053 38.8315 22.0895L38.6685 22.0218C38.5128 21.954 38.3553 21.8917 38.1996 21.8221V21.8203Z" fill="#11114C"/>
<path d="M38.9102 22.1227C38.9414 22.1337 38.9707 22.1447 39.0018 22.1538C38.945 22.1318 38.8864 22.1117 38.8297 22.0879L38.9102 22.1209V22.1227Z" fill="#11114C"/>
<path d="M39.6593 22.3773L39.7582 22.403C39.6795 22.381 39.6007 22.3554 39.522 22.3315L39.6593 22.3773Z" fill="#11114C"/>
<path d="M39.7582 22.4028C39.9744 22.4651 40.1941 22.5219 40.4139 22.5695C40.3315 22.553 40.2527 22.5292 40.1722 22.5091L39.7582 22.4028Z" fill="#11114C"/>
<path d="M39.0037 22.1556C39.1758 22.2197 39.348 22.2784 39.522 22.3315L39.1593 22.2088C39.1062 22.1904 39.0549 22.1721 39.0018 22.1538L39.0037 22.1556Z" fill="#11114C"/>
<path d="M69.4322 33.989C69.2289 33.6868 69 33.3993 68.782 33.1081C64.022 26.7436 59.2582 20.3791 54.5091 14.0055C54.337 13.7747 54.1813 13.4304 54.2124 13.1648C54.9157 7.3315 51.5476 2.18681 45.8956 0.542124C45.0897 0.307692 44.2527 0.177656 43.4304 0H39.8663C39.6648 0.0421245 39.4615 0.0842491 39.2601 0.124542C39.4689 0.0860806 39.6721 0.0494505 39.8681 0.014652C41.5421 0.047619 42.7124 0.0805861 43.4304 0.115385C43.2326 0.122711 42.7509 0.126374 42.1154 0.131868C41.4817 0.135531 40.696 0.139194 39.8809 0.142857C39.5091 0.21978 39.1319 0.298535 38.7619 0.375458C38.3864 0.450549 38.0183 0.525641 37.6721 0.595238C36.978 0.736264 36.3718 0.871795 35.9524 0.979853C35.696 1.0348 35.4817 1.15385 35.348 1.33883C35.2124 1.52198 35.1685 1.75458 35.2069 1.97436C35.2436 2.19597 35.3535 2.3956 35.5238 2.52198C35.6905 2.65018 35.9102 2.70513 36.1264 2.6978C36.3388 2.6978 36.5696 2.60989 36.8022 2.55494C37.0348 2.49817 37.2674 2.44505 37.5018 2.3956C37.9688 2.29487 38.445 2.21062 38.9359 2.1337C39.9194 1.99084 40.978 1.89194 42.1978 1.93956C42.8077 1.96154 43.456 2.02564 44.1483 2.15385C44.3205 2.18864 44.4963 2.22527 44.6758 2.2619C44.8535 2.30586 45.033 2.35165 45.2179 2.39744C45.3993 2.45604 45.5824 2.51648 45.771 2.57692C45.8645 2.60806 45.9597 2.63919 46.0549 2.67033L46.1996 2.71795L46.3406 2.77839C47.2454 3.12088 48.3205 3.71612 49.3297 4.62637C50.3461 5.52747 51.2326 6.8022 51.7747 8.27472C52.9011 11.2253 52.3095 14.9286 50.5146 17.2399C50.3132 17.5458 50.0549 17.7949 49.8297 18.0586C49.7198 18.1941 49.5824 18.3004 49.4615 18.4176C49.337 18.533 49.2143 18.6447 49.0916 18.7564C48.8297 18.956 48.5769 19.1502 48.326 19.3278C48.0623 19.4853 47.8132 19.6447 47.5659 19.7839C46.5677 20.3297 45.6575 20.5476 45.0513 20.7051C44.4322 20.8114 44.1044 20.8736 44.1575 20.8718C44.185 20.8773 44.3077 20.8608 44.5384 20.8315C44.6996 20.8095 44.9176 20.7857 45.185 20.7326C45.3077 20.7051 45.4304 20.6795 45.5531 20.6465C45.4194 20.6831 45.2985 20.7106 45.185 20.7326C43.8645 21.0275 42.6044 21.0275 41.4872 20.8516C41.3333 20.8388 41.1831 20.8004 41.0366 20.7692C40.8883 20.7363 40.7436 20.7051 40.5989 20.674C40.3095 20.6172 40.033 20.5293 39.7674 20.4414C39.2344 20.2601 38.7472 20.033 38.304 19.7875C37.4157 19.293 36.7088 18.7051 36.1227 18.1337C36.0513 18.0623 35.9798 17.9908 35.9084 17.9194C35.8425 17.8553 35.7784 17.793 35.7088 17.7381C35.5714 17.6264 35.4286 17.5348 35.2802 17.4634C34.9817 17.3242 34.6685 17.2674 34.3681 17.2839C33.7674 17.3187 33.2234 17.5494 32.859 17.87C32.489 18.196 32.3022 18.6245 32.2472 19.0403C32.1483 19.9212 32.1007 20.6923 32.0952 21.456C32.0897 22.2216 32.1392 22.9908 32.2491 23.8956C32.3626 24.8004 32.5476 25.837 32.8754 27.1264C33.2015 28.4176 33.6813 29.9542 34.326 31.8736C34.9762 33.7912 35.7582 36.1026 36.7179 38.9377C37.0513 39.9084 37.4542 41.1135 37.8883 42.4634C38.1044 43.1392 38.3297 43.848 38.5549 44.5842C38.7839 45.3187 38.9963 46.0879 39.1648 46.8773C39.5073 48.456 39.6868 50.119 39.6557 51.7253C39.6337 53.3352 39.3809 54.8718 39.0879 56.2326C38.7857 57.5934 38.4157 58.7747 38.0952 59.6996C37.7747 60.6264 37.5 61.2949 37.3663 61.6355C37.2271 61.9743 37.2308 61.9872 37.4139 61.5769C37.5879 61.1648 37.956 60.3352 38.4231 58.945C38.3278 59.2656 38.2363 59.5458 38.141 59.8278C38.0494 60.1099 37.945 60.3919 37.8278 60.7161C37.5842 61.3608 37.2729 62.1758 36.6923 63.4432C36.3736 64.1209 36.0604 64.7271 35.7802 65.2674C35.6355 65.5366 35.5 65.7875 35.3736 66.0238C35.2417 66.2656 35.0971 66.4817 34.9524 66.6703C34.6648 67.0513 34.3645 67.3187 34.1172 67.5018C33.8663 67.6813 33.6685 67.7839 33.5549 67.8315C33.4414 67.8809 33.4139 67.8883 33.4798 67.8516C33.5439 67.815 33.7051 67.7399 33.9377 67.5769C34.1703 67.4157 34.4743 67.1648 34.7857 66.7747C34.9414 66.5787 35.0971 66.3498 35.2472 66.0842C35.3938 65.8187 35.5384 65.5311 35.7051 65.2143C35.6886 65.2363 35.5476 65.4945 35.3278 65.9066C35.1044 66.3205 34.7454 66.8919 34.1575 67.3681C33.8626 67.6007 33.5146 67.8095 33.1209 67.9341C32.9267 68.0018 32.7198 68.0421 32.5146 68.0732C32.3113 68.1007 32.108 68.1245 31.9047 68.1428C31.0879 68.2198 30.2729 68.2399 29.5494 68.2601C29.271 68.2692 28.9982 68.2802 28.7381 68.2894C28.3938 68.3058 28.0678 68.3205 27.7674 68.3333C28.0787 67.8352 28.3791 67.3516 28.6703 66.8846C28.9194 66.4798 29.1703 66.0897 29.3974 65.7015C29.8553 64.9267 30.2692 64.1722 30.6538 63.4231C31.4231 61.9212 32.0879 60.4341 32.7436 58.7729C32.9395 58.2839 33.1319 57.793 33.315 57.2985L33.3828 57.1135C33.4011 57.0568 33.4212 57 33.4377 56.9432C33.4689 56.8278 33.4945 56.7124 33.5091 56.5971C33.5384 56.3645 33.5275 56.1337 33.4725 55.9139C33.3608 55.478 33.0531 55.1044 32.6502 54.87C32.2564 54.6319 31.793 54.5879 31.3535 54.7289C31.1172 54.8004 30.9121 54.9066 30.7363 55.0165C30.6502 55.0696 30.5623 55.1337 30.4817 55.1905C30.4011 55.2472 30.3242 55.3004 30.2527 55.3498C29.9688 55.5476 29.7601 55.6813 29.6319 55.7692C29.3718 55.9414 29.4029 55.9102 29.6374 55.7399C29.7546 55.6557 29.9212 55.5366 30.1264 55.3901C30.2271 55.3168 30.337 55.2344 30.4542 55.1483C30.5751 55.0586 30.6941 54.9725 30.8242 54.8956C31.0842 54.7399 31.3956 54.6099 31.7326 54.5842C32.0659 54.5549 32.4194 54.6355 32.7271 54.8297C33.0384 55.022 33.3004 55.2967 33.4487 55.6172C33.5971 55.9396 33.63 56.2967 33.5861 56.6282C33.5604 56.793 33.5256 56.9524 33.4725 57.1007C33.4212 57.2527 33.3608 57.4066 33.3095 57.5458C33.2033 57.8278 33.1117 58.0733 33.0366 58.2711C32.8846 58.6648 32.8095 58.8681 32.8553 58.7729C32.9011 58.6776 33.0714 58.2894 33.3846 57.4908C33.4615 57.2875 33.5421 57.0952 33.5879 56.9103C33.6373 56.7216 33.6667 56.5348 33.6667 56.3516C33.6667 55.9872 33.5714 55.6465 33.3938 55.3755C33.2198 55.1026 32.9817 54.8901 32.7308 54.7418C32.4817 54.5897 32.2143 54.5146 31.9579 54.4963C31.4414 54.4689 30.9982 54.6703 30.6538 54.8938C30.3058 55.1337 30 55.3663 29.7234 55.5549C28.63 56.326 28.108 56.6667 27.6099 57.0018C27.108 57.3297 26.63 57.652 25.5531 58.2784C25.0165 58.5934 24.3223 58.9762 23.3956 59.4579C22.4652 59.9341 21.2967 60.5037 19.782 61.1355C19.196 61.3809 18.5678 61.6319 17.9029 61.8809C17.5696 62.0037 17.2308 62.1337 16.8809 62.2527C16.7069 62.3132 16.5293 62.3755 16.3516 62.4377C16.163 62.4963 15.967 62.5568 15.7619 62.5861C15.3553 62.6538 14.9157 62.6447 14.4963 62.5091C14.0751 62.3791 13.6941 62.0989 13.4249 61.7436C13.152 61.3883 12.9872 60.9634 12.9121 60.533C12.8736 60.3187 12.8553 60.0952 12.8498 59.8938C12.8443 59.6868 12.8278 59.4798 12.8333 59.2729C12.815 57.6099 13.0678 55.9304 13.5238 54.3755C13.7509 53.5971 14.0256 52.848 14.3278 52.1392C14.4798 51.7839 14.6355 51.4377 14.8004 51.1044C14.8809 50.9359 14.9615 50.7711 15.0476 50.6099C15.0897 50.5293 15.1319 50.4487 15.1721 50.3681L15.2344 50.2491C15.2582 50.2033 15.2875 50.1557 15.315 50.1135C15.5439 49.7692 15.8699 49.5458 16.1319 49.3535C16.4029 49.152 16.6721 48.9634 16.9322 48.7784C17.4542 48.4139 17.9505 48.0842 18.4084 47.7912C19.326 47.2088 20.0971 46.7766 20.6282 46.4927C21.1612 46.2106 21.4542 46.0769 21.4322 46.1007C21.4102 46.1264 21.0696 46.3113 20.3681 46.7234C21.304 46.1923 22.2564 45.7161 23.2234 45.2875C23.4652 45.1795 23.7088 45.0788 23.9524 44.9762C24.1941 44.8773 24.4487 44.7802 24.6758 44.6831C24.9029 44.5806 25.119 44.4542 25.2344 44.2766C25.3535 44.1026 25.3535 43.8608 25.3132 43.619C25.2747 43.3773 25.196 43.1282 25.1282 42.8736L24.9231 42.1154C24.7875 41.6099 24.6575 41.1026 24.5311 40.5916C24.2784 39.5714 24.0421 38.5439 23.826 37.5C23.3956 35.4139 23.0421 33.2674 22.8223 31.0183C22.6007 28.7729 22.4817 26.4249 22.5971 23.9469C22.6245 23.282 22.6392 22.9451 22.6502 22.6648C22.6612 22.3864 22.663 22.1703 22.7015 21.7454C22.7198 21.533 22.7399 21.2692 22.7857 20.9194C22.8077 20.7454 22.8333 20.5494 22.8626 20.3278C22.8974 20.1081 22.9377 19.8626 22.9817 19.5861C23.0275 19.3114 23.0916 19.0092 23.1538 18.6722C23.2253 18.337 23.3077 17.9689 23.4066 17.5641C23.608 16.7582 23.8791 15.8077 24.2839 14.7051C24.6447 13.782 24.9927 13.011 25.3443 12.348C25.5091 12.011 25.6923 11.7106 25.8516 11.4176C26.022 11.13 26.1868 10.8608 26.3498 10.6026C27.0165 9.57875 27.652 8.73809 28.522 7.78754C28.6319 7.67033 28.7436 7.54945 28.859 7.42491C28.9762 7.3022 29.1026 7.18315 29.2289 7.05678C29.4798 6.80036 29.7656 6.54945 30.0659 6.27472C30.2179 6.13919 30.3828 6.00732 30.5494 5.8663C30.7161 5.72527 30.8919 5.58059 31.0842 5.44139C31.4615 5.163 31.8938 4.89194 32.2985 4.5641C32.4817 4.4011 32.6227 4.17216 32.6337 3.91209C32.6502 3.65568 32.5311 3.38278 32.3205 3.19231C32.1154 2.99817 31.804 2.92125 31.5055 2.99817C31.2106 3.07509 30.9231 3.29304 30.6264 3.49634C30.0366 3.91941 29.4121 4.38645 28.7839 4.94139C28.1557 5.49634 27.5128 6.12637 26.8754 6.84982C27.152 6.51831 27.3846 6.28205 27.5439 6.0989C27.7124 5.92308 27.8187 5.81135 27.8773 5.74908C27.9908 5.62637 27.8974 5.71062 27.6776 5.91941C27.5659 6.02198 27.4304 6.163 27.2747 6.32784C27.1172 6.49084 26.9414 6.67582 26.7637 6.88278C26.674 6.98535 26.5824 7.08974 26.4872 7.19597C26.3974 7.30586 26.3058 7.41758 26.2143 7.5293C26.0293 7.75091 25.8516 7.98168 25.6868 8.20513C25.6026 8.31868 25.5201 8.42857 25.4432 8.53663C24.4084 10.011 23.5513 11.6245 22.8608 13.3608C22.1319 15.1923 21.5989 17.0458 21.2308 18.9157C21.2436 18.8553 21.2564 18.7967 21.2692 18.7363C21.6703 16.9451 22.4084 14.2802 23.7857 11.5513C23.4743 12.2527 23.2015 12.9707 22.9597 13.6978C22.5238 14.7601 22.0714 16.1282 21.6886 17.7051C21.3095 19.282 21.0091 21.0696 20.8718 22.9524C20.7308 24.8352 20.7362 26.8114 20.8626 28.7546C20.9341 29.7271 21.0201 30.6923 21.141 31.6337C21.2527 32.5788 21.3938 33.4982 21.5513 34.3846C21.8113 35.7436 21.5073 34.0989 21.3516 32.9799C21.2729 32.4212 21.2271 31.9927 21.2509 32.1447C21.2619 32.2216 21.2949 32.4414 21.3571 32.8608C21.4212 33.2802 21.5201 33.8993 21.6813 34.7711C21.815 35.5623 21.674 34.9982 21.9579 36.4707C22.6245 39.5769 22.8425 40.3022 23.2161 41.9542C23.2619 42.163 23.3132 42.3864 23.3663 42.6319C23.3901 42.7692 23.4194 42.9304 23.3663 43.1392C23.3388 43.2418 23.2784 43.3498 23.2033 43.4304C23.1264 43.5128 23.0421 43.5678 22.9615 43.6135C22.7912 43.7051 22.6575 43.7472 22.5091 43.8132C22.3626 43.8773 22.2088 43.945 22.0476 44.0183C21.7271 44.1667 21.3773 44.337 20.9945 44.5348C20.2326 44.9396 19.326 45.4194 18.2692 46.0678C17.2088 46.7106 15.9872 47.5055 14.6062 48.5366C13.3681 49.4396 12.1776 50.4084 11.033 51.4304C8.84248 53.4341 6.80585 55.6374 4.95786 57.9908C4.04028 59.174 3.17215 60.4011 2.31684 61.641L1.03662 63.5073L0.716103 63.9743C0.611708 64.1282 0.516469 64.2747 0.43222 64.4322C0.263722 64.7454 0.137349 65.0787 0.06592 65.4231C-0.0824317 66.1117 0.010975 66.8388 0.287532 67.4963C0.564089 68.1575 0.985334 68.7637 1.54577 69.1886C2.10621 69.6154 2.79852 69.8461 3.51464 69.9047C3.69413 69.9231 3.86995 69.9231 4.05676 69.9249H4.6227L5.75456 69.9212H6.3205L6.45969 69.9194C6.49999 69.9157 6.54028 69.9157 6.58057 69.9121C6.65933 69.9029 6.73808 69.8901 6.80951 69.8663C7.10621 69.782 7.315 69.5696 7.35896 69.293C7.37911 69.1557 7.36995 69 7.31684 68.8773C7.26922 68.7491 7.17947 68.6447 7.06409 68.5641C6.94687 68.4872 6.80585 68.4322 6.65017 68.4121C6.50548 68.3901 6.30768 68.3993 6.12086 68.3974C5.36262 68.3974 4.60621 68.3974 3.8498 68.3993C3.44504 68.3809 3.0183 68.2912 2.64467 68.0659C2.26922 67.8425 1.9835 67.4945 1.80035 67.1209C1.61171 66.7436 1.52929 66.2912 1.59339 65.8663C1.65383 65.4414 1.82599 65.0586 2.02746 64.7179C2.42306 64.0678 2.82782 63.4359 3.24724 62.8077C4.0879 61.5568 4.97434 60.3406 5.91024 59.1685C6.84431 57.9945 7.82599 56.8645 8.84431 55.7729C9.35896 55.2363 9.87178 54.7015 10.3846 54.1667L11.3809 53.13L11.467 53.0403L11.5091 52.9963C11.522 52.9853 11.5275 52.9872 11.5384 52.9835L11.6447 52.945L11.859 52.87L11.9121 52.8516C11.9304 52.848 11.9579 52.8809 11.9798 52.8938L12.119 52.9963C12.1465 53.0732 12.1483 53.152 12.1648 53.2289L12.1831 53.3461L12.1923 53.4048L12.1978 53.4341V53.4487C12.1978 53.4487 12.1941 53.4689 12.1923 53.478L12.0586 53.9542L11.9927 54.1923L11.9469 54.3681L11.8791 54.6319C11.793 54.9835 11.7143 55.3388 11.6447 55.6941C11.5091 56.4048 11.4084 57.1209 11.3571 57.8388C11.3022 58.5568 11.2949 59.2765 11.3297 59.9908C11.3699 60.6868 11.5201 61.3718 11.815 61.9872C12.108 62.6007 12.5439 63.1428 13.0952 63.522C13.6483 63.8993 14.304 64.1117 14.9743 64.1465C15.6465 64.185 16.3187 64.0476 16.9634 63.8095C17.63 63.5586 18.2912 63.3022 18.9487 63.0385C20.1538 62.533 22.0916 61.7088 24.3187 60.6044C25.4341 60.0586 26.5934 59.4084 27.7765 58.6905C28.3663 58.3278 28.967 57.9597 29.5696 57.5897C29.8718 57.4029 30.1758 57.2161 30.478 57.0293C31.0293 56.6978 31.5806 56.3663 32.13 56.0348C32.0421 56.3352 31.9414 56.6978 31.8315 56.9872C31.7216 57.293 31.6135 57.5971 31.5036 57.9011C31.3535 58.2656 31.2106 58.619 31.0586 58.9725C30.7582 59.6776 30.4469 60.3663 30.1264 61.0293C29.4927 62.359 28.8242 63.5842 28.1923 64.6648L28.0787 64.793C27.5659 65.674 26.9212 66.6868 26.1667 67.7491C26.0769 67.8791 25.9487 68.0513 25.7802 68.1831C25.6117 68.3205 25.3864 68.4121 25.1795 68.445C25.0751 68.4634 24.9743 68.4707 24.8773 68.4707C24.7912 68.4707 24.7051 68.4707 24.6172 68.4707C24.4469 68.4707 24.2765 68.4707 24.1044 68.4707C23.4157 68.4689 22.7088 68.467 21.9963 68.4634C19.1428 68.4542 16.1648 68.445 13.6502 68.4359L11.4194 68.4212C11.2601 68.4322 11.1392 68.4689 11.0165 68.5439C10.8993 68.6172 10.7985 68.7216 10.7344 68.8425C10.6703 68.9634 10.6373 69.0971 10.6538 69.2198C10.6685 69.3443 10.7289 69.4542 10.8205 69.5513C10.8754 69.608 10.9066 69.63 10.8956 69.6264C10.8883 69.6227 10.8406 69.5934 10.782 69.5366C10.7289 69.4762 10.6575 69.3864 10.6319 69.2509C10.6025 69.119 10.6282 68.9359 10.7399 68.7619C10.848 68.5897 11.0476 68.4396 11.2894 68.3919C11.4157 68.3663 11.5641 68.3663 11.7308 68.3681C11.8993 68.3718 12.0787 68.3681 12.2509 68.3681C12.9524 68.3681 13.7033 68.3645 14.4377 68.3626C17.3718 68.3553 20.0165 68.3443 17.9945 68.304C16.7875 68.3004 15.63 68.2949 14.5091 68.2912C13.9487 68.2912 13.3993 68.2912 12.8571 68.2912C12.5861 68.2912 12.3168 68.2912 12.0494 68.2912C11.7765 68.2967 11.5091 68.2692 11.2839 68.3095C11.174 68.3315 11.0678 68.37 10.9725 68.4249C10.8791 68.4835 10.793 68.5549 10.7234 68.641C10.6557 68.7289 10.6044 68.8242 10.5696 68.9267C10.5403 69.0293 10.5311 69.1355 10.5439 69.2363C10.5934 69.6502 11.0842 69.9011 11.5201 69.9743C11.5751 69.9817 11.63 69.989 11.685 69.989H11.8681H12.2417C12.4908 69.989 12.7381 69.989 12.9835 69.9872C13.4762 69.9872 13.9652 69.9835 14.4505 69.9817C18.3388 69.967 22.0531 69.9542 26.1813 69.9817C28.1886 69.9817 29.6374 69.9853 30.7582 69.9853C31.3223 69.9835 31.7912 69.9927 32.2015 69.9377C32.4084 69.9212 32.5989 69.8791 32.7802 69.8516C32.9579 69.8059 33.1319 69.7784 33.2912 69.7234C33.9359 69.5256 34.4707 69.2784 35.0403 68.8535C35.6007 68.4249 36.2234 67.8205 36.7894 66.7509C36.9304 66.4725 36.9487 66.4121 36.9084 66.4853C36.8681 66.5604 36.7582 66.7527 36.6392 66.9597C36.3938 67.3755 36.0348 67.8168 36.1703 67.6062C36.3333 67.3919 36.4743 67.1667 36.6062 66.9414C36.6685 66.826 36.7326 66.7124 36.7949 66.5989C36.8553 66.4798 36.9157 66.3608 36.9762 66.2436C37.2143 65.7729 37.4414 65.3132 37.6557 64.8663C38.0842 63.9707 38.467 63.1172 38.8113 62.3022C39.4963 60.674 40.0165 59.1996 40.4047 57.8352C41.1703 55.1044 41.4029 52.8187 41.304 50.619C41.1941 48.4121 40.8516 46.2784 40.2106 43.7747C39.5751 41.2692 38.5769 38.4103 37.3058 34.6593C37.0732 34.13 33.0403 22.1209 36.7161 33.3297L38.5421 38.6282C38.9359 39.8388 39.3205 41.0458 39.6667 42.2637C39.0604 40.1941 38.0476 37.2857 37.2729 34.9927C36.489 32.7015 35.9249 31.0293 36.0531 31.4725C35.7069 30.3461 35.0916 28.5037 34.4341 26.3315C34.119 25.2363 33.8626 24.0366 33.7472 22.8004C33.6886 22.1831 33.6648 21.5568 33.6813 20.9341C33.6886 20.6227 33.7069 20.3114 33.7344 20.0037L33.7564 19.7729C33.7564 19.7418 33.7692 19.6703 33.7802 19.6245C33.793 19.5733 33.8077 19.5256 33.8223 19.4817C33.8443 19.4139 33.9139 19.2656 33.9707 19.1447L34.1337 18.7491C34.315 18.837 34.5018 18.9359 34.6813 19.0055C34.7857 19.0513 34.826 19.0714 34.8883 19.1081C34.9487 19.1429 35.011 19.1868 35.0714 19.2418C35.2253 19.3791 35.3791 19.5165 35.5311 19.652C35.6795 19.7912 35.837 19.9139 35.9927 20.0348C36.1502 20.1538 36.2967 20.2839 36.456 20.3919C36.6135 20.5018 36.7692 20.6081 36.9231 20.7143C37.0751 20.8223 37.2381 20.9066 37.3919 21.0018C37.696 21.196 38.0128 21.337 38.304 21.489C39.5018 22.0513 40.5568 22.2546 41.1868 22.359C41.826 22.4304 42.0458 22.4597 41.6776 22.4304C41.5861 22.4231 41.456 22.4121 41.2875 22.3974C41.119 22.3864 40.9139 22.3407 40.6667 22.304C40.4176 22.2729 40.1355 22.1868 39.8058 22.1117C39.641 22.0696 39.4725 22.0073 39.2894 21.9505C39.1978 21.9194 39.1026 21.8919 39.0073 21.8571C38.9121 21.8187 38.815 21.7802 38.7161 21.7381C37.7747 21.3388 36.989 20.8443 36.315 20.348C35.989 20.0842 35.6703 19.8443 35.3956 19.5806C35.326 19.5165 35.2546 19.4542 35.1868 19.3919L35.0842 19.2985L35.0201 19.2418C34.9945 19.2198 34.9688 19.1996 34.9432 19.1831C34.8919 19.1483 34.8406 19.119 34.7912 19.0952C34.7729 19.0861 34.7362 19.0678 34.6978 19.0513L34.5879 19.0037C34.4432 18.9414 34.293 18.8626 34.152 18.793C34.0732 18.9835 33.9945 19.1777 33.9102 19.3516L33.8809 19.4176L33.8626 19.4634C33.8498 19.4945 33.8388 19.5256 33.8297 19.5604C33.8095 19.6227 33.7912 19.7125 33.7875 19.7711C33.7674 19.9908 33.7417 20.2051 33.7326 20.4157C33.7015 20.8352 33.6996 21.2381 33.7033 21.6264C33.7198 22.4029 33.7912 23.1227 33.9011 23.8278C34.0146 24.533 34.1685 25.2216 34.3645 25.9396C34.5623 26.6593 34.815 27.3938 35.0824 28.2106C34.8461 27.4615 34.5989 26.7179 34.3938 25.9579C34.1923 25.1996 34.0256 24.4359 33.9194 23.6667C33.8095 22.8993 33.7491 22.13 33.7509 21.3663C33.7491 20.9853 33.7692 20.6044 33.7949 20.2271L33.8223 19.9451C33.8352 19.848 33.8315 19.7692 33.8626 19.6374C33.8938 19.5183 33.9267 19.4414 33.9982 19.2875C34.0623 19.1538 34.1209 19.0037 34.1795 18.8645C34.3315 18.9396 34.489 19.0183 34.6392 19.0806L34.7491 19.13C34.7747 19.1429 34.8022 19.1557 34.8278 19.1722C34.8809 19.2015 34.9377 19.2381 34.9908 19.2839L35.4469 19.6941L35.6685 19.8938L35.9011 20.0806C36.0586 20.2033 36.2088 20.3333 36.3699 20.4487C37.0091 20.9194 37.6886 21.3168 38.3938 21.6502C39.1026 21.978 39.8461 22.2106 40.6007 22.3736L41.1685 22.4799L41.7417 22.544C41.9322 22.5714 42.1245 22.5696 42.315 22.5806C42.5073 22.5879 42.6978 22.6007 42.8883 22.5897C43.6538 22.5934 44.4139 22.4872 45.1593 22.3516L45.7161 22.2326C45.9011 22.1941 46.0824 22.1355 46.2656 22.0897C46.4542 22.0421 46.6154 21.989 46.8388 21.9396C47.0531 21.8956 47.3077 21.9121 47.5183 22.0037C47.7326 22.0916 47.8938 22.2289 48.0421 22.337L48.5 22.6758C48.804 22.9011 49.1099 23.1282 49.4121 23.3516C50.0183 23.8022 50.6227 24.2491 51.2234 24.6941C56.0311 28.2527 60.6502 31.6703 65.1428 34.9945L66.7857 36.1722L66.9908 36.3187C67.0586 36.3608 67.119 36.4066 67.1868 36.4414C67.3187 36.5183 67.4597 36.5714 67.6025 36.6099C67.8901 36.685 68.1923 36.6758 68.4652 36.5769C68.4963 36.5751 68.6117 36.5421 68.7857 36.4469C68.9542 36.348 69.1905 36.174 69.3755 35.8828C69.5586 35.5952 69.6776 35.174 69.5659 34.7088C69.5128 34.4762 69.4121 34.2454 69.2491 34.0183C69.0787 33.7857 68.9011 33.5403 68.7161 33.2857C67.2069 31.2472 65.2289 28.5788 63.2692 25.9359C61.5641 23.674 59.3864 20.7509 59.8883 21.4652C59.4927 20.9634 63.0787 25.7692 65.8699 29.5275C67.2637 31.4048 68.4688 33.0256 68.8626 33.5806C69.2546 34.1355 68.8828 33.6465 67.0934 31.2949C64.8077 28.2234 62.489 25.1081 60.2051 22.0385C59.0641 20.5037 57.9322 18.9799 56.8168 17.4799C56.2601 16.7289 55.7069 15.9853 55.1593 15.2473C54.8864 14.8791 54.6135 14.511 54.3425 14.1465C54.1923 13.9432 54.0714 13.7161 54.011 13.4505C53.9963 13.3846 53.9872 13.3132 53.9853 13.2381C53.9853 13.2015 53.9853 13.1612 53.9908 13.1227L53.9982 13.0385L54.0256 12.7088C54.3901 9.18132 53.0476 5.75092 50.8333 3.6044C49.7399 2.51465 48.4743 1.70513 47.1941 1.16117C46.8809 1.00733 46.5494 0.910256 46.2308 0.798535C45.9121 0.681319 45.5952 0.587912 45.2765 0.514652C44.6392 0.360806 44.011 0.249084 43.4084 0.113553C44.2894 0.302198 45.1447 0.430403 45.9395 0.673993C46.1373 0.739927 46.3333 0.805861 46.5275 0.871795C46.7216 0.937729 46.9176 0.998168 47.1007 1.08608C47.4707 1.25275 47.848 1.39377 48.1923 1.59707C49.5971 2.34432 50.8059 3.33883 51.7765 4.54579C52.7308 5.76374 53.4469 7.18681 53.8608 8.77839C53.9249 8.97436 53.9524 9.17949 53.9927 9.38461C54.0293 9.58974 54.0732 9.79487 54.108 10.0037C54.13 10.2143 54.1502 10.4267 54.1721 10.6392C54.1831 10.7454 54.1941 10.8535 54.2051 10.9615C54.2143 11.0696 54.2106 11.1777 54.2143 11.2875C54.2179 11.5055 54.2216 11.7271 54.2234 11.9487C54.2271 12.1703 54.1978 12.3938 54.185 12.6209C54.1776 12.7344 54.1685 12.848 54.1612 12.9615L54.1483 13.1337C54.1428 13.1978 54.1428 13.2619 54.152 13.3242C54.1886 13.5733 54.2985 13.7949 54.4395 13.9945C57.7912 18.4634 61.2015 23.011 64.6428 27.6007C65.5018 28.7491 66.3626 29.8974 67.2253 31.0494C67.6557 31.6264 68.0879 32.2015 68.5201 32.7784L69.1648 33.6447C69.2674 33.7912 69.3864 33.9304 69.478 34.0824C69.5696 34.2344 69.6483 34.3974 69.6978 34.5678C69.8004 34.9084 69.8077 35.2802 69.6923 35.6172C69.5824 35.956 69.3608 36.2527 69.0806 36.4744C68.804 36.6996 68.4579 36.8352 68.1026 36.8571C67.7454 36.8791 67.3901 36.7747 67.0824 36.5934C66.9304 36.5018 66.7857 36.3901 66.641 36.2839L66.2051 35.9634L65.3333 35.3205L63.5879 34.0348C58.9377 30.6044 54.2894 27.174 49.685 23.7784C49.1099 23.3535 48.5348 22.9304 47.9615 22.5073C47.8168 22.4029 47.6795 22.2875 47.5165 22.2088C47.3553 22.1282 47.1721 22.0934 46.9927 22.1136C46.8132 22.13 46.6447 22.1941 46.4725 22.2381L45.9579 22.3791C45.2674 22.5421 44.5696 22.6831 43.8626 22.7399C43.1575 22.815 42.4469 22.8077 41.7436 22.7509L41.2179 22.6941C41.0421 22.6722 40.8699 22.6337 40.696 22.6044L40.4432 22.5586C42.4066 22.9853 44.5 22.8498 46.7106 22.1813C47.141 22.0513 47.4231 22.1227 47.7637 22.3755C52.3498 25.7747 56.9469 29.163 61.5403 32.5549C63.3223 33.87 65.0971 35.1978 66.8901 36.4963C67.6868 37.0733 68.6135 36.9908 69.2637 36.348C69.9102 35.7088 69.9853 34.7784 69.4414 33.9725L69.4322 33.989ZM19.4341 47.0549C19 47.3132 18.5659 47.5751 18.1428 47.8498C18.7802 47.4396 19.5787 46.9542 20.3883 46.5055C21.1978 46.0549 22.0201 45.6465 22.6795 45.3425C22.7417 45.3278 22.1319 45.6081 21.1978 46.1026C20.2637 46.5952 19.0146 47.3223 17.7784 48.1428C18.0384 47.9579 18.7802 47.4689 19.304 47.1538C19.826 46.837 20.1154 46.6648 19.4322 47.0513L19.4341 47.0549ZM15.2839 69.8443C14.5604 69.8443 13.815 69.8443 13.0494 69.8443C12.6667 69.8443 12.2802 69.8443 11.8919 69.8443C11.7949 69.8443 11.6905 69.8461 11.6264 69.8406C11.5513 69.8333 11.4725 69.8187 11.3956 69.7985C11.2399 69.7564 11.0861 69.6868 10.9615 69.6007C10.8352 69.5146 10.7656 69.4194 10.7253 69.3077C10.685 69.1978 10.6941 69.0678 10.7417 68.9432C10.7894 68.8187 10.8773 68.7015 10.9908 68.619C11.1062 68.5348 11.2326 68.489 11.3864 68.4707C11.4286 68.467 11.4762 68.467 11.522 68.4652C11.6355 68.4615 11.7546 68.4652 11.8883 68.4652C12.4798 68.4652 13.1007 68.4652 13.7619 68.4652C13.3608 68.4652 12.9579 68.4652 12.5568 68.4652H11.9524C11.9304 68.4652 11.9102 68.4652 11.8883 68.4652C11.7656 68.4652 11.641 68.4652 11.522 68.4652C11.522 68.4652 11.522 68.4652 11.5201 68.4652C11.4432 68.467 11.3718 68.4725 11.3095 68.4853L11.2216 68.5055L11.1392 68.5366C11.0311 68.5842 10.9359 68.6575 10.8626 68.7472C10.7143 68.9249 10.6703 69.1575 10.7381 69.3223C10.7729 69.4066 10.826 69.4817 10.9121 69.5513C11 69.6209 11.1117 69.6813 11.2271 69.7271C11.3443 69.7729 11.467 69.8058 11.5842 69.8187C11.6483 69.826 11.6831 69.8278 11.7692 69.826H11.9945C12.5952 69.8223 13.1868 69.8205 13.7839 69.8187C16.1758 69.8187 18.6758 69.815 22.3187 69.8113C20.6703 69.8388 18.1703 69.8443 15.2802 69.8443H15.2839ZM60.0916 29.4048C60.3608 29.5311 60.8168 29.9103 61.282 30.2326C60.815 29.9103 60.6026 29.793 60.0916 29.4048ZM58.7711 22.619L58.6996 22.5073C58.771 22.619 58.8846 22.7784 58.9597 22.8791C58.9487 22.9011 58.7857 22.7161 58.6374 22.5018C58.6831 22.5366 58.837 22.7418 58.7711 22.619ZM52.8809 16.9469C52.9231 16.8919 52.9652 16.837 53.0091 16.7711C53.0549 16.6996 53.0952 16.6319 53.1575 16.5092C53.2216 16.3864 53.2839 16.2381 53.3663 16.0421C53.3773 16.0165 53.3864 15.9927 53.3974 15.9652L53.4139 15.9249L53.4231 15.9048C53.4231 15.9048 53.4304 15.9121 53.4359 15.9157C53.4707 15.9597 53.5073 16.0055 53.5458 16.0531C53.6264 16.152 53.7161 16.2619 53.815 16.3828C53.8974 16.4744 53.9634 16.5494 54.0421 16.6502C54.1209 16.7473 54.2051 16.8571 54.2912 16.9707C54.4597 17.1996 54.6373 17.4414 54.782 17.6374C55.0714 18.033 55.2344 18.2491 54.9853 17.7912C55.0732 17.8718 55.1135 17.9176 55.2784 18.1007C55.5696 18.5403 55.6209 18.6941 55.3022 18.3059C55.2912 18.326 55.522 18.6319 55.6758 18.837C55.9634 19.1575 56.1905 19.3462 56.4469 19.6007L56.8058 20.033C57.2289 20.7161 56.108 19.2546 56.4194 19.7802C57.141 20.7637 56.7857 20.0751 57.4707 21.0018C58.0073 21.7161 59.1337 23.1685 58.6813 22.7912C59.1538 23.3828 59.4835 23.9963 60.0421 24.6685C60.2179 24.8315 60.141 24.6007 60.6483 25.2491C60.9743 25.8718 60.8974 25.7711 61.674 26.8974C61.4615 26.6593 61.6172 26.9176 61.7143 27.0916C61.9121 27.3553 62.1099 27.6209 62.3077 27.8846C62.2417 27.7308 62.1282 27.5165 61.9908 27.2839L62.1978 27.3846C62.4011 27.7418 62.9139 28.3791 63.2985 28.8901C63.4634 29.0733 62.9707 28.3956 63.3663 28.8846C63.3974 28.9505 63.3443 28.9249 63.4157 29.0385C63.7747 29.4725 63.663 29.185 64.3791 30.1795L64.5824 30.5366C64.9047 30.9615 65.2326 31.3901 65.5604 31.8205L66.3919 32.9121L66.4982 33.0513L66.5256 33.0861C66.533 33.0971 66.5311 33.0971 66.533 33.1044L66.5421 33.1355L66.5787 33.2564L66.6465 33.4963L66.6776 33.6135C66.6813 33.6392 66.6905 33.6374 66.6776 33.6612L66.6044 33.7491L66.5677 33.793C66.5568 33.7985 66.5494 33.793 66.5403 33.793L66.4853 33.782L66.3773 33.7619L66.1612 33.7216L66.0531 33.7015C66.0476 33.7124 65.9853 33.6593 65.9414 33.63L65.8022 33.5275C65.4286 33.2509 65.0586 32.9762 64.6905 32.7033C64.4817 32.5439 64.2747 32.3846 64.0696 32.2289C63.7509 32.0604 62.9304 31.4322 62.4102 31.0897L62.4176 31.0549C62.0971 30.8846 61.6483 30.4725 61.2875 30.2125L60.9853 29.9524C60.8938 29.8205 61.9157 30.6081 61.674 30.3352C61.0146 29.793 60.4762 29.5403 59.9212 29.0641C59.359 28.6319 59.4029 28.7088 59.0384 28.4634C58.9286 28.4212 59.1355 28.5733 59.0769 28.5751C57.7875 27.6483 57.8205 27.467 56.6868 26.6483C56.63 26.6392 55.6905 26.0293 56.5055 26.6777L56.9231 26.9451L57.174 27.174C56.8645 26.9469 56.3004 26.5275 56.3443 26.6044C56.0091 26.2088 54.1612 25.1337 55.1245 25.619C55.6337 26.0311 55.7894 26.1392 56.1593 26.3516C54.978 25.467 53.9597 24.6557 52.9835 23.9322L52.6648 23.7637C52.6758 23.707 52.2198 23.326 51.7601 22.9707C51.5513 22.8315 51.2949 22.6374 51.3425 22.7033C51.2326 22.6612 53.0348 23.9762 52.1428 23.4322C51.0678 22.6117 49.945 21.7234 49.293 21.1483C49.8095 21.5146 50.1667 21.7949 50.7472 22.1355C52.2198 23.1538 53.7399 24.3022 55.2088 25.3498C53.2674 23.9176 51.3242 22.4835 49.3718 21.0421C49.478 20.9762 49.5806 20.9084 49.6831 20.8388C49.5201 20.9029 49.3919 20.9377 49.3113 20.9432C49.3535 20.8864 49.7198 20.641 49.8333 20.5348C50.1758 20.3333 50.3663 20.2363 50.7912 19.8535C51.0256 19.6117 51.4853 19.13 51.7839 18.7253C51.9359 18.5256 52.0513 18.348 52.1026 18.2527C52.1538 18.1575 52.141 18.141 52.0238 18.2509C52.2967 17.8205 52.4652 17.5568 52.5897 17.3571C52.7143 17.1667 52.8022 17.0623 52.8828 16.9524L52.8809 16.9469Z" fill="#11114C"/>
<path d="M44.8004 11.4395C44.8278 11.4559 44.8938 11.6025 44.9322 11.4614C44.9194 11.4395 44.9139 11.4156 44.9047 11.3918C44.9194 11.3772 44.9304 11.368 44.9469 11.3461C44.9414 11.3827 44.9395 11.4102 44.9395 11.4413C44.9432 11.4688 44.9524 11.4889 44.9707 11.4834C44.9066 11.5164 44.9524 11.6025 44.9872 11.6464C45.0275 11.6885 45.0513 11.716 44.9432 11.6885C44.9395 11.597 44.9359 11.5805 44.8791 11.5255C44.8828 11.7288 44.967 11.9303 45.1282 12.0512L45.2051 12.0384C45.1776 12.0841 45.2454 12.1684 45.337 12.2178C45.3809 12.227 45.4341 12.2417 45.4286 12.216C45.4414 12.205 45.3571 12.1721 45.3004 12.1318C45.2436 12.0896 45.2179 12.0512 45.3077 12.0475C45.4652 12.1501 45.6721 12.227 45.8278 12.2948C45.8461 12.271 45.8663 12.249 45.8736 12.2343C45.9634 12.2178 46.0165 12.2233 46.1062 12.1574C46.1428 12.0988 46.2417 12.02 46.2985 11.9486C46.3571 11.8772 46.3754 11.8204 46.293 11.8222C46.3333 11.7472 46.359 11.7124 46.3883 11.6885C46.4212 11.6611 46.456 11.6464 46.489 11.6336C46.5549 11.608 46.6209 11.575 46.6355 11.3625C46.6062 11.205 46.8571 10.8625 46.6575 11.0054C46.6428 10.9779 46.6428 10.9651 46.6337 10.9138C46.6905 10.8277 46.7491 10.8131 46.7436 10.9102C46.7637 10.9138 46.7839 10.8424 46.7949 10.7966C46.7802 10.7069 46.7271 10.6373 46.6923 10.5585V10.4486C46.7949 10.3167 46.7344 10.6629 46.8242 10.5658C46.8901 10.3406 46.7326 10.4541 46.7857 10.2417C46.8022 10.1592 46.8205 10.0255 46.8443 9.93946C46.8663 9.86437 46.8919 9.81308 46.9597 9.8662C46.9524 9.80026 46.9743 9.74166 46.9835 9.67572C46.9963 9.60979 46.9908 9.53836 46.945 9.47609C46.8883 9.45777 46.8352 9.51272 46.7637 9.42481C46.7839 9.35521 46.793 9.31675 46.7839 9.27646C46.7747 9.23616 46.7509 9.18671 46.6667 9.09331C46.7253 9.10429 46.7051 9.05118 46.6868 9.00906C46.6868 9.00906 46.6868 9.00906 46.6868 9.00722C46.6337 8.97426 46.5769 8.94312 46.5165 8.91748C46.5311 8.9651 46.5549 9.01638 46.5824 9.06583C46.5549 9.09147 46.5275 9.11711 46.5018 9.14276C46.4689 9.06583 46.3205 9.03836 46.2179 9.02004C46.1758 9.03103 46.304 9.07682 46.1996 9.07499C46.1923 9.05851 46.2051 9.03287 46.185 9.02004C46.1373 9.02554 46.1227 9.05118 46.0989 9.07133C46.0751 9.09147 46.0403 9.0988 45.956 9.09514C45.9359 9.08048 45.9139 9.064 45.8938 9.05118C45.7417 9.07682 45.6245 9.17572 45.5494 9.3021C45.511 9.36437 45.478 9.43396 45.4505 9.50722C45.4176 9.59514 45.3791 9.68854 45.3352 9.77279C45.3626 9.85338 45.2839 10.0329 45.2802 10.1556L45.2491 10.1482C45.2802 10.2288 45.1831 10.3186 45.1667 10.401L45.1172 10.4651C45.0586 10.4798 45.152 10.2508 45.0604 10.2929C44.9725 10.4376 45.0568 10.5768 44.9689 10.6977C44.9231 10.8259 44.9634 10.8204 44.9615 10.9047C44.9872 10.9321 44.9982 10.8845 45.0311 10.901C45.0091 11.0493 44.9579 11.1189 44.9066 11.1849C44.8571 11.249 44.8022 11.3241 44.8004 11.4303V11.4395ZM46.7894 9.82041C46.8095 9.82041 46.8315 9.85704 46.815 9.8955C46.8022 9.88451 46.804 9.84788 46.782 9.8662L46.7692 9.88451C46.7839 9.8662 46.7875 9.83873 46.7894 9.82224V9.82041ZM45.1868 10.4102C45.174 10.5182 45.1941 10.5695 45.1557 10.6849C45.1135 10.6171 45.174 10.5182 45.1868 10.4102Z" fill="#11114C"/>
<g clip-path="url(#clip1_15_1403)">
<path d="M52.6234 49.6744H52.6203C52.6203 49.6744 52.6265 49.6744 52.6296 49.6729C52.6273 49.6729 52.6258 49.6736 52.6234 49.6744Z" fill="#11114C"/>
<path d="M53.5806 49.3516C53.4909 49.3932 53.4004 49.4308 53.309 49.4669L53.3791 49.4379C53.446 49.4089 53.5137 49.3822 53.5806 49.3523V49.3516Z" fill="#11114C"/>
<path d="M53.2752 49.4812C53.2618 49.4859 53.2492 49.4906 53.2358 49.4946C53.2602 49.4851 53.2854 49.4765 53.3098 49.4663L53.2752 49.4804V49.4812Z" fill="#11114C"/>
<path d="M52.9532 49.5904L52.9107 49.6014C52.9445 49.592 52.9784 49.581 53.0122 49.5708L52.9532 49.5904Z" fill="#11114C"/>
<path d="M52.9106 49.6011C52.8178 49.6278 52.7233 49.6521 52.6288 49.6725C52.6642 49.6654 52.6981 49.6552 52.7327 49.6466L52.9106 49.6011Z" fill="#11114C"/>
<path d="M53.235 49.4954C53.161 49.5229 53.087 49.548 53.0122 49.5708L53.1681 49.5182C53.1909 49.5103 53.2129 49.5025 53.2358 49.4946L53.235 49.4954Z" fill="#11114C"/>
<path d="M41.69 54.5909C41.7729 54.468 41.8663 54.3511 41.9551 54.2327C43.8959 51.6445 45.8381 49.0564 47.7743 46.4645C47.8445 46.3706 47.908 46.2306 47.8953 46.1226C47.6086 43.7505 48.9818 41.6583 51.2862 40.9895C51.6147 40.8942 51.956 40.8413 52.2913 40.769H53.7444C53.8265 40.7862 53.9094 40.8033 53.9916 40.8197C53.9064 40.804 53.8235 40.7892 53.7436 40.775C53.0611 40.7884 52.584 40.8018 52.2913 40.816C52.3719 40.8189 52.5683 40.8204 52.8274 40.8227C53.0858 40.8242 53.4061 40.8256 53.7384 40.8271C53.89 40.8584 54.0438 40.8904 54.1947 40.9217C54.3477 40.9523 54.4978 40.9828 54.639 41.0111C54.922 41.0684 55.1691 41.1236 55.3401 41.1675C55.4447 41.1899 55.532 41.2383 55.5866 41.3135C55.6418 41.388 55.6597 41.4826 55.6441 41.5719C55.6291 41.6621 55.5843 41.7432 55.5149 41.7946C55.4469 41.8468 55.3573 41.8691 55.2692 41.8661C55.1826 41.8661 55.0885 41.8304 54.9937 41.808C54.8988 41.7849 54.804 41.7633 54.7084 41.7432C54.518 41.7023 54.3238 41.668 54.1237 41.6367C53.7227 41.5786 53.2911 41.5384 52.7938 41.5578C52.5452 41.5667 52.2808 41.5928 51.9986 41.6449C51.9284 41.6591 51.8567 41.674 51.7835 41.6889C51.7111 41.7067 51.6379 41.7254 51.5625 41.744C51.4885 41.7678 51.4139 41.7924 51.337 41.817C51.2989 41.8296 51.26 41.8423 51.2212 41.855L51.1622 41.8743L51.1047 41.8989C50.7358 42.0382 50.2975 42.2802 49.8861 42.6504C49.4716 43.0168 49.1102 43.5352 48.8892 44.134C48.43 45.3339 48.6712 46.8399 49.4029 47.7798C49.4851 47.9042 49.5904 48.0055 49.6822 48.1127C49.727 48.1678 49.783 48.211 49.8323 48.2587C49.8831 48.3056 49.9331 48.351 49.9831 48.3965C50.0899 48.4777 50.193 48.5566 50.2953 48.6288C50.4028 48.6929 50.5044 48.7577 50.6052 48.8143C51.0121 49.0363 51.3833 49.1249 51.6304 49.1889C51.8828 49.2321 52.0165 49.2575 51.9948 49.2567C51.9836 49.2589 51.9336 49.2522 51.8395 49.2403C51.7738 49.2314 51.6849 49.2217 51.5759 49.2001C51.5259 49.1889 51.4758 49.1785 51.4258 49.1651C51.4803 49.18 51.5296 49.1912 51.5759 49.2001C52.1143 49.32 52.628 49.32 53.0835 49.2485C53.1463 49.2433 53.2075 49.2277 53.2672 49.215C53.3277 49.2016 53.3867 49.1889 53.4457 49.1763C53.5637 49.1532 53.6764 49.1174 53.7847 49.0817C54.002 49.0079 54.2006 48.9156 54.3813 48.8158C54.7435 48.6147 55.0317 48.3756 55.2707 48.1432C55.2998 48.1142 55.3289 48.0851 55.3581 48.0561C55.3849 48.03 55.4111 48.0047 55.4395 47.9824C55.4955 47.9369 55.5537 47.8997 55.6142 47.8706C55.7359 47.814 55.8636 47.791 55.9861 47.7977C56.231 47.8118 56.4528 47.9057 56.6014 48.036C56.7522 48.1686 56.8284 48.3428 56.8508 48.5119C56.8911 48.8702 56.9105 49.1837 56.9127 49.4943C56.915 49.8056 56.8948 50.1184 56.85 50.4864C56.8037 50.8543 56.7283 51.2758 56.5946 51.8002C56.4617 52.3253 56.2661 52.9501 56.0032 53.7307C55.7381 54.5105 55.4193 55.4504 55.028 56.6034C54.8921 56.9981 54.7278 57.4882 54.5509 58.0371C54.4627 58.3119 54.3709 58.6001 54.279 58.8995C54.1857 59.1982 54.0991 59.511 54.0304 59.832C53.8907 60.474 53.8176 61.1503 53.8303 61.8035C53.8392 62.4582 53.9423 63.0831 54.0617 63.6364C54.185 64.1898 54.3358 64.6702 54.4665 65.0463C54.5971 65.4232 54.7092 65.695 54.7637 65.8336C54.8204 65.9714 54.8189 65.9766 54.7443 65.8097C54.6733 65.6422 54.5232 65.3048 54.3328 64.7395C54.3716 64.8698 54.409 64.9838 54.4478 65.0985C54.4851 65.2132 54.5277 65.3279 54.5755 65.4597C54.6748 65.7219 54.8018 66.0533 55.0385 66.5687C55.1684 66.8443 55.2961 67.0908 55.4103 67.3105C55.4693 67.42 55.5246 67.522 55.5761 67.6181C55.6299 67.7164 55.6889 67.8043 55.7479 67.881C55.8651 68.0359 55.9875 68.1447 56.0884 68.2192C56.1907 68.2921 56.2713 68.3338 56.3176 68.3532C56.3639 68.3733 56.3751 68.3763 56.3482 68.3614C56.3221 68.3465 56.2564 68.316 56.1615 68.2497C56.0667 68.1841 55.9427 68.0821 55.8158 67.9235C55.7523 67.8438 55.6889 67.7507 55.6276 67.6427C55.5679 67.5347 55.5089 67.4178 55.4409 67.2889C55.4477 67.2978 55.5052 67.4029 55.5948 67.5704C55.6859 67.7388 55.8322 67.9711 56.0719 68.1648C56.1922 68.2594 56.334 68.3443 56.4946 68.3949C56.5737 68.4225 56.6581 68.4389 56.7417 68.4515C56.8246 68.4627 56.9075 68.4724 56.9904 68.4798C57.3234 68.5111 57.6557 68.5193 57.9507 68.5275C58.0642 68.5312 58.1754 68.5357 58.2815 68.5394C58.4219 68.5461 58.5548 68.5521 58.6772 68.5573C58.5503 68.3547 58.4278 68.1581 58.3091 67.9682C58.2076 67.8036 58.1053 67.6449 58.0127 67.487C57.826 67.172 57.6572 66.8651 57.5004 66.5605C57.1868 65.9498 56.9157 65.345 56.6484 64.6695C56.5685 64.4706 56.4901 64.271 56.4154 64.0699L56.3878 63.9947C56.3803 63.9716 56.3721 63.9485 56.3654 63.9254C56.3527 63.8785 56.3422 63.8316 56.3363 63.7847C56.3243 63.6901 56.3288 63.5962 56.3512 63.5068C56.3968 63.3296 56.5222 63.1776 56.6865 63.0823C56.847 62.9855 57.0359 62.9676 57.2152 63.025C57.3115 63.054 57.3951 63.0972 57.4668 63.1419C57.5019 63.1635 57.5377 63.1896 57.5706 63.2127C57.6035 63.2357 57.6348 63.2573 57.6639 63.2774C57.7797 63.3579 57.8648 63.4123 57.9171 63.448C58.0231 63.518 58.0104 63.5054 57.9148 63.4361C57.867 63.4018 57.7991 63.3534 57.7155 63.2938C57.6744 63.264 57.6296 63.2305 57.5818 63.1955C57.5325 63.159 57.484 63.124 57.431 63.0927C57.3249 63.0294 57.198 62.9766 57.0606 62.9661C56.9247 62.9542 56.7806 62.987 56.6551 63.0659C56.5282 63.1441 56.4214 63.2558 56.3609 63.3862C56.3004 63.5173 56.287 63.6625 56.3049 63.7973C56.3154 63.8643 56.3295 63.9291 56.3512 63.9895C56.3721 64.0513 56.3968 64.1139 56.4177 64.1705C56.461 64.2852 56.4983 64.385 56.5289 64.4654C56.5909 64.6255 56.6215 64.7082 56.6028 64.6695C56.5842 64.6307 56.5147 64.4728 56.387 64.1481C56.3557 64.0654 56.3228 63.9872 56.3042 63.912C56.284 63.8353 56.272 63.7593 56.272 63.6848C56.272 63.5366 56.3109 63.3981 56.3833 63.2879C56.4542 63.1769 56.5513 63.0905 56.6536 63.0302C56.7552 62.9684 56.8642 62.9378 56.9687 62.9304C57.1793 62.9192 57.36 63.0011 57.5004 63.092C57.6423 63.1896 57.767 63.2841 57.8797 63.3609C58.3255 63.6744 58.5384 63.813 58.7415 63.9493C58.9461 64.0826 59.141 64.2137 59.58 64.4684C59.7988 64.5965 60.0818 64.7521 60.4597 64.948C60.839 65.1417 61.3154 65.3733 61.933 65.6302C62.1719 65.7301 62.428 65.8321 62.6991 65.9334C62.835 65.9833 62.9731 66.0362 63.1158 66.0846C63.1867 66.1092 63.2591 66.1345 63.3316 66.1598C63.4085 66.1836 63.4884 66.2082 63.572 66.2201C63.7378 66.2477 63.917 66.244 64.088 66.1888C64.2597 66.136 64.4151 66.022 64.5248 65.8775C64.6361 65.733 64.7033 65.5602 64.7339 65.3852C64.7496 65.2981 64.7571 65.2072 64.7593 65.1253C64.7615 65.0411 64.7683 64.957 64.766 64.8728C64.7735 64.1965 64.6704 63.5135 64.4845 62.8812C64.3919 62.5647 64.2799 62.2601 64.1567 61.9718C64.0947 61.8273 64.0312 61.6866 63.964 61.551C63.9312 61.4825 63.8983 61.4155 63.8632 61.3499C63.8461 61.3172 63.8289 61.2844 63.8125 61.2516L63.7871 61.2032C63.7774 61.1846 63.7654 61.1652 63.7542 61.1481C63.6609 61.0081 63.528 60.9172 63.4212 60.839C63.3107 60.7571 63.2009 60.6804 63.0949 60.6051C62.882 60.4569 62.6797 60.3229 62.493 60.2037C62.1189 59.9668 61.8045 59.7911 61.588 59.6756C61.3707 59.5609 61.2512 59.5066 61.2602 59.5162C61.2691 59.5267 61.408 59.6019 61.694 59.7695C61.3124 59.5535 60.9241 59.3598 60.5299 59.1856C60.4313 59.1416 60.332 59.1006 60.2327 59.0589C60.1341 59.0187 60.0303 58.9792 59.9377 58.9398C59.8451 58.8981 59.757 58.8467 59.71 58.7744C59.6614 58.7037 59.6614 58.6054 59.6779 58.507C59.6935 58.4087 59.7256 58.3074 59.7533 58.2039L59.8369 57.8956C59.8922 57.69 59.9452 57.4837 59.9967 57.2759C60.0998 56.8611 60.1961 56.4432 60.2842 56.0187C60.4597 55.1704 60.6038 54.2975 60.6934 53.3829C60.7838 52.4697 60.8323 51.5149 60.7852 50.5072C60.774 50.2369 60.7681 50.0998 60.7636 49.9859C60.7591 49.8727 60.7584 49.7848 60.7427 49.612C60.7352 49.5256 60.727 49.4183 60.7083 49.2761C60.6994 49.2053 60.6889 49.1256 60.677 49.0355C60.6628 48.9461 60.6464 48.8463 60.6284 48.7339C60.6098 48.6221 60.5836 48.4993 60.5582 48.3622C60.5291 48.2259 60.4955 48.0762 60.4552 47.9116C60.3731 47.5839 60.2625 47.1974 60.0975 46.749C59.9504 46.3736 59.8085 46.0601 59.6652 45.7904C59.598 45.6534 59.5233 45.5313 59.4583 45.4121C59.3889 45.2952 59.3217 45.1857 59.2552 45.0807C58.9834 44.6643 58.7243 44.3225 58.3696 43.9359C58.3248 43.8882 58.2792 43.8391 58.2322 43.7884C58.1844 43.7385 58.1329 43.6901 58.0814 43.6387C57.9791 43.5345 57.8626 43.4324 57.7401 43.3207C57.6781 43.2656 57.6109 43.212 57.543 43.1546C57.475 43.0973 57.4033 43.0384 57.3249 42.9818C57.1711 42.8686 56.9949 42.7584 56.8299 42.6251C56.7552 42.5588 56.6977 42.4657 56.6932 42.3599C56.6865 42.2557 56.735 42.1447 56.8209 42.0672C56.9045 41.9883 57.0315 41.957 57.1532 41.9883C57.2734 42.0196 57.3906 42.1082 57.5116 42.1909C57.7521 42.3629 58.0067 42.5528 58.2628 42.7785C58.5189 43.0042 58.781 43.2604 59.0409 43.5546C58.9281 43.4198 58.8333 43.3237 58.7683 43.2492C58.6996 43.1777 58.6563 43.1323 58.6324 43.1069C58.5861 43.057 58.6242 43.0913 58.7138 43.1762C58.7594 43.2179 58.8146 43.2753 58.8781 43.3423C58.9423 43.4086 59.014 43.4838 59.0864 43.568C59.123 43.6097 59.1604 43.6521 59.1992 43.6953C59.2358 43.74 59.2731 43.7855 59.3105 43.8309C59.3859 43.921 59.4583 44.0149 59.5255 44.1057C59.5599 44.1519 59.5935 44.1966 59.6248 44.2405C60.0467 44.8401 60.3962 45.4962 60.6777 46.2023C60.9749 46.9471 61.1922 47.7008 61.3423 48.4613C61.3371 48.4367 61.3318 48.4129 61.3266 48.3883C61.1631 47.6599 60.8622 46.5762 60.3006 45.4665C60.4276 45.7517 60.5388 46.0437 60.6374 46.3394C60.8151 46.7713 60.9996 47.3277 61.1556 47.969C61.3102 48.6102 61.4327 49.3371 61.4887 50.1028C61.5462 50.8684 61.5439 51.6721 61.4924 52.4623C61.4633 52.8578 61.4282 53.2503 61.3789 53.6331C61.3333 54.0174 61.2758 54.3913 61.2116 54.7518C61.1056 55.3044 61.2295 54.6356 61.293 54.1805C61.3251 53.9534 61.3438 53.7791 61.3341 53.8409C61.3296 53.8722 61.3162 53.9616 61.2908 54.1321C61.2646 54.3027 61.2243 54.5544 61.1586 54.9089C61.1041 55.2307 61.1616 55.0013 61.0459 55.6001C60.774 56.8633 60.6852 57.1582 60.5329 57.83C60.5142 57.9149 60.4933 58.0058 60.4716 58.1056C60.4619 58.1615 60.45 58.227 60.4716 58.3119C60.4828 58.3536 60.5075 58.3976 60.5381 58.4303C60.5694 58.4638 60.6038 58.4862 60.6366 58.5048C60.7061 58.5421 60.7606 58.5592 60.8211 58.586C60.8808 58.6121 60.9435 58.6396 61.0093 58.6694C61.1399 58.7297 61.2826 58.799 61.4386 58.8794C61.7493 59.044 62.1189 59.2392 62.5498 59.5028C62.9821 59.7643 63.4802 60.0875 64.0432 60.5068C64.548 60.874 65.0334 61.268 65.5001 61.6836C66.3931 62.4984 67.2235 63.3944 67.9769 64.3514C68.351 64.8326 68.705 65.3316 69.0537 65.8358L69.5757 66.5948L69.7063 66.7847C69.7489 66.8472 69.7877 66.9068 69.8221 66.9709C69.8908 67.0982 69.9423 67.2338 69.9714 67.3738C70.0319 67.6539 69.9938 67.9495 69.8811 68.2169C69.7683 68.4858 69.5966 68.7323 69.3681 68.9051C69.1396 69.0786 68.8573 69.1725 68.5654 69.1963C68.4922 69.2038 68.4205 69.2038 68.3443 69.2045H68.1136L67.6521 69.203H67.4214L67.3646 69.2023C67.3482 69.2008 67.3318 69.2008 67.3153 69.1993C67.2832 69.1956 67.2511 69.1904 67.222 69.1807C67.101 69.1464 67.0159 69.06 66.998 68.9476C66.9898 68.8917 66.9935 68.8284 67.0152 68.7785C67.0346 68.7264 67.0712 68.6839 67.1182 68.6511C67.166 68.6199 67.2235 68.5975 67.287 68.5893C67.346 68.5804 67.4266 68.5841 67.5028 68.5834C67.8119 68.5834 68.1203 68.5834 68.4287 68.5841C68.5937 68.5767 68.7677 68.5402 68.92 68.4485C69.0731 68.3577 69.1896 68.2162 69.2643 68.0642C69.3412 67.9108 69.3748 67.7268 69.3487 67.5541C69.324 67.3813 69.2538 67.2256 69.1717 67.0871C69.0104 66.8227 68.8454 66.5657 68.6744 66.3102C68.3316 65.8016 67.9702 65.307 67.5886 64.8303C67.2078 64.3529 66.8076 63.8934 66.3924 63.4495C66.1826 63.2313 65.9735 63.0138 65.7644 62.7963L65.3582 62.3748L65.3231 62.3383L65.3059 62.3204C65.3007 62.3159 65.2984 62.3167 65.294 62.3152L65.2506 62.2995L65.1633 62.269L65.1416 62.2615C65.1342 62.2601 65.123 62.2735 65.114 62.2787L65.0572 62.3204C65.046 62.3517 65.0453 62.3837 65.0386 62.415L65.0311 62.4626L65.0274 62.4865L65.0251 62.4984V62.5044C65.0251 62.5044 65.0266 62.5125 65.0274 62.5163L65.0819 62.7099L65.1088 62.8067L65.1274 62.8782L65.1551 62.9855C65.1902 63.1285 65.2223 63.273 65.2506 63.4175C65.3059 63.7064 65.347 63.9977 65.3679 64.2896C65.3903 64.5816 65.3933 64.8743 65.3791 65.1648C65.3627 65.4478 65.3014 65.7263 65.1812 65.9766C65.0617 66.2261 64.884 66.4465 64.6592 66.6007C64.4337 66.7541 64.1664 66.8405 63.8931 66.8547C63.6191 66.8703 63.345 66.8145 63.0822 66.7176C62.8104 66.6156 62.5408 66.5113 62.2727 66.4041C61.7814 66.1985 60.9913 65.8634 60.0833 65.4143C59.6286 65.1923 59.1559 64.9279 58.6735 64.636C58.4331 64.4885 58.1881 64.3388 57.9425 64.1883C57.8193 64.1124 57.6953 64.0364 57.5721 63.9604C57.3473 63.8256 57.1226 63.6908 56.8986 63.556C56.9344 63.6781 56.9755 63.8256 57.0203 63.9433C57.0651 64.0677 57.1091 64.1913 57.1539 64.3149C57.2152 64.4632 57.2734 64.6069 57.3354 64.7506C57.4578 65.0374 57.5848 65.3174 57.7155 65.5871C57.9738 66.1278 58.2464 66.626 58.504 67.0655L58.5503 67.1176C58.7594 67.4758 59.0222 67.8877 59.3299 68.3197C59.3665 68.3726 59.4187 68.4426 59.4874 68.4962C59.5561 68.5521 59.648 68.5893 59.7324 68.6027C59.7749 68.6102 59.816 68.6131 59.8556 68.6131C59.8907 68.6131 59.9258 68.6131 59.9616 68.6131C60.0311 68.6131 60.1005 68.6131 60.1707 68.6131C60.4515 68.6124 60.7397 68.6117 61.0302 68.6102C62.1936 68.6064 63.4077 68.6027 64.433 68.599L65.3425 68.593C65.4075 68.5975 65.4567 68.6124 65.5068 68.6429C65.5546 68.6727 65.5956 68.7152 65.6218 68.7643C65.6479 68.8135 65.6613 68.8679 65.6546 68.9178C65.6487 68.9684 65.624 69.0131 65.5867 69.0526C65.5643 69.0757 65.5516 69.0846 65.5561 69.0831C65.559 69.0816 65.5785 69.0697 65.6024 69.0466C65.624 69.022 65.6531 68.9855 65.6636 68.9304C65.6755 68.8768 65.6651 68.8023 65.6195 68.7316C65.5755 68.6616 65.4941 68.6005 65.3955 68.5811C65.344 68.5707 65.2835 68.5707 65.2156 68.5714C65.1469 68.5729 65.0737 68.5714 65.0035 68.5714C64.7175 68.5714 64.4113 68.57 64.1119 68.5692C62.9156 68.5662 61.8374 68.5618 62.6618 68.5454C63.1538 68.5439 63.6258 68.5416 64.0828 68.5402C64.3113 68.5402 64.5353 68.5402 64.7563 68.5402C64.8668 68.5402 64.9766 68.5402 65.0856 68.5402C65.1969 68.5424 65.3059 68.5312 65.3978 68.5476C65.4426 68.5565 65.4859 68.5722 65.5247 68.5945C65.5628 68.6184 65.5979 68.6474 65.6262 68.6824C65.6539 68.7182 65.6748 68.7569 65.689 68.7986C65.7009 68.8403 65.7047 68.8835 65.6994 68.9245C65.6793 69.0928 65.4791 69.1948 65.3014 69.2246C65.279 69.2276 65.2566 69.2306 65.2342 69.2306H65.1595H65.0072C64.9057 69.2306 64.8049 69.2306 64.7048 69.2298C64.5039 69.2298 64.3045 69.2283 64.1067 69.2276C62.5214 69.2216 61.007 69.2164 59.3239 69.2276C58.5055 69.2276 57.9148 69.2291 57.4578 69.2291C57.2279 69.2283 57.0367 69.2321 56.8694 69.2097C56.785 69.203 56.7074 69.1859 56.6335 69.1747C56.561 69.1561 56.4901 69.1449 56.4251 69.1226C56.1623 69.0421 55.9442 68.9416 55.712 68.7688C55.4835 68.5945 55.2296 68.3487 54.9989 67.9138C54.9414 67.8006 54.9339 67.776 54.9503 67.8058C54.9668 67.8363 55.0116 67.9145 55.0601 67.9987C55.1602 68.1678 55.3065 68.3473 55.2513 68.2616C55.1848 68.1745 55.1273 68.0829 55.0736 67.9912C55.0482 67.9443 55.022 67.8981 54.9966 67.852C54.972 67.8036 54.9474 67.7551 54.9227 67.7075C54.8256 67.5161 54.7331 67.3291 54.6457 67.1474C54.471 66.7832 54.3149 66.4361 54.1745 66.1047C53.8952 65.4426 53.6832 64.843 53.5249 64.2881C53.2127 63.1776 53.1179 62.2481 53.1582 61.3536C53.203 60.4562 53.3427 59.5885 53.604 58.5704C53.8631 57.5515 54.2701 56.3889 54.7883 54.8635C54.8831 54.6483 56.5274 49.7647 55.0288 54.3228L54.2843 56.4775C54.1237 56.9698 53.9669 57.4606 53.8258 57.9559C54.0729 57.1143 54.4859 55.9315 54.8018 54.9991C55.1213 54.0673 55.3513 53.3873 55.2991 53.5676C55.4402 53.1095 55.6911 52.3603 55.9592 51.4769C56.0876 51.0316 56.1922 50.5437 56.2392 50.041C56.2631 49.79 56.2728 49.5353 56.2661 49.282C56.2631 49.1554 56.2556 49.0288 56.2444 48.9037L56.2355 48.8098C56.2355 48.7972 56.2302 48.7681 56.2258 48.7495C56.2205 48.7287 56.2146 48.7093 56.2086 48.6914C56.1996 48.6639 56.1712 48.6035 56.1481 48.5544L56.0816 48.3935C56.0077 48.4292 55.9315 48.4695 55.8584 48.4978C55.8158 48.5164 55.7994 48.5246 55.774 48.5395C55.7493 48.5536 55.724 48.5715 55.6993 48.5938C55.6366 48.6497 55.5739 48.7056 55.5119 48.7607C55.4514 48.8173 55.3872 48.8672 55.3237 48.9163C55.2595 48.9648 55.1998 49.0176 55.1348 49.0616C55.0706 49.1063 55.0071 49.1495 54.9444 49.1927C54.8824 49.2366 54.8159 49.2709 54.7532 49.3096C54.6293 49.3885 54.5001 49.4459 54.3813 49.5077C53.893 49.7364 53.4629 49.819 53.206 49.8615C52.9454 49.8905 52.8558 49.9024 53.0059 49.8905C53.0432 49.8875 53.0962 49.8831 53.1649 49.8771C53.2336 49.8727 53.3173 49.854 53.4181 49.8391C53.5196 49.8265 53.6346 49.7915 53.769 49.7609C53.8362 49.7438 53.9049 49.7185 53.9796 49.6954C54.0169 49.6827 54.0558 49.6716 54.0946 49.6574C54.1334 49.6418 54.173 49.6261 54.2133 49.609C54.5971 49.4466 54.9175 49.2455 55.1923 49.0437C55.3252 48.9364 55.4551 48.8389 55.5671 48.7316C55.5955 48.7056 55.6246 48.6802 55.6523 48.6549L55.6941 48.6169L55.7202 48.5938C55.7307 48.5849 55.7411 48.5767 55.7516 48.57C55.7725 48.5559 55.7934 48.5439 55.8136 48.5343C55.821 48.5305 55.836 48.5231 55.8516 48.5164L55.8964 48.497C55.9554 48.4717 56.0167 48.4397 56.0742 48.4114C56.1063 48.4888 56.1384 48.5678 56.1727 48.6385L56.1847 48.6653L56.1922 48.684C56.1974 48.6966 56.2019 48.7093 56.2056 48.7234C56.2138 48.7488 56.2213 48.7853 56.2228 48.8091C56.231 48.8985 56.2414 48.9856 56.2452 49.0713C56.2579 49.2418 56.2586 49.4057 56.2571 49.5636C56.2504 49.8794 56.2213 50.1721 56.1765 50.4588C56.1302 50.7456 56.0674 51.0256 55.9875 51.3176C55.9069 51.6103 55.8039 51.9089 55.6948 52.2411C55.7912 51.9365 55.892 51.6341 55.9756 51.325C56.0577 51.0167 56.1257 50.7061 56.169 50.3933C56.2138 50.0812 56.2384 49.7684 56.2377 49.4578C56.2384 49.3029 56.2302 49.148 56.2198 48.9945L56.2086 48.8798C56.2034 48.8404 56.2048 48.8083 56.1922 48.7547C56.1795 48.7063 56.166 48.675 56.1369 48.6125C56.1108 48.5581 56.0869 48.497 56.063 48.4404C56.001 48.471 55.9368 48.503 55.8755 48.5283L55.8307 48.5484C55.8203 48.5536 55.8091 48.5588 55.7986 48.5655C55.777 48.5775 55.7538 48.5924 55.7322 48.611L55.5462 48.7778L55.4559 48.859L55.361 48.935C55.2968 48.9849 55.2356 49.0377 55.1699 49.0847C54.9093 49.2761 54.6322 49.4377 54.3448 49.5732C54.0558 49.7066 53.7526 49.8012 53.445 49.8674L53.2135 49.9106L52.9797 49.9367C52.9021 49.9479 52.8237 49.9471 52.746 49.9516C52.6676 49.9546 52.59 49.9598 52.5123 49.9553C52.2002 49.9568 51.8903 49.9136 51.5864 49.8585L51.3594 49.8101C51.2839 49.7945 51.21 49.7706 51.1353 49.752C51.0584 49.7326 50.9927 49.711 50.9016 49.6909C50.8142 49.673 50.7105 49.6798 50.6246 49.717C50.5372 49.7527 50.4715 49.8086 50.411 49.8525L50.2243 49.9903C50.1004 50.0819 49.9757 50.1743 49.8525 50.2652C49.6053 50.4484 49.3589 50.6301 49.114 50.8111C47.1538 52.2582 45.2706 53.648 43.4389 54.9998L42.7691 55.4787L42.6854 55.5383C42.6578 55.5554 42.6332 55.574 42.6055 55.5882C42.5518 55.6195 42.4943 55.6411 42.436 55.6567C42.3188 55.6873 42.1956 55.6835 42.0843 55.6433C42.0716 55.6426 42.0246 55.6292 41.9536 55.5904C41.8849 55.5502 41.7886 55.4795 41.7132 55.361C41.6385 55.2441 41.59 55.0728 41.6355 54.8836C41.6572 54.789 41.6983 54.6952 41.7647 54.6028C41.8342 54.5082 41.9066 54.4084 41.982 54.3049C42.5973 53.476 43.4038 52.3908 44.2028 51.3161C44.898 50.3962 45.7858 49.2076 45.5812 49.498C45.7425 49.2939 44.2804 51.2483 43.1424 52.7766C42.5742 53.54 42.0828 54.1992 41.9223 54.4248C41.7625 54.6505 41.9141 54.4516 42.6436 53.4953C43.5755 52.2463 44.5209 50.9794 45.452 49.7311C45.9172 49.107 46.3787 48.4873 46.8335 47.8774C47.0605 47.572 47.286 47.2696 47.5093 46.9694C47.6205 46.8197 47.7318 46.67 47.8423 46.5218C47.9035 46.4392 47.9528 46.3468 47.9774 46.2388C47.9834 46.212 47.9872 46.1829 47.9879 46.1524C47.9879 46.1375 47.9879 46.1211 47.9857 46.1055L47.9827 46.0712L47.9715 45.9372C47.8229 44.5027 48.3702 43.1077 49.273 42.2348C49.7188 41.7916 50.2348 41.4624 50.7568 41.2412C50.8844 41.1787 51.0196 41.1392 51.1495 41.0938C51.2795 41.0461 51.4086 41.0081 51.5386 40.9783C51.7984 40.9158 52.0546 40.8703 52.3002 40.8152C51.9411 40.8919 51.5923 40.9441 51.2683 41.0431C51.1876 41.0699 51.1077 41.0968 51.0286 41.1236C50.9494 41.1504 50.8695 41.175 50.7948 41.2107C50.644 41.2785 50.4902 41.3358 50.3498 41.4185C49.7771 41.7224 49.2842 42.1268 48.8885 42.6176C48.4994 43.1129 48.2074 43.6916 48.0387 44.3388C48.0125 44.4185 48.0013 44.5019 47.9849 44.5854C47.97 44.6688 47.9521 44.7522 47.9379 44.8371C47.9289 44.9228 47.9207 45.0092 47.9117 45.0955C47.9073 45.1387 47.9028 45.1827 47.8983 45.2266C47.8946 45.2706 47.8961 45.3145 47.8946 45.3592C47.8931 45.4478 47.8916 45.538 47.8908 45.6281C47.8893 45.7182 47.9013 45.8091 47.9065 45.9014C47.9095 45.9476 47.9132 45.9938 47.9162 46.0399L47.9214 46.11C47.9237 46.136 47.9237 46.1621 47.92 46.1874C47.905 46.2887 47.8602 46.3788 47.8027 46.46C46.4362 48.2773 45.0458 50.1266 43.6427 51.9931C43.2925 52.4601 42.9415 52.9271 42.5898 53.3955C42.4144 53.6301 42.2381 53.864 42.0619 54.0986L41.7991 54.4509C41.7572 54.5105 41.7087 54.5671 41.6714 54.6289C41.634 54.6907 41.6019 54.757 41.5818 54.8263C41.5399 54.9648 41.537 55.116 41.584 55.253C41.6288 55.3908 41.7192 55.5115 41.8334 55.6016C41.9462 55.6932 42.0873 55.7483 42.2322 55.7573C42.3778 55.7662 42.5226 55.7238 42.6481 55.65C42.7101 55.6128 42.7691 55.5673 42.828 55.5241L43.0058 55.3938L43.3612 55.1324L44.0728 54.6095C45.9688 53.2145 47.8639 51.8195 49.7412 50.4387C49.9757 50.2659 50.2102 50.0939 50.4439 49.9218C50.5029 49.8794 50.5589 49.8324 50.6253 49.8004C50.691 49.7676 50.7657 49.7535 50.8389 49.7617C50.9121 49.7684 50.9808 49.7945 51.051 49.8123L51.2608 49.8697C51.5423 49.936 51.8268 49.9933 52.115 50.0164C52.4025 50.0469 52.6923 50.044 52.979 50.0209L53.1933 49.9978C53.265 49.9888 53.3352 49.9732 53.4061 49.9613L53.5092 49.9427C52.7087 50.1162 51.8552 50.0611 50.9539 49.7892C50.7784 49.7364 50.6634 49.7654 50.5245 49.8682C48.6547 51.2505 46.7805 52.6284 44.9077 54.0077C44.1811 54.5425 43.4575 55.0825 42.7265 55.6105C42.4017 55.8452 42.0238 55.8116 41.7587 55.5502C41.4951 55.2903 41.4645 54.9119 41.6863 54.5842L41.69 54.5909ZM62.0748 59.9043C62.2518 60.0093 62.4288 60.1158 62.6013 60.2275C62.3414 60.0607 62.0158 59.8633 61.6858 59.6808C61.3557 59.4976 61.0205 59.3315 60.7516 59.2079C60.7263 59.2019 60.9749 59.3159 61.3557 59.517C61.7366 59.7173 62.2458 60.013 62.7499 60.3467C62.6438 60.2715 62.3414 60.0726 62.1279 59.9445C61.915 59.8156 61.7971 59.7456 62.0756 59.9028L62.0748 59.9043ZM63.7669 69.1717C64.0619 69.1717 64.3658 69.1717 64.6779 69.1717C64.834 69.1717 64.9915 69.1717 65.1498 69.1717C65.1894 69.1717 65.232 69.1725 65.2581 69.1703C65.2887 69.1673 65.3208 69.1613 65.3522 69.1531C65.4157 69.136 65.4784 69.1077 65.5292 69.0727C65.5807 69.0377 65.6091 68.999 65.6255 68.9535C65.6419 68.9088 65.6382 68.8559 65.6188 68.8053C65.5994 68.7547 65.5635 68.707 65.5172 68.6735C65.4702 68.6392 65.4187 68.6206 65.3559 68.6131C65.3388 68.6117 65.3193 68.6117 65.3007 68.6109C65.2544 68.6094 65.2058 68.6109 65.1513 68.6109C64.9101 68.6109 64.657 68.6109 64.3874 68.6109C64.551 68.6109 64.7152 68.6109 64.8788 68.6109H65.1252C65.1342 68.6109 65.1424 68.6109 65.1513 68.6109C65.2014 68.6109 65.2521 68.6109 65.3007 68.6109C65.3007 68.6109 65.3007 68.6109 65.3014 68.6109C65.3328 68.6117 65.3619 68.6139 65.3873 68.6191L65.4231 68.6273L65.4567 68.64C65.5008 68.6593 65.5396 68.6891 65.5695 68.7256C65.63 68.7979 65.6479 68.8924 65.6203 68.9595C65.6061 68.9937 65.5844 69.0243 65.5493 69.0526C65.5135 69.0809 65.4679 69.1055 65.4209 69.1241C65.3731 69.1427 65.3231 69.1561 65.2753 69.1613C65.2492 69.1643 65.235 69.165 65.1999 69.1643H65.108C64.8631 69.1628 64.6219 69.1621 64.3785 69.1613C63.4033 69.1613 62.384 69.1598 60.8987 69.1583C61.5708 69.1695 62.5901 69.1717 63.7684 69.1717H63.7669ZM45.4983 52.7267C45.3886 52.7781 45.2026 52.9323 45.013 53.0633C45.2034 52.9323 45.29 52.8846 45.4983 52.7267ZM46.0367 49.9672L46.0658 49.9218C46.0367 49.9672 45.9904 50.032 45.9598 50.073C45.9643 50.0819 46.0307 50.0067 46.0912 49.9196C46.0726 49.9337 46.0098 50.0171 46.0367 49.9672ZM48.4382 47.6606C48.421 47.6383 48.4038 47.6159 48.3859 47.5891C48.3672 47.5601 48.3508 47.5325 48.3254 47.4826C48.2993 47.4327 48.2739 47.3724 48.2403 47.2927C48.2358 47.2823 48.2321 47.2726 48.2276 47.2614L48.2209 47.245L48.2171 47.2368C48.2171 47.2368 48.2142 47.2398 48.2119 47.2413C48.1977 47.2592 48.1828 47.2778 48.1671 47.2972C48.1343 47.3374 48.0977 47.3821 48.0574 47.4312C48.0237 47.4685 47.9969 47.499 47.9648 47.54C47.9326 47.5794 47.8983 47.6241 47.8632 47.6703C47.7945 47.7634 47.7221 47.8617 47.6631 47.9414C47.5451 48.1023 47.4786 48.1902 47.5802 48.004C47.5443 48.0367 47.5279 48.0554 47.4607 48.1298C47.342 48.3086 47.3211 48.3712 47.451 48.2133C47.4555 48.2214 47.3614 48.3458 47.2987 48.4292C47.1814 48.5596 47.0888 48.6363 46.9843 48.7398L46.8379 48.9156C46.6655 49.1934 47.1225 48.5991 46.9955 48.8128C46.7013 49.2128 46.8462 48.9327 46.5669 49.3096C46.3481 49.6001 45.8889 50.1907 46.0733 50.0373C45.8807 50.2778 45.7462 50.5273 45.5185 50.8007C45.4468 50.867 45.4782 50.7731 45.2713 51.0368C45.1384 51.29 45.1698 51.249 44.8532 51.7071C44.9398 51.6103 44.8763 51.7153 44.8367 51.786C44.7561 51.8933 44.6754 52.0013 44.5948 52.1085C44.6217 52.046 44.668 51.9588 44.724 51.8642L44.6396 51.9052C44.5567 52.0504 44.3476 52.3096 44.1908 52.5174C44.1236 52.5919 44.3245 52.3163 44.1632 52.5152C44.1505 52.542 44.1721 52.5316 44.143 52.5777C43.9967 52.7543 44.0422 52.6373 43.7502 53.0417L43.6674 53.187C43.5359 53.3598 43.4023 53.5341 43.2686 53.7091L42.9296 54.153L42.8863 54.2096L42.8751 54.2237C42.8721 54.2282 42.8729 54.2282 42.8721 54.2312L42.8684 54.2438L42.8534 54.293L42.8258 54.3906L42.8131 54.4382C42.8116 54.4487 42.8079 54.4479 42.8131 54.4576L42.843 54.4934L42.8579 54.5112C42.8624 54.5135 42.8654 54.5112 42.8691 54.5112L42.8915 54.5068L42.9356 54.4986L43.0237 54.4822L43.0677 54.474C43.07 54.4785 43.0954 54.4569 43.1133 54.4449L43.17 54.4032C43.3224 54.2908 43.4732 54.179 43.6233 54.0681C43.7084 54.0033 43.7928 53.9385 43.8764 53.8752C44.0064 53.8067 44.3409 53.5512 44.553 53.4119L44.55 53.3978C44.6807 53.3285 44.8636 53.1609 45.0107 53.0552L45.1339 52.9494C45.1713 52.8958 44.7546 53.216 44.8532 53.1051C45.122 52.8846 45.3415 52.7818 45.5678 52.5882C45.797 52.4124 45.7791 52.4437 45.9277 52.3439C45.9725 52.3267 45.8881 52.3886 45.912 52.3893C46.4377 52.0124 46.4243 51.9387 46.8865 51.6058C46.9096 51.6021 47.2927 51.354 46.9604 51.6177L46.7902 51.7264L46.6879 51.8195C46.8141 51.7272 47.044 51.5566 47.0261 51.5879C47.1628 51.427 47.9162 50.9898 47.5234 51.1872C47.3159 51.3548 47.2524 51.3987 47.1015 51.4851C47.5832 51.1254 47.9984 50.7955 48.3964 50.5013L48.5263 50.4327C48.5218 50.4096 48.7077 50.2547 48.8952 50.1102C48.9803 50.0536 49.0848 49.9747 49.0654 50.0015C49.1102 49.9844 48.3755 50.5191 48.7391 50.2979C49.1774 49.9643 49.6352 49.603 49.901 49.3692C49.6904 49.5181 49.5448 49.6321 49.3081 49.7706C48.7077 50.1847 48.088 50.6517 47.4891 51.0777C48.2806 50.4953 49.0729 49.9121 49.8689 49.326C49.8256 49.2992 49.7838 49.2716 49.742 49.2433C49.8084 49.2694 49.8607 49.2835 49.8935 49.2858C49.8764 49.2627 49.727 49.1629 49.6807 49.1197C49.5411 49.0377 49.4634 48.9983 49.2902 48.8426C49.1946 48.7443 49.0072 48.5484 48.8855 48.3838C48.8235 48.3026 48.7764 48.2304 48.7555 48.1917C48.7346 48.1529 48.7399 48.1462 48.7876 48.1909C48.6764 48.0159 48.6077 47.9086 48.5569 47.8275C48.5061 47.75 48.4703 47.7075 48.4374 47.6629L48.4382 47.6606Z" fill="#11114C"/>
<path d="M51.5759 49.2001C51.6849 49.2217 51.7738 49.2314 51.8395 49.2403C51.9336 49.2522 51.9836 49.2589 51.9948 49.2567C52.0165 49.2575 51.8828 49.2321 51.6304 49.1889C51.3833 49.1249 51.0121 49.0363 50.6052 48.8143C50.5044 48.7577 50.4028 48.6929 50.2953 48.6288C50.193 48.5566 50.0899 48.4777 49.9831 48.3965C49.9331 48.351 49.8831 48.3056 49.8323 48.2587C49.783 48.211 49.727 48.1678 49.6822 48.1127C49.5904 48.0055 49.4851 47.9042 49.4029 47.7798C48.6712 46.8399 48.43 45.3339 48.8892 44.134C49.1102 43.5352 49.4716 43.0168 49.8861 42.6504C50.2975 42.2802 50.7358 42.0382 51.1047 41.8989L51.1622 41.8743L51.2212 41.855C51.26 41.8423 51.2989 41.8296 51.337 41.817C51.4139 41.7924 51.4885 41.7678 51.5625 41.744C51.6379 41.7254 51.7111 41.7067 51.7835 41.6889C51.8567 41.674 51.9284 41.6591 51.9986 41.6449C52.2808 41.5928 52.5452 41.5667 52.7938 41.5578C53.2911 41.5384 53.7227 41.5786 54.1237 41.6367C54.3238 41.668 54.518 41.7023 54.7084 41.7432C54.804 41.7633 54.8988 41.7849 54.9937 41.808C55.0885 41.8304 55.1826 41.8661 55.2692 41.8661C55.3573 41.8691 55.4469 41.8468 55.5149 41.7946C55.5843 41.7432 55.6291 41.6621 55.6441 41.5719C55.6597 41.4826 55.6418 41.388 55.5866 41.3135C55.532 41.2383 55.4447 41.1899 55.3401 41.1675C55.1691 41.1236 54.922 41.0684 54.639 41.0111C54.4978 40.9828 54.3477 40.9523 54.1947 40.9217C54.0438 40.8904 53.89 40.8584 53.7384 40.8271C53.4061 40.8256 53.0858 40.8242 52.8274 40.8227C52.5683 40.8204 52.3719 40.8189 52.2913 40.816C52.584 40.8018 53.0611 40.7884 53.7436 40.775C53.8235 40.7892 53.9064 40.804 53.9916 40.8197C53.9094 40.8033 53.8265 40.7862 53.7444 40.769H52.2913C51.956 40.8413 51.6147 40.8942 51.2862 40.9895C48.9818 41.6583 47.6086 43.7505 47.8953 46.1226C47.908 46.2306 47.8445 46.3706 47.7743 46.4645C45.8381 49.0564 43.8959 51.6445 41.9551 54.2327C41.8663 54.3511 41.7729 54.468 41.69 54.5909L41.6863 54.5842C41.4645 54.9119 41.4951 55.2903 41.7587 55.5502C42.0238 55.8116 42.4017 55.8452 42.7265 55.6105C43.4575 55.0825 44.1811 54.5425 44.9077 54.0077C46.7805 52.6284 48.6547 51.2505 50.5245 49.8682C50.6634 49.7654 50.7784 49.7364 50.9539 49.7892C51.8552 50.0611 52.7087 50.1162 53.5092 49.9427L53.4061 49.9613C53.3352 49.9732 53.265 49.9888 53.1933 49.9978L52.979 50.0209C52.6923 50.044 52.4025 50.0469 52.115 50.0164C51.8268 49.9933 51.5423 49.936 51.2608 49.8697L51.051 49.8123C50.9808 49.7945 50.9121 49.7684 50.8389 49.7617C50.7657 49.7535 50.691 49.7676 50.6253 49.8004C50.5589 49.8324 50.5029 49.8794 50.4439 49.9218C50.2102 50.0939 49.9757 50.2659 49.7412 50.4387C47.8639 51.8195 45.9688 53.2145 44.0728 54.6095L43.3612 55.1324L43.0058 55.3938L42.828 55.5241C42.7691 55.5673 42.7101 55.6128 42.6481 55.65C42.5226 55.7238 42.3778 55.7662 42.2322 55.7573C42.0873 55.7483 41.9462 55.6932 41.8334 55.6016C41.7192 55.5115 41.6288 55.3908 41.584 55.253C41.537 55.116 41.5399 54.9648 41.5818 54.8263C41.6019 54.757 41.634 54.6907 41.6714 54.6289C41.7087 54.5671 41.7572 54.5105 41.7991 54.4509L42.0619 54.0986C42.2381 53.864 42.4144 53.6301 42.5898 53.3955C42.9415 52.9271 43.2925 52.4601 43.6427 51.9931C45.0458 50.1266 46.4362 48.2773 47.8027 46.46C47.8602 46.3788 47.905 46.2887 47.92 46.1874C47.9237 46.1621 47.9237 46.136 47.9214 46.11L47.9162 46.0399C47.9132 45.9938 47.9095 45.9476 47.9065 45.9014C47.9013 45.8091 47.8893 45.7182 47.8908 45.6281C47.8916 45.538 47.8931 45.4478 47.8946 45.3592C47.8961 45.3145 47.8946 45.2706 47.8983 45.2266C47.9028 45.1827 47.9073 45.1387 47.9117 45.0955C47.9207 45.0092 47.9289 44.9228 47.9379 44.8371C47.9521 44.7522 47.97 44.6688 47.9849 44.5854C48.0013 44.5019 48.0125 44.4185 48.0387 44.3388C48.2074 43.6916 48.4994 43.1129 48.8885 42.6176C49.2842 42.1268 49.7771 41.7224 50.3498 41.4185C50.4902 41.3358 50.644 41.2785 50.7948 41.2107C50.8695 41.175 50.9494 41.1504 51.0286 41.1236C51.1077 41.0968 51.1876 41.0699 51.2683 41.0431C51.5923 40.9441 51.9411 40.8919 52.3002 40.8152C52.0546 40.8703 51.7984 40.9158 51.5386 40.9783C51.4086 41.0081 51.2795 41.0461 51.1495 41.0938C51.0196 41.1392 50.8844 41.1787 50.7568 41.2412C50.2348 41.4624 49.7188 41.7916 49.273 42.2348C48.3702 43.1077 47.8229 44.5027 47.9715 45.9372L47.9827 46.0712L47.9857 46.1055C47.9879 46.1211 47.9879 46.1375 47.9879 46.1524C47.9872 46.1829 47.9834 46.212 47.9774 46.2388C47.9528 46.3468 47.9035 46.4392 47.8423 46.5218C47.7318 46.67 47.6205 46.8197 47.5093 46.9694C47.286 47.2696 47.0605 47.572 46.8335 47.8774C46.3787 48.4873 45.9172 49.107 45.452 49.7311C44.5209 50.9794 43.5755 52.2463 42.6436 53.4953C41.9141 54.4516 41.7625 54.6505 41.9223 54.4248C42.0828 54.1992 42.5742 53.54 43.1424 52.7766C44.2804 51.2483 45.7425 49.2939 45.5812 49.498C45.7858 49.2076 44.898 50.3962 44.2028 51.3161C43.4038 52.3908 42.5973 53.476 41.982 54.3049C41.9066 54.4084 41.8342 54.5082 41.7647 54.6028C41.6983 54.6952 41.6572 54.789 41.6355 54.8836C41.59 55.0728 41.6385 55.2441 41.7132 55.361C41.7886 55.4795 41.8849 55.5502 41.9536 55.5904C42.0246 55.6292 42.0716 55.6426 42.0843 55.6433C42.1956 55.6835 42.3188 55.6873 42.436 55.6567C42.4943 55.6411 42.5518 55.6195 42.6055 55.5882C42.6332 55.574 42.6578 55.5554 42.6854 55.5383L42.7691 55.4787L43.4389 54.9998C45.2706 53.648 47.1538 52.2582 49.114 50.8111C49.3589 50.6301 49.6053 50.4484 49.8525 50.2652C49.9757 50.1743 50.1004 50.0819 50.2243 49.9903L50.411 49.8525C50.4715 49.8086 50.5372 49.7527 50.6246 49.717C50.7105 49.6798 50.8142 49.673 50.9016 49.6909C50.9927 49.711 51.0584 49.7326 51.1353 49.752C51.21 49.7706 51.2839 49.7945 51.3594 49.8101L51.5864 49.8585C51.8903 49.9136 52.2002 49.9568 52.5123 49.9553C52.59 49.9598 52.6676 49.9546 52.746 49.9516C52.8237 49.9471 52.9021 49.9479 52.9797 49.9367L53.2135 49.9106L53.445 49.8674C53.7526 49.8012 54.0558 49.7066 54.3448 49.5732C54.6322 49.4377 54.9093 49.2761 55.1699 49.0847C55.2356 49.0377 55.2968 48.9849 55.361 48.935L55.4559 48.859L55.5462 48.7778L55.7322 48.611C55.7538 48.5924 55.777 48.5775 55.7986 48.5655C55.8091 48.5588 55.8203 48.5536 55.8307 48.5484L55.8755 48.5283C55.9368 48.503 56.001 48.471 56.063 48.4404C56.0869 48.497 56.1108 48.5581 56.1369 48.6125C56.166 48.675 56.1795 48.7063 56.1922 48.7547C56.2048 48.8083 56.2034 48.8404 56.2086 48.8798L56.2198 48.9945C56.2302 49.148 56.2384 49.3029 56.2377 49.4578C56.2384 49.7684 56.2138 50.0812 56.169 50.3933C56.1257 50.7061 56.0577 51.0167 55.9756 51.325C55.892 51.6341 55.7912 51.9365 55.6948 52.2411C55.8039 51.9089 55.9069 51.6103 55.9875 51.3176C56.0674 51.0256 56.1302 50.7456 56.1765 50.4588C56.2213 50.1721 56.2504 49.8794 56.2571 49.5636C56.2586 49.4057 56.2579 49.2418 56.2452 49.0713C56.2414 48.9856 56.231 48.8985 56.2228 48.8091C56.2213 48.7853 56.2138 48.7488 56.2056 48.7234C56.2019 48.7093 56.1974 48.6966 56.1922 48.684L56.1847 48.6653L56.1727 48.6385C56.1384 48.5678 56.1063 48.4888 56.0742 48.4114C56.0167 48.4397 55.9554 48.4717 55.8964 48.497L55.8516 48.5164C55.836 48.5231 55.821 48.5305 55.8136 48.5343C55.7934 48.5439 55.7725 48.5559 55.7516 48.57C55.7411 48.5767 55.7307 48.5849 55.7202 48.5938L55.6941 48.6169L55.6523 48.6549C55.6246 48.6802 55.5955 48.7056 55.5671 48.7316C55.4551 48.8389 55.3252 48.9364 55.1923 49.0437C54.9175 49.2455 54.5971 49.4466 54.2133 49.609C54.173 49.6261 54.1334 49.6418 54.0946 49.6574C54.0558 49.6716 54.0169 49.6827 53.9796 49.6954C53.9049 49.7185 53.8362 49.7438 53.769 49.7609C53.6346 49.7915 53.5196 49.8265 53.4181 49.8391C53.3173 49.854 53.2336 49.8727 53.1649 49.8771C53.0962 49.8831 53.0432 49.8875 53.0059 49.8905C52.8558 49.9024 52.9454 49.8905 53.206 49.8615C53.4629 49.819 53.893 49.7364 54.3813 49.5077C54.5001 49.4459 54.6293 49.3885 54.7532 49.3096C54.8159 49.2709 54.8824 49.2366 54.9444 49.1927C55.0071 49.1495 55.0706 49.1063 55.1348 49.0616C55.1998 49.0176 55.2595 48.9648 55.3237 48.9163C55.3872 48.8672 55.4514 48.8173 55.5119 48.7607C55.5739 48.7056 55.6366 48.6497 55.6993 48.5938C55.724 48.5715 55.7493 48.5536 55.774 48.5395C55.7994 48.5246 55.8158 48.5164 55.8584 48.4978C55.9315 48.4695 56.0077 48.4292 56.0816 48.3935L56.1481 48.5544C56.1712 48.6035 56.1996 48.6639 56.2086 48.6914C56.2146 48.7093 56.2205 48.7287 56.2258 48.7495C56.2302 48.7681 56.2355 48.7972 56.2355 48.8098L56.2444 48.9037C56.2556 49.0288 56.2631 49.1554 56.2661 49.282C56.2728 49.5353 56.2631 49.79 56.2392 50.041C56.1922 50.5437 56.0876 51.0316 55.9592 51.4769C55.6911 52.3603 55.4402 53.1095 55.2991 53.5676C55.3513 53.3873 55.1213 54.0673 54.8018 54.9991C54.4859 55.9315 54.0729 57.1143 53.8258 57.9559C53.9669 57.4606 54.1237 56.9698 54.2843 56.4775L55.0288 54.3228C56.5274 49.7647 54.8831 54.6483 54.7883 54.8635C54.2701 56.3889 53.8631 57.5515 53.604 58.5704C53.3427 59.5885 53.203 60.4562 53.1582 61.3536C53.1179 62.2481 53.2127 63.1776 53.5249 64.2881C53.6832 64.843 53.8952 65.4426 54.1745 66.1047C54.3149 66.4361 54.471 66.7832 54.6457 67.1474C54.7331 67.3291 54.8256 67.5161 54.9227 67.7075C54.9474 67.7551 54.972 67.8036 54.9966 67.852C55.022 67.8981 55.0482 67.9443 55.0736 67.9912C55.1273 68.0829 55.1848 68.1745 55.2513 68.2616C55.3065 68.3473 55.1602 68.1678 55.0601 67.9987C55.0116 67.9145 54.9668 67.8363 54.9503 67.8058C54.9339 67.776 54.9414 67.8006 54.9989 67.9138C55.2296 68.3487 55.4835 68.5945 55.712 68.7688C55.9442 68.9416 56.1623 69.0421 56.4251 69.1226C56.4901 69.1449 56.561 69.1561 56.6335 69.1747C56.7074 69.1859 56.785 69.203 56.8694 69.2097C57.0367 69.2321 57.2279 69.2283 57.4578 69.2291C57.9148 69.2291 58.5055 69.2276 59.3239 69.2276C61.007 69.2164 62.5214 69.2216 64.1067 69.2276C64.3045 69.2283 64.5039 69.2298 64.7048 69.2298C64.8049 69.2306 64.9057 69.2306 65.0072 69.2306H65.1595H65.2342C65.2566 69.2306 65.279 69.2276 65.3014 69.2246C65.4791 69.1948 65.6793 69.0928 65.6994 68.9245C65.7047 68.8835 65.7009 68.8403 65.689 68.7986C65.6748 68.7569 65.6539 68.7182 65.6262 68.6824C65.5979 68.6474 65.5628 68.6184 65.5247 68.5945C65.4859 68.5722 65.4426 68.5565 65.3978 68.5476C65.3059 68.5312 65.1969 68.5424 65.0856 68.5402C64.9766 68.5402 64.8668 68.5402 64.7563 68.5402C64.5353 68.5402 64.3113 68.5402 64.0828 68.5402C63.6258 68.5416 63.1538 68.5439 62.6618 68.5454C61.8374 68.5618 62.9156 68.5662 64.1119 68.5692C64.4113 68.57 64.7175 68.5714 65.0035 68.5714C65.0737 68.5714 65.1469 68.5729 65.2156 68.5714C65.2835 68.5707 65.344 68.5707 65.3955 68.5811C65.4941 68.6005 65.5755 68.6616 65.6195 68.7316C65.6651 68.8023 65.6755 68.8768 65.6636 68.9304C65.6531 68.9855 65.624 69.022 65.6024 69.0466C65.5785 69.0697 65.559 69.0816 65.5561 69.0831C65.5516 69.0846 65.5643 69.0757 65.5867 69.0526C65.624 69.0131 65.6487 68.9684 65.6546 68.9178C65.6613 68.8679 65.6479 68.8135 65.6218 68.7643C65.5956 68.7152 65.5546 68.6727 65.5068 68.6429C65.4567 68.6124 65.4075 68.5975 65.3425 68.593L64.433 68.599C63.4077 68.6027 62.1936 68.6064 61.0302 68.6102C60.7397 68.6117 60.4515 68.6124 60.1707 68.6131C60.1005 68.6131 60.0311 68.6131 59.9616 68.6131C59.9258 68.6131 59.8907 68.6131 59.8556 68.6131C59.816 68.6131 59.7749 68.6102 59.7324 68.6027C59.648 68.5893 59.5561 68.5521 59.4874 68.4962C59.4187 68.4426 59.3665 68.3726 59.3299 68.3197C59.0222 67.8877 58.7594 67.4758 58.5503 67.1176L58.504 67.0655C58.2464 66.626 57.9738 66.1278 57.7155 65.5871C57.5848 65.3174 57.4578 65.0374 57.3354 64.7506C57.2734 64.6069 57.2152 64.4632 57.1539 64.3149C57.1091 64.1913 57.0651 64.0677 57.0203 63.9433C56.9755 63.8256 56.9344 63.6781 56.8986 63.556C57.1226 63.6908 57.3473 63.8256 57.5721 63.9604C57.6953 64.0364 57.8193 64.1124 57.9425 64.1883C58.1881 64.3388 58.4331 64.4885 58.6735 64.636C59.1559 64.9279 59.6286 65.1923 60.0833 65.4143C60.9913 65.8634 61.7814 66.1985 62.2727 66.4041C62.5408 66.5113 62.8104 66.6156 63.0822 66.7176C63.345 66.8145 63.6191 66.8703 63.8931 66.8547C64.1664 66.8405 64.4337 66.7541 64.6592 66.6007C64.884 66.4465 65.0617 66.2261 65.1812 65.9766C65.3014 65.7263 65.3627 65.4478 65.3791 65.1648C65.3933 64.8743 65.3903 64.5816 65.3679 64.2896C65.347 63.9977 65.3059 63.7064 65.2506 63.4175C65.2223 63.273 65.1902 63.1285 65.1551 62.9855L65.1274 62.8782L65.1088 62.8067L65.0819 62.7099L65.0274 62.5163C65.0266 62.5125 65.0251 62.5044 65.0251 62.5044V62.4984L65.0274 62.4865L65.0311 62.4626L65.0386 62.415C65.0453 62.3837 65.046 62.3517 65.0572 62.3204L65.114 62.2787C65.123 62.2735 65.1342 62.2601 65.1416 62.2615L65.1633 62.269L65.2506 62.2995L65.294 62.3152C65.2984 62.3167 65.3007 62.3159 65.3059 62.3204L65.3231 62.3383L65.3582 62.3748L65.7644 62.7963C65.9735 63.0138 66.1826 63.2313 66.3924 63.4495C66.8076 63.8934 67.2078 64.3529 67.5886 64.8303C67.9702 65.307 68.3316 65.8016 68.6744 66.3102C68.8454 66.5657 69.0104 66.8227 69.1717 67.0871C69.2538 67.2256 69.324 67.3813 69.3487 67.5541C69.3748 67.7268 69.3412 67.9108 69.2643 68.0642C69.1896 68.2162 69.0731 68.3577 68.92 68.4485C68.7677 68.5402 68.5937 68.5767 68.4287 68.5841C68.1203 68.5834 67.8119 68.5834 67.5028 68.5834C67.4266 68.5841 67.346 68.5804 67.287 68.5893C67.2235 68.5975 67.166 68.6198 67.1182 68.6511C67.0712 68.6839 67.0346 68.7264 67.0152 68.7785C66.9935 68.8284 66.9898 68.8917 66.998 68.9476C67.0159 69.06 67.101 69.1464 67.222 69.1807C67.2511 69.1904 67.2832 69.1956 67.3153 69.1993C67.3318 69.2008 67.3482 69.2008 67.3646 69.2023L67.4214 69.203H67.6521L68.1136 69.2045H68.3443C68.4205 69.2038 68.4922 69.2038 68.5654 69.1963C68.8573 69.1725 69.1396 69.0786 69.3681 68.9051C69.5966 68.7323 69.7683 68.4858 69.8811 68.2169C69.9938 67.9495 70.0319 67.6539 69.9714 67.3738C69.9423 67.2338 69.8908 67.0982 69.8221 66.9709C69.7877 66.9068 69.7489 66.8472 69.7063 66.7847L69.5757 66.5948L69.0537 65.8358C68.705 65.3316 68.351 64.8326 67.9769 64.3514C67.2235 63.3944 66.3931 62.4984 65.5001 61.6836C65.0334 61.268 64.548 60.874 64.0432 60.5068C63.4802 60.0875 62.9821 59.7643 62.5498 59.5028C62.1189 59.2392 61.7493 59.044 61.4386 58.8794C61.2826 58.799 61.1399 58.7297 61.0093 58.6694C60.9435 58.6396 60.8808 58.6121 60.8211 58.586C60.7606 58.5592 60.7061 58.5421 60.6366 58.5048C60.6038 58.4862 60.5694 58.4638 60.5381 58.4303C60.5075 58.3976 60.4828 58.3536 60.4716 58.3119C60.45 58.227 60.4619 58.1615 60.4716 58.1056C60.4933 58.0058 60.5142 57.9149 60.5329 57.83C60.6852 57.1582 60.774 56.8633 61.0459 55.6001C61.1616 55.0013 61.1041 55.2307 61.1586 54.9089C61.2243 54.5544 61.2646 54.3027 61.2908 54.1321C61.3162 53.9616 61.3296 53.8722 61.3341 53.8409C61.3438 53.7791 61.3251 53.9534 61.293 54.1805C61.2295 54.6356 61.1056 55.3044 61.2116 54.7518C61.2758 54.3913 61.3333 54.0174 61.3789 53.6331C61.4282 53.2503 61.4633 52.8578 61.4924 52.4623C61.5439 51.6721 61.5462 50.8684 61.4887 50.1028C61.4327 49.3371 61.3102 48.6102 61.1556 47.969C60.9996 47.3277 60.8151 46.7713 60.6374 46.3394C60.5388 46.0437 60.4276 45.7517 60.3006 45.4665C60.8622 46.5762 61.1631 47.6599 61.3266 48.3883C61.3318 48.4129 61.3371 48.4367 61.3423 48.4613C61.1922 47.7008 60.9749 46.9471 60.6777 46.2023C60.3962 45.4962 60.0467 44.8401 59.6248 44.2405C59.5935 44.1966 59.5599 44.1519 59.5255 44.1057C59.4583 44.0149 59.3859 43.921 59.3105 43.8309C59.2731 43.7855 59.2358 43.74 59.1992 43.6953C59.1604 43.6521 59.123 43.6097 59.0864 43.568C59.014 43.4838 58.9423 43.4086 58.8781 43.3423C58.8146 43.2753 58.7594 43.2179 58.7138 43.1762C58.6242 43.0913 58.5861 43.057 58.6324 43.1069C58.6563 43.1323 58.6996 43.1777 58.7683 43.2492C58.8333 43.3237 58.9281 43.4198 59.0409 43.5546C58.781 43.2604 58.5189 43.0042 58.2628 42.7785C58.0067 42.5528 57.7521 42.3629 57.5116 42.1909C57.3906 42.1082 57.2734 42.0196 57.1532 41.9883C57.0315 41.957 56.9045 41.9883 56.8209 42.0672C56.735 42.1447 56.6865 42.2557 56.6932 42.3599C56.6977 42.4657 56.7552 42.5588 56.8299 42.6251C56.9949 42.7584 57.1711 42.8686 57.3249 42.9818C57.4033 43.0384 57.475 43.0973 57.543 43.1546C57.6109 43.212 57.6781 43.2656 57.7401 43.3207C57.8626 43.4324 57.9791 43.5345 58.0814 43.6387C58.1329 43.6901 58.1844 43.7385 58.2322 43.7884C58.2792 43.8391 58.3248 43.8882 58.3696 43.9359C58.7243 44.3225 58.9834 44.6643 59.2552 45.0807C59.3217 45.1857 59.3889 45.2952 59.4583 45.4121C59.5233 45.5313 59.598 45.6534 59.6652 45.7904C59.8085 46.0601 59.9504 46.3736 60.0975 46.749C60.2625 47.1974 60.3731 47.5839 60.4552 47.9116C60.4955 48.0762 60.5291 48.2259 60.5582 48.3622C60.5836 48.4993 60.6098 48.6221 60.6284 48.7339C60.6464 48.8463 60.6628 48.9461 60.677 49.0355C60.6889 49.1256 60.6994 49.2053 60.7083 49.2761C60.727 49.4183 60.7352 49.5256 60.7427 49.612C60.7584 49.7848 60.7591 49.8727 60.7636 49.9859C60.7681 50.0998 60.774 50.2369 60.7852 50.5072C60.8323 51.5149 60.7838 52.4697 60.6934 53.3829C60.6038 54.2975 60.4597 55.1704 60.2842 56.0187C60.1961 56.4432 60.0998 56.8611 59.9967 57.2759C59.9452 57.4837 59.8922 57.69 59.8369 57.8956L59.7533 58.2039C59.7256 58.3074 59.6935 58.4087 59.6779 58.507C59.6614 58.6054 59.6614 58.7037 59.71 58.7744C59.757 58.8467 59.8451 58.8981 59.9377 58.9398C60.0303 58.9792 60.1341 59.0187 60.2327 59.0589C60.332 59.1006 60.4313 59.1416 60.5299 59.1856C60.9241 59.3598 61.3124 59.5535 61.694 59.7695C61.408 59.6019 61.2691 59.5267 61.2602 59.5162C61.2512 59.5066 61.3707 59.5609 61.588 59.6756C61.8045 59.7911 62.1189 59.9668 62.493 60.2037C62.6797 60.3229 62.882 60.4569 63.0949 60.6051C63.2009 60.6804 63.3107 60.7571 63.4212 60.839C63.528 60.9172 63.6609 61.0081 63.7542 61.1481C63.7654 61.1652 63.7774 61.1846 63.7871 61.2032L63.8125 61.2516C63.8289 61.2844 63.8461 61.3171 63.8632 61.3499C63.8983 61.4155 63.9312 61.4825 63.964 61.551C64.0312 61.6866 64.0947 61.8273 64.1567 61.9718C64.2799 62.2601 64.3919 62.5647 64.4845 62.8812C64.6704 63.5135 64.7735 64.1965 64.766 64.8728C64.7683 64.957 64.7615 65.0411 64.7593 65.1253C64.7571 65.2072 64.7496 65.2981 64.7339 65.3852C64.7033 65.5602 64.6361 65.733 64.5248 65.8775C64.4151 66.022 64.2597 66.136 64.088 66.1888C63.917 66.244 63.7378 66.2477 63.572 66.2201C63.4884 66.2082 63.4085 66.1836 63.3316 66.1598C63.2591 66.1345 63.1867 66.1092 63.1158 66.0846C62.9731 66.0362 62.835 65.9833 62.6991 65.9334C62.428 65.8321 62.1719 65.7301 61.933 65.6302C61.3154 65.3733 60.839 65.1417 60.4597 64.948C60.0818 64.7521 59.7988 64.5965 59.58 64.4684C59.141 64.2137 58.9461 64.0826 58.7415 63.9493C58.5384 63.813 58.3255 63.6744 57.8797 63.3609C57.767 63.2841 57.6423 63.1896 57.5004 63.092C57.36 63.0011 57.1793 62.9192 56.9687 62.9304C56.8642 62.9378 56.7552 62.9684 56.6536 63.0302C56.5513 63.0905 56.4542 63.1769 56.3833 63.2879C56.3109 63.3981 56.272 63.5366 56.272 63.6848C56.272 63.7593 56.284 63.8353 56.3042 63.912C56.3228 63.9872 56.3557 64.0654 56.387 64.1481C56.5147 64.4728 56.5842 64.6307 56.6028 64.6695C56.6215 64.7082 56.5909 64.6255 56.5289 64.4654C56.4983 64.385 56.461 64.2852 56.4177 64.1705C56.3968 64.1139 56.3721 64.0513 56.3512 63.9895C56.3295 63.9291 56.3154 63.8643 56.3049 63.7973C56.287 63.6625 56.3004 63.5173 56.3609 63.3862C56.4214 63.2558 56.5282 63.1441 56.6551 63.0659C56.7806 62.987 56.9247 62.9542 57.0606 62.9661C57.198 62.9766 57.3249 63.0294 57.431 63.0927C57.484 63.124 57.5325 63.159 57.5818 63.1955C57.6296 63.2305 57.6744 63.264 57.7155 63.2938C57.7991 63.3534 57.867 63.4018 57.9148 63.4361C58.0104 63.5054 58.0231 63.518 57.9171 63.448C57.8648 63.4123 57.7797 63.3579 57.6639 63.2774C57.6348 63.2573 57.6035 63.2357 57.5706 63.2126C57.5377 63.1896 57.5019 63.1635 57.4668 63.1419C57.3951 63.0972 57.3115 63.054 57.2152 63.025C57.0359 62.9676 56.847 62.9855 56.6865 63.0823C56.5222 63.1776 56.3968 63.3296 56.3512 63.5068C56.3288 63.5962 56.3243 63.6901 56.3363 63.7847C56.3422 63.8316 56.3527 63.8785 56.3654 63.9254C56.3721 63.9485 56.3803 63.9716 56.3878 63.9947L56.4154 64.0699C56.4901 64.271 56.5685 64.4706 56.6484 64.6695C56.9157 65.345 57.1868 65.9498 57.5004 66.5605C57.6572 66.8651 57.826 67.172 58.0127 67.487C58.1053 67.6449 58.2076 67.8036 58.3091 67.9682C58.4278 68.1581 58.5503 68.3547 58.6772 68.5573C58.5548 68.5521 58.4219 68.5461 58.2815 68.5394C58.1754 68.5357 58.0642 68.5312 57.9507 68.5275C57.6557 68.5193 57.3234 68.5111 56.9904 68.4798C56.9075 68.4724 56.8246 68.4627 56.7417 68.4515C56.6581 68.4389 56.5737 68.4225 56.4946 68.3949C56.334 68.3443 56.1921 68.2594 56.0719 68.1648C55.8322 67.9711 55.6859 67.7388 55.5948 67.5704C55.5052 67.4029 55.4477 67.2978 55.4409 67.2889C55.5089 67.4178 55.5679 67.5347 55.6276 67.6427C55.6889 67.7507 55.7523 67.8438 55.8158 67.9235C55.9427 68.0821 56.0667 68.1841 56.1615 68.2497C56.2564 68.316 56.3221 68.3465 56.3482 68.3614C56.3751 68.3763 56.3639 68.3733 56.3176 68.3532C56.2713 68.3338 56.1907 68.2921 56.0884 68.2192C55.9875 68.1447 55.8651 68.0359 55.7479 67.881C55.6889 67.8043 55.6299 67.7164 55.5761 67.6181C55.5246 67.522 55.4693 67.42 55.4103 67.3105C55.2961 67.0908 55.1684 66.8443 55.0385 66.5687C54.8018 66.0533 54.6748 65.7219 54.5755 65.4597C54.5277 65.3279 54.4851 65.2132 54.4478 65.0985C54.409 64.9838 54.3716 64.8698 54.3328 64.7395C54.5232 65.3048 54.6733 65.6422 54.7443 65.8097C54.8189 65.9766 54.8204 65.9714 54.7637 65.8336C54.7092 65.695 54.5971 65.4232 54.4665 65.0463C54.3358 64.6702 54.185 64.1898 54.0617 63.6364C53.9423 63.0831 53.8392 62.4582 53.8303 61.8035C53.8176 61.1503 53.8907 60.474 54.0304 59.832C54.0991 59.511 54.1857 59.1982 54.279 58.8996C54.3709 58.6001 54.4627 58.3119 54.5509 58.0371C54.7278 57.4882 54.8921 56.9981 55.028 56.6034C55.4193 55.4504 55.7381 54.5105 56.0032 53.7307C56.2661 52.9501 56.4617 52.3253 56.5946 51.8002C56.7283 51.2758 56.8037 50.8543 56.85 50.4864C56.8948 50.1184 56.915 49.8056 56.9127 49.4943C56.9105 49.1837 56.8911 48.8702 56.8508 48.5119C56.8284 48.3428 56.7522 48.1686 56.6014 48.036C56.4528 47.9057 56.231 47.8118 55.9861 47.7977C55.8636 47.791 55.7359 47.814 55.6142 47.8706C55.5537 47.8997 55.4955 47.9369 55.4395 47.9824C55.4111 48.0047 55.3849 48.03 55.3581 48.0561C55.3289 48.0851 55.2998 48.1142 55.2707 48.1432C55.0317 48.3756 54.7435 48.6147 54.3813 48.8158C54.2006 48.9156 54.002 49.0079 53.7847 49.0817C53.6764 49.1174 53.5637 49.1532 53.4457 49.1763C53.3867 49.1889 53.3277 49.2016 53.2672 49.215C53.2075 49.2277 53.1463 49.2433 53.0835 49.2485C52.628 49.32 52.1143 49.32 51.5759 49.2001ZM51.5759 49.2001C51.5259 49.1889 51.4758 49.1785 51.4258 49.1651C51.4803 49.18 51.5296 49.1912 51.5759 49.2001ZM65.3007 68.6109C65.3193 68.6117 65.3388 68.6117 65.3559 68.6131C65.4187 68.6206 65.4702 68.6392 65.5172 68.6735C65.5635 68.707 65.5994 68.7547 65.6188 68.8053C65.6382 68.8559 65.6419 68.9088 65.6255 68.9535C65.6091 68.999 65.5807 69.0377 65.5292 69.0727C65.4784 69.1077 65.4157 69.136 65.3522 69.1531C65.3208 69.1613 65.2887 69.1673 65.2581 69.1703C65.232 69.1725 65.1894 69.1717 65.1498 69.1717C64.9915 69.1717 64.834 69.1717 64.6779 69.1717C64.3658 69.1717 64.0619 69.1717 63.7669 69.1717H63.7684C62.5901 69.1717 61.5708 69.1695 60.8987 69.1583C62.384 69.1598 63.4033 69.1613 64.3785 69.1613C64.6219 69.1621 64.8631 69.1628 65.108 69.1643H65.1999C65.235 69.165 65.2492 69.1643 65.2753 69.1613C65.3231 69.1561 65.3731 69.1427 65.4209 69.1241C65.4679 69.1055 65.5135 69.0809 65.5493 69.0526C65.5844 69.0243 65.6061 68.9937 65.6203 68.9595C65.6479 68.8924 65.63 68.7979 65.5695 68.7256C65.5396 68.6891 65.5008 68.6593 65.4567 68.64L65.4231 68.6273L65.3873 68.6191C65.3619 68.6139 65.3328 68.6117 65.3014 68.6109C65.3007 68.6109 65.3007 68.6109 65.3007 68.6109ZM65.3007 68.6109C65.2544 68.6094 65.2058 68.6109 65.1513 68.6109M65.3007 68.6109C65.2521 68.6109 65.2014 68.6109 65.1513 68.6109M65.1513 68.6109C64.9101 68.6109 64.657 68.6109 64.3874 68.6109C64.551 68.6109 64.7152 68.6109 64.8788 68.6109H65.1252C65.1342 68.6109 65.1424 68.6109 65.1513 68.6109ZM62.0748 59.9043C62.2518 60.0093 62.4288 60.1158 62.6013 60.2275C62.3414 60.0607 62.0158 59.8633 61.6858 59.6808C61.3557 59.4976 61.0205 59.3315 60.7516 59.2079C60.7263 59.2019 60.9749 59.3159 61.3557 59.517C61.7366 59.7173 62.2458 60.013 62.7499 60.3467C62.6438 60.2715 62.3414 60.0726 62.1279 59.9445C61.915 59.8156 61.7971 59.7456 62.0756 59.9028L62.0748 59.9043ZM45.4983 52.7267C45.3886 52.7781 45.2026 52.9323 45.013 53.0633C45.2034 52.9323 45.29 52.8846 45.4983 52.7267ZM46.0367 49.9672L46.0658 49.9218C46.0367 49.9672 45.9904 50.032 45.9598 50.073C45.9643 50.0819 46.0307 50.0067 46.0912 49.9196C46.0726 49.9337 46.0098 50.0171 46.0367 49.9672ZM48.4382 47.6606C48.421 47.6383 48.4038 47.6159 48.3859 47.5891C48.3672 47.5601 48.3508 47.5325 48.3254 47.4826C48.2993 47.4327 48.2739 47.3724 48.2403 47.2927C48.2358 47.2823 48.2321 47.2726 48.2276 47.2614L48.2209 47.245L48.2171 47.2368C48.2171 47.2368 48.2142 47.2398 48.2119 47.2413C48.1977 47.2592 48.1828 47.2778 48.1671 47.2972C48.1343 47.3374 48.0977 47.3821 48.0573 47.4312C48.0237 47.4685 47.9969 47.499 47.9648 47.54C47.9326 47.5794 47.8983 47.6241 47.8632 47.6703C47.7945 47.7634 47.7221 47.8617 47.6631 47.9414C47.5451 48.1023 47.4786 48.1902 47.5802 48.004C47.5443 48.0367 47.5279 48.0554 47.4607 48.1298C47.342 48.3086 47.3211 48.3711 47.451 48.2133C47.4555 48.2214 47.3614 48.3458 47.2987 48.4292C47.1814 48.5596 47.0888 48.6363 46.9843 48.7398L46.8379 48.9156C46.6655 49.1934 47.1225 48.5991 46.9955 48.8128C46.7013 49.2128 46.8462 48.9327 46.5669 49.3096C46.3481 49.6001 45.8889 50.1907 46.0733 50.0373C45.8807 50.2778 45.7462 50.5273 45.5185 50.8007C45.4468 50.867 45.4782 50.7731 45.2713 51.0368C45.1384 51.29 45.1698 51.249 44.8532 51.7071C44.9398 51.6103 44.8763 51.7153 44.8367 51.786C44.7561 51.8933 44.6754 52.0013 44.5948 52.1085C44.6217 52.046 44.668 51.9588 44.724 51.8642L44.6396 51.9052C44.5567 52.0504 44.3476 52.3096 44.1908 52.5174C44.1236 52.5919 44.3245 52.3163 44.1632 52.5152C44.1505 52.542 44.1721 52.5316 44.143 52.5777C43.9967 52.7543 44.0422 52.6373 43.7502 53.0417L43.6674 53.187C43.5359 53.3598 43.4023 53.5341 43.2686 53.7091L42.9296 54.153L42.8863 54.2096L42.8751 54.2237C42.8721 54.2282 42.8729 54.2282 42.8721 54.2312L42.8684 54.2438L42.8534 54.293L42.8258 54.3906L42.8131 54.4382C42.8116 54.4487 42.8079 54.4479 42.8131 54.4576L42.843 54.4934L42.8579 54.5112C42.8624 54.5135 42.8654 54.5112 42.8691 54.5112L42.8915 54.5068L42.9356 54.4986L43.0237 54.4822L43.0677 54.474C43.07 54.4785 43.0954 54.4569 43.1133 54.4449L43.17 54.4032C43.3224 54.2908 43.4732 54.179 43.6233 54.0681C43.7084 54.0033 43.7928 53.9385 43.8764 53.8752C44.0064 53.8067 44.3409 53.5512 44.553 53.4119L44.55 53.3978C44.6807 53.3285 44.8636 53.1609 45.0107 53.0552L45.1339 52.9494C45.1713 52.8958 44.7546 53.216 44.8532 53.1051C45.122 52.8846 45.3415 52.7818 45.5678 52.5882C45.797 52.4124 45.7791 52.4437 45.9277 52.3439C45.9725 52.3267 45.8881 52.3886 45.912 52.3893C46.4377 52.0124 46.4243 51.9387 46.8865 51.6058C46.9096 51.6021 47.2927 51.354 46.9604 51.6177L46.7902 51.7264L46.6879 51.8195C46.8141 51.7272 47.044 51.5566 47.0261 51.5879C47.1628 51.427 47.9162 50.9898 47.5234 51.1872C47.3159 51.3548 47.2524 51.3987 47.1015 51.4851C47.5832 51.1254 47.9984 50.7955 48.3964 50.5013L48.5263 50.4327C48.5218 50.4096 48.7077 50.2547 48.8952 50.1102C48.9803 50.0536 49.0848 49.9747 49.0654 50.0015C49.1102 49.9844 48.3755 50.5191 48.7391 50.2979C49.1774 49.9643 49.6352 49.603 49.901 49.3692C49.6904 49.5181 49.5448 49.6321 49.3081 49.7706C48.7077 50.1847 48.088 50.6517 47.4891 51.0777C48.2806 50.4953 49.0729 49.9121 49.8689 49.326C49.8256 49.2992 49.7838 49.2716 49.742 49.2433C49.8084 49.2694 49.8607 49.2835 49.8935 49.2858C49.8764 49.2627 49.727 49.1629 49.6807 49.1197C49.5411 49.0377 49.4634 48.9983 49.2902 48.8426C49.1946 48.7443 49.0072 48.5484 48.8855 48.3838C48.8235 48.3026 48.7764 48.2304 48.7555 48.1917C48.7346 48.1529 48.7399 48.1462 48.7876 48.1909C48.6764 48.0159 48.6077 47.9086 48.5569 47.8275C48.5061 47.75 48.4703 47.7075 48.4374 47.6629L48.4382 47.6606Z" stroke="#11114C"/>
<path d="M50.7434 44.9026C50.7316 44.9097 50.7033 44.9725 50.6867 44.912C50.6922 44.9026 50.6946 44.8924 50.6985 44.8822C50.6922 44.8759 50.6875 44.872 50.6804 44.8626C50.6828 44.8783 50.6836 44.8901 50.6836 44.9034C50.682 44.9152 50.6781 44.9238 50.6702 44.9215C50.6977 44.9356 50.6781 44.9725 50.6631 44.9913C50.6458 45.0094 50.6356 45.0211 50.682 45.0094C50.6836 44.9701 50.6852 44.9631 50.7096 44.9395C50.708 45.0266 50.6718 45.113 50.6025 45.1648L50.5694 45.1593C50.5812 45.1789 50.5521 45.215 50.5127 45.2362C50.4939 45.2401 50.471 45.2464 50.4734 45.2354C50.4679 45.2307 50.5041 45.2166 50.5285 45.1993C50.5529 45.1813 50.5639 45.1648 50.5253 45.1632C50.4576 45.2072 50.3687 45.2401 50.3018 45.2692C50.2939 45.259 50.2852 45.2496 50.2821 45.2433C50.2435 45.2362 50.2207 45.2386 50.1821 45.2103C50.1664 45.1852 50.1239 45.1514 50.0994 45.1208C50.0743 45.0902 50.0664 45.0659 50.1018 45.0667C50.0845 45.0345 50.0735 45.0196 50.0609 45.0094C50.0467 44.9976 50.0317 44.9913 50.0176 44.9858C49.9892 44.9748 49.9609 44.9607 49.9546 44.8697C49.9672 44.8022 49.8593 44.6554 49.9452 44.7166C49.9514 44.7048 49.9514 44.6993 49.9554 44.6774C49.931 44.6405 49.9058 44.6342 49.9082 44.6758C49.8995 44.6774 49.8908 44.6467 49.8861 44.6271C49.8924 44.5887 49.9152 44.5588 49.9302 44.5251V44.478C49.8861 44.4215 49.9121 44.5698 49.8735 44.5282C49.8452 44.4317 49.9129 44.4803 49.89 44.3893C49.883 44.354 49.8751 44.2967 49.8649 44.2598C49.8554 44.2276 49.8444 44.2056 49.8153 44.2284C49.8184 44.2001 49.809 44.175 49.805 44.1467C49.7995 44.1185 49.8019 44.0879 49.8216 44.0612C49.846 44.0533 49.8688 44.0769 49.8995 44.0392C49.8908 44.0094 49.8869 43.9929 49.8908 43.9756C49.8948 43.9584 49.905 43.9372 49.9412 43.8971C49.916 43.9018 49.9247 43.8791 49.9326 43.861C49.9326 43.861 49.9326 43.861 49.9326 43.8602C49.9554 43.8461 49.9798 43.8328 50.0058 43.8218C49.9995 43.8422 49.9892 43.8642 49.9774 43.8854C49.9892 43.8963 50.001 43.9073 50.0121 43.9183C50.0262 43.8854 50.09 43.8736 50.1341 43.8657C50.1522 43.8704 50.0971 43.8901 50.142 43.8893C50.1451 43.8822 50.1396 43.8712 50.1483 43.8657C50.1687 43.8681 50.175 43.8791 50.1853 43.8877C50.1955 43.8963 50.2104 43.8995 50.2467 43.8979C50.2553 43.8916 50.2648 43.8846 50.2734 43.8791C50.3388 43.8901 50.3892 43.9325 50.4214 43.9866C50.438 44.0133 50.4521 44.0431 50.4639 44.0745C50.4781 44.1122 50.4946 44.1522 50.5135 44.1883C50.5017 44.2229 50.5356 44.2998 50.5372 44.3524L50.5505 44.3493C50.5372 44.3838 50.5789 44.4222 50.586 44.4576L50.6072 44.485C50.6324 44.4913 50.5923 44.3932 50.6316 44.4113C50.6694 44.4733 50.6332 44.5329 50.671 44.5847C50.6907 44.6397 50.6733 44.6373 50.6741 44.6734C50.6631 44.6852 50.6584 44.6648 50.6442 44.6719C50.6537 44.7354 50.6757 44.7653 50.6977 44.7935C50.719 44.821 50.7426 44.8532 50.7434 44.8987V44.9026ZM49.8885 44.2087C49.8798 44.2087 49.8704 44.2244 49.8774 44.2409C49.883 44.2362 49.8822 44.2205 49.8916 44.2284L49.8971 44.2362C49.8908 44.2284 49.8893 44.2166 49.8885 44.2095V44.2087ZM50.5773 44.4615C50.5828 44.5078 50.5742 44.5298 50.5907 44.5792C50.6088 44.5502 50.5828 44.5078 50.5773 44.4615Z" fill="#11114C"/>
</g>
</g>
<defs>
<clipPath id="clip0_15_1403">
<rect width="69.7949" height="70" fill="white"/>
</clipPath>
<clipPath id="clip1_15_1403">
<rect width="30" height="30" fill="white" transform="matrix(-1 0 0 1 70 40)"/>
</clipPath>
</defs>
</svg>
