<svg width="110" height="76" viewBox="0 0 110 76" fill="none" xmlns="http://www.w3.org/2000/svg">
<path d="M16.026 70.936H17.6593V54.4485H22.2121V53.1633H16.026V70.936Z" fill="white"/>
<path d="M30.6572 53.6496C30.0085 53.1402 29.0933 52.8854 27.9001 52.8854C26.7069 52.8854 25.8264 53.1402 25.1776 53.6496C24.5289 54.1591 24.0772 54.9232 23.8223 55.9305C23.5675 56.9378 23.4399 58.1767 23.4399 59.6472V64.4406C23.4399 65.911 23.5675 67.1615 23.8223 68.1572C24.0772 69.1645 24.5289 69.9171 25.1776 70.4381C25.8264 70.9592 26.7301 71.2023 27.9001 71.2023C29.0702 71.2023 30.0085 70.9476 30.6572 70.4381C31.306 69.9287 31.7577 69.1645 32.0126 68.1572C32.2674 67.1499 32.3949 65.911 32.3949 64.4406V59.6472C32.3949 58.1536 32.2674 56.9031 32.0126 55.9074C31.7577 54.9116 31.306 54.1591 30.6572 53.6496ZM30.7615 64.5101C30.7615 65.6331 30.7035 66.6057 30.5877 67.4278C30.4718 68.2499 30.2169 68.8751 29.7999 69.3151C29.3944 69.755 28.7574 69.975 27.8885 69.975C27.0197 69.975 26.3941 69.755 26.0002 69.3151C25.6064 68.8751 25.3399 68.2499 25.2356 67.4278C25.1313 66.6057 25.0618 65.6331 25.0618 64.5101V59.5893C25.0618 58.443 25.1198 57.4589 25.2356 56.6484C25.3515 55.8379 25.6064 55.2127 26.0002 54.7727C26.3941 54.3327 27.0313 54.1127 27.8885 54.1127C28.7458 54.1127 29.3828 54.3327 29.7999 54.7727C30.2053 55.2127 30.4718 55.8379 30.5877 56.6484C30.7035 57.4589 30.7615 58.4314 30.7615 59.5893V64.5101Z" fill="white"/>
<path d="M43.8057 53.1633H36.7622L36.3683 58.4199C36.2293 60.4114 36.0556 62.0786 35.8587 63.4101C35.6618 64.7532 35.4416 65.8416 35.1867 66.6868C34.9318 67.532 34.6191 68.192 34.26 68.6667C33.9009 69.153 33.4721 69.5235 32.9856 69.7898V75.0463H34.2831L34.4337 70.9245H43.9679L44.0953 75.0463H45.3812V69.7319H43.8173V53.1633H43.8057ZM42.207 69.7319H34.8276C35.3026 69.4193 35.6849 69.014 35.9977 68.5046C36.3105 67.9951 36.5538 67.3236 36.7391 66.49C36.9245 65.6563 37.0866 64.6143 37.2488 63.3522C37.3994 62.0902 37.5616 60.5503 37.7238 58.7209L38.1176 54.3906H42.207V69.7319Z" fill="white"/>
<path d="M57.9852 53.638C57.3597 53.1402 56.4329 52.8854 55.2049 52.8854C54.058 52.8854 53.1545 53.117 52.4942 53.5917C51.8338 54.0664 51.382 54.8306 51.1155 55.8842C50.8491 56.9378 50.7217 58.3388 50.7217 60.0756V64.2553C50.7217 65.5405 50.8144 66.7099 51.0113 67.7636C51.2082 68.8056 51.6252 69.6392 52.2624 70.2645C52.8995 70.8897 53.8843 71.2023 55.2165 71.2023C56.5487 71.2023 57.4639 70.9244 58.0779 70.3687C58.6918 69.8129 59.0973 69.0719 59.2827 68.1225C59.468 67.1846 59.5607 66.1079 59.5607 64.9269V64.2785H58.02V64.95C58.02 66.1194 57.9621 67.0689 57.8346 67.8099C57.7072 68.5509 57.4523 69.0951 57.0468 69.4424C56.6529 69.7898 56.0506 69.9634 55.2513 69.9634C54.0812 69.9634 53.3051 69.535 52.9344 68.6782C52.5521 67.8214 52.3667 66.4205 52.3667 64.4985V59.8903C52.3667 58.4778 52.4362 57.3547 52.5868 56.5094C52.7258 55.6642 53.0038 55.0622 53.4208 54.6801C53.8263 54.298 54.4404 54.1127 55.2397 54.1127C55.9 54.1127 56.4329 54.2401 56.8384 54.4948C57.2438 54.7495 57.5449 55.2011 57.7419 55.8495C57.9388 56.4979 58.0315 57.4241 58.0315 58.6283V59.3345H59.5723V58.6283C59.5723 57.5399 59.468 56.5673 59.2595 55.6874C59.051 54.819 58.634 54.1243 58.02 53.6264L57.9852 53.638Z" fill="white"/>
<path d="M68.5503 53.5917C67.9132 53.117 67.0443 52.8854 65.9322 52.8854C65.0054 52.8854 64.2061 53.0591 63.5227 53.4065C62.8392 53.7538 62.3063 54.4138 61.9356 55.3748C61.5649 56.3358 61.3794 57.7483 61.3794 59.6124V64.348C61.3794 66.1773 61.5533 67.5783 61.9124 68.574C62.2715 69.5698 62.7928 70.2529 63.4647 70.635C64.1366 71.0171 64.9475 71.2023 65.8974 71.2023C67.5772 71.2023 68.7356 70.7276 69.3612 69.7898C69.9867 68.8519 70.2996 67.613 70.2996 66.0963V64.9269H68.7009V66.2468C68.7009 67.3699 68.5619 68.2035 68.2723 68.7361C67.9827 69.2687 67.6235 69.6045 67.1949 69.755C66.7662 69.894 66.3376 69.975 65.909 69.975C65.2371 69.975 64.6811 69.8129 64.2525 69.4771C63.8239 69.153 63.511 68.5856 63.3141 67.7867C63.1171 66.9878 63.0245 65.8763 63.0245 64.4637V61.6386H70.3112V59.9482C70.3112 58.2462 70.1721 56.88 69.9172 55.8495C69.6508 54.819 69.1991 54.0664 68.5619 53.5917H68.5503ZM68.7009 60.6661H63.0129V59.3114C63.0129 57.8988 63.1171 56.8221 63.3257 56.0695C63.5342 55.3169 63.8585 54.8074 64.2987 54.5296C64.7389 54.2517 65.2835 54.1127 65.9438 54.1127C66.7895 54.1127 67.4034 54.3211 67.7857 54.738C68.1796 55.1548 68.4229 55.7569 68.5387 56.521C68.6546 57.2852 68.7125 58.2115 68.7125 59.2767V60.6545L68.7009 60.6661Z" fill="white"/>
<path d="M82.3128 53.1633L78.038 66.1658L73.7518 53.1633H72.5007L72.3385 70.936H73.7866L73.8444 57.3778L77.7832 69.0603H78.316L82.278 57.3084L82.336 70.936H83.7493L83.6335 53.1633H82.3128Z" fill="white"/>
<path d="M93.7469 62.0207C93.353 61.5112 92.7738 61.0944 92.044 60.7818C91.3026 60.4692 90.3294 60.3071 89.1246 60.3071H87.7113V53.1749H86.0779V70.9476H89.0319C90.2367 70.9476 91.2214 70.797 91.986 70.4844C92.739 70.1718 93.3298 69.7782 93.7237 69.2687C94.1291 68.7708 94.3955 68.2035 94.5577 67.5783C94.7083 66.953 94.7895 66.3278 94.7895 65.691C94.7895 65.0542 94.7199 64.3942 94.5693 63.7574C94.4303 63.1206 94.1523 62.5533 93.7585 62.0323L93.7469 62.0207ZM92.9359 67.7172C92.7273 68.3424 92.3336 68.8519 91.7312 69.234C91.1403 69.6276 90.2366 69.8129 89.0203 69.8129H87.6997V61.3839H89.0782C90.283 61.3839 91.1867 61.5923 91.7659 62.0091C92.3568 62.4259 92.7389 62.9585 92.9359 63.6069C93.1328 64.2553 93.2255 64.9384 93.2255 65.6563C93.2255 66.3741 93.1213 67.0804 92.9128 67.7056L92.9359 67.7172Z" fill="white"/>
<path d="M98.2879 67.8909V53.1633H96.8746V70.936H98.2533L104.497 56.3242V70.936H105.911V53.1633H104.567L98.2879 67.8909Z" fill="white"/>
<path d="M64.3799 34.1401V16.0317H71.8055V14.0865C71.8055 12.755 71.933 11.5393 72.1763 10.4278C72.4196 9.32784 72.8945 8.42473 73.578 7.74161C74.2615 7.05849 75.2114 6.71114 76.4394 6.71114C77.7368 6.71114 78.6869 7.17427 79.3009 8.07738C79.9148 8.99207 80.216 10.3004 80.216 12.014C80.216 13.5423 79.9727 14.9317 79.4977 16.2169C79.0227 17.4905 78.4088 18.7178 77.6674 19.8988C76.926 21.0798 76.1266 22.3187 75.2925 23.6155L63.8585 41.2724V46.8763H86.8887V40.5314H72.825L82.3128 26.1395C83.3438 24.6575 84.2937 23.2102 85.1742 21.7977C86.0546 20.3851 86.7496 18.9147 87.2941 17.3748C87.827 15.8348 88.0935 14.1097 88.0935 12.1993C88.0935 8.38999 87.0972 5.42595 85.1162 3.28396C83.1352 1.15355 80.1581 0.0883494 76.1961 0.0883494C73.3 0.0883494 70.96 0.678842 69.1644 1.85983C67.3688 3.04082 66.0713 4.67336 65.2488 6.74588C64.7391 8.04265 64.4031 9.48993 64.2061 11.053C64.0208 9.39731 63.6501 7.86897 63.0825 6.51431C62.2252 4.47653 60.9045 2.8903 59.1321 1.74405C57.3596 0.597795 55.0775 0.0304565 52.2972 0.0304565C49.5169 0.0304565 47.2347 0.597795 45.4622 1.74405C43.6898 2.8903 42.3807 4.47653 41.5235 6.51431C41.1991 7.30163 40.9443 8.14685 40.7474 9.0268C40.3303 6.69956 39.4382 4.77756 38.0481 3.28396C36.0671 1.15355 33.0899 0.0883494 29.128 0.0883494C26.2319 0.0883494 23.8919 0.678842 22.0962 1.85983C21.6445 2.16086 21.2273 2.48506 20.8334 2.83241C20.4396 2.47348 20.0225 2.14929 19.5707 1.85983C17.7867 0.678842 15.4351 0.0883494 12.539 0.0883494C8.57705 0.0883494 5.59974 1.15355 3.61877 3.28396C1.63781 5.41437 0.641602 8.38999 0.641602 12.1993C0.641602 14.1097 0.908049 15.8233 1.44094 17.3748C1.97383 18.9147 2.68043 20.3967 3.54927 21.7977C4.4297 23.2102 5.37967 24.6575 6.4107 26.1395L15.8984 40.5314L16.5588 41.585L19.8836 46.8763H39.7858V40.5314H25.7222L35.2099 26.1395C36.2409 24.6575 37.1908 23.2102 38.0713 21.7977C38.9517 20.3851 39.6469 18.9147 40.1913 17.3748C40.1913 17.3516 40.2029 17.3284 40.2145 17.3169V34.1517C40.2145 36.78 40.6662 39.1072 41.5582 41.1219C42.4503 43.1365 43.7826 44.7227 45.555 45.869C47.3274 47.0152 49.5632 47.5826 52.274 47.5826C54.9848 47.5826 57.2206 47.0152 58.9931 45.869C60.7655 44.7227 62.0977 43.1481 62.9897 41.1219C63.8817 39.1072 64.3335 36.78 64.3335 34.1517L64.3799 34.1401ZM32.4412 16.2285C31.9662 17.5021 31.3523 18.7294 30.6109 19.9104C29.8695 21.0914 29.0701 22.3303 28.236 23.627L20.8566 35.0085L13.4889 23.627C12.6548 22.3303 11.8554 21.0914 11.114 19.9104C10.3725 18.7294 9.75861 17.5021 9.28365 16.2285C8.80868 14.9549 8.56541 13.5539 8.56541 12.0256C8.56541 10.312 8.86665 8.99207 9.48063 8.08896C10.0946 7.17427 11.0445 6.72272 12.342 6.72272C13.5584 6.72272 14.5083 7.07007 15.2033 7.75319C15.8868 8.43631 16.3619 9.33942 16.6052 10.4394C16.8484 11.5393 16.9758 12.7666 16.9758 14.0981V16.0433H24.749V14.0981C24.749 12.7666 24.8765 11.5509 25.1198 10.4394C25.3631 9.33942 25.838 8.43631 26.5215 7.75319C27.205 7.07007 28.1549 6.72272 29.3828 6.72272C30.6803 6.72272 31.6304 7.18585 32.2443 8.08896C32.8583 9.00364 33.1594 10.312 33.1594 12.0256C33.1594 13.5539 32.9162 14.9433 32.4412 16.2285ZM56.375 34.0244C56.375 35.0201 56.2823 36.0274 56.0853 37.0579C55.8884 38.0883 55.5177 38.9683 54.9385 39.6862C54.3708 40.4156 53.4904 40.7745 52.3088 40.7745C51.1271 40.7745 50.3047 40.4156 49.737 39.6862C49.1694 38.9683 48.7755 38.0883 48.567 37.0579C48.3584 36.0274 48.2542 35.0201 48.2542 34.0244V13.7392C48.2542 12.674 48.3352 11.6203 48.509 10.5667C48.6828 9.52467 49.0536 8.63314 49.6212 7.91528C50.1888 7.19743 51.0924 6.82692 52.3088 6.82692C53.5251 6.82692 54.4287 7.18585 54.9963 7.91528C55.564 8.64472 55.9348 9.52467 56.1085 10.5667C56.2823 11.6088 56.3634 12.674 56.3634 13.7392V34.0244H56.375Z" fill="white"/>
<path d="M105.853 29.2309V0.609375H96.6545L84.595 28.7678V35.5064H98.427V46.8763H105.853V35.5064H110V29.2194H105.853V29.2309ZM98.427 29.2309H91.2213L98.427 9.11943V29.2309Z" fill="white"/>
</svg>
