<svg width="151" height="57" viewBox="0 0 151 57" fill="none" xmlns="http://www.w3.org/2000/svg">
<path d="M95.2868 8.29372C95.5996 8.67581 96.3062 8.87264 97.3952 8.87264H99.7005L100.349 5.88544H98.1018H98.0207C97.1403 5.88544 96.4684 6.0128 96.005 6.25594C95.5416 6.49909 95.2636 6.89275 95.1478 7.44851C95.0667 7.80744 95.1246 8.07374 95.2984 8.29372H95.2868Z" fill="white"/>
<path d="M35.1513 0.374152L31.3863 17.8921L119.429 17.8574L123.009 0.339417L35.1513 0.374152ZM47.3267 6.77695C47.1181 7.73795 46.6548 8.49055 45.9481 8.98841C45.2414 9.48628 44.3147 9.75258 43.2026 9.72942H39.9241L38.9394 14.3144C38.8236 14.8818 38.4645 15.1712 37.9316 15.1828H37.92C37.642 15.1828 37.445 15.1018 37.3292 14.9512C37.2018 14.7891 37.167 14.5576 37.2365 14.2565L39.2522 4.90127C39.3101 4.61181 39.4376 4.38025 39.5997 4.21815C39.7735 4.05605 39.9821 3.96343 40.2485 3.96343H43.5617C45.0792 3.975 46.1219 4.19499 46.7243 4.63497C47.3383 5.08652 47.5468 5.80438 47.3383 6.76538L47.3267 6.77695ZM57.4632 8.18951L56.8376 11.1072C56.6638 11.9409 56.3047 12.6819 55.8066 13.3071C55.2969 13.9323 54.6597 14.4186 53.8951 14.7544C53.1537 15.0786 52.3196 15.2523 51.4276 15.2523H51.3697C50.4545 15.2523 49.6667 15.0786 49.0528 14.7313C48.4272 14.3839 47.987 13.886 47.7437 13.2376C47.5004 12.6008 47.4773 11.8598 47.651 11.0146L48.2766 8.09688C48.462 7.26324 48.8095 6.52223 49.3076 5.897C49.8173 5.27177 50.4661 4.78549 51.2191 4.44971C51.9837 4.11394 52.8525 3.94027 53.7445 3.95185C54.6597 3.95185 55.4475 4.12552 56.0614 4.47287C56.687 4.82022 57.1272 5.31809 57.3705 5.96647C57.6138 6.60328 57.6369 7.34429 57.4632 8.18951ZM68.9551 6.34856C68.7697 7.20535 68.2716 7.37903 67.9009 7.37903C67.6228 7.37903 67.4259 7.27482 67.2985 7.07799C67.1826 6.89274 67.171 6.64959 67.229 6.33698C67.2985 6.01279 67.2521 5.90858 67.229 5.88542C67.2174 5.86227 67.1363 5.7928 66.8235 5.7928H64.1822C63.3945 5.78122 62.8152 5.82753 62.4329 5.90858C62.0738 5.98963 61.8074 6.14015 61.6336 6.36014C61.4483 6.5917 61.3092 6.96221 61.205 7.46007L60.255 11.8367C60.1508 12.3461 60.1392 12.705 60.2203 12.925C60.3014 13.1219 60.5099 13.2608 60.8574 13.3419C61.2397 13.4345 61.8885 13.4692 62.7805 13.4808H65.109C65.3523 13.4808 65.5029 13.4461 65.5955 13.3766C65.6535 13.3303 65.7461 13.2029 65.8041 12.8903C65.8736 12.5893 65.9894 12.3461 66.1748 12.1724C66.3601 11.9988 66.5802 11.9061 66.8467 11.9061C67.1015 11.9061 67.2869 11.9872 67.4027 12.1377C67.5533 12.323 67.5881 12.6124 67.4954 13.0061C67.3448 13.7124 67.0552 14.2565 66.6266 14.6039C66.2095 14.9512 65.6535 15.1249 64.9584 15.1249H62.4793C61.3324 15.1249 60.452 15.0091 59.838 14.8007C59.2008 14.5923 58.7838 14.2334 58.5753 13.7471C58.3783 13.2724 58.3668 12.6124 58.5405 11.7904L59.5021 7.34429C59.6758 6.54539 59.9539 5.897 60.3361 5.43387C60.7184 4.95916 61.2513 4.62339 61.9232 4.41498C62.5835 4.20657 63.4292 4.10237 64.4834 4.11394H67.2405C67.9588 4.11394 68.4685 4.31078 68.7581 4.6697C69.0361 5.02863 69.1057 5.58439 68.9435 6.3254L68.9551 6.34856ZM79.8909 6.38329C79.7055 7.22851 79.219 7.41376 78.8483 7.41376C78.5703 7.41376 78.3733 7.30956 78.2459 7.11273C78.13 6.92747 78.1185 6.68433 78.1764 6.37171C78.2459 6.04752 78.1995 5.94332 78.1764 5.92016C78.1648 5.897 78.0837 5.82753 77.7709 5.82753H75.1412C74.3535 5.82753 73.7626 5.86227 73.3919 5.94332C73.0328 6.02436 72.7664 6.17488 72.5926 6.39487C72.4189 6.62644 72.2682 6.99694 72.164 7.49481L71.2141 11.8714C71.1098 12.3809 71.0982 12.7398 71.1793 12.9598C71.2604 13.1566 71.4689 13.2955 71.8165 13.3766C72.1987 13.4692 72.8475 13.504 73.7395 13.5155H76.068C76.3576 13.5155 76.4966 13.4576 76.5545 13.4113C76.6125 13.365 76.7051 13.2376 76.7747 12.925C76.8442 12.624 76.96 12.3809 77.1453 12.2072C77.3307 12.0335 77.5624 11.9409 77.8288 11.9409C78.0837 11.9409 78.2691 12.0219 78.3849 12.1724C78.5355 12.3577 78.5703 12.6472 78.4776 13.0408C78.327 13.7471 78.0374 14.2913 77.6087 14.6386C77.1917 14.986 76.624 15.1596 75.929 15.1596H73.4499C72.303 15.1596 71.4226 15.0439 70.8086 14.8355C70.1714 14.627 69.7544 14.2681 69.5459 13.7818C69.3489 13.3071 69.3374 12.6472 69.5111 11.8251L70.4726 7.37903C70.6464 6.58012 70.9244 5.93174 71.3067 5.46861C71.689 4.9939 72.2219 4.65812 72.8938 4.44971C73.5541 4.2413 74.423 4.14868 75.454 4.14868H78.2111C78.9294 4.14868 79.4391 4.34551 79.7287 4.70444C80.0067 5.06337 80.0762 5.61912 79.9141 6.36014L79.8909 6.38329ZM88.3129 15.3333C88.0348 15.3333 87.8379 15.2523 87.7105 15.1018C87.583 14.9397 87.5483 14.7197 87.6178 14.4186L89.1933 7.13588L81.8024 14.8007C81.617 14.9976 81.4548 15.1249 81.3274 15.1944C81.1884 15.2639 81.0262 15.2986 80.8177 15.2986C80.5512 15.2986 80.3659 15.2175 80.25 15.0786C80.1226 14.9165 80.0878 14.6734 80.1573 14.3492L82.173 4.98232C82.3352 4.22973 82.8102 4.06763 83.1925 4.06763C83.4474 4.06763 83.6443 4.14868 83.7601 4.2992C83.8992 4.47287 83.9339 4.73917 83.8528 5.0981L82.3005 12.2767L89.7841 4.54234C90.0853 4.2413 90.3865 4.09079 90.7109 4.09079C90.9658 4.09079 91.1511 4.16026 91.2669 4.31078C91.406 4.48445 91.4291 4.72759 91.3596 5.06337L89.3439 14.4302C89.2165 15.0091 88.8689 15.3217 88.3245 15.3217L88.3129 15.3333ZM102.226 5.24862L100.233 14.4997C100.118 15.067 99.77 15.3565 99.2371 15.3681C98.9475 15.3681 98.739 15.287 98.6116 15.1365C98.4841 14.9744 98.4494 14.7428 98.5189 14.4534L99.3646 10.5515H97.0824C96.5843 10.5515 96.1788 10.621 95.9008 10.783C95.6227 10.9451 95.391 11.2114 95.2057 11.5935L94.4411 13.1334C94.0936 13.805 93.6418 14.3492 93.0973 14.7428C92.5412 15.1481 91.9736 15.3565 91.3944 15.3565C91.0121 15.3565 90.7572 15.2639 90.6182 15.0902C90.5024 14.9397 90.4676 14.7428 90.514 14.4997C90.595 14.1408 90.8615 13.7355 91.684 13.7239C91.8578 13.7239 92.0431 13.6313 92.2516 13.4692C92.4602 13.284 92.6223 13.0987 92.715 12.925L93.5607 11.2346C93.804 10.7715 94.1167 10.3778 94.499 10.042C93.5143 9.49786 93.1552 8.60633 93.4217 7.36745C93.6418 6.36014 94.1863 5.58439 95.0551 5.05179C95.8892 4.53076 96.9897 4.26446 98.3219 4.26446H101.6C101.844 4.26446 102.029 4.34551 102.145 4.49603C102.284 4.6697 102.319 4.92443 102.238 5.28335L102.226 5.24862ZM116.985 10.5978C116.938 10.8178 116.834 10.9799 116.695 11.1072C116.544 11.223 116.359 11.2809 116.139 11.2809L109.71 11.2578C109.489 11.2578 109.316 11.1883 109.2 11.0493C109.084 10.9104 109.049 10.7367 109.096 10.5167C109.142 10.2968 109.246 10.1231 109.397 10.0073C109.547 9.89152 109.733 9.83363 109.953 9.83363L116.382 9.85679C116.614 9.85679 116.788 9.92625 116.904 10.0536C117.008 10.181 117.043 10.3662 116.996 10.5978H116.985Z" fill="white"/>
<path d="M44.9287 5.75806C44.5695 5.68859 44.0019 5.65385 43.2373 5.64227H40.793L40.2717 8.07372H42.6581C43.805 8.07372 44.558 7.99267 44.9171 7.81899C45.253 7.66848 45.4731 7.34428 45.589 6.83484C45.6585 6.49907 45.6585 6.24434 45.5658 6.08225C45.4731 5.93173 45.2646 5.81595 44.9402 5.74648L44.9287 5.75806Z" fill="white"/>
<path d="M53.4433 5.60754H53.397C52.4702 5.60754 51.7056 5.83911 51.1264 6.26751C50.5356 6.70748 50.1533 7.36745 49.9679 8.21266L49.3655 11.0262C49.1802 11.8598 49.2844 12.5082 49.6667 12.9366C50.049 13.3766 50.7209 13.5966 51.6709 13.5966C52.6092 13.5966 53.397 13.3766 53.9878 12.9366C54.5786 12.4966 54.9609 11.8367 55.1462 10.9915L55.7602 8.17793C55.934 7.36745 55.8413 6.73064 55.4706 6.25593C55.0883 5.82753 54.4048 5.60754 53.4549 5.60754H53.4433Z" fill="white"/>
<path d="M104.334 30.0146H107.439L106.663 26.3558L104.334 30.0146Z" fill="white"/>
<path d="M82.1035 29.9335L85.2198 29.9451L84.4321 26.2864L82.1035 29.9335Z" fill="white"/>
<path d="M76.3808 25.3717C76.0216 25.3022 75.454 25.2675 74.6894 25.2559H72.2451L71.7122 27.6874H74.0986C75.2455 27.6989 75.9985 27.6063 76.3576 27.4326C76.6936 27.2821 76.9137 26.9579 77.0295 26.4485C77.099 26.1127 77.099 25.858 77.0063 25.6959C76.9137 25.5454 76.7051 25.4296 76.3808 25.3717Z" fill="white"/>
<path d="M46.7011 19.7099L42.8898 37.4016H115.143L118.954 19.7099H46.7011ZM59.4209 25.8348C59.2356 26.68 58.749 26.8653 58.3783 26.8653C58.1003 26.8653 57.9034 26.7611 57.7759 26.5643C57.6601 26.379 57.6369 26.1359 57.7064 25.8232C57.7759 25.4875 57.7296 25.3948 57.7064 25.3717C57.6948 25.3485 57.6137 25.2791 57.301 25.2791H54.6597C53.8719 25.2791 53.2927 25.3138 52.9104 25.3948C52.5513 25.4759 52.2848 25.6264 52.1111 25.8464C51.9257 26.078 51.7867 26.4485 51.6825 26.9463L50.7325 31.3229C50.6283 31.8208 50.6051 32.1913 50.6978 32.4113C50.7789 32.6081 50.9874 32.7471 51.3349 32.8281C51.7172 32.9207 52.3659 32.9555 53.258 32.9671H55.5864C55.8066 32.9671 55.9803 32.9323 56.073 32.8629C56.1309 32.8165 56.2236 32.6892 56.2931 32.3766C56.3626 32.0755 56.4785 31.8324 56.6638 31.6587C56.8492 31.485 57.0693 31.3924 57.3357 31.3924C57.5906 31.3924 57.7759 31.485 57.8918 31.6356C58.0424 31.8208 58.0656 32.1103 57.9845 32.5039C57.8339 33.2102 57.5443 33.7544 57.1156 34.1017C56.6986 34.4491 56.1425 34.6228 55.4474 34.6228H52.9683C51.8331 34.6228 50.941 34.507 50.3271 34.2986C49.6899 34.0902 49.2729 33.7312 49.0643 33.2449C48.8674 32.7702 48.8558 32.1103 49.0296 31.2882L49.9911 26.8421C50.1649 26.0432 50.4429 25.3949 50.8252 24.9317C51.2075 24.457 51.7404 24.1212 52.4123 23.9128C53.0726 23.7044 53.9299 23.6118 54.9725 23.6118H57.7296C58.4478 23.6234 58.9576 23.8086 59.2472 24.1791C59.5252 24.5381 59.5947 25.0938 59.4325 25.8348H59.4209ZM68.0978 25.3254H65.7461L63.8926 33.9165C63.8347 34.1712 63.7072 34.3796 63.4871 34.5417C63.2786 34.7038 63.0353 34.7849 62.7573 34.7849H62.7457C62.4561 34.7849 62.236 34.7038 62.097 34.5417C61.958 34.3796 61.9232 34.148 61.9811 33.8702L63.8231 25.3254H61.483C61.1818 25.3254 60.9501 25.2328 60.8111 25.0822C60.6605 24.9201 60.6026 24.7117 60.6605 24.457C60.7068 24.2139 60.8459 24.017 61.0428 23.8781C61.2397 23.7391 61.4946 23.6581 61.7842 23.6697L68.3874 23.6928C68.7349 23.6928 68.9782 23.7739 69.1172 23.9476C69.2331 24.0981 69.2678 24.2949 69.2099 24.5496C69.1288 24.9086 68.874 25.337 68.0978 25.3485H68.0746L68.0978 25.3254ZM74.6431 29.3546H71.3646L70.3684 33.9281C70.2409 34.4838 69.8934 34.7849 69.3605 34.7849H69.3489C69.0709 34.7849 68.8739 34.7038 68.7581 34.5533C68.6307 34.3912 68.5959 34.1596 68.6654 33.8586L70.6811 24.5033C70.7391 24.2139 70.8665 23.9823 71.0287 23.8202C71.2025 23.6581 71.4341 23.5771 71.6774 23.5771H74.9906C76.5082 23.5886 77.5508 23.8086 78.1532 24.2486C78.7672 24.7002 78.9757 25.418 78.7672 26.379C78.5587 27.3516 78.0953 28.0926 77.3886 28.5905C76.682 29.0883 75.7436 29.3431 74.6431 29.3315V29.3546ZM87.8147 34.3101C87.7684 34.4954 87.6526 34.6575 87.4556 34.808C87.2703 34.947 87.0617 35.0164 86.8416 35.0164C86.4246 35.0164 86.1581 34.7964 86.0886 34.3796L85.5673 31.6124H81.0609L79.3232 34.4028C79.0568 34.7964 78.7324 34.9933 78.3617 34.9933C78.13 34.9933 77.9447 34.9122 77.7941 34.7733C77.6435 34.6228 77.5855 34.4375 77.6319 34.2407C77.6666 34.067 77.7246 33.9165 77.7825 33.7891L84.1308 23.7392H85.8685L85.8917 23.8549L87.8726 33.8702C87.8842 34.0091 87.8726 34.1596 87.8379 34.3333L87.8147 34.3101ZM97.4878 34.8891H97.4763C97.2098 34.8891 97.0129 34.808 96.8855 34.6575C96.758 34.4954 96.7233 34.2523 96.7928 33.9281L97.7079 29.6788L91.9388 29.6557L91.0121 33.9628C90.8846 34.5417 90.5371 34.8543 89.9926 34.8543H89.981C89.7146 34.8543 89.5177 34.7733 89.3902 34.6228C89.2628 34.4607 89.2281 34.2175 89.2976 33.8933L91.3249 24.5265C91.487 23.7739 91.9504 23.6118 92.3095 23.6118C92.5876 23.6118 92.7961 23.6928 92.9235 23.8434C93.0625 24.0055 93.0857 24.2602 93.0278 24.5728L92.2864 27.9768L98.0555 28L98.8085 24.5381C98.9707 23.7855 99.4456 23.6234 99.8279 23.6234C100.094 23.6234 100.291 23.7044 100.407 23.8549C100.546 24.017 100.569 24.2718 100.5 24.5959L98.4725 33.9628C98.3451 34.5417 97.9976 34.8543 97.4531 34.8543L97.4878 34.8891ZM110.057 34.3796C110.011 34.5649 109.895 34.727 109.698 34.8659C109.513 35.0048 109.304 35.0743 109.072 35.0743C108.644 35.0743 108.389 34.8543 108.308 34.4375L107.787 31.6703H103.28L101.531 34.4607C101.264 34.8543 100.94 35.0512 100.558 35.0512C100.326 35.0512 100.129 34.9701 99.9901 34.8312C99.8395 34.6807 99.7816 34.4954 99.8279 34.2986C99.8627 34.1249 99.9206 33.9744 99.9785 33.847L106.327 23.797H108.065L108.088 23.9128L110.069 33.9281C110.08 34.067 110.069 34.2175 110.034 34.3912L110.057 34.3796Z" fill="white"/>
<path d="M94.7539 44.1633H94.696C93.7692 44.1633 93.0046 44.3948 92.4254 44.8232C91.8346 45.2632 91.4523 45.9232 91.2669 46.7684L90.653 49.5819C90.4676 50.4156 90.5719 51.0639 90.9541 51.4923C91.3364 51.9323 92.0084 52.1523 92.9583 52.1523C93.8966 52.1523 94.6844 51.9323 95.2752 51.4923C95.866 51.0524 96.2483 50.3924 96.4337 49.5472L97.0476 46.7337C97.2214 45.9232 97.1287 45.2864 96.7696 44.8117C96.3873 44.3833 95.7038 44.1633 94.7539 44.1633Z" fill="white"/>
<path d="M24.2154 43.9318H24.1575C23.2307 43.9318 22.4662 44.1633 21.8869 44.5917C21.2961 45.0317 20.9138 45.6917 20.7285 46.5369L20.1145 49.3504C19.9291 50.184 20.0334 50.8324 20.4157 51.2608C20.798 51.7008 21.4699 51.9208 22.4198 51.9208C23.3698 51.9208 24.1459 51.7008 24.7367 51.2608C25.3275 50.8209 25.7098 50.1609 25.8952 49.3157L26.5092 46.5021C26.683 45.6917 26.5903 45.0549 26.2312 44.5801C25.8489 44.1517 25.1654 43.9318 24.2154 43.9318Z" fill="white"/>
<path d="M14.438 48.3546C14.1021 48.2736 13.5345 48.2273 12.7699 48.2157H9.54938L8.78479 51.7239H11.6462C12.5266 51.7239 13.1753 51.6892 13.604 51.6081C13.9979 51.5271 14.299 51.3766 14.4728 51.1682C14.6582 50.9482 14.8088 50.5892 14.913 50.0914L14.9709 49.8251C15.0752 49.3272 15.0868 48.9683 15.0173 48.7599C14.9478 48.563 14.7624 48.4241 14.4496 48.3431L14.438 48.3546Z" fill="white"/>
<path d="M4.7302 39.2194L0.96521 56.7373H147.174L150.939 39.2194H4.7302ZM134.686 40.9677L134.86 40.1456H136.586L136.343 41.2919C136.285 41.5698 136.308 41.6392 136.308 41.6508C136.308 41.6508 136.377 41.6855 136.632 41.6855H138.405H138.416C138.683 41.6855 138.752 41.6392 138.764 41.6277C138.775 41.6277 138.845 41.5466 138.903 41.2456L139.134 40.1688H140.86L140.675 41.0487C140.49 41.894 140.212 42.4844 139.853 42.8318C139.494 43.1676 138.949 43.3412 138.254 43.3528H136.18C135.451 43.3528 134.964 43.156 134.744 42.7855C134.512 42.415 134.501 41.8245 134.674 40.9793L134.686 40.9677ZM16.9403 45.3327C16.7781 46.0506 16.4769 46.6411 16.0136 47.0695C16.7434 47.6136 16.9751 48.5515 16.6855 49.8482L16.616 50.1609C16.4422 50.9713 16.1526 51.6197 15.7471 52.0944C15.3417 52.5691 14.7856 52.9049 14.0789 53.1133C13.4186 53.2986 12.5498 53.4028 11.4956 53.4028C11.4377 53.4028 11.3913 53.4028 11.3334 53.4028H7.55683C7.29039 53.3912 7.09345 53.2986 6.97761 53.1133C6.87334 52.9397 6.85016 52.7081 6.90808 52.4071L8.86588 43.3181C8.9238 43.0286 9.05124 42.7971 9.21342 42.635C9.38719 42.4729 9.6073 42.3918 9.85057 42.3802H13.1174C14.16 42.3918 14.9825 42.496 15.5734 42.6929C16.1873 42.8897 16.6044 43.2139 16.8129 43.6539C17.0214 44.0823 17.0562 44.6496 16.9172 45.3443L16.9403 45.3327ZM28.2353 46.5137L27.6097 49.4314C27.4244 50.2651 27.0768 51.0061 26.5787 51.6313C26.069 52.2565 25.4318 52.7428 24.6672 53.0786C23.9258 53.4028 23.0917 53.5765 22.1997 53.5765H22.1418C21.215 53.5765 20.4389 53.4028 19.8133 53.0554C19.1877 52.7081 18.7475 52.2102 18.5043 51.5618C18.261 50.925 18.2378 50.1724 18.4116 49.3388L19.0371 46.4211C19.2225 45.5874 19.57 44.8464 20.0682 44.2212C20.5779 43.596 21.215 43.1097 21.9796 42.7739C22.7442 42.4381 23.5899 42.276 24.5051 42.276C25.4202 42.276 26.208 42.4497 26.822 42.7971C27.4475 43.1444 27.8878 43.6423 28.131 44.2907C28.3743 44.9275 28.3975 45.6685 28.2237 46.5137H28.2353ZM39.2522 45.5527C39.0437 46.5021 38.534 47.2779 37.7115 47.8452C38.2675 48.4936 38.4413 49.3156 38.2212 50.2882C38.0938 50.8903 37.8157 51.4461 37.3987 51.9323C36.9816 52.4186 36.4719 52.7891 35.8579 53.067C35.2671 53.3333 34.6184 53.4607 33.9465 53.4723H30.4827C29.6949 53.4607 29.1736 53.2523 28.9304 52.8586C28.6871 52.4649 28.6639 51.8281 28.8609 50.9019C29.0346 50.1146 29.5328 49.964 29.9035 49.9525C30.1699 49.9525 30.3553 50.0335 30.4827 50.184C30.6217 50.3577 30.6565 50.6124 30.5754 50.9598L30.5059 51.2608C30.4248 51.6313 30.4711 51.7239 30.4827 51.7355C30.4827 51.7471 30.5638 51.8166 30.8997 51.8166H34.0739H34.0971C34.6763 51.8166 35.2092 51.6429 35.6726 51.3187C36.136 50.9829 36.414 50.5893 36.5183 50.1146C36.6109 49.6746 36.5183 49.3272 36.2286 49.0493C35.9274 48.7715 35.4756 48.6209 34.8848 48.6209H33.3904C33.0081 48.6209 32.7533 48.5283 32.6143 48.3431C32.4984 48.1926 32.4636 47.9957 32.5216 47.7526C32.6027 47.3936 32.8691 46.9652 33.68 46.9537H35.186C35.8232 46.9537 36.3329 46.8263 36.75 46.5716C37.167 46.3169 37.4103 45.9927 37.4914 45.5874C37.584 45.1475 37.4914 44.8001 37.1786 44.5222C36.8658 44.2443 36.3908 44.0938 35.7884 44.0938H32.6143C32.3015 44.0823 32.174 44.1401 32.1277 44.1865C32.0698 44.2328 31.9887 44.3601 31.9192 44.6959L31.8497 44.9969C31.6875 45.7727 31.2009 45.9464 30.8186 45.9464C30.5522 45.9464 30.3668 45.8653 30.2394 45.7148C30.1004 45.5411 30.0657 45.2864 30.1467 44.939C30.3437 44.0359 30.6449 43.3876 31.0387 43.0055C31.4442 42.6234 32.035 42.4497 32.8112 42.4381H36.2286C36.9353 42.4497 37.5493 42.5771 38.0474 42.8318C38.5456 43.0865 38.9163 43.457 39.1248 43.9202C39.3333 44.3833 39.3796 44.9275 39.2406 45.5295L39.2522 45.5527ZM51.4044 43.376L49.3771 52.7428C49.2497 53.3217 48.9022 53.6344 48.3577 53.6344H48.3461C48.0797 53.6344 47.8943 53.5533 47.7669 53.4028C47.6279 53.2291 47.5931 52.9744 47.6742 52.627L49.2497 45.3559L46.145 48.6209C45.9249 48.7946 45.7048 48.8757 45.4616 48.8757C45.2067 48.8757 44.9982 48.783 44.836 48.5978L43.133 45.2864L41.546 52.6618C41.3722 53.4491 40.8972 53.6228 40.5033 53.6112C40.2369 53.6112 40.04 53.5302 39.9125 53.3796C39.7851 53.2175 39.7503 52.9744 39.8199 52.6502L41.8472 43.2833C42.0093 42.5308 42.4727 42.3687 42.8319 42.3687C43.1678 42.3687 43.4343 42.5423 43.5964 42.8781L45.7975 47.0231L49.8289 42.855C50.1301 42.5539 50.4313 42.4034 50.7325 42.4034C50.9874 42.4034 51.1843 42.4844 51.3002 42.6234C51.4392 42.7855 51.4624 43.0402 51.3928 43.376H51.4044ZM60.3477 51.7471C59.838 52.3723 59.2009 52.8586 58.4363 53.1944C57.6949 53.5186 56.8608 53.6922 55.9688 53.6922H55.9108C54.9956 53.6922 54.2079 53.5186 53.5939 53.1712C52.9683 52.8239 52.5281 52.326 52.2849 51.6776C52.0416 51.0408 52.0184 50.2882 52.1922 49.4546L52.8177 46.5368C53.0031 45.7032 53.3506 44.9622 53.8604 44.337C54.3701 43.7117 55.0072 43.2255 55.7718 42.8897C56.5364 42.5539 57.3821 42.3918 58.2972 42.3918C59.2124 42.3918 60.0002 42.5655 60.6142 42.9128C61.2397 43.2602 61.6915 43.7581 61.9232 44.4064C62.1665 45.0433 62.1897 45.7843 62.0159 46.6295L61.3903 49.5472C61.205 50.3808 60.8574 51.1219 60.3593 51.7471H60.3477ZM76.0448 44.6149C75.8131 44.638 75.5351 44.8233 75.2107 45.1706C74.84 45.5295 74.3766 46.0621 73.8322 46.7684C73.3919 47.3126 72.9981 47.7526 72.6737 48.0768C72.9401 48.2273 73.1834 48.4241 73.3919 48.6557C73.6468 48.9336 73.809 49.2462 73.9017 49.5704C74.0986 50.184 74.2029 50.8092 74.2145 51.4113C74.2145 51.6545 74.2145 51.8281 74.2724 51.9439C74.2955 52.0018 74.3303 52.0597 74.3651 52.0597C74.6663 52.0597 74.8979 52.1408 75.0601 52.2913C75.2339 52.4534 75.2918 52.6734 75.2455 52.9165C75.1644 53.2754 74.8979 53.7038 74.0523 53.7154H74.0291C73.473 53.7154 73.0328 53.5533 72.6853 53.2407C72.3493 52.9281 72.1524 52.4997 72.0945 51.9439C72.0713 51.7355 72.0481 51.585 72.0481 51.4808C71.9786 51.0061 71.9207 50.6124 71.8396 50.3461C71.7701 50.0914 71.6427 49.8482 71.4689 49.6398C71.2141 49.3967 70.8202 49.2693 70.2989 49.2693H70.2873L69.5227 52.8239C69.4648 53.0786 69.3373 53.287 69.1288 53.4491C68.9319 53.6112 68.6886 53.6922 68.4337 53.6922C68.1673 53.6922 67.9704 53.5996 67.8429 53.4259C67.7155 53.2523 67.6808 53.0323 67.7387 52.7776L68.4917 49.2693C68.0283 49.2693 67.5997 49.3967 67.2174 49.6283C66.8235 49.8714 66.4991 50.2303 66.2443 50.6935C66.0705 50.9945 65.8272 51.4229 65.5376 51.9787C65.2248 52.5228 64.8425 52.9397 64.3907 53.2291C63.9389 53.5186 63.4408 53.6691 62.9079 53.6807C62.9079 53.6807 62.8963 53.6807 62.8847 53.6807C62.572 53.6807 62.3403 53.5996 62.1781 53.4491C62.0622 53.3449 61.9348 53.1365 62.0043 52.8239C62.0854 52.4649 62.3519 52.0366 63.1628 52.025C63.1628 52.025 63.1744 52.025 63.1859 52.025C63.1859 52.025 63.2207 52.025 63.3018 51.9439C63.3713 51.8745 63.4408 51.7702 63.5103 51.6429C63.7999 51.1334 64.0084 50.7514 64.1475 50.4503C64.3791 49.964 64.7499 49.4777 65.2248 49.003C65.665 48.5746 66.14 48.2389 66.6497 48.0073C66.4644 47.6947 66.2674 47.2663 66.0589 46.6874C65.7925 46.0043 65.5608 45.4601 65.3754 45.0664C65.2132 44.7422 65.0279 44.5685 64.8194 44.557C64.5182 44.5454 64.2865 44.4643 64.1359 44.3254C64.02 44.2212 63.9042 44.0244 63.9737 43.6886C64.0548 43.3297 64.2981 42.9128 65.0626 42.9128H65.0858C65.5608 42.9128 66.0126 43.0749 66.4064 43.376C66.8003 43.677 67.1363 44.117 67.4027 44.6843C67.5765 45.078 67.785 45.5527 67.9935 46.0737C68.1789 46.5832 68.3527 46.9653 68.5148 47.22C68.6307 47.4747 68.7581 47.6021 68.8624 47.6021L69.6733 43.8623C69.7312 43.5844 69.8587 43.3528 70.0556 43.1907C70.2525 43.0286 70.4726 42.936 70.7391 42.9476C71.0171 42.9476 71.2256 43.0286 71.3531 43.1791C71.4921 43.3412 71.5152 43.596 71.4457 43.9202L70.6464 47.5905C70.7275 47.5557 70.8781 47.4747 71.1677 47.1968C71.3994 46.9768 71.7469 46.5832 72.2103 46.0506C72.72 45.4369 73.1719 44.9275 73.5541 44.5222C73.9364 44.117 74.3535 43.7581 74.8053 43.457C75.3497 43.1097 75.8711 42.936 76.3229 42.9476C76.6356 42.9476 76.8673 43.0286 77.0295 43.1791C77.2033 43.3412 77.2612 43.5497 77.2033 43.8044C77.1453 44.0475 77.0179 44.2443 76.821 44.3833C76.624 44.5222 76.3692 44.5917 76.0564 44.6033L76.0448 44.6149ZM88.1739 43.4918L86.1466 52.8586C86.0191 53.4375 85.6716 53.7501 85.1271 53.7501H85.1155C84.8491 53.7501 84.6521 53.6691 84.5247 53.5186C84.3973 53.3565 84.3625 53.1133 84.4321 52.7891L85.3472 48.5399L79.5781 48.5167L78.6513 52.8239C78.5239 53.4144 78.1764 53.7154 77.6319 53.7154C77.3654 53.7154 77.1685 53.6344 77.0411 53.4838C76.9137 53.3217 76.8789 53.0786 76.9484 52.7544L78.9757 43.3876C79.1379 42.635 79.6129 42.4613 79.972 42.4729C80.25 42.4729 80.4585 42.5539 80.586 42.716C80.725 42.8781 80.7482 43.1328 80.6786 43.4454L79.9372 46.8495L85.7063 46.8726L86.4594 43.4107C86.6215 42.6581 87.0965 42.496 87.4788 42.496C87.7452 42.496 87.9422 42.5771 88.058 42.7276C88.197 42.8897 88.2202 43.1444 88.1507 43.4686L88.1739 43.4918ZM98.7853 46.7453L98.1598 49.663C97.986 50.4966 97.6269 51.2376 97.1287 51.8629C96.619 52.4881 95.9819 52.9744 95.2173 53.3102C94.4759 53.6343 93.6418 53.808 92.7498 53.808H92.6918C91.7767 53.808 90.9889 53.6344 90.3749 53.287C89.7494 52.9397 89.2976 52.4418 89.0659 51.7934C88.8226 51.1566 88.7994 50.4156 88.9732 49.5704L89.6103 46.6526C89.7957 45.819 90.1432 45.078 90.6414 44.4528C91.1511 43.8275 91.7998 43.3412 92.5528 43.0055C93.3174 42.6697 94.1631 42.5192 95.0783 42.5076C95.9934 42.5076 96.7812 42.6813 97.3952 43.0286C98.0207 43.376 98.4725 43.8738 98.7042 44.5222C98.9475 45.159 98.9707 45.9 98.7969 46.7453H98.7853ZM110.266 44.9043C110.08 45.7495 109.594 45.9348 109.223 45.9348C108.945 45.9348 108.736 45.8306 108.621 45.6337C108.505 45.4485 108.482 45.2053 108.551 44.8927C108.621 44.5685 108.574 44.4643 108.551 44.4412C108.54 44.418 108.458 44.3486 108.146 44.3486H105.504C104.717 44.3486 104.137 44.3833 103.755 44.4643C103.396 44.5454 103.13 44.6959 102.956 44.9159C102.782 45.1475 102.631 45.518 102.527 46.0158L101.577 50.3924C101.473 50.9019 101.45 51.2608 101.542 51.4808C101.612 51.6776 101.832 51.8166 102.18 51.8976C102.562 51.9902 103.211 52.025 104.103 52.0365H106.431C106.651 52.0365 106.825 52.0018 106.918 51.9323C106.976 51.886 107.068 51.7587 107.138 51.4461C107.207 51.145 107.323 50.9019 107.509 50.7398C107.694 50.5661 107.937 50.4851 108.192 50.4735C108.447 50.4735 108.632 50.5545 108.748 50.705C108.899 50.8903 108.933 51.1797 108.841 51.5734C108.69 52.2797 108.401 52.8239 107.972 53.1712C107.555 53.5186 106.999 53.6922 106.304 53.6922H103.813C102.666 53.6922 101.786 53.5765 101.172 53.3681C100.535 53.1596 100.118 52.8007 99.909 52.3144C99.7121 51.8397 99.7005 51.1798 99.8743 50.3577L100.836 45.9116C101.01 45.1127 101.288 44.4643 101.67 44.0012C102.052 43.5265 102.597 43.1907 103.269 42.9823C103.929 42.7739 104.786 42.6697 105.829 42.6813H108.586C109.304 42.6813 109.814 42.8781 110.103 43.2486C110.381 43.6075 110.451 44.1633 110.289 44.8927L110.266 44.9043ZM118.954 44.3949H116.591L114.737 52.986C114.679 53.2407 114.552 53.4491 114.332 53.6112C114.123 53.7733 113.88 53.8543 113.602 53.8543C113.312 53.8543 113.092 53.7733 112.953 53.6112C112.814 53.4491 112.779 53.2175 112.837 52.9397L114.679 44.3949H112.339C112.038 44.3949 111.806 44.3138 111.667 44.1517C111.563 44.0475 111.447 43.8507 111.517 43.5265C111.563 43.2833 111.702 43.0865 111.899 42.9476C112.096 42.8086 112.351 42.7392 112.64 42.7392L119.244 42.7623C119.591 42.7623 119.834 42.8434 119.974 43.017C120.089 43.1676 120.124 43.3644 120.066 43.6191C119.985 43.978 119.73 44.4064 118.954 44.418H118.931L118.954 44.3949ZM130.353 44.2328C130.156 44.3601 129.901 44.418 129.6 44.4296L123.078 44.4064L122.568 46.7684H126.901C127.249 46.78 127.503 46.861 127.666 47C127.851 47.1505 127.909 47.3821 127.839 47.6715C127.735 48.181 127.307 48.4241 126.6 48.4357H122.209L121.41 52.106L127.874 52.1292C128.187 52.1292 128.419 52.1986 128.569 52.3492C128.731 52.4997 128.778 52.7312 128.708 53.0207C128.65 53.2638 128.523 53.4491 128.326 53.588C128.129 53.7154 127.886 53.7849 127.596 53.7849H127.573L120.182 53.7617C119.916 53.7617 119.719 53.6691 119.603 53.4838C119.487 53.3102 119.475 53.0786 119.533 52.7776L121.491 43.6886C121.549 43.3991 121.676 43.1676 121.839 43.0055C122.012 42.8434 122.233 42.7623 122.476 42.7623L129.867 42.7855C130.18 42.7855 130.411 42.8665 130.562 43.0055C130.724 43.156 130.77 43.3876 130.701 43.677C130.643 43.9202 130.515 44.117 130.319 44.2443L130.353 44.2328ZM141.776 43.6654L139.748 53.0323C139.621 53.6112 139.273 53.9238 138.729 53.9238H138.717C138.439 53.9238 138.242 53.8428 138.115 53.6922C137.988 53.5301 137.953 53.3102 138.022 53.0091L139.598 45.7264L132.195 53.3912C132.01 53.588 131.848 53.7154 131.72 53.7849C131.593 53.8543 131.419 53.8891 131.222 53.8891H131.199C130.933 53.8891 130.747 53.8196 130.631 53.6691C130.504 53.507 130.469 53.2638 130.539 52.9397L132.566 43.5728C132.728 42.8202 133.203 42.6581 133.585 42.6581H133.597C133.852 42.6581 134.049 42.7392 134.165 42.8897C134.304 43.0634 134.338 43.3297 134.257 43.6886L132.705 50.8671L140.189 43.1444C140.49 42.8434 140.803 42.6929 141.104 42.6929C141.359 42.6929 141.544 42.7623 141.66 42.9128C141.799 43.0749 141.822 43.3297 141.753 43.6654H141.776Z" fill="white"/>
<path d="M57.9961 44.0475H57.9497C57.023 44.0475 56.2584 44.2791 55.6791 44.7075C55.0883 45.1475 54.706 45.8074 54.5207 46.6526L53.9067 49.4662C53.7214 50.2998 53.8256 50.9482 54.2079 51.3766C54.5902 51.8166 55.2621 52.0366 56.212 52.0366C57.162 52.0366 57.9381 51.8166 58.529 51.3766C59.1198 50.9366 59.5021 50.2767 59.6874 49.4314L60.3014 46.6179C60.4752 45.8074 60.3825 45.1706 60.0234 44.6959C59.6411 44.2675 58.9576 44.0475 58.0076 44.0359L57.9961 44.0475Z" fill="white"/>
<path d="M15.1795 44.5801C15.0868 44.4296 14.8667 44.3138 14.5191 44.2443C14.1484 44.1633 13.5808 44.1285 12.8162 44.1285H10.4182L9.88531 46.56H12.2254C12.99 46.56 13.5808 46.5368 13.9747 46.4558C14.357 46.3863 14.6466 46.2589 14.8203 46.0969C14.9941 45.9232 15.1215 45.6685 15.2026 45.3211C15.2721 44.9853 15.2606 44.7306 15.1679 44.5801H15.1795Z" fill="white"/>
</svg>
