<svg width="55" height="65" viewBox="0 0 55 65" fill="none" xmlns="http://www.w3.org/2000/svg">
<path d="M36.542 55.6688C35.927 55.5424 35.4143 55.7045 34.9913 56.1081C34.974 56.1379 35.1094 56.4557 35.2431 56.4832C36.0421 56.8259 36.436 56.4554 36.542 55.6688ZM35.03 54.0757L35.0409 53.4536C33.8864 53.2942 32.7146 53.1647 31.2015 52.9873C32.4941 54.7527 33.7059 54.6061 35.03 54.0757ZM31.488 48.4751C32.2755 49.5792 33.3598 49.2392 34.3798 49.1312C34.8382 49.0973 35.4446 49.0491 35.3838 48.3956C35.3136 47.7066 35.0295 46.9737 34.2015 47.0431C33.1847 47.1628 32.0987 47.4022 31.488 48.4751ZM17.7251 29.5787C18.425 32.4375 20.3444 34.3262 22.5995 35.9105C25.9864 38.2794 28.9724 40.945 29.6791 45.3437C29.787 45.9847 30.127 46.6901 31.036 46.498C31.9309 46.3475 32.386 45.7332 32.3842 44.8743C32.4108 44.3112 32.2801 43.7268 32.1289 43.1606C31.0164 38.5669 31.9595 34.1954 33.5161 29.8496C34.0764 28.2088 34.3983 26.48 34.7414 24.7835C34.9275 23.8239 34.9595 22.8549 34.6454 21.9152C33.2499 17.7761 28.8304 15.2784 24.1625 15.9685C20.2243 16.5522 17.3447 20.0126 17.3106 24.3816C17.3057 26.1143 17.5673 27.8516 17.6983 29.5732L17.7251 29.5787ZM32.4332 51.1167C32.3129 50.9972 32.2035 50.8242 32.0911 50.8289C31.8803 50.7968 31.8182 50.9903 31.9858 51.0972C32.114 51.1514 32.2964 51.0774 32.4678 51.057C33.4842 52.2137 34.9539 51.7076 36.2177 52.04C36.5984 52.1406 37.0049 52.0068 37.048 51.553C37.0793 51.1023 36.7308 50.7909 36.3565 50.7139C35.0227 50.4508 33.6858 50.5549 32.4214 51.1199L32.4332 51.1167ZM24.0299 14.5253C30.7133 13.3857 37.0129 17.909 36.2812 24.7768C36.0837 26.8768 35.4528 28.9156 34.7684 30.9433C33.6291 34.3436 32.7926 37.7895 33.5974 41.4669C33.9903 43.2703 34.697 44.6866 35.8707 46.2436C37.891 48.8889 40.0616 51.8606 38.5804 55.7313C37.6602 58.2011 36.1993 58.8818 33.8987 57.6003C30.1547 55.5035 28.3506 52.2951 28.2376 47.9906C28.1304 44.4175 27.3249 41.0688 23.8933 39.053C23.3104 38.7157 22.7732 38.2652 22.2312 37.8917C16.6026 34.036 15.1752 28.4522 16.0336 22.1066C16.528 18.373 19.4772 16.4988 22.5673 14.9157C22.9817 14.7166 23.4991 14.667 24.0417 14.5221L24.0299 14.5253Z" fill="white"/>
<path d="M9.65926 27.9532C7.94325 27.6783 6.31687 27.2658 4.45467 27.2953C5.80517 25.4436 8.02526 25.7608 9.65926 27.9532Z" fill="white"/>
<path d="M11.4637 18.5243C9.76976 18.3319 8.50018 17.2681 7.0357 16.6101C6.67469 16.4411 6.49136 16.0857 6.66817 15.6594C6.79076 15.3612 7.0691 15.1732 7.3381 15.3289C8.83882 16.2173 10.6092 16.743 11.4637 18.5243Z" fill="white"/>
<path d="M42.4238 24.4514C41.9435 22.5576 43.1228 21.4846 44.2785 20.4178C44.4979 20.2456 44.8344 20.181 45.072 20.4082C45.3969 20.7259 45.353 21.1294 45.0495 21.4126C44.0597 22.296 43.2862 23.3745 42.4356 24.4483L42.4238 24.4514Z" fill="white"/>
<path d="M17.5356 10.787C16.3714 9.83405 16.2192 8.26974 15.0472 7.38205C14.9661 7.31522 15.1036 6.83621 15.2483 6.62068C15.4692 6.35951 15.8498 6.4601 16.0512 6.64646C17.1737 7.77482 17.8433 9.09991 17.5356 10.787Z" fill="white"/>
<path d="M27.1488 8.97908C26.4076 7.62254 25.5775 6.26445 25.812 4.06613C27.4412 5.76696 27.7105 7.24944 27.1488 8.97908Z" fill="white"/>
<path d="M37.5298 13.5501C37.026 11.6626 37.7412 10.2712 38.0624 8.87112C38.1488 8.53212 38.531 8.54382 38.7992 8.64915C38.9274 8.70339 39.1115 8.91964 39.1108 9.05885C38.924 10.5367 38.7051 12.0358 37.5298 13.5501Z" fill="white"/>
<path d="M21.2739 26.1166C20.9087 27.7305 21.1931 29.4112 21.5892 31.0368C21.6443 31.338 21.4501 31.6047 21.1851 31.7007C21.02 31.7448 20.7856 31.7189 20.6653 31.5994C19.5106 30.6818 19.5607 27.13 20.7242 25.9979C20.7415 25.968 20.8815 26.0191 21.2857 26.1134L21.2739 26.1166Z" fill="white"/>
<path d="M24.1156 27.3423C23.9455 29.119 24.6828 30.7925 24.8234 32.7391C22.6564 31.2956 22.3877 29.2948 24.1156 27.3423Z" fill="white"/>
<path d="M28.1765 32.9938C26.8941 30.935 26.9364 30.4309 28.5433 28.6876C28.8701 30.2432 28.6267 31.5088 28.1765 32.9938Z" fill="white"/>
</svg>
