<svg width="61" height="60" viewBox="0 0 61 60" fill="none" xmlns="http://www.w3.org/2000/svg">
<g clip-path="url(#clip0_15_1268)">
<path d="M60.1708 8.28431C60.0619 9.17387 59.9573 10.0634 59.8424 10.9501C59.7688 11.5112 59.6185 12.0193 59.0147 12.2667C58.9131 12.308 58.8468 12.5421 58.838 12.6924C58.6995 14.959 58.5567 17.2256 58.4536 19.4937C58.4064 20.5099 58.4727 21.5306 58.4388 22.5483C58.3755 24.4659 58.1723 26.3834 58.2164 28.2966C58.2724 30.7517 58.0088 33.1789 57.835 35.6149C57.8055 36.0243 57.7702 36.4441 57.8276 36.8461C57.8777 37.1908 57.9941 37.559 58.1885 37.8447C59.0618 39.126 59.7216 40.4589 59.3476 42.0672C59.0928 43.1585 58.3195 43.942 57.62 44.7565C57.3475 45.0731 57.1943 45.3456 57.1811 45.8154C57.1516 46.9038 56.9675 47.9893 56.8202 49.0732C56.754 49.5592 56.4889 49.9083 55.8718 49.9569C55.9881 50.4179 56.0529 50.8406 56.2002 51.2323C57.0235 53.4268 56.8865 55.6993 56.7643 57.9674C56.7275 58.6375 56.3652 59.1088 55.698 59.2841C54.7333 59.5374 53.7819 59.7495 52.7495 59.5772C52.1176 59.4726 51.4372 59.6891 50.7759 59.7156C50.2516 59.7377 49.7258 59.692 49.2 59.6714C49.1043 59.667 49.0086 59.6184 48.9158 59.6272C47.3458 59.7583 45.7728 60.019 44.2058 59.9954C42.5519 59.9704 40.8979 59.7053 39.2513 59.4888C38.3029 59.3651 37.3676 59.1397 36.4295 58.9424C35.5031 58.748 34.967 58.1383 35.0318 57.0646C35.1084 55.8009 35.3499 54.5476 35.537 53.2913C35.7049 52.1705 35.8963 51.0541 36.0686 49.9893C34.7578 49.8641 33.4795 49.6137 32.207 49.6432C28.6075 49.7242 25.0124 49.9584 21.4129 50.0541C19.7133 50.0983 18.0078 49.9805 16.3067 49.9054C12.18 49.7242 8.05469 49.5283 3.92793 49.3236C3.56415 49.3059 3.15913 49.2455 2.85721 49.0644C2.57591 48.895 2.28724 48.5681 2.20918 48.2573C1.3152 44.7226 1.70991 41.1423 1.88517 37.5693C1.90873 37.0994 1.94555 36.6311 1.9485 36.1613C1.96323 32.6929 1.89695 29.223 2.00152 25.7575C2.12965 21.5306 2.40065 17.3096 2.60978 13.0856C2.6142 13.0075 2.62451 12.9295 2.6304 12.8514C2.72171 11.4641 2.68048 11.4081 1.29311 11.277C1.17676 11.2667 1.02653 11.3595 0.930802 11.4479C0.605315 11.7468 0.328431 11.7159 0.256264 11.2903C0.123713 10.5244 0.0176718 9.74384 -1.70997e-06 8.96768C-0.0132568 8.3064 0.11193 7.64217 0.176733 6.97941C0.253318 6.20178 0.670118 5.77762 1.4507 5.69661C1.72316 5.66863 1.99857 5.64949 2.27251 5.65538C5.97364 5.72754 9.67476 5.80855 13.3759 5.87777C13.9827 5.88955 14.5895 5.84978 15.1962 5.83358C17.3509 5.77615 19.5056 5.7408 21.6589 5.64949C22.2082 5.62592 22.8857 5.5891 23.2701 5.27245C24.9329 3.90865 26.9845 3.27829 28.7901 2.19579C29.0714 2.02789 29.2098 1.84232 29.3498 1.53156C29.5736 1.03818 29.9212 0.530067 30.3542 0.219308C31.0788 -0.302059 32.0744 0.166288 32.2585 1.07353C32.3307 1.43141 32.5045 1.58606 32.7784 1.76868C33.9994 2.58314 35.1967 3.43294 36.4074 4.26359C36.6474 4.42854 36.889 4.63473 37.16 4.70101C37.7388 4.84092 38.0451 5.16494 38.0702 5.77467C38.9303 5.77467 39.7683 5.74964 40.6063 5.77909C44.9304 5.92637 49.2545 6.11341 53.5801 6.22682C54.8467 6.25922 56.1177 6.08838 57.3873 6.0221C57.8159 6.00001 58.2459 6.00295 58.6745 6.01474C59.4197 6.03683 59.9219 6.4065 60.1708 7.11197V8.28725V8.28431ZM58.081 12.2034C57.5993 12.0915 57.1811 11.9059 56.7687 11.9162C55.6759 11.9457 54.5875 12.0767 53.4947 12.1386C51.1338 12.2741 48.7714 12.5009 46.4106 12.4921C42.1409 12.4773 37.8728 12.3404 33.6047 12.2137C27.8888 12.0443 22.1714 12.336 16.4525 11.9309C12.1579 11.6261 7.83819 11.6997 3.5288 11.6069C3.40509 11.604 3.2799 11.629 3.20626 11.6364C3.26665 12.3669 3.36827 13.0444 3.3668 13.7233C3.36532 14.7793 3.27401 15.8338 3.25486 16.8883C3.20479 19.6896 3.19743 22.4908 3.13115 25.2906C3.0148 30.2038 3.3447 35.1171 3.00449 40.0332C2.84543 42.3308 3.05604 44.6534 3.0634 46.9657C3.06782 48.3383 3.03542 48.3486 4.43015 48.3516C5.40956 48.3545 6.38896 48.3221 7.36837 48.3133C7.79842 48.3089 8.22995 48.3059 8.65853 48.3354C11.6262 48.5371 14.5909 48.8597 17.5616 48.923C20.8091 48.9922 24.061 48.8273 27.3099 48.7551C27.6796 48.7463 28.0478 48.6461 28.4175 48.6402C30.0582 48.6122 31.7003 48.5725 33.341 48.596C34.2424 48.6093 35.1408 48.7419 36.0406 48.8199C36.0745 48.7551 36.1069 48.6903 36.1408 48.6255C35.9906 48.3427 35.9066 47.9745 35.6769 47.7904C34.7034 47.0113 33.749 46.1748 32.6709 45.5665C30.8505 44.5385 28.9389 43.671 27.0699 42.7314C26.5691 42.4795 26.1921 42.1423 26.2746 41.4972C26.2864 41.4015 26.1906 41.2291 26.1023 41.1909C25.709 41.023 25.2893 40.9154 24.9019 40.7387C24.3614 40.4928 23.7487 40.3042 23.3305 39.9154C22.329 38.9846 22.3555 37.7755 23.2804 37.1171C22.4262 35.718 22.4335 35.5206 23.4129 34.3409C23.1478 34.0272 22.8857 33.6929 22.5985 33.3806C20.5145 31.1096 18.2287 29.0344 16.5777 26.3599C15.56 24.7089 14.1579 23.2935 12.9046 21.7913C12.0283 20.7426 11.9311 20.3671 12.7823 19.5688C13.1667 19.2095 13.3921 19.1579 13.7352 19.5526C14.0548 19.9208 14.37 20.2979 14.7235 20.6337C16.1757 22.0078 17.6411 23.3613 18.5734 25.1816C18.8473 25.7162 19.2346 26.2023 19.6235 26.6662C20.868 28.1522 22.1434 29.6118 23.3938 31.0934C23.8577 31.6428 24.1641 32.2098 25.1538 31.9609C26.1788 31.7031 26.9403 32.494 27.5426 33.2731C28.2658 34.2069 28.4955 35.2864 28.2952 36.5015C29.1171 35.8623 29.6031 35.8844 30.3984 36.472C30.9139 36.852 31.4249 37.3056 32.0126 37.5059C33.2777 37.9375 34.3852 38.6002 35.4368 39.397C35.7446 39.6297 36.1158 39.7799 36.4574 39.967C36.5281 39.9287 36.6003 39.8889 36.671 39.8506C35.1467 37.341 34.8698 34.6973 35.7166 31.9594C34.263 31.4808 33.6915 30.5603 34.1466 29.1317C34.833 26.9725 35.7549 24.9195 37.6018 23.4467C37.7314 23.3421 37.8375 23.2007 37.9317 23.0608C38.1261 22.7721 38.2469 22.4025 38.5017 22.1889C39.3559 21.4731 40.4222 21.2463 41.4826 21.0505C44.5666 20.482 47.4062 20.8899 49.7759 23.1595C50.0867 23.457 50.4298 23.7236 50.7789 23.9754C51.6021 24.5689 52.2664 25.2921 52.7627 26.1846C52.9483 26.5189 53.2355 26.8076 53.5182 27.0727C54.7893 28.2642 55.5846 29.7429 55.9056 31.4204C56.1207 32.5441 56.0456 33.7209 56.156 34.8682C56.1987 35.3188 56.3961 35.7548 56.5227 36.1966C56.6199 36.1819 56.7172 36.1657 56.8129 36.151C56.9263 33.8785 57.0559 31.6059 57.1472 29.332C57.2429 26.9475 57.2871 24.5601 57.377 22.1742C57.4565 20.0814 57.5404 17.987 57.6745 15.8972C57.7525 14.6895 57.9322 13.4877 58.0765 12.2019L58.081 12.2034ZM49.8245 58.3135C50.4696 58.2281 51.0263 58.1471 51.5845 58.0823C51.9129 58.044 52.2443 58.0116 52.5742 58.0072C53.368 57.9954 54.1633 57.9807 54.9572 58.0072C55.4623 58.0248 55.6214 57.7789 55.6096 57.3356C55.5831 56.2987 55.6464 55.2486 55.508 54.2265C55.153 51.602 54.3474 49.0968 53.2576 46.6446C53.1 46.7536 52.9232 46.8714 52.7524 46.9966C52.0381 47.515 51.2516 47.8582 50.3635 47.8538C50.1367 47.8538 49.7906 47.6549 49.7111 47.4605C49.5697 47.1159 49.8201 46.8876 50.1868 46.811C50.446 46.7565 50.6993 46.6755 50.9571 46.6063C50.6434 46.4679 50.3194 46.3957 50.0469 46.4841C49.446 46.6785 48.8745 46.9671 48.2825 47.1895C48.0763 47.2676 47.7788 47.3648 47.6345 47.2735C47.4769 47.1763 47.4474 46.8714 47.3546 46.6372C47.2736 46.6903 47.2 46.761 47.1131 46.7904C46.9408 46.8493 46.7626 46.8847 46.5858 46.9288C46.5888 46.733 46.5372 46.5135 46.6064 46.3442C46.7331 46.0408 46.9187 45.758 47.1042 45.4826C47.6418 44.6887 48.2177 43.9185 48.7287 43.1084C49.1603 42.4251 49.1706 41.9317 48.9011 41.4206C48.309 42.0996 47.6919 42.7771 47.1072 43.4825C45.577 45.3323 43.5548 45.6195 41.3545 45.2882C40.3559 45.1379 39.7256 44.4354 39.5739 43.4428C39.5223 43.1011 39.4988 42.755 39.4737 42.5149C38.9317 42.3337 38.4546 42.185 37.9833 42.0141C37.5061 41.8418 37.0466 41.6106 36.5591 41.4736C35.6194 41.21 34.7888 40.7682 34.0156 40.1761C33.5546 39.8226 33.0479 39.4957 32.5133 39.2748C31.3955 38.8138 30.2217 38.475 29.4175 37.4264C28.7503 38.8756 28.1156 40.2556 27.4513 41.7004C28.2157 42.0863 28.9624 42.4663 29.7106 42.8419C31.7534 43.864 33.9301 44.5886 35.858 45.8714C37.2321 46.786 37.7314 47.976 37.5399 49.5195C37.3824 50.7802 37.1335 52.0306 36.9435 53.2884C36.7564 54.5226 36.5694 55.7597 36.4398 57.0013C36.4192 57.206 36.6577 57.5889 36.8448 57.639C39.1188 58.262 41.4487 58.5845 43.8008 58.6169C45.2854 58.6375 46.7773 58.0617 48.281 58.8157C48.281 58.3872 48.2589 58.0735 48.284 57.7627C48.4592 55.6949 48.6492 53.63 48.8245 51.5622C48.9055 50.6064 48.957 49.6476 49.0498 48.6918C49.066 48.5283 49.2148 48.3766 49.3017 48.219C49.3944 48.3707 49.5594 48.518 49.5682 48.6741C49.6669 50.4915 49.7656 52.3104 49.8171 54.1293C49.8554 55.4754 49.8245 56.8245 49.8245 58.3091V58.3135ZM58.7084 7.48605C55.5257 7.88665 52.4755 7.87487 49.418 7.71876C46.4282 7.56559 43.4355 7.44334 40.4443 7.35203C38.8389 7.30343 37.2307 7.38296 35.6253 7.34172C33.7269 7.29312 31.8299 7.17088 29.9315 7.09282C28.0581 7.01623 26.1818 6.87337 24.3099 6.90136C20.4158 6.96027 16.5232 7.18855 12.6292 7.2077C9.1637 7.2239 5.69822 7.05158 2.23128 6.96616C1.98385 6.96027 1.73642 6.98531 1.51108 6.99562C1.39473 8.2033 1.28427 9.34177 1.17087 10.5333C2.14144 10.5333 3.05751 10.5259 3.97211 10.5333C8.20197 10.5715 12.4318 10.5995 16.6602 10.6643C17.7339 10.6805 18.8046 10.8956 19.8768 10.8926C24.519 10.8808 29.1612 10.7851 33.805 10.7925C37.7402 10.7984 41.6755 10.9191 45.6108 10.9559C46.8229 10.9677 48.0351 10.8764 49.2472 10.8278C50.3576 10.7836 51.4696 10.763 52.5757 10.6791C54.4726 10.5347 56.3622 10.1606 58.3225 10.5877C58.4477 9.58183 58.5714 8.58476 58.7084 7.48458V7.48605ZM39.8758 32.2113C39.3721 32.388 39.0363 32.5898 38.6917 32.6104C37.8684 32.6575 37.2307 32.2657 36.7535 31.5971C36.6312 31.4263 36.4869 31.1508 36.3367 31.1405C35.6018 31.0846 35.5738 30.5971 35.5856 30.0551C35.59 29.8121 35.5856 29.5691 35.5856 29.2068C35.1069 30.2583 35.5414 31.4439 36.3205 31.4395C36.3249 31.5146 36.3382 31.5927 36.3352 31.6678C36.2925 32.7636 36.2704 33.8593 36.1968 34.9521C36.0745 36.7519 37.0097 38.1702 37.8566 39.612C38.0525 39.9463 38.4001 40.2321 38.7403 40.4324C39.7256 41.0126 40.8037 41.235 41.9465 41.4162C44.1808 41.7726 45.9128 40.7313 47.8068 39.7814C46.9437 38.774 45.8745 38.1525 44.8111 37.5737C43.6402 36.9374 42.571 36.2069 42.1071 34.9359C41.8243 34.1627 41.8258 33.2849 41.7006 32.4602C41.0643 32.7135 40.3677 32.5618 39.8758 32.2083V32.2113ZM26.4999 40.5796C26.5588 40.5531 26.631 40.5458 26.6457 40.5119C27.12 39.3999 27.5883 38.2865 28.0522 37.1701C28.0787 37.1053 28.0802 37.0126 28.0567 36.9463C27.8078 36.2305 27.5883 35.5015 27.2849 34.8093C26.9314 34.0036 26.3571 33.363 25.5514 32.9756C25.4071 32.9064 25.1317 32.9152 25.0301 33.0095C24.9329 33.0993 24.9417 33.3586 24.98 33.525C25.0257 33.7297 25.1553 33.9138 25.2407 34.1112C25.4263 34.5456 25.2849 34.8269 24.8342 34.9595C24.5912 35.0302 24.3349 35.0714 24.1081 35.1775C23.5013 35.4588 23.4557 35.9566 23.9903 36.3498C24.1626 36.4765 24.3644 36.5634 24.5396 36.6856C25.005 37.0126 25.0183 37.3807 24.5558 37.718C24.3099 37.8977 24.0227 38.0244 23.6074 38.2571C23.9255 38.5811 24.1538 38.9345 24.4792 39.1098C24.8268 39.2968 25.2628 39.3234 25.6634 39.4029C26.5647 39.5811 26.6737 39.724 26.4984 40.5782L26.4999 40.5796ZM24.7841 5.26951C28.5383 5.4757 32.0877 5.67158 35.6371 5.86746C35.643 5.81591 35.6489 5.76436 35.6548 5.71282C34.4397 4.74225 33.2232 3.77168 32.0126 2.80405C31.151 3.56401 30.8446 3.5758 29.8726 3.00141C29.7415 2.92335 29.4794 2.98963 29.3115 3.06327C28.3527 3.49038 27.3983 3.93074 26.4528 4.38583C25.9344 4.63621 25.4336 4.9234 24.7856 5.26803L24.7841 5.26951ZM54.9999 36.8285C55.0956 37.7431 54.8614 38.5457 55.4844 39.2306C55.6906 39.4574 55.7746 39.8256 55.8423 40.1437C56.0426 41.0671 55.7348 41.911 55.3961 42.755C55.075 43.5562 54.8099 44.378 54.4888 45.2808C55.6553 44.6961 56.5036 43.9155 57.2326 42.9818C58.1649 41.7859 58.2165 40.6548 57.3667 39.3808C56.8173 39.4765 56.6347 39.3189 56.5934 38.7755C56.5772 38.5619 56.5331 38.2998 56.3976 38.154C56.0014 37.7269 55.5551 37.3469 54.9999 36.8285ZM13.3877 20.4937C13.2566 20.5733 13.1255 20.6543 12.9959 20.7338C13.0445 20.9091 13.0416 21.127 13.1491 21.2522C13.8354 22.0549 14.5836 22.806 15.236 23.6337C16.1418 24.781 16.968 25.9931 17.8546 27.1566C18.5277 28.0403 19.1875 28.9461 19.9534 29.7473C21.0889 30.9343 22.3128 32.036 23.5013 33.173C23.6191 33.2864 23.7429 33.3939 23.9652 33.5942C23.9196 33.1848 23.9918 32.8107 23.8401 32.6472C23.0433 31.7915 22.2023 30.9741 21.3525 30.17C19.6941 28.6 18.2803 26.8385 17.0873 24.89C16.7618 24.3598 16.3848 23.8532 15.9783 23.3804C15.1344 22.401 14.2551 21.454 13.3891 20.4937H13.3877ZM47.4106 41.6415C47.3826 41.5811 47.3561 41.5222 47.3281 41.4618C45.197 43.0318 42.8302 43.129 40.3486 42.5723C40.4237 43.3235 40.5312 44.0216 41.2396 44.1865C42.7949 44.5473 44.3604 44.6063 45.6653 43.4472C46.2898 42.8919 46.8318 42.2468 47.4106 41.6415ZM49.0793 23.5527C49.0513 23.5807 49.0233 23.6087 48.9953 23.6352C49.0586 23.7059 49.1249 23.7736 49.1868 23.8458C50.2869 25.1257 51.2531 26.4615 51.0999 28.2863C51.0911 28.3849 51.2089 28.5116 51.2943 28.5985C51.7303 29.0389 52.1736 29.4719 52.6213 29.9004C52.7539 30.0286 52.9011 30.2053 53.0617 30.2289C53.6641 30.3202 53.9247 30.7031 54.0485 31.2422C54.1177 31.547 54.2016 31.8489 54.2723 32.1523C54.3356 32.4292 54.3901 32.7076 54.4491 32.9859C54.6008 31.7517 54.1398 30.6766 53.5948 29.6339C53.3459 29.1582 53.1015 28.6294 52.7126 28.2863C52.0617 27.7134 51.664 27.0594 51.4667 26.2258C51.3768 25.8429 51.1971 25.4246 50.9276 25.1507C50.3576 24.5719 49.7008 24.0785 49.0793 23.5513V23.5527ZM38.0819 24.2965C38.1129 24.3451 38.1453 24.3922 38.1762 24.4408C38.3853 24.2935 38.6166 24.1669 38.8007 23.9931C39.1939 23.6234 39.6122 23.4099 40.1733 23.5498C40.3176 23.5851 40.5003 23.51 40.6564 23.4585C41.3987 23.214 41.4723 22.51 41.7448 21.8075C41.1232 21.9724 40.4575 21.9768 40.0378 22.2994C39.3058 22.862 38.7255 23.6205 38.0819 24.298V24.2965ZM37.294 29.5087C37.2881 30.4866 38.0598 31.4115 39.0717 31.6295C38.9347 30.8033 38.7903 29.9314 38.6607 29.1405C38.2778 29.2436 37.8036 29.3717 37.2955 29.5087H37.294ZM54.5993 46.7698C54.9881 47.568 55.3578 48.3265 55.726 49.0835C55.776 49.0835 55.8276 49.0835 55.8777 49.0835C55.9881 48.0673 56.0986 47.0511 56.209 46.0408C55.7289 46.2587 55.2178 46.49 54.5993 46.7698ZM48.2192 38.0656C48.7479 38.6326 49.284 39.2085 49.8687 39.8344C50.0557 39.3852 50.228 38.9684 50.3547 38.6665C49.8863 38.2379 49.4769 37.8624 49.0881 37.5045C48.8304 37.6709 48.5299 37.8653 48.2192 38.0656ZM43.3707 32.011C42.979 33.3247 43.169 34.4764 44.2191 35.3954C44.1587 34.7857 43.976 34.1686 44.0688 33.5986C44.1896 32.8563 43.5224 32.5736 43.3707 32.011ZM48.7641 23.3274C47.8996 22.1904 46.4989 21.8192 44.5416 21.8251C44.87 21.9606 45.2132 22.0461 45.5593 22.1079C45.9407 22.1771 46.3575 22.1521 46.7036 22.2979C47.443 22.6131 48.1455 23.0122 48.7656 23.3259L48.7641 23.3274ZM47.7508 46.4605C48.2898 46.2573 48.7641 46.079 49.2442 45.8994C49.1058 45.5739 49.0307 45.4001 48.9217 45.1453C48.5284 45.5871 48.172 45.9863 47.7508 46.4605ZM46.1587 36.6311C46.5637 36.9492 46.8701 37.1908 47.1764 37.4323C47.2 37.4073 47.2235 37.3822 47.2456 37.3572C47.0748 37.0361 46.9054 36.715 46.7184 36.363C46.5505 36.4441 46.4047 36.5133 46.1587 36.6311Z" fill="#11114C"/>
<path d="M31.3366 25.8948C31.8918 25.6017 32.4412 25.2939 33.0053 25.0199C33.9022 24.584 33.9316 24.2909 33.2468 23.5722C32.2586 22.5339 31.1098 22.338 29.7592 22.659C28.2334 23.0228 28.0449 22.8535 27.8711 21.2982C27.581 18.7105 29.4912 16.248 32.1304 15.8282C33.4633 15.6162 34.7976 15.4011 36.1394 15.2539C36.6916 15.1935 37.2631 15.3054 37.8949 15.3437C37.7948 15.5455 37.7742 15.6088 37.7609 15.6073C35.9803 15.4011 34.2836 15.9917 32.5413 16.1478C31.5177 16.2392 30.5796 16.5426 29.8373 17.2789C28.6178 18.4881 28.1038 19.9447 28.3674 21.662C28.4455 22.1716 28.7018 22.3188 29.1863 22.1804C30.0494 21.9344 30.908 21.6355 31.83 21.905C33.0627 22.2658 33.671 23.2393 34.1319 24.3145C34.2115 24.5015 34.0156 24.9772 33.8212 25.0803C33.0597 25.4853 32.2482 25.7946 31.4544 26.1407C31.4146 26.0582 31.3763 25.9758 31.3366 25.8933V25.8948Z" fill="#11114C"/>
<path d="M12.6483 14.4141C12.1933 14.4848 11.7175 14.4921 11.2875 14.6365C9.25209 15.3184 7.34336 16.2123 5.84406 17.8354C4.62311 19.1564 4.70264 20.2861 6.29031 21.1477C7.36692 21.7324 8.52895 22.1727 9.68362 22.591C10.7102 22.9636 11.5614 23.4099 11.7868 24.619C11.8619 25.0196 12.1623 25.3878 12.4009 25.7442C12.9223 26.5219 12.9783 27.2966 12.4922 28.1095C12.3332 28.3776 12.1947 28.6618 12.0828 28.952C11.8206 29.6339 11.9385 30.0816 12.5541 30.4689C13.2227 30.8902 13.7736 31.3158 13.5585 32.2451C13.5217 32.4042 13.7574 32.6457 13.9002 32.821C14.0298 32.9786 14.2051 33.0964 14.3936 33.2614C13.5526 33.3541 12.9753 32.849 13.1093 32.1288C13.2198 31.5426 12.9385 31.2083 12.5423 30.8828C11.5217 30.0492 11.3788 29.6412 12.0062 28.4792C12.6159 27.3511 12.5732 26.3746 11.7382 25.4025C11.5541 25.189 11.4112 24.8989 11.3567 24.622C11.1991 23.8193 10.6836 23.3672 9.97229 23.0873C9.08272 22.7353 8.18432 22.4025 7.29181 22.0549C6.42286 21.7147 5.63787 21.2449 5.07379 20.4805C4.53916 19.7559 4.48025 19.0754 5.0296 18.3744C5.54361 17.7175 6.11358 17.0695 6.77486 16.5717C8.283 15.4347 9.93694 14.5569 11.8501 14.2962C12.1137 14.2609 12.3877 14.2918 12.6557 14.2918C12.6528 14.3331 12.6513 14.3728 12.6483 14.4141Z" fill="#11114C"/>
<path d="M16.2832 45.2234C15.8855 46.0923 15.3538 46.191 14.9164 45.5666C14.641 45.1733 14.4098 44.7197 14.2787 44.2587C13.7676 42.4501 12.5261 41.4648 10.7823 40.967C10.0916 40.7697 9.38756 40.5473 8.76162 40.2056C7.67029 39.6091 7.41697 38.5458 8.23731 37.6032C8.94425 36.7917 9.84854 36.1466 10.6998 35.4721C11.2624 35.0258 11.906 34.6841 12.4731 34.2437C12.962 33.8652 13.1152 33.366 12.6734 32.7783C13.4687 33.2143 13.5968 33.7754 12.9591 34.3454C12.4112 34.8343 11.7735 35.2467 11.121 35.5884C10.146 36.0995 9.33896 36.7961 8.63054 37.6135C7.84407 38.5193 8.02228 39.428 9.10478 39.9567C9.60848 40.2027 10.1608 40.3779 10.7087 40.5046C12.7396 40.9729 14.1609 42.104 14.7971 44.1321C14.8266 44.2248 14.8649 44.3162 14.9032 44.406C15.1388 44.9745 15.3332 45.6019 16.2802 45.2219L16.2832 45.2234Z" fill="#11114C"/>
<path d="M44.1587 15.4424C46.7169 16.494 49.2693 16.7414 51.9012 16.2023C52.6552 16.0477 53.0131 16.3113 53.1 17.0787C53.2031 17.9962 53.019 18.8313 52.3562 19.5161C51.6346 20.2614 50.9247 21.0169 50.1824 21.7415C50.0351 21.8858 49.7627 21.9035 49.5491 21.9786C49.6051 21.7739 49.6007 21.5176 49.7258 21.3748C50.2884 20.7282 50.8614 20.0861 51.4829 19.497C52.0661 18.9447 52.5536 18.3659 52.6699 17.5382C52.7672 16.8415 52.4431 16.4468 51.7539 16.5838C49.7568 16.9785 47.7818 16.8754 45.8274 16.3717C45.2765 16.2303 44.7684 15.9225 44.2456 15.6795C44.2014 15.6589 44.197 15.5514 44.1602 15.4424H44.1587Z" fill="#11114C"/>
<path d="M15.9592 33.5397C17.5056 33.1877 19.3584 34.5176 19.4217 35.8903C19.435 36.1893 19.3009 36.5869 19.0903 36.7902C17.8296 38.0126 17.4364 39.5605 17.2272 41.2262C17.1197 42.0731 16.806 42.8905 16.6175 43.7285C16.5409 44.0643 16.5483 44.4192 16.51 44.836C16.1963 44.9656 16.0048 44.7638 16.0034 44.3824C16.0034 44.0746 16.0608 43.7594 16.1433 43.4619C16.5748 41.8993 16.9931 40.3322 17.4776 38.7858C17.6485 38.2409 17.9091 37.6738 18.2803 37.2497C19.3304 36.0493 18.9843 35.2172 17.6661 34.3468C17.1904 34.0331 16.6293 33.849 15.9606 33.5382L15.9592 33.5397Z" fill="#11114C"/>
<path d="M19.1139 16.8574C19.4762 16.6512 19.9165 16.7837 20.1919 17.1563C20.8297 18.0179 21.4041 18.9266 21.9917 19.825C22.1287 20.0357 22.1728 20.317 22.3334 20.5011C22.9608 21.2154 22.8621 21.9974 22.2583 22.6852C21.5292 23.5173 20.6573 24.2243 19.8355 24.9739C19.6161 25.1742 19.3554 25.3318 19.1124 25.5085C19.0726 25.4644 19.0329 25.4202 18.9946 25.376C19.1345 25.2434 19.2715 25.1094 19.4128 24.9798C20.2214 24.2434 21.08 23.5541 21.8267 22.7588C22.5808 21.9547 22.5705 21.4922 21.9858 20.557C21.4792 19.747 20.9873 18.9237 20.4158 18.1593C20.0638 17.688 19.5778 17.3154 19.1124 16.8588L19.1139 16.8574Z" fill="#11114C"/>
<path d="M32.2968 32.0156C31.531 32.6312 30.9448 32.6253 30.2585 31.9964C29.7003 31.4839 29.2202 30.88 28.7503 30.2821C28.3939 29.8285 28.4131 29.3027 28.6472 28.7813C29.3115 27.3012 30.69 26.6413 32.1805 27.1981C31.964 27.1981 31.8653 27.2084 31.771 27.1966C30.528 27.0361 29.4573 27.7018 29.014 28.877C28.8196 29.394 28.8844 29.8461 29.257 30.2335C29.7047 30.6989 30.1451 31.182 30.6547 31.5737C30.9257 31.7814 31.3292 31.8241 31.6782 31.9198C31.8785 31.9743 32.0906 31.9861 32.2983 32.017L32.2968 32.0156Z" fill="#11114C"/>
<path d="M24.787 25.5424C24.7915 26.4644 23.5764 27.6529 22.7973 27.6956C22.3393 27.7207 21.9932 27.5439 21.837 27.0933C21.6029 26.4202 22.3157 24.6573 22.9461 24.3509C23.058 24.2964 23.1964 24.3009 23.2701 24.2876C22.9549 24.8193 22.6014 25.3289 22.3378 25.8826C22.1404 26.298 21.9446 26.8326 22.4379 27.1595C22.9225 27.4806 23.3363 27.0992 23.6692 26.7751C24.0669 26.3907 24.4144 25.9533 24.7841 25.5395L24.787 25.5424Z" fill="#11114C"/>
<path d="M4.8396 32.4604C4.77774 32.325 4.65256 32.1836 4.68348 32.0923C4.76449 31.8448 4.86464 31.5724 5.04137 31.3941C5.58778 30.8419 6.16511 30.319 6.75128 29.8065C6.86763 29.7049 7.07382 29.7034 7.23878 29.6548C7.21374 29.8271 7.25056 30.0539 7.15335 30.1629C6.49354 30.8978 5.8087 31.6077 5.12532 32.322C5.07672 32.3736 4.9913 32.3898 4.8396 32.4604Z" fill="#11114C"/>
<path d="M4.64521 40.9673C4.64226 40.2265 5.78662 38.8907 6.3993 38.8333C6.52302 38.8215 6.72921 38.8966 6.76897 38.9894C6.8161 39.0969 6.76897 39.3016 6.6865 39.4017C6.22257 39.9644 5.74244 40.5137 5.252 41.0527C5.14743 41.1676 4.97806 41.2221 4.83814 41.3046C4.75714 41.1632 4.67614 41.0218 4.64521 40.9673Z" fill="#11114C"/>
<path d="M16.5763 29.0493C16.2434 29.7032 15.8531 30.3351 15.5939 31.017C15.3347 31.6989 15.2051 32.4323 15.0092 33.1746C14.454 32.204 15.4054 29.4926 16.5763 29.0493Z" fill="#11114C"/>
<path d="M5.19598 30.3499C5.24459 30.0995 5.21808 29.7947 5.35357 29.6076C5.82192 28.9611 6.34182 28.3513 6.86024 27.7431C6.92062 27.6724 7.08999 27.693 7.20929 27.6724C7.21076 27.7961 7.26231 27.9537 7.20634 28.0376C6.73063 28.7534 6.24314 29.4603 5.74092 30.157C5.65255 30.2807 5.48023 30.3425 5.34621 30.4338C5.29613 30.4059 5.24606 30.3779 5.19598 30.3499Z" fill="#11114C"/>
<path d="M20.3967 46.1927C20.7281 45.6242 21.0565 45.0351 21.4203 44.4695C21.4689 44.3944 21.7516 44.3694 21.8268 44.4342C21.9299 44.5225 22.0226 44.7611 21.9726 44.8657C21.6898 45.4622 21.3717 46.0424 21.0418 46.6139C20.9961 46.6919 20.756 46.7568 20.7045 46.7126C20.5881 46.6109 20.5336 46.4401 20.3952 46.1927H20.3967Z" fill="#11114C"/>
<path d="M4.86169 42.325C4.94123 42.1114 4.98688 41.8743 5.10912 41.6887C5.33299 41.3485 5.58631 41.023 5.86466 40.7255C5.95009 40.6342 6.1769 40.6062 6.30503 40.649C6.3772 40.6725 6.4582 40.9597 6.40518 41.0275C6.00753 41.5341 5.57747 42.0157 5.1592 42.5047L4.86317 42.3235L4.86169 42.325Z" fill="#11114C"/>
<path d="M21.8547 47.2515C21.759 46.3707 22.3363 45.9215 22.6014 45.3457C22.625 45.2956 22.8503 45.2691 22.9063 45.3177C23.0064 45.4075 23.1405 45.6049 23.1036 45.6815C22.8282 46.2573 22.5675 46.8612 21.8562 47.2515H21.8547Z" fill="#11114C"/>
<path d="M4.92651 33.5415C5.39192 32.8493 5.85732 32.1585 6.32272 31.4663L6.54364 31.5399C6.48178 31.7977 6.48767 32.104 6.34481 32.3058C5.98103 32.8169 5.83228 33.5665 5.07527 33.6873C5.02666 33.6387 4.97659 33.5901 4.92799 33.5415H4.92651Z" fill="#11114C"/>
<path d="M6.38011 33.827C6.0664 34.316 5.76743 34.7873 5.44931 35.2468C5.44341 35.2556 5.12087 35.0759 5.12824 35.0583C5.34032 34.5384 5.5686 34.0244 5.81456 33.5192C5.83812 33.4706 6.01486 33.4411 6.07377 33.478C6.17539 33.5398 6.24019 33.6606 6.38011 33.827Z" fill="#11114C"/>
<path d="M27.6354 24.3613C27.6634 24.9401 27.1892 25.6309 26.7444 25.6809C26.3615 25.7251 26.0198 25.6382 25.9049 25.0344C26.7842 25.5175 26.9506 24.4497 27.634 24.3613H27.6354Z" fill="#11114C"/>
<path d="M39.889 54.3932C39.8537 54.6892 39.8596 55 39.7639 55.2739C39.7182 55.402 39.4752 55.4609 39.3206 55.5508C39.2661 55.3873 39.2057 55.2253 39.1615 55.0589C39.1409 54.9808 39.1806 54.8468 39.1394 54.8218C38.6018 54.4815 38.9023 54.1664 39.1836 53.8924C39.4325 53.6494 39.7197 53.4388 40.0187 53.2591C40.1335 53.1914 40.325 53.2532 40.4826 53.2562C40.4531 53.4152 40.4752 53.6141 40.3854 53.7231C40.2027 53.9454 39.9597 54.1178 39.7432 54.3107C39.7918 54.3372 39.8419 54.3652 39.8905 54.3917L39.889 54.3932Z" fill="#11114C"/>
<path d="M38.515 53.5199C38.5562 52.9661 39.487 51.807 39.9347 51.6759C40.0452 51.6435 40.1821 51.6995 40.3073 51.7157C40.2882 51.8394 40.3073 51.9882 40.244 52.081C39.8964 52.5979 39.5371 53.109 39.1615 53.6068C39.0687 53.7305 38.8979 53.7968 38.7639 53.8895C38.6637 53.7408 38.5636 53.592 38.515 53.5199Z" fill="#11114C"/>
</g>
<defs>
<clipPath id="clip0_15_1268">
<rect width="60.1708" height="60" fill="white"/>
</clipPath>
</defs>
</svg>
