<svg width="61" height="60" viewBox="0 0 61 60" fill="none" xmlns="http://www.w3.org/2000/svg">
<g clip-path="url(#clip0_15_1309)">
<path d="M36.7315 6.85847C36.5746 5.98739 36.4556 5.10549 36.2518 4.24523C35.3789 0.564325 32.028 0.383977 29.4436 1.34163C28.4968 1.6933 28.3904 2.67981 28.3165 3.56351C28.2678 4.14423 28.3129 4.73217 28.3147 5.3183C28.3183 6.63664 27.7087 7.50051 26.4841 8.02352C24.962 8.67458 23.4597 9.38335 21.9808 10.1282C19.4379 11.4087 17.7895 11.2445 15.5983 9.4104C15.0807 8.97756 14.5793 8.52489 14.0473 8.10828C13.3043 7.52756 12.8498 7.52035 12.1284 8.14796C11.5351 8.66376 11.0012 9.24628 10.4494 9.80716C9.81996 10.4492 9.18694 11.0912 8.57917 11.7549C7.87581 12.5232 7.93352 12.8226 8.84248 13.351C9.13284 13.5205 9.45205 13.6432 9.73881 13.8199C10.1392 14.067 10.5522 14.3087 10.9057 14.6152C12.0689 15.6234 12.242 16.866 11.4305 18.1735C11.1347 18.6514 10.7975 19.1041 10.5197 19.591C9.69552 21.0392 9.25728 22.6065 9.11661 24.2657C9.07693 24.731 8.97413 25.2035 8.82444 25.6453C8.42407 26.8284 7.59447 27.5264 6.33023 27.566C5.54752 27.5913 4.7594 27.4975 3.97669 27.4344C2.43832 27.3081 1.90449 27.676 1.86481 29.218C1.83235 30.5364 1.92252 31.8746 2.13353 33.1767C2.38962 34.7547 3.3094 35.3949 4.87302 35.0811C7.02998 34.6465 8.55753 35.4743 9.54223 37.294C10.4277 38.9298 11.178 40.6431 11.8994 42.36C12.3881 43.525 11.9517 44.5819 11.1311 45.453C10.4836 46.1383 9.74422 46.7352 9.06972 47.3953C8.07059 48.3746 7.99124 49.1627 8.78296 50.3242C9.43041 51.2764 10.3033 51.9653 11.3637 52.4252C12.2601 52.8148 13.0807 52.6975 13.8219 52.0844C14.4098 51.5974 14.9617 51.0636 15.5478 50.5748C16.7706 49.5559 17.8238 49.426 19.2125 50.2069C21.4614 51.473 23.7987 52.4775 26.3687 52.8851C27.4851 53.0636 28.1578 53.7688 28.4481 54.8419C28.6231 55.4929 28.7385 56.1602 28.9296 56.8041C29.4058 58.4128 30.0676 58.9214 31.725 59.0278C32.5564 59.0819 33.3842 59.1522 34.2156 59.2099C35.3194 59.2875 35.9398 58.934 36.2608 57.8735C36.479 57.1503 36.5277 56.3766 36.6558 55.6264C36.7243 55.2206 36.8 54.8148 36.8722 54.409C36.9407 54.4181 37.011 54.4253 37.0796 54.4343C37.0309 55.5362 37.0579 56.649 36.9155 57.7383C36.7225 59.2117 35.7522 59.9944 34.2806 59.9944C33.2905 59.9944 32.3004 59.9656 31.3102 59.9403C29.8963 59.9061 28.8413 59.2676 28.2624 57.9763C27.9431 57.264 27.7213 56.5029 27.5139 55.749C27.137 54.3802 26.9584 54.2071 25.5788 53.9979C23.3316 53.657 21.2432 52.8472 19.2359 51.8102C18.9762 51.6768 18.7129 51.5487 18.4586 51.4044C17.7553 51.0059 17.1205 51.1267 16.5433 51.6569C16.0618 52.097 15.6001 52.5605 15.1132 52.9933C13.5604 54.3694 11.9823 54.5641 10.141 53.5921C8.81723 52.8941 7.74235 51.9257 7.05343 50.5748C6.31219 49.1212 6.45467 47.7885 7.54758 46.5819C8.16437 45.9002 8.88576 45.3141 9.54223 44.6666C10.4981 43.7252 10.5377 43.3988 9.96605 42.1742C9.53862 41.2581 9.15989 40.3184 8.72345 39.4077C8.47276 38.8829 8.1788 38.3725 7.85417 37.8892C7.25361 36.9892 6.47631 36.5997 5.32389 36.8089C2.55554 37.3102 0.849452 36.0767 0.321032 33.2741C0.00181608 31.586 -0.15148 29.8799 0.21643 28.1792C0.591554 26.4461 1.58888 25.6417 3.35809 25.6471C4.20934 25.6489 5.06058 25.7842 5.91363 25.8058C6.76487 25.8275 7.03178 25.602 7.23197 24.7706C7.33657 24.3342 7.42314 23.8887 7.46101 23.4433C7.64316 21.2719 8.51965 19.3746 9.72799 17.6036C10.4277 16.5792 10.3303 16.1356 9.25728 15.4989C8.67836 15.1545 8.06698 14.8587 7.51692 14.471C6.24186 13.571 5.98396 12.2581 7.00293 11.1039C8.29602 9.63944 9.66487 8.22731 11.1275 6.93422C12.5035 5.72048 13.6848 5.81786 15.1258 6.99193C15.84 7.57445 16.5235 8.19485 17.2341 8.78279C18.2134 9.59255 19.3117 9.68813 20.4677 9.2535C20.9294 9.08036 21.3622 8.83509 21.8149 8.6367C23.126 8.05959 24.4264 7.45362 25.7591 6.927C26.8358 6.50138 27.0666 6.27956 27.137 5.12713C27.1749 4.49952 27.1568 3.8665 27.2181 3.24069C27.4039 1.30375 28.4806 0.165756 30.4049 0.0286914C31.4022 -0.0434478 32.4356 0.0124601 33.4203 0.189201C35.1877 0.50481 36.5151 2.13516 36.7838 4.21457C36.8956 5.08565 36.8866 5.97116 36.9335 6.84946C36.8686 6.85126 36.8018 6.85487 36.7369 6.85667L36.7315 6.85847Z" fill="#11114C"/>
<path d="M34.4195 14.8591C33.6945 14.7599 32.9713 14.6355 32.2427 14.5651C25.3588 13.8996 19.135 17.8781 16.8121 24.4212C14.1592 31.8948 17.3441 40.3369 24.3236 44.3983C27.0811 46.0034 30.0695 46.7987 33.2129 47.1125C33.3626 47.127 33.5087 47.1649 33.6566 47.1919C33.6656 47.2496 33.6746 47.3073 33.6836 47.3632C33.3139 47.4245 32.946 47.5183 32.5745 47.54C28.0189 47.8123 23.9953 46.3912 20.5417 43.4876C15.8689 39.5614 13.6993 34.4575 14.1429 28.378C14.6515 21.4075 19.5642 15.0088 27.0486 13.7031C29.2795 13.3135 31.487 13.4073 33.6133 14.2766C33.9109 14.3974 34.185 14.576 34.47 14.7274C34.4519 14.7707 34.4339 14.814 34.4158 14.8573L34.4195 14.8591Z" fill="#11114C"/>
<path d="M47.5127 16.8353C47.0366 17.3962 46.6001 17.9354 46.1367 18.4476C45.096 19.5982 44.032 20.7308 42.9914 21.8833C42.2844 22.666 41.4115 23.0934 40.3673 23.0519C35.9181 22.8752 31.4689 22.6786 27.0216 22.464C26.2172 22.4243 25.4165 22.271 24.6175 22.1484C24.3632 22.1087 24.118 22.0023 23.8691 21.9283C23.8691 21.8454 23.8691 21.7642 23.8691 21.6813C24.7113 21.5731 25.5517 21.3837 26.3958 21.3729C30.578 21.3152 34.7621 21.3061 38.9462 21.2791C39.0129 21.2791 39.0832 21.2791 39.1482 21.2899C40.5531 21.5424 41.6261 21.041 42.6433 20.0419C43.9707 18.7362 45.4712 17.609 46.8707 16.3718C47.0564 16.2077 47.1773 15.8488 47.161 15.5927C47.0709 14.2906 47.3738 13.1346 48.281 12.1751C49.2621 11.1381 50.5931 10.855 51.8591 11.3906C53.2622 11.984 54.0161 13.1454 53.9565 14.6044C53.9511 14.7559 53.9565 14.92 54.007 15.0589C54.4435 16.2528 54.1351 17.2898 53.282 18.1537C52.3659 19.0807 51.2243 19.3097 49.9817 18.967C48.8545 18.6568 48.1006 17.8741 47.5091 16.8389L47.5127 16.8353ZM50.9321 12.6801C49.8482 12.6585 48.9753 13.6558 48.9411 14.9579C48.905 16.3376 49.969 17.5369 51.2351 17.5441C52.4254 17.5513 53.7095 16.1879 53.7005 14.9254C53.695 14.0904 51.9835 12.6999 50.9321 12.6783V12.6801Z" fill="#11114C"/>
<path d="M53.3326 3.21022C53.3812 3.06594 53.4498 2.80624 53.5544 2.56096C54.6906 -0.0937615 57.2136 -0.384122 59.1848 0.858477C60.0469 1.40132 60.532 2.20928 60.4509 3.30039C60.4238 3.6665 60.6042 4.04342 60.6042 4.41494C60.6024 5.95151 59.1903 7.51512 57.5527 7.83073C55.3795 8.25094 53.4876 6.85505 53.246 4.64939C53.2334 4.54118 53.2189 4.43478 53.2117 4.37526C51.3992 4.37526 49.6264 4.45281 47.8626 4.35362C46.0285 4.25082 44.9572 5.08944 44.326 6.71979C44.133 7.21755 43.8228 7.67203 43.5451 8.13372C42.6018 9.70635 41.0995 10.3358 39.3718 10.4981C37.2473 10.6983 35.1553 10.4314 33.0957 9.89031C32.8973 9.83801 32.7116 9.7298 32.5204 9.64864C32.5276 9.56929 32.533 9.48993 32.5402 9.41058C33.3716 9.34385 34.203 9.26991 35.0362 9.20859C36.4015 9.1076 37.7721 9.05349 39.1337 8.90921C40.6523 8.7487 41.7668 7.97321 42.4161 6.55206C42.7046 5.92085 43.0437 5.30766 43.4044 4.71251C44.1384 3.50599 45.1429 2.69803 46.6416 2.78099C48.8347 2.90362 51.0259 3.05872 53.3307 3.20661L53.3326 3.21022ZM55.0224 3.9803C55.0008 5.58179 56.1297 6.52501 57.5076 6.24728C58.523 6.04168 59.239 5.4321 59.7457 4.55922C60.3084 3.59075 60.2561 3.27694 59.4355 2.49063C58.6799 1.76382 57.2317 1.43739 56.3714 1.85039C55.4156 2.31028 55.1018 3.18136 55.0206 3.9803H55.0224Z" fill="#11114C"/>
<path d="M47.4857 43.52C48.2305 42.0772 49.2693 41.1881 50.9231 41.2891C52.8149 41.4045 54.0052 42.6958 54.0341 44.6346C54.0341 44.7211 54.0575 44.8077 54.0828 44.8925C54.6798 46.9863 53.1143 48.8403 50.869 48.6942C49.006 48.5734 47.547 47.2045 47.2476 45.3614C47.1935 45.0241 46.9969 44.6526 46.7516 44.4109C45.3251 43.0078 43.8426 41.6588 42.4251 40.2467C41.774 39.5974 41.0454 39.3233 40.1419 39.2854C36.3456 39.1285 32.551 38.9518 28.7583 38.739C27.9269 38.6921 27.1045 38.4721 26.2767 38.3332C26.2767 38.225 26.2767 38.1168 26.2785 38.0068C27.0306 37.904 27.7826 37.7236 28.5365 37.7092C32.5384 37.6262 36.5421 37.5667 40.5441 37.5397C41.7235 37.5307 42.7191 38.0374 43.5 38.9374C44.8111 40.4451 46.1222 41.951 47.4839 43.5164L47.4857 43.52ZM49.0457 44.7987C49.0583 46.1351 50.1458 47.145 51.4028 47.1288C52.5571 47.1144 53.8411 45.8736 53.8033 44.7987C53.7996 44.7193 53.7492 44.6255 53.6914 44.5642C53.2478 44.0971 52.8564 43.5471 52.3334 43.1954C51.6661 42.7463 50.8762 42.5948 50.1061 43.0367C49.3793 43.4533 49.0673 44.1188 49.0457 44.7969V44.7987Z" fill="#11114C"/>
<path d="M31.6511 50.5139C32.1019 50.4309 32.5492 50.2921 33.0037 50.274C35.1372 50.1929 37.2707 50.137 39.4042 50.0919C40.2266 50.0739 40.8704 50.4742 41.3844 51.0874C42.2663 52.137 43.1518 53.1849 44.0049 54.2579C44.4558 54.8242 44.9842 55.1326 45.72 55.1597C47.6714 55.2336 49.6209 55.3454 51.63 55.4446C51.6823 55.2589 51.7364 55.0244 51.8158 54.799C52.2739 53.4969 53.1251 52.5771 54.512 52.3354C55.8267 52.1064 56.9539 52.5645 57.8141 53.5888C58.2758 54.1371 58.5247 54.7809 58.4309 55.5222C58.4147 55.6466 58.4345 55.7855 58.4706 55.9063C59.0369 57.7765 57.8015 59.5223 55.7906 59.6864C53.7365 59.8523 52.1332 58.5845 51.6048 56.3283C50.5948 56.4275 49.5758 56.5393 48.5551 56.6223C47.592 56.7016 46.6272 56.7702 45.6623 56.8099C44.5459 56.8549 43.5847 56.4906 42.8543 55.6142C41.976 54.5609 41.0869 53.5167 40.2392 52.4382C39.8587 51.9531 39.4132 51.7637 38.8091 51.7078C36.7531 51.5184 34.7007 51.2786 32.6484 51.0387C32.3057 50.999 31.9757 50.8602 31.6384 50.7682C31.642 50.6816 31.6456 50.5969 31.6511 50.5103V50.5139ZM55.4408 53.8323C54.6689 53.8035 54.1062 54.1605 53.7311 54.8116C53.3199 55.524 53.2694 56.2652 53.7148 56.9794C54.2018 57.7639 54.9286 58.1679 55.8556 58.1336C56.7988 58.0993 57.4625 57.5998 57.834 56.7521C57.9873 56.4023 58.2163 55.8955 58.0775 55.6448C57.5166 54.6331 56.714 53.8612 55.4408 53.8323Z" fill="#11114C"/>
<path d="M31.6187 30.3003C32.5276 30.1506 33.4311 29.9414 34.3473 29.8602C38.3655 29.5032 42.3836 29.5464 46.4505 30.0226C46.519 29.7719 46.5839 29.5212 46.6561 29.2705C47.3161 26.9873 49.7058 25.9792 51.7437 27.164C52.7807 27.7664 53.4101 28.6537 53.2965 29.9324C53.2875 30.0388 53.2965 30.1542 53.3271 30.257C53.87 32.1994 52.714 33.8694 50.6959 34.0533C48.8798 34.2175 47.2656 33.1696 46.6723 31.4383C46.629 31.3138 46.5911 31.1876 46.5479 31.0559C41.7037 31.4689 36.8902 31.7341 32.0966 30.8269C31.9343 30.7962 31.7864 30.6862 31.6313 30.6123C31.6277 30.5095 31.6241 30.4049 31.6205 30.3021L31.6187 30.3003ZM50.263 28.201C49.4587 28.1938 48.905 28.596 48.5461 29.2831C48.1638 30.0189 48.1674 30.7566 48.6471 31.4473C49.1575 32.1831 49.8771 32.5691 50.7734 32.5096C51.7058 32.4464 52.3677 31.9397 52.7212 31.0776C52.8582 30.7439 53.0909 30.2678 52.961 30.037C52.3803 29.0072 51.5688 28.2155 50.263 28.201Z" fill="#11114C"/>
</g>
<defs>
<clipPath id="clip0_15_1309">
<rect width="60.6042" height="60" fill="white"/>
</clipPath>
</defs>
</svg>
